<svg width="39" height="46" viewBox="0 0 39 46" fill="none" xmlns="http://www.w3.org/2000/svg">
<g clip-path="url(#clip0_253_21763)">
<path d="M8.73364 1.40918V38.9956H37.5635V10.2315L28.5712 1.40918H8.73364Z" fill="white" stroke="#201C42" stroke-width="2" stroke-linejoin="bevel"/>
<g style="mix-blend-mode:darken">
<path d="M27.3792 1.40918L37.5637 11.4012H27.3792V1.40918Z" fill="#003994"/>
</g>
<path d="M9.50949 44.8443L7.32607 43.3646C4.45314 41.4056 2.37026 38.5024 1.49402 35.1765L1.45093 34.8241V24.8885L3.23214 23.5214L6.79457 24.3811L9.4664 22.3799H11.2189L13.8907 24.3811L17.4531 23.5214L19.2344 24.8885V34.8241L19.1913 35.1765C18.3007 38.5024 16.2321 41.4056 13.3592 43.3646L11.1758 44.8443H9.53822H9.50949Z" fill="#003994"/>
<path d="M10.3282 23.4933L13.5459 25.9173L17.7835 24.8885V34.8241C16.979 37.826 15.1116 40.4473 12.5116 42.2089L10.3282 43.6887L8.14479 42.2089C5.54479 40.4473 3.67739 37.826 2.87297 34.8241V24.8885L7.11054 25.9173L10.3282 23.4933ZM12.0807 21.2524H8.5901L6.46413 22.845L3.57684 22.1403L0.0144043 24.8744V34.81L0.114957 35.5288C1.09175 39.1789 3.36137 42.364 6.52159 44.5061L8.70501 45.9859H11.9802L14.1636 44.5061C17.3238 42.364 19.5934 39.1648 20.5702 35.5288L20.6708 34.81V24.8744L17.1083 22.1403L14.221 22.845L12.0951 21.2524H12.0807Z" fill="white"/>
<g clip-path="url(#clip1_253_21763)">
<path d="M14.4858 31.7744L9.59709 36.6794L6.67798 33.7631" stroke="white" stroke-width="2" stroke-linecap="square" stroke-linejoin="bevel"/>
</g>
</g>
<defs>
<clipPath id="clip0_253_21763">
<rect width="39" height="46" fill="white"/>
</clipPath>
<clipPath id="clip1_253_21763">
<rect width="10.0286" height="6.57143" fill="white" transform="translate(5.57153 30.666)"/>
</clipPath>
</defs>
</svg>
