<svg width="45" height="44" viewBox="0 0 45 44" fill="none" xmlns="http://www.w3.org/2000/svg">
<g clip-path="url(#clip0_253_21745)">
<path d="M10.215 42.5607L8.77222 41.1213V31.4779L10.215 30.0386H34.7998L36.2426 31.4779V41.1213L34.7998 42.5607H10.215Z" fill="#003994"/>
<path d="M34.7997 31.4778V41.1212H10.2149V31.4778H34.7997ZM34.7997 28.5991H10.2149L7.32935 31.4778V41.1212L10.2149 43.9998H34.7997L37.6852 41.1212V31.4778L34.7997 28.5991Z" fill="white"/>
<path d="M43.5573 11.5288H1.44287V34.0542H43.5573V11.5288Z" fill="white" stroke="black" stroke-width="2" stroke-linejoin="bevel"/>
<path d="M10.215 29.5925L8.77222 28.1532V2.87877L10.215 1.43945H34.7998L36.2426 2.87877V28.1532L34.7998 29.5925H10.215Z" fill="#003994"/>
<path d="M34.7997 2.87864V28.1387H10.2149V2.87864H34.7997ZM34.7997 0H10.2149L7.32935 2.87864V28.1387L10.2149 31.0173H34.7997L37.6852 28.1387V2.87864L34.7997 0Z" fill="white"/>
<path d="M15.3367 8.65039H29.6634" stroke="white" stroke-width="2" stroke-miterlimit="10" stroke-linecap="square"/>
<path d="M15.3367 15.5156H29.6634" stroke="white" stroke-width="2" stroke-miterlimit="10" stroke-linecap="square"/>
<path d="M15.3367 22.3672H29.6634" stroke="white" stroke-width="2" stroke-miterlimit="10" stroke-linecap="square"/>
<path d="M38.4353 16.4517V18.8553" stroke="black" stroke-width="2" stroke-linejoin="bevel"/>
<path d="M38.4353 21.3306V23.7486" stroke="black" stroke-width="2" stroke-linejoin="bevel"/>
</g>
<defs>
<clipPath id="clip0_253_21745">
<rect width="45" height="44" fill="white"/>
</clipPath>
</defs>
</svg>
