<svg width="40" height="40" viewBox="0 0 40 40" fill="none" xmlns="http://www.w3.org/2000/svg">
<g clip-path="url(#clip0_253_24151)">
<path d="M30.1071 19.9714V38.5764H1.42383V9.87891H20.0288H30.1071V19.9714Z" fill="white" stroke="#201C42" stroke-width="2" stroke-linejoin="bevel"/>
<path d="M5.76465 32.4556L7.97105 25.1246L8.32693 24.541L31.8572 1.01074H33.8785L38.9888 6.12106V8.12818L15.4586 31.6584L14.8607 32.0143L7.54401 34.2349L5.76465 32.4556Z" fill="#003994"/>
<path d="M32.8682 2.00712L37.9785 7.11744L14.4483 30.6477L7.1173 32.8683L9.33794 25.5374L32.8682 2.00712ZM34.8753 0H30.8468L7.33082 23.5303L6.61908 24.726L4.39844 32.0569L7.94292 35.6014L15.2739 33.3808L16.4696 32.669L39.9999 9.13879V5.11032L34.8895 0H34.8753Z" fill="white"/>
</g>
<defs>
<clipPath id="clip0_253_24151">
<rect width="40" height="40" fill="white"/>
</clipPath>
</defs>
</svg>
