<svg width="40" height="40" viewBox="0 0 40 40" fill="none" xmlns="http://www.w3.org/2000/svg">
<g clip-path="url(#clip0_253_21830)">
<path d="M30.1069 19.9714V38.5764H1.42358V9.87891H20.0286H30.1069V19.9714Z" fill="#003994" stroke="white" stroke-width="2" stroke-linejoin="bevel"/>
<path d="M5.76514 32.4556L7.97154 25.1246L8.32741 24.541L31.8577 1.01074H33.879L38.9893 6.12106V8.12818L15.4591 31.6584L14.8612 32.0143L7.5445 34.2349L5.76514 32.4556Z" fill="white"/>
<path d="M32.8684 2.00712L37.9788 7.11744L14.4485 30.6477L7.11754 32.8683L9.33818 25.5374L32.8684 2.00712ZM34.8755 0H30.8471L7.33107 23.5303L6.61932 24.726L4.39868 32.0569L7.94317 35.6014L15.2741 33.3808L16.4699 32.669L40.0001 9.13879V5.11032L34.8898 0H34.8755Z" fill="#003994"/>
</g>
<defs>
<clipPath id="clip0_253_21830">
<rect width="40" height="40" fill="white"/>
</clipPath>
</defs>
</svg>
