<svg width="39" height="46" viewBox="0 0 39 46" fill="none" xmlns="http://www.w3.org/2000/svg">
<g clip-path="url(#clip0_253_26050)">
<path d="M8.73242 1.40918V38.9956H37.5623V10.2315L28.57 1.40918H8.73242Z" fill="#003994" stroke="white" stroke-width="2" stroke-linejoin="bevel"/>
<path d="M27.3789 1.40918L37.5634 11.4012H27.3789V1.40918Z" fill="white"/>
<path d="M9.50778 44.8443L7.32436 43.3646C4.45143 41.4056 2.36856 38.5024 1.49231 35.1765L1.44922 34.8241V24.8885L3.23043 23.5214L6.79287 24.3811L9.46469 22.3799H11.2172L13.889 24.3811L17.4514 23.5214L19.2326 24.8885V34.8241L19.1896 35.1765C18.2989 38.5024 16.2304 41.4056 13.3575 43.3646L11.1741 44.8443H9.53651H9.50778Z" fill="white"/>
<path d="M10.3275 23.4933L13.5452 25.9173L17.7827 24.8885V34.8241C16.9783 37.826 15.1109 40.4473 12.5109 42.2089L10.3275 43.6887L8.14406 42.2089C5.54406 40.4473 3.67666 37.826 2.87224 34.8241V24.8885L7.1098 25.9173L10.3275 23.4933ZM12.08 21.2524H8.58936L6.4634 22.845L3.5761 22.1403L0.0136719 24.8744V34.81L0.114224 35.5288C1.09102 39.1789 3.36063 42.364 6.52085 44.5061L8.70428 45.9859H11.9794L14.1628 44.5061C17.3231 42.364 19.5927 39.1648 20.5695 35.5288L20.67 34.81V24.8744L17.1076 22.1403L14.2203 22.845L12.0943 21.2524H12.08Z" fill="#003994"/>
<g clip-path="url(#clip1_253_26050)">
<path d="M14.4836 31.7744L9.5949 36.6794L6.67578 33.7631" stroke="#003994" stroke-width="2" stroke-linecap="square" stroke-linejoin="bevel"/>
</g>
</g>
<defs>
<clipPath id="clip0_253_26050">
<rect width="39" height="46" fill="white"/>
</clipPath>
<clipPath id="clip1_253_26050">
<rect width="10.0286" height="6.57143" fill="white" transform="translate(5.57031 30.666)"/>
</clipPath>
</defs>
</svg>
