<svg width="74" height="74" viewBox="0 0 74 74" fill="none" xmlns="http://www.w3.org/2000/svg">
<g clip-path="url(#clip0_253_58575)">
<path d="M23.871 62.0644H7.16129C3.21065 62.0644 0 58.8538 0 54.9031V42.7051C0 37.4296 3.77161 32.9777 8.97548 32.1064L14.5494 31.1754L15.2058 28.5615L17.5213 29.1344L16.4948 33.2641L9.38129 34.4457C5.33516 35.1141 2.39903 38.5873 2.39903 42.6931V54.8912C2.39903 57.5289 4.53548 59.6654 7.17323 59.6654H23.8829C25.1958 59.6654 26.27 58.5912 26.27 57.2783C26.27 55.9654 25.1958 54.8912 23.8829 54.8912H8.84419L6.80323 56.9322L5.12032 55.2493L7.85355 52.516H23.859C26.4968 52.516 28.6332 54.6525 28.6332 57.2902C28.6332 59.928 26.4968 62.0644 23.859 62.0644H23.871Z" fill="#003994" fill-opacity="0.8"/>
<path d="M9.54838 42.9678H7.16129V53.7097H9.54838V42.9678Z" fill="#003994" fill-opacity="0.8"/>
<path d="M40.6164 46.0826L35.9616 38.0978C34.6606 35.8658 32.3452 34.3381 29.779 34.0158L24.1097 33.3116L23.0713 29.1461L25.3868 28.5732L26.0313 31.1513L30.0894 31.6526C33.3835 32.0584 36.3555 34.0278 38.0384 36.9042L42.6932 44.889L40.6284 46.0945L40.6164 46.0826Z" fill="#003994" fill-opacity="0.8"/>
<path d="M33.4193 74H7.16129V60.871H9.54838V71.6129H31.0323V42.9678H33.4193V74Z" fill="#003994" fill-opacity="0.8"/>
<path d="M32.2258 64.4512H8.35484V66.8383H32.2258V64.4512Z" fill="#003994" fill-opacity="0.8"/>
<path d="M24.3465 31.2659L19.5717 34.8457L21.0036 36.7556L25.7784 33.1758L24.3465 31.2659Z" fill="#003994" fill-opacity="0.8"/>
<path d="M16.2322 31.271L14.8 33.1807L19.5742 36.7613L21.0064 34.8516L16.2322 31.271Z" fill="#003994" fill-opacity="0.8"/>
<path d="M21.4839 65.6455H19.0968V72.8068H21.4839V65.6455Z" fill="#003994" fill-opacity="0.8"/>
<path d="M14.9074 39.8288L12.0787 33.0733L14.2748 32.1543L16.1248 36.5585L19.7532 34.7443L20.8274 36.8688L14.9074 39.8288Z" fill="#003994" fill-opacity="0.8"/>
<path d="M25.6732 39.8286L19.7532 36.8686L20.8274 34.7441L24.4558 36.5583L26.3416 32.0586L28.5497 32.9896L25.6732 39.8286Z" fill="#003994" fill-opacity="0.8"/>
<path d="M28.6452 65.6456H26.2581V42.9682H14.3226V53.7101H11.9355V40.5811H28.6452V65.6456Z" fill="#003994" fill-opacity="0.8"/>
<path d="M14.3226 60.8711H11.9355V65.6453H14.3226V60.8711Z" fill="#003994" fill-opacity="0.8"/>
<path d="M20.2903 31.0327C15.0268 31.0327 10.7419 26.7479 10.7419 21.4843V15.5166C10.7419 12.2224 13.4155 9.54883 16.7097 9.54883H18.0465C18.3807 8.10464 19.24 6.8156 20.5052 5.98012L22.009 4.97754L23.3339 6.95883L21.83 7.96141C20.8632 8.60593 20.2903 9.69206 20.2903 10.8498C20.2903 12.7595 21.8419 14.323 23.7636 14.323H29.8387V21.4843C29.8387 26.7479 25.5539 31.0327 20.2903 31.0327ZM16.7097 11.9359C14.7403 11.9359 13.129 13.5472 13.129 15.5166V21.4843C13.129 25.435 16.3397 28.6456 20.2903 28.6456C24.241 28.6456 27.4516 25.435 27.4516 21.4843V16.7101H23.7636C20.899 16.7101 18.5119 14.6453 18.0107 11.9359H16.7216H16.7097Z" fill="#003994" fill-opacity="0.8"/>
<path d="M29.8387 23.8707H28.5616V21.4836H29.8387C31.1516 21.4836 32.2258 20.4094 32.2258 19.0965C32.2258 17.7836 31.1516 16.7094 29.8387 16.7094H28.6452V14.3223H29.8387C32.4765 14.3223 34.6129 16.4587 34.6129 19.0965C34.6129 21.7342 32.4765 23.8707 29.8387 23.8707Z" fill="#003994" fill-opacity="0.8"/>
<path d="M12.019 23.8707H10.7419C8.10419 23.8707 5.96774 21.7342 5.96774 19.0965C5.96774 16.4587 8.10419 14.3223 10.7419 14.3223H11.9355V16.7094H10.7419C9.42903 16.7094 8.35484 17.7836 8.35484 19.0965C8.35484 20.4094 9.42903 21.4836 10.7419 21.4836H12.019V23.8707Z" fill="#003994" fill-opacity="0.8"/>
<path d="M33.4313 16.8768L31.1635 16.1248L31.7603 14.3345C32.0706 13.4035 32.2258 12.4368 32.2258 11.47C32.2258 6.46903 28.1558 2.39903 23.1548 2.39903V0C29.4687 0 34.6129 5.14419 34.6129 11.4581C34.6129 12.6874 34.41 13.9048 34.0281 15.0865L33.4313 16.8768Z" fill="#003994" fill-opacity="0.8"/>
<path d="M21.4839 53.71H19.0968V60.8713H21.4839V53.71Z" fill="#003994" fill-opacity="0.8"/>
<path d="M42.0368 57.2906C39.9958 57.2906 38.0742 56.4073 36.7494 54.8557L31.3187 48.518L33.1329 46.9664L38.5636 53.3041C39.4348 54.3186 40.7 54.9035 42.0368 54.9035C44.1374 54.9035 45.9635 53.4831 46.4768 51.4302L49.8903 37.776L45.0206 36.1528L41.7384 50.3918L39.411 49.8547L43.29 33.0615L52.7429 36.2125L48.7923 52.0151C48.0165 55.1183 45.2355 57.2906 42.0368 57.2906Z" fill="#003994" fill-opacity="0.8"/>
<path d="M43.0274 34.9944L41.989 31.8911C41.8458 31.4495 41.7742 30.996 41.7742 30.5424C41.7742 28.1911 43.6958 26.2695 46.0471 26.2695H48.0523C49.8545 26.2695 51.3226 27.7376 51.3226 29.5399C51.3226 30.9482 50.4274 32.2015 49.0787 32.6431L46.9184 33.3592L46.1665 31.0915L48.3268 30.3753C48.6848 30.256 48.9355 29.9099 48.9355 29.5279C48.9355 29.0386 48.5416 28.6447 48.0523 28.6447H46.0471C45.0087 28.6447 44.1613 29.4921 44.1613 30.5305C44.1613 30.7334 44.1971 30.9363 44.2568 31.1273L45.2952 34.2305L43.0274 34.9824V34.9944Z" fill="#003994" fill-opacity="0.8"/>
<path d="M52.3132 37.6565L50.3319 36.3316L52.1342 33.6342C52.3848 33.2523 52.5161 32.8106 52.5161 32.3571C52.5161 31.4261 51.8836 30.6145 50.9765 30.3758L49.7471 30.0655L50.3319 27.75L51.5613 28.0603C53.5306 28.5497 54.9152 30.3161 54.9152 32.3452C54.9152 33.2761 54.6406 34.1713 54.1274 34.9471L52.3252 37.6445L52.3132 37.6565Z" fill="#003994" fill-opacity="0.8"/>
<path d="M52.5161 29.2418H50.129V22.6773C50.129 22.0209 49.5919 21.4838 48.9355 21.4838C48.279 21.4838 47.7419 22.0209 47.7419 22.6773V27.4515H45.3548V22.6773C45.3548 20.708 46.9661 19.0967 48.9355 19.0967C50.9048 19.0967 52.5161 20.708 52.5161 22.6773V29.2418Z" fill="#003994" fill-opacity="0.8"/>
<path d="M71.6129 54.9034H46.7155V52.5163H71.6129V2.38731H11.7326C10.5271 2.38731 9.54839 3.36602 9.54839 4.57151C9.54839 5.14441 9.7871 5.70538 10.1929 6.11118L12.6158 8.53409L10.36 10.038C9.10678 10.8734 8.35484 12.2818 8.35484 13.7857C8.35484 14.6212 8.58161 15.4328 9.02323 16.1489L6.99419 17.4022C6.32581 16.316 5.96774 15.0628 5.96774 13.7857C5.96774 11.5418 7.05387 9.45312 8.86807 8.16409L8.49807 7.79409C7.63871 6.93473 7.16129 5.78893 7.16129 4.55957C7.16129 2.04118 9.21419 -0.0117188 11.7326 -0.0117188H71.6129C72.9258 -0.0117188 74 1.06247 74 2.37538V52.5163C74 53.8292 72.9258 54.9034 71.6129 54.9034Z" fill="#003994" fill-opacity="0.8"/>
<path d="M32.2258 21.4834H29.8387V33.4189H32.2258V21.4834Z" fill="#003994" fill-opacity="0.8"/>
<path d="M69.2258 50.1292H48.3387V47.7422H66.8387V7.16151H31.8319V4.77441H69.2258V50.1292Z" fill="#003994" fill-opacity="0.8"/>
<path d="M64.4516 40.5804H57.2903V32.2256H59.6774V38.1933H64.4516V40.5804Z" fill="#003994" fill-opacity="0.8"/>
<path d="M64.4516 42.9678H54.9032V45.3549H64.4516V42.9678Z" fill="#003994" fill-opacity="0.8"/>
<path d="M53.1606 35.6756L52.8264 33.3124C58.09 32.5724 62.0645 28.0011 62.0645 22.6779C62.0645 16.7579 57.2426 11.9359 51.3226 11.9359C45.4026 11.9359 40.5806 16.7579 40.5806 22.6779C40.5806 25.6379 41.7503 28.383 43.8868 30.4359L42.2397 32.1546C39.6377 29.6601 38.1935 26.2943 38.1935 22.6779C38.1935 15.433 44.0777 9.54883 51.3226 9.54883C58.5674 9.54883 64.4516 15.433 64.4516 22.6779C64.4516 29.1946 59.5939 34.7804 53.1606 35.6756Z" fill="#003994" fill-opacity="0.8"/>
<path d="M60.8113 30.018L50.129 23.3341V10.7422H52.5161V22.0212L62.0764 27.989L60.8113 30.018Z" fill="#003994" fill-opacity="0.8"/>
<path d="M46.5484 21.4834H39.3871V23.8705H46.5484V21.4834Z" fill="#003994" fill-opacity="0.8"/>
</g>
<defs>
<clipPath id="clip0_253_58575">
<rect width="74" height="74" fill="white"/>
</clipPath>
</defs>
</svg>
