<svg width="89" height="85" viewBox="0 0 89 85" fill="none" xmlns="http://www.w3.org/2000/svg">
<g clip-path="url(#clip0_253_58390)">
<path d="M79.83 7.33984H27.53C23.294 7.33984 19.86 10.7738 19.86 15.0098V54.5498C19.86 58.7859 23.294 62.2198 27.53 62.2198H79.83C84.066 62.2198 87.5 58.7859 87.5 54.5498V15.0098C87.5 10.7738 84.066 7.33984 79.83 7.33984Z" fill="white" stroke="#A9D1EA" stroke-width="2"/>
<path d="M79.83 59.6297H27.52C24.72 59.6297 22.44 57.3497 22.44 54.5497V15.0097C22.44 12.2097 24.72 9.92969 27.52 9.92969H79.83C82.63 9.92969 84.9 12.2097 84.9 15.0097V54.5497C84.9 57.3497 82.62 59.6297 79.83 59.6297Z" fill="#DCEAF4"/>
<path d="M37.38 11.65C37.38 13.15 36.17 14.36 34.67 14.36C33.17 14.36 31.96 13.15 31.96 11.65V2.71C31.96 1.21 33.17 0 34.67 0C36.17 0 37.38 1.21 37.38 2.71V11.65Z" fill="#FF6161"/>
<path d="M75.4 11.65C75.4 13.15 74.19 14.36 72.69 14.36C71.19 14.36 69.98 13.15 69.98 11.65V2.71C69.98 1.21 71.19 0 72.69 0C74.19 0 75.4 1.21 75.4 2.71V11.65Z" fill="#FF6161"/>
<path d="M50.18 83.6405V78.9205C50.18 68.5105 42.13 60.0605 32.21 60.0605H24.12C14.19 60.0605 6.15 68.5005 6.15 78.9205V83.6405H50.18Z" fill="#A9D1EA" stroke="#0074DB" stroke-width="2"/>
<path d="M39.99 43.2604C39.99 38.2304 35.91 34.1504 30.88 34.1504H25.47C20.43 34.1504 16.35 38.2304 16.35 43.2604V51.0504H39.99V43.2604Z" fill="#A9D1EA" stroke="#0074DB" stroke-width="2"/>
<path d="M20.57 52.9206C21.11 54.6506 20.54 56.3606 19.3 56.7506C18.06 57.1306 16.63 56.0406 16.09 54.3106C15.56 52.5806 16.12 50.8706 17.36 50.4906C18.6 50.1106 20.03 51.2006 20.57 52.9306V52.9206Z" fill="white" stroke="#0074DB" stroke-width="2" stroke-linecap="round" stroke-linejoin="round"/>
<path d="M35.77 52.9206C35.23 54.6506 35.8 56.3606 37.04 56.7506C38.28 57.1306 39.71 56.0406 40.25 54.3106C40.78 52.5806 40.22 50.8706 38.98 50.4906C37.74 50.1106 36.31 51.2006 35.77 52.9306V52.9206Z" fill="white" stroke="#0074DB" stroke-width="2" stroke-linecap="round" stroke-linejoin="round"/>
<path d="M19.31 47.0107C19.18 47.4307 19.09 47.8707 19.09 48.3307V54.3107C19.09 59.3207 23.15 63.3907 28.17 63.3907C33.19 63.3907 37.25 59.3307 37.25 54.3107V48.3307C37.25 47.8707 37.16 47.4307 37.03 47.0107C35.2 47.8807 31.92 48.4607 28.17 48.4607C24.42 48.4607 21.15 47.8807 19.32 47.0107H19.31Z" fill="white" stroke="#0074DB" stroke-width="2" stroke-linecap="round" stroke-linejoin="round"/>
<path d="M23.28 53.29V54.48" stroke="#0074DB" stroke-width="2" stroke-linecap="round" stroke-linejoin="round"/>
<path d="M33.06 53.29V54.48" stroke="#0074DB" stroke-width="2" stroke-linecap="round" stroke-linejoin="round"/>
<path d="M64.64 24.9805H44.58C43.92 24.9805 43.38 25.5205 43.38 26.1905V38.0105C43.38 38.6705 43.92 39.2105 44.58 39.2105H48.39V43.6205L54.86 39.2105H64.64C65.3 39.2105 65.84 38.6705 65.84 38.0105V26.1905C65.84 25.5205 65.3 24.9805 64.64 24.9805Z" fill="white" stroke="#0074DB" stroke-width="2"/>
<path d="M15.79 28.4798C15.79 29.8498 14.68 30.9498 13.32 30.9498C11.96 30.9498 10.85 29.8398 10.85 28.4798C10.85 27.1198 11.96 26.0098 13.32 26.0098C14.68 26.0098 15.79 27.1198 15.79 28.4798Z" fill="#A9D1EA"/>
<path d="M57.13 69.6204C57.13 70.9904 56.02 72.0904 54.66 72.0904C53.3 72.0904 52.19 70.9804 52.19 69.6204C52.19 68.2604 53.3 67.1504 54.66 67.1504C56.02 67.1504 57.13 68.2604 57.13 69.6204Z" fill="#A9D1EA"/>
<path d="M0 83.6396H87.99" stroke="#2F4382" stroke-width="2"/>
<path d="M56.32 47.8096H59.23" stroke="#2F4382" stroke-width="2"/>
<path d="M62.03 47.8096H64.94" stroke="#2F4382" stroke-width="2"/>
<path d="M67.74 47.8096H70.65" stroke="#2F4382" stroke-width="2"/>
</g>
<defs>
<clipPath id="clip0_253_58390">
<rect width="88.5" height="84.64" fill="white"/>
</clipPath>
</defs>
</svg>
