<svg width="87" height="88" viewBox="0 0 87 88" fill="none" xmlns="http://www.w3.org/2000/svg">
<g clip-path="url(#clip0_253_58368)">
<path d="M1 9.36035V59.5004C1 63.1003 3.91 66.0104 7.51 66.0104H69.1V9.36035H1Z" fill="#A9D1EA"/>
<path d="M1 9.36035V59.5004C1 63.1004 3.91 66.0104 7.51 66.0104H69.1V9.36035H1Z" stroke="#0074DB" stroke-width="2"/>
<path d="M67.1 64.0104H7.51C5.02 64.0104 3 61.9904 3 59.5004V11.3604H67.1V64.0104V64.0104Z" stroke="white" stroke-width="2"/>
<path d="M9.16 1C4.65 1 1 4.65 1 9.15V60.54C1 56.04 4.65 52.38 9.16 52.38H12.28V1H9.16Z" fill="white" stroke="#0074DB" stroke-width="2"/>
<path d="M84.48 79.3601C86.08 80.9601 86.08 83.5401 84.48 85.1401C82.88 86.7401 80.29 86.7401 78.7 85.1401L61.62 68.0601C60.03 66.4601 60.03 63.8701 61.62 62.2801C63.22 60.6801 65.81 60.6801 67.4 62.2801L84.48 79.3601Z" fill="white" stroke="#A9D1EA" stroke-width="2"/>
<path d="M68.84 44.2096C75.82 51.1896 75.82 62.5196 68.84 69.4996C61.85 76.4796 50.53 76.4796 43.55 69.4996C36.56 62.5196 36.56 51.1896 43.55 44.2096C50.53 37.2296 61.86 37.2296 68.84 44.2096Z" fill="white" stroke="#A9D1EA" stroke-width="2"/>
<path d="M54.16 47.8197C55.75 46.2297 57.67 45.1497 59.69 44.5697C55.38 43.3497 50.55 44.4197 47.16 47.8197C42.17 52.8097 42.17 60.8997 47.16 65.8897C50.55 69.2797 55.38 70.3597 59.69 69.1397C57.66 68.5597 55.75 67.4897 54.16 65.8897C49.17 60.8997 49.17 52.8097 54.16 47.8197Z" fill="#DCEAF4"/>
<path d="M65.23 47.8193C63.63 46.2293 61.72 45.1493 59.7 44.5693C57.67 45.1493 55.76 46.2193 54.17 47.8193C49.18 52.8093 49.18 60.8993 54.17 65.8893C55.76 67.4793 57.68 68.5593 59.7 69.1393C61.73 68.5593 63.64 67.4893 65.23 65.8893C70.22 60.8993 70.22 52.8093 65.23 47.8193Z" fill="white"/>
<path d="M65.23 47.8196C70.22 52.8096 70.22 60.8996 65.23 65.8896C60.24 70.8796 52.15 70.8796 47.16 65.8896C42.17 60.8996 42.17 52.8096 47.16 47.8196C52.15 42.8296 60.24 42.8296 65.23 47.8196Z" stroke="#0074DB" stroke-width="2"/>
<path d="M21.45 20.2998H35.49" stroke="white" stroke-width="2" stroke-linejoin="round"/>
<path d="M21.45 26.9102H32.4" stroke="white" stroke-width="2" stroke-linejoin="round"/>
<path d="M21.45 33.5195H30.3" stroke="white" stroke-width="2" stroke-linejoin="round"/>
<path d="M21.45 40.1299H35.49" stroke="white" stroke-width="2" stroke-linejoin="round"/>
<path d="M82.48 60.6701C82.48 61.9401 81.45 62.9701 80.18 62.9701C78.91 62.9701 77.88 61.9401 77.88 60.6701C77.88 59.4001 78.91 58.3701 80.18 58.3701C81.45 58.3701 82.48 59.4001 82.48 60.6701Z" fill="#A9D1EA"/>
<path d="M40.48 74.6701C40.48 75.9401 39.45 76.9701 38.18 76.9701C36.91 76.9701 35.88 75.9401 35.88 74.6701C35.88 73.4001 36.91 72.3701 38.18 72.3701C39.45 72.3701 40.48 73.4001 40.48 74.6701Z" fill="#A9D1EA"/>
<path d="M79.51 41.79V49.29" stroke="#0074DB" stroke-width="2" stroke-linejoin="round"/>
<path d="M75.76 45.54H83.26" stroke="#0074DB" stroke-width="2" stroke-linejoin="round"/>
</g>
<defs>
<clipPath id="clip0_253_58368">
<rect width="86.68" height="87.34" fill="white"/>
</clipPath>
</defs>
</svg>
