<svg width="74" height="74" viewBox="0 0 74 74" fill="none" xmlns="http://www.w3.org/2000/svg">
<g clip-path="url(#clip0_253_58472)">
<path d="M47.7419 45.3545H28.5616V47.7416H47.7419V45.3545Z" fill="#003994" fill-opacity="0.8"/>
<path d="M16.3645 55.2535L14.6766 56.9414L19.4535 61.7183L21.1414 60.0303L16.3645 55.2535Z" fill="#003994" fill-opacity="0.8"/>
<path d="M13.6064 66.2782L10.9448 56.9924L13.2484 56.3359L15.0387 62.6259L19.6816 59.845L20.899 61.8979L13.6064 66.2782Z" fill="#003994" fill-opacity="0.8"/>
<path d="M9.54838 66.8389H7.16129V72.8066H9.54838V66.8389Z" fill="#003994" fill-opacity="0.8"/>
<path d="M40.5806 73.9998H0V68.2111C0 63.9621 2.11258 60.0234 5.64548 57.6721C7.14935 56.6695 8.80839 56.013 10.5868 55.7147L14.5613 55.0463L15.2655 52.4443L17.569 53.065L16.471 57.1469L10.9806 58.066C9.53645 58.3047 8.18774 58.8418 6.97032 59.6534C4.10581 61.563 2.3871 64.7618 2.3871 68.2111V71.6127H38.1936V68.2111C38.1936 64.7618 36.4868 61.563 33.6103 59.6534C32.3929 58.8418 31.0442 58.3047 29.6 58.066L24.1097 57.1469L23.0116 53.065L25.3152 52.4443L26.0194 55.0463L29.9939 55.7147C31.7723 56.013 33.4313 56.6695 34.9352 57.6721C38.4681 60.0234 40.5806 63.974 40.5806 68.2111V73.9998Z" fill="#003994" fill-opacity="0.8"/>
<path d="M33.4194 66.8389H31.0323V72.8066H33.4194V66.8389Z" fill="#003994" fill-opacity="0.8"/>
<path d="M24.2258 55.2554L19.4489 60.0322L21.1368 61.7202L25.9137 56.9433L24.2258 55.2554Z" fill="#003994" fill-opacity="0.8"/>
<path d="M26.9742 66.2782L19.6816 61.8979L20.899 59.845L25.5419 62.6259L27.3323 56.3359L29.6358 56.9924L26.9742 66.2782Z" fill="#003994" fill-opacity="0.8"/>
<path d="M17.8435 73.188L15.5758 72.4241L17.76 65.8715L16.0294 63.5799L17.9271 62.1357L20.4335 65.418L17.8435 73.188Z" fill="#003994" fill-opacity="0.8"/>
<path d="M22.7371 73.188L20.1471 65.418L22.6535 62.1357L24.5513 63.5799L22.8206 65.8715L25.0048 72.4241L22.7371 73.188Z" fill="#003994" fill-opacity="0.8"/>
<path d="M21.4839 64.4512H19.0968V66.8383H21.4839V64.4512Z" fill="#003994" fill-opacity="0.8"/>
<path d="M58.4839 19.0968C56.5145 19.0968 54.9032 17.4855 54.9032 15.5162C54.9032 13.5468 56.5145 11.9355 58.4839 11.9355C60.4532 11.9355 62.0645 13.5468 62.0645 15.5162C62.0645 17.4855 60.4532 19.0968 58.4839 19.0968ZM58.4839 14.3226C57.8274 14.3226 57.2903 14.8597 57.2903 15.5162C57.2903 16.1726 57.8274 16.7097 58.4839 16.7097C59.1403 16.7097 59.6774 16.1726 59.6774 15.5162C59.6774 14.8597 59.1403 14.3226 58.4839 14.3226Z" fill="#003994" fill-opacity="0.8"/>
<path d="M58.4839 23.8708C53.8768 23.8708 50.129 20.1231 50.129 15.516C50.129 10.9089 53.8768 7.16113 58.4839 7.16113C63.091 7.16113 66.8387 10.9089 66.8387 15.516C66.8387 20.1231 63.091 23.8708 58.4839 23.8708ZM58.4839 9.54823C55.1897 9.54823 52.5161 12.2218 52.5161 15.516C52.5161 18.8102 55.1897 21.4837 58.4839 21.4837C61.7781 21.4837 64.4516 18.8102 64.4516 15.516C64.4516 12.2218 61.7781 9.54823 58.4839 9.54823Z" fill="#003994" fill-opacity="0.8"/>
<path d="M62.0645 31.0323H54.9032V27.8813C54.9032 27.3203 54.5332 26.7952 53.9484 26.5564C53.3039 26.2819 52.6713 26.3774 52.2655 26.7952L50.1887 29.2181L44.9848 23.9545L47.2048 21.7345C47.6106 21.3287 47.7181 20.6961 47.4674 20.0994C47.2048 19.4668 46.6916 19.0968 46.1187 19.0968H42.9677V11.9355H46.1187C46.6797 11.9355 47.2048 11.5655 47.4435 10.9806C47.7181 10.3361 47.6106 9.70355 47.2048 9.29774L44.9729 7.07774L50.0455 2.00516L52.2655 4.2371C52.6713 4.6429 53.3039 4.75032 53.9006 4.49968C54.5332 4.2371 54.9032 3.72387 54.9032 3.15097V0H62.0645V3.15097C62.0645 3.71194 62.4345 4.2371 63.0194 4.47581C63.6639 4.75032 64.2965 4.65484 64.7023 4.2371L66.9223 2.00516L71.9948 7.07774L69.7629 9.29774C69.3571 9.70355 69.2616 10.3361 69.5003 10.9329C69.7629 11.5655 70.2761 11.9355 70.849 11.9355H74V19.0968H70.849C70.2881 19.0968 69.7629 19.4668 69.5242 20.0516V20.0755C69.2616 20.7319 69.369 21.3406 69.7629 21.7345L71.9829 23.9545L66.779 29.2181L64.6426 26.7355C64.2965 26.3894 63.6639 26.2939 63.0671 26.5445C62.4345 26.8071 62.0645 27.3203 62.0645 27.8932V31.0442V31.0323ZM57.2903 28.6452H59.6774V27.8813C59.6774 26.3535 60.6323 24.969 62.1003 24.3484C63.6281 23.7039 65.299 24.0142 66.3852 25.1003L66.8865 25.6852L68.6052 23.9545L68.0681 23.4174C67.0058 22.3671 66.6835 20.7439 67.2445 19.2877C67.2445 19.2639 67.2923 19.1803 67.3042 19.1326C67.9129 17.6526 69.2974 16.7097 70.8371 16.7097H71.601V14.3226H70.8371C69.3094 14.3226 67.9248 13.3677 67.3042 11.8997C66.6597 10.3719 66.97 8.70097 68.0561 7.61484L68.5932 7.07774L66.9103 5.39484L66.3732 5.93193C65.2752 7.03 63.6161 7.32839 62.1242 6.70774C60.6084 6.07516 59.6535 4.69065 59.6535 3.1629V2.39903H57.2665V3.1629C57.2665 4.69065 56.3116 6.07516 54.8436 6.69581C53.3158 7.34032 51.6448 7.03 50.5587 5.94387L50.0216 5.40677L48.3387 7.08968L48.8758 7.62677C49.9739 8.7129 50.2723 10.3839 49.6516 11.8758C49.019 13.3916 47.6345 14.3465 46.1068 14.3465H45.3429V16.7335H46.1068C47.6345 16.7335 49.019 17.6884 49.6397 19.1565C50.2842 20.6842 49.9739 22.3552 48.8877 23.4413L48.3506 23.9784L50.0694 25.709L50.511 25.1839C51.6568 24.0261 53.3277 23.7277 54.8197 24.3484C56.3355 24.981 57.2903 26.3655 57.2903 27.8932V28.6571V28.6452Z" fill="#003994" fill-opacity="0.8"/>
<path d="M58.4839 62.0648C57.2903 62.0648 56.2281 61.4084 55.691 60.3342L50.129 49.2103V26.0674H52.5161V48.6613L57.8274 59.2719C58.0781 59.7732 58.8897 59.7732 59.1523 59.2719L64.4635 48.6613V26.0674H66.8506V49.2222L61.2887 60.3461C60.7516 61.4084 59.6893 62.0767 58.4958 62.0767L58.4839 62.0648Z" fill="#003994" fill-opacity="0.8"/>
<path d="M59.6774 29.8389H57.2903V48.9356H59.6774V29.8389Z" fill="#003994" fill-opacity="0.8"/>
<path d="M62.0645 54.9033H54.9032V57.2904H62.0645V54.9033Z" fill="#003994" fill-opacity="0.8"/>
<path d="M65.6452 47.7422H51.3226V50.1293H65.6452V47.7422Z" fill="#003994" fill-opacity="0.8"/>
<path d="M57.2903 71.613H39.3871V69.2259H57.2903V60.8711H59.6774V69.2259C59.6774 70.5388 58.6032 71.613 57.2903 71.613Z" fill="#003994" fill-opacity="0.8"/>
<path d="M50.129 26.2578H29.6239V28.6449H50.129V26.2578Z" fill="#003994" fill-opacity="0.8"/>
<path d="M47.7419 38.1935H33.3V35.8064H45.3548V33.4193H32.8942V31.0322H47.7419V38.1935Z" fill="#003994" fill-opacity="0.8"/>
<path d="M47.7419 40.5811H42.9677V42.9682H47.7419V40.5811Z" fill="#003994" fill-opacity="0.8"/>
<path d="M40.5807 40.5811H33.2165V42.9682H40.5807V40.5811Z" fill="#003994" fill-opacity="0.8"/>
<path d="M47.7419 50.1289H26.1387V52.516H47.7419V50.1289Z" fill="#003994" fill-opacity="0.8"/>
<path d="M47.7419 54.9033H38.1935V57.2904H47.7419V54.9033Z" fill="#003994" fill-opacity="0.8"/>
<path d="M20.2903 54.9032C15.0268 54.9032 10.7419 50.6184 10.7419 45.3549V41.3087C10.7419 38.2174 12.2816 35.341 14.8597 33.6223L15.5161 33.1807L16.1726 33.6223C16.2442 33.67 23.1071 38.1936 28.6452 38.1936H29.8387V45.3549C29.8387 50.6184 25.5539 54.9032 20.2903 54.9032ZM15.5758 36.0571C14.0361 37.3461 13.129 39.2558 13.129 41.2968V45.3429C13.129 49.2936 16.3397 52.5042 20.2903 52.5042C24.241 52.5042 27.4516 49.2936 27.4516 45.3429V40.5091C22.5819 40.0794 17.4378 37.1791 15.5758 36.0452V36.0571Z" fill="#003994" fill-opacity="0.8"/>
<path d="M12.031 47.7417H10.7419C8.10419 47.7417 5.96774 45.6053 5.96774 42.9676C5.96774 40.3298 8.10419 38.1934 10.7419 38.1934H12.1623V40.5805H10.7419C9.42903 40.5805 8.35484 41.6546 8.35484 42.9676C8.35484 44.2805 9.42903 45.3547 10.7419 45.3547H12.031V47.7417Z" fill="#003994" fill-opacity="0.8"/>
<path d="M29.8387 47.7417V45.3547C31.1516 45.3547 32.2258 44.2805 32.2258 42.9676C32.2258 41.6546 31.1516 40.5805 29.8387 40.5805H28.6452V38.1934H29.8387C32.4765 38.1934 34.6129 40.3298 34.6129 42.9676C34.6129 45.6053 32.4765 47.7417 29.8387 47.7417Z" fill="#003994" fill-opacity="0.8"/>
<path d="M33.4313 40.7479L31.1635 39.9959L31.8081 38.0504C32.0826 37.2269 32.2258 36.3675 32.2258 35.5082C32.2258 30.4117 28.0842 26.2701 22.9877 26.2701H17.6048C12.5084 26.2701 8.36677 30.4117 8.36677 35.5082C8.36677 36.3795 8.51 37.2269 8.78451 38.0504L9.42903 39.9959L7.16129 40.7479L6.51677 38.8024C6.15871 37.7401 5.97968 36.6301 5.97968 35.4963C5.97968 29.0869 11.1955 23.8711 17.6048 23.8711H22.9877C29.3971 23.8711 34.6129 29.0869 34.6129 35.4963C34.6129 36.6182 34.4339 37.7282 34.0758 38.8024L33.4313 40.7479Z" fill="#003994" fill-opacity="0.8"/>
<path d="M54.9032 62.0645H52.5161V64.4516H54.9032V62.0645Z" fill="#003994" fill-opacity="0.8"/>
<path d="M50.129 62.0645H47.7419V64.4516H50.129V62.0645Z" fill="#003994" fill-opacity="0.8"/>
<path d="M45.3548 62.0645H42.9677V64.4516H45.3548V62.0645Z" fill="#003994" fill-opacity="0.8"/>
<path d="M19.0968 25.0642H16.7097V16.7094C16.7097 15.3965 17.7839 14.3223 19.0968 14.3223H44.1613V16.7094H19.0968V25.0642Z" fill="#003994" fill-opacity="0.8"/>
<path d="M23.871 19.0967H21.4839V21.4838H23.871V19.0967Z" fill="#003994" fill-opacity="0.8"/>
<path d="M28.6452 19.0967H26.2581V21.4838H28.6452V19.0967Z" fill="#003994" fill-opacity="0.8"/>
<path d="M33.4194 19.0967H31.0323V21.4838H33.4194V19.0967Z" fill="#003994" fill-opacity="0.8"/>
</g>
<defs>
<clipPath id="clip0_253_58472">
<rect width="74" height="74" fill="white"/>
</clipPath>
</defs>
</svg>
