<svg width="74" height="74" viewBox="0 0 74 74" fill="none" xmlns="http://www.w3.org/2000/svg">
<g clip-path="url(#clip0_253_58542)">
<path d="M57.2903 73.9998H47.7419V72.1498C47.7419 70.7891 46.9303 69.5717 45.6652 69.0466C44.4 68.5214 42.9677 68.8078 42.001 69.7746L40.7 71.0756L33.9445 64.3201L35.2455 63.0191C36.2123 62.0524 36.4987 60.6201 35.9736 59.3549C35.4484 58.1017 34.231 57.2901 32.8703 57.2901H31.0203V47.7417H32.8584C34.219 47.7417 35.4484 46.9301 35.9616 45.6649C36.4868 44.4117 36.2003 42.9675 35.2336 42.0007L33.9206 40.6998L40.6761 33.9443L41.9771 35.2453C42.9439 36.212 44.3881 36.4985 45.6532 35.9733C46.9065 35.4482 47.7181 34.2427 47.7181 32.882V32.2256H50.1052V32.882C50.1052 35.2095 48.7206 37.2862 46.5723 38.1814C44.579 39.0049 42.3352 38.6588 40.7 37.3101L37.2865 40.7236C38.6352 42.3588 38.9932 44.6027 38.1697 46.584C37.3461 48.5653 35.5081 49.902 33.3955 50.1049V54.9269C35.5081 55.1178 37.3342 56.4546 38.1577 58.4478C38.9813 60.4411 38.6352 62.6849 37.2745 64.3201L40.6881 67.7337C42.3232 66.3849 44.5671 66.0269 46.5603 66.8504C48.5416 67.674 49.8784 69.512 50.0813 71.6127H54.9032C55.0942 69.5001 56.431 67.674 58.4242 66.8504C60.4055 66.0269 62.6613 66.373 64.2965 67.7337L67.71 64.3201C66.3613 62.6849 66.0032 60.4411 66.8268 58.4478C67.6503 56.4666 69.4884 55.1298 71.589 54.9269V50.1049C69.4765 49.914 67.6503 48.5772 66.8268 46.584C66.0032 44.5907 66.3494 42.3469 67.71 40.7117L64.2965 37.2982C62.6613 38.6469 60.4174 39.0049 58.4242 38.1814C56.2758 37.2862 54.8794 35.1975 54.8794 32.8701H57.2665C57.2665 34.2307 58.0781 35.4482 59.3432 35.9733C60.6084 36.4985 62.0406 36.212 63.0074 35.2453L64.3084 33.9443L71.0639 40.6998L69.7629 42.0007C68.7961 42.9675 68.5097 44.3998 69.0348 45.6649C69.56 46.9182 70.7774 47.7298 72.1381 47.7298H73.9881V57.2782H72.1381C70.7774 57.2782 69.56 58.0898 69.0348 59.3549C68.5097 60.6201 68.7961 62.0524 69.7629 63.0191L71.0639 64.3201L64.3084 71.0756L63.0074 69.7746C62.0406 68.8078 60.6084 68.5214 59.3432 69.0466C58.09 69.5717 57.2784 70.7891 57.2784 72.1498V73.9998H57.2903Z" fill="#003994" fill-opacity="0.8"/>
<path d="M52.5161 66.8385C44.6148 66.8385 38.1935 60.4172 38.1935 52.5159C38.1935 44.6146 44.6148 38.1934 52.5161 38.1934C60.4174 38.1934 66.8387 44.6146 66.8387 52.5159C66.8387 60.4172 60.4174 66.8385 52.5161 66.8385ZM52.5161 40.5805C45.9397 40.5805 40.5806 45.9395 40.5806 52.5159C40.5806 59.0924 45.9397 64.4514 52.5161 64.4514C59.0926 64.4514 64.4516 59.0924 64.4516 52.5159C64.4516 45.9395 59.0926 40.5805 52.5161 40.5805Z" fill="#003994" fill-opacity="0.8"/>
<path d="M52.5161 57.2904C48.5655 57.2904 45.3549 54.0797 45.3549 50.1291C45.3549 46.1784 48.5655 42.9678 52.5161 42.9678C56.4668 42.9678 59.6774 46.1784 59.6774 50.1291C59.6774 54.0797 56.4668 57.2904 52.5161 57.2904ZM52.5161 45.3549C49.8784 45.3549 47.742 47.4913 47.742 50.1291C47.742 52.7668 49.8784 54.9033 52.5161 54.9033C55.1539 54.9033 57.2903 52.7668 57.2903 50.1291C57.2903 47.4913 55.1539 45.3549 52.5161 45.3549Z" fill="#003994" fill-opacity="0.8"/>
<path d="M57.1352 57.1301L51.5433 64.958L53.4857 66.3456L59.0776 58.5177L57.1352 57.1301Z" fill="#003994" fill-opacity="0.8"/>
<path d="M47.8986 57.1226L45.9559 58.5098L51.5464 66.3386L53.489 64.9514L47.8986 57.1226Z" fill="#003994" fill-opacity="0.8"/>
<path d="M60.501 62.4824C59.1045 59.3314 55.9655 57.2904 52.5161 57.2904C49.0668 57.2904 45.9278 59.3314 44.5313 62.4824L42.3471 61.5156C44.1255 57.4933 48.1239 54.9033 52.5161 54.9033C56.9084 54.9033 60.9068 57.4933 62.6852 61.5156L60.501 62.4824Z" fill="#003994" fill-opacity="0.8"/>
<path d="M59.391 28.6453C56.9442 28.6453 54.4974 27.7143 52.6355 25.8524L45.7607 18.9775C42.0368 15.2537 42.0368 9.20237 45.7607 5.4785C46.6916 4.54753 48.2074 4.54753 49.1384 5.4785L52.5162 8.85624C53.4471 9.78721 53.4471 11.303 52.5162 12.234L51.6687 13.0814C51.2033 13.5469 51.2033 14.2988 51.6687 14.7762L56.8487 19.9562C57.3142 20.4217 58.0781 20.4217 58.5436 19.9562L59.391 19.1088C60.322 18.1779 61.8378 18.1779 62.7687 19.1088L66.1465 22.4866C67.0774 23.4175 67.0774 24.9333 66.1465 25.8643C64.2845 27.7262 61.8378 28.6572 59.391 28.6572V28.6453ZM47.4555 7.1614C44.6626 9.95431 44.6626 14.5017 47.4555 17.2946L54.3304 24.1695C57.1233 26.9624 61.6587 26.9624 64.4636 24.1695L61.0858 20.7917L60.2384 21.6391C58.842 23.0356 56.5742 23.0356 55.1778 21.6391L49.9978 16.4591C48.6013 15.0627 48.6013 12.795 49.9978 11.3985L50.8452 10.5511L47.4675 7.17334L47.4555 7.1614Z" fill="#003994" fill-opacity="0.8"/>
<path d="M54.5452 40.5806C53.6261 40.5806 52.7668 40.1271 52.2536 39.3513L48.291 33.4194H39.3871C37.4177 33.4194 35.8065 31.8081 35.8065 29.8387V3.58065C35.8065 1.61129 37.4177 0 39.3871 0H70.4194C72.3887 0 74 1.61129 74 3.58065V29.8387C74 31.8081 72.3887 33.4194 70.4194 33.4194H57.2903V37.8355C57.2903 39.3513 56.061 40.5806 54.5452 40.5806ZM39.3871 2.3871C38.7307 2.3871 38.1936 2.92419 38.1936 3.58065V29.8387C38.1936 30.4952 38.7307 31.0323 39.3871 31.0323H49.58L54.2468 38.0384C54.4258 38.301 54.9032 38.1577 54.9032 37.8355V31.0323H70.4194C71.0758 31.0323 71.6129 30.4952 71.6129 29.8387V3.58065C71.6129 2.92419 71.0758 2.3871 70.4194 2.3871H39.3871Z" fill="#003994" fill-opacity="0.8"/>
<path d="M32.2258 50.1291H2.3871C1.07419 50.1291 0 49.0549 0 47.742V45.3549C0 44.042 1.07419 42.9678 2.3871 42.9678H37.4297V45.3549H2.3871V47.742H32.2258V50.1291Z" fill="#003994" fill-opacity="0.8"/>
<path d="M39.3871 69.2259H2.38708V48.9355H4.77418V66.8388H39.3871V69.2259Z" fill="#003994" fill-opacity="0.8"/>
<path d="M9.54841 62.0645H7.16132V64.4516H9.54841V62.0645Z" fill="#003994" fill-opacity="0.8"/>
<path d="M14.3226 62.0645H11.9355V64.4516H14.3226V62.0645Z" fill="#003994" fill-opacity="0.8"/>
<path d="M19.0968 62.0645H16.7097V64.4516H19.0968V62.0645Z" fill="#003994" fill-opacity="0.8"/>
<path d="M5.96773 45.3546C3.99838 45.3546 2.38708 43.7433 2.38708 41.7739V28.6449C2.38708 27.332 3.46128 26.2578 4.77418 26.2578H16.7097C18.0226 26.2578 19.0968 27.332 19.0968 28.6449V39.3868H16.7097V28.6449H4.77418V41.7739C4.77418 42.4304 5.31128 42.9675 5.96773 42.9675V45.3546Z" fill="#003994" fill-opacity="0.8"/>
<path d="M25.0645 45.3546V42.9676C25.721 42.9676 26.258 42.4305 26.258 41.774C26.258 41.1176 25.721 40.5805 25.0645 40.5805H3.58063V38.1934H25.0645C27.0339 38.1934 28.6451 39.8046 28.6451 41.774C28.6451 43.7434 27.0339 45.3546 25.0645 45.3546Z" fill="#003994" fill-opacity="0.8"/>
<path d="M17.9032 45.3546C15.9339 45.3546 14.3226 43.7434 14.3226 41.774C14.3226 39.8046 15.9339 38.1934 17.9032 38.1934V40.5805C17.2468 40.5805 16.7097 41.1176 16.7097 41.774C16.7097 42.4305 17.2468 42.9676 17.9032 42.9676V45.3546Z" fill="#003994" fill-opacity="0.8"/>
<path d="M33.4193 44.1618H31.0323V32.7515C31.0323 30.5553 29.9819 28.4547 28.2274 27.1418C27.3919 26.5211 26.4132 26.0795 25.3987 25.8766L20.5171 24.8979L19.5861 21.1979L21.9016 20.625L22.4626 22.8689L25.8642 23.5492C27.2368 23.8237 28.5497 24.4085 29.6597 25.244C32.011 27.0105 33.4193 29.8273 33.4193 32.7634V44.1737V44.1618Z" fill="#003994" fill-opacity="0.8"/>
<path d="M6.43325 28.2154L4.60712 26.6757C5.06067 26.1387 5.58583 25.6493 6.14679 25.2196C7.25679 24.3841 8.58163 23.7993 9.94228 23.5248L13.3439 22.8445L13.9049 20.6006L16.2203 21.1735L15.2894 24.8735L10.4078 25.8522C9.38131 26.0551 8.4026 26.4967 7.57905 27.1174C7.16131 27.4277 6.76744 27.7977 6.43325 28.2035V28.2154Z" fill="#003994" fill-opacity="0.8"/>
<path d="M20.826 22.8736L17.241 25.2637L18.5651 27.2499L22.1502 24.8598L20.826 22.8736Z" fill="#003994" fill-opacity="0.8"/>
<path d="M17.0319 28.406L15.5997 26.4963L15.8384 26.3173L13.6661 24.8612L14.979 22.8799L19.9681 26.1979L17.0319 28.406Z" fill="#003994" fill-opacity="0.8"/>
<path d="M11.1477 17.9029H8.35482C6.38546 17.9029 4.77417 16.2916 4.77417 14.3222V11.9351C4.77417 9.96578 6.38546 8.35449 8.35482 8.35449H10.7419V10.7416H8.35482C7.69836 10.7416 7.16127 11.2787 7.16127 11.9351V14.3222C7.16127 14.9787 7.69836 15.5158 8.35482 15.5158H11.1477V17.9029Z" fill="#003994" fill-opacity="0.8"/>
<path d="M27.4516 17.9029H24.6587V15.5158H27.4516C28.108 15.5158 28.6451 14.9787 28.6451 14.3222V11.9351C28.6451 11.2787 28.108 10.7416 27.4516 10.7416H25.0645V8.35449H27.4516C29.4209 8.35449 31.0322 9.96578 31.0322 11.9351V14.3222C31.0322 16.2916 29.4209 17.9029 27.4516 17.9029Z" fill="#003994" fill-opacity="0.8"/>
<path d="M17.9032 22.6779C13.2961 22.6779 9.5484 18.9301 9.5484 14.323V9.54883H11.9355V14.323C11.9355 17.6172 14.609 20.2908 17.9032 20.2908C21.1974 20.2908 23.871 17.6172 23.871 14.323V9.54883H26.2581V14.323C26.2581 18.9301 22.5103 22.6779 17.9032 22.6779Z" fill="#003994" fill-opacity="0.8"/>
<path d="M24.7781 10.7064C21.3407 9.84709 19.0491 8.39096 17.9032 7.53161C16.7574 8.4029 14.4778 9.84709 11.0284 10.7064L10.4555 8.39096C14.812 7.30483 17.0439 5.14451 17.0678 5.12064L17.9152 4.28516L18.7507 5.12064C18.7507 5.12064 21.0065 7.30483 25.3629 8.39096L24.79 10.7064H24.7781Z" fill="#003994" fill-opacity="0.8"/>
<path d="M25.0645 22.6777H23.871V20.2906H25.0645C25.721 20.2906 26.2581 19.7535 26.2581 19.0971V16.71H28.6452V19.0971C28.6452 21.0664 27.0339 22.6777 25.0645 22.6777Z" fill="#003994" fill-opacity="0.8"/>
<path d="M28.6452 9.54839H26.2581C26.2581 5.59774 23.0474 2.3871 19.0968 2.3871H16.7097C12.7591 2.3871 9.54841 5.59774 9.54841 9.54839H7.16132C7.16132 4.28484 11.4462 0 16.7097 0H19.0968C24.3603 0 28.6452 4.28484 28.6452 9.54839Z" fill="#003994" fill-opacity="0.8"/>
<path d="M19.0968 1.19336H16.7097V5.96755H19.0968V1.19336Z" fill="#003994" fill-opacity="0.8"/>
<path d="M28.6452 33.4189H26.2581V41.7738H28.6452V33.4189Z" fill="#003994" fill-opacity="0.8"/>
</g>
<defs>
<clipPath id="clip0_253_58542">
<rect width="74" height="74" fill="white"/>
</clipPath>
</defs>
</svg>
