<svg width="74" height="74" viewBox="0 0 74 74" fill="none" xmlns="http://www.w3.org/2000/svg">
<g clip-path="url(#clip0_253_58512)">
<path d="M46.7274 23.8706H46.3813C44.5074 23.8706 42.9797 22.3429 42.9797 20.469V19.0964H45.3668V20.469C45.3668 21.03 45.8203 21.4835 46.3813 21.4835H46.7274C47.2884 21.4835 47.7419 21.03 47.7419 20.469C47.7419 20.0751 47.5271 19.729 47.181 19.5619L44.8536 18.4041C43.6958 17.8193 42.9677 16.6616 42.9677 15.3606C42.9677 13.4867 44.4955 11.959 46.3694 11.959H46.7155C48.5894 11.959 50.1171 13.4867 50.1171 15.3606V15.5396H47.73V15.3606C47.73 14.7996 47.2765 14.3461 46.7155 14.3461H46.3694C45.8084 14.3461 45.3548 14.7996 45.3548 15.3606C45.3548 15.7545 45.5697 16.1006 45.9158 16.2677L48.2432 17.4254C49.401 18.0103 50.129 19.168 50.129 20.469C50.129 22.3429 48.6013 23.8706 46.7274 23.8706Z" fill="#003994" fill-opacity="0.8"/>
<path d="M47.7419 9.54883H45.3548V13.1295H47.7419V9.54883Z" fill="#003994" fill-opacity="0.8"/>
<path d="M47.7419 21.4834H45.3548V26.2576H47.7419V21.4834Z" fill="#003994" fill-opacity="0.8"/>
<path d="M46.5484 31.0325C42.3829 31.0325 38.5516 29.1228 36.0452 25.7809L37.9548 24.3486C40.0077 27.0818 43.1348 28.6454 46.5484 28.6454C52.4684 28.6454 57.2903 23.8234 57.2903 17.9034C57.2903 11.9834 52.4684 7.16151 46.5484 7.16151C43.1348 7.16151 40.0077 8.72506 37.9548 11.4583L36.0452 10.026C38.5516 6.69603 42.3829 4.77441 46.5484 4.77441C53.7932 4.77441 59.6774 10.6586 59.6774 17.9034C59.6774 25.1483 53.7932 31.0325 46.5484 31.0325Z" fill="#003994" fill-opacity="0.8"/>
<path d="M15.5161 64.4521H5.96774C2.67355 64.4521 0 61.7785 0 58.4843C0 55.1902 2.67355 52.5166 5.96774 52.5166H15.5161V54.9037H5.96774C3.99839 54.9037 2.3871 56.515 2.3871 58.4843C2.3871 60.4537 3.99839 62.065 5.96774 62.065H15.5161V64.4521Z" fill="#003994" fill-opacity="0.8"/>
<path d="M65.9316 64.4521H60.871V62.065H65.3587L71.1952 59.1408C71.4458 59.0095 71.601 58.7589 71.601 58.4843C71.601 58.2098 71.4458 57.9472 71.1952 57.8279L65.3587 54.9037H51.3226V52.5166H65.9316L72.2813 55.6914C73.3435 56.2285 74.0119 57.2908 74.0119 58.4843C74.0119 59.6779 73.3555 60.7402 72.2813 61.2772L65.9316 64.4521Z" fill="#003994" fill-opacity="0.8"/>
<path d="M11.9355 53.71H9.54839V63.2583H11.9355V53.71Z" fill="#003994" fill-opacity="0.8"/>
<path d="M57.2903 74H19.0968C16.459 74 14.3226 71.8635 14.3226 69.2258V38.1936C14.3226 36.8806 13.2484 35.8065 11.9355 35.8065C10.6226 35.8065 9.54839 36.8806 9.54839 38.1936V42.9677C9.54839 45.6055 7.41194 47.7419 4.77419 47.7419C2.13645 47.7419 0 45.6055 0 42.9677V0H38.1936V34.6129H35.8065V2.3871H2.3871V42.9677C2.3871 44.2806 3.46129 45.3548 4.77419 45.3548C6.0871 45.3548 7.16129 44.2806 7.16129 42.9677V38.1936C7.16129 35.5558 9.29774 33.4194 11.9355 33.4194C14.5732 33.4194 16.7097 35.5558 16.7097 38.1936V69.2258C16.7097 70.5387 17.7839 71.6129 19.0968 71.6129C20.4097 71.6129 21.4839 70.5387 21.4839 69.2258V59.6774H62.0645V69.2258C62.0645 71.8635 59.9281 74 57.2903 74ZM23.2265 71.6129H57.2903C58.6032 71.6129 59.6774 70.5387 59.6774 69.2258V62.0645H23.871V69.2258C23.871 70.0971 23.6323 70.9087 23.2265 71.6129Z" fill="#003994" fill-opacity="0.8"/>
<path d="M52.5161 60.8706H50.129V38.1931C50.129 36.8802 49.0548 35.806 47.7419 35.806H11.9355V33.4189H47.7419C50.3797 33.4189 52.5161 35.5554 52.5161 38.1931V60.8706Z" fill="#003994" fill-opacity="0.8"/>
<path d="M66.8387 53.71H64.4516V63.2583H66.8387V53.71Z" fill="#003994" fill-opacity="0.8"/>
<path d="M15.5161 45.3545H4.77419V47.7416H15.5161V45.3545Z" fill="#003994" fill-opacity="0.8"/>
<path d="M21.4839 21.4841H4.77419V4.77441H21.4839V21.4841ZM7.16129 19.097H19.0968V7.16151H7.16129V19.097Z" fill="#003994" fill-opacity="0.8"/>
<path d="M33.4194 4.77441H23.871V7.16151H33.4194V4.77441Z" fill="#003994" fill-opacity="0.8"/>
<path d="M33.4194 9.54883H23.871V11.9359H33.4194V9.54883Z" fill="#003994" fill-opacity="0.8"/>
<path d="M33.4194 14.3223H23.871V16.7094H33.4194V14.3223Z" fill="#003994" fill-opacity="0.8"/>
<path d="M33.4194 19.0967H23.871V21.4838H33.4194V19.0967Z" fill="#003994" fill-opacity="0.8"/>
<path d="M7.16129 23.8711H4.77419V26.2582H7.16129V23.8711Z" fill="#003994" fill-opacity="0.8"/>
<path d="M33.4194 23.8711H9.54839V26.2582H33.4194V23.8711Z" fill="#003994" fill-opacity="0.8"/>
<path d="M33.4194 28.6455H4.77419V31.0326H33.4194V28.6455Z" fill="#003994" fill-opacity="0.8"/>
<path d="M57.2903 69.226H54.9032V66.8389H57.2903V69.226ZM52.5161 69.226H50.129V66.8389H52.5161V69.226ZM47.7419 69.226H45.3548V66.8389H47.7419V69.226Z" fill="#003994" fill-opacity="0.8"/>
<path d="M21.4839 38.1934H19.0968V40.5805H21.4839V38.1934Z" fill="#003994" fill-opacity="0.8"/>
<path d="M47.7419 38.1934H23.871V40.5805H47.7419V38.1934Z" fill="#003994" fill-opacity="0.8"/>
<path d="M47.7419 42.9678H19.0968V45.3549H47.7419V42.9678Z" fill="#003994" fill-opacity="0.8"/>
<path d="M21.4839 47.7422H19.0968V50.1293H21.4839V47.7422Z" fill="#003994" fill-opacity="0.8"/>
<path d="M47.7419 47.7422H23.871V50.1293H47.7419V47.7422Z" fill="#003994" fill-opacity="0.8"/>
<path d="M47.7419 52.5166H19.0968V54.9037H47.7419V52.5166Z" fill="#003994" fill-opacity="0.8"/>
</g>
<defs>
<clipPath id="clip0_253_58512">
<rect width="74" height="74" fill="white"/>
</clipPath>
</defs>
</svg>
