<svg width="77" height="76" viewBox="0 0 77 76" fill="none" xmlns="http://www.w3.org/2000/svg">
<g clip-path="url(#clip0_253_58414)">
<path d="M50.65 74.53L66.57 61.94V1H1V74.53H50.65Z" fill="white" stroke="#3F96E4" stroke-width="2" stroke-linecap="round" stroke-linejoin="round"/>
<path d="M50.65 61.9404V74.5304L66.57 61.9404H50.65Z" fill="white" stroke="#3F96E4" stroke-width="2" stroke-linecap="round" stroke-linejoin="round"/>
<path d="M19.7 8.37988L21.5 14.0399L27.44 14.0099L22.61 17.4699L24.48 23.1099L19.7 19.5899L14.91 23.1099L16.78 17.4699L11.96 14.0099L17.9 14.0399L19.7 8.37988Z" fill="white" stroke="#FF6161" stroke-width="2"/>
<path d="M11.85 30.5801H28.61" stroke="#3F96E4" stroke-width="2" stroke-linecap="round" stroke-linejoin="round"/>
<path d="M11.85 37.2998H28.61" stroke="#3F96E4" stroke-width="2" stroke-linecap="round" stroke-linejoin="round"/>
<path d="M11.85 44.0303H28.61" stroke="#3F96E4" stroke-width="2" stroke-linecap="round" stroke-linejoin="round"/>
<path d="M55.36 11.4502V18.9502" stroke="#0074DB" stroke-width="2" stroke-linejoin="round"/>
<path d="M51.61 15.2002H59.11" stroke="#0074DB" stroke-width="2" stroke-linejoin="round"/>
<path d="M63.64 25.3896C56.94 25.3896 51.52 30.8196 51.52 37.5096C51.52 40.4196 52.55 43.0896 54.25 45.1796C53.24 48.5196 49.7 49.6297 49.7 49.6297H63.41C63.49 49.6297 63.56 49.6297 63.64 49.6297C70.34 49.6297 75.76 44.1996 75.76 37.5096C75.76 30.8196 70.33 25.3896 63.64 25.3896Z" fill="white" stroke="#3F96E4" stroke-width="2"/>
<path d="M58.66 33.6396H69.2" stroke="#0074DB" stroke-width="2"/>
<path d="M58.66 38.0801H69.2" stroke="#0074DB" stroke-width="2"/>
<path d="M58.66 42.5195H69.2" stroke="#0074DB" stroke-width="2"/>
</g>
<defs>
<clipPath id="clip0_253_58414">
<rect width="76.76" height="75.53" fill="white"/>
</clipPath>
</defs>
</svg>
