<svg width="48" height="48" viewBox="0 0 48 48" fill="none" xmlns="http://www.w3.org/2000/svg">
<circle cx="24" cy="24" r="24" fill="white"/>
<path d="M18.4218 21.0101C18.0367 21.0101 17.7246 21.3256 17.7246 21.7148C17.7246 22.104 18.0367 22.4209 18.4218 22.4209C18.8069 22.4209 19.119 22.1055 19.119 21.7148C19.119 21.3241 18.8069 21.0101 18.4218 21.0101Z" fill="#2FA230"/>
<path d="M25.315 20.9368C24.8999 20.9368 24.5635 21.2768 24.5635 21.6965C24.5635 22.1161 24.8999 22.4561 25.315 22.4561C25.7302 22.4561 26.0666 22.1161 26.0666 21.6965C26.0666 21.2768 25.7302 20.9368 25.315 20.9368Z" fill="#2FA230"/>
<path d="M31.5553 14H16.7114C15.214 14 14 15.227 14 16.7405V25.6451C14 27.1586 15.214 28.3857 16.7114 28.3857H21.9538L23.7375 32.6325C23.7375 32.6325 23.8606 33 24.157 33C24.4547 33 24.5764 32.6325 24.5764 32.6325L26.3601 28.3857H31.5553C33.0527 28.3857 34.2667 27.1586 34.2667 25.6451V16.7405C34.2667 15.227 33.0527 14 31.5553 14ZM20.3662 21.8714C20.3576 23.4993 18.6927 23.5456 18.6927 23.5456C18.0485 23.5456 17.6848 23.1144 17.6848 23.1144V23.4081H16.4723V18.3524C16.4723 18.3524 16.4666 18.351 16.4723 18.3496V18.3524C16.5482 18.364 17.6848 18.3496 17.6848 18.3496V20.2827C17.9697 19.7907 18.7943 19.7994 18.7943 19.7994C20.5895 19.9687 20.3647 21.8714 20.3647 21.8714H20.3662ZM22.5006 19.9557V23.4168H21.3139V19.9904C21.3139 19.5245 20.7412 19.3943 20.7412 19.3943V18.186C22.6366 18.2642 22.5006 19.9557 22.5006 19.9557ZM25.3137 23.5485C24.2142 23.5485 23.3238 22.7194 23.3238 21.6978C23.3238 20.6763 24.2142 19.8472 25.3137 19.8472C26.4131 19.8472 27.3035 20.6763 27.3035 21.6978C27.3035 22.7194 26.4131 23.5485 25.3137 23.5485ZM31.8158 23.5485C31.8158 23.5485 31.833 25.3065 30.065 25.3065H29.5268V24.1678H29.8517C29.8517 24.1678 30.5947 24.2372 30.5861 23.0797C30.5861 23.0797 30.4415 23.5485 29.3993 23.5485C29.3993 23.5485 27.922 23.4414 27.922 21.9843V21.4316C27.922 21.4316 27.9563 19.921 29.5783 19.8009C29.5783 19.8009 30.2182 19.7314 30.6119 20.2668V19.8964H31.8158V23.5499V23.5485Z" fill="#2FA230"/>
<path d="M29.9317 20.9545C29.5265 20.9545 29.1973 21.2873 29.1973 21.6968C29.1973 22.1063 29.5265 22.4391 29.9317 22.4391C30.3368 22.4391 30.6661 22.1063 30.6661 21.6968C30.6661 21.2873 30.3368 20.9545 29.9317 20.9545Z" fill="#2FA230"/>
</svg>
