<svg width="40" height="40" viewBox="0 0 40 40" fill="none" xmlns="http://www.w3.org/2000/svg">
<circle cx="20" cy="20" r="19.5" fill="#FAFAFA" stroke="#DDDDDD"/>
<path d="M12.46 24H13.63V17.62H15.79V16.64H10.3V17.62H12.46V24ZM19.561 24.14C21.451 24.14 22.761 22.67 22.761 20.29C22.761 17.92 21.451 16.51 19.561 16.51C17.661 16.51 16.351 17.92 16.351 20.29C16.351 22.67 17.661 24.14 19.561 24.14ZM19.561 23.12C18.331 23.12 17.551 22.01 17.551 20.29C17.551 18.57 18.331 17.52 19.561 17.52C20.781 17.52 21.571 18.57 21.571 20.29C21.571 22.01 20.781 23.12 19.561 23.12ZM24.2901 24H25.4601V21.21H26.5701C28.1701 21.21 29.3401 20.48 29.3401 18.87C29.3401 17.2 28.1701 16.64 26.5301 16.64H24.2901V24ZM25.4601 20.28V17.58H26.4101C27.5901 17.58 28.1901 17.89 28.1901 18.87C28.1901 19.83 27.6301 20.28 26.4601 20.28H25.4601Z" fill="black"/>
</svg>
