<svg width="100" height="100" viewBox="0 0 100 100" fill="none" xmlns="http://www.w3.org/2000/svg">
<circle cx="50" cy="50" r="50" fill="#F2F6FB"/>
<g clip-path="url(#clip0_1096_175284)">
<path d="M45.6003 69.6401C57.2149 69.6401 66.6303 60.2246 66.6303 48.6101C66.6303 36.9955 57.2149 27.5801 45.6003 27.5801C33.9858 27.5801 24.5703 36.9955 24.5703 48.6101C24.5703 60.2246 33.9858 69.6401 45.6003 69.6401Z" fill="white"/>
<path d="M66.67 49.1001H24.51C24.443 49.1001 24.3767 49.0869 24.3148 49.0613C24.253 49.0356 24.1967 48.998 24.1494 48.9507C24.102 48.9033 24.0644 48.847 24.0388 48.7852C24.0132 48.7233 24 48.6571 24 48.5901C24 48.4548 24.0537 48.3251 24.1494 48.2295C24.245 48.1338 24.3747 48.0801 24.51 48.0801H66.67C66.8053 48.0801 66.935 48.1338 67.0306 48.2295C67.1263 48.3251 67.18 48.4548 67.18 48.5901C67.18 48.6571 67.1668 48.7233 67.1412 48.7852C67.1155 48.847 67.078 48.9033 67.0306 48.9507C66.9833 48.998 66.927 49.0356 66.8652 49.0613C66.8033 49.0869 66.737 49.1001 66.67 49.1001Z" fill="#333333"/>
<path d="M45.5902 49.1309C45.5223 49.1309 45.4552 49.1173 45.3926 49.0911C45.3301 49.0648 45.2734 49.0262 45.226 48.9778C45.1785 48.9294 45.1411 48.8721 45.1161 48.8091C45.091 48.746 45.0788 48.6786 45.0802 48.6108V27.5608C45.0802 27.4255 45.1339 27.2958 45.2295 27.2002C45.3252 27.1046 45.4549 27.0508 45.5902 27.0508C45.7254 27.0508 45.8551 27.1046 45.9508 27.2002C46.0464 27.2958 46.1002 27.4255 46.1002 27.5608V48.6609C46.0901 48.7891 46.0319 48.9087 45.9374 48.9958C45.8428 49.083 45.7188 49.1313 45.5902 49.1309Z" fill="#333333"/>
<path d="M66.6801 49.1602C66.6131 49.1602 66.5468 49.147 66.4849 49.1213C66.4231 49.0957 66.3669 49.0581 66.3195 49.0107C66.2721 48.9634 66.2346 48.9071 66.2089 48.8452C66.1833 48.7833 66.1701 48.7171 66.1701 48.6501C66.1728 43.1866 64.007 37.9452 60.1483 34.0771C56.2897 30.2091 51.0537 28.0306 45.5901 28.02C40.1344 28.0306 34.9054 30.2041 31.0495 34.0637C27.1936 37.9234 25.0254 43.1544 25.0201 48.6101C25.0214 48.6779 25.0092 48.7453 24.9842 48.8083C24.9592 48.8714 24.9218 48.9286 24.8743 48.9771C24.8268 49.0255 24.7702 49.0641 24.7076 49.0903C24.6451 49.1166 24.5779 49.1301 24.5101 49.1301C24.4423 49.1301 24.3751 49.1166 24.3126 49.0903C24.2501 49.0641 24.1934 49.0255 24.1459 48.9771C24.0984 48.9286 24.0611 48.8714 24.036 48.8083C24.011 48.7453 23.9988 48.6779 24.0001 48.6101C24.0027 42.8831 26.2776 37.3909 30.3254 33.3394C34.3731 29.2878 39.863 27.0079 45.5901 27C51.3234 27.0132 56.8173 29.3002 60.8666 33.3589C64.916 37.4176 67.1901 42.9169 67.1901 48.6501C67.1901 48.7171 67.1769 48.7833 67.1513 48.8452C67.1257 48.9071 67.0881 48.9634 67.0407 49.0107C66.9934 49.0581 66.9372 49.0957 66.8753 49.1213C66.8134 49.147 66.7471 49.1602 66.6801 49.1602Z" fill="#333333"/>
<path d="M34.3206 49.1008C34.2536 49.1008 34.1873 49.0876 34.1254 49.062C34.0635 49.0364 34.0073 48.9988 33.9599 48.9514C33.9126 48.9041 33.875 48.8478 33.8494 48.7859C33.8237 48.724 33.8105 48.6578 33.8105 48.5908C33.8105 38.7808 37.7106 33.1008 40.9906 30.0608C41.0862 29.9655 41.2156 29.9121 41.3506 29.9121C41.4855 29.9121 41.615 29.9655 41.7106 30.0608C41.8058 30.1564 41.8593 30.2859 41.8593 30.4209C41.8593 30.5559 41.8058 30.6852 41.7106 30.7808C38.5906 33.6808 34.8606 39.1208 34.8606 48.5608C34.8649 48.6328 34.854 48.705 34.8284 48.7725C34.8028 48.84 34.7632 48.9013 34.7121 48.9524C34.6611 49.0034 34.5998 49.043 34.5323 49.0686C34.4648 49.0942 34.3926 49.1052 34.3206 49.1008Z" fill="#333333"/>
<path d="M56.8896 49.1001C56.8226 49.1001 56.7563 49.0869 56.6944 49.0613C56.6326 49.0357 56.5763 48.998 56.529 48.9507C56.4816 48.9033 56.4441 48.847 56.4184 48.7852C56.3928 48.7233 56.3796 48.6571 56.3796 48.5901C56.3796 39.1501 52.6596 33.7101 49.5296 30.8101C49.4343 30.7145 49.3809 30.5849 49.3809 30.45C49.3809 30.315 49.4343 30.1857 49.5296 30.0901C49.6252 29.9948 49.7547 29.9414 49.8896 29.9414C50.0246 29.9414 50.154 29.9948 50.2496 30.0901C53.5296 33.0901 57.4296 38.8101 57.4296 48.6201C57.4258 48.6871 57.4088 48.7526 57.3795 48.813C57.3503 48.8734 57.3094 48.9276 57.2593 48.9722C57.2091 49.0168 57.1506 49.0511 57.0872 49.073C57.0238 49.0949 56.9566 49.1042 56.8896 49.1001Z" fill="#333333"/>
<path d="M45.5903 40.0602C33.7603 40.0602 30.5904 33.9303 30.4704 33.6703C30.4109 33.548 30.4017 33.4071 30.4447 33.2782C30.4876 33.1492 30.5794 33.0422 30.7004 32.9801C30.8226 32.9206 30.9633 32.9115 31.0923 32.9544C31.2212 32.9974 31.3282 33.0891 31.3904 33.2101C31.3904 33.2701 34.4503 39.0401 45.5903 39.0401C45.6573 39.0401 45.7237 39.0533 45.7855 39.079C45.8474 39.1046 45.9036 39.1422 45.951 39.1896C45.9983 39.2369 46.0359 39.2932 46.0615 39.3551C46.0872 39.417 46.1004 39.4832 46.1004 39.5501C46.1004 39.6854 46.0466 39.8151 45.951 39.9107C45.8553 40.0064 45.7256 40.0602 45.5903 40.0602Z" fill="#333333"/>
<path d="M45.5901 40.0596C45.4548 40.0596 45.3251 40.0058 45.2294 39.9102C45.1338 39.8145 45.0801 39.6849 45.0801 39.5496C45.0801 39.4143 45.1338 39.2846 45.2294 39.189C45.3251 39.0934 45.4548 39.0396 45.5901 39.0396C56.7901 39.0396 59.7701 33.2695 59.8001 33.2095C59.8602 33.0893 59.9654 32.9977 60.0927 32.9546C60.2201 32.9115 60.3593 32.9205 60.4801 32.9795C60.5409 33.0093 60.5951 33.0509 60.6397 33.1018C60.6843 33.1528 60.7183 33.2122 60.7397 33.2764C60.7611 33.3406 60.7695 33.4084 60.7644 33.4759C60.7593 33.5434 60.7409 33.6094 60.7101 33.6697C60.5801 33.9297 57.4201 40.0596 45.5901 40.0596Z" fill="#333333"/>
<path d="M45.5901 70.2108C45.4548 70.2108 45.3251 70.1573 45.2294 70.0616C45.1338 69.966 45.0801 69.836 45.0801 69.7008V48.5609C45.0801 48.4939 45.0933 48.4277 45.1189 48.3658C45.1445 48.3039 45.1821 48.2477 45.2294 48.2003C45.2768 48.1529 45.333 48.1153 45.3949 48.0897C45.4568 48.0641 45.5231 48.0509 45.5901 48.0509C45.6579 48.0495 45.7253 48.0617 45.7883 48.0868C45.8513 48.1118 45.9088 48.1491 45.9572 48.1966C46.0056 48.2441 46.0441 48.3008 46.0703 48.3634C46.0966 48.4259 46.1101 48.4931 46.1101 48.5609V69.671C46.1142 69.7413 46.1038 69.8117 46.0794 69.8778C46.055 69.9438 46.0172 70.0041 45.9683 70.0548C45.9195 70.1055 45.8606 70.1456 45.7955 70.1725C45.7304 70.1993 45.6605 70.2123 45.5901 70.2108Z" fill="#333333"/>
<path d="M45.59 70.2095C39.8647 70.2015 34.3763 67.9231 30.3288 63.8738C26.2813 59.8244 24.0053 54.3349 24 48.6096C24 48.4744 24.0537 48.3447 24.1494 48.249C24.245 48.1534 24.3747 48.0996 24.51 48.0996C24.6453 48.0996 24.775 48.1534 24.8706 48.249C24.9663 48.3447 25.02 48.4744 25.02 48.6096C25.0253 54.0644 27.1939 59.2943 31.05 63.1523C34.9062 67.0104 40.1352 69.1815 45.59 69.1895C51.0465 69.1842 56.2781 67.0144 60.1364 63.156C63.9948 59.2977 66.1647 54.0661 66.17 48.6096C66.17 48.4744 66.2238 48.3447 66.3194 48.249C66.415 48.1534 66.5447 48.0996 66.68 48.0996C66.8153 48.0996 66.945 48.1534 67.0406 48.249C67.1363 48.3447 67.19 48.4744 67.19 48.6096C67.1847 54.3367 64.9073 59.8276 60.8577 63.8772C56.808 67.9268 51.317 70.2042 45.59 70.2095Z" fill="#333333"/>
<path d="M50.6006 66.5601C50.4654 66.5597 50.336 66.5059 50.2406 66.4102C50.1453 66.3146 50.0918 66.185 50.0918 66.05C50.0918 65.9151 50.1453 65.7855 50.2406 65.6899C53.0506 62.8099 56.3906 57.5001 56.3906 48.5901C56.3906 48.4548 56.4443 48.3251 56.5399 48.2295C56.6356 48.1338 56.7653 48.0801 56.9005 48.0801C57.0358 48.0801 57.1655 48.1338 57.2612 48.2295C57.3568 48.3251 57.4106 48.4548 57.4106 48.5901C57.4106 57.8401 53.9106 63.3802 50.9706 66.4102C50.9221 66.4588 50.8644 66.4969 50.8008 66.5227C50.7373 66.5485 50.6691 66.5612 50.6006 66.5601Z" fill="#333333"/>
<path d="M40.5693 66.5596C40.4311 66.5597 40.2984 66.506 40.1993 66.4097C37.2693 63.4097 33.7793 57.8496 33.7793 48.6096C33.7793 48.4744 33.833 48.3447 33.9287 48.249C34.0243 48.1534 34.154 48.0996 34.2893 48.0996C34.4246 48.0996 34.5543 48.1534 34.6499 48.249C34.7456 48.3447 34.7993 48.4744 34.7993 48.6096C34.7993 57.5096 38.1393 62.8095 40.9393 65.6995C41.0322 65.7963 41.0841 65.9254 41.0841 66.0596C41.0841 66.1938 41.0322 66.3229 40.9393 66.4197C40.8904 66.467 40.8324 66.5038 40.7687 66.5278C40.7051 66.5519 40.6373 66.5626 40.5693 66.5596Z" fill="#333333"/>
<path d="M60.2501 64.2803C60.1555 64.2784 60.0634 64.2502 59.9839 64.199C59.9045 64.1478 59.8408 64.0755 59.8001 63.9902C59.8001 63.9302 56.7301 58.1704 45.5901 58.1704C45.5231 58.1704 45.4568 58.1572 45.3949 58.1316C45.333 58.106 45.2768 58.0684 45.2294 58.021C45.1821 57.9736 45.1445 57.9173 45.1189 57.8555C45.0933 57.7936 45.0801 57.7274 45.0801 57.6604C45.0801 57.5251 45.1338 57.3952 45.2294 57.2996C45.3251 57.2039 45.4548 57.1504 45.5901 57.1504C57.4201 57.1504 60.5901 63.2803 60.7101 63.5403C60.7407 63.5998 60.759 63.6649 60.7639 63.7317C60.7689 63.7985 60.7604 63.8655 60.739 63.929C60.7175 63.9924 60.6835 64.0508 60.6391 64.1008C60.5946 64.1509 60.5405 64.1915 60.4801 64.2202C60.41 64.26 60.3307 64.2808 60.2501 64.2803Z" fill="#333333"/>
<path d="M30.9297 64.2803C30.8491 64.2808 30.7699 64.26 30.6998 64.2202C30.5795 64.1601 30.4879 64.0551 30.4449 63.9277C30.4018 63.8004 30.4107 63.6611 30.4698 63.5403C30.5998 63.2803 33.7598 57.1504 45.5898 57.1504C45.725 57.1504 45.8547 57.2039 45.9504 57.2996C46.046 57.3952 46.0998 57.5251 46.0998 57.6604C46.0998 57.7274 46.0866 57.7936 46.0609 57.8555C46.0353 57.9173 45.9977 57.9736 45.9504 58.021C45.903 58.0684 45.8468 58.106 45.7849 58.1316C45.7231 58.1572 45.6567 58.1704 45.5898 58.1704C34.4497 58.1704 31.4198 63.9402 31.3898 63.9902C31.3473 64.0763 31.2819 64.149 31.2007 64.2002C31.1195 64.2514 31.0257 64.2791 30.9297 64.2803Z" fill="#333333"/>
<path d="M64.1305 72.14C69.9682 72.14 74.7005 67.4076 74.7005 61.57C74.7005 55.7323 69.9682 51 64.1305 51C58.2929 51 53.5605 55.7323 53.5605 61.57C53.5605 67.4076 58.2929 72.14 64.1305 72.14Z" fill="#235AB0"/>
<path d="M64.1306 72.6404C62.676 72.6404 61.2357 72.3536 59.8919 71.7966C58.5482 71.2397 57.3274 70.4235 56.2994 69.3945C55.2713 68.3655 54.4561 67.1438 53.9003 65.7996C53.3446 64.4553 53.0592 63.0149 53.0606 61.5603C53.0632 58.6252 54.2304 55.811 56.3058 53.7356C58.3813 51.6601 61.1954 50.4929 64.1306 50.4902C67.0649 50.4955 69.8775 51.6636 71.9524 53.7385C74.0273 55.8134 75.1953 58.626 75.2006 61.5603C75.2006 64.4972 74.0346 67.314 71.9588 69.3916C69.8831 71.4692 67.0674 72.6377 64.1306 72.6404ZM64.1306 51.5002C61.4624 51.5029 58.9041 52.5635 57.0165 54.4492C55.1288 56.335 54.0658 58.8921 54.0606 61.5603C54.0632 64.2302 55.125 66.7901 57.0129 68.678C58.9008 70.5659 61.4606 71.6277 64.1306 71.6304C66.8005 71.6277 69.3603 70.5659 71.2482 68.678C73.1361 66.7901 74.1979 64.2302 74.2006 61.5603C74.1953 58.8921 73.1323 56.335 71.2447 54.4492C69.357 52.5635 66.7987 51.5029 64.1306 51.5002Z" fill="#333333"/>
<path d="M60.7007 68.0108L57.7207 60.6208L59.1107 60.0508L61.1907 65.2008L69.2807 56.0508L70.4107 57.0408L60.7007 68.0108Z" fill="white"/>
</g>
<defs>
<clipPath id="clip0_1096_175284">
<rect width="51.2" height="45.65" fill="white" transform="translate(24 27)"/>
</clipPath>
</defs>
</svg>
