<svg width="90" height="90" viewBox="0 0 90 90" fill="none" xmlns="http://www.w3.org/2000/svg">
<circle cx="45" cy="45" r="45" fill="#FAFAFA"/>
<g clip-path="url(#clip0_1081_174737)">
<path d="M45.3904 43.6109C51.7141 43.6109 56.8404 38.4846 56.8404 32.1609C56.8404 25.8373 51.7141 20.7109 45.3904 20.7109C39.0668 20.7109 33.9404 25.8373 33.9404 32.1609C33.9404 38.4846 39.0668 43.6109 45.3904 43.6109Z" fill="#235AB0"/>
<path d="M54.3003 32.5796H36.3503C36.2097 32.5796 36.0749 32.5237 35.9755 32.4243C35.8761 32.3249 35.8203 32.1901 35.8203 32.0496C35.8203 31.909 35.8761 31.7742 35.9755 31.6748C36.0749 31.5754 36.2097 31.5195 36.3503 31.5195H54.3003C54.4409 31.5195 54.5757 31.5754 54.675 31.6748C54.7744 31.7742 54.8303 31.909 54.8303 32.0496C54.8303 32.1901 54.7744 32.3249 54.675 32.4243C54.5757 32.5237 54.4409 32.5796 54.3003 32.5796Z" fill="#333333"/>
<path d="M45.3201 32.5919C45.1795 32.5919 45.0447 32.536 44.9453 32.4366C44.8459 32.3372 44.79 32.2024 44.79 32.0619V20.5318C44.79 20.4627 44.8038 20.3942 44.8306 20.3304C44.8573 20.2667 44.8965 20.2089 44.9459 20.1605C44.9952 20.1121 45.0537 20.074 45.118 20.0484C45.1822 20.0229 45.2509 20.0105 45.3201 20.0118C45.3892 20.0105 45.4579 20.0229 45.5222 20.0484C45.5864 20.074 45.6449 20.1121 45.6942 20.1605C45.7436 20.2089 45.7828 20.2667 45.8096 20.3304C45.8363 20.3942 45.85 20.4627 45.85 20.5318V32.0619C45.85 32.2024 45.7942 32.3372 45.6948 32.4366C45.5954 32.536 45.4606 32.5919 45.3201 32.5919Z" fill="#333333"/>
<path d="M56.8399 32.6096C56.6993 32.6096 56.5645 32.5537 56.4651 32.4543C56.3657 32.355 56.3099 32.2202 56.3099 32.0796C56.3099 29.1622 55.151 26.3642 53.0881 24.3013C51.0252 22.2384 48.2272 21.0796 45.3099 21.0796C42.3925 21.0796 39.5946 22.2384 37.5317 24.3013C35.4688 26.3642 34.3099 29.1622 34.3099 32.0796C34.3112 32.1487 34.2987 32.2175 34.2732 32.2817C34.2476 32.346 34.2095 32.4045 34.1611 32.4539C34.1127 32.5032 34.0549 32.5423 33.9912 32.5691C33.9274 32.5958 33.859 32.6096 33.7898 32.6096C33.7199 32.611 33.6503 32.5982 33.5854 32.572C33.5205 32.5459 33.4616 32.5068 33.4121 32.4573C33.3626 32.4078 33.3236 32.3489 33.2974 32.2839C33.2712 32.219 33.2585 32.1496 33.2599 32.0796C33.2598 28.8914 34.5222 25.833 36.7709 23.573C39.0196 21.313 42.0718 20.0354 45.2599 20.0195C48.4498 20.0407 51.5019 21.3228 53.75 23.5859C55.9982 25.8491 57.2599 28.9096 57.2599 32.0996C57.2579 32.2196 57.2154 32.3353 57.1391 32.428C57.0628 32.5206 56.9573 32.5847 56.8399 32.6096Z" fill="#333333"/>
<path d="M39.1501 32.5793C39.0096 32.5793 38.8747 32.5235 38.7753 32.4241C38.6759 32.3247 38.6201 32.1899 38.6201 32.0493C38.6201 26.5993 40.8001 23.4393 42.6201 21.7493C42.6693 21.7 42.7278 21.661 42.7922 21.6343C42.8565 21.6076 42.9255 21.5938 42.9951 21.5938C43.0648 21.5938 43.1338 21.6076 43.1981 21.6343C43.2625 21.661 43.3209 21.7 43.3701 21.7493C43.4194 21.7985 43.4585 21.857 43.4852 21.9214C43.5118 21.9857 43.5256 22.0546 43.5256 22.1243C43.5256 22.1939 43.5118 22.263 43.4852 22.3274C43.4585 22.3917 43.4194 22.45 43.3701 22.4993C41.7001 24.0493 39.7101 26.9593 39.7101 32.0293C39.7131 32.1032 39.7005 32.1769 39.6732 32.2456C39.646 32.3143 39.6046 32.3764 39.5519 32.4282C39.4991 32.48 39.4362 32.5204 39.367 32.5464C39.2978 32.5724 39.2239 32.5836 39.1501 32.5793Z" fill="#333333"/>
<path d="M51.4998 32.5815C51.3592 32.5815 51.2244 32.5257 51.125 32.4263C51.0256 32.3269 50.9697 32.1921 50.9697 32.0515C50.9697 26.9815 48.9698 24.0515 47.3098 22.5215C47.2605 22.4723 47.2214 22.414 47.1947 22.3496C47.168 22.2853 47.1543 22.2161 47.1543 22.1465C47.1543 22.0768 47.168 22.0079 47.1947 21.9436C47.2214 21.8793 47.2605 21.8207 47.3098 21.7715C47.4087 21.675 47.5415 21.6211 47.6797 21.6211C47.818 21.6211 47.9508 21.675 48.0497 21.7715C49.8797 23.4715 52.0497 26.6315 52.0497 32.0815C52.042 32.2204 51.98 32.3506 51.8771 32.4441C51.7742 32.5376 51.6387 32.587 51.4998 32.5815Z" fill="#333333"/>
<path d="M45.3201 27.6412C38.7101 27.6412 36.9101 24.161 36.8401 24.011C36.7778 23.8851 36.7681 23.7396 36.8131 23.6065C36.8581 23.4733 36.9541 23.3634 37.0801 23.3011C37.2061 23.2388 37.3516 23.229 37.4848 23.274C37.6179 23.319 37.7277 23.4151 37.7901 23.5411C37.8501 23.6611 39.4101 26.5411 45.3201 26.5411C45.4606 26.5411 45.5954 26.5969 45.6948 26.6963C45.7942 26.7957 45.85 26.9305 45.85 27.0711C45.8556 27.144 45.8459 27.2172 45.8218 27.2862C45.7976 27.3552 45.7595 27.4184 45.7097 27.472C45.66 27.5255 45.5997 27.5681 45.5326 27.5972C45.4655 27.6263 45.3932 27.6414 45.3201 27.6412Z" fill="#333333"/>
<path d="M45.3298 27.6402C45.1893 27.6402 45.0545 27.5843 44.9551 27.4849C44.8557 27.3855 44.7998 27.2507 44.7998 27.1102C44.7998 27.0406 44.8135 26.9716 44.8401 26.9073C44.8668 26.843 44.9059 26.7846 44.9551 26.7354C45.0043 26.6862 45.0627 26.647 45.127 26.6204C45.1913 26.5938 45.2602 26.5801 45.3298 26.5801C51.2298 26.5801 52.7998 23.6601 52.8598 23.5801C52.9221 23.4542 53.032 23.358 53.1651 23.313C53.2982 23.268 53.4438 23.2778 53.5698 23.3401C53.6958 23.4025 53.7918 23.5122 53.8369 23.6453C53.8819 23.7785 53.8721 23.9241 53.8098 24.0501C53.7298 24.1601 51.9398 27.6402 45.3298 27.6402Z" fill="#333333"/>
<path d="M45.3298 44.1096C45.1893 44.1096 45.0545 44.0537 44.9551 43.9543C44.8557 43.855 44.7998 43.7202 44.7998 43.5796V32.0496C44.7998 31.98 44.8135 31.911 44.8401 31.8467C44.8668 31.7824 44.9059 31.724 44.9551 31.6748C45.0043 31.6256 45.0627 31.5864 45.127 31.5598C45.1913 31.5332 45.2602 31.5195 45.3298 31.5195C45.399 31.5195 45.4674 31.5333 45.5311 31.5601C45.5949 31.5868 45.6527 31.6259 45.7011 31.6753C45.7495 31.7246 45.7876 31.7832 45.8132 31.8474C45.8387 31.9117 45.8511 31.9804 45.8498 32.0496V43.5796C45.8511 43.6487 45.8387 43.7175 45.8132 43.7817C45.7876 43.846 45.7495 43.9045 45.7011 43.9539C45.6527 44.0032 45.5949 44.0423 45.5311 44.0691C45.4674 44.0958 45.399 44.1096 45.3298 44.1096Z" fill="#333333"/>
<path d="M45.3203 44.1082C42.1418 44.095 39.0971 42.8264 36.8495 40.5789C34.602 38.3313 33.3335 35.2867 33.3203 32.1082C33.3203 32.0386 33.334 31.9696 33.3607 31.9053C33.3873 31.841 33.4263 31.7826 33.4755 31.7334C33.5247 31.6842 33.5832 31.645 33.6475 31.6184C33.7118 31.5918 33.7807 31.5781 33.8503 31.5781C33.9194 31.5781 33.9879 31.5919 34.0516 31.6187C34.1154 31.6454 34.1731 31.6845 34.2216 31.7339C34.27 31.7832 34.3081 31.8418 34.3336 31.906C34.3592 31.9703 34.3716 32.039 34.3703 32.1082C34.3703 35.0255 35.5292 37.8233 37.5921 39.8862C39.655 41.9491 42.4529 43.1082 45.3703 43.1082C48.2877 43.1082 51.0856 41.9491 53.1485 39.8862C55.2114 37.8233 56.3703 35.0255 56.3703 32.1082C56.3703 32.0386 56.384 31.9696 56.4106 31.9053C56.4373 31.841 56.4763 31.7826 56.5255 31.7334C56.5747 31.6842 56.6332 31.645 56.6975 31.6184C56.7618 31.5918 56.8307 31.5781 56.9003 31.5781C56.9699 31.5781 57.0388 31.5918 57.1031 31.6184C57.1675 31.645 57.2259 31.6842 57.2751 31.7334C57.3243 31.7826 57.3633 31.841 57.39 31.9053C57.4166 31.9696 57.4303 32.0386 57.4303 32.1082C57.4144 35.3049 56.13 38.3646 53.8592 40.6147C51.5884 42.8649 48.5171 44.1214 45.3203 44.1082Z" fill="#333333"/>
<path d="M48.0596 42.1313C47.9215 42.1315 47.7887 42.0775 47.6896 41.9812C47.6404 41.932 47.6013 41.8737 47.5746 41.8093C47.5479 41.745 47.5342 41.6759 47.5342 41.6062C47.5342 41.5365 47.5479 41.4677 47.5746 41.4033C47.6013 41.339 47.6404 41.2804 47.6896 41.2312C49.1896 39.6912 50.9796 36.8413 50.9796 32.0613C50.9796 31.9207 51.0355 31.7859 51.1349 31.6865C51.2343 31.5871 51.3691 31.5313 51.5096 31.5312C51.6502 31.5313 51.785 31.5871 51.8844 31.6865C51.9838 31.7859 52.0396 31.9207 52.0396 32.0613C52.0396 37.2013 50.0896 40.2812 48.4496 41.9712C48.3449 42.0724 48.2053 42.1298 48.0596 42.1313Z" fill="#333333"/>
<path d="M42.5801 42.1213C42.5092 42.122 42.4389 42.1081 42.3736 42.0806C42.3082 42.0531 42.2492 42.0124 42.2001 41.9612C40.5701 40.2712 38.6201 37.1913 38.6201 32.0613C38.6201 31.9917 38.6338 31.9227 38.6605 31.8584C38.6871 31.7941 38.7261 31.7357 38.7753 31.6865C38.8245 31.6373 38.883 31.5982 38.9473 31.5715C39.0116 31.5449 39.0805 31.5312 39.1501 31.5312C39.2197 31.5312 39.2887 31.5449 39.353 31.5715C39.4173 31.5982 39.4757 31.6373 39.5249 31.6865C39.5741 31.7357 39.6131 31.7941 39.6398 31.8584C39.6664 31.9227 39.6801 31.9917 39.6801 32.0613C39.6801 36.8413 41.4601 39.6812 42.9601 41.2212C43.0094 41.2704 43.0485 41.329 43.0752 41.3933C43.1019 41.4577 43.1156 41.5265 43.1156 41.5962C43.1156 41.6658 43.1019 41.735 43.0752 41.7993C43.0485 41.8637 43.0094 41.922 42.9601 41.9712C42.9099 42.0201 42.8504 42.0587 42.7852 42.0845C42.7199 42.1102 42.6503 42.1227 42.5801 42.1213Z" fill="#333333"/>
<path d="M53.3299 40.8689C53.2325 40.8684 53.1371 40.841 53.0542 40.7898C52.9713 40.7386 52.904 40.6657 52.8599 40.5789C52.7899 40.4389 51.2199 37.5288 45.3299 37.5288C45.26 37.5302 45.1904 37.5174 45.1255 37.4912C45.0606 37.4651 45.0016 37.4262 44.9521 37.3767C44.9026 37.3272 44.8637 37.2683 44.8375 37.2034C44.8113 37.1385 44.7985 37.0688 44.7999 36.9988C44.7999 36.9292 44.8136 36.8602 44.8402 36.7959C44.8669 36.7316 44.906 36.6732 44.9552 36.624C45.0044 36.5748 45.0628 36.5359 45.1271 36.5093C45.1914 36.4826 45.2603 36.4688 45.3299 36.4688C51.9399 36.4688 53.7299 39.9589 53.8099 40.1089C53.8722 40.2349 53.882 40.3803 53.837 40.5134C53.7919 40.6466 53.6959 40.7565 53.5699 40.8188C53.4935 40.8497 53.4123 40.8667 53.3299 40.8689Z" fill="#333333"/>
<path d="M37.3095 40.8689C37.2289 40.8694 37.1496 40.8486 37.0795 40.8088C37.0175 40.779 36.962 40.737 36.9163 40.6855C36.8706 40.6341 36.8356 40.5741 36.8133 40.509C36.7909 40.4439 36.7818 40.3748 36.7863 40.3062C36.7908 40.2375 36.8089 40.1705 36.8396 40.1089C36.9096 39.9589 38.7095 36.4688 45.3195 36.4688C45.3891 36.4688 45.4581 36.4826 45.5224 36.5093C45.5867 36.5359 45.6451 36.5748 45.6943 36.624C45.7435 36.6732 45.7825 36.7316 45.8092 36.7959C45.8358 36.8602 45.8495 36.9292 45.8495 36.9988C45.8495 37.1393 45.7937 37.2741 45.6943 37.3735C45.5949 37.4729 45.4601 37.5288 45.3195 37.5288C39.4095 37.5288 37.8495 40.4489 37.7895 40.5789C37.7429 40.6658 37.6737 40.7385 37.5893 40.7896C37.5048 40.8406 37.4082 40.8681 37.3095 40.8689Z" fill="#333333"/>
<path d="M59.0403 56.3606C58.9401 56.361 58.8418 56.3331 58.7569 56.28C58.6719 56.2269 58.6038 56.1508 58.5603 56.0605C58.53 55.9983 58.5124 55.9307 58.5086 55.8615C58.5048 55.7924 58.5148 55.7231 58.5381 55.6579C58.5614 55.5927 58.5975 55.5327 58.6442 55.4817C58.691 55.4306 58.7474 55.3895 58.8103 55.3606C60.9135 54.3625 62.7198 52.8329 64.051 50.9231C65.3821 49.0132 66.1919 46.789 66.4003 44.4704C66.5715 41.9401 66.0237 39.4128 64.8203 37.1804C63.8221 35.3134 62.3882 33.715 60.6403 32.5205C60.5259 32.4415 60.4471 32.3206 60.4209 32.184C60.3947 32.0475 60.4232 31.9062 60.5003 31.7905C60.5377 31.732 60.5865 31.6816 60.6438 31.6423C60.701 31.603 60.7656 31.5755 60.8336 31.5615C60.9017 31.5475 60.9718 31.5472 61.04 31.5608C61.1081 31.5743 61.1728 31.6016 61.2303 31.6406C63.1143 32.9227 64.6642 34.6371 65.7503 36.6406C67.0628 39.0456 67.6531 41.7782 67.4503 44.5105C67.2347 47.0214 66.3639 49.4318 64.9249 51.5007C63.486 53.5696 61.5293 55.2247 59.2503 56.3005C59.1865 56.3378 59.1142 56.3585 59.0403 56.3606Z" fill="#333333"/>
<path d="M59.6097 58.9097C59.5501 58.9193 59.4893 58.9193 59.4297 58.9097L55.4297 57.5096L56.8797 53.3597C56.9032 53.2939 56.9394 53.2334 56.9863 53.1817C57.0333 53.13 57.09 53.0879 57.1532 53.0582C57.2164 53.0284 57.2848 53.0116 57.3546 53.0084C57.4243 53.0052 57.494 53.0158 57.5597 53.0396C57.6251 53.062 57.6854 53.0971 57.737 53.1431C57.7886 53.1891 57.8306 53.2451 57.8604 53.3074C57.8901 53.3698 57.9072 53.4376 57.9105 53.5067C57.9138 53.5757 57.9034 53.6446 57.8797 53.7095L56.7797 56.8597L59.7797 57.8597C59.9128 57.9073 60.0218 58.005 60.0835 58.1321C60.1452 58.2593 60.1546 58.4056 60.1097 58.5396C60.076 58.6461 60.0095 58.7393 59.9197 58.8057C59.8299 58.8722 59.7214 58.9086 59.6097 58.9097Z" fill="#333333"/>
<path d="M34.5302 57.8311H34.4202C32.1804 57.3683 30.0848 56.3736 28.3102 54.9309C26.1649 53.2235 24.5602 50.9312 23.6902 48.3311C22.9279 45.9383 22.8037 43.3879 23.3298 40.9324C23.856 38.4769 25.0144 36.2014 26.6902 34.3311C26.7909 34.2339 26.9253 34.1797 27.0652 34.1797C27.2051 34.1797 27.3395 34.2339 27.4402 34.3311C27.4895 34.3803 27.5286 34.4386 27.5552 34.5029C27.5819 34.5673 27.5957 34.6364 27.5957 34.7061C27.5957 34.7757 27.5819 34.8446 27.5552 34.9089C27.5286 34.9733 27.4895 35.0318 27.4402 35.0811C25.8833 36.8172 24.8083 38.9308 24.3223 41.2117C23.8363 43.4925 23.9562 45.861 24.6702 48.0811C25.4897 50.4818 26.974 52.6004 28.9502 54.1909C30.5948 55.525 32.536 56.4443 34.6102 56.8711C34.7462 56.9 34.8654 56.9812 34.9421 57.0972C35.0188 57.2131 35.0469 57.3545 35.0202 57.491C34.9821 57.5903 34.915 57.6759 34.8276 57.7366C34.7402 57.7972 34.6366 57.8301 34.5302 57.8311Z" fill="#333333"/>
<path d="M29.5102 36.7C29.3747 36.7002 29.2442 36.6487 29.1456 36.5557C29.047 36.4627 28.9878 36.3353 28.9801 36.2L28.7702 32.8701L25.5902 33.0701C25.4502 33.0756 25.3136 33.0266 25.2091 32.9333C25.1046 32.8401 25.0405 32.7098 25.0302 32.5701C25.0261 32.5004 25.0359 32.4306 25.0588 32.3647C25.0818 32.2989 25.1175 32.2383 25.1639 32.1863C25.2104 32.1343 25.2667 32.092 25.3295 32.0618C25.3924 32.0315 25.4606 32.0138 25.5302 32.01L29.7602 31.75L30.0401 36.1401C30.0457 36.2801 29.9967 36.4168 29.9034 36.5212C29.8101 36.6257 29.6798 36.6897 29.5401 36.7H29.5102Z" fill="#333333"/>
<path d="M53.48 49.5586H37.18C36.8266 49.5586 36.54 49.8451 36.54 50.1986V68.9286C36.54 69.2821 36.8266 69.5686 37.18 69.5686H53.48C53.8335 69.5686 54.12 69.2821 54.12 68.9286V50.1986C54.12 49.8451 53.8335 49.5586 53.48 49.5586Z" fill="white"/>
<path d="M53.4702 70.0686H37.1802C36.877 70.0686 36.586 69.9489 36.3706 69.7354C36.1552 69.5218 36.0329 69.2317 36.0303 68.9285V50.2085C36.0329 49.9043 36.1548 49.6133 36.3699 49.3982C36.585 49.1831 36.876 49.0612 37.1802 49.0586H53.4702C53.7744 49.0612 54.0654 49.1831 54.2805 49.3982C54.4956 49.6133 54.6176 49.9043 54.6202 50.2085V68.9285C54.6176 69.2317 54.4953 69.5218 54.2799 69.7354C54.0645 69.9489 53.7735 70.0686 53.4702 70.0686ZM37.1802 50.0686C37.1405 50.0686 37.1023 50.0844 37.0742 50.1125C37.046 50.1407 37.0303 50.1787 37.0303 50.2185V68.9385C37.0328 68.9765 37.0497 69.0123 37.0776 69.0383C37.1054 69.0643 37.1421 69.0787 37.1802 69.0786H53.4702C53.5083 69.0787 53.5451 69.0643 53.5729 69.0383C53.6008 69.0123 53.6177 68.9765 53.6202 68.9385V50.2185C53.6202 50.1787 53.6044 50.1407 53.5763 50.1125C53.5482 50.0844 53.51 50.0686 53.4702 50.0686H37.1802Z" fill="#333333"/>
<path d="M41.67 53.25H40V54.92H41.67V53.25Z" fill="#235AB0"/>
<path d="M46.1602 53.25H44.4902V54.92H46.1602V53.25Z" fill="#235AB0"/>
<path d="M50.6602 53.25H48.9902V54.92H50.6602V53.25Z" fill="#235AB0"/>
<path d="M41.67 57.9297H40V59.5997H41.67V57.9297Z" fill="#235AB0"/>
<path d="M46.1602 57.9297H44.4902V59.5997H46.1602V57.9297Z" fill="#235AB0"/>
<path d="M50.6602 57.9297H48.9902V59.5997H50.6602V57.9297Z" fill="#235AB0"/>
</g>
<defs>
<clipPath id="clip0_1081_174737">
<rect width="44.5" height="50.07" fill="white" transform="translate(23 20)"/>
</clipPath>
</defs>
</svg>
