<svg width="100" height="100" viewBox="0 0 100 100" fill="none" xmlns="http://www.w3.org/2000/svg">
<circle cx="50" cy="50" r="50" fill="#F2F6FB"/>
<g clip-path="url(#clip0_1087_175276)">
<path d="M60.1401 37.5605H32.0801V71.2005H60.1401V37.5605Z" fill="white"/>
<path d="M55.3304 27.8594H36.6504V37.2494H55.3304V27.8594Z" fill="white"/>
<path d="M40.9199 51.0293H39.9199V52.5493H40.9199V51.0293Z" fill="#235AB0"/>
<path d="M40.9199 46.2793H39.9199V47.7893H40.9199V46.2793Z" fill="#235AB0"/>
<path d="M40.9199 41.7305H39.9199V43.2505H40.9199V41.7305Z" fill="#235AB0"/>
<path d="M46.5391 51.0293H45.5391V52.5493H46.5391V51.0293Z" fill="#235AB0"/>
<path d="M46.5391 46.2793H45.5391V47.7893H46.5391V46.2793Z" fill="#235AB0"/>
<path d="M46.5391 41.7305H45.5391V43.2505H46.5391V41.7305Z" fill="#235AB0"/>
<path d="M52.0996 51.0293H51.0996V52.5493H52.0996V51.0293Z" fill="#235AB0"/>
<path d="M52.0996 46.2793H51.0996V47.7893H52.0996V46.2793Z" fill="#235AB0"/>
<path d="M52.0996 41.7305H51.0996V43.2505H52.0996V41.7305Z" fill="#235AB0"/>
<path d="M40.9199 65.0703H39.9199V66.5903H40.9199V65.0703Z" fill="#235AB0"/>
<path d="M40.9199 60.3203H39.9199V61.8303H40.9199V60.3203Z" fill="#235AB0"/>
<path d="M40.9199 55.7695H39.9199V57.2895H40.9199V55.7695Z" fill="#235AB0"/>
<path d="M46.5391 65.0703H45.5391V66.5903H46.5391V65.0703Z" fill="#235AB0"/>
<path d="M46.5391 60.3203H45.5391V61.8303H46.5391V60.3203Z" fill="#235AB0"/>
<path d="M46.5391 55.7695H45.5391V57.2895H46.5391V55.7695Z" fill="#235AB0"/>
<path d="M52.1303 65.0703H51.0703V66.5903H52.1303V65.0703Z" fill="#344154"/>
<path d="M52.1303 60.3203H51.0703V61.8303H52.1303V60.3203Z" fill="#344154"/>
<path d="M52.1303 55.7695H51.0703V57.2895H52.1303V55.7695Z" fill="#344154"/>
<path d="M54.9607 72.2798H33.3807C32.7415 72.2798 32.1285 72.0257 31.6766 71.5737C31.2246 71.1218 30.9707 70.5088 30.9707 69.8696V38.6797C30.9707 38.1493 31.1814 37.6405 31.5565 37.2654C31.9316 36.8903 32.4403 36.6797 32.9707 36.6797H59.0807C59.6111 36.6797 60.1198 36.8903 60.4949 37.2654C60.87 37.6405 61.0807 38.1493 61.0807 38.6797V55.7698C61.0807 55.9103 61.0248 56.0451 60.9254 56.1445C60.8261 56.2439 60.6913 56.2998 60.5507 56.2998C60.4101 56.2998 60.2753 56.2439 60.1759 56.1445C60.0765 56.0451 60.0207 55.9103 60.0207 55.7698V38.6797C60.0207 38.441 59.9259 38.212 59.7571 38.0432C59.5883 37.8744 59.3594 37.7798 59.1207 37.7798H32.9607C32.722 37.7798 32.4931 37.8744 32.3243 38.0432C32.1555 38.212 32.0607 38.441 32.0607 38.6797V69.8696C32.0633 70.2269 32.2064 70.5687 32.459 70.8213C32.7116 71.0739 33.0535 71.2171 33.4107 71.2197H54.9607C55.1013 71.2197 55.2361 71.2756 55.3354 71.375C55.4348 71.4744 55.4907 71.6092 55.4907 71.7498C55.4907 71.8903 55.4348 72.0251 55.3354 72.1245C55.2361 72.2239 55.1013 72.2798 54.9607 72.2798Z" fill="#333333"/>
<path d="M55.6599 37.78C55.5193 37.78 55.3845 37.7241 55.2851 37.6248C55.1857 37.5254 55.1299 37.3906 55.1299 37.25V28.8699C55.1299 28.655 55.0445 28.449 54.8926 28.2971C54.7407 28.1452 54.5346 28.0601 54.3198 28.0601H37.7098C37.495 28.0601 37.289 28.1452 37.1371 28.2971C36.9852 28.449 36.8998 28.655 36.8998 28.8699V37.25C36.8998 37.3906 36.844 37.5254 36.7446 37.6248C36.6452 37.7241 36.5104 37.78 36.3698 37.78C36.2293 37.78 36.0945 37.7241 35.9951 37.6248C35.8957 37.5254 35.8398 37.3906 35.8398 37.25V28.8699C35.8398 28.3739 36.0368 27.8983 36.3875 27.5476C36.7382 27.1969 37.2139 27 37.7098 27H54.3198C54.8158 27 55.2914 27.1969 55.6421 27.5476C55.9928 27.8983 56.1898 28.3739 56.1898 28.8699V37.25C56.1898 37.3196 56.1761 37.3886 56.1495 37.4529C56.1229 37.5172 56.0838 37.5755 56.0346 37.6248C55.9854 37.674 55.927 37.7129 55.8627 37.7395C55.7984 37.7661 55.7295 37.78 55.6599 37.78Z" fill="#333333"/>
<path d="M52.4993 30.6992H39.5293V34.0692H52.4993V30.6992Z" fill="#235AB0"/>
<path d="M59.1794 73.3705C65.017 73.3705 69.7494 68.6381 69.7494 62.8005C69.7494 56.9628 65.017 52.2305 59.1794 52.2305C53.3417 52.2305 48.6094 56.9628 48.6094 62.8005C48.6094 68.6381 53.3417 73.3705 59.1794 73.3705Z" fill="#235AB0" stroke="#333333" stroke-miterlimit="10"/>
<path d="M54.1895 61.6895L56.3995 67.3395L64.1595 58.2695" stroke="white" stroke-width="1.3" stroke-miterlimit="10"/>
</g>
<defs>
<clipPath id="clip0_1087_175276">
<rect width="39.25" height="46.87" fill="white" transform="translate(31 27)"/>
</clipPath>
</defs>
</svg>
