<svg width="90" height="90" viewBox="0 0 90 90" fill="none" xmlns="http://www.w3.org/2000/svg">
<circle cx="45" cy="45" r="45" fill="#FAFAFA"/>
<g clip-path="url(#clip0_1080_171805)">
<path d="M42.6602 67.6209L43.2102 60.3809L43.1802 56.8709L40.3802 51.2709L34.3802 49.3909L32.1902 47.1509L31.6102 40.6309L31.3502 39.3909L29.1002 39.2409L26.2702 38.7109L24.1202 39.7309L25.2202 49.1309L23.6602 49.9409V51.7209L26.5502 57.1609L28.2602 58.5709L34.3702 59.9909L36.4302 61.9709L35.8502 67.3609L42.6602 67.6209Z" fill="white"/>
<path d="M47.9797 67.6209L47.4297 60.3809L47.4497 56.8709L50.2597 51.2709L56.2497 49.3909L58.4497 47.1509L59.0297 40.6309L59.2797 39.3909L61.5397 39.2409L64.3697 38.7109L66.5197 39.7309L65.4097 49.1309L66.9697 49.9409V51.7209L64.0897 57.1609L62.3797 58.5709L56.2697 59.9909L54.1997 61.9709L54.7897 67.3609L47.9797 67.6209Z" fill="white"/>
<path d="M59.0194 20.7383H31.6094V36.1283H59.0194V20.7383Z" fill="white"/>
<path d="M31.68 49.8901C31.5983 49.8913 31.5175 49.8729 31.4444 49.8363C31.3713 49.7998 31.308 49.7462 31.26 49.6801L30.12 48.2301V48.1003C29.98 47.2903 29.73 45.8701 29.48 44.4101C29.23 42.9501 28.92 41.1501 28.75 40.1901C28.7063 39.9562 28.5737 39.7485 28.38 39.6103C28.1718 39.4791 27.9226 39.4291 27.68 39.4701L26.29 39.7502C26.2216 39.7646 26.151 39.7651 26.0824 39.7516C26.0138 39.7382 25.9486 39.7112 25.8907 39.672C25.8328 39.6328 25.7835 39.5823 25.7455 39.5236C25.7076 39.4649 25.6819 39.3991 25.67 39.3302C25.6433 39.1938 25.6714 39.0522 25.7481 38.9362C25.8248 38.8202 25.944 38.739 26.08 38.7101L27.48 38.4401C27.7373 38.3858 28.0029 38.3846 28.2608 38.4362C28.5187 38.4878 28.7633 38.5911 28.98 38.7402C29.1933 38.8843 29.3751 39.0704 29.5144 39.287C29.6536 39.5036 29.7474 39.7462 29.79 40.0002C29.96 41.0002 30.25 42.6301 30.52 44.2301C30.76 45.6201 30.99 46.9602 31.14 47.7902L32.14 49.0302C32.226 49.1422 32.2648 49.2833 32.2479 49.4235C32.2311 49.5637 32.1601 49.6918 32.05 49.7802C31.9436 49.8595 31.8125 49.8984 31.68 49.8901Z" fill="#333333"/>
<path d="M34.8987 49.9887C34.823 49.989 34.7482 49.9731 34.6792 49.9421C34.6102 49.911 34.5486 49.8656 34.4987 49.8088L32.2187 47.2387V47.0888C32.0287 46.0888 31.8587 44.9988 31.6687 43.8488C31.5087 42.8488 31.3387 41.8488 31.1487 40.7688C31.1309 40.6528 31.0898 40.5415 31.0279 40.4419C30.9661 40.3422 30.8847 40.2561 30.7887 40.1887C30.5805 40.0575 30.3313 40.0077 30.0887 40.0488L29.3387 40.1987C29.201 40.2256 29.0582 40.1978 28.9406 40.1213C28.823 40.0448 28.7398 39.9256 28.7087 39.7888C28.6823 39.6509 28.7117 39.508 28.7904 39.3918C28.8692 39.2756 28.9908 39.1953 29.1287 39.1687L29.8887 39.0188C30.1443 38.9641 30.4085 38.9625 30.6648 39.0141C30.9211 39.0657 31.1641 39.1695 31.3787 39.3188C31.592 39.463 31.7738 39.6488 31.9131 39.8654C32.0523 40.082 32.1461 40.3249 32.1887 40.5788C32.3887 41.6588 32.5487 42.6887 32.7087 43.6787C32.8687 44.6687 33.0587 45.7887 33.2287 46.7487L35.3187 49.1088C35.368 49.1581 35.407 49.2164 35.4337 49.2807C35.4604 49.3451 35.4741 49.4142 35.4741 49.4838C35.4741 49.5535 35.4604 49.6224 35.4337 49.6867C35.407 49.7511 35.368 49.8096 35.3187 49.8588C35.262 49.9093 35.1952 49.947 35.1228 49.9694C35.0503 49.9919 34.9739 49.9984 34.8987 49.9887Z" fill="#333333"/>
<path d="M36.38 67.8819C36.3109 67.8832 36.2422 67.8708 36.178 67.8452C36.1137 67.8197 36.0552 67.7816 36.0059 67.7332C35.9565 67.6848 35.9173 67.627 35.8905 67.5633C35.8638 67.4995 35.85 67.4312 35.85 67.3621V62.5921C35.8502 62.3123 35.7627 62.0396 35.6 61.812C34.6286 60.7594 33.3127 60.0889 31.89 59.9219L31.23 59.782C29.5808 59.6074 28.0108 58.9849 26.69 57.982C25.9942 57.2905 25.4315 56.4771 25.03 55.5821C24.2713 54.0868 23.6197 52.5394 23.08 50.9519C22.9805 50.666 22.9692 50.3567 23.0477 50.0642C23.1261 49.7718 23.2907 49.5098 23.52 49.312C23.7462 49.1054 24.0295 48.9718 24.3329 48.929C24.6363 48.8862 24.9455 48.9361 25.22 49.072C26.3604 49.5661 27.2986 50.4336 27.88 51.532C27.94 51.672 28.01 51.822 28.07 51.982C28.51 52.982 28.79 53.5521 29.77 53.3621C29.9667 53.3162 30.1578 53.2489 30.34 53.1619C31.6578 52.5954 33.1093 52.415 34.5257 52.6416C35.942 52.8682 37.2648 53.4926 38.34 54.4419C38.3903 54.4896 38.4303 54.547 38.4576 54.6106C38.4849 54.6742 38.499 54.7428 38.499 54.812C38.499 54.8813 38.4849 54.9498 38.4576 55.0135C38.4303 55.0771 38.3903 55.1343 38.34 55.1819C38.2924 55.2321 38.235 55.2722 38.1714 55.2996C38.1078 55.3269 38.0393 55.3411 37.97 55.3411C37.9008 55.3411 37.8323 55.3269 37.7687 55.2996C37.7051 55.2722 37.6477 55.2321 37.6 55.1819C36.6762 54.3604 35.5366 53.8204 34.3157 53.6255C33.0949 53.4306 31.8438 53.589 30.71 54.0821C30.454 54.2035 30.1859 54.2973 29.91 54.3621C28.03 54.7221 27.43 53.3021 27.03 52.3621L26.85 51.9419C26.3684 51.071 25.6075 50.3877 24.69 50.002C24.6039 49.9561 24.5056 49.9382 24.4089 49.9507C24.3121 49.9633 24.2216 50.0058 24.15 50.072C24.0776 50.1327 24.026 50.2144 24.0027 50.3059C23.9794 50.3975 23.9854 50.4942 24.02 50.5821C24.5386 52.1217 25.1669 53.6222 25.9 55.072C26.2484 55.8484 26.7326 56.556 27.33 57.1619C28.5055 58.02 29.884 58.5577 31.33 58.7219L32 58.8521C33.6796 59.0614 35.2239 59.8796 36.34 61.1519C36.6409 61.5602 36.8022 62.0548 36.8 62.562V67.3321C36.8097 67.4593 36.7723 67.5856 36.6948 67.687C36.6174 67.7885 36.5053 67.8577 36.38 67.8819Z" fill="#333333"/>
<path d="M43.1902 68.1504C43.1206 68.1504 43.0516 68.1368 42.9873 68.1101C42.923 68.0835 42.8646 68.0446 42.8154 67.9954C42.7662 67.9462 42.7271 67.8876 42.7005 67.8233C42.6739 67.759 42.6602 67.6902 42.6602 67.6206V57.8606C42.4844 56.278 41.9584 54.7543 41.1202 53.4004C39.6602 51.0804 37.5302 50.6004 35.4802 50.1404L34.7702 49.9805C34.635 49.945 34.5188 49.8586 34.4461 49.7393C34.3733 49.6199 34.3497 49.477 34.3802 49.3406C34.4156 49.2054 34.5021 49.0891 34.6215 49.0164C34.7408 48.9437 34.8838 48.92 35.0202 48.9505L35.7102 49.1106C37.7702 49.5706 40.3202 50.1106 42.0102 52.8406C42.9521 54.356 43.5368 56.0658 43.7202 57.8406V67.6504C43.7125 67.7857 43.6533 67.9131 43.5547 68.0061C43.4561 68.0991 43.3257 68.1506 43.1902 68.1504Z" fill="#333333"/>
<path d="M29.1982 50.8791C29.1224 50.88 29.0474 50.8645 28.9783 50.8334C28.9092 50.8023 28.8477 50.7565 28.7982 50.6991L27.4282 49.0693L25.9582 39.9692C25.9223 39.7798 25.8149 39.6115 25.6582 39.4992C25.4935 39.3896 25.2933 39.3466 25.0982 39.3791C24.8952 39.4201 24.7146 39.5347 24.5909 39.7008C24.4672 39.867 24.4093 40.073 24.4282 40.2792L25.6282 49.4091C25.6453 49.5494 25.6067 49.691 25.5207 49.8031C25.4347 49.9153 25.3081 49.9893 25.1682 50.0092C25.0295 50.0235 24.8906 49.9836 24.7806 49.8979C24.6707 49.8121 24.5981 49.6873 24.5782 49.5492L23.3782 40.4091C23.3269 39.935 23.4558 39.4591 23.7393 39.0756C24.0227 38.6921 24.4399 38.4294 24.9082 38.3393C25.1428 38.2956 25.3837 38.2985 25.6172 38.3483C25.8506 38.3981 26.0718 38.4935 26.2682 38.6291C26.4612 38.7661 26.6251 38.9402 26.7504 39.141C26.8757 39.3419 26.9599 39.5656 26.9982 39.7992L28.4282 48.6093L29.6082 50.0092C29.6532 50.0629 29.6871 50.1249 29.7079 50.1918C29.7288 50.2587 29.7361 50.3291 29.7296 50.3988C29.7231 50.4686 29.7029 50.5362 29.67 50.5981C29.6371 50.6599 29.5923 50.7148 29.5382 50.7592C29.442 50.837 29.3219 50.8792 29.1982 50.8791Z" fill="#333333"/>
<path d="M58.9281 49.8901C58.8124 49.8886 58.7002 49.8502 58.6081 49.7802C58.498 49.6918 58.4269 49.5637 58.4101 49.4235C58.3933 49.2833 58.432 49.1422 58.5181 49.0302L59.5181 47.7902C59.6581 46.9602 59.8981 45.6201 60.1381 44.2301C60.4081 42.6301 60.6981 40.9702 60.8681 40.0002C60.9106 39.7462 61.0044 39.5036 61.1436 39.287C61.2829 39.0704 61.4647 38.8843 61.6781 38.7402C61.8947 38.5911 62.1394 38.4878 62.3972 38.4362C62.6551 38.3846 62.9208 38.3858 63.1781 38.4401L64.5781 38.7101C64.7141 38.739 64.8333 38.8202 64.91 38.9362C64.9867 39.0522 65.0147 39.1938 64.9881 39.3302C64.9761 39.3991 64.9504 39.4649 64.9125 39.5236C64.8746 39.5823 64.8252 39.6328 64.7673 39.672C64.7095 39.7112 64.6443 39.7382 64.5757 39.7516C64.5071 39.7651 64.4365 39.7646 64.3681 39.7502L62.9681 39.4701C62.7286 39.4235 62.4804 39.474 62.2781 39.6103C62.1794 39.6758 62.0955 39.7611 62.0318 39.861C61.968 39.9609 61.9259 40.073 61.9081 40.1901C61.7381 41.1901 61.4481 42.8101 61.1781 44.4101C60.9081 46.0101 60.6781 47.2903 60.5381 48.1003V48.2301L59.3981 49.6801C59.344 49.7522 59.2725 49.8094 59.1903 49.8461C59.108 49.8829 59.0178 49.8979 58.9281 49.8901Z" fill="#333333"/>
<path d="M55.7086 49.9887C55.58 49.9893 55.4556 49.9432 55.3586 49.8588C55.3093 49.8096 55.2702 49.7511 55.2435 49.6867C55.2169 49.6224 55.2031 49.5535 55.2031 49.4838C55.2031 49.4142 55.2169 49.3451 55.2435 49.2807C55.2702 49.2164 55.3093 49.1581 55.3586 49.1088L57.4386 46.7487C57.6186 45.7487 57.7886 44.7487 57.9586 43.6787C58.1286 42.6087 58.2886 41.6788 58.4786 40.5788C58.5229 40.3242 58.6185 40.0813 58.7594 39.8647C58.9004 39.6481 59.0838 39.4624 59.2986 39.3188C59.5132 39.1695 59.7562 39.0657 60.0125 39.0141C60.2688 38.9625 60.5329 38.9641 60.7886 39.0188L61.5486 39.1687C61.6166 39.1818 61.6813 39.2084 61.7388 39.2468C61.7964 39.2852 61.8458 39.3348 61.884 39.3925C61.9222 39.4503 61.9484 39.5152 61.9612 39.5832C61.9741 39.6512 61.9732 39.7211 61.9586 39.7888C61.9455 39.8568 61.919 39.9214 61.8805 39.979C61.8421 40.0366 61.7926 40.086 61.7348 40.1242C61.6771 40.1624 61.6123 40.1886 61.5442 40.2014C61.4762 40.2142 61.4063 40.2133 61.3386 40.1987L60.5886 40.0488C60.346 40.0077 60.0968 40.0575 59.8886 40.1887C59.6949 40.3269 59.5623 40.5348 59.5186 40.7688C59.3386 41.8288 59.1686 42.8588 59.0086 43.8488C58.8186 44.9988 58.6486 46.0788 58.4586 47.0888V47.2387L56.1786 49.8088C56.1213 49.8754 56.0484 49.9265 55.9663 49.958C55.8843 49.9894 55.7957 50 55.7086 49.9887Z" fill="#333333"/>
<path d="M54.2307 67.8785C54.1616 67.8798 54.0929 67.8674 54.0286 67.8418C53.9644 67.8163 53.9059 67.7782 53.8565 67.7298C53.8072 67.6814 53.768 67.6236 53.7412 67.5599C53.7145 67.4961 53.7007 67.4278 53.7007 67.3587V62.5887C53.6978 62.086 53.8554 61.5953 54.1507 61.1885C55.2689 59.9118 56.8168 59.0898 58.5007 58.8785L59.1707 58.7486C60.6168 58.5843 61.9953 58.0466 63.1707 57.1885C63.7681 56.5826 64.2524 55.875 64.6007 55.0987C65.3339 53.6488 65.9621 52.1483 66.4807 50.6087C66.5138 50.5206 66.5191 50.4242 66.4959 50.333C66.4726 50.2419 66.422 50.1602 66.3507 50.0987C66.2768 50.0328 66.1847 49.9908 66.0866 49.9783C65.9884 49.9658 65.8887 49.9834 65.8007 50.0286C64.8857 50.4142 64.128 51.0978 63.6507 51.9685C63.5907 52.1019 63.5307 52.2418 63.4707 52.3885C63.0707 53.3285 62.4707 54.7785 60.5907 54.3885C60.3144 54.3255 60.046 54.2318 59.7907 54.1087C58.657 53.6157 57.4059 53.4572 56.185 53.6521C54.9642 53.847 53.8246 54.387 52.9007 55.2085C52.8515 55.2578 52.793 55.2968 52.7287 55.3235C52.6643 55.3502 52.5954 55.3641 52.5257 55.3641C52.4561 55.3641 52.3871 55.3502 52.3227 55.3235C52.2584 55.2968 52.1999 55.2578 52.1507 55.2085C52.1017 55.1602 52.0629 55.1026 52.0363 55.0391C52.0098 54.9756 51.9961 54.9075 51.9961 54.8387C51.9961 54.7698 52.0098 54.7015 52.0363 54.638C52.0629 54.5745 52.1017 54.5169 52.1507 54.4685C53.2259 53.5192 54.5487 52.8949 55.9651 52.6683C57.3814 52.4416 58.833 52.622 60.1507 53.1885C60.3323 53.2771 60.5236 53.3442 60.7207 53.3885C61.7207 53.5885 61.9707 53.0486 62.4207 51.9986C62.4807 51.8486 62.5407 51.6986 62.6107 51.5586C63.1916 50.4634 64.1254 49.5966 65.2607 49.0987C65.5371 48.9632 65.8477 48.9136 66.1525 48.9563C66.4573 48.9991 66.7423 49.1324 66.9707 49.3387C67.1983 49.5376 67.361 49.8002 67.4376 50.0926C67.5143 50.385 67.5014 50.6936 67.4007 50.9786C66.8645 52.5659 66.2162 54.1132 65.4607 55.6087C65.0548 56.5012 64.4926 57.3139 63.8007 58.0086C62.4799 59.0115 60.9099 59.634 59.2607 59.8086L58.6007 59.9485C57.1765 60.1103 55.8588 60.7817 54.8907 61.8387C54.728 62.0662 54.6406 62.339 54.6407 62.6187V67.3885C54.6366 67.5041 54.5941 67.6151 54.5198 67.7039C54.4456 67.7927 54.3438 67.854 54.2307 67.8785Z" fill="#333333"/>
<path d="M47.4206 68.1499C47.2801 68.1499 47.1453 68.0943 47.0459 67.9949C46.9465 67.8955 46.8906 67.7607 46.8906 67.6202V57.8601C47.079 56.0879 47.6597 54.3799 48.5906 52.8601C50.2906 50.1601 52.8406 49.5899 54.9006 49.1299L55.5906 48.97C55.727 48.9395 55.8699 48.9632 55.9893 49.0359C56.1087 49.1087 56.1952 49.2249 56.2306 49.3601C56.2607 49.4979 56.2357 49.6419 56.161 49.7615C56.0862 49.8811 55.9677 49.9667 55.8306 50L55.1306 50.1599C53.0706 50.6199 50.9506 51.1 49.4906 53.42C48.6413 54.7875 48.1114 56.3292 47.9406 57.93V67.6399C47.9355 67.7753 47.8788 67.9037 47.7821 67.9986C47.6854 68.0934 47.5561 68.1475 47.4206 68.1499Z" fill="#333333"/>
<path d="M61.3988 50.8796C61.2751 50.8798 61.1551 50.8375 61.0588 50.7598C60.9532 50.6671 60.8879 50.537 60.8767 50.397C60.8655 50.2569 60.9093 50.118 60.9988 50.0098L62.1788 48.6099L63.6088 39.7998C63.6449 39.5655 63.7282 39.341 63.8537 39.1399C63.9792 38.9388 64.1443 38.765 64.3388 38.6296C64.535 38.4935 64.7562 38.3979 64.9897 38.3481C65.2232 38.2983 65.4642 38.2956 65.6988 38.3398C66.1671 38.4299 66.5843 38.6927 66.8678 39.0762C67.1512 39.4596 67.2801 39.9356 67.2288 40.4097L66.0288 49.5498C66.0089 49.6878 65.9364 49.8127 65.8264 49.8984C65.7164 49.9842 65.5775 50.0241 65.4388 50.0098C65.2989 49.9899 65.1723 49.9159 65.0863 49.8037C65.0003 49.6915 64.9617 49.55 64.9788 49.4097L66.1788 40.2798C66.1951 40.0726 66.1349 39.8665 66.0096 39.7007C65.8843 39.5348 65.7026 39.4206 65.4988 39.3796C65.3037 39.3482 65.1039 39.3911 64.9388 39.4997C64.7844 39.6124 64.6802 39.7811 64.6488 39.9697L63.1788 49.0698L61.8088 50.6997C61.7573 50.7573 61.6941 50.8032 61.6234 50.8342C61.5526 50.8653 61.4761 50.8807 61.3988 50.8796Z" fill="#333333"/>
<path d="M59.5194 36.7517H31.1094V20.0117H59.5394L59.5194 36.7517ZM32.1494 35.6917H58.4594V21.0718H32.1094L32.1494 35.6917Z" fill="#333333"/>
<path d="M41.2194 32.9792C41.08 32.9757 40.9474 32.9184 40.8494 32.8193C40.2643 32.2343 39.8002 31.5398 39.4835 30.7754C39.1669 30.011 39.0039 29.1916 39.0039 28.3643C39.0039 27.5369 39.1669 26.7175 39.4835 25.9531C39.8002 25.1887 40.2643 24.4942 40.8494 23.9092C40.8986 23.8599 40.957 23.8209 41.0214 23.7942C41.0857 23.7675 41.1547 23.7539 41.2244 23.7539C41.294 23.7539 41.363 23.7675 41.4273 23.7942C41.4917 23.8209 41.5501 23.8599 41.5994 23.9092C41.6965 24.0098 41.7508 24.1443 41.7508 24.2842C41.7508 24.4241 41.6965 24.5585 41.5994 24.6592C41.1117 25.1451 40.7247 25.7226 40.4606 26.3584C40.1966 26.9942 40.0607 27.6758 40.0607 28.3643C40.0607 29.0527 40.1966 29.7343 40.4606 30.3701C40.7247 31.0059 41.1117 31.5834 41.5994 32.0693C41.6965 32.17 41.7508 32.3044 41.7508 32.4443C41.7508 32.5842 41.6965 32.7187 41.5994 32.8193C41.4971 32.9182 41.3616 32.9752 41.2194 32.9792Z" fill="#333333"/>
<path d="M49.3909 32.9792C49.2483 32.9772 49.1121 32.9199 49.0109 32.8193C48.9617 32.7701 48.9226 32.7116 48.8959 32.6472C48.8692 32.5829 48.8555 32.514 48.8555 32.4443C48.8555 32.3747 48.8692 32.3056 48.8959 32.2412C48.9226 32.1769 48.9617 32.1186 49.0109 32.0693C49.4986 31.5834 49.8856 31.0059 50.1497 30.3701C50.4137 29.7343 50.5496 29.0527 50.5496 28.3643C50.5496 27.6758 50.4137 26.9942 50.1497 26.3584C49.8856 25.7226 49.4986 25.1451 49.0109 24.6592C48.9617 24.61 48.9226 24.5517 48.8959 24.4873C48.8692 24.423 48.8555 24.3538 48.8555 24.2842C48.8555 24.2145 48.8692 24.1456 48.8959 24.0813C48.9226 24.017 48.9617 23.9584 49.0109 23.9092C49.0602 23.8599 49.1186 23.8209 49.183 23.7942C49.2473 23.7675 49.3163 23.7539 49.3859 23.7539C49.4556 23.7539 49.5246 23.7675 49.5889 23.7942C49.6533 23.8209 49.7117 23.8599 49.7609 23.9092C50.346 24.4942 50.8101 25.1887 51.1268 25.9531C51.4434 26.7175 51.6064 27.5369 51.6064 28.3643C51.6064 29.1916 51.4434 30.011 51.1268 30.7754C50.8101 31.5398 50.346 32.2343 49.7609 32.8193C49.6629 32.9184 49.5303 32.9757 49.3909 32.9792Z" fill="#333333"/>
<path d="M54.6218 29.6087C54.5093 29.61 54.3977 29.5888 54.2934 29.5467C54.1891 29.5046 54.0942 29.4422 54.0143 29.3631C53.9343 29.284 53.8708 29.19 53.8274 29.0862C53.7841 28.9825 53.7618 28.8711 53.7618 28.7586C53.7604 28.6453 53.7818 28.5327 53.8245 28.4278C53.8673 28.3228 53.9306 28.2276 54.0107 28.1475C54.0908 28.0674 54.1861 28.004 54.2911 27.9612C54.396 27.9185 54.5085 27.8972 54.6218 27.8985C54.7342 27.8985 54.8456 27.9208 54.9494 27.9642C55.0532 28.0075 55.1473 28.0712 55.2264 28.1512C55.3054 28.2312 55.3678 28.326 55.41 28.4302C55.4521 28.5345 55.4731 28.6461 55.4718 28.7586C55.4718 28.984 55.3822 29.2003 55.2228 29.3597C55.0634 29.5191 54.8472 29.6087 54.6218 29.6087ZM54.6218 28.5486C54.5669 28.5511 54.5149 28.574 54.476 28.6129C54.4371 28.6517 54.4142 28.7037 54.4118 28.7586C54.4118 28.9786 54.8218 28.9786 54.8218 28.7586C54.8218 28.7046 54.8011 28.6527 54.7638 28.6136C54.7266 28.5745 54.6757 28.5512 54.6218 28.5486Z" fill="#333333"/>
<path d="M35.9907 29.6086C35.7653 29.6086 35.5491 29.519 35.3896 29.3596C35.2302 29.2002 35.1407 28.984 35.1407 28.7585C35.1394 28.6461 35.1604 28.5345 35.2025 28.4302C35.2446 28.3259 35.307 28.2311 35.3861 28.1511C35.4651 28.0711 35.5593 28.0075 35.6631 27.9641C35.7669 27.9208 35.8782 27.8984 35.9907 27.8984C36.2188 27.8984 36.4375 27.9891 36.5988 28.1504C36.7601 28.3117 36.8507 28.5305 36.8507 28.7585C36.8481 28.9849 36.7563 29.201 36.5953 29.3601C36.4343 29.5192 36.2171 29.6087 35.9907 29.6086ZM35.9907 28.5486C35.9367 28.5512 35.8859 28.5744 35.8486 28.6135C35.8114 28.6526 35.7906 28.7045 35.7907 28.7585C35.7907 28.9785 36.1907 28.9785 36.1907 28.7585C36.1907 28.7045 36.17 28.6526 36.1328 28.6135C36.0955 28.5744 36.0446 28.5512 35.9907 28.5486Z" fill="#333333"/>
<path d="M43.7086 67.5508H35.3086V70.4508H43.7086V67.5508Z" fill="#235AB0"/>
<path d="M44.2086 70.939H34.8086V67.0391H44.2086V70.939ZM35.8086 69.939H43.2086V68.0391H35.8086V69.939Z" fill="#333333"/>
<path d="M55.2711 67.5508H46.8711V70.4508H55.2711V67.5508Z" fill="#235AB0"/>
<path d="M55.7811 70.939H46.3711V67.0391H55.7811V70.939ZM47.3711 69.939H54.7811V68.0391H47.3711V69.939Z" fill="#333333"/>
<path d="M47.6592 28.6153L47.1089 31H46.1382L45.7331 28.822C45.7331 28.7822 45.7331 28.663 45.7331 28.6073H45.221C45.221 28.655 45.1752 28.7822 45.1752 28.822L44.7089 31H43.7688L43.2643 28.6153H42.5V27.8681H43.1497L42.7446 26H43.6465L43.9828 27.8681H44.7471L45.1369 26H45.9853L46.3293 27.8681H47.0401L47.4147 26H48.2783L47.835 27.8681H48.5V28.6153H47.6592ZM44.5331 28.6153H44.0898C44.1739 29.0922 44.2427 29.585 44.2962 29.9905C44.365 29.5771 44.4567 29.1002 44.5331 28.6153ZM45.3739 27.8681H45.5726L45.4809 27.1924C45.458 27.4149 45.4197 27.6376 45.3739 27.8681ZM46.9025 28.6153H46.4669C46.551 29.0604 46.6121 29.5612 46.6732 29.9825C46.7497 29.5612 46.8032 29.0604 46.8949 28.6153H46.9025Z" fill="#333333"/>
</g>
<defs>
<clipPath id="clip0_1080_171805">
<rect width="44.61" height="50.94" fill="white" transform="translate(23 20)"/>
</clipPath>
</defs>
</svg>
