<svg width="91" height="90" viewBox="0 0 91 90" fill="none" xmlns="http://www.w3.org/2000/svg">
<circle cx="46" cy="45" r="45" fill="#FAFAFA"/>
<path d="M36.6094 37.6398V26.5217C36.6094 25.1231 37.7502 24 39.1391 24H52.8509C54.2468 24 55.3806 25.1302 55.3806 26.5217V37.6398" stroke="#333333" stroke-linecap="round" stroke-linejoin="round"/>
<path d="M69.5962 32.2773V64.0352C69.5962 65.123 68.7105 65.9989 67.6263 65.9989H24.3723C23.2881 65.9989 22.4023 65.123 22.4023 64.0352V32.2773H69.5962Z" stroke="#333333" stroke-linecap="round" stroke-linejoin="round"/>
<path d="M22.977 31.375H69.023C70.1142 31.375 71 32.2579 71 33.3457V45.7494C71 49.3518 68.0663 52.2832 64.4453 52.2832H27.5547C23.9408 52.2832 21 49.3589 21 45.7494V33.3457C21 32.2579 21.8858 31.375 22.977 31.375Z" fill="#235AB0"/>
<path d="M34.4274 49.1172H30.7852V55.4391H34.4274V49.1172Z" fill="white" stroke="#333333" stroke-linecap="round" stroke-linejoin="round"/>
<path d="M57.5726 55.4336H61.2148V49.1117H57.5726V55.4336Z" fill="white" stroke="#333333" stroke-linecap="round" stroke-linejoin="round"/>
</svg>
