<svg width="100" height="100" viewBox="0 0 100 100" fill="none" xmlns="http://www.w3.org/2000/svg">
<circle cx="50" cy="50" r="50" fill="#F2F6FB"/>
<g clip-path="url(#clip0_1828_508105)">
<path d="M37.7402 75.04V35.61H47.8302V24.45H57.7802V44.73H67.7802V74.55L37.7402 75.04Z" fill="white"/>
<path d="M68.1102 40.3001C68.0188 40.3004 67.929 40.2762 67.8502 40.23C67.7903 40.1967 67.7375 40.1517 67.695 40.0979C67.6525 40.0441 67.6211 39.9825 67.6025 39.9165C67.5839 39.8505 67.5785 39.7817 67.5867 39.7136C67.5949 39.6456 67.6164 39.5797 67.6501 39.52L74.3901 27.24C74.4236 27.1789 74.4688 27.1249 74.5231 27.0813C74.5774 27.0377 74.6397 27.0054 74.7066 26.9858C74.7735 26.9663 74.8435 26.9602 74.9128 26.9678C74.982 26.9754 75.0491 26.9965 75.1102 27.03C75.1714 27.0633 75.2253 27.1085 75.2687 27.1631C75.3121 27.2177 75.3441 27.2805 75.3627 27.3477C75.3814 27.4148 75.3863 27.4851 75.3773 27.5542C75.3683 27.6233 75.3455 27.6899 75.3102 27.75L68.5701 40.02C68.5272 40.105 68.4614 40.1761 68.3801 40.2256C68.2988 40.2751 68.2053 40.301 68.1102 40.3001Z" fill="#333333"/>
<path d="M76.1396 40.3001C75.4217 40.2974 74.734 40.0111 74.2263 39.5034C73.7187 38.9958 73.4323 38.308 73.4297 37.5901V36.0801C73.4297 35.3604 73.7148 34.67 74.2228 34.1602C74.7307 33.6504 75.42 33.3625 76.1396 33.3599C76.4964 33.3599 76.8496 33.4304 77.1791 33.5672C77.5085 33.704 77.8077 33.9046 78.0594 34.1573C78.3112 34.41 78.5106 34.7099 78.6462 35.0398C78.7818 35.3698 78.851 35.7234 78.8497 36.0801V37.5901C78.8497 38.3089 78.5641 38.9982 78.0559 39.5064C77.5477 40.0146 76.8584 40.3001 76.1396 40.3001ZM76.1396 34.42C75.9221 34.4199 75.7068 34.4631 75.5059 34.5467C75.3051 34.6302 75.1228 34.7525 74.9694 34.9068C74.8161 35.061 74.6947 35.2442 74.6124 35.4456C74.53 35.6469 74.4884 35.8626 74.4897 36.0801V37.5901C74.4897 38.0277 74.6635 38.4472 74.973 38.7566C75.2824 39.0661 75.702 39.24 76.1396 39.24C76.5782 39.24 76.9989 39.0665 77.3099 38.7574C77.621 38.4482 77.797 38.0286 77.7997 37.5901V36.0801C77.7997 35.6398 77.6248 35.2176 77.3135 34.9063C77.0022 34.595 76.5799 34.42 76.1396 34.42Z" fill="#333333"/>
<path d="M66.9698 33.8999C66.2511 33.8999 65.5618 33.6145 65.0535 33.1062C64.5453 32.598 64.2598 31.9087 64.2598 31.19V29.68C64.2598 28.9612 64.5453 28.2719 65.0535 27.7637C65.5618 27.2555 66.2511 26.97 66.9698 26.97C67.6885 26.97 68.3778 27.2555 68.886 27.7637C69.3943 28.2719 69.6798 28.9612 69.6798 29.68V31.19C69.6798 31.9087 69.3943 32.598 68.886 33.1062C68.3778 33.6145 67.6885 33.8999 66.9698 33.8999ZM66.9698 28.0201C66.5313 28.0227 66.1116 28.1988 65.8024 28.5098C65.4933 28.8208 65.3198 29.2414 65.3198 29.68V31.19C65.3198 31.6276 65.4936 32.0473 65.803 32.3567C66.1125 32.6662 66.5322 32.8401 66.9698 32.8401C67.4074 32.8401 67.8271 32.6662 68.1365 32.3567C68.446 32.0473 68.6198 31.6276 68.6198 31.19V29.68C68.6251 29.4595 68.5865 29.2401 68.506 29.0347C68.4256 28.8293 68.305 28.6422 68.1514 28.4839C67.9978 28.3256 67.8142 28.1996 67.6113 28.1131C67.4084 28.0266 67.1903 27.9813 66.9698 27.98V28.0201Z" fill="#333333"/>
<path d="M57.9103 75.0401C57.7698 75.0401 57.635 74.9842 57.5356 74.8848C57.4362 74.7854 57.3803 74.6506 57.3803 74.51V25.0601H48.3803V74.51C48.3803 74.6506 48.3245 74.7854 48.2251 74.8848C48.1257 74.9842 47.9909 75.0401 47.8503 75.0401C47.7098 75.0401 47.575 74.9842 47.4756 74.8848C47.3762 74.7854 47.3203 74.6506 47.3203 74.51V23.98H58.4103V74.49C58.4158 74.629 58.3664 74.7646 58.2729 74.8675C58.1794 74.9703 58.0492 75.0323 57.9103 75.0401Z" fill="#333333"/>
<path d="M68.53 75.0401H37.21V35.18H47.83C47.9705 35.18 48.1053 35.2358 48.2047 35.3352C48.3041 35.4346 48.36 35.5694 48.36 35.71C48.36 35.8506 48.3041 35.9854 48.2047 36.0847C48.1053 36.1841 47.9705 36.24 47.83 36.24H38.27V73.98H67.47V45.0401H57.91C57.8408 45.0414 57.7721 45.029 57.7079 45.0034C57.6436 44.9779 57.5851 44.9398 57.5358 44.8914C57.4864 44.843 57.4472 44.785 57.4205 44.7212C57.3937 44.6575 57.3799 44.5892 57.3799 44.5201C57.3799 44.3795 57.4358 44.2447 57.5352 44.1453C57.6346 44.0459 57.7694 43.99 57.91 43.99H68.53V75.0401Z" fill="#333333"/>
<path d="M37.7699 74.19C46.1094 74.19 52.8699 67.4295 52.8699 59.09C52.8699 50.7505 46.1094 43.99 37.7699 43.99C29.4304 43.99 22.6699 50.7505 22.6699 59.09C22.6699 67.4295 29.4304 74.19 37.7699 74.19Z" fill="#235AB0"/>
<path d="M52.95 59.8201H22.53C22.4604 59.8201 22.3915 59.8062 22.3271 59.7796C22.2628 59.7529 22.2044 59.714 22.1552 59.6648C22.106 59.6156 22.067 59.5573 22.0403 59.493C22.0137 59.4286 22 59.3597 22 59.2901C22 59.1495 22.0558 59.0147 22.1552 58.9153C22.2546 58.8159 22.3894 58.76 22.53 58.76H52.95C53.0905 58.76 53.2254 58.8159 53.3248 58.9153C53.4242 59.0147 53.48 59.1495 53.48 59.2901C53.48 59.3597 53.4663 59.4286 53.4396 59.493C53.413 59.5573 53.374 59.6156 53.3248 59.6648C53.2756 59.714 53.2171 59.7529 53.1528 59.7796C53.0885 59.8062 53.0196 59.8201 52.95 59.8201Z" fill="#333333"/>
<path d="M37.74 59.8301C37.5994 59.8301 37.4646 59.7742 37.3652 59.6748C37.2658 59.5754 37.21 59.4406 37.21 59.3001V44.0801C37.21 43.9395 37.2658 43.8047 37.3652 43.7054C37.4646 43.606 37.5994 43.5501 37.74 43.5501C37.8806 43.5501 38.0154 43.606 38.1147 43.7054C38.2141 43.8047 38.27 43.9395 38.27 44.0801V59.3001C38.27 59.4406 38.2141 59.5754 38.1147 59.6748C38.0154 59.7742 37.8806 59.8301 37.74 59.8301Z" fill="#333333"/>
<path d="M52.95 59.8501C52.8808 59.8501 52.8124 59.8364 52.7487 59.8096C52.6849 59.7828 52.6271 59.7435 52.5787 59.6941C52.5303 59.6448 52.4922 59.5863 52.4667 59.522C52.4411 59.4578 52.4287 59.3892 52.43 59.3201C52.4274 55.4221 50.8798 51.6839 48.1263 48.9248C45.3728 46.1657 41.638 44.6107 37.74 44.6001C33.8456 44.6081 30.1132 46.1599 27.3613 48.9156C24.6094 51.6712 23.0626 55.4057 23.06 59.3001C23.06 59.4406 23.0041 59.5754 22.9047 59.6748C22.8053 59.7742 22.6705 59.8301 22.53 59.8301C22.3894 59.8301 22.2546 59.7742 22.1552 59.6748C22.0558 59.5754 22 59.4406 22 59.3001C22.0026 55.1245 23.6611 51.1205 26.6118 48.166C29.5625 45.2116 33.5645 43.548 37.74 43.5401C41.9182 43.5507 45.9216 45.2179 48.8723 48.1761C51.8229 51.1342 53.48 55.1419 53.48 59.3201C53.4813 59.3901 53.4685 59.4595 53.4424 59.5244C53.4162 59.5894 53.3772 59.6483 53.3278 59.6978C53.2783 59.7473 53.2193 59.7864 53.1544 59.8125C53.0895 59.8387 53.0199 59.8515 52.95 59.8501Z" fill="#333333"/>
<path d="M29.5895 59.8201C29.5199 59.8201 29.451 59.8062 29.3867 59.7796C29.3224 59.7529 29.264 59.714 29.2148 59.6648C29.1656 59.6156 29.1265 59.5573 29.0999 59.493C29.0733 59.4286 29.0596 59.3597 29.0596 59.2901C29.0596 52.1501 31.8996 48.0101 34.2896 45.8001C34.3388 45.7508 34.3972 45.7115 34.4615 45.6848C34.5259 45.6582 34.5949 45.6446 34.6646 45.6446C34.7342 45.6446 34.8031 45.6582 34.8675 45.6848C34.9318 45.7115 34.9903 45.7508 35.0396 45.8001C35.0885 45.8484 35.1274 45.906 35.1539 45.9695C35.1805 46.033 35.1942 46.1011 35.1942 46.17C35.1942 46.2388 35.1805 46.3071 35.1539 46.3706C35.1274 46.4342 35.0885 46.4917 35.0396 46.5401C32.8096 48.6201 30.1495 52.54 30.1495 59.26C30.1539 59.3347 30.1424 59.4094 30.1158 59.4793C30.0892 59.5492 30.0481 59.6127 29.9952 59.6656C29.9423 59.7185 29.8788 59.7596 29.8089 59.7862C29.739 59.8128 29.6642 59.8245 29.5895 59.8201Z" fill="#333333"/>
<path d="M45.9 59.8201C45.8304 59.8201 45.7615 59.8062 45.6972 59.7796C45.6329 59.7529 45.5745 59.714 45.5253 59.6648C45.4761 59.6156 45.437 59.5573 45.4104 59.493C45.3838 59.4286 45.3701 59.3597 45.3701 59.2901C45.3701 52.5301 42.71 48.6401 40.47 46.5701C40.4211 46.5217 40.3821 46.4639 40.3556 46.4004C40.329 46.3369 40.3154 46.2688 40.3154 46.2C40.3154 46.1311 40.329 46.0631 40.3556 45.9995C40.3821 45.936 40.4211 45.8785 40.47 45.8301C40.5177 45.7799 40.5751 45.7398 40.6387 45.7124C40.7023 45.6851 40.7708 45.6709 40.84 45.6709C40.9093 45.6709 40.9778 45.6851 41.0414 45.7124C41.105 45.7398 41.1624 45.7799 41.21 45.8301C43.6 48.0401 46.45 52.1801 46.45 59.3201C46.4422 59.4589 46.3803 59.5891 46.2774 59.6826C46.1745 59.7762 46.039 59.8256 45.9 59.8201Z" fill="#333333"/>
<path d="M37.7397 53.29C29.1097 53.29 26.7397 48.78 26.6897 48.59C26.6274 48.464 26.6177 48.3184 26.6627 48.1852C26.7077 48.0521 26.8037 47.9421 26.9297 47.8798C27.0557 47.8175 27.2012 47.8079 27.3344 47.853C27.4675 47.898 27.5773 47.9938 27.6397 48.1198C27.6397 48.1198 29.8197 52.2299 37.7397 52.2299C37.8803 52.2299 38.0151 52.2858 38.1145 52.3852C38.2138 52.4846 38.2697 52.6194 38.2697 52.7599C38.2697 52.8295 38.256 52.8985 38.2293 52.9628C38.2027 53.0271 38.1637 53.0855 38.1145 53.1347C38.0652 53.1839 38.0068 53.223 37.9425 53.2497C37.8782 53.2763 37.8093 53.29 37.7397 53.29Z" fill="#333333"/>
<path d="M37.7398 53.29C37.6707 53.29 37.6022 53.2762 37.5385 53.2494C37.4747 53.2227 37.417 53.1836 37.3686 53.1342C37.3201 53.0849 37.282 53.0263 37.2565 52.9621C37.231 52.8978 37.2185 52.8291 37.2198 52.7599C37.2185 52.6908 37.231 52.622 37.2565 52.5578C37.282 52.4935 37.3201 52.435 37.3686 52.3857C37.417 52.3363 37.4747 52.2972 37.5385 52.2704C37.6022 52.2437 37.6707 52.2299 37.7398 52.2299C45.6698 52.2299 47.8298 48.1598 47.8498 48.1198C47.9122 47.9938 48.022 47.898 48.1551 47.853C48.2883 47.8079 48.4339 47.8175 48.5598 47.8798C48.6841 47.9439 48.7779 48.0547 48.821 48.1877C48.864 48.3206 48.8529 48.4653 48.7898 48.59C48.6998 48.78 46.4098 53.29 37.7398 53.29Z" fill="#333333"/>
<path d="M37.7398 75.0402C37.6707 75.0402 37.6022 75.0264 37.5385 74.9996C37.4747 74.9729 37.417 74.9338 37.3686 74.8844C37.3201 74.8351 37.282 74.7765 37.2565 74.7123C37.231 74.648 37.2185 74.5793 37.2198 74.5101V59.2902C37.2185 59.221 37.231 59.1523 37.2565 59.088C37.282 59.0238 37.3201 58.9653 37.3686 58.9159C37.417 58.8665 37.4747 58.8274 37.5385 58.8007C37.6022 58.7739 37.6707 58.7601 37.7398 58.7601C37.8098 58.7588 37.8793 58.7716 37.9442 58.7977C38.0092 58.8239 38.0681 58.8627 38.1176 58.9122C38.1671 58.9617 38.2061 59.0207 38.2323 59.0856C38.2584 59.1505 38.2712 59.2202 38.2698 59.2902V74.5101C38.2712 74.5801 38.2584 74.6496 38.2323 74.7145C38.2061 74.7794 38.1671 74.8383 38.1176 74.8878C38.0681 74.9373 38.0092 74.9764 37.9442 75.0026C37.8793 75.0287 37.8098 75.0415 37.7398 75.0402Z" fill="#333333"/>
<path d="M37.74 75.0401C33.5671 75.0348 29.5666 73.3748 26.616 70.4241C23.6653 67.4734 22.0053 63.473 22 59.3001C22 59.2305 22.0137 59.1615 22.0403 59.0972C22.067 59.0329 22.106 58.9745 22.1552 58.9253C22.2044 58.8761 22.2628 58.837 22.3271 58.8103C22.3915 58.7837 22.4604 58.7701 22.53 58.7701C22.5996 58.7701 22.6685 58.7837 22.7328 58.8103C22.7971 58.837 22.8555 58.8761 22.9047 58.9253C22.9539 58.9745 22.993 59.0329 23.0197 59.0972C23.0463 59.1615 23.06 59.2305 23.06 59.3001C23.0653 63.1918 24.6136 66.9227 27.3655 69.6746C30.1174 72.4265 33.8482 73.9747 37.74 73.98C41.6292 73.9694 45.3559 72.419 48.1051 69.668C50.8543 66.917 52.4021 63.1893 52.41 59.3001C52.4086 59.231 52.4211 59.1622 52.4467 59.0979C52.4722 59.0337 52.5103 58.9752 52.5587 58.9258C52.6071 58.8765 52.6649 58.8373 52.7286 58.8106C52.7924 58.7838 52.8609 58.77 52.93 58.7701C52.9996 58.7701 53.0685 58.7837 53.1328 58.8103C53.1971 58.837 53.2555 58.8761 53.3047 58.9253C53.354 58.9745 53.393 59.0329 53.4196 59.0972C53.4463 59.1615 53.46 59.2305 53.46 59.3001C53.4547 63.4695 51.7974 67.4669 48.8511 70.417C45.9047 73.3671 41.9094 75.0295 37.74 75.0401Z" fill="#333333"/>
<path d="M41.3498 72.43C41.2806 72.4293 41.2122 72.4147 41.1487 72.3872C41.0851 72.3598 41.0277 72.32 40.9798 72.2701C40.9308 72.2217 40.8919 72.1641 40.8654 72.1006C40.8388 72.0371 40.8252 71.9688 40.8252 71.8999C40.8252 71.8311 40.8388 71.763 40.8654 71.6995C40.8919 71.636 40.9308 71.5784 40.9798 71.5301C42.9798 69.4701 45.3798 65.6701 45.3798 59.3001C45.3798 59.2305 45.3935 59.1615 45.4201 59.0972C45.4467 59.0329 45.4858 58.9745 45.535 58.9253C45.5842 58.8761 45.6427 58.837 45.707 58.8103C45.7713 58.7837 45.8402 58.7701 45.9098 58.7701C45.9794 58.7701 46.0483 58.7837 46.1126 58.8103C46.1769 58.837 46.2353 58.8761 46.2845 58.9253C46.3338 58.9745 46.3728 59.0329 46.3995 59.0972C46.4261 59.1615 46.4398 59.2305 46.4398 59.3001C46.4398 66.0301 43.8798 70.0601 41.7398 72.3001C41.6315 72.3922 41.4917 72.4387 41.3498 72.43Z" fill="#333333"/>
<path d="M34.1196 72.4099C34.0486 72.4112 33.9781 72.3977 33.9127 72.3701C33.8472 72.3426 33.7883 72.3017 33.7396 72.25C31.5996 70.05 29.0596 66.0201 29.0596 59.3001C29.0596 59.2305 29.0733 59.1615 29.0999 59.0972C29.1265 59.0329 29.1656 58.9745 29.2148 58.9253C29.264 58.8761 29.3224 58.837 29.3867 58.8103C29.451 58.7837 29.5199 58.7701 29.5895 58.7701C29.6591 58.7701 29.7281 58.7837 29.7924 58.8103C29.8567 58.837 29.9151 58.8761 29.9643 58.9253C30.0135 58.9745 30.0526 59.0329 30.0792 59.0972C30.1059 59.1615 30.1196 59.2305 30.1196 59.3001C30.1196 65.6601 32.4996 69.4601 34.4996 71.5201C34.5486 71.5684 34.5874 71.626 34.614 71.6895C34.6405 71.753 34.6542 71.8211 34.6542 71.8899C34.6542 71.9588 34.6405 72.0271 34.614 72.0906C34.5874 72.1541 34.5486 72.2117 34.4996 72.26C34.4493 72.3089 34.3898 72.3473 34.3246 72.3731C34.2594 72.3988 34.1897 72.4113 34.1196 72.4099Z" fill="#333333"/>
<path d="M48.3198 70.76C48.2219 70.7619 48.1255 70.7355 48.0421 70.6841C47.9588 70.6327 47.8921 70.5584 47.8498 70.47C47.8498 70.47 45.6598 66.3599 37.7398 66.3599C37.6707 66.3599 37.6022 66.3464 37.5385 66.3196C37.4747 66.2929 37.417 66.2535 37.3686 66.2041C37.3201 66.1548 37.282 66.0963 37.2565 66.032C37.231 65.9678 37.2185 65.8992 37.2198 65.8301C37.2185 65.761 37.231 65.6922 37.2565 65.628C37.282 65.5637 37.3201 65.5052 37.3686 65.4558C37.417 65.4065 37.4747 65.3674 37.5385 65.3406C37.6022 65.3139 37.6707 65.3001 37.7398 65.3001C46.3698 65.3001 48.7398 69.81 48.7398 70C48.8029 70.1248 48.814 70.2694 48.771 70.4024C48.7279 70.5354 48.634 70.6459 48.5098 70.71C48.4502 70.7386 48.3857 70.7556 48.3198 70.76Z" fill="#333333"/>
<path d="M27.1597 70.76C27.0804 70.759 27.0022 70.7419 26.9297 70.71C26.8037 70.6477 26.7077 70.538 26.6627 70.4048C26.6177 70.2717 26.6274 70.126 26.6897 70C26.7797 69.81 29.1097 65.3001 37.7397 65.3001C37.8803 65.3001 38.0151 65.356 38.1145 65.4554C38.2138 65.5547 38.2697 65.6895 38.2697 65.8301C38.2697 65.9707 38.2138 66.1055 38.1145 66.2049C38.0151 66.3043 37.8803 66.3599 37.7397 66.3599C29.8197 66.3599 27.6597 70.43 27.6397 70.47C27.5948 70.5584 27.526 70.6324 27.4412 70.6836C27.3563 70.7349 27.2588 70.7614 27.1597 70.76Z" fill="#333333"/>
</g>
<defs>
<clipPath id="clip0_1828_508105">
<rect width="56.85" height="51.04" fill="white" transform="translate(22 24)"/>
</clipPath>
</defs>
</svg>
