<svg width="100" height="100" viewBox="0 0 100 100" fill="none" xmlns="http://www.w3.org/2000/svg">
<circle cx="50" cy="50" r="50" fill="#F2F6FB"/>
<g clip-path="url(#clip0_1087_175280)">
<path d="M56.8497 55.5157V52.991H57.4655V51.4208H56.8497V49.0295H57.4655V47.4695H56.8497V44.5753H57.4655V43.4977H56.8497V43.3027H37.4219V56.6446H56.3263V56.7986H57.5989V55.5157H56.8497Z" fill="white"/>
<path d="M72.9332 49.5323H69.7516C69.5863 43.9071 67.2376 38.5673 63.2032 34.6439C59.1687 30.7206 53.7654 28.5219 48.1378 28.5137C42.4044 28.5191 36.9074 30.799 32.8532 34.8531C28.7991 38.9073 26.5191 44.4042 26.5137 50.1376C26.5191 55.871 28.7991 61.3682 32.8532 65.4223C36.9074 69.4765 42.4044 71.7564 48.1378 71.7618C52.837 71.777 57.4104 70.2441 61.1513 67.4L58.6061 64.0132C55.5966 66.2994 51.9172 67.5297 48.1378 67.513C43.5304 67.5103 39.1126 65.6788 35.8547 62.4209C32.5968 59.163 30.7653 54.745 30.7626 50.1376C30.7788 45.5335 32.6143 41.1225 35.8689 37.8659C39.1236 34.6093 43.5336 32.7711 48.1378 32.7522C52.6375 32.7701 56.9564 34.5258 60.1922 37.6526C63.4281 40.7795 65.3307 45.0358 65.5028 49.5323H62.3417L67.6375 56.1107L72.9332 49.5323Z" fill="#235AB0"/>
<path d="M48.1373 72.3252C42.2686 72.3171 36.6426 69.9822 32.4929 65.8324C28.3431 61.6826 26.0081 56.0565 26 50.1879C26.0081 44.3192 28.3431 38.6934 32.4929 34.5436C36.6426 30.3938 42.2686 28.0589 48.1373 28.0508C53.8033 28.0885 59.2423 30.2823 63.3486 34.1865C67.4549 38.0908 69.9204 43.4125 70.2437 49.0694H74L67.637 56.9821L61.2739 49.0694H64.9685C64.7015 44.7922 62.8102 40.7785 59.6813 37.85C56.5525 34.9215 52.4228 33.2994 48.1373 33.3156C43.6659 33.3237 39.3801 35.1042 36.2193 38.2669C33.0585 41.4296 31.2806 45.7165 31.2752 50.1879C31.2806 54.6583 33.0589 58.9442 36.22 62.1053C39.381 65.2664 43.6668 67.0447 48.1373 67.0501C51.8024 67.0661 55.3702 65.8719 58.2874 63.653L58.6979 63.3451L61.8794 67.553L61.4689 67.8607C57.6332 70.7674 52.9499 72.3358 48.1373 72.3252ZM48.1373 29.0771C42.5408 29.0852 37.1759 31.3119 33.2185 35.2692C29.2612 39.2265 27.0344 44.5914 27.0263 50.1879C27.0344 55.7843 29.2612 61.1492 33.2185 65.1065C37.1759 69.0638 42.5408 71.2908 48.1373 71.2989C52.5567 71.3153 56.8679 69.9321 60.4529 67.3476L58.5131 64.7818C55.4911 66.9365 51.8693 68.0889 48.1578 68.0764C43.4152 68.071 38.8684 66.1845 35.5148 62.8309C32.1613 59.4774 30.2748 54.9305 30.2694 50.1879C30.2748 45.4443 32.1609 40.8965 35.5142 37.5413C38.8674 34.1861 43.4142 32.2974 48.1578 32.2893C52.8027 32.2711 57.271 34.0676 60.6105 37.296C63.9501 40.5244 65.8968 44.9294 66.0359 49.5722V50.0957H63.4189L67.637 55.3502L71.855 50.0957H69.2482V49.6031C69.0732 44.109 66.7764 38.8963 62.8401 35.0595C58.9038 31.2227 53.634 29.0601 48.1373 29.0257V29.0771Z" fill="#333333"/>
<path d="M42.9126 43.2305H37.4219V56.7981H42.9126V43.2305Z" fill="#235AB0"/>
<path d="M49.113 53.299C48.6248 53.299 48.1565 53.1058 47.8103 52.7615C47.4642 52.4173 47.2683 51.95 47.2656 51.4619C47.2656 51.3258 47.3197 51.1953 47.416 51.0991C47.5122 51.0028 47.6427 50.9487 47.7788 50.9487C47.9149 50.9487 48.0454 51.0028 48.1416 51.0991C48.2379 51.1953 48.2919 51.3258 48.2919 51.4619C48.2919 51.5692 48.3132 51.6755 48.3546 51.7746C48.396 51.8736 48.4566 51.9635 48.533 52.0389C48.6094 52.1143 48.7 52.1739 48.7996 52.2141C48.8991 52.2542 49.0057 52.274 49.113 52.2727C49.328 52.2727 49.5342 52.1872 49.6863 52.0352C49.8383 51.8831 49.9238 51.6769 49.9238 51.4619C49.9238 51.1848 49.8519 50.9181 48.9488 50.6205C47.8301 50.2613 47.2656 49.6455 47.2656 48.8039C47.2683 48.3157 47.4642 47.8485 47.8103 47.5043C48.1565 47.16 48.6248 46.9668 49.113 46.9668C49.6002 46.9668 50.0675 47.1602 50.412 47.5048C50.7565 47.8493 50.9501 48.3167 50.9501 48.8039C50.9501 48.94 50.896 49.0705 50.7998 49.1667C50.7036 49.263 50.573 49.3171 50.4369 49.3171C50.3008 49.3171 50.1703 49.263 50.074 49.1667C49.9778 49.0705 49.9238 48.94 49.9238 48.8039C49.9238 48.5889 49.8383 48.3827 49.6863 48.2306C49.5342 48.0786 49.328 47.9931 49.113 47.9931C49.0057 47.9917 48.8991 48.0116 48.7996 48.0517C48.7 48.0919 48.6094 48.1514 48.533 48.2269C48.4566 48.3023 48.396 48.3922 48.3546 48.4912C48.3132 48.5903 48.2919 48.6966 48.2919 48.8039C48.2919 48.9579 48.2919 49.3271 49.2669 49.6453C49.7698 49.8095 50.9501 50.1893 50.9501 51.4619C50.9501 51.9491 50.7565 52.4165 50.412 52.761C50.0675 53.1055 49.6002 53.299 49.113 53.299Z" fill="#333333"/>
<path d="M49.1128 48.002C48.9767 48.002 48.8461 47.9479 48.7499 47.8517C48.6536 47.7555 48.5996 47.625 48.5996 47.4889V46.7397C48.5996 46.6036 48.6536 46.4731 48.7499 46.3769C48.8461 46.2807 48.9767 46.2266 49.1128 46.2266C49.2489 46.2266 49.3793 46.2807 49.4756 46.3769C49.5718 46.4731 49.6259 46.6036 49.6259 46.7397V47.4889C49.6233 47.6242 49.5684 47.753 49.4727 47.8487C49.377 47.9444 49.248 47.9994 49.1128 48.002Z" fill="#333333"/>
<path d="M49.1128 54.0469C48.9767 54.0469 48.8461 53.9928 48.7499 53.8965C48.6536 53.8003 48.5996 53.6698 48.5996 53.5337V52.8256C48.5996 52.6896 48.6536 52.5591 48.7499 52.4628C48.8461 52.3666 48.9767 52.3125 49.1128 52.3125C49.2489 52.3125 49.3793 52.3666 49.4756 52.4628C49.5718 52.5591 49.6259 52.6896 49.6259 52.8256V53.5748C49.6156 53.7037 49.5569 53.8238 49.4618 53.9113C49.3667 53.9989 49.242 54.0473 49.1128 54.0469Z" fill="#333333"/>
<path d="M58.3589 57.423H36.8066V42.8496H58.3589V45.2204H57.8458C57.5926 45.2204 57.3498 45.3208 57.1708 45.4998C56.9918 45.6788 56.8913 45.9217 56.8913 46.1748C56.8912 46.4289 56.9915 46.6727 57.1702 46.8533C57.3489 47.034 57.5917 47.1368 57.8458 47.1395H58.3589V49.1921H57.8458C57.5917 49.1948 57.3489 49.2976 57.1702 49.4782C56.9915 49.6588 56.8912 49.9026 56.8913 50.1567C56.8912 50.4108 56.9915 50.6549 57.1702 50.8355C57.3489 51.0161 57.5917 51.1189 57.8458 51.1216H58.3589V53.1742H57.8458C57.5926 53.1742 57.3498 53.2746 57.1708 53.4536C56.9918 53.6326 56.8913 53.8755 56.8913 54.1286C56.8912 54.3827 56.9915 54.6265 57.1702 54.8071C57.3489 54.9878 57.5917 55.0906 57.8458 55.0933H58.3589V57.423ZM37.8329 56.3967H57.3326V56.0068C56.9106 55.8936 56.5378 55.6439 56.2723 55.2967C56.0069 54.9496 55.8636 54.5245 55.865 54.0875C55.8654 53.651 56.0093 53.2266 56.2744 52.8798C56.5396 52.5331 56.9114 52.2832 57.3326 52.1685V52.0555C56.9114 51.9407 56.5396 51.6907 56.2744 51.3439C56.0093 50.9971 55.8654 50.5727 55.865 50.1362C55.8654 49.6996 56.0093 49.2755 56.2744 48.9287C56.5396 48.582 56.9114 48.3319 57.3326 48.2171V48.1041C56.9148 47.98 56.5474 47.7261 56.2835 47.3793C56.0197 47.0324 55.8731 46.6106 55.865 46.1748C55.8654 45.7383 56.0093 45.3139 56.2744 44.9671C56.5396 44.6203 56.9114 44.3703 57.3326 44.2555V43.8759H37.8329V56.3967Z" fill="#333333"/>
<path d="M42.3999 55.7005C42.2638 55.7005 42.1333 55.6464 42.0371 55.5502C41.9408 55.454 41.8867 55.3235 41.8867 55.1874V53.771C41.8867 53.6349 41.9408 53.5044 42.0371 53.4081C42.1333 53.3119 42.2638 53.2578 42.3999 53.2578C42.536 53.2578 42.6665 53.3119 42.7627 53.4081C42.859 53.5044 42.913 53.6349 42.913 53.771V55.1874C42.913 55.3235 42.859 55.454 42.7627 55.5502C42.6665 55.6464 42.536 55.7005 42.3999 55.7005Z" fill="#333333"/>
<path d="M42.3999 52.8253C42.2638 52.8253 42.1333 52.7712 42.0371 52.6749C41.9408 52.5787 41.8867 52.4482 41.8867 52.3121V50.896C41.8867 50.7599 41.9408 50.6291 42.0371 50.5329C42.1333 50.4367 42.2638 50.3828 42.3999 50.3828C42.536 50.3828 42.6665 50.4367 42.7627 50.5329C42.859 50.6291 42.913 50.7599 42.913 50.896V52.3121C42.913 52.4482 42.859 52.5787 42.7627 52.6749C42.6665 52.7712 42.536 52.8253 42.3999 52.8253Z" fill="#333333"/>
<path d="M42.3999 49.9112C42.2638 49.9112 42.1333 49.8574 42.0371 49.7611C41.9408 49.6649 41.8867 49.5342 41.8867 49.3981V47.9819C41.8867 47.8458 41.9408 47.7153 42.0371 47.6191C42.1333 47.5229 42.2638 47.4688 42.3999 47.4688C42.536 47.4688 42.6665 47.5229 42.7627 47.6191C42.859 47.7153 42.913 47.8458 42.913 47.9819V49.3981C42.913 49.5342 42.859 49.6649 42.7627 49.7611C42.6665 49.8574 42.536 49.9112 42.3999 49.9112Z" fill="#333333"/>
<path d="M42.3999 47.0169C42.2638 47.0169 42.1333 46.9628 42.0371 46.8666C41.9408 46.7704 41.8867 46.6399 41.8867 46.5038V45.0874C41.8867 44.9513 41.9408 44.8208 42.0371 44.7246C42.1333 44.6283 42.2638 44.5742 42.3999 44.5742C42.536 44.5742 42.6665 44.6283 42.7627 44.7246C42.859 44.8208 42.913 44.9513 42.913 45.0874V46.5038C42.913 46.6399 42.859 46.7704 42.7627 46.8666C42.6665 46.9628 42.536 47.0169 42.3999 47.0169Z" fill="#333333"/>
</g>
<defs>
<clipPath id="clip0_1087_175280">
<rect width="48" height="44.2643" fill="white" transform="translate(26 28)"/>
</clipPath>
</defs>
</svg>
