<svg width="100" height="100" viewBox="0 0 100 100" fill="none" xmlns="http://www.w3.org/2000/svg">
<circle cx="50" cy="50" r="50" fill="#F2F6FB"/>
<g clip-path="url(#clip0_1087_175275)">
<path d="M58.5321 31.0762H32.0762V68.9339H58.5321V31.0762Z" fill="white"/>
<path d="M55.8864 60.1324L53.7793 57.2761L64.2797 47.0449L66.6327 49.2457L55.8864 60.1324Z" fill="#235AB0"/>
<path d="M66.8911 44.2578L65.5332 45.5806L67.8042 47.9687L69.3728 46.5171L66.8911 44.2578Z" fill="#235AB0"/>
<path d="M52.8079 61.2086C52.6684 61.2061 52.5349 61.152 52.4333 61.0565C52.3698 60.9956 52.3227 60.9197 52.2961 60.8359C52.2695 60.7521 52.2644 60.6627 52.2811 60.5764L52.8781 57.4978C52.8999 57.3912 52.9529 57.2934 53.0303 57.2169L63.8702 46.3769C63.9706 46.2795 64.1049 46.2248 64.2448 46.2246V46.2246C64.3847 46.2248 64.519 46.2795 64.6194 46.3769L67.1011 48.8585C67.2019 48.9595 67.2585 49.0962 67.2585 49.2389C67.2585 49.3816 67.2019 49.5186 67.1011 49.6196L56.2729 60.4595C56.1953 60.5332 56.0975 60.582 55.9919 60.5998L52.9132 61.1969L52.8079 61.2086ZM53.9082 57.8256L53.4868 59.9559L55.6291 59.5464L65.9656 49.2097L64.2448 47.489L53.9082 57.8256Z" fill="#333333"/>
<path d="M67.9688 48.5903C67.8234 48.5888 67.6845 48.53 67.5825 48.4265L65.1125 45.9447C65.0117 45.8437 64.9551 45.7069 64.9551 45.5643C64.9551 45.4216 65.0117 45.2848 65.1125 45.1839L66.5758 43.7206C66.6795 43.6252 66.8153 43.5723 66.9562 43.5723C67.0971 43.5723 67.2329 43.6252 67.3367 43.7206L69.8184 46.2022C69.9192 46.3031 69.9758 46.4399 69.9758 46.5825C69.9758 46.7252 69.9192 46.8623 69.8184 46.9632L68.3434 48.4265C68.2959 48.4785 68.238 48.5197 68.1735 48.548C68.1089 48.5762 68.0392 48.5907 67.9688 48.5903ZM66.248 45.57L67.9688 47.291L68.6712 46.5768L66.9504 44.8561L66.248 45.57Z" fill="#333333"/>
<path d="M61.0154 53.0139C60.87 53.0125 60.7311 52.9537 60.6291 52.8502C60.5795 52.8012 60.5402 52.7427 60.5133 52.6784C60.4865 52.6141 60.4727 52.5452 60.4727 52.4755C60.4727 52.4058 60.4865 52.3369 60.5133 52.2726C60.5402 52.2083 60.5795 52.1498 60.6291 52.1008L65.1125 47.6173C65.1615 47.5677 65.2199 47.5284 65.2842 47.5015C65.3485 47.4747 65.4175 47.4609 65.4871 47.4609C65.5568 47.4609 65.6258 47.4747 65.6901 47.5015C65.7544 47.5284 65.8127 47.5677 65.8617 47.6173C65.9625 47.7182 66.0191 47.8553 66.0191 47.9979C66.0191 48.1406 65.9625 48.2774 65.8617 48.3783L61.39 52.8502C61.2908 52.9509 61.1566 53.0095 61.0154 53.0139V53.0139Z" fill="#333333"/>
<path d="M55.8868 60.6576C55.8173 60.6588 55.7483 60.646 55.6839 60.6199C55.6195 60.5937 55.5611 60.5546 55.5122 60.5053L53.0304 58.0237C52.9297 57.9228 52.873 57.786 52.873 57.6433C52.873 57.5007 52.9297 57.3636 53.0304 57.2627C53.1314 57.1619 53.2682 57.1055 53.4109 57.1055C53.5536 57.1055 53.6904 57.1619 53.7913 57.2627L56.273 59.7445C56.3685 59.8482 56.4214 59.984 56.4214 60.1249C56.4214 60.2658 56.3685 60.4016 56.273 60.5053C56.2219 60.555 56.1615 60.5941 56.0952 60.6202C56.0288 60.6463 55.958 60.6591 55.8868 60.6576V60.6576Z" fill="#333333"/>
<path d="M59.0597 69.9882H31.5385C31.3977 69.9882 31.2625 69.9332 31.1618 69.8347C31.0611 69.7363 31.0031 69.6022 31 69.4615V30.5267C31.0031 30.3859 31.0611 30.2519 31.1618 30.1535C31.2625 30.055 31.3977 30 31.5385 30H59.0597C59.2005 30 59.3357 30.055 59.4364 30.1535C59.5371 30.2519 59.5951 30.3859 59.5982 30.5267V48.9874C59.5952 49.1293 59.5375 49.2643 59.4372 49.3646C59.3368 49.465 59.2016 49.5228 59.0597 49.5258C58.9178 49.5228 58.7826 49.465 58.6822 49.3646C58.5819 49.2643 58.5242 49.1293 58.5212 48.9874V31.0652H32.077V68.923H58.5212V60.272C58.5242 60.1301 58.5819 59.9948 58.6822 59.8945C58.7826 59.7941 58.9178 59.7366 59.0597 59.7336C59.2016 59.7366 59.3368 59.7941 59.4372 59.8945C59.5375 59.9948 59.5952 60.1301 59.5982 60.272V69.4615C59.5951 69.6022 59.5371 69.7363 59.4364 69.8347C59.3357 69.9332 59.2005 69.9882 59.0597 69.9882V69.9882Z" fill="#333333"/>
<path d="M40.4239 37.3874H35.5541C35.4133 37.3844 35.2794 37.3263 35.1809 37.2257C35.0824 37.125 35.0273 36.9898 35.0273 36.849C35.0273 36.7082 35.0824 36.573 35.1809 36.4723C35.2794 36.3717 35.4133 36.3136 35.5541 36.3105H40.4239C40.5667 36.3105 40.7037 36.3673 40.8047 36.4683C40.9056 36.5693 40.9624 36.7062 40.9624 36.849C40.9624 36.9918 40.9056 37.129 40.8047 37.23C40.7037 37.3309 40.5667 37.3874 40.4239 37.3874V37.3874Z" fill="#333333"/>
<path d="M54.7874 47.0437H35.601C35.4602 47.0406 35.3262 46.9826 35.2278 46.8819C35.1293 46.7813 35.0742 46.646 35.0742 46.5052C35.0742 46.3644 35.1293 46.2292 35.2278 46.1286C35.3262 46.0279 35.4602 45.9699 35.601 45.9668H54.7874C54.9302 45.9668 55.0672 46.0236 55.1682 46.1246C55.2692 46.2255 55.3259 46.3624 55.3259 46.5052C55.3259 46.6481 55.2692 46.7852 55.1682 46.8862C55.0672 46.9872 54.9302 47.0437 54.7874 47.0437Z" fill="#333333"/>
<path d="M54.7876 51.8446H35.6011C35.4614 51.8446 35.3274 51.789 35.2286 51.6903C35.1299 51.5915 35.0743 51.4576 35.0743 51.3179C35.0728 51.2477 35.0853 51.1779 35.111 51.1127C35.1368 51.0474 35.1754 50.9879 35.2244 50.9378C35.2735 50.8876 35.3321 50.8478 35.3968 50.8206C35.4615 50.7934 35.531 50.7794 35.6011 50.7794H54.7876C54.8587 50.7778 54.9294 50.7907 54.9955 50.8172C55.0616 50.8437 55.1216 50.8831 55.1719 50.9335C55.2222 50.9838 55.2618 51.0438 55.2883 51.1098C55.3148 51.1759 55.3276 51.2467 55.326 51.3179C55.3261 51.388 55.312 51.4575 55.2848 51.5222C55.2576 51.5869 55.2178 51.6455 55.1676 51.6945C55.1175 51.7436 55.058 51.7822 54.9927 51.808C54.9275 51.8338 54.8577 51.8461 54.7876 51.8446V51.8446Z" fill="#333333"/>
<path d="M51.8259 56.7019H35.6011C35.531 56.7019 35.4615 56.6879 35.3968 56.6607C35.3321 56.6335 35.2735 56.5937 35.2244 56.5435C35.1754 56.4934 35.1368 56.4339 35.111 56.3686C35.0853 56.3034 35.0728 56.2336 35.0743 56.1634C35.0743 56.0226 35.1294 55.8874 35.2279 55.7868C35.3264 55.6861 35.4604 55.6281 35.6011 55.625H51.8259C51.9687 55.625 52.1057 55.6818 52.2067 55.7828C52.3076 55.8837 52.3644 56.0206 52.3644 56.1634C52.366 56.2346 52.3531 56.3054 52.3267 56.3715C52.3002 56.4376 52.2606 56.4975 52.2102 56.5478C52.1599 56.5982 52.0999 56.6377 52.0338 56.6642C51.9678 56.6906 51.8971 56.7035 51.8259 56.7019Z" fill="#333333"/>
<path d="M54.9967 63.6787H50.6303C50.4884 63.6757 50.3532 63.6179 50.2528 63.5175C50.1525 63.4172 50.0948 63.2819 50.0918 63.14C50.0948 62.9981 50.1525 62.8631 50.2528 62.7628C50.3532 62.6624 50.4884 62.6046 50.6303 62.6016H54.9967C55.1386 62.6046 55.2738 62.6624 55.3742 62.7628C55.4745 62.8631 55.5322 62.9981 55.5352 63.14C55.5322 63.2819 55.4745 63.4172 55.3742 63.5175C55.2738 63.6179 55.1386 63.6757 54.9967 63.6787V63.6787Z" fill="#333333"/>
</g>
<defs>
<clipPath id="clip0_1087_175275">
<rect width="38.9699" height="40" fill="white" transform="translate(31 30)"/>
</clipPath>
</defs>
</svg>
