<svg width="100" height="100" viewBox="0 0 100 100" fill="none" xmlns="http://www.w3.org/2000/svg">
<circle cx="50" cy="50" r="50" fill="#F2F6FB"/>
<g clip-path="url(#clip0_1075_171957)">
<path d="M44.4316 37.4321L39.8197 33.1597L41.838 31.113L44.0921 30.5L46.3651 31.594L47.0347 32.5089L49.9302 31.0847L52.0334 31.1413L53.9385 32.6787L55.9946 30.632H58.6354L61.1158 33.0182L56.8151 37.4321L65.2751 51.0511L67.5292 57.1155L67.001 62.3216L64.6526 66.3488L60.4933 69.1217H41.6116L36.4244 66.6789L33.8684 62.6328L33.4629 57.5682L34.9719 52.1828L44.4316 37.4321Z" fill="white"/>
<path d="M57.4274 69.8104H43.4877C40.7387 69.8158 38.0979 68.7397 36.1356 66.8145C34.1733 64.8893 33.0471 62.2694 33 59.5208V59.417C33.0332 55.6701 34.2698 52.033 36.5274 49.0424L43.997 37.1967C44.0419 37.1246 44.1044 37.0651 44.1787 37.0238C44.253 36.9825 44.3365 36.9609 44.4215 36.9609H56.7389C56.8235 36.9626 56.9064 36.985 56.9804 37.0261C57.0544 37.0672 57.1172 37.1258 57.1633 37.1967L64.5009 49.0707C66.7478 52.0652 67.9743 55.7017 68 59.4453C67.9373 61.0396 67.5354 62.6023 66.8211 64.0291C65.9574 65.7785 64.6178 67.249 62.9562 68.2716C61.2947 69.2942 59.3784 69.8275 57.4274 69.8104ZM44.7044 37.9605L37.3573 49.6084C35.2194 52.4349 34.0457 55.8732 34.0092 59.417V59.5114C34.044 61.9996 35.0607 64.3733 36.8379 66.1152C38.6151 67.8571 41.0087 68.826 43.4972 68.8109H57.4368C59.2021 68.8256 60.9356 68.341 62.4374 67.4132C63.9392 66.4854 65.1483 65.1521 65.9251 63.5669C66.5795 62.2773 66.9494 60.8619 67.0097 59.417C66.9792 55.8854 65.8155 52.4571 63.6898 49.6367L56.4654 37.9605H44.7044Z" fill="#333333"/>
<path d="M44.421 37.9589C44.2911 37.9571 44.1665 37.9068 44.072 37.8175L39.5261 33.4037C39.479 33.3585 39.4414 33.3043 39.4154 33.2444C39.3895 33.1844 39.3758 33.1199 39.3752 33.0546C39.3734 32.9884 39.3849 32.9226 39.4093 32.861C39.4336 32.7994 39.4701 32.7434 39.5167 32.6964L41.1483 31.0553C41.8323 30.3745 42.758 29.9922 43.7231 29.9922C44.6881 29.9922 45.6139 30.3745 46.2979 31.0553L47.241 31.9984L47.4673 31.7721C48.288 30.952 49.4007 30.4912 50.5609 30.4912C51.721 30.4912 52.8337 30.952 53.6544 31.7721L53.8807 31.9984L54.8239 31.0553C55.522 30.4056 56.4403 30.0445 57.3939 30.0445C58.3476 30.0445 59.2659 30.4056 59.964 31.0553L61.605 32.6964C61.6516 32.7434 61.6881 32.7994 61.7125 32.861C61.7368 32.9226 61.7484 32.9884 61.7465 33.0546C61.7459 33.1199 61.7322 33.1844 61.7063 33.2444C61.6803 33.3043 61.6427 33.3585 61.5956 33.4037L57.0402 37.8175C56.9946 37.8637 56.9403 37.9005 56.8804 37.9255C56.8205 37.9506 56.7562 37.9633 56.6913 37.9633C56.6264 37.9633 56.5621 37.9506 56.5022 37.9255C56.4423 37.9005 56.3879 37.8637 56.3423 37.8175C56.2958 37.7711 56.259 37.7159 56.2338 37.6552C56.2086 37.5945 56.1957 37.5296 56.1957 37.4639C56.1957 37.3982 56.2086 37.3332 56.2338 37.2725C56.259 37.2118 56.2958 37.1566 56.3423 37.1102L60.5299 33.0546L59.2566 31.7721C58.7503 31.2834 58.074 31.0102 57.3703 31.0102C56.6666 31.0102 55.9904 31.2834 55.4841 31.7721L54.1637 33.0924C54.1185 33.1395 54.0643 33.1772 54.0044 33.2032C53.9445 33.2291 53.88 33.2426 53.8147 33.2432C53.6802 33.2413 53.5517 33.1873 53.4563 33.0924L52.881 32.5172C52.5681 32.203 52.1963 31.9535 51.7868 31.7834C51.3773 31.6132 50.9383 31.5257 50.4948 31.5257C50.0514 31.5257 49.6123 31.6132 49.2029 31.7834C48.7934 31.9535 48.4215 32.203 48.1087 32.5172L47.5239 33.0924C47.4306 33.1834 47.3054 33.2345 47.175 33.2345C47.0446 33.2345 46.9194 33.1834 46.826 33.0924L45.5056 31.7721C45.2591 31.5223 44.9654 31.324 44.6416 31.1886C44.3178 31.0532 43.9703 30.9835 43.6193 30.9835C43.2684 30.9835 42.9209 31.0532 42.5971 31.1886C42.2733 31.324 41.9796 31.5223 41.733 31.7721L40.4598 33.0546L44.6474 37.1102C44.6938 37.1566 44.7307 37.2118 44.7559 37.2725C44.781 37.3332 44.794 37.3982 44.794 37.4639C44.794 37.5296 44.781 37.5945 44.7559 37.6552C44.7307 37.7159 44.6938 37.7711 44.6474 37.8175C44.5855 37.8836 44.5075 37.9323 44.421 37.9589Z" fill="#333333"/>
<path d="M50.5794 59.9742C49.6397 59.9717 48.7391 59.5972 48.0746 58.9327C47.4101 58.2682 47.0357 57.3677 47.0332 56.4279C47.0332 56.2954 47.0859 56.1682 47.1796 56.0745C47.2734 55.9808 47.4005 55.9281 47.5331 55.9281C47.6656 55.9281 47.7928 55.9808 47.8865 56.0745C47.9803 56.1682 48.0329 56.2954 48.0329 56.4279C48.0329 57.1033 48.3012 57.751 48.7788 58.2286C49.2563 58.7061 49.904 58.9744 50.5794 58.9744C51.2548 58.9744 51.9025 58.7061 52.3801 58.2286C52.8576 57.751 53.1259 57.1033 53.1259 56.4279C53.1259 55.2113 52.3714 54.4851 50.4191 53.8532C49.5891 53.5797 47.0332 52.7497 47.0332 50.3258C47.0357 49.387 47.4104 48.4873 48.0752 47.8243C48.74 47.1613 49.6405 46.7891 50.5794 46.7891C51.5183 46.7891 52.4189 47.1613 53.0836 47.8243C53.7484 48.4873 54.1231 49.387 54.1256 50.3258C54.1256 50.4584 54.073 50.5856 53.9792 50.6793C53.8855 50.773 53.7583 50.8257 53.6258 50.8257C53.4932 50.8257 53.3661 50.773 53.2723 50.6793C53.1786 50.5856 53.1259 50.4584 53.1259 50.3258C53.1234 49.6512 52.8543 49.005 52.3773 48.528C51.9003 48.051 51.254 47.7819 50.5794 47.7794C49.9048 47.7819 49.2585 48.051 48.7815 48.528C48.3045 49.005 48.0354 49.6512 48.0329 50.3258C48.0329 51.4859 48.8912 52.3064 50.7303 52.9006C52.4091 53.4476 54.1256 54.2964 54.1256 56.4279C54.1231 57.3677 53.7487 58.2682 53.0842 58.9327C52.4197 59.5972 51.5192 59.9717 50.5794 59.9742Z" fill="#333333"/>
<path d="M50.5799 47.8078C50.4474 47.8078 50.3202 47.7551 50.2265 47.6614C50.1327 47.5677 50.0801 47.4405 50.0801 47.3079V45.5819C50.0801 45.4494 50.1327 45.3222 50.2265 45.2285C50.3202 45.1347 50.4474 45.082 50.5799 45.082C50.7125 45.082 50.8397 45.1347 50.9334 45.2285C51.0271 45.3222 51.0798 45.4494 51.0798 45.5819V47.3079C51.0798 47.4405 51.0271 47.5677 50.9334 47.6614C50.8397 47.7551 50.7125 47.8078 50.5799 47.8078Z" fill="#333333"/>
<path d="M50.5799 61.6887C50.4474 61.6887 50.3202 61.636 50.2265 61.5423C50.1327 61.4485 50.0801 61.3214 50.0801 61.1888V59.5194C50.0801 59.3869 50.1327 59.2597 50.2265 59.166C50.3202 59.0722 50.4474 59.0195 50.5799 59.0195C50.7125 59.0195 50.8397 59.0722 50.9334 59.166C51.0271 59.2597 51.0798 59.3869 51.0798 59.5194V61.236C51.068 61.3602 51.0102 61.4755 50.9177 61.5593C50.8252 61.6431 50.7047 61.6893 50.5799 61.6887Z" fill="#333333"/>
<path d="M61.6815 51.1343L61.6061 51.0305L57.8335 45.0039C58.7767 48.9557 60.5026 52.8696 60.5498 56.944C60.59 60.1303 59.5973 63.2438 57.7203 65.8189C57.5977 65.9792 57.4563 66.1396 57.3242 66.2999H57.4468C58.7323 66.317 59.9967 65.9725 61.0957 65.3054C62.1947 64.6383 63.084 63.6756 63.6621 62.5273C64.1489 61.5666 64.4376 60.5178 64.511 59.4432C64.4825 56.4419 63.4906 53.5293 61.6815 51.1343Z" fill="#235AB0"/>
</g>
<defs>
<clipPath id="clip0_1075_171957">
<rect width="35" height="39.8195" fill="white" transform="translate(33 30)"/>
</clipPath>
</defs>
</svg>
