<svg width="100" height="100" viewBox="0 0 100 100" fill="none" xmlns="http://www.w3.org/2000/svg">
<circle cx="50" cy="50" r="50" fill="#F2F6FB"/>
<g clip-path="url(#clip0_1787_394037)">
<path d="M67.34 25.2002H32.5V74.8502H67.34V25.2002Z" fill="white"/>
<path d="M67.11 75.5601H32.72C32.529 75.5601 32.3459 75.4841 32.2109 75.3491C32.0759 75.2141 32 75.031 32 74.8401V25.72C32 25.529 32.0759 25.346 32.2109 25.2109C32.3459 25.0759 32.529 25 32.72 25H67.11C67.3019 25 67.4861 25.0755 67.6227 25.2102C67.7593 25.345 67.8374 25.5281 67.84 25.72V74.8401C67.8374 75.032 67.7593 75.2151 67.6227 75.3499C67.4861 75.4846 67.3019 75.5601 67.11 75.5601ZM33 74.5601H66.84V26.01H33V74.5601Z" fill="#333333"/>
<path d="M61.33 62.6001L65.53 65.3501L75.87 44.7301L71.24 42.6401L61.33 62.6001Z" fill="#235AB0"/>
<path d="M73.59 38.6099L72.26 41.1199L76.6 43.2699L78.05 40.6099L73.59 38.6099Z" fill="#235AB0"/>
<path d="M61.1 68.46L60.6 62.96L71.27 41.96L76.6 44.6699L65.93 65.6699L61.1 68.46ZM61.62 63.1499L61.95 66.8101L65.17 64.95L75.26 45.0701L71.7 43.27L61.62 63.1499Z" fill="#333333"/>
<path d="M76.92 44.0098L71.59 41.2998L73.35 37.8198L78.69 40.5298L76.92 44.0098ZM72.92 40.8599L76.47 42.6697L77.33 40.9697L73.78 39.1697L72.92 40.8599Z" fill="#333333"/>
<path d="M61.3162 62.6633L60.864 63.5552L65.3055 65.8075L65.7578 64.9156L61.3162 62.6633Z" fill="#333333"/>
<path d="M73.2682 43.4762L68.7149 52.4355L69.6064 52.8886L74.1596 43.9292L73.2682 43.4762Z" fill="#333333"/>
<path d="M46.85 31.9502H37.41V32.9502H46.85V31.9502Z" fill="#333333"/>
<path d="M62.26 68.8501H52.82V69.8501H62.26V68.8501Z" fill="#333333"/>
<path d="M62.34 39.3799H37.49V40.3799H62.34V39.3799Z" fill="#333333"/>
<path d="M62.34 46.7998H37.49V47.7998H62.34V46.7998Z" fill="#333333"/>
<path d="M62.34 54.23H37.49V55.23H62.34V54.23Z" fill="#333333"/>
</g>
<defs>
<clipPath id="clip0_1787_394037">
<rect width="46.69" height="50.56" fill="white" transform="translate(32 25)"/>
</clipPath>
</defs>
</svg>
