<svg width="100" height="100" viewBox="0 0 100 100" fill="none" xmlns="http://www.w3.org/2000/svg">
<circle cx="50" cy="50" r="50" fill="#F2F6FB"/>
<g clip-path="url(#clip0_1032_171009)">
<path d="M49.5502 78.9304C60.259 78.9304 68.9402 70.2492 68.9402 59.5404C68.9402 48.8316 60.259 40.1504 49.5502 40.1504C38.8414 40.1504 30.1602 48.8316 30.1602 59.5404C30.1602 70.2492 38.8414 78.9304 49.5502 78.9304Z" fill="white"/>
<path d="M68.5808 60.0601H30.5808C30.4402 60.0601 30.3054 60.0042 30.206 59.9048C30.1066 59.8054 30.0508 59.6706 30.0508 59.53C30.0508 59.3895 30.1066 59.2547 30.206 59.1553C30.3054 59.0559 30.4402 59 30.5808 59H68.6308C68.7004 59 68.7693 59.0139 68.8336 59.0405C68.8979 59.0672 68.9563 59.1061 69.0055 59.1553C69.0548 59.2045 69.0938 59.2628 69.1204 59.3271C69.1471 59.3915 69.1608 59.4604 69.1608 59.53C69.1608 59.5996 69.1471 59.6686 69.1204 59.7329C69.0938 59.7972 69.0548 59.8556 69.0055 59.9048C68.9563 59.954 68.8979 59.9931 68.8336 60.0198C68.7693 60.0464 68.7004 60.0601 68.6308 60.0601H68.5808Z" fill="#333333"/>
<path d="M49.5612 60.0796C49.4207 60.0796 49.2859 60.0237 49.1865 59.9243C49.0871 59.8249 49.0312 59.6901 49.0312 59.5496V40.5496C49.0312 40.409 49.0871 40.2742 49.1865 40.1748C49.2859 40.0754 49.4207 40.0195 49.5612 40.0195C49.7018 40.0195 49.8366 40.0754 49.936 40.1748C50.0354 40.2742 50.0912 40.409 50.0912 40.5496V59.5496C50.0912 59.6901 50.0354 59.8249 49.936 59.9243C49.8366 60.0237 49.7018 60.0796 49.5612 60.0796Z" fill="#333333"/>
<path d="M68.5911 60.1104C68.4505 60.1104 68.3157 60.0545 68.2163 59.9551C68.1169 59.8557 68.0611 59.7209 68.0611 59.5803C68.0611 54.6738 66.112 49.9682 62.6426 46.4988C59.1731 43.0294 54.4676 41.0803 49.5611 41.0803C44.6546 41.0803 39.949 43.0294 36.4796 46.4988C33.0102 49.9682 31.0611 54.6738 31.0611 59.5803C31.0611 59.7209 31.0053 59.8557 30.9059 59.9551C30.8065 60.0545 30.6717 60.1104 30.5311 60.1104C30.3905 60.1104 30.2557 60.0545 30.1563 59.9551C30.0569 59.8557 30.0011 59.7209 30.0011 59.5803C29.9422 56.9751 30.4044 54.3843 31.3607 51.9602C32.3169 49.5361 33.7479 47.3277 35.5696 45.4644C37.3913 43.601 39.5669 42.1204 41.9688 41.1096C44.3706 40.0988 46.9502 39.5781 49.5561 39.5781C52.162 39.5781 54.7416 40.0988 57.1434 41.1096C59.5453 42.1204 61.7209 43.601 63.5426 45.4644C65.3643 47.3277 66.7952 49.5361 67.7515 51.9602C68.7078 54.3843 69.17 56.9751 69.1111 59.5803C69.1124 59.6494 69.0999 59.7182 69.0744 59.7825C69.0489 59.8467 69.0108 59.9052 68.9624 59.9546C68.9139 60.0039 68.8562 60.0431 68.7924 60.0698C68.7287 60.0966 68.6602 60.1104 68.5911 60.1104Z" fill="#333333"/>
<path d="M39.3581 60.06C39.2176 60.06 39.0828 60.0041 38.9834 59.9047C38.884 59.8053 38.8281 59.6705 38.8281 59.53C38.8281 50.65 42.3681 45.5299 45.3281 42.7599C45.3793 42.7127 45.4394 42.6761 45.5048 42.652C45.5702 42.628 45.6397 42.6168 45.7093 42.6196C45.779 42.6223 45.8474 42.6389 45.9107 42.6681C45.974 42.6974 46.0308 42.7388 46.0781 42.79C46.1254 42.8412 46.1621 42.9013 46.1862 42.9667C46.2103 43.0321 46.2212 43.1017 46.2185 43.1713C46.2157 43.241 46.1992 43.3092 46.17 43.3725C46.1407 43.4358 46.0993 43.4927 46.0481 43.54C43.2381 46.14 39.8881 51.03 39.8881 59.54C39.8855 59.6788 39.8285 59.8111 39.7294 59.9084C39.6303 60.0056 39.497 60.06 39.3581 60.06Z" fill="#333333"/>
<path d="M59.7592 60.0603C59.6186 60.0603 59.4838 60.0044 59.3844 59.905C59.285 59.8056 59.2292 59.6708 59.2292 59.5303C59.2292 51.0303 55.8792 46.1403 53.0692 43.5303C53.0189 43.4826 52.9789 43.4252 52.9516 43.3616C52.9243 43.298 52.9102 43.2296 52.9102 43.1604C52.9102 43.0912 52.9243 43.0226 52.9516 42.959C52.9789 42.8954 53.0189 42.8379 53.0692 42.7903C53.1184 42.741 53.1768 42.702 53.2412 42.6753C53.3055 42.6486 53.3745 42.6348 53.4442 42.6348C53.5138 42.6348 53.5828 42.6486 53.6471 42.6753C53.7115 42.702 53.7699 42.741 53.8192 42.7903C56.8192 45.5403 60.3192 50.6803 60.3192 59.5603C60.3153 59.6299 60.2978 59.6981 60.2676 59.761C60.2373 59.8238 60.195 59.8801 60.1429 59.9265C60.0909 59.973 60.0302 60.0088 59.9644 60.0317C59.8985 60.0547 59.8288 60.0644 59.7592 60.0603Z" fill="#333333"/>
<path d="M49.5592 51.9002C38.8492 51.9002 35.9692 46.3301 35.8592 46.0901C35.827 46.028 35.8076 45.96 35.8023 45.8902C35.797 45.8204 35.8058 45.7504 35.8282 45.6841C35.8506 45.6178 35.8861 45.5567 35.9327 45.5045C35.9793 45.4522 36.0359 45.41 36.0992 45.3802C36.2242 45.321 36.3673 45.3129 36.4981 45.3577C36.6288 45.4026 36.7369 45.4968 36.7992 45.6202C36.7992 45.6702 39.5492 50.8401 49.5592 50.8401C49.6998 50.8401 49.8346 50.896 49.934 50.9954C50.0334 51.0948 50.0892 51.2296 50.0892 51.3702C50.0892 51.5107 50.0334 51.6455 49.934 51.7449C49.8346 51.8443 49.6998 51.9002 49.5592 51.9002Z" fill="#333333"/>
<path d="M49.5612 51.8996C49.4207 51.8996 49.2859 51.8437 49.1865 51.7443C49.0871 51.6449 49.0312 51.5101 49.0312 51.3695C49.0312 51.229 49.0871 51.0942 49.1865 50.9948C49.2859 50.8954 49.4207 50.8395 49.5612 50.8395C59.6212 50.8395 62.2913 45.6795 62.3213 45.6195C62.3459 45.5482 62.3855 45.4829 62.4374 45.4281C62.4892 45.3734 62.5522 45.3304 62.6221 45.3019C62.6919 45.2734 62.767 45.2602 62.8424 45.2631C62.9178 45.266 62.9917 45.285 63.0592 45.3187C63.1266 45.3525 63.1861 45.4001 63.2337 45.4586C63.2812 45.5172 63.3157 45.5854 63.3348 45.6583C63.354 45.7313 63.3573 45.8074 63.3446 45.8817C63.3319 45.9561 63.3035 46.027 63.2612 46.0895C63.1512 46.3295 60.2712 51.8996 49.5612 51.8996Z" fill="#333333"/>
<path d="M49.5612 79.1001C49.4207 79.1001 49.2859 79.0442 49.1865 78.9448C49.0871 78.8454 49.0312 78.7106 49.0312 78.5701V59.5701C49.0312 59.4295 49.0871 59.2947 49.1865 59.1953C49.2859 59.0959 49.4207 59.04 49.5612 59.04C49.7018 59.04 49.8366 59.0959 49.936 59.1953C50.0354 59.2947 50.0912 59.4295 50.0912 59.5701V78.5701C50.0912 78.7106 50.0354 78.8454 49.936 78.9448C49.8366 79.0442 49.7018 79.1001 49.5612 79.1001Z" fill="#333333"/>
<path d="M49.56 79.1099C44.38 79.102 39.414 77.0428 35.7483 73.3828C32.0827 69.7228 30.0159 64.7598 30 59.5798C30 59.5102 30.0137 59.4413 30.0403 59.377C30.067 59.3127 30.106 59.2543 30.1552 59.2051C30.2044 59.1559 30.2629 59.1167 30.3272 59.0901C30.3915 59.0635 30.4604 59.0498 30.53 59.0498C30.5996 59.0498 30.6685 59.0635 30.7328 59.0901C30.7971 59.1167 30.8555 59.1559 30.9048 59.2051C30.954 59.2543 30.993 59.3127 31.0197 59.377C31.0463 59.4413 31.06 59.5102 31.06 59.5798C31.06 64.4863 33.0091 69.192 36.4785 72.6614C39.9479 76.1308 44.6535 78.0798 49.56 78.0798C54.4665 78.0798 59.172 76.1308 62.6415 72.6614C66.1109 69.192 68.06 64.4863 68.06 59.5798C68.0319 59.4999 68.0234 59.4145 68.0351 59.3306C68.0469 59.2467 68.0786 59.1668 68.1275 59.0977C68.1765 59.0285 68.2413 58.9723 68.3166 58.9333C68.3918 58.8944 68.4753 58.874 68.56 58.874C68.6447 58.874 68.7282 58.8944 68.8034 58.9333C68.8787 58.9723 68.9435 59.0285 68.9925 59.0977C69.0414 59.1668 69.0731 59.2467 69.0849 59.3306C69.0966 59.4145 69.0881 59.4999 69.06 59.5798C69.0468 64.7503 66.9891 69.7056 63.3358 73.3645C59.6826 77.0234 54.7304 79.0888 49.56 79.1099Z" fill="#333333"/>
<path d="M54.0802 75.8298C54.0116 75.831 53.9434 75.8183 53.8799 75.7925C53.8163 75.7667 53.7586 75.7285 53.7102 75.6799C53.6609 75.6307 53.6218 75.5722 53.5951 75.5078C53.5684 75.4435 53.5547 75.3746 53.5547 75.3049C53.5547 75.2353 53.5684 75.1662 53.5951 75.1018C53.6218 75.0375 53.6609 74.9792 53.7102 74.9299C56.2702 72.3399 59.2702 67.5798 59.2702 59.5798C59.2702 59.4393 59.326 59.3045 59.4254 59.2051C59.5248 59.1057 59.6596 59.0498 59.8002 59.0498C59.9407 59.0498 60.0755 59.1057 60.1749 59.2051C60.2743 59.3045 60.3302 59.4393 60.3302 59.5798C60.3302 67.9498 57.1602 72.96 54.4902 75.7C54.4358 75.7508 54.3708 75.7888 54.2999 75.8113C54.2289 75.8338 54.1539 75.84 54.0802 75.8298Z" fill="#333333"/>
<path d="M45.0281 75.8196C44.9565 75.8189 44.8858 75.8034 44.8204 75.7742C44.755 75.7449 44.6963 75.7026 44.6481 75.6497C41.9981 72.9197 38.8281 67.9096 38.8281 59.5496C38.8281 59.409 38.884 59.2742 38.9834 59.1748C39.0828 59.0754 39.2176 59.0195 39.3581 59.0195C39.4987 59.0195 39.6335 59.0754 39.7329 59.1748C39.8323 59.2742 39.8881 59.409 39.8881 59.5496C39.8881 67.5496 42.8881 72.3197 45.4081 74.9197C45.4809 74.9944 45.5301 75.0887 45.5495 75.1912C45.5688 75.2936 45.5575 75.3998 45.5169 75.4958C45.4763 75.5919 45.4083 75.6738 45.3214 75.7314C45.2344 75.7891 45.1324 75.8197 45.0281 75.8196Z" fill="#333333"/>
<path d="M62.7912 73.7495C62.6938 73.749 62.5984 73.7218 62.5155 73.6707C62.4326 73.6195 62.3654 73.5463 62.3213 73.4595C62.3213 73.3995 59.5612 68.2395 49.5612 68.2395C49.4207 68.2395 49.2859 68.1839 49.1865 68.0845C49.0871 67.9851 49.0312 67.85 49.0312 67.7095C49.0312 67.5689 49.0871 67.4341 49.1865 67.3347C49.2859 67.2353 49.4207 67.1797 49.5612 67.1797C60.2712 67.1797 63.1512 72.7495 63.2612 72.9895C63.2935 73.0516 63.3129 73.1197 63.3182 73.1895C63.3235 73.2592 63.3147 73.3295 63.2923 73.3958C63.2699 73.462 63.2344 73.523 63.1878 73.5752C63.1412 73.6274 63.0846 73.6699 63.0212 73.6997C62.9487 73.7317 62.8705 73.7485 62.7912 73.7495Z" fill="#333333"/>
<path d="M36.331 73.7495C36.2474 73.7487 36.1652 73.7283 36.091 73.6897C36.0299 73.6589 35.9754 73.6163 35.9307 73.5645C35.886 73.5126 35.852 73.4525 35.8307 73.3875C35.8093 73.3224 35.801 73.2538 35.8062 73.1855C35.8114 73.1173 35.83 73.0505 35.861 72.9895C35.971 72.7495 38.861 67.1797 49.561 67.1797C49.7016 67.1797 49.8364 67.2353 49.9358 67.3347C50.0352 67.4341 50.091 67.5689 50.091 67.7095C50.091 67.85 50.0352 67.9851 49.9358 68.0845C49.8364 68.1839 49.7016 68.2395 49.561 68.2395C39.561 68.2395 36.831 73.4095 36.801 73.4595C36.7569 73.5463 36.6897 73.6195 36.6068 73.6707C36.5239 73.7218 36.4285 73.749 36.331 73.7495Z" fill="#333333"/>
<path d="M57.5791 30.2102C57.6175 29.1086 57.4338 28.0107 57.0387 26.9817C56.6437 25.9526 56.0455 25.0136 55.2798 24.2207C54.5141 23.4278 53.5966 22.7971 52.582 22.3665C51.5673 21.9358 50.4763 21.7139 49.3741 21.7139C48.2718 21.7139 47.1808 21.9358 46.1662 22.3665C45.1515 22.7971 44.234 23.4278 43.4683 24.2207C42.7026 25.0136 42.1044 25.9526 41.7094 26.9817C41.3144 28.0107 41.1306 29.1086 41.1691 30.2102C41.1691 36.6602 47.8491 42.6004 49.3691 43.8804C50.8991 42.5804 57.5791 36.6602 57.5791 30.2102ZM43.6791 29.8604C43.6771 28.7321 44.01 27.6286 44.6355 26.6897C45.2611 25.7508 46.1512 25.0188 47.1931 24.5862C48.2351 24.1535 49.382 24.0397 50.4886 24.2593C51.5952 24.4789 52.6118 25.0221 53.4096 25.8198C54.2073 26.6176 54.7504 27.6341 54.97 28.7407C55.1896 29.8473 55.0759 30.9942 54.6433 32.0361C54.2106 33.0781 53.4785 33.9682 52.5396 34.5938C51.6007 35.2193 50.4973 35.5523 49.3691 35.5503C47.8608 35.5476 46.4151 34.9474 45.3485 33.8809C44.282 32.8144 43.6817 31.3686 43.6791 29.8604Z" fill="#235AB0"/>
<path d="M40.2693 31.1897C40.2644 31.1599 40.2644 31.1294 40.2693 31.0996V31.1897Z" fill="#235AB0"/>
<path d="M49.3719 21C46.9318 21.0053 44.5933 21.9778 42.8688 23.7041C41.1443 25.4305 40.1745 27.7699 40.1719 30.21C40.1719 30.53 40.1719 30.8401 40.2319 31.1501L42.8819 24.1501L48.5719 21.49L53.0619 21.99L56.9419 25.7002L58.1519 29.5901L57.5819 33.75L55.0719 38.8901L49.3719 44.4202L44.7419 40.6501C46.0423 42.2085 47.4926 43.6353 49.0719 44.9102L49.3719 45.1401L49.6819 44.9102C50.0419 44.6302 58.5819 37.9102 58.5819 30.2002C58.5766 27.7601 57.6042 25.4215 55.8779 23.697C54.1515 21.9725 51.812 21.0026 49.3719 21Z" fill="#333333"/>
<path d="M44.7095 40.5803L40.2695 31.2402C40.5795 34.8402 42.6495 38.1603 44.7095 40.5803Z" fill="#333333"/>
<path d="M55.0702 38.9001L57.5802 33.76L58.1502 29.6001L56.9402 25.71L53.0602 22L48.5702 21.5L42.8802 24.1602L40.2302 31.1602C40.2253 31.19 40.2253 31.2202 40.2302 31.25L44.7002 40.6301L49.3302 44.4001L55.0702 38.9001ZM41.1702 30.21C41.1317 29.1084 41.3155 28.0105 41.7105 26.9814C42.1055 25.9524 42.7037 25.0134 43.4694 24.2205C44.2351 23.4276 45.1527 22.7969 46.1673 22.3662C47.1819 21.9355 48.2729 21.7136 49.3752 21.7136C50.4775 21.7136 51.5685 21.9355 52.5831 22.3662C53.5977 22.7969 54.5153 23.4276 55.281 24.2205C56.0467 25.0134 56.6449 25.9524 57.0399 26.9814C57.4349 28.0105 57.6187 29.1084 57.5802 30.21C57.5802 36.66 50.9002 42.6001 49.3702 43.8801C47.8502 42.5801 41.1702 36.66 41.1702 30.21Z" fill="#333333"/>
<path d="M55.0719 29.8605C55.0738 28.7327 54.7412 27.6297 54.1161 26.691C53.491 25.7524 52.6015 25.0202 51.5601 24.5873C50.5187 24.1543 49.3723 24.0399 48.266 24.2587C47.1596 24.4775 46.1431 25.0195 45.3449 25.8163C44.5468 26.613 44.0029 27.6288 43.7821 28.7347C43.5614 29.8407 43.6737 30.9873 44.1048 32.0294C44.5359 33.0715 45.2665 33.9625 46.2041 34.5892C47.1417 35.216 48.2441 35.5504 49.3719 35.5504C50.8819 35.5504 52.3302 34.9512 53.3988 33.8844C54.4675 32.8176 55.0692 31.3705 55.0719 29.8605ZM44.6819 29.8605C44.6799 28.93 44.9541 28.0199 45.4698 27.2455C45.9855 26.471 46.7194 25.8671 47.5786 25.5101C48.4378 25.1532 49.3837 25.0593 50.2963 25.2403C51.209 25.4214 52.0473 25.8691 52.7053 26.527C53.3632 27.1849 53.811 28.0233 53.992 28.9359C54.1731 29.8485 54.0791 30.7945 53.7222 31.6537C53.3652 32.5129 52.7612 33.2469 51.9868 33.7626C51.2124 34.2782 50.3023 34.5524 49.3719 34.5504C48.1288 34.5478 46.9374 34.0529 46.0585 33.1739C45.1795 32.295 44.6845 31.1035 44.6819 29.8605Z" fill="#333333"/>
</g>
<defs>
<clipPath id="clip0_1032_171009">
<rect width="39.11" height="58.1" fill="white" transform="translate(30 21)"/>
</clipPath>
</defs>
</svg>
