<svg width="90" height="90" viewBox="0 0 90 90" fill="none" xmlns="http://www.w3.org/2000/svg">
<circle cx="45" cy="45" r="45" fill="#FAFAFA"/>
<g clip-path="url(#clip0_1080_171882)">
<path d="M21.5605 21.71V36.84H44.9905V35.62L43.2605 34.31L43.9305 32.35L45.2105 31.86V30.97L42.9305 29.31L43.8405 28.02L45.0305 27.31L45.2105 26.51L42.9305 24.75L44.1505 23.19L45.2105 22.99V21.25L21.5605 21.71Z" fill="white"/>
<path d="M39.2198 64.2509L39.0098 46.5509L44.6798 43.9509L48.6198 45.9609L48.7198 36.4509L54.0098 32.8609L57.6398 34.8609L57.7798 24.9009L63.2598 21.7109L68.2898 25.0709L68.4498 54.1109L44.6298 67.7009L39.2198 64.2509Z" fill="white"/>
<path d="M48.6191 45.9594L48.7191 36.4494L54.0091 32.8594L59.3091 36.1094V58.8494L50.6191 64.4894L50.0991 47.0294L48.6191 45.9594Z" fill="#235AB0"/>
<path d="M27.8305 21.5H21.5605V37.1H27.8305V21.5Z" fill="#235AB0"/>
<path d="M35.06 32.8608C34.5296 32.8608 34.0209 32.65 33.6458 32.2749C33.2707 31.8998 33.06 31.3913 33.06 30.8608C33.06 30.7282 33.1127 30.6011 33.2065 30.5073C33.3003 30.4136 33.4274 30.3608 33.56 30.3608C33.6926 30.3608 33.8198 30.4136 33.9136 30.5073C34.0073 30.6011 34.06 30.7282 34.06 30.8608C34.06 31.1261 34.1654 31.3803 34.3529 31.5679C34.5404 31.7554 34.7948 31.8608 35.06 31.8608C35.3252 31.8608 35.5796 31.7554 35.7672 31.5679C35.9547 31.3803 36.06 31.1261 36.06 30.8608C36.06 30.4408 35.86 30.1308 34.87 29.8008C33.63 29.4008 33 28.7208 33 27.8008C33 27.2703 33.2107 26.7618 33.5858 26.3867C33.9609 26.0116 34.4696 25.8008 35 25.8008C35.5304 25.8008 36.0392 26.0116 36.4142 26.3867C36.7893 26.7618 37 27.2703 37 27.8008C37 27.9334 36.9473 28.0605 36.8536 28.1543C36.7598 28.2481 36.6326 28.3008 36.5 28.3008C36.3674 28.3008 36.2403 28.2481 36.1465 28.1543C36.0527 28.0605 36 27.9334 36 27.8008C36 27.5356 35.8947 27.2813 35.7072 27.0938C35.5196 26.9062 35.2652 26.8008 35 26.8008C34.7348 26.8008 34.4804 26.9062 34.2929 27.0938C34.1054 27.2813 34 27.5356 34 27.8008C34 28.1108 34.1301 28.5108 35.1801 28.8008C35.7401 28.9908 37.06 29.4208 37.06 30.8008C37.068 31.0684 37.0223 31.3351 36.9254 31.5847C36.8284 31.8343 36.6824 32.0618 36.4959 32.2539C36.3094 32.446 36.0862 32.5989 35.8395 32.7031C35.5929 32.8074 35.3278 32.861 35.06 32.8608Z" fill="#333333"/>
<path d="M35.0605 26.7505C34.9279 26.7505 34.8008 26.6978 34.707 26.604C34.6133 26.5102 34.5605 26.3831 34.5605 26.2505V25.3906C34.5605 25.258 34.6133 25.1309 34.707 25.0371C34.8008 24.9433 34.9279 24.8906 35.0605 24.8906C35.1932 24.8906 35.3204 24.9433 35.4141 25.0371C35.5079 25.1309 35.5605 25.258 35.5605 25.3906V26.2505C35.5605 26.3831 35.5079 26.5102 35.4141 26.604C35.3204 26.6978 35.1932 26.7505 35.0605 26.7505Z" fill="#333333"/>
<path d="M35.0605 33.7192C34.9279 33.7192 34.8008 33.6668 34.707 33.573C34.6133 33.4792 34.5605 33.3518 34.5605 33.2192V32.3594C34.5605 32.2268 34.6133 32.0996 34.707 32.0059C34.8008 31.9121 34.9279 31.8594 35.0605 31.8594C35.1932 31.8594 35.3204 31.9121 35.4141 32.0059C35.5079 32.0996 35.5605 32.2268 35.5605 32.3594V33.2192C35.5605 33.3518 35.5079 33.4792 35.4141 33.573C35.3204 33.6668 35.1932 33.7192 35.0605 33.7192Z" fill="#333333"/>
<path d="M45.63 37.5808H21V20.9707H45.63V23.5808H45.13C44.8118 23.5808 44.5065 23.7073 44.2815 23.9324C44.0564 24.1574 43.9301 24.4625 43.9301 24.7808C43.93 24.9379 43.9611 25.0935 44.0215 25.2385C44.082 25.3836 44.1705 25.5151 44.2821 25.6257C44.3937 25.7364 44.526 25.8238 44.6716 25.8831C44.8171 25.9423 44.9729 25.972 45.13 25.9707H45.63V28.1409H45.13C44.9729 28.1395 44.8171 28.1693 44.6716 28.2285C44.526 28.2877 44.3937 28.3752 44.2821 28.4858C44.1705 28.5965 44.082 28.728 44.0215 28.873C43.9611 29.0181 43.93 29.1737 43.9301 29.3308C43.9301 29.6491 44.0564 29.9544 44.2815 30.1794C44.5065 30.4045 44.8118 30.5308 45.13 30.5308H45.63V32.7009H45.13C44.9729 32.6996 44.8171 32.7294 44.6716 32.7886C44.526 32.8478 44.3937 32.9353 44.2821 33.0459C44.1705 33.1565 44.082 33.2881 44.0215 33.4331C43.9611 33.5781 43.93 33.7338 43.9301 33.8909C43.9301 34.2091 44.0564 34.5142 44.2815 34.7393C44.5065 34.9643 44.8118 35.0908 45.13 35.0908H45.63V37.5808ZM22 36.5808H44.63V35.9707C44.1469 35.8579 43.716 35.5853 43.4074 35.1968C43.0988 34.8083 42.9306 34.3269 42.9301 33.8308C42.9324 33.3351 43.1012 32.8547 43.4095 32.4666C43.7179 32.0784 44.1477 31.8053 44.63 31.6909V31.4209C44.1469 31.3045 43.7168 31.0292 43.4086 30.6394C43.1004 30.2496 42.9319 29.7677 42.9301 29.2708C42.9324 28.7751 43.1012 28.2946 43.4095 27.9065C43.7179 27.5184 44.1477 27.2452 44.63 27.1309V26.8608C44.1477 26.7465 43.7179 26.4733 43.4095 26.0852C43.1012 25.6971 42.9324 25.2164 42.9301 24.7207C42.9301 24.2233 43.098 23.7405 43.4065 23.3503C43.715 22.9602 44.1461 22.6856 44.63 22.5708V21.9707H22V36.5808Z" fill="#333333"/>
<path d="M27.3301 35.5791C27.1975 35.5791 27.0703 35.5264 26.9766 35.4326C26.8828 35.3388 26.8301 35.2117 26.8301 35.0791V33.4492C26.8301 33.3166 26.8828 33.1892 26.9766 33.0955C27.0703 33.0017 27.1975 32.9492 27.3301 32.9492C27.4627 32.9492 27.5899 33.0017 27.6837 33.0955C27.7774 33.1892 27.8301 33.3166 27.8301 33.4492V35.0791C27.8301 35.2117 27.7774 35.3388 27.6837 35.4326C27.5899 35.5264 27.4627 35.5791 27.3301 35.5791Z" fill="#333333"/>
<path d="M27.3301 32.2903C27.1975 32.2903 27.0703 32.2376 26.9766 32.1438C26.8828 32.05 26.8301 31.9229 26.8301 31.7903V30.1504C26.8301 30.0178 26.8828 29.8906 26.9766 29.7969C27.0703 29.7031 27.1975 29.6504 27.3301 29.6504C27.4619 29.653 27.5876 29.7063 27.6808 29.7996C27.774 29.8928 27.8275 30.0186 27.8301 30.1504V31.7903C27.8275 31.9221 27.774 32.0479 27.6808 32.1411C27.5876 32.2343 27.4619 32.2877 27.3301 32.2903Z" fill="#333333"/>
<path d="M27.3301 28.9504C27.1975 28.9504 27.0703 28.8977 26.9766 28.804C26.8828 28.7102 26.8301 28.583 26.8301 28.4504V26.8203C26.8301 26.6877 26.8828 26.5606 26.9766 26.4668C27.0703 26.373 27.1975 26.3203 27.3301 26.3203C27.4627 26.3203 27.5899 26.373 27.6837 26.4668C27.7774 26.5606 27.8301 26.6877 27.8301 26.8203V28.4504C27.8301 28.583 27.7774 28.7102 27.6837 28.804C27.5899 28.8977 27.4627 28.9504 27.3301 28.9504Z" fill="#333333"/>
<path d="M27.3301 25.5791C27.1975 25.5791 27.0703 25.5264 26.9766 25.4326C26.8828 25.3388 26.8301 25.2117 26.8301 25.0791V23.4492C26.8301 23.3166 26.8828 23.1892 26.9766 23.0955C27.0703 23.0017 27.1975 22.9492 27.3301 22.9492C27.4627 22.9492 27.5899 23.0017 27.6837 23.0955C27.7774 23.1892 27.8301 23.3166 27.8301 23.4492V25.0791C27.8301 25.2117 27.7774 25.3388 27.6837 25.4326C27.5899 25.5264 27.4627 25.5791 27.3301 25.5791Z" fill="#333333"/>
<path d="M48.4597 46.5791C48.3191 46.5791 48.1843 46.5232 48.0849 46.4238C47.9855 46.3244 47.9297 46.1896 47.9297 46.0491V35.979C47.9297 35.8384 47.9855 35.7036 48.0849 35.6042C48.1843 35.5049 48.3191 35.4492 48.4597 35.4492C48.6003 35.4492 48.735 35.5049 48.8344 35.6042C48.9338 35.7036 48.9897 35.8384 48.9897 35.979V46.0491C48.9897 46.1896 48.9338 46.3244 48.8344 46.4238C48.735 46.5232 48.6003 46.5791 48.4597 46.5791Z" fill="#333333"/>
<path d="M53.86 62.79C53.7221 62.79 53.5898 62.7351 53.4923 62.6376C53.3948 62.5401 53.34 62.4079 53.34 62.2699V39.4201L48.19 36.4201C48.07 36.3492 47.9828 36.2338 47.9472 36.099C47.9117 35.9643 47.9306 35.821 48 35.7001C48.0711 35.5804 48.1857 35.4925 48.3198 35.4552C48.454 35.418 48.5973 35.434 48.72 35.4999L54.39 38.7799V62.2399C54.3941 62.3115 54.3834 62.3833 54.3585 62.4506C54.3336 62.5179 54.2951 62.5794 54.2453 62.631C54.1955 62.6827 54.1356 62.7233 54.0693 62.7507C54.003 62.778 53.9317 62.7915 53.86 62.79Z" fill="#333333"/>
<path d="M53.8599 62.7891C53.7683 62.7912 53.6779 62.768 53.5985 62.7222C53.5192 62.6763 53.4539 62.6095 53.4099 62.5291C53.3743 62.4696 53.3509 62.4034 53.3411 62.3347C53.3313 62.266 53.3354 62.1963 53.3532 62.1292C53.3709 62.0621 53.4018 61.9991 53.4442 61.9441C53.4866 61.8892 53.5395 61.8433 53.5999 61.8091L58.7399 58.8091V36.2691L53.5999 33.2691C53.48 33.1981 53.3927 33.0828 53.3572 32.948C53.3216 32.8133 53.3406 32.67 53.4099 32.5491C53.4792 32.4274 53.5938 32.338 53.7287 32.3006C53.8636 32.2631 54.0079 32.2806 54.1299 32.3491L59.7999 35.6292V59.3892L54.1299 62.6592C54.0547 62.7281 53.9607 62.7732 53.8599 62.7891Z" fill="#333333"/>
<path d="M57.6394 35.5791C57.5698 35.5791 57.5009 35.5655 57.4366 35.5388C57.3723 35.5122 57.3138 35.473 57.2646 35.4238C57.2154 35.3746 57.1764 35.3163 57.1497 35.252C57.1231 35.1877 57.1094 35.1187 57.1094 35.0491V24.979C57.1094 24.8384 57.1652 24.7036 57.2646 24.6042C57.364 24.5049 57.4988 24.4492 57.6394 24.4492C57.7799 24.4492 57.9148 24.5049 58.0142 24.6042C58.1136 24.7036 58.1694 24.8384 58.1694 24.979V35.0491C58.1694 35.1896 58.1136 35.3244 58.0142 35.4238C57.9148 35.5232 57.7799 35.5791 57.6394 35.5791Z" fill="#333333"/>
<path d="M63.0491 57.5797C62.9086 57.5797 62.7738 57.5239 62.6744 57.4245C62.575 57.3251 62.5191 57.1903 62.5191 57.0497V28.4398L57.3792 25.4398C57.2575 25.3706 57.1681 25.2559 57.1307 25.121C57.0932 24.9861 57.1106 24.8417 57.1792 24.7196C57.2503 24.5973 57.3667 24.5078 57.5033 24.4704C57.6398 24.433 57.7856 24.4507 57.9092 24.5197L63.5791 27.7997V57.0197C63.5832 57.0918 63.5725 57.164 63.5477 57.2318C63.5229 57.2996 63.4846 57.3615 63.435 57.414C63.3853 57.4664 63.3255 57.5083 63.2591 57.5368C63.1928 57.5653 63.1213 57.5799 63.0491 57.5797Z" fill="#333333"/>
<path d="M44.6802 68.1294C44.5886 68.1313 44.4984 68.107 44.4202 68.0593L39.0102 64.9395C38.9292 64.8927 38.8618 64.8258 38.8145 64.7451C38.7671 64.6645 38.7416 64.5727 38.7402 64.4792V47.0093C38.7402 47.0093 38.7402 46.9394 38.7402 46.9094C38.7446 46.8863 38.7446 46.8625 38.7402 46.8394C38.7844 46.7235 38.8651 46.6252 38.9702 46.5593L44.3802 43.4395C44.4596 43.3948 44.5491 43.3711 44.6402 43.3711C44.7313 43.3711 44.8208 43.3948 44.9002 43.4395L50.3102 46.5593C50.3905 46.6068 50.4575 46.6739 50.5047 46.7544C50.5519 46.8349 50.5779 46.926 50.5802 47.0193V64.4993C50.5789 64.5928 50.5533 64.6843 50.506 64.7649C50.4587 64.8455 50.3912 64.9125 50.3102 64.9592L44.9002 68.0793C44.8319 68.1133 44.7565 68.1304 44.6802 68.1294ZM39.8002 64.1294L44.6802 66.9495L49.5602 64.1294V47.2593L44.6802 44.4395L40.3202 46.9592L44.9502 49.6995C45.0293 49.7474 45.0948 49.8147 45.1403 49.8953C45.1858 49.9758 45.2099 50.0669 45.2102 50.1594V62.2192C45.2102 62.2884 45.1964 62.3569 45.1697 62.4207C45.1429 62.4844 45.1037 62.5422 45.0544 62.5906C45.005 62.639 44.9465 62.6771 44.8823 62.7026C44.818 62.7282 44.7493 62.7406 44.6802 62.7393C44.6111 62.7406 44.5424 62.7282 44.4781 62.7026C44.4139 62.6771 44.3554 62.639 44.306 62.5906C44.2567 62.5422 44.2175 62.4844 44.1907 62.4207C44.164 62.3569 44.1502 62.2884 44.1502 62.2192V50.4592L39.8002 47.8794V64.1294Z" fill="#333333"/>
<path d="M48.4607 36.5196C48.3678 36.5213 48.2761 36.4981 48.1952 36.4524C48.1143 36.4067 48.0471 36.34 48.0007 36.2595C47.9308 36.1371 47.9116 35.9924 47.9471 35.856C47.9826 35.7196 48.07 35.6024 48.1907 35.5296L53.6007 32.4097C53.7228 32.3412 53.867 32.3236 54.0019 32.3611C54.1368 32.3986 54.2514 32.488 54.3207 32.6096C54.3901 32.7305 54.409 32.8738 54.3734 33.0086C54.3379 33.1433 54.2507 33.2587 54.1307 33.3296L48.7207 36.4497C48.6425 36.4974 48.5523 36.5215 48.4607 36.5196Z" fill="#333333"/>
<path d="M63.0498 57.5793C62.9575 57.5781 62.8669 57.5537 62.7866 57.5083C62.7062 57.4629 62.6385 57.3978 62.5898 57.3193C62.52 57.1969 62.5007 57.0522 62.5362 56.9158C62.5717 56.7794 62.6592 56.6622 62.7798 56.5894L67.9198 53.5894V25.2893L63.0498 22.4692L57.9098 25.4692C57.7874 25.5391 57.6426 25.5584 57.5062 25.5229C57.3698 25.4874 57.2527 25.4 57.1798 25.2793C57.1108 25.1557 57.0931 25.0101 57.1305 24.8735C57.1679 24.737 57.2575 24.6205 57.3798 24.5493L63.0498 21.2793L68.9798 24.7092V54.2292L63.3098 57.5093C63.2316 57.5569 63.1414 57.5813 63.0498 57.5793Z" fill="#333333"/>
<path d="M50.0908 65.0105C49.9981 65.0112 49.9069 64.9875 49.8261 64.9419C49.7454 64.8963 49.6781 64.8303 49.6309 64.7505C49.5615 64.6296 49.5425 64.4863 49.5781 64.3516C49.6136 64.2168 49.7009 64.1015 49.8209 64.0305L54.3608 61.3706L63.0908 56.3706C63.2129 56.3021 63.3572 56.2846 63.4921 56.322C63.627 56.3595 63.7416 56.4489 63.8108 56.5706C63.8465 56.6301 63.8699 56.6962 63.8797 56.7649C63.8894 56.8336 63.8853 56.9036 63.8676 56.9707C63.8499 57.0378 63.819 57.1006 63.7766 57.1555C63.7342 57.2105 63.6812 57.2564 63.6208 57.2905L54.8809 62.2905L50.3509 64.9407C50.2726 64.9884 50.1824 65.0125 50.0908 65.0105Z" fill="#333333"/>
</g>
<defs>
<clipPath id="clip0_1080_171882">
<rect width="47.98" height="47.14" fill="white" transform="translate(21 21)"/>
</clipPath>
</defs>
</svg>
