<svg width="90" height="90" viewBox="0 0 90 90" fill="none" xmlns="http://www.w3.org/2000/svg">
<circle cx="45" cy="45" r="45" fill="#FAFAFA"/>
<g clip-path="url(#clip0_1080_171872)">
<path d="M53.1401 32.5586H25.0801V66.1986H53.1401V32.5586Z" fill="white"/>
<path d="M48.3304 22.8594H29.6504V32.2494H48.3304V22.8594Z" fill="white"/>
<path d="M33.4199 47.5413V46.0312" stroke="#235AB0" stroke-miterlimit="10"/>
<path d="M33.4199 42.7895V41.2695" stroke="#235AB0" stroke-miterlimit="10"/>
<path d="M33.4199 38.2405V36.7305" stroke="#235AB0" stroke-miterlimit="10"/>
<path d="M39.0391 47.5413V46.0312" stroke="#235AB0" stroke-miterlimit="10"/>
<path d="M39.0391 42.7895V41.2695" stroke="#235AB0" stroke-miterlimit="10"/>
<path d="M39.0391 38.2405V36.7305" stroke="#235AB0" stroke-miterlimit="10"/>
<path d="M44.5996 47.5413V46.0312" stroke="#235AB0" stroke-miterlimit="10"/>
<path d="M44.5996 42.7895V41.2695" stroke="#235AB0" stroke-miterlimit="10"/>
<path d="M44.5996 38.2405V36.7305" stroke="#235AB0" stroke-miterlimit="10"/>
<path d="M33.4199 61.5803V60.0703" stroke="#235AB0" stroke-miterlimit="10"/>
<path d="M33.4199 56.8303V55.3203" stroke="#235AB0" stroke-miterlimit="10"/>
<path d="M33.4199 52.2895V50.7695" stroke="#235AB0" stroke-miterlimit="10"/>
<path d="M39.0391 61.5803V60.0703" stroke="#235AB0" stroke-miterlimit="10"/>
<path d="M39.0391 56.8303V55.3203" stroke="#235AB0" stroke-miterlimit="10"/>
<path d="M39.0391 52.2895V50.7695" stroke="#235AB0" stroke-miterlimit="10"/>
<path d="M44.5996 61.5803V60.0703" stroke="#344154" stroke-width="1.06" stroke-miterlimit="10"/>
<path d="M44.5996 56.8303V55.3203" stroke="#344154" stroke-width="1.06" stroke-miterlimit="10"/>
<path d="M44.5996 52.2895V50.7695" stroke="#344154" stroke-width="1.06" stroke-miterlimit="10"/>
<path d="M47.9698 66.75H26.3898C25.8912 66.75 25.413 66.552 25.0604 66.1995C24.7079 65.8469 24.5098 65.3687 24.5098 64.8701V33.6802C24.5098 33.3009 24.6605 32.9371 24.9286 32.6689C25.1968 32.4008 25.5605 32.25 25.9398 32.25H52.0498C52.4291 32.25 52.7928 32.4008 53.061 32.6689C53.3292 32.9371 53.4798 33.3009 53.4798 33.6802V50.77" stroke="#333333" stroke-width="1.06" stroke-linecap="round" stroke-linejoin="round"/>
<path d="M29.3691 32.2513V23.8714C29.3691 23.6954 29.4038 23.521 29.4711 23.3584C29.5385 23.1959 29.6372 23.0483 29.7616 22.9239C29.886 22.7994 30.0338 22.7007 30.1964 22.6333C30.3589 22.566 30.5331 22.5313 30.7091 22.5313H47.3091C47.486 22.53 47.6613 22.5637 47.825 22.6304C47.9887 22.6972 48.1376 22.7956 48.2631 22.9202C48.3886 23.0448 48.4882 23.193 48.5562 23.3562C48.6241 23.5195 48.6591 23.6946 48.6591 23.8714V32.2513" stroke="#333333" stroke-width="1.06" stroke-linecap="round" stroke-linejoin="round"/>
<path d="M45.4993 25.6992H32.5293V29.0692H45.4993V25.6992Z" fill="#235AB0"/>
<path d="M68.6698 51.2617H41.2598V66.6517H68.6698V51.2617Z" fill="white"/>
<path d="M69.1702 67.2595H40.7402V50.5195H69.1702V67.2595ZM41.8002 66.1997H68.1102V51.5796H41.8002V66.1997Z" fill="#333333"/>
<path d="M50.8793 63.5005C50.738 63.5011 50.602 63.4475 50.4993 63.3506C49.3226 62.1665 48.6621 60.5649 48.6621 58.8955C48.6621 57.2261 49.3226 55.6248 50.4993 54.4407C50.5486 54.3914 50.607 54.3521 50.6713 54.3254C50.7357 54.2988 50.8047 54.2852 50.8743 54.2852C50.944 54.2852 51.0129 54.2988 51.0773 54.3254C51.1416 54.3521 51.2001 54.3914 51.2493 54.4407C51.2986 54.4899 51.3377 54.5482 51.3644 54.6125C51.3911 54.6769 51.4048 54.746 51.4048 54.8157C51.4048 54.8853 51.3911 54.9542 51.3644 55.0186C51.3377 55.0829 51.2986 55.1415 51.2493 55.1907C50.2692 56.1746 49.7189 57.5067 49.7189 58.8955C49.7189 60.2843 50.2692 61.6166 51.2493 62.6006C51.2986 62.6498 51.3377 62.7084 51.3644 62.7727C51.3911 62.8371 51.4048 62.9059 51.4048 62.9756C51.4048 63.0452 51.3911 63.1141 51.3644 63.1785C51.3377 63.2428 51.2986 63.3014 51.2493 63.3506C51.1503 63.4469 51.0174 63.5006 50.8793 63.5005Z" fill="#333333"/>
<path d="M59.0392 63.5005C58.898 63.5011 58.762 63.4475 58.6592 63.3506C58.5621 63.2499 58.5078 63.1155 58.5078 62.9756C58.5078 62.8357 58.5621 62.7012 58.6592 62.6006C59.1469 62.1147 59.5339 61.5372 59.7979 60.9014C60.062 60.2656 60.1979 59.5839 60.1979 58.8955C60.1979 58.2071 60.062 57.5254 59.7979 56.8896C59.5339 56.2539 59.1469 55.6766 58.6592 55.1907C58.5621 55.09 58.5078 54.9556 58.5078 54.8157C58.5078 54.6758 58.5621 54.5413 58.6592 54.4407C58.7085 54.3914 58.7669 54.3521 58.8312 54.3254C58.8956 54.2988 58.9646 54.2852 59.0342 54.2852C59.1039 54.2852 59.1729 54.2988 59.2372 54.3254C59.3016 54.3521 59.36 54.3914 59.4092 54.4407C59.9943 55.0257 60.4584 55.7202 60.7751 56.4846C61.0917 57.249 61.2547 58.0681 61.2547 58.8955C61.2547 59.7229 61.0917 60.5422 60.7751 61.3066C60.4584 62.071 59.9943 62.7656 59.4092 63.3506C59.3102 63.4469 59.1774 63.5006 59.0392 63.5005Z" fill="#333333"/>
<path d="M64.2701 60.1396C64.0421 60.1396 63.8233 60.049 63.662 59.8877C63.5008 59.7264 63.4102 59.5076 63.4102 59.2795C63.4128 59.0532 63.5046 58.8371 63.6656 58.678C63.8266 58.5189 64.0438 58.4297 64.2701 58.4297C64.4965 58.4297 64.7138 58.5189 64.8748 58.678C65.0358 58.8371 65.1275 59.0532 65.1302 59.2795C65.1302 59.3925 65.1079 59.5043 65.0647 59.6086C65.0215 59.713 64.9581 59.8078 64.8783 59.8877C64.7984 59.9676 64.7036 60.031 64.5993 60.0742C64.4949 60.1174 64.3831 60.1396 64.2701 60.1396ZM64.2701 59.0796C64.2171 59.0796 64.1662 59.1007 64.1287 59.1382C64.0912 59.1757 64.0702 59.2265 64.0702 59.2795C64.0702 59.4995 64.4702 59.4995 64.4702 59.2795C64.4702 59.2265 64.4491 59.1757 64.4116 59.1382C64.3741 59.1007 64.3232 59.0796 64.2701 59.0796Z" fill="#333333"/>
<path d="M45.6491 60.1397C45.5358 60.141 45.4234 60.1197 45.3184 60.077C45.2135 60.0342 45.1182 59.9708 45.038 59.8907C44.9579 59.8106 44.8946 59.7154 44.8519 59.6104C44.8091 59.5055 44.7878 59.3929 44.7891 59.2796C44.7891 59.1671 44.8114 59.0557 44.8547 58.952C44.8981 58.8482 44.9616 58.7542 45.0416 58.6751C45.1216 58.596 45.2165 58.5336 45.3207 58.4915C45.425 58.4494 45.5366 58.4284 45.6491 58.4297C45.8745 58.4297 46.0908 58.5191 46.2502 58.6785C46.4096 58.8379 46.4991 59.0542 46.4991 59.2796C46.5005 59.3921 46.4794 59.5037 46.4373 59.608C46.3952 59.7123 46.3328 59.8073 46.2537 59.8873C46.1747 59.9673 46.0805 60.0307 45.9767 60.074C45.873 60.1174 45.7616 60.1397 45.6491 60.1397ZM45.6491 59.0796C45.622 59.0783 45.5949 59.0824 45.5695 59.0919C45.5441 59.1013 45.5208 59.1159 45.5012 59.1346C45.4815 59.1533 45.4659 59.1758 45.4553 59.2007C45.4446 59.2257 45.4391 59.2525 45.4391 59.2796C45.4391 59.4996 45.8491 59.4996 45.8491 59.2796C45.8491 59.2266 45.828 59.1757 45.7905 59.1382C45.753 59.1007 45.7022 59.0796 45.6491 59.0796Z" fill="#333333"/>
<path d="M57.5191 59.1153L56.8771 61.5H55.7446L55.272 59.322C55.272 59.2822 55.272 59.163 55.272 59.1073H54.6745C54.6745 59.155 54.621 59.2822 54.621 59.322L54.0771 61.5H52.9803L52.3917 59.1153H51.5V58.3681H52.258L51.7854 56.5H52.8376L53.2299 58.3681H54.1217L54.5764 56.5H55.5662L55.9675 58.3681H56.7968L57.2338 56.5H58.2414L57.7242 58.3681H58.5V59.1153H57.5191ZM53.872 59.1153H53.3548C53.4529 59.5922 53.5331 60.085 53.5955 60.4905C53.6758 60.0771 53.7828 59.6002 53.872 59.1153ZM54.8529 58.3681H55.0847L54.9777 57.6924C54.951 57.9149 54.9064 58.1376 54.8529 58.3681ZM56.6363 59.1153H56.128C56.2261 59.5604 56.2975 60.0612 56.3688 60.4825C56.458 60.0612 56.5204 59.5604 56.6274 59.1153H56.6363Z" fill="#333333"/>
</g>
<defs>
<clipPath id="clip0_1080_171872">
<rect width="45.17" height="45.28" fill="white" transform="translate(24 22)"/>
</clipPath>
</defs>
</svg>
