<svg width="100" height="100" viewBox="0 0 100 100" fill="none" xmlns="http://www.w3.org/2000/svg">
<circle cx="50" cy="50" r="50" fill="#F2F6FB"/>
<g clip-path="url(#clip0_2152_382857)">
<path d="M57.9597 32.9707H33.9697V67.3007H57.9597V32.9707Z" fill="white"/>
<path d="M58.45 68.2701H33.45C33.32 68.2701 33.1954 68.2185 33.1035 68.1266C33.0116 68.0347 32.96 67.9101 32.96 67.7801V32.4801C32.9599 32.4162 32.9727 32.3532 32.9974 32.2943C33.0222 32.2354 33.0584 32.182 33.1041 32.1373C33.1497 32.0926 33.2038 32.0573 33.2632 32.0338C33.3226 32.0103 33.3861 31.9988 33.45 32.0001H58.45C58.5138 31.9988 58.5773 32.0103 58.6367 32.0338C58.6961 32.0573 58.7502 32.0926 58.7959 32.1373C58.8415 32.182 58.8777 32.2354 58.9025 32.2943C58.9272 32.3532 58.94 32.4162 58.94 32.4801V49.2203C58.94 49.3503 58.8883 49.4749 58.7964 49.5668C58.7046 49.6586 58.5799 49.7103 58.45 49.7103C58.32 49.7103 58.1954 49.6586 58.1035 49.5668C58.0116 49.4749 57.96 49.3503 57.96 49.2203V32.9703H33.96V67.3002H57.96V59.4503C57.9599 59.3864 57.9727 59.3232 57.9974 59.2643C58.0222 59.2054 58.0584 59.152 58.1041 59.1073C58.1497 59.0626 58.2038 59.0273 58.2632 59.0038C58.3226 58.9802 58.3861 58.969 58.45 58.9703C58.5138 58.969 58.5773 58.9802 58.6367 59.0038C58.6961 59.0273 58.7502 59.0626 58.7959 59.1073C58.8415 59.152 58.8777 59.2054 58.9025 59.2643C58.9272 59.3232 58.94 59.3864 58.94 59.4503V67.7801C58.94 67.9101 58.8883 68.0347 58.7964 68.1266C58.7046 68.2185 58.5799 68.2701 58.45 68.2701Z" fill="#333333"/>
<path d="M41.6402 38.7007H37.2302C37.1003 38.7007 36.9756 38.649 36.8838 38.5571C36.7919 38.4652 36.7402 38.3406 36.7402 38.2107C36.7402 38.0807 36.7919 37.9559 36.8838 37.864C36.9756 37.7721 37.1003 37.7207 37.2302 37.7207H41.6402C41.7702 37.7207 41.8948 37.7721 41.9867 37.864C42.0786 37.9559 42.1302 38.0807 42.1302 38.2107C42.1302 38.3406 42.0786 38.4652 41.9867 38.5571C41.8948 38.649 41.7702 38.7007 41.6402 38.7007Z" fill="#333333"/>
<path d="M54.5804 47.4607H37.1804C37.0505 47.4607 36.9258 47.409 36.8339 47.3171C36.7421 47.2252 36.6904 47.1007 36.6904 46.9707C36.6904 46.8407 36.7421 46.7159 36.8339 46.624C36.9258 46.5321 37.0505 46.4805 37.1804 46.4805H54.5804C54.7086 46.4831 54.8307 46.5361 54.9205 46.6277C55.0102 46.7193 55.0605 46.8425 55.0604 46.9707C55.0605 47.0989 55.0102 47.2219 54.9205 47.3135C54.8307 47.4051 54.7086 47.4581 54.5804 47.4607Z" fill="#333333"/>
<path d="M54.5804 51.8394H37.1804C37.0505 51.8394 36.9258 51.7877 36.8339 51.6958C36.7421 51.6039 36.6904 51.4793 36.6904 51.3494C36.6904 51.2194 36.7421 51.0948 36.8339 51.0029C36.9258 50.911 37.0505 50.8594 37.1804 50.8594H54.5804C54.7086 50.862 54.8307 50.9147 54.9205 51.0063C55.0102 51.098 55.0605 51.2211 55.0604 51.3494C55.0605 51.4776 55.0102 51.6008 54.9205 51.6924C54.8307 51.784 54.7086 51.8367 54.5804 51.8394Z" fill="#333333"/>
<path d="M51.8904 56.2205H37.1804C37.0505 56.2205 36.9258 56.1688 36.8339 56.0769C36.7421 55.985 36.6904 55.8602 36.6904 55.7302C36.6904 55.6003 36.7421 55.4757 36.8339 55.3838C36.9258 55.2919 37.0505 55.2402 37.1804 55.2402H51.8904C52.0204 55.2402 52.145 55.2919 52.2369 55.3838C52.3288 55.4757 52.3804 55.6003 52.3804 55.7302C52.3804 55.8602 52.3288 55.985 52.2369 56.0769C52.145 56.1688 52.0204 56.2205 51.8904 56.2205Z" fill="#333333"/>
<path d="M54.7604 62.5403H50.7604C50.6331 62.5403 50.511 62.4897 50.421 62.3997C50.331 62.3096 50.2804 62.1876 50.2804 62.0603C50.279 61.9964 50.2905 61.9329 50.314 61.8735C50.3375 61.8141 50.3727 61.76 50.4174 61.7144C50.4621 61.6687 50.5155 61.6327 50.5743 61.6079C50.6332 61.5832 50.6965 61.5703 50.7604 61.5703H54.7604C54.8903 61.5703 55.015 61.622 55.1069 61.7139C55.1988 61.8058 55.2504 61.9303 55.2504 62.0603C55.2478 62.1885 55.195 62.3106 55.1034 62.4004C55.0118 62.4901 54.8886 62.5403 54.7604 62.5403Z" fill="#333333"/>
<path d="M58.9302 62.0107C63.2214 62.0107 66.7002 58.532 66.7002 54.2407C66.7002 49.9495 63.2214 46.4707 58.9302 46.4707C54.6389 46.4707 51.1602 49.9495 51.1602 54.2407C51.1602 58.532 54.6389 62.0107 58.9302 62.0107Z" fill="#235AB0"/>
<path d="M58.9399 62.5393C56.7377 62.5393 54.6255 61.6652 53.0674 60.1089C51.5092 58.5526 50.6325 56.4415 50.6299 54.2393C50.6325 52.037 51.5092 49.9261 53.0674 48.3699C54.6255 46.8136 56.7377 45.9395 58.9399 45.9395C61.1404 45.9421 63.25 46.8173 64.8059 48.3733C66.3619 49.9293 67.2372 52.0388 67.2399 54.2393C67.2372 56.4397 66.3619 58.5495 64.8059 60.1055C63.25 61.6614 61.1404 62.5367 58.9399 62.5393ZM58.9399 46.9993C57.0197 46.9993 55.1782 47.7621 53.8204 49.1199C52.4627 50.4776 51.6999 52.3191 51.6999 54.2393C51.6999 56.1594 52.4627 58.0011 53.8204 59.3589C55.1782 60.7167 57.0197 61.4792 58.9399 61.4792C60.8592 61.4766 62.6992 60.7131 64.0564 59.356C65.4136 57.9988 66.1772 56.1586 66.1799 54.2393C66.1772 52.3199 65.4136 50.48 64.0564 49.1228C62.6992 47.7656 60.8592 47.0019 58.9399 46.9993Z" fill="#333333"/>
<path d="M56.4402 58.4502L54.7402 53.7102L55.7402 53.3502L56.8802 56.5202L62.9202 50.4902L63.6702 51.2402L56.4402 58.4502Z" fill="white"/>
</g>
<defs>
<clipPath id="clip0_2152_382857">
<rect width="34.23" height="36.27" fill="white" transform="translate(33 32)"/>
</clipPath>
</defs>
</svg>
