<svg width="90" height="90" viewBox="0 0 90 90" fill="none" xmlns="http://www.w3.org/2000/svg">
<circle cx="45" cy="45" r="45" fill="#FAFAFA"/>
<g clip-path="url(#clip0_485_97217)">
<path d="M27.7401 61.7305H21.8401V77.4005H27.7401V61.7305Z" fill="#235AB0"/>
<path d="M28.1 63.9492L34.37 60.4492L39.34 60.6792L46.53 63.4792L54.44 63.9492L55.71 65.4492V67.3592L62.6 61.4092L66.02 61.0392L68.7 63.1792L67.54 64.4492L58.29 73.3092L52.18 75.0892L45.91 74.6192L37.82 74.5092L30.78 75.0892L27.75 75.8892L28.1 63.9492Z" fill="white"/>
<path d="M28.26 76.2807C28.144 76.2804 28.0313 76.2422 27.9392 76.1718C27.8471 76.1014 27.7806 76.0026 27.75 75.8908C27.7304 75.8238 27.7244 75.7536 27.7325 75.6843C27.7406 75.6149 27.7626 75.5479 27.7971 75.4872C27.8316 75.4266 27.878 75.3736 27.9335 75.3312C27.989 75.2889 28.0524 75.2582 28.12 75.2409C33.172 74.1185 38.3501 73.6678 43.52 73.9008C44.52 73.9608 45.44 74.0508 46.4 74.1408C48.2154 74.3506 50.0427 74.4409 51.87 74.4108C54.702 74.3393 57.4236 73.298 59.58 71.4609L67.58 63.8808C67.6577 63.8045 67.7194 63.7134 67.7616 63.613C67.8037 63.5125 67.8254 63.4047 67.8254 63.2958C67.8254 63.1869 67.8037 63.0791 67.7616 62.9787C67.7194 62.8782 67.6577 62.7872 67.58 62.7109C66.8597 61.9621 65.8716 61.5298 64.8328 61.5092C63.794 61.4886 62.7895 61.8812 62.04 62.6008L55.63 68.1008C55.5225 68.1791 55.3894 68.2144 55.2572 68.1991C55.125 68.1839 55.0034 68.1195 54.9164 68.0187C54.8295 67.918 54.7837 67.7882 54.7881 67.6552C54.7924 67.5222 54.8467 67.3956 54.94 67.3007L61.33 61.8207C62.2841 60.9243 63.5518 60.4379 64.8606 60.466C66.1695 60.494 67.4151 61.0344 68.33 61.9709C68.6836 62.3252 68.8821 62.8053 68.8821 63.3058C68.8821 63.8064 68.6836 64.2865 68.33 64.6408L60.33 72.2309C57.9802 74.2338 55.0164 75.3734 51.93 75.4609C50.0561 75.4969 48.1818 75.4067 46.32 75.1908C45.37 75.1008 44.43 75.0109 43.48 74.9609C38.4248 74.7354 33.3618 75.1725 28.42 76.2609L28.26 76.2807Z" fill="#333333"/>
<path d="M53.1399 69.3891H50.4099C48.7295 69.3935 47.0534 69.2192 45.4099 68.8691L40.3499 67.779C40.2828 67.7648 40.2192 67.7376 40.1628 67.6987C40.1063 67.6598 40.0581 67.6101 40.0209 67.5524C39.9837 67.4948 39.9583 67.4302 39.9461 67.3627C39.9339 67.2953 39.9352 67.2261 39.9499 67.1591C39.963 67.0912 39.9895 67.0265 40.028 66.969C40.0664 66.9114 40.1159 66.8619 40.1737 66.8237C40.2314 66.7855 40.2962 66.7594 40.3643 66.7465C40.4323 66.7337 40.5022 66.7347 40.5699 66.7492L45.6299 67.8291C47.1907 68.1654 48.7832 68.3331 50.3799 68.3291H53.1099C53.6403 68.3291 54.1491 68.1184 54.5241 67.7434C54.8992 67.3683 55.1099 66.8595 55.1099 66.3291C55.1099 65.7986 54.8992 65.2901 54.5241 64.915C54.1491 64.5399 53.6403 64.3291 53.1099 64.3291H50.7099C48.4157 64.329 46.1458 63.8595 44.0399 62.9492L43.6699 62.789C42.4004 62.2022 41.0863 61.7174 39.7399 61.3391C37.7267 60.8596 35.6251 60.8951 33.6292 61.4421C31.6333 61.9891 29.8073 63.0303 28.3199 64.4692C28.2707 64.5185 28.2122 64.5575 28.1479 64.5842C28.0835 64.6109 28.0146 64.6245 27.9449 64.6245C27.8752 64.6245 27.8063 64.6109 27.7419 64.5842C27.6776 64.5575 27.6191 64.5185 27.5699 64.4692C27.5209 64.4208 27.482 64.363 27.4555 64.2995C27.4289 64.236 27.4153 64.1679 27.4153 64.0991C27.4153 64.0302 27.4289 63.9622 27.4555 63.8986C27.482 63.8351 27.5209 63.7776 27.5699 63.7292C29.1865 62.1628 31.1725 61.0299 33.3436 60.4355C35.5148 59.8411 37.8008 59.8044 39.9899 60.3291C41.3916 60.7175 42.7595 61.2191 44.0799 61.8291L44.4499 61.9892C46.4225 62.8439 48.5501 63.2829 50.6999 63.279H53.0999C53.5171 63.2552 53.9348 63.3169 54.3274 63.4602C54.72 63.6034 55.0792 63.8253 55.383 64.1123C55.6868 64.3992 55.9289 64.7451 56.0943 65.1289C56.2597 65.5126 56.345 65.9263 56.345 66.3442C56.345 66.7621 56.2597 67.1755 56.0943 67.5593C55.9289 67.9431 55.6868 68.2889 55.383 68.5759C55.0792 68.8628 54.72 69.085 54.3274 69.2282C53.9348 69.3715 53.5171 69.433 53.0999 69.4091L53.1399 69.3891Z" fill="#333333"/>
<path d="M27.44 77.9392H22.07C21.7862 77.9392 21.5141 77.8264 21.3134 77.6257C21.1127 77.4251 21 77.1529 21 76.8691V62.269C21 61.9853 21.1127 61.7131 21.3134 61.5125C21.5141 61.3118 21.7862 61.1992 22.07 61.1992H27.44C27.7238 61.1992 27.9959 61.3118 28.1966 61.5125C28.3973 61.7131 28.51 61.9853 28.51 62.269V76.8691C28.51 77.1529 28.3973 77.4251 28.1966 77.6257C27.9959 77.8264 27.7238 77.9392 27.44 77.9392ZM22.07 62.2593V76.8691H27.46V62.269L22.07 62.2593Z" fill="#333333"/>
<path d="M37.11 23.8813L32.22 19.3512L34.36 17.1812L36.75 16.5312L39.16 17.6913L39.87 18.6613L42.94 17.1513L45.17 17.2113L47.2 18.8412L49.37 16.6713H52.18L54.8 19.2013L50.25 23.8813L59.21 38.3212L61.6 44.7512L61.04 50.2713L58.55 54.5413L54.14 57.4813H34.12L28.63 54.8913L25.91 50.6012L25.49 45.2312L27.09 39.5212L37.11 23.8813Z" fill="white"/>
<path d="M50.9 58.209H36.11C33.1962 58.2147 30.3973 57.0734 28.3183 55.0318C26.2393 52.9902 25.0473 50.2123 25 47.2989V47.189C25.0302 43.217 26.338 39.3602 28.73 36.189L36.66 23.629C36.7045 23.5519 36.7687 23.4881 36.846 23.4441C36.9234 23.4002 37.011 23.3777 37.1 23.379H50.16C50.2501 23.379 50.3387 23.4019 50.4174 23.4456C50.4961 23.4893 50.5624 23.5525 50.61 23.629L58.39 36.219C60.778 39.391 62.0791 43.2487 62.1 47.219C62.0323 48.9093 61.6062 50.5657 60.85 52.0789C59.935 53.9323 58.5162 55.4906 56.7564 56.5748C54.9966 57.6589 52.9669 58.2253 50.9 58.209ZM37.4 24.439L29.6 36.7789C27.3401 39.7794 26.0965 43.4229 26.05 47.179V47.2889C26.0868 49.9167 27.1566 52.4246 29.028 54.2698C30.8994 56.115 33.4219 57.1492 36.05 57.149H50.84C52.7117 57.1646 54.5497 56.651 56.1421 55.6673C57.7344 54.6835 59.0164 53.2697 59.84 51.5889C60.5341 50.218 60.9263 48.7143 60.99 47.179C60.9563 43.4378 59.7224 39.8062 57.47 36.8189L49.81 24.439H37.4Z" fill="#333333"/>
<path d="M37.1001 24.4385C36.9649 24.4381 36.8355 24.384 36.7401 24.2883L31.9101 19.6084C31.8594 19.559 31.8191 19.4998 31.7916 19.4346C31.7641 19.3693 31.75 19.2993 31.7501 19.2285C31.7489 19.1599 31.7616 19.0917 31.7874 19.0281C31.8131 18.9645 31.8515 18.9068 31.9001 18.8584L33.6401 17.1184C34.3636 16.3972 35.3435 15.9922 36.3651 15.9922C37.3866 15.9922 38.3666 16.3972 39.0901 17.1184L40.0901 18.1184L40.3301 17.8784C41.2002 17.0088 42.38 16.5203 43.6101 16.5203C44.8402 16.5203 46.02 17.0088 46.8901 17.8784L47.1301 18.1184L48.1301 17.1184C48.8703 16.4296 49.8439 16.0466 50.8551 16.0466C51.8662 16.0466 52.8399 16.4296 53.5801 17.1184L55.3101 18.8584C55.3602 18.9057 55.3995 18.9633 55.4254 19.0271C55.4513 19.0909 55.4631 19.1597 55.4601 19.2285C55.4626 19.2997 55.4496 19.3704 55.422 19.436C55.3944 19.5017 55.3527 19.5605 55.3001 19.6084L50.4801 24.2883C50.3794 24.3855 50.245 24.4399 50.1051 24.4399C49.9652 24.4399 49.8307 24.3855 49.7301 24.2883C49.6808 24.2391 49.6417 24.1808 49.615 24.1165C49.5883 24.0521 49.5746 23.983 49.5746 23.9133C49.5746 23.8437 49.5883 23.7748 49.615 23.7104C49.6417 23.6461 49.6808 23.5876 49.7301 23.5383L54.1701 19.2285L52.8201 17.8784C52.2856 17.3556 51.5677 17.0627 50.8201 17.0627C50.0724 17.0627 49.3545 17.3556 48.8201 17.8784L47.4301 19.2783C47.3289 19.3789 47.1927 19.4364 47.0501 19.4385C46.9809 19.4378 46.9125 19.4232 46.8489 19.3958C46.7854 19.3683 46.728 19.3283 46.6801 19.2783L46.0601 18.6685C45.7284 18.3353 45.3341 18.0708 44.8999 17.8904C44.4658 17.71 44.0002 17.6172 43.5301 17.6172C43.0599 17.6172 42.5944 17.71 42.1602 17.8904C41.7261 18.0708 41.3318 18.3353 41.0001 18.6685L40.3901 19.2783C40.2894 19.3755 40.155 19.4299 40.0151 19.4299C39.8752 19.4299 39.7407 19.3755 39.6401 19.2783L38.2401 17.8784C37.9787 17.6136 37.6673 17.4033 37.3239 17.2598C36.9806 17.1162 36.6122 17.0422 36.2401 17.0422C35.868 17.0422 35.4995 17.1162 35.1562 17.2598C34.8129 17.4033 34.5015 17.6136 34.2401 17.8784L32.8901 19.2285L37.3301 23.5383C37.3794 23.5876 37.4185 23.6461 37.4451 23.7104C37.4718 23.7748 37.4855 23.8437 37.4855 23.9133C37.4855 23.983 37.4718 24.0521 37.4451 24.1165C37.4185 24.1808 37.3794 24.2391 37.3301 24.2883C37.2673 24.357 37.1882 24.4087 37.1001 24.4385Z" fill="#333333"/>
<path d="M55.38 38.4102L55.3 38.3L51.35 31.9102C52.35 36.1002 54.19 40.2501 54.24 44.5601C54.2711 47.9492 53.1969 51.2563 51.18 53.9802L50.77 54.4902H50.9C52.2628 54.5072 53.6029 54.1412 54.7679 53.4341C55.933 52.7269 56.8761 51.707 57.49 50.4902C58.0027 49.4708 58.3053 48.3588 58.38 47.2202C58.3548 44.0371 57.3026 40.9471 55.38 38.4102Z" fill="#235AB0"/>
<path d="M48.36 42.3007L47.57 46.6208C47.57 46.7208 47.5 46.8208 47.46 46.9208C47.41 47.025 47.3424 47.1198 47.26 47.2008C47.1649 47.2945 47.0481 47.3632 46.92 47.4008C46.7389 47.4576 46.5498 47.4847 46.36 47.4809C46.1768 47.4849 45.9942 47.4578 45.82 47.4008C45.696 47.3498 45.5811 47.2789 45.48 47.1908C45.3992 47.1145 45.3346 47.0226 45.29 46.9208C45.2415 46.8244 45.2013 46.724 45.17 46.6208L44.25 42.3007H42.65L41.76 46.6208C41.76 46.7208 41.69 46.8208 41.65 46.9208C41.6017 47.0231 41.5338 47.1148 41.45 47.1908C41.3489 47.2789 41.234 47.3498 41.11 47.4008C40.9358 47.4578 40.7532 47.4849 40.57 47.4809C40.3802 47.4855 40.1909 47.4584 40.01 47.4008C39.8819 47.3632 39.7651 47.2945 39.67 47.2008C39.5877 47.1198 39.52 47.025 39.47 46.9208C39.47 46.8208 39.39 46.7208 39.36 46.6208L38.56 42.3007H37.26C37.1465 42.3045 37.0358 42.2653 36.95 42.1908C36.9056 42.1486 36.8709 42.0972 36.8485 42.0402C36.826 41.9832 36.8163 41.9219 36.82 41.8607C36.8149 41.8009 36.824 41.7408 36.8465 41.6852C36.8691 41.6296 36.9046 41.58 36.95 41.5407C36.9913 41.5019 37.0401 41.4722 37.0935 41.4533C37.1468 41.4343 37.2035 41.4268 37.26 41.4308H38.37L37.53 36.7907C37.45 36.5507 37.45 36.3807 37.53 36.2807C37.6045 36.1955 37.7016 36.1331 37.81 36.1007C37.9471 36.0602 38.0929 36.0602 38.23 36.1007C38.2947 36.1336 38.3514 36.1802 38.3963 36.2372C38.4412 36.2942 38.4732 36.3602 38.49 36.4308L39.37 41.4308H41.82L42.82 36.4308C42.8558 36.3108 42.9295 36.2055 43.03 36.1308C43.2358 36.0504 43.4642 36.0504 43.67 36.1308C43.7706 36.2055 43.8442 36.3108 43.88 36.4308L44.95 41.4308H47.4L48.29 36.4308C48.3086 36.361 48.3412 36.2957 48.3859 36.2389C48.4306 36.1822 48.4865 36.1351 48.55 36.1007C48.6871 36.0607 48.8329 36.0607 48.97 36.1007C49.0785 36.1331 49.1755 36.1955 49.25 36.2807C49.35 36.3807 49.35 36.5507 49.25 36.7907L48.39 41.4308H49.54C49.5964 41.4273 49.653 41.4353 49.7062 41.4543C49.7595 41.4732 49.8084 41.5024 49.85 41.5407C49.8954 41.58 49.9309 41.6296 49.9535 41.6852C49.9761 41.7408 49.9852 41.8009 49.98 41.8607C49.9837 41.9219 49.974 41.9832 49.9516 42.0402C49.9291 42.0972 49.8944 42.1486 49.85 42.1908C49.7633 42.2636 49.6532 42.3026 49.54 42.3007H48.36ZM40.57 46.5707C40.65 46.5707 40.7 46.5707 40.73 46.5707C40.7646 46.5328 40.7917 46.4888 40.81 46.4408L41.67 42.3507H39.59L40.31 46.4408C40.3332 46.4879 40.3711 46.5262 40.4181 46.5497C40.4651 46.5732 40.5184 46.5805 40.57 46.5707ZM42.83 41.4308H44.07L43.45 38.5109L42.83 41.4308ZM46.36 46.5707C46.4181 46.5796 46.4775 46.5661 46.5258 46.5326C46.5742 46.4991 46.6079 46.4483 46.62 46.3908L47.35 42.3007H45.26L46.15 46.3908C46.1683 46.4387 46.1954 46.4827 46.23 46.5207C46.23 46.5207 46.26 46.5707 46.36 46.5707Z" fill="#333333"/>
<path d="M46.36 47.6802C46.152 47.6887 45.9444 47.6546 45.75 47.5801C45.6065 47.5356 45.4741 47.4609 45.362 47.3608C45.2499 47.2608 45.1605 47.1378 45.1 47.0002C45.0513 46.897 45.0112 46.79 44.98 46.6802L44.09 42.5002H42.81L41.96 46.6602C41.9244 46.7763 41.881 46.89 41.83 47.0002C41.7695 47.1378 41.6801 47.2608 41.568 47.3608C41.4558 47.4609 41.3235 47.5356 41.18 47.5801C40.9856 47.6546 40.778 47.6887 40.57 47.6802C40.3564 47.6864 40.1433 47.6559 39.94 47.5901C39.785 47.5413 39.6443 47.4555 39.53 47.3401C39.424 47.2476 39.3417 47.1311 39.29 47.0002C39.2413 46.897 39.2012 46.79 39.17 46.6802L38.39 42.5002H37.26C37.0954 42.504 36.9353 42.4469 36.81 42.3401C36.7457 42.2784 36.6954 42.2037 36.6627 42.1208C36.6299 42.038 36.6153 41.9491 36.62 41.8601C36.614 41.7725 36.628 41.6847 36.6609 41.6033C36.6938 41.5219 36.7448 41.449 36.81 41.3901C36.9343 41.2805 37.0943 41.2202 37.26 41.2202H38.13L37.33 36.8301C37.2756 36.7189 37.2551 36.5944 37.2711 36.4717C37.2871 36.349 37.3389 36.2336 37.42 36.1401C37.5196 36.0237 37.652 35.94 37.8 35.9001C37.9723 35.8444 38.1577 35.8444 38.33 35.9001C38.4227 35.9396 38.5052 35.9997 38.571 36.0759C38.6369 36.1522 38.6844 36.2426 38.71 36.3401L39.57 41.2002H41.68L42.68 36.3701C42.7258 36.1957 42.8322 36.0434 42.98 35.9402C43.1116 35.8793 43.2549 35.8477 43.4 35.8477C43.545 35.8477 43.6884 35.8793 43.82 35.9402C43.9607 36.0375 44.0659 36.1778 44.12 36.3401L45.12 41.2002H47.24L48.1 36.3701C48.1239 36.2668 48.1715 36.1705 48.2393 36.0889C48.307 36.0073 48.3928 35.9427 48.49 35.9001C48.6655 35.8436 48.8545 35.8436 49.03 35.9001C49.1757 35.945 49.3068 36.0279 49.41 36.1401C49.4885 36.2393 49.5368 36.359 49.5492 36.4849C49.5616 36.6107 49.5376 36.7375 49.48 36.8501L48.67 41.2202H49.58C49.743 41.2188 49.9003 41.2795 50.02 41.3901C50.0864 41.4485 50.1389 41.5209 50.1735 41.6023C50.2081 41.6836 50.224 41.7718 50.22 41.8601C50.2234 41.9498 50.2073 42.0392 50.1727 42.1221C50.1382 42.2049 50.0861 42.2793 50.02 42.3401C49.8993 42.448 49.7418 42.5054 49.58 42.5002H48.43L47.68 46.6602C47.6444 46.7763 47.601 46.89 47.55 47.0002C47.4874 47.1393 47.3963 47.2636 47.2826 47.3652C47.1689 47.4669 47.0352 47.5434 46.89 47.5901C46.7187 47.6457 46.5401 47.6761 46.36 47.6802ZM42.49 42.1001H44.41L45.41 46.5801C45.4379 46.6687 45.4713 46.7556 45.51 46.8401C45.5412 46.9218 45.5928 46.9941 45.66 47.05C45.741 47.1173 45.8321 47.1714 45.93 47.2102C46.2569 47.3025 46.6031 47.3025 46.93 47.2102C47.0311 47.1783 47.1235 47.1234 47.2 47.05C47.2652 46.9861 47.3193 46.9118 47.36 46.8301C47.36 46.7401 47.43 46.64 47.46 46.55L48.27 42.0901H49.75C49.8152 42.0916 49.8788 42.0704 49.93 42.03C49.972 41.9797 49.9934 41.9155 49.99 41.8501C49.992 41.8192 49.9877 41.7882 49.9773 41.759C49.967 41.7298 49.9509 41.703 49.93 41.6802C49.906 41.6579 49.8775 41.641 49.8465 41.6306C49.8154 41.6203 49.7825 41.6167 49.75 41.6201H48.26L49.17 36.7402C49.23 36.5402 49.17 36.4402 49.17 36.4102C49.1193 36.3507 49.0537 36.3057 48.98 36.28C48.8823 36.25 48.7777 36.25 48.68 36.28C48.6087 36.3256 48.5584 36.3977 48.54 36.4802L47.62 41.6201H44.85L43.74 36.4602C43.7216 36.391 43.679 36.3306 43.62 36.29C43.5578 36.273 43.4922 36.273 43.43 36.29C43.3546 36.2701 43.2754 36.2701 43.2 36.29C43.1346 36.3394 43.0886 36.4104 43.07 36.4902L41.99 41.6201H39.26L38.36 36.4502C38.3317 36.3806 38.2828 36.3212 38.22 36.28C38.1223 36.25 38.0177 36.25 37.92 36.28C37.8463 36.3057 37.7807 36.3507 37.73 36.4102C37.73 36.4102 37.73 36.5402 37.73 36.7202L38.62 41.6201H37.26C37.2274 41.6161 37.1943 41.6193 37.1632 41.6296C37.132 41.64 37.1036 41.6574 37.08 41.6802C37.08 41.6802 37.02 41.7501 37.02 41.8501C37.0159 41.8827 37.0192 41.9159 37.0296 41.947C37.04 41.9782 37.0572 42.0064 37.08 42.03C37.1303 42.072 37.1946 42.0935 37.26 42.0901H38.71L39.54 46.5701C39.564 46.6587 39.5941 46.7456 39.63 46.8301C39.6707 46.9118 39.7248 46.9861 39.79 47.05C39.8665 47.1234 39.9589 47.1783 40.06 47.2102C40.3869 47.3025 40.7331 47.3025 41.06 47.2102C41.1579 47.1714 41.249 47.1173 41.33 47.05C41.3972 46.9941 41.4488 46.9218 41.48 46.8401C41.5253 46.7504 41.5621 46.6566 41.59 46.5601L42.49 42.1001ZM46.36 46.77C46.3027 46.7741 46.2452 46.7656 46.1916 46.7449C46.138 46.7241 46.0896 46.6918 46.05 46.6501C46.0018 46.598 45.9645 46.5369 45.94 46.4702L44.94 42.1001H47.54L46.78 46.4302C46.7578 46.5255 46.7044 46.6105 46.6283 46.6721C46.5523 46.7337 46.4579 46.7681 46.36 46.77ZM46.36 46.3501H46.42L47.11 42.4902H45.48L46.32 46.3401L46.36 46.3501ZM40.61 46.77C40.5076 46.7797 40.4052 46.7515 40.3223 46.6907C40.2393 46.6298 40.1816 46.5408 40.16 46.4402L39.39 42.1001H41.96L41.04 46.4302C41.0216 46.5134 40.98 46.5897 40.92 46.6501C40.8762 46.6976 40.8212 46.7334 40.7601 46.7544C40.699 46.7753 40.6337 46.7806 40.57 46.77H40.61ZM39.86 42.5002L40.55 46.3601H40.65C40.65 46.3601 40.65 46.3601 40.65 46.3101L41.45 42.4902L39.86 42.5002ZM44.36 41.6301H42.62L43.49 37.55L44.36 41.6301ZM43.12 41.2202H43.86L43.49 39.4702L43.12 41.2202Z" fill="#333333"/>
</g>
<defs>
<clipPath id="clip0_485_97217">
<rect width="47.85" height="61.94" fill="white" transform="translate(21 16)"/>
</clipPath>
</defs>
</svg>
