<svg width="100" height="100" viewBox="0 0 100 100" fill="none" xmlns="http://www.w3.org/2000/svg">
<circle cx="50" cy="50" r="50" fill="#F2F6FB"/>
<g clip-path="url(#clip0_1989_378906)">
<path d="M63.56 38.5586H35.5V72.1986H63.56V38.5586Z" fill="white"/>
<path d="M58.7503 28.8594H40.0703V38.2494H58.7503V28.8594Z" fill="white"/>
<path d="M44.3398 52.0312H43.3398V53.5512H44.3398V52.0312Z" fill="#235AB0"/>
<path d="M44.3398 47.2812H43.3398V48.7913H44.3398V47.2812Z" fill="#235AB0"/>
<path d="M44.3398 42.7305H43.3398V44.2505H44.3398V42.7305Z" fill="#235AB0"/>
<path d="M49.9609 52.0312H48.9609V53.5512H49.9609V52.0312Z" fill="#235AB0"/>
<path d="M49.9609 47.2812H48.9609V48.7913H49.9609V47.2812Z" fill="#235AB0"/>
<path d="M49.9609 42.7305H48.9609V44.2505H49.9609V42.7305Z" fill="#235AB0"/>
<path d="M55.5195 52.0312H54.5195V53.5512H55.5195V52.0312Z" fill="#235AB0"/>
<path d="M55.5195 47.2812H54.5195V48.7913H55.5195V47.2812Z" fill="#235AB0"/>
<path d="M55.5195 42.7305H54.5195V44.2505H55.5195V42.7305Z" fill="#235AB0"/>
<path d="M44.3398 66.0703H43.3398V67.5903H44.3398V66.0703Z" fill="#235AB0"/>
<path d="M44.3398 61.3203H43.3398V62.8303H44.3398V61.3203Z" fill="#235AB0"/>
<path d="M44.3398 56.7695H43.3398V58.2895H44.3398V56.7695Z" fill="#235AB0"/>
<path d="M49.9609 66.0703H48.9609V67.5903H49.9609V66.0703Z" fill="#235AB0"/>
<path d="M49.9609 61.3203H48.9609V62.8303H49.9609V61.3203Z" fill="#235AB0"/>
<path d="M49.9609 56.7695H48.9609V58.2895H49.9609V56.7695Z" fill="#235AB0"/>
<path d="M55.5502 66.0703H54.4902V67.5903H55.5502V66.0703Z" fill="#235AB0"/>
<path d="M55.5502 61.3203H54.4902V62.8303H55.5502V61.3203Z" fill="#235AB0"/>
<path d="M55.5502 56.7695H54.4902V58.2895H55.5502V56.7695Z" fill="#235AB0"/>
<path d="M59.0798 38.78C59.0102 38.78 58.9413 38.7664 58.877 38.7397C58.8127 38.7131 58.7542 38.674 58.705 38.6248C58.6558 38.5755 58.6168 38.5172 58.5901 38.4529C58.5635 38.3886 58.5498 38.3196 58.5498 38.25V29.8701C58.5498 29.6553 58.4645 29.4493 58.3126 29.2974C58.1607 29.1455 57.9546 29.0601 57.7398 29.0601H41.1298C40.9149 29.0601 40.7089 29.1455 40.557 29.2974C40.4051 29.4493 40.3198 29.6553 40.3198 29.8701V38.25C40.3198 38.3196 40.3061 38.3886 40.2794 38.4529C40.2528 38.5172 40.2138 38.5755 40.1646 38.6248C40.1153 38.674 40.0569 38.7131 39.9926 38.7397C39.9283 38.7664 39.8594 38.78 39.7898 38.78C39.7202 38.78 39.6513 38.7664 39.587 38.7397C39.5227 38.7131 39.4643 38.674 39.415 38.6248C39.3658 38.5755 39.3267 38.5172 39.3001 38.4529C39.2735 38.3886 39.2598 38.3196 39.2598 38.25V29.8701C39.2598 29.3742 39.4568 28.8985 39.8075 28.5479C40.1582 28.1972 40.6338 28 41.1298 28H57.7398C58.2358 28 58.7114 28.1972 59.0621 28.5479C59.4128 28.8985 59.6098 29.3742 59.6098 29.8701V38.25C59.6098 38.3196 59.5961 38.3886 59.5695 38.4529C59.5428 38.5172 59.5037 38.5755 59.4545 38.6248C59.4053 38.674 59.3469 38.7131 59.2826 38.7397C59.2183 38.7664 59.1494 38.78 59.0798 38.78Z" fill="#333333"/>
<path d="M55.9095 31.6992H42.9395V35.0692H55.9095V31.6992Z" fill="#235AB0"/>
<path d="M56.5801 61.3209L58.7501 59.9609L60.0001 61.7909L57.8601 63.3109L56.5801 61.3209Z" fill="white"/>
<path d="M62.77 72.6987H36.29C35.9479 72.6987 35.6198 72.5627 35.3779 72.3208C35.1359 72.0789 35 71.7508 35 71.4087V39.3486C35 39.0065 35.1359 38.6784 35.3779 38.4365C35.6198 38.1946 35.9479 38.0586 36.29 38.0586H62.77C63.1121 38.0586 63.4403 38.1946 63.6822 38.4365C63.9241 38.6784 64.06 39.0065 64.06 39.3486V71.4087C64.06 71.7508 63.9241 72.0789 63.6822 72.3208C63.4403 72.5627 63.1121 72.6987 62.77 72.6987ZM36.29 39.1086C36.2131 39.1086 36.1393 39.1392 36.085 39.1936C36.0306 39.248 36 39.3218 36 39.3987V71.4587C36 71.5357 36.0306 71.6094 36.085 71.6638C36.1393 71.7182 36.2131 71.7485 36.29 71.7485H62.77C62.8085 71.7499 62.8468 71.7436 62.8826 71.7295C62.9184 71.7154 62.951 71.694 62.9782 71.6667C63.0054 71.6395 63.0267 71.6071 63.0408 71.5713C63.0548 71.5355 63.0614 71.4972 63.06 71.4587V39.3987C63.0614 39.3602 63.0548 39.322 63.0408 39.2861C63.0267 39.2503 63.0054 39.2176 62.9782 39.1904C62.951 39.1632 62.9184 39.142 62.8826 39.1279C62.8468 39.1139 62.8085 39.1072 62.77 39.1086H36.29Z" fill="#333333"/>
<path d="M60 59.3016H67.63V54.3516L76.16 62.8816L67.72 71.3116V65.5016H60V59.3016Z" fill="#235AB0"/>
<path d="M67.23 72.5193V65.9893H59.5V58.7893H67.14V53.1094L76.87 62.8494L67.23 72.5193ZM60.5 64.9893H68.23V70.1094L75.45 62.8894L68.14 55.5693V59.7993H60.5V64.9893Z" fill="#333333"/>
</g>
<defs>
<clipPath id="clip0_1989_378906">
<rect width="41.86" height="44.7" fill="white" transform="translate(35 28)"/>
</clipPath>
</defs>
</svg>
