<svg width="104" height="100" viewBox="0 0 104 100" fill="none" xmlns="http://www.w3.org/2000/svg">
<ellipse cx="51.625" cy="50" rx="51.625" ry="50" fill="#F2F6FB"/>
<g clip-path="url(#clip0_1601_299310)">
<path d="M64.1401 39.5605H36.0801V73.2005H64.1401V39.5605Z" fill="white"/>
<path d="M59.3304 29.8594H40.6504V39.2494H59.3304V29.8594Z" fill="white"/>
<path d="M44.9199 53.0293H43.9199V54.5493H44.9199V53.0293Z" fill="#235AB0"/>
<path d="M44.9199 48.2793H43.9199V49.7893H44.9199V48.2793Z" fill="#235AB0"/>
<path d="M44.9199 43.7305H43.9199V45.2505H44.9199V43.7305Z" fill="#235AB0"/>
<path d="M50.5391 53.0293H49.5391V54.5493H50.5391V53.0293Z" fill="#235AB0"/>
<path d="M50.5391 48.2793H49.5391V49.7893H50.5391V48.2793Z" fill="#235AB0"/>
<path d="M50.5391 43.7305H49.5391V45.2505H50.5391V43.7305Z" fill="#235AB0"/>
<path d="M56.0996 53.0293H55.0996V54.5493H56.0996V53.0293Z" fill="#235AB0"/>
<path d="M56.0996 48.2793H55.0996V49.7893H56.0996V48.2793Z" fill="#235AB0"/>
<path d="M56.0996 43.7305H55.0996V45.2505H56.0996V43.7305Z" fill="#235AB0"/>
<path d="M44.9199 67.0703H43.9199V68.5903H44.9199V67.0703Z" fill="#235AB0"/>
<path d="M44.9199 62.3203H43.9199V63.8303H44.9199V62.3203Z" fill="#235AB0"/>
<path d="M44.9199 57.7695H43.9199V59.2895H44.9199V57.7695Z" fill="#235AB0"/>
<path d="M50.5391 67.0703H49.5391V68.5903H50.5391V67.0703Z" fill="#235AB0"/>
<path d="M50.5391 62.3203H49.5391V63.8303H50.5391V62.3203Z" fill="#235AB0"/>
<path d="M50.5391 57.7695H49.5391V59.2895H50.5391V57.7695Z" fill="#235AB0"/>
<path d="M56.1303 67.0703H55.0703V68.5903H56.1303V67.0703Z" fill="#344154"/>
<path d="M56.1303 62.3203H55.0703V63.8303H56.1303V62.3203Z" fill="#344154"/>
<path d="M56.1303 57.7695H55.0703V59.2895H56.1303V57.7695Z" fill="#344154"/>
<path d="M58.99 74.2795H37.41C36.7709 74.2795 36.1578 74.0257 35.7059 73.5737C35.2539 73.1218 35 72.5088 35 71.8696V40.6797C34.9998 40.1578 35.2037 39.6564 35.568 39.2827C35.9323 38.909 36.4283 38.6927 36.95 38.6797H63.06C63.5904 38.6797 64.0992 38.8903 64.4742 39.2654C64.8493 39.6405 65.06 40.1493 65.06 40.6797V57.7795C65.06 57.8487 65.0463 57.9172 65.0195 57.981C64.9928 58.0447 64.9535 58.1025 64.9042 58.1509C64.8548 58.1993 64.7964 58.2374 64.7321 58.2629C64.6679 58.2885 64.5992 58.3009 64.53 58.2996C64.4609 58.3009 64.3922 58.2885 64.3279 58.2629C64.2637 58.2374 64.2052 58.1993 64.1558 58.1509C64.1065 58.1025 64.0673 58.0447 64.0405 57.981C64.0138 57.9172 64 57.8487 64 57.7795V40.6797C64 40.441 63.9052 40.212 63.7364 40.0432C63.5676 39.8744 63.3387 39.7795 63.1 39.7795H36.99C36.7521 39.7821 36.5247 39.8779 36.3565 40.0461C36.1883 40.2144 36.0926 40.4418 36.09 40.6797V71.8696C36.09 72.0478 36.1253 72.2242 36.1937 72.3887C36.2622 72.5531 36.3625 72.7024 36.489 72.8279C36.6154 72.9534 36.7654 73.0524 36.9303 73.1196C37.0952 73.1869 37.2719 73.221 37.45 73.2197H59.03C59.1706 73.2197 59.3054 73.2754 59.4048 73.3748C59.5042 73.4742 59.56 73.6089 59.56 73.7495C59.5602 73.8226 59.5453 73.8951 59.5162 73.9622C59.4871 74.0292 59.4445 74.0894 59.3909 74.1392C59.3374 74.1889 59.2741 74.2273 59.2051 74.2515C59.1361 74.2756 59.0629 74.2851 58.99 74.2795Z" fill="#333333"/>
<path d="M59.6501 39.78C59.5805 39.78 59.5116 39.7664 59.4473 39.7397C59.383 39.7131 59.3245 39.674 59.2753 39.6248C59.2261 39.5755 59.187 39.5172 59.1604 39.4529C59.1338 39.3886 59.1201 39.3196 59.1201 39.25V30.8701C59.1201 30.6553 59.0347 30.4493 58.8828 30.2974C58.7309 30.1455 58.5249 30.0601 58.3101 30.0601H41.7101C41.4943 30.06 41.2873 30.145 41.1338 30.2966C40.9803 30.4483 40.8927 30.6544 40.8901 30.8701V39.25C40.8914 39.32 40.8786 39.3897 40.8525 39.4546C40.8263 39.5195 40.7873 39.5784 40.7379 39.6279C40.6884 39.6774 40.6294 39.7163 40.5645 39.7424C40.4996 39.7686 40.4301 39.7814 40.3601 39.78C40.2905 39.78 40.2216 39.7664 40.1573 39.7397C40.093 39.7131 40.0345 39.674 39.9853 39.6248C39.9361 39.5755 39.8971 39.5172 39.8704 39.4529C39.8438 39.3886 39.8301 39.3196 39.8301 39.25V30.8701C39.8327 30.3732 40.0319 29.8975 40.3842 29.5471C40.7365 29.1967 41.2132 29 41.7101 29H58.2701C58.766 29 59.2417 29.1972 59.5923 29.5479C59.943 29.8985 60.1401 30.3742 60.1401 30.8701V39.25C60.1429 39.3846 60.0934 39.5152 60.002 39.614C59.9106 39.7129 59.7845 39.7723 59.6501 39.78Z" fill="#333333"/>
<path d="M56.4993 32.6992H43.5293V36.0692H56.4993V32.6992Z" fill="#235AB0"/>
<path d="M63.1794 75.3705C69.017 75.3705 73.7494 70.6381 73.7494 64.8005C73.7494 58.9628 69.017 54.2305 63.1794 54.2305C57.3417 54.2305 52.6094 58.9628 52.6094 64.8005C52.6094 70.6381 57.3417 75.3705 63.1794 75.3705Z" fill="#235AB0"/>
<path d="M63.1696 75.8804C60.2353 75.8751 57.4227 74.707 55.3478 72.6321C53.2729 70.5572 52.1049 67.7446 52.0996 64.8103C52.1023 61.8743 53.2691 59.0592 55.3442 56.9822C57.4194 54.9051 60.2336 53.7358 63.1696 53.7305C64.626 53.7292 66.0683 54.0147 67.4143 54.5708C68.7603 55.1269 69.9836 55.9426 71.0143 56.9714C72.0451 58.0003 72.863 59.2221 73.4216 60.5671C73.9801 61.9121 74.2683 63.3539 74.2696 64.8103C74.2643 67.7498 73.0922 70.5671 71.0108 72.6428C68.9294 74.7186 66.1091 75.883 63.1696 75.8804ZM63.1696 54.7305C60.4988 54.7358 57.939 55.7997 56.0513 57.6892C54.1637 59.5787 53.1023 62.1395 53.0996 64.8103C53.1023 67.4802 54.164 70.0401 56.0519 71.928C57.9399 73.8159 60.4997 74.8777 63.1696 74.8804C64.4942 74.883 65.8063 74.6246 67.0309 74.1199C68.2555 73.6151 69.3686 72.8739 70.3066 71.9387C71.2446 71.0035 71.9891 69.8926 72.4975 68.6694C73.0059 67.4463 73.2683 66.1349 73.2696 64.8103C73.2683 63.4853 73.006 62.1736 72.4977 60.95C71.9895 59.7263 71.2451 58.6145 70.3073 57.6785C69.3694 56.7425 68.2563 56.0005 67.0316 55.4946C65.8069 54.9888 64.4947 54.7292 63.1696 54.7305Z" fill="#333333"/>
<path d="M59.7495 71.2293L56.7695 63.8393L58.1595 63.2793L60.2295 68.4293L68.3295 59.2793L69.4495 60.2693L59.7495 71.2293Z" fill="white"/>
</g>
<defs>
<clipPath id="clip0_1601_299310">
<rect width="39.25" height="46.87" fill="white" transform="translate(35 29)"/>
</clipPath>
</defs>
</svg>
