<svg width="100" height="100" viewBox="0 0 100 100" fill="none" xmlns="http://www.w3.org/2000/svg">
<circle cx="50" cy="50" r="50" fill="#F2F6FB"/>
<g clip-path="url(#clip0_1102_180982)">
<path d="M63.1381 37.5596H35.0781V71.1996H63.1381V37.5596Z" fill="white"/>
<path d="M58.3284 27.8604H39.6484V37.2504H58.3284V27.8604Z" fill="white"/>
<path d="M43.9219 51.0303H42.9219V52.5503H43.9219V51.0303Z" fill="#235AB0"/>
<path d="M43.9219 46.2803H42.9219V47.7903H43.9219V46.2803Z" fill="#235AB0"/>
<path d="M43.9219 41.7305H42.9219V43.2505H43.9219V41.7305Z" fill="#235AB0"/>
<path d="M49.5391 51.0303H48.5391V52.5503H49.5391V51.0303Z" fill="#235AB0"/>
<path d="M49.5391 46.2803H48.5391V47.7903H49.5391V46.2803Z" fill="#235AB0"/>
<path d="M49.5391 41.7305H48.5391V43.2505H49.5391V41.7305Z" fill="#235AB0"/>
<path d="M55.1016 51.0303H54.1016V52.5503H55.1016V51.0303Z" fill="#235AB0"/>
<path d="M55.1016 46.2803H54.1016V47.7903H55.1016V46.2803Z" fill="#235AB0"/>
<path d="M55.1016 41.7305H54.1016V43.2505H55.1016V41.7305Z" fill="#235AB0"/>
<path d="M43.9219 65.0703H42.9219V66.5903H43.9219V65.0703Z" fill="#235AB0"/>
<path d="M43.9219 60.3203H42.9219V61.8303H43.9219V60.3203Z" fill="#235AB0"/>
<path d="M43.9219 55.7695H42.9219V57.2895H43.9219V55.7695Z" fill="#235AB0"/>
<path d="M49.5391 65.0703H48.5391V66.5903H49.5391V65.0703Z" fill="#235AB0"/>
<path d="M49.5391 60.3203H48.5391V61.8303H49.5391V60.3203Z" fill="#235AB0"/>
<path d="M49.5391 55.7695H48.5391V57.2895H49.5391V55.7695Z" fill="#235AB0"/>
<path d="M55.1303 65.0703H54.0703V66.5903H55.1303V65.0703Z" fill="#344154"/>
<path d="M55.1303 60.3203H54.0703V61.8303H55.1303V60.3203Z" fill="#344154"/>
<path d="M55.1303 55.7695H54.0703V57.2895H55.1303V55.7695Z" fill="#344154"/>
<path d="M57.99 72.2795H36.41C35.7709 72.2795 35.1578 72.0257 34.7059 71.5737C34.2539 71.1218 34 70.5088 34 69.8696V38.6797C33.9998 38.1578 34.2037 37.6564 34.568 37.2827C34.9323 36.909 35.4283 36.6927 35.95 36.6797H62.06C62.5904 36.6797 63.0992 36.8903 63.4742 37.2654C63.8493 37.6405 64.06 38.1493 64.06 38.6797V55.7795C64.06 55.8487 64.0463 55.9172 64.0195 55.981C63.9928 56.0447 63.9535 56.1025 63.9042 56.1509C63.8548 56.1993 63.7964 56.2374 63.7321 56.2629C63.6679 56.2885 63.5992 56.3009 63.53 56.2996C63.4609 56.3009 63.3922 56.2885 63.3279 56.2629C63.2637 56.2374 63.2052 56.1993 63.1558 56.1509C63.1065 56.1025 63.0673 56.0447 63.0405 55.981C63.0138 55.9172 63 55.8487 63 55.7795V38.6797C63 38.441 62.9052 38.212 62.7364 38.0432C62.5676 37.8744 62.3387 37.7795 62.1 37.7795H35.99C35.7521 37.7821 35.5247 37.8779 35.3565 38.0461C35.1883 38.2144 35.0926 38.4418 35.09 38.6797V69.8696C35.09 70.0478 35.1253 70.2242 35.1937 70.3887C35.2622 70.5531 35.3625 70.7024 35.489 70.8279C35.6154 70.9534 35.7654 71.0524 35.9303 71.1196C36.0952 71.1869 36.2719 71.221 36.45 71.2197H58.03C58.1706 71.2197 58.3054 71.2754 58.4048 71.3748C58.5042 71.4742 58.56 71.6089 58.56 71.7495C58.5602 71.8226 58.5453 71.8951 58.5162 71.9622C58.4871 72.0292 58.4445 72.0894 58.3909 72.1392C58.3374 72.1889 58.2741 72.2273 58.2051 72.2515C58.1361 72.2756 58.0629 72.2851 57.99 72.2795Z" fill="#333333"/>
<path d="M58.6481 37.78C58.5785 37.78 58.5096 37.7664 58.4453 37.7397C58.381 37.7131 58.3226 37.674 58.2734 37.6248C58.2242 37.5755 58.1851 37.5172 58.1584 37.4529C58.1318 37.3886 58.1181 37.3196 58.1181 37.25V28.8701C58.1181 28.6553 58.0328 28.4493 57.8809 28.2974C57.729 28.1455 57.5229 28.0601 57.3081 28.0601H40.7081C40.4924 28.06 40.2853 28.145 40.1318 28.2966C39.9783 28.4483 39.8908 28.6544 39.8881 28.8701V37.25C39.8895 37.32 39.8767 37.3897 39.8505 37.4546C39.8244 37.5195 39.7854 37.5784 39.7359 37.6279C39.6864 37.6774 39.6275 37.7163 39.5626 37.7424C39.4976 37.7686 39.4281 37.7814 39.3582 37.78C39.2886 37.78 39.2196 37.7664 39.1553 37.7397C39.091 37.7131 39.0326 37.674 38.9833 37.6248C38.9341 37.5755 38.8951 37.5172 38.8685 37.4529C38.8418 37.3886 38.8281 37.3196 38.8281 37.25V28.8701C38.8308 28.3732 39.03 27.8975 39.3823 27.5471C39.7345 27.1967 40.2113 27 40.7081 27H57.2681C57.7641 27 58.2397 27.1972 58.5904 27.5479C58.9411 27.8985 59.1381 28.3742 59.1381 28.8701V37.25C59.1409 37.3846 59.0914 37.5152 59.0001 37.614C58.9087 37.7129 58.7825 37.7723 58.6481 37.78Z" fill="#333333"/>
<path d="M55.5013 30.7002H42.5312V34.0702H55.5013V30.7002Z" fill="#235AB0"/>
<path d="M62.1794 73.3705C68.017 73.3705 72.7494 68.6381 72.7494 62.8005C72.7494 56.9628 68.017 52.2305 62.1794 52.2305C56.3417 52.2305 51.6094 56.9628 51.6094 62.8005C51.6094 68.6381 56.3417 73.3705 62.1794 73.3705Z" fill="#235AB0"/>
<path d="M62.1716 73.8804C59.2372 73.8751 56.4246 72.707 54.3497 70.6321C52.2748 68.5572 51.1068 65.7446 51.1016 62.8103C51.1042 59.8743 52.271 57.0592 54.3462 54.9822C56.4214 52.9051 59.2355 51.7358 62.1716 51.7305C63.6279 51.7292 65.0703 52.0147 66.4163 52.5708C67.7623 53.1269 68.9856 53.9426 70.0163 54.9714C71.047 56.0003 71.865 57.2221 72.4235 58.5671C72.9821 59.9121 73.2702 61.3539 73.2715 62.8103C73.2662 65.7498 72.0941 68.5671 70.0128 70.6428C67.9314 72.7186 65.1111 73.883 62.1716 73.8804ZM62.1716 52.7305C59.5007 52.7358 56.9409 53.7997 55.0533 55.6892C53.1657 57.5787 52.1042 60.1395 52.1016 62.8103C52.1042 65.4802 53.166 68.0401 55.0539 69.928C56.9418 71.8159 59.5017 72.8777 62.1716 72.8804C63.4961 72.883 64.8082 72.6246 66.0328 72.1199C67.2575 71.6151 68.3706 70.8739 69.3086 69.9387C70.2466 69.0035 70.991 67.8926 71.4995 66.6694C72.0079 65.4463 72.2702 64.1349 72.2715 62.8103C72.2702 61.4853 72.008 60.1736 71.4997 58.95C70.9914 57.7263 70.2471 56.6145 69.3092 55.6785C68.3713 54.7425 67.2582 54.0005 66.0336 53.4946C64.8089 52.9888 63.4966 52.7292 62.1716 52.7305Z" fill="#333333"/>
<path d="M58.7495 69.2303L55.7695 61.8403L57.1595 61.2803L59.2295 66.4303L67.3295 57.2803L68.4495 58.2703L58.7495 69.2303Z" fill="white"/>
</g>
<defs>
<clipPath id="clip0_1102_180982">
<rect width="39.25" height="46.87" fill="white" transform="translate(34 27)"/>
</clipPath>
</defs>
</svg>
