<svg width="91" height="90" viewBox="0 0 91 90" fill="none" xmlns="http://www.w3.org/2000/svg">
<circle cx="46" cy="45" r="45" fill="#FAFAFA"/>
<g clip-path="url(#clip0_1988_380526)">
<path d="M46.4978 45.518C53.4497 45.518 59.0854 39.8823 59.0854 32.9304C59.0854 25.9784 53.4497 20.3428 46.4978 20.3428C39.5458 20.3428 33.9102 25.9784 33.9102 32.9304C33.9102 39.8823 39.5458 45.518 46.4978 45.518Z" fill="#235AB0"/>
<path d="M59.1145 33.2141H33.8722C33.7917 33.2122 33.715 33.1794 33.6581 33.1225C33.6011 33.0656 33.5683 32.9889 33.5664 32.9084C33.5664 32.8273 33.5986 32.7494 33.656 32.6921C33.7133 32.6348 33.7911 32.6025 33.8722 32.6025H59.1145C59.1956 32.6025 59.2734 32.6348 59.3307 32.6921C59.388 32.7494 59.4203 32.8273 59.4203 32.9084C59.4184 32.9889 59.3855 33.0656 59.3286 33.1225C59.2717 33.1794 59.195 33.2122 59.1145 33.2141Z" fill="#333333"/>
<path d="M46.4932 33.2517C46.4127 33.2498 46.3361 33.2168 46.2791 33.1599C46.2222 33.103 46.1894 33.0263 46.1875 32.9458V20.3135C46.1875 20.2324 46.2197 20.1547 46.277 20.0974C46.3344 20.04 46.4121 20.0078 46.4932 20.0078C46.5743 20.0078 46.6521 20.04 46.7094 20.0974C46.7668 20.1547 46.799 20.2324 46.799 20.3135V32.9458C46.799 33.0269 46.7668 33.1048 46.7094 33.1621C46.6521 33.2194 46.5743 33.2517 46.4932 33.2517Z" fill="#333333"/>
<path d="M59.1145 33.2662C59.0334 33.2662 58.9557 33.234 58.8983 33.1767C58.841 33.1193 58.8088 33.0415 58.8088 32.9604C58.8088 29.6924 57.5126 26.5578 55.2046 24.2442C52.8965 21.9305 49.7651 20.6269 46.4971 20.619C43.2298 20.6229 40.0975 21.9231 37.7878 24.2341C35.4782 26.5452 34.1799 29.6781 34.1779 32.9455C34.1779 33.0265 34.1457 33.1044 34.0884 33.1617C34.031 33.2191 33.9533 33.2513 33.8722 33.2513C33.7917 33.2494 33.715 33.2165 33.6581 33.1596C33.6011 33.1026 33.5683 33.026 33.5664 32.9455C33.5684 29.5153 34.9309 26.2259 37.355 23.799C39.7791 21.3721 43.0669 20.0059 46.4971 20C49.9279 20.0099 53.2149 21.3797 55.6374 23.8092C58.0599 26.2387 59.4203 29.5295 59.4203 32.9604C59.4203 33.0415 59.388 33.1193 59.3307 33.1767C59.2734 33.234 59.1956 33.2662 59.1145 33.2662Z" fill="#333333"/>
<path d="M39.7354 33.2139C39.6543 33.2139 39.5766 33.1817 39.5192 33.1243C39.4619 33.067 39.4297 32.9893 39.4297 32.9082C39.4297 27.032 41.7638 23.6315 43.725 21.8194C43.7529 21.7901 43.7864 21.7667 43.8236 21.7508C43.8608 21.7348 43.9008 21.7266 43.9412 21.7266C43.9817 21.7266 44.0217 21.7348 44.0589 21.7508C44.0961 21.7667 44.1296 21.7901 44.1575 21.8194C44.2131 21.8777 44.2441 21.9552 44.2441 22.0357C44.2441 22.1162 44.2131 22.1937 44.1575 22.252C42.2857 23.982 40.0561 27.2408 40.0561 32.8933C40.0571 32.9357 40.0495 32.9777 40.0338 33.0171C40.018 33.0565 39.9944 33.0924 39.9644 33.1223C39.9345 33.1523 39.8987 33.1758 39.8593 33.1915C39.82 33.2073 39.7778 33.2149 39.7354 33.2139Z" fill="#333333"/>
<path d="M53.2617 33.2143C53.1806 33.2143 53.1029 33.182 53.0455 33.1247C52.9882 33.0674 52.9559 32.9897 52.9559 32.9086C52.9559 27.2561 50.7188 23.9973 48.8545 22.2673C48.8252 22.2394 48.8018 22.2058 48.7859 22.1686C48.7699 22.1314 48.7617 22.0914 48.7617 22.051C48.7617 22.0105 48.7699 21.9705 48.7859 21.9334C48.8018 21.8962 48.8252 21.8626 48.8545 21.8347C48.8829 21.8063 48.9166 21.7838 48.9537 21.7684C48.9909 21.753 49.0306 21.7451 49.0708 21.7451C49.111 21.7451 49.1507 21.753 49.1878 21.7684C49.2249 21.7838 49.2587 21.8063 49.287 21.8347C51.2483 23.6542 53.5824 27.0548 53.5824 32.931C53.5766 33.0108 53.5398 33.085 53.4799 33.138C53.4199 33.191 53.3416 33.2184 53.2617 33.2143Z" fill="#333333"/>
<path d="M46.4908 27.8226C39.414 27.8226 37.5423 24.1536 37.4453 23.997C37.4276 23.9608 37.4171 23.9215 37.4146 23.8812C37.4122 23.841 37.4176 23.8006 37.4308 23.7625C37.444 23.7244 37.4646 23.6892 37.4914 23.6591C37.5182 23.629 37.5507 23.6045 37.587 23.587C37.6232 23.5692 37.6626 23.5587 37.7028 23.5562C37.7431 23.5538 37.7835 23.5593 37.8216 23.5725C37.8597 23.5856 37.8949 23.6061 37.925 23.6329C37.9551 23.6597 37.9796 23.6923 37.9971 23.7287C37.9971 23.7287 39.8242 27.2111 46.4908 27.2111C46.5719 27.2111 46.6497 27.2433 46.707 27.3006C46.7643 27.358 46.7966 27.4358 46.7966 27.5169C46.7966 27.598 46.7643 27.6757 46.707 27.733C46.6497 27.7904 46.5719 27.8226 46.4908 27.8226Z" fill="#333333"/>
<path d="M46.4971 27.8223C46.416 27.8223 46.3383 27.7901 46.2809 27.7327C46.2236 27.6754 46.1914 27.5977 46.1914 27.5166C46.1914 27.4355 46.2236 27.3577 46.2809 27.3003C46.3383 27.243 46.416 27.2108 46.4971 27.2108C53.2085 27.2108 54.9759 23.7582 54.9983 23.7283C55.015 23.6913 55.039 23.658 55.069 23.6306C55.099 23.6032 55.1344 23.5823 55.1728 23.569C55.2112 23.5558 55.2519 23.5505 55.2924 23.5536C55.3329 23.5566 55.3724 23.5679 55.4084 23.5867C55.4805 23.6234 55.5351 23.6872 55.5602 23.764C55.5854 23.8409 55.579 23.9245 55.5426 23.9967C55.468 24.1533 53.5739 27.8223 46.4971 27.8223Z" fill="#333333"/>
<path d="M46.4971 45.8913C46.416 45.8913 46.3383 45.8591 46.2809 45.8017C46.2236 45.7444 46.1914 45.6667 46.1914 45.5856V32.9531C46.1914 32.872 46.2236 32.7944 46.2809 32.737C46.3383 32.6797 46.416 32.6475 46.4971 32.6475C46.5782 32.6475 46.656 32.6797 46.7133 32.737C46.7707 32.7944 46.8029 32.872 46.8029 32.9531V45.5856C46.8029 45.6667 46.7707 45.7444 46.7133 45.8017C46.656 45.8591 46.5782 45.8913 46.4971 45.8913Z" fill="#333333"/>
<path d="M46.4971 45.891C43.0702 45.8871 39.7846 44.5245 37.3607 42.102C34.9368 39.6795 33.5723 36.3947 33.5664 32.9678C33.5664 32.8867 33.5986 32.809 33.656 32.7517C33.7133 32.6943 33.7911 32.6621 33.8722 32.6621C33.9533 32.6621 34.031 32.6943 34.0884 32.7517C34.1457 32.809 34.1779 32.8867 34.1779 32.9678C34.1838 36.2325 35.4839 39.3618 37.7931 41.6696C40.1023 43.9775 43.2323 45.2756 46.4971 45.2795C49.7611 45.2756 52.8903 43.9771 55.1984 41.6691C57.5064 39.3611 58.8048 36.2318 58.8088 32.9678C58.8088 32.8867 58.841 32.809 58.8983 32.7517C58.9557 32.6943 59.0334 32.6621 59.1145 32.6621C59.1956 32.6621 59.2734 32.6943 59.3307 32.7517C59.388 32.809 59.4203 32.8867 59.4203 32.9678C59.4144 36.3934 58.0509 39.677 55.6286 42.0993C53.2063 44.5216 49.9227 45.8851 46.4971 45.891Z" fill="#333333"/>
<path d="M49.4898 43.6986C49.4508 43.6985 49.4122 43.6905 49.3763 43.6751C49.3405 43.6598 49.308 43.6372 49.281 43.609C49.2526 43.5807 49.2301 43.5469 49.2147 43.5098C49.1993 43.4727 49.1914 43.4329 49.1914 43.3928C49.1914 43.3526 49.1993 43.313 49.2147 43.2759C49.2301 43.2388 49.2526 43.205 49.281 43.1767C50.9589 41.4466 52.9648 38.2697 52.9648 32.9453C52.9648 32.8642 52.9971 32.7866 53.0544 32.7292C53.1118 32.6719 53.1895 32.6396 53.2706 32.6396C53.3517 32.6396 53.4295 32.6719 53.4868 32.7292C53.5441 32.7866 53.5763 32.8642 53.5763 32.9453C53.5763 38.4785 51.4809 41.797 49.721 43.6016C49.691 43.6324 49.655 43.657 49.6153 43.6737C49.5756 43.6903 49.5329 43.6988 49.4898 43.6986Z" fill="#333333"/>
<path d="M43.4938 43.6544C43.4524 43.655 43.4114 43.6474 43.373 43.632C43.3346 43.6166 43.2996 43.5938 43.2701 43.5648C41.5177 41.7527 39.4297 38.4419 39.4297 32.9162C39.4297 32.8351 39.4619 32.7573 39.5192 32.6999C39.5766 32.6426 39.6543 32.6104 39.7354 32.6104C39.8165 32.6104 39.8943 32.6426 39.9516 32.6999C40.0089 32.7573 40.0412 32.8351 40.0412 32.9162C40.0412 38.2331 42.0322 41.4098 43.7101 43.1399C43.7394 43.1678 43.7627 43.2012 43.7787 43.2384C43.7947 43.2756 43.8029 43.3157 43.8029 43.3562C43.8029 43.3966 43.7947 43.4366 43.7787 43.4738C43.7627 43.511 43.7394 43.5444 43.7101 43.5723C43.6507 43.6256 43.5736 43.6549 43.4938 43.6544Z" fill="#333333"/>
<path d="M55.2625 42.3192C55.205 42.3194 55.1486 42.3034 55.0998 42.2731C55.051 42.2428 55.0118 42.1993 54.9865 42.1477C54.9865 42.1104 53.1521 38.6652 46.4854 38.6652C46.4043 38.6652 46.3266 38.633 46.2692 38.5757C46.2119 38.5183 46.1797 38.4405 46.1797 38.3594C46.1797 38.2783 46.2119 38.2006 46.2692 38.1433C46.3266 38.0859 46.4043 38.0537 46.4854 38.0537C53.5622 38.0537 55.434 41.7227 55.5309 41.8793C55.5654 41.9518 55.5707 42.0347 55.5457 42.1111C55.5207 42.1874 55.4674 42.2512 55.3967 42.2893C55.3538 42.3063 55.3085 42.3164 55.2625 42.3192Z" fill="#333333"/>
<path d="M37.7208 42.3192C37.6738 42.3172 37.6279 42.3044 37.5866 42.2818C37.5505 42.2651 37.5182 42.2414 37.4915 42.2119C37.4647 42.1825 37.4441 42.1479 37.4309 42.1103C37.4177 42.0728 37.4122 42.0332 37.4146 41.9935C37.417 41.9538 37.4273 41.915 37.4449 41.8793C37.5269 41.7227 39.4136 38.0537 46.4904 38.0537C46.5715 38.0537 46.6493 38.0859 46.7066 38.1433C46.7639 38.2006 46.7962 38.2783 46.7962 38.3594C46.7962 38.4405 46.7639 38.5183 46.7066 38.5757C46.6493 38.633 46.5715 38.6652 46.4904 38.6652C39.8237 38.6652 38.0117 42.1104 37.9967 42.1477C37.9702 42.1982 37.9306 42.2408 37.8821 42.2709C37.8336 42.3011 37.7779 42.3177 37.7208 42.3192Z" fill="#333333"/>
<path d="M28.8031 46.0625L33.0984 47.2333L30.0336 59.1497L25.3281 57.9641L28.8031 46.0625Z" fill="#235AB0"/>
<path d="M59.3711 47.8817L63.7186 46.3828L67.6038 58.2098L67.2085 58.7393L63.1668 59.8653L59.3711 47.8817Z" fill="#235AB0"/>
<path d="M32.9548 48.2549L42.9996 50.8947L45.535 50.1714L53.6036 51.9238L59.9198 50.0893L62.4701 58.2251L53.186 62.1326L54.2076 63.5345L53.8497 64.7724L52.321 65.1751L51.4485 66.7635L49.092 66.9201L49.1517 67.8895L47.4962 68.7843L46.1315 68.4786L45.4604 69.4331L44.2747 69.5077L42.4552 68.1207L40.8072 69.6195L39.8452 69.5077L39.01 68.3817L37.526 68.1579L36.5939 66.5919L34.9384 66.3831L34.2523 65.1304L34.4761 64.407L33.5812 64.3324L33.089 62.9454L35.1994 60.4696L33.5812 58.8365L30.3672 57.7105L32.9548 48.2549Z" fill="white"/>
<path d="M52.4719 59.2315C48.7434 59.2315 46.1632 55.5477 46.1334 55.5029C45.7903 55.0406 45.2609 54.474 44.709 54.5262C44.1572 54.5784 43.6277 55.2718 43.4935 55.5552C43.3441 56.0246 43.1004 56.4586 42.7772 56.8305C42.4541 57.2024 42.0584 57.5044 41.6144 57.7179C41.288 57.83 40.9419 57.8734 40.5979 57.8451C40.254 57.8169 39.9196 57.7176 39.6159 57.5536C39.3222 57.4048 39.0902 57.1574 38.9607 56.8547C38.8312 56.552 38.8123 56.2134 38.9074 55.8982L39.5562 53.661C39.7136 53.1203 39.9875 52.6206 40.3585 52.1968C40.7295 51.7729 41.1886 51.4353 41.7038 51.2076L44.1796 50.1264C45.1468 49.7571 46.2094 49.7205 47.1997 50.0221L53.5458 51.5135L59.6979 49.7089C59.7478 49.6941 59.8002 49.6891 59.852 49.6945C59.9038 49.7 59.954 49.7158 59.9998 49.7408C60.0455 49.7657 60.0859 49.7994 60.1185 49.84C60.1512 49.8806 60.1755 49.9272 60.19 49.9773C60.218 50.0781 60.2056 50.186 60.1555 50.2779C60.1054 50.3697 60.0215 50.4383 59.9216 50.4694L53.5681 52.3337L47.0282 50.7827C46.2007 50.5183 45.3087 50.5365 44.4928 50.8348L42.0245 51.9237C41.6137 52.1037 41.2477 52.3721 40.9525 52.7098C40.6574 53.0475 40.4403 53.4461 40.3168 53.8773L39.6606 56.1145C39.6141 56.2548 39.6194 56.4072 39.6754 56.5439C39.7315 56.6807 39.8347 56.7929 39.9663 56.8602C40.1726 56.978 40.4015 57.051 40.638 57.0741C40.8745 57.0972 41.1132 57.07 41.3384 56.9944C42.0302 56.6225 42.5473 55.9929 42.7777 55.242C42.9518 54.8662 43.2108 54.5358 43.5343 54.277C43.8578 54.0182 44.237 53.838 44.6419 53.7506C45.3877 53.691 46.1334 54.1309 46.7747 55.0631C46.9462 55.3092 50.7195 60.7529 55.7978 57.345C55.8841 57.2875 55.9895 57.2661 56.0913 57.2857C56.1932 57.3052 56.2833 57.364 56.3422 57.4493C56.4001 57.5368 56.4215 57.6434 56.402 57.7464C56.3825 57.8495 56.3236 57.9409 56.2378 58.0011C55.1349 58.7809 53.8224 59.2096 52.4719 59.2315Z" fill="#333333"/>
<path d="M53.1339 62.5724C53.0563 62.5729 52.9802 62.5504 52.9153 62.508C52.8503 62.4656 52.7992 62.405 52.7685 62.3338C52.7286 62.2378 52.7282 62.1299 52.7673 62.0336C52.8064 61.9372 52.8818 61.8604 52.9773 61.8193L62.3584 57.8744C62.4058 57.8537 62.4568 57.8425 62.5086 57.8418C62.5603 57.8411 62.6117 57.8508 62.6596 57.8702C62.7076 57.8897 62.7512 57.9187 62.7878 57.9553C62.8244 57.9918 62.8534 58.0353 62.8729 58.0832C62.8937 58.1306 62.9047 58.1817 62.9054 58.2334C62.9061 58.2852 62.8964 58.3366 62.877 58.3845C62.8575 58.4325 62.8286 58.4759 62.7921 58.5125C62.7555 58.5492 62.712 58.5782 62.6641 58.5977L53.283 62.5426C53.2362 62.5638 53.1853 62.574 53.1339 62.5724Z" fill="#333333"/>
<path d="M52.6201 65.6746C52.3649 65.6747 52.1124 65.6217 51.8788 65.519C51.6451 65.4163 51.4354 65.2661 51.2629 65.078L46.2442 59.7537C46.2077 59.7177 46.1787 59.6746 46.1589 59.6272C46.1391 59.5798 46.1289 59.5291 46.1289 59.4777C46.1289 59.4264 46.1391 59.3756 46.1589 59.3283C46.1787 59.2809 46.2077 59.238 46.2442 59.2019C46.2809 59.1652 46.3245 59.1359 46.3725 59.116C46.4205 59.0961 46.4719 59.0859 46.5238 59.0859C46.5758 59.0859 46.6272 59.0961 46.6752 59.116C46.7232 59.1359 46.7668 59.1652 46.8035 59.2019L51.8147 64.5262C51.9442 64.6614 52.1057 64.7616 52.2843 64.8177C52.4629 64.8737 52.6528 64.8838 52.8363 64.8468C53.0243 64.8043 53.1977 64.713 53.3391 64.5821C53.4805 64.4512 53.5848 64.2852 53.6417 64.1011C53.694 63.9564 53.7077 63.8005 53.6816 63.6489C53.6554 63.4972 53.5903 63.355 53.4925 63.2361L51.1809 60.8499C51.1441 60.8132 51.1149 60.7695 51.095 60.7216C51.0751 60.6736 51.0649 60.6222 51.0649 60.5703C51.0649 60.5183 51.0751 60.4668 51.095 60.4188C51.1149 60.3708 51.1441 60.3273 51.1809 60.2906C51.2164 60.2532 51.2592 60.2233 51.3066 60.2029C51.354 60.1825 51.4051 60.1719 51.4568 60.1719C51.5084 60.1719 51.5595 60.1825 51.6069 60.2029C51.6544 60.2233 51.6971 60.2532 51.7327 60.2906L54.0742 62.7067C54.2613 62.9327 54.387 63.2029 54.4392 63.4916C54.4915 63.7802 54.4685 64.0775 54.3725 64.3547C54.2665 64.6602 54.083 64.9328 53.8398 65.1459C53.5966 65.359 53.3022 65.5052 52.9855 65.5701C52.8678 65.6182 52.7453 65.6533 52.6201 65.6746Z" fill="#333333"/>
<path d="M50.1146 67.5163C49.7662 67.5157 49.4215 67.4448 49.1011 67.3077C48.7808 67.1706 48.4914 66.97 48.2504 66.7184L44.0222 62.2963C43.9854 62.2596 43.9563 62.216 43.9364 62.168C43.9165 62.12 43.9063 62.0687 43.9062 62.0167C43.9063 61.9648 43.9165 61.9134 43.9364 61.8654C43.9563 61.8174 43.9854 61.7738 44.0222 61.7371C44.0589 61.7003 44.1025 61.6712 44.1505 61.6513C44.1985 61.6314 44.2499 61.6211 44.3018 61.6211C44.3538 61.6211 44.4052 61.6314 44.4532 61.6513C44.5012 61.6712 44.5448 61.7003 44.5815 61.7371L48.8022 66.1591C49.0185 66.3866 49.2908 66.5533 49.5919 66.6423C49.8929 66.7313 50.2121 66.7396 50.5173 66.6663C50.8154 66.6015 51.0909 66.459 51.3162 66.2534C51.5414 66.0478 51.7083 65.7864 51.7999 65.4955C51.8327 65.3919 51.9027 65.3042 51.9963 65.2492C52.0899 65.1941 52.2006 65.1755 52.307 65.1971C52.3559 65.2082 52.402 65.2294 52.4424 65.2592C52.4828 65.2889 52.5167 65.3265 52.5418 65.3699C52.567 65.4132 52.583 65.4613 52.5888 65.5111C52.5946 65.561 52.5901 65.6115 52.5755 65.6595V65.7342C52.4429 66.1558 52.2014 66.5349 51.8754 66.8334C51.5494 67.1319 51.1503 67.3392 50.7187 67.4342C50.521 67.4842 50.3184 67.5118 50.1146 67.5163Z" fill="#333333"/>
<path d="M47.4 69.0977H47.2583C46.5727 69.0479 45.9347 68.7287 45.4835 68.2101L41.9936 64.325C41.9561 64.2895 41.9262 64.2467 41.9059 64.1992C41.8855 64.1518 41.875 64.1008 41.875 64.0492C41.875 63.9976 41.8855 63.9464 41.9059 63.899C41.9262 63.8516 41.9561 63.8087 41.9936 63.7732C42.0303 63.7364 42.0738 63.7073 42.1218 63.6874C42.1698 63.6676 42.2213 63.6572 42.2732 63.6572C42.3252 63.6572 42.3766 63.6676 42.4245 63.6874C42.4725 63.7073 42.5161 63.7364 42.5528 63.7732L46.0428 67.6509C46.3547 68.0132 46.7967 68.2383 47.2732 68.2773C47.6596 68.2812 48.0388 68.1726 48.3645 67.9647C48.6903 67.7568 48.9485 67.4586 49.1076 67.1065C49.1345 67.0618 49.1699 67.0229 49.2118 66.992C49.2537 66.961 49.3013 66.9387 49.3519 66.9263C49.4025 66.9138 49.4551 66.9114 49.5066 66.9194C49.5581 66.9273 49.6075 66.9452 49.652 66.9723C49.6968 66.999 49.7359 67.0345 49.7667 67.0767C49.7974 67.1188 49.8194 67.1667 49.8312 67.2176C49.8431 67.2684 49.8445 67.3211 49.8355 67.3725C49.8265 67.4239 49.8072 67.4729 49.7788 67.5167C49.5636 67.9717 49.2283 68.3592 48.8092 68.6378C48.39 68.9164 47.9028 69.0755 47.4 69.0977Z" fill="#333333"/>
<path d="M44.7306 69.9477C44.2549 69.948 43.7977 69.7636 43.4554 69.4332L33.2914 59.1871L30.3085 58.2027C30.259 58.1867 30.2131 58.161 30.1736 58.1272C30.134 58.0934 30.1015 58.052 30.0779 58.0056C30.0544 57.9591 30.0402 57.9086 30.0363 57.8567C30.0324 57.8047 30.0387 57.7526 30.055 57.7032C30.071 57.6536 30.0967 57.6077 30.1305 57.5681C30.1644 57.5285 30.2057 57.4961 30.2521 57.4725C30.2985 57.4489 30.3492 57.4348 30.4011 57.4308C30.453 57.4269 30.5052 57.4333 30.5546 57.4496L33.7239 58.4935L33.7836 58.5607L44.0072 68.8739C44.1477 69.0049 44.3209 69.0954 44.5086 69.1361C44.6963 69.1768 44.8916 69.166 45.0736 69.105C45.2425 69.053 45.394 68.9563 45.5122 68.825C45.6304 68.6936 45.7108 68.5326 45.7448 68.3592C45.7579 68.253 45.812 68.1561 45.8956 68.0893C45.9792 68.0224 46.0857 67.9908 46.1922 68.0013C46.2919 68.0126 46.3832 68.0629 46.446 68.1411C46.5089 68.2194 46.5382 68.3192 46.5278 68.419V68.4637C46.4819 68.7881 46.3457 69.0929 46.1347 69.3435C45.9237 69.594 45.6464 69.7802 45.3346 69.8805C45.1385 69.9366 44.9343 69.9594 44.7306 69.9477Z" fill="#333333"/>
<path d="M34.2477 64.7724C33.8726 64.7741 33.5086 64.6449 33.2186 64.407C33.0609 64.2782 32.9312 64.1183 32.8376 63.9375C32.744 63.7566 32.6884 63.5586 32.6743 63.3554C32.6555 63.1544 32.6789 62.9518 32.7431 62.7604C32.8073 62.5691 32.9109 62.3933 33.0471 62.2443L34.8741 60.2459C34.9108 60.2091 34.9544 60.18 35.0024 60.1601C35.0504 60.1402 35.1018 60.1299 35.1537 60.1299C35.2057 60.1299 35.2571 60.1402 35.3051 60.1601C35.3531 60.18 35.3967 60.2091 35.4334 60.2459C35.4701 60.2826 35.4993 60.3262 35.5192 60.3742C35.5391 60.4222 35.5493 60.4736 35.5493 60.5255C35.5493 60.5774 35.5391 60.6288 35.5192 60.6768C35.4993 60.7248 35.4701 60.7684 35.4334 60.8051L33.6138 62.7961C33.5502 62.8665 33.5016 62.9491 33.4708 63.0388C33.44 63.1285 33.4278 63.2237 33.4349 63.3183C33.441 63.4152 33.4674 63.5097 33.5123 63.5957C33.5573 63.6818 33.6198 63.7575 33.6959 63.8178C33.8628 63.9564 34.0775 64.0239 34.2936 64.0057C34.5098 63.9876 34.7102 63.8852 34.8517 63.7208C34.8878 63.6843 34.9308 63.6554 34.9781 63.6356C35.0255 63.6158 35.0763 63.6056 35.1276 63.6056C35.179 63.6056 35.2298 63.6158 35.2772 63.6356C35.3245 63.6554 35.3675 63.6843 35.4035 63.7208C35.4812 63.7909 35.5285 63.8886 35.5355 63.993C35.5425 64.0974 35.5085 64.2003 35.4408 64.2801C35.2858 64.4389 35.1001 64.5645 34.895 64.6491C34.6898 64.7337 34.4696 64.7757 34.2477 64.7724Z" fill="#333333"/>
<path d="M35.7811 67.1068C35.3537 67.1087 34.9402 66.9551 34.6178 66.6744C34.441 66.5225 34.2965 66.3365 34.1927 66.1277C34.089 65.919 34.0281 65.6915 34.0137 65.4588C33.9945 65.2274 34.0222 64.9945 34.0953 64.7741C34.1683 64.5537 34.2852 64.3503 34.4388 64.1762L36.1763 62.2672C36.2513 62.1947 36.3516 62.1543 36.4559 62.1543C36.5602 62.1543 36.6605 62.1947 36.7356 62.2672C36.7723 62.3039 36.8015 62.3475 36.8214 62.3955C36.8413 62.4435 36.8515 62.4949 36.8515 62.5468C36.8515 62.5988 36.8413 62.6503 36.8214 62.6983C36.8015 62.7463 36.7723 62.7898 36.7356 62.8265L35.0056 64.7281C34.9193 64.8307 34.8544 64.9496 34.8147 65.0776C34.775 65.2057 34.7613 65.3403 34.7744 65.4738C34.7956 65.7324 34.9158 65.9727 35.1099 66.1448C35.3029 66.3124 35.5539 66.3978 35.809 66.3824C36.0641 66.3671 36.3031 66.2524 36.4746 66.0629L37.4217 65.0337C37.4967 64.9613 37.597 64.9209 37.7013 64.9209C37.8056 64.9209 37.9059 64.9613 37.9809 65.0337C38.0177 65.0704 38.0468 65.1141 38.0667 65.1621C38.0866 65.2101 38.0969 65.2614 38.0969 65.3134C38.0969 65.3653 38.0866 65.4169 38.0667 65.4649C38.0468 65.5128 38.0177 65.5563 37.9809 65.593L37.0339 66.6222C36.8672 66.7814 36.6707 66.9062 36.4557 66.9894C36.2408 67.0726 36.0115 67.1124 35.7811 67.1068Z" fill="#333333"/>
<path d="M38.1085 68.5827C37.6631 68.5844 37.2338 68.4165 36.9079 68.113C36.5704 67.7955 36.371 67.3579 36.3529 66.8949C36.3348 66.4318 36.4993 65.9802 36.8109 65.6372L38.2576 64.0564C38.2943 64.0196 38.3379 63.9904 38.3859 63.9705C38.4339 63.9506 38.4853 63.9404 38.5373 63.9404C38.5892 63.9404 38.6406 63.9506 38.6886 63.9705C38.7366 63.9904 38.7802 64.0196 38.8169 64.0564C38.8544 64.0919 38.8842 64.1346 38.9046 64.182C38.9249 64.2295 38.9355 64.2806 38.9355 64.3322C38.9355 64.3839 38.9249 64.435 38.9046 64.4824C38.8842 64.5299 38.8544 64.5727 38.8169 64.6082L37.3702 66.189C37.1971 66.3774 37.1055 66.6265 37.1152 66.8821C37.125 67.1378 37.2354 67.3792 37.4224 67.5537C37.5164 67.6499 37.6292 67.7255 37.7538 67.776C37.8783 67.8266 38.012 67.8509 38.1464 67.8474C38.2808 67.8439 38.4131 67.8128 38.5348 67.7558C38.6566 67.6989 38.7653 67.6173 38.8542 67.5164L39.488 66.8454C39.5247 66.8086 39.5683 66.7793 39.6163 66.7594C39.6643 66.7395 39.7157 66.7294 39.7677 66.7294C39.8196 66.7294 39.8711 66.7395 39.919 66.7594C39.967 66.7793 40.0106 66.8086 40.0473 66.8454C40.084 66.8821 40.1132 66.9255 40.1331 66.9735C40.153 67.0215 40.1633 67.0731 40.1633 67.125C40.1633 67.1769 40.153 67.2283 40.1331 67.2763C40.1132 67.3243 40.084 67.3679 40.0473 67.4046L39.4135 68.0832C39.2413 68.2508 39.0368 68.3816 38.8124 68.4675C38.5881 68.5534 38.3485 68.5925 38.1085 68.5827Z" fill="#333333"/>
<path d="M40.3468 70C39.9116 70.0021 39.4923 69.8364 39.176 69.5375C38.8568 69.2277 38.6718 68.8051 38.6607 68.3603C38.6495 67.9156 38.8131 67.4842 39.1163 67.1588L40.302 65.906C40.3387 65.8693 40.3823 65.84 40.4303 65.8201C40.4783 65.8002 40.5297 65.79 40.5817 65.79C40.6336 65.79 40.685 65.8002 40.733 65.8201C40.781 65.84 40.8246 65.8693 40.8613 65.906C40.8981 65.9427 40.9272 65.9862 40.9471 66.0342C40.967 66.0822 40.9773 66.1337 40.9773 66.1857C40.9773 66.2376 40.967 66.289 40.9471 66.3369C40.9272 66.3849 40.8981 66.4286 40.8613 66.4653L39.6756 67.7255C39.5112 67.894 39.4191 68.1201 39.4191 68.3556C39.4191 68.5911 39.5112 68.8172 39.6756 68.9857C39.8442 69.1501 40.0703 69.2422 40.3058 69.2422C40.5412 69.2422 40.7673 69.1501 40.9359 68.9857L42.1961 67.7628C42.2322 67.7263 42.2752 67.6972 42.3225 67.6774C42.3699 67.6576 42.4207 67.6474 42.472 67.6474C42.5234 67.6474 42.5742 67.6576 42.6216 67.6774C42.6689 67.6972 42.7119 67.7263 42.748 67.7628C42.7854 67.7984 42.8153 67.841 42.8357 67.8884C42.856 67.9359 42.8666 67.987 42.8666 68.0386C42.8666 68.0903 42.856 68.1414 42.8357 68.1888C42.8153 68.2363 42.7854 68.2791 42.748 68.3146L41.5026 69.5226C41.195 69.8274 40.7798 69.9989 40.3468 70Z" fill="#333333"/>
<path d="M43.0449 51.3352H42.948L32.8809 48.7625C32.7804 48.7361 32.6944 48.6712 32.6413 48.5819C32.5883 48.4926 32.5726 48.386 32.5975 48.2851C32.6239 48.1847 32.6887 48.0986 32.778 48.0455C32.8673 47.9925 32.974 47.9769 33.0748 48.0018L43.1419 50.5745C43.2424 50.6009 43.3284 50.6656 43.3814 50.7549C43.4345 50.8442 43.4502 50.9509 43.4253 51.0517C43.4011 51.1337 43.3509 51.2058 43.2824 51.2569C43.2138 51.308 43.1305 51.3354 43.0449 51.3352Z" fill="#333333"/>
<path d="M29.6684 59.627C29.5918 59.6383 29.5139 59.6383 29.4373 59.627L25.664 58.6129C25.5499 58.5833 25.4429 58.531 25.3494 58.4592C25.2559 58.3875 25.1778 58.2978 25.1196 58.1952C25.0014 57.987 24.9693 57.7408 25.0301 57.5092L28.0577 46.3236C28.088 46.2099 28.1404 46.1033 28.2119 46.0099C28.2834 45.9165 28.3726 45.8383 28.4744 45.7794C28.5762 45.7205 28.6887 45.6823 28.8053 45.6669C28.9218 45.6515 29.0403 45.6592 29.1539 45.6896L32.8825 46.7114C32.9966 46.7408 33.1038 46.7925 33.1977 46.8637C33.2916 46.935 33.3703 47.0244 33.4293 47.1264C33.4883 47.2285 33.5264 47.3412 33.5414 47.4582C33.5563 47.5751 33.5478 47.6939 33.5163 47.8075L30.5335 58.9932C30.4782 59.1788 30.3637 59.341 30.2075 59.4555C30.0513 59.5699 29.862 59.6301 29.6684 59.627ZM29.6684 58.8366C29.6821 58.8412 29.6966 58.8427 29.711 58.8414C29.7254 58.84 29.7393 58.8356 29.7519 58.8286C29.7645 58.8216 29.7755 58.8121 29.7843 58.8006C29.793 58.7891 29.7993 58.776 29.8027 58.762L32.7855 47.5763C32.79 47.5626 32.7917 47.5481 32.7903 47.5337C32.789 47.5193 32.7846 47.5055 32.7776 47.4929C32.7706 47.4803 32.7611 47.4693 32.7496 47.4605C32.7382 47.4518 32.725 47.4455 32.711 47.4421L28.9824 46.4279C28.9688 46.422 28.954 46.4193 28.9392 46.4201C28.9243 46.4208 28.9099 46.4251 28.8969 46.4323C28.884 46.4395 28.8728 46.4496 28.8644 46.4618C28.8559 46.4739 28.8504 46.4879 28.8482 46.5025L25.8206 57.6882C25.8171 57.7166 25.8234 57.7452 25.8382 57.7696C25.8531 57.794 25.8758 57.8125 25.9026 57.8224L29.6684 58.8366Z" fill="#333333"/>
<path d="M63.3908 60.1789C63.2031 60.1781 63.0203 60.1189 62.868 60.0093C62.7156 59.8997 62.6012 59.7453 62.5407 59.5676L58.8867 48.5385C58.8113 48.3127 58.8274 48.0663 58.9314 47.8523C59.0402 47.6406 59.2276 47.4801 59.4535 47.405L63.182 46.1744C63.4085 46.1013 63.6547 46.1208 63.867 46.2283C64.0793 46.3359 64.2405 46.5228 64.3155 46.7487L67.9695 57.7703C68.0069 57.8819 68.0218 57.9999 68.0136 58.1173C68.0053 58.2347 67.974 58.3494 67.9213 58.4547C67.8687 58.56 67.7958 58.654 67.7068 58.731C67.6178 58.8081 67.5145 58.8667 67.4028 58.9038L63.6742 60.1343C63.5827 60.1643 63.4871 60.1792 63.3908 60.1789ZM63.443 46.9202H63.4057L59.6772 48.1432C59.6502 48.1546 59.6289 48.176 59.6175 48.2029C59.609 48.2296 59.609 48.2582 59.6175 48.2849L63.2715 59.3065C63.2817 59.3343 63.3018 59.3574 63.328 59.3711C63.3542 59.3849 63.3845 59.3885 63.4132 59.3812L67.1417 58.1506C67.1682 58.1391 67.1895 58.1184 67.2018 58.0924C67.2142 58.0663 67.2167 58.0367 67.2089 58.009L63.5549 46.9873C63.5472 46.9693 63.5348 46.9536 63.5191 46.9418C63.5034 46.93 63.4849 46.9225 63.4654 46.9202H63.443Z" fill="#333333"/>
</g>
<defs>
<clipPath id="clip0_1988_380526">
<rect width="42.9903" height="50" fill="white" transform="translate(25 20)"/>
</clipPath>
</defs>
</svg>
