<svg width="100" height="100" viewBox="0 0 100 100" fill="none" xmlns="http://www.w3.org/2000/svg">
<circle cx="50" cy="50" r="50" fill="#F2F6FB"/>
<g clip-path="url(#clip0_1928_379604)">
<path d="M74.188 25.3223H26.5215V53.3245H74.188V25.3223Z" fill="#235AB0"/>
<path d="M73.9512 53.7322H26.5219C26.4555 53.7335 26.3895 53.7213 26.328 53.6965C26.2664 53.6717 26.2105 53.6346 26.1635 53.5877C26.1166 53.5407 26.0796 53.4848 26.0548 53.4232C26.03 53.3617 26.0178 53.2958 26.0191 53.2294V25.4832C26.0191 25.3499 26.0721 25.222 26.1664 25.1278C26.2607 25.0335 26.3886 24.9805 26.5219 24.9805H73.9512C74.0846 24.9805 74.2124 25.0335 74.3067 25.1278C74.401 25.222 74.454 25.3499 74.454 25.4832V53.2104C74.4579 53.2784 74.4478 53.3465 74.4241 53.4103C74.4005 53.4741 74.3639 53.5322 74.3167 53.5812C74.2695 53.6302 74.2127 53.6689 74.1498 53.6949C74.0869 53.7209 74.0193 53.7336 73.9512 53.7322ZM26.9962 52.7266H73.477V26.005H26.9962V52.7266Z" fill="#333333"/>
<path d="M42.7141 71.6516V55.0797H40.3047L37.6392 48.7242L42.0027 48.5155L42.1734 44.4935L47.3811 39.9308L45.2184 36.0037L46.167 31.9437L49.5819 29.373L52.0102 29.6102L54.8181 32.7595L55.226 36.44L53.4331 39.9308L57.6828 43.9149L58.5081 45.3093L58.4986 49.0847L62.4352 48.6199L62.7672 49.5305L60.263 55.0797L57.531 55.0418V70.9022L42.7141 71.6516Z" fill="white"/>
<path d="M60.3957 55.4789H57.5499C57.4166 55.4789 57.2887 55.4259 57.1945 55.3316C57.1002 55.2373 57.0472 55.1095 57.0472 54.9761C57.0472 54.8428 57.1002 54.7149 57.1945 54.6207C57.2887 54.5264 57.4166 54.4734 57.5499 54.4734H60.0637L62.2834 49.0475H38.1608L40.3995 54.4354H42.9228C43.0561 54.4354 43.184 54.4884 43.2782 54.5827C43.3725 54.677 43.4255 54.8048 43.4255 54.9382C43.4268 55.0045 43.4147 55.0704 43.3899 55.132C43.3651 55.1936 43.3281 55.2495 43.2811 55.2964C43.2342 55.3434 43.1782 55.3805 43.1166 55.4053C43.0551 55.4301 42.9891 55.4422 42.9228 55.4409H40.077C39.9772 55.4408 39.8797 55.4108 39.7969 55.355C39.7142 55.2993 39.6499 55.2203 39.6122 55.1278L37.2692 49.3888C37.1998 49.2364 37.1721 49.0684 37.1888 48.9018C37.2055 48.7352 37.2659 48.5759 37.364 48.4403C37.4506 48.3053 37.57 48.1947 37.711 48.1183C37.852 48.042 38.01 48.0026 38.1703 48.0039H62.3214C62.4817 48.0026 62.6397 48.042 62.7807 48.1183C62.9217 48.1947 63.0411 48.3053 63.1276 48.4403C63.2258 48.5759 63.2862 48.7352 63.3029 48.9018C63.3196 49.0684 63.2918 49.2364 63.2225 49.3888L60.8795 55.1278C60.847 55.2304 60.7825 55.3199 60.6954 55.383C60.6084 55.4462 60.5033 55.4799 60.3957 55.4789Z" fill="#333333"/>
<path d="M57.5406 70.3892C57.4072 70.3892 57.2794 70.3362 57.1851 70.2419C57.0908 70.1476 57.0378 70.0198 57.0378 69.8864V52.8688H43.4161V69.8864C43.4161 70.0198 43.3631 70.1476 43.2689 70.2419C43.1746 70.3362 43.0467 70.3892 42.9134 70.3892C42.78 70.3892 42.6522 70.3362 42.5579 70.2419C42.4636 70.1476 42.4106 70.0198 42.4106 69.8864V52.6884C42.4106 52.4696 42.4975 52.2596 42.6523 52.1048C42.8071 51.9501 43.017 51.8633 43.2359 51.8633H57.2181C57.4369 51.8633 57.6468 51.9501 57.8016 52.1048C57.9564 52.2596 58.0433 52.4696 58.0433 52.6884V69.8864C58.0433 70.0198 57.9903 70.1476 57.896 70.2419C57.8018 70.3362 57.6739 70.3892 57.5406 70.3892Z" fill="#333333"/>
<path d="M58.4988 49.0837C58.3654 49.0837 58.2376 49.0309 58.1433 48.9366C58.049 48.8424 57.9961 48.7145 57.9961 48.5812V46.5131C57.9976 45.9165 57.8694 45.3269 57.6204 44.7847C57.3715 44.2426 57.0077 43.7611 56.5542 43.3734L52.978 40.3093C52.9273 40.2664 52.8857 40.2141 52.8554 40.155C52.8251 40.096 52.8067 40.0317 52.8014 39.9656C52.7961 39.8995 52.804 39.8328 52.8245 39.7697C52.845 39.7066 52.8779 39.6482 52.9211 39.5978C52.963 39.547 53.0148 39.5054 53.0734 39.4753C53.132 39.4452 53.1961 39.4274 53.2619 39.423C53.3276 39.4185 53.3935 39.4274 53.4556 39.4494C53.5178 39.4713 53.5747 39.5058 53.623 39.5506L57.2087 42.6145C57.7727 43.0952 58.2252 43.693 58.5348 44.3662C58.8444 45.0395 59.0037 45.772 59.0016 46.5131V48.5812C59.0016 48.6472 58.9885 48.7124 58.9633 48.7734C58.938 48.8344 58.9009 48.89 58.8543 48.9366C58.8076 48.9833 58.7522 49.0202 58.6912 49.0455C58.6302 49.0708 58.5648 49.0837 58.4988 49.0837Z" fill="#333333"/>
<path d="M41.9554 49.0839C41.822 49.0839 41.6942 49.0312 41.5999 48.9369C41.5056 48.8426 41.4526 48.7147 41.4526 48.5814V46.5418C41.4522 45.7918 41.6158 45.0509 41.9321 44.3709C42.2483 43.6908 42.7096 43.0882 43.2834 42.6052L46.9259 39.5413C46.9769 39.4987 47.0358 39.4664 47.0992 39.4466C47.1627 39.4268 47.2294 39.4198 47.2956 39.426C47.3617 39.4322 47.426 39.4516 47.4847 39.4827C47.5433 39.5139 47.5952 39.5562 47.6374 39.6076C47.6798 39.6577 47.7118 39.716 47.7314 39.7787C47.7511 39.8414 47.758 39.9072 47.7518 39.9726C47.7456 40.0379 47.7264 40.1016 47.6954 40.1594C47.6643 40.2173 47.622 40.2682 47.571 40.3095L43.9284 43.3737C43.4681 43.7634 43.0981 44.2485 42.8442 44.7956C42.5903 45.3427 42.4585 45.9386 42.4581 46.5418V48.5814C42.4581 48.7147 42.4051 48.8426 42.3108 48.9369C42.2166 49.0312 42.0887 49.0839 41.9554 49.0839Z" fill="#333333"/>
<path d="M50.2742 41.6855C47.3051 41.6855 44.8862 38.8396 44.8862 35.3582C44.8862 31.8769 47.3051 29.0312 50.2742 29.0312C53.2433 29.0312 55.6622 31.8769 55.6622 35.3582C55.6622 38.8396 53.2433 41.6855 50.2742 41.6855ZM50.2742 30.0368C47.8553 30.0368 45.8917 32.4176 45.8917 35.3582C45.8917 38.2989 47.8553 40.6799 50.2742 40.6799C52.6931 40.6799 54.6567 38.2894 54.6567 35.3582C54.6567 32.4271 52.6931 30.0368 50.2742 30.0368Z" fill="#333333"/>
<path d="M30.8948 64.594L30.4205 60.5435L32.8489 56.9578L36.1689 56.7017L38.6637 58.8076L39.6407 62.3458L38.1989 66.254L42.9228 70.3898L47.0871 65.8081L45.8919 62.526L46.6223 58.836L49.7716 56.5215L52.3708 56.9578L54.8276 60.1451V63.7592L53.4901 66.3299L58.1951 70.3898L62.8242 66.1496L61.6669 63.9774L61.591 59.851L64.8447 56.5215L68.0699 57.1476L70.4224 60.2874L70.5647 63.4651L69.009 66.4722L73.7804 70.7408L73.4578 74.5731H26.7305V70.5226L31.6157 65.9599L30.8948 64.594Z" fill="white"/>
<path d="M42.6762 75.0007C42.5429 75.0007 42.415 74.9477 42.3207 74.8534C42.2264 74.7591 42.1735 74.6313 42.1735 74.4979V70.7891L37.5918 66.6341C37.545 66.5874 37.508 66.5321 37.4827 66.4711C37.4574 66.41 37.4443 66.3445 37.4443 66.2784C37.4443 66.2123 37.4574 66.147 37.4827 66.086C37.508 66.0249 37.545 65.9694 37.5918 65.9227C37.6385 65.8759 37.6939 65.8389 37.755 65.8136C37.816 65.7883 37.8814 65.7754 37.9475 65.7754C38.0136 65.7754 38.079 65.7883 38.14 65.8136C38.2011 65.8389 38.2565 65.8759 38.3032 65.9227L43.0462 70.2198C43.0976 70.2666 43.1386 70.3239 43.1664 70.3877C43.1942 70.4515 43.2081 70.5203 43.2074 70.5899V74.5264C43.2038 74.5925 43.1872 74.6572 43.1585 74.7168C43.1298 74.7764 43.0896 74.8297 43.0403 74.8738C42.9909 74.9179 42.9333 74.9519 42.8709 74.9736C42.8084 74.9954 42.7423 75.0046 42.6762 75.0007Z" fill="#333333"/>
<path d="M34.9736 68.0661C32.1278 68.0661 29.8892 65.3913 29.8892 62.1092C29.8892 58.8271 32.1658 56.1426 34.9736 56.1426C37.7814 56.1426 40.0485 58.8176 40.0485 62.1092C40.0485 65.4008 37.7719 68.0661 34.9736 68.0661ZM34.9736 57.1479C32.7254 57.1479 30.8947 59.3678 30.8947 62.1092C30.8947 64.8506 32.7254 67.0608 34.9736 67.0608C37.2217 67.0608 39.043 64.8412 39.043 62.1092C39.043 59.3773 37.2217 57.1479 34.9736 57.1479Z" fill="#333333"/>
<path d="M58.1759 75.0009C58.1104 75.0009 58.0454 74.9879 57.9849 74.9625C57.9245 74.9371 57.8697 74.9 57.8238 74.8532C57.7778 74.8064 57.7417 74.7508 57.7175 74.6899C57.6932 74.629 57.6814 74.5637 57.6827 74.4981V70.7893L53.0915 66.6251C53.045 66.5792 53.0082 66.5244 52.983 66.4641C52.9578 66.4039 52.9448 66.3393 52.9448 66.274C52.9448 66.2087 52.9578 66.1441 52.983 66.0838C53.0082 66.0236 53.045 65.9688 53.0915 65.9229C53.187 65.8307 53.3145 65.7793 53.4472 65.7793C53.5799 65.7793 53.7074 65.8307 53.8029 65.9229L58.5459 70.2295C58.5973 70.2763 58.6383 70.3336 58.666 70.3974C58.6938 70.4612 58.7079 70.53 58.7072 70.5996V74.5361C58.7036 74.6018 58.6869 74.6662 58.6581 74.7253C58.6293 74.7845 58.5889 74.8372 58.5394 74.8805C58.4899 74.9238 58.4323 74.9568 58.3698 74.9775C58.3074 74.9982 58.2415 75.0061 58.1759 75.0009Z" fill="#333333"/>
<path d="M42.6761 71.0629C42.5364 71.0599 42.4035 71.0018 42.3062 70.9014C42.2594 70.8547 42.2223 70.7994 42.197 70.7384C42.1717 70.6774 42.1587 70.6118 42.1587 70.5457C42.1587 70.4796 42.1717 70.4143 42.197 70.3533C42.2223 70.2922 42.2594 70.2367 42.3062 70.19L47.0491 65.8076C47.1446 65.7155 47.2721 65.6641 47.4048 65.6641C47.5375 65.6641 47.665 65.7155 47.7605 65.8076C47.8527 65.9031 47.9042 66.0307 47.9042 66.1634C47.9042 66.2961 47.8527 66.4236 47.7605 66.5191L43.0176 70.9014C42.9285 70.9967 42.8063 71.0546 42.6761 71.0629Z" fill="#333333"/>
<path d="M50.4734 68.0661C47.6751 68.0661 45.3984 65.3913 45.3984 62.1092C45.3984 58.8271 47.6751 56.1426 50.4734 56.1426C53.2717 56.1426 55.5578 58.8176 55.5578 62.1092C55.5578 65.4008 53.2717 68.0661 50.4734 68.0661ZM50.4734 57.1479C48.2253 57.1479 46.3944 59.3678 46.3944 62.1092C46.3944 64.8506 48.2253 67.0608 50.4734 67.0608C52.7216 67.0608 54.5523 64.8412 54.5523 62.1092C54.5523 59.3773 52.7216 57.1479 50.4734 57.1479Z" fill="#333333"/>
<path d="M73.6855 75.0005H26.7684C26.635 75.0005 26.5072 74.9475 26.4129 74.8532C26.3186 74.7589 26.2657 74.631 26.2657 74.4977V70.5611C26.2649 70.4916 26.2789 70.4227 26.3067 70.359C26.3345 70.2952 26.3755 70.2379 26.4269 70.1911L31.426 65.6475C31.4727 65.6008 31.5281 65.5635 31.5891 65.5382C31.6502 65.5129 31.7156 65.5 31.7817 65.5C31.8478 65.5 31.9132 65.5129 31.9742 65.5382C32.0352 65.5635 32.0907 65.6008 32.1374 65.6475C32.1842 65.6942 32.2212 65.7495 32.2465 65.8106C32.2718 65.8716 32.2849 65.9372 32.2849 66.0032C32.2849 66.0693 32.2718 66.1347 32.2465 66.1957C32.2212 66.2567 32.1842 66.3123 32.1374 66.359L27.3091 70.7508V73.9666H73.2207V70.7603L68.6295 66.5961C68.5828 66.5494 68.5457 66.4939 68.5204 66.4328C68.4951 66.3718 68.482 66.3065 68.482 66.2404C68.482 66.1743 68.4951 66.1087 68.5204 66.0477C68.5457 65.9867 68.5828 65.9314 68.6295 65.8847C68.6762 65.8379 68.7317 65.8007 68.7927 65.7754C68.8538 65.7501 68.9191 65.7371 68.9852 65.7371C69.0513 65.7371 69.1167 65.7501 69.1778 65.7754C69.2388 65.8007 69.2943 65.8379 69.3409 65.8847L74.0839 70.1911C74.138 70.2362 74.1815 70.2929 74.211 70.3569C74.2406 70.4209 74.2554 70.4907 74.2546 70.5611V74.4977C74.2552 74.5697 74.2404 74.641 74.2111 74.7068C74.1818 74.7726 74.1387 74.8312 74.0847 74.8789C74.0308 74.9265 73.9672 74.9621 73.8983 74.9831C73.8294 75.0041 73.7569 75.01 73.6855 75.0005Z" fill="#333333"/>
<path d="M58.1759 71.0629C58.1079 71.0623 58.0408 71.0476 57.9788 71.0198C57.9168 70.9921 57.8612 70.9517 57.8154 70.9015C57.7687 70.8548 57.7316 70.7995 57.7063 70.7384C57.681 70.6774 57.668 70.6118 57.668 70.5457C57.668 70.4797 57.681 70.4143 57.7063 70.3533C57.7316 70.2923 57.7687 70.2367 57.8154 70.19L62.5584 65.8077C62.6051 65.7609 62.6605 65.7239 62.7215 65.6986C62.7826 65.6733 62.848 65.6602 62.9141 65.6602C62.9802 65.6602 63.0456 65.6733 63.1066 65.6986C63.1676 65.7239 63.2231 65.7609 63.2698 65.8077C63.3166 65.8544 63.3536 65.9099 63.3789 65.9709C63.4042 66.032 63.4173 66.0973 63.4173 66.1634C63.4173 66.2295 63.4042 66.2948 63.3789 66.3558C63.3536 66.4169 63.3166 66.4724 63.2698 66.5191L58.5269 70.9015C58.4354 70.999 58.3095 71.057 58.1759 71.0629Z" fill="#333333"/>
<path d="M65.9828 68.0661C63.1371 68.0661 60.8984 65.3913 60.8984 62.1092C60.8984 58.8271 63.175 56.1426 65.9828 56.1426C68.7907 56.1426 71.0578 58.8176 71.0578 62.1092C71.0578 65.4008 68.7812 68.0661 65.9828 68.0661ZM65.9828 57.1479C63.7347 57.1479 61.9039 59.3678 61.9039 62.1092C61.9039 64.8506 63.7347 67.0608 65.9828 67.0608C68.231 67.0608 70.0523 64.8412 70.0523 62.1092C70.0523 59.3773 68.231 57.1479 65.9828 57.1479Z" fill="#333333"/>
</g>
<defs>
<clipPath id="clip0_1928_379604">
<rect width="48.4633" height="50" fill="white" transform="translate(26 25)"/>
</clipPath>
</defs>
</svg>
