<svg width="100" height="100" viewBox="0 0 100 100" fill="none" xmlns="http://www.w3.org/2000/svg">
<circle cx="50" cy="50" r="50" fill="#F2F6FB"/>
<g clip-path="url(#clip0_1787_394034)">
<path d="M23.53 40.1602H72.99L73.21 64.8302L76.95 66.1302L66.91 76.1102L65.19 70.1802H26.94L24.07 69.1402L23.42 67.0902L23.53 40.1602Z" fill="white"/>
<path d="M62.51 48.04H35.31V49.04H62.51V48.04Z" fill="#333333"/>
<path d="M62.51 52.52H35.31V53.52H62.51V52.52Z" fill="#333333"/>
<path d="M62.51 56.9902H35.31V57.9902H62.51V56.9902Z" fill="#333333"/>
<path d="M56.85 61.4702H40.98V62.4702H56.85V61.4702Z" fill="#333333"/>
<path d="M23.53 40.1598V31.4298L25.88 29.5098H70.75L73.19 31.2398L73.21 40.6898L23.53 40.1598Z" fill="#235AB0"/>
<path d="M66.94 76.8498H66.8C66.7108 76.8237 66.6299 76.7753 66.5651 76.7087C66.5003 76.6422 66.4538 76.5598 66.43 76.47L62.65 62.3601C62.6256 62.2703 62.6257 62.1754 62.6503 62.0857C62.6749 61.996 62.7232 61.9146 62.79 61.8498C62.8564 61.7856 62.9382 61.7398 63.0277 61.717C63.1171 61.6942 63.211 61.6953 63.3 61.72L77.41 65.5002C77.4984 65.5246 77.579 65.5711 77.6438 65.636C77.7087 65.7008 77.7556 65.7815 77.78 65.8699C77.8055 65.9596 77.806 66.0549 77.7813 66.1448C77.7566 66.2347 77.7077 66.316 77.64 66.3801L67.33 76.6999C67.2793 76.7511 67.2183 76.7908 67.151 76.8166C67.0838 76.8425 67.0119 76.8538 66.94 76.8498ZM63.94 62.97L67.24 75.3L76.24 66.3L63.94 62.97Z" fill="#333333"/>
<path d="M77.1 76.6901C76.9649 76.6898 76.8354 76.6355 76.74 76.5397L71.6101 71.6799C71.5079 71.5831 71.4485 71.4499 71.4447 71.3093C71.441 71.1686 71.4932 71.032 71.59 70.9299C71.6868 70.8278 71.8202 70.7686 71.9609 70.7648C72.1015 70.7611 72.2379 70.8131 72.34 70.9099L77.47 75.78C77.519 75.8283 77.5579 75.8859 77.5844 75.9494C77.611 76.0129 77.6246 76.0813 77.6246 76.1501C77.6246 76.2189 77.611 76.2868 77.5844 76.3503C77.5579 76.4138 77.519 76.4714 77.47 76.5197C77.3724 76.6208 77.2403 76.6819 77.1 76.6901Z" fill="#333333"/>
<path d="M73.22 40.6899H23.53C23.3895 40.6899 23.2547 40.6341 23.1553 40.5347C23.0559 40.4353 23 40.3002 23 40.1597C23 40.0191 23.0559 39.8846 23.1553 39.7852C23.2547 39.6858 23.3895 39.6299 23.53 39.6299H73.22C73.3606 39.6299 73.4954 39.6858 73.5948 39.7852C73.6942 39.8846 73.75 40.0191 73.75 40.1597C73.75 40.3002 73.6942 40.4353 73.5948 40.5347C73.4954 40.6341 73.3606 40.6899 73.22 40.6899Z" fill="#333333"/>
<path d="M70.55 29H26.2C25.3513 29 24.5374 29.3369 23.9373 29.937C23.3371 30.5371 23 31.351 23 32.1997V66.7598C23.0155 67.7999 23.4356 68.7932 24.1711 69.5288C24.9067 70.2644 25.8999 70.6842 26.94 70.6997H65.33C65.4706 70.6997 65.6054 70.6438 65.7048 70.5444C65.8042 70.445 65.86 70.3105 65.86 70.1699C65.86 70.0294 65.8042 69.8943 65.7048 69.7949C65.6054 69.6955 65.4706 69.6396 65.33 69.6396H26.94C26.1762 69.6396 25.4437 69.3365 24.9036 68.7964C24.3635 68.2563 24.06 67.5236 24.06 66.7598V32.2197C24.06 31.9387 24.1154 31.6605 24.2229 31.4009C24.3304 31.1412 24.4881 30.9053 24.6868 30.7065C24.8855 30.5078 25.1215 30.3502 25.3811 30.2427C25.6407 30.1351 25.919 30.0796 26.2 30.0796H70.55C70.831 30.0796 71.1093 30.1351 71.369 30.2427C71.6286 30.3502 71.8645 30.5078 72.0632 30.7065C72.262 30.9053 72.4196 31.1412 72.5271 31.4009C72.6346 31.6605 72.69 31.9387 72.69 32.2197V64.8696C72.69 65.0102 72.7459 65.1452 72.8453 65.2446C72.9447 65.344 73.0795 65.3999 73.22 65.3999C73.3606 65.3999 73.4954 65.344 73.5948 65.2446C73.6942 65.1452 73.75 65.0102 73.75 64.8696V32.2197C73.7526 31.7978 73.6718 31.3798 73.5122 30.9893C73.3526 30.5987 73.1173 30.2431 72.8199 29.9438C72.5225 29.6446 72.1688 29.4072 71.7792 29.2451C71.3897 29.0831 70.9719 29 70.55 29Z" fill="#333333"/>
<path d="M28.75 34.8896C28.75 35.0874 28.8086 35.2809 28.9185 35.4453C29.0284 35.6098 29.1846 35.7378 29.3673 35.8135C29.55 35.8892 29.7511 35.9092 29.9451 35.8706C30.1391 35.832 30.3173 35.7365 30.4572 35.5967C30.597 35.4568 30.6922 35.2789 30.7308 35.085C30.7694 34.891 30.7496 34.6901 30.6739 34.5073C30.5982 34.3246 30.4701 34.168 30.3056 34.0581C30.1412 33.9482 29.9478 33.8896 29.75 33.8896C29.4848 33.8896 29.2304 33.9951 29.0429 34.1826C28.8554 34.3702 28.75 34.6244 28.75 34.8896Z" fill="white"/>
<path d="M35.07 35.8999C35.6223 35.8999 36.07 35.4522 36.07 34.8999C36.07 34.3476 35.6223 33.8999 35.07 33.8999C34.5177 33.8999 34.07 34.3476 34.07 34.8999C34.07 35.4522 34.5177 35.8999 35.07 35.8999Z" fill="white"/>
<path d="M40.4 35.8999C40.9523 35.8999 41.4 35.4522 41.4 34.8999C41.4 34.3476 40.9523 33.8999 40.4 33.8999C39.8477 33.8999 39.4 34.3476 39.4 34.8999C39.4 35.4522 39.8477 35.8999 40.4 35.8999Z" fill="white"/>
</g>
<defs>
<clipPath id="clip0_1787_394034">
<rect width="54.79" height="47.86" fill="white" transform="translate(23 29)"/>
</clipPath>
</defs>
</svg>
