<svg width="26" height="16" viewBox="0 0 26 16" fill="none" xmlns="http://www.w3.org/2000/svg">
<g clip-path="url(#clip0_1036_171324)">
<path d="M25 0.5H1V8.00268H25V0.5Z" fill="#DA1841"/>
<path d="M25 8.00269H1V15.5H25V8.00269Z" fill="white"/>
<path d="M8.20127 4.24862C8.20226 4.80677 8.04864 5.3527 7.75983 5.81729C7.47103 6.28189 7.06003 6.64428 6.57885 6.85861C6.09767 7.07294 5.56792 7.12956 5.05667 7.02133C4.54543 6.91309 4.07565 6.64487 3.7068 6.25057C3.33795 5.85628 3.08659 5.35363 2.98456 4.80629C2.88252 4.25894 2.93444 3.69151 3.13364 3.17575C3.33284 2.65999 3.67038 2.2191 4.10362 1.9089C4.53686 1.5987 5.04629 1.43311 5.56743 1.43311C6.2651 1.4331 6.93425 1.72958 7.42805 2.25744C7.92185 2.7853 8.19995 3.50141 8.20127 4.24862" fill="white"/>
<path d="M9.02683 4.24864C9.02683 4.77898 8.88 5.29744 8.60489 5.7384C8.32979 6.17936 7.93879 6.52305 7.48131 6.726C7.02382 6.92895 6.5204 6.98203 6.03474 6.87857C5.54908 6.7751 5.10298 6.51975 4.75284 6.14474C4.4027 5.76973 4.16424 5.29192 4.06764 4.77177C3.97103 4.25163 4.02062 3.71248 4.21012 3.22251C4.39961 2.73254 4.72052 2.31375 5.13224 2.0191C5.54396 1.72446 6.02801 1.5672 6.52318 1.5672C7.18719 1.5672 7.824 1.84971 8.29353 2.35258C8.76305 2.85545 9.02683 3.53748 9.02683 4.24864Z" fill="#DA1841"/>
<path d="M5.8973 4.31836L5.53678 4.0234L5.18126 4.31836L5.31646 3.84642L4.96094 3.55146L5.40158 3.55683L5.53678 3.07953L5.67698 3.55683L6.11762 3.55146L5.7571 3.84642L5.8973 4.31836Z" fill="white"/>
<path d="M8.70199 4.31836L8.34647 4.0234L7.98595 4.31836L8.12615 3.84642L7.76562 3.55146L8.21127 3.55683L8.34647 3.07953L8.48167 3.55683L8.92231 3.55146L8.56679 3.84642L8.70199 4.31836Z" fill="white"/>
<path d="M7.29965 3.20288L6.94413 2.90792L6.5836 3.20288L6.72381 2.73094L6.36328 2.44135H6.80893L6.94413 1.96405L7.07933 2.44135L7.52498 2.43598L7.16445 2.73094L7.29965 3.20288Z" fill="white"/>
<path d="M6.42465 6.10418L6.06412 5.80922L5.7086 6.10418L5.8438 5.62688L5.48828 5.33728H5.92892L6.06412 4.85999L6.19932 5.33728H6.64497L6.28444 5.62688L6.42465 6.10418Z" fill="white"/>
<path d="M8.1766 6.10418L7.82108 5.80922L7.46056 6.10418L7.60076 5.62688L7.24023 5.33728H7.68588L7.82108 4.85999L7.95628 5.33728H8.39692L8.0414 5.62688L8.1766 6.10418Z" fill="white"/>
</g>
<rect x="0.85" y="0.35" width="24.3" height="15.3" stroke="#DDDDDD" stroke-width="0.3"/>
<defs>
<clipPath id="clip0_1036_171324">
<rect x="1" y="0.5" width="24" height="15" fill="white"/>
</clipPath>
</defs>
</svg>
