<svg width="48" height="48" viewBox="0 0 48 48" fill="none" xmlns="http://www.w3.org/2000/svg">
<circle cx="24" cy="24" r="24" fill="#F2F6FB"/>
<path d="M19.4018 12.4695L18.5426 13.9437L18.1083 16.3286L18.5143 18.5352L17.5135 18.8451V20.5916L18.4577 21.7934H19.1091L19.6378 23.8122L21.0068 25.3521V26.2066L19.855 27.9061L13.7087 29.9624L12.519 31.2676V37.5775L35.4899 37.6526V31.6338L34.3098 29.7747L31.1563 29.0235L28.1351 27.3333L26.6339 25.4366L27.257 24.9578L28.3806 23.784L28.9659 21.6714L30.2216 21.2019L30.6276 19.6526L30.4199 18.8826L29.4947 18.385L29.7685 16.4601L29.3247 13.9061L28.1917 11.9718L24.9911 10.3568L22.0643 10.6103L19.4018 12.4695Z" fill="white"/>
<path d="M24.0095 28.8075L22.8671 30.0188L22.48 30.4601L23.2448 32.0563L22.0552 37.4929L26.03 37.399L24.6704 31.7652L25.5107 30.1127L24.0095 28.8075Z" fill="#235AB0"/>
<path d="M24.0001 16.2441L18.6751 15.0235L18.543 13.9437L20.4973 11.5117L24.2172 10.3568L27.6539 11.7277L29.4006 14.1878L29.5044 15.3709L24.0001 16.2441Z" fill="#235AB0"/>
<path d="M24.0095 29.0234C23.9303 29.0246 23.8522 29.0054 23.7829 28.9672L21.8946 27.8685C21.5275 27.6588 21.2225 27.3566 21.0103 26.9923C20.7982 26.628 20.6863 26.2144 20.6861 25.7934V25.4835C18.5996 24.1313 18.694 21.1454 18.694 21.014C18.6964 20.956 18.7103 20.8992 18.7349 20.8466C18.7595 20.794 18.7942 20.7467 18.8372 20.7075C18.8802 20.6682 18.9305 20.6377 18.9853 20.6178C19.0401 20.598 19.0984 20.589 19.1566 20.5915C19.2149 20.5939 19.2722 20.6078 19.3251 20.6323C19.378 20.6567 19.4255 20.6913 19.465 20.7341C19.5045 20.7768 19.5351 20.8267 19.5551 20.8812C19.575 20.9357 19.584 20.9936 19.5815 21.0516C19.5815 21.0516 19.4965 23.8685 21.3376 24.8544C21.4074 24.89 21.4661 24.9437 21.5077 25.0099C21.5493 25.076 21.572 25.152 21.5736 25.2299V25.7934C21.5741 26.0599 21.645 26.3217 21.7792 26.5524C21.9135 26.7831 22.1063 26.9746 22.3384 27.1079L24.0284 28.0468L25.709 27.1079C25.9416 26.9743 26.1352 26.7831 26.271 26.5526C26.4067 26.3222 26.4798 26.0605 26.4832 25.7934V25.2299C26.4828 25.1527 26.5037 25.077 26.5437 25.0108C26.5836 24.9446 26.6411 24.8905 26.7097 24.8544C28.598 23.831 28.4658 21.0985 28.4658 21.0516C28.4633 20.9936 28.4723 20.9357 28.4923 20.8812C28.5123 20.8267 28.5429 20.7768 28.5823 20.7341C28.6218 20.6913 28.6693 20.6567 28.7223 20.6323C28.7752 20.6078 28.8324 20.5939 28.8907 20.5915C29.0078 20.5888 29.1213 20.6315 29.2076 20.7102C29.2938 20.789 29.346 20.8977 29.3533 21.014C29.3533 21.1454 29.4477 24.1313 27.3612 25.4835V25.7934C27.361 26.2144 27.2492 26.628 27.037 26.9923C26.8248 27.3566 26.5198 27.6588 26.1527 27.8685L24.2644 28.9672C24.1873 29.0116 24.0983 29.0311 24.0095 29.0234Z" fill="#333333"/>
<path d="M21.8098 31.2677C21.7514 31.2694 21.6933 31.2585 21.6395 31.2358C21.5858 31.2131 21.5376 31.179 21.4982 31.1361L19.4116 29.014C19.3575 28.9595 19.3185 28.8919 19.2987 28.8178C19.2788 28.7437 19.2787 28.6657 19.2984 28.5915C19.6206 27.4922 20.1316 26.4565 20.809 25.5305C20.8425 25.4834 20.8854 25.4436 20.935 25.4136C20.9847 25.3836 21.0399 25.3642 21.0974 25.3563C21.1549 25.3484 21.2135 25.3521 21.2694 25.3675C21.3253 25.383 21.3775 25.4099 21.4227 25.4461C21.47 25.4795 21.51 25.522 21.5402 25.5713C21.5703 25.6206 21.59 25.6757 21.598 25.7329C21.6059 25.7901 21.602 25.8483 21.5865 25.9039C21.571 25.9596 21.5441 26.0115 21.5076 26.0564C20.9529 26.8318 20.52 27.6866 20.2236 28.5915L21.8381 30.2347L23.7264 28.5633C23.8048 28.4914 23.9076 28.4515 24.0143 28.4515C24.121 28.4515 24.2238 28.4914 24.3023 28.5633L26.1906 30.2347L27.805 28.5915C27.5125 27.6839 27.0827 26.8259 26.5305 26.047C26.494 26.0021 26.4671 25.9502 26.4516 25.8945C26.4361 25.8389 26.4322 25.7807 26.4401 25.7235C26.4481 25.6663 26.4677 25.6115 26.4979 25.5621C26.528 25.5128 26.568 25.4701 26.6154 25.4367C26.6606 25.4005 26.7127 25.3738 26.7687 25.3583C26.8246 25.3429 26.8832 25.339 26.9407 25.3469C26.9982 25.3548 27.0534 25.3742 27.103 25.4042C27.1527 25.4342 27.1956 25.474 27.2291 25.5211C27.9064 26.4471 28.4175 27.4828 28.7397 28.5821C28.7594 28.6563 28.7593 28.7343 28.7394 28.8084C28.7195 28.8825 28.6806 28.9501 28.6264 29.0046L26.5399 31.1267C26.4578 31.2026 26.3499 31.2448 26.2378 31.2448C26.1257 31.2448 26.0177 31.2026 25.9356 31.1267L23.9907 29.4367L22.0364 31.1267C21.978 31.1967 21.8986 31.2462 21.8098 31.2677Z" fill="#333333"/>
<path d="M12.4437 37.9812C12.3261 37.9812 12.2132 37.9347 12.13 37.8519C12.0468 37.7692 12 37.657 12 37.5399V32.291C12.0003 31.6187 12.2128 30.9637 12.6075 30.4179C13.0021 29.8721 13.5591 29.463 14.1998 29.2488L19.8647 27.3708C19.9749 27.3348 20.0949 27.3431 20.199 27.394C20.3032 27.4449 20.3831 27.5344 20.4217 27.6432C20.458 27.7528 20.4496 27.8723 20.3984 27.9758C20.3472 28.0794 20.2573 28.1588 20.1479 28.1973L14.4831 30.0752C14.0175 30.2293 13.6127 30.5254 13.3262 30.9215C13.0397 31.3177 12.8862 31.7936 12.8875 32.2816V37.5305C12.8887 37.5893 12.8782 37.6476 12.8565 37.7022C12.8347 37.7569 12.8022 37.8067 12.7609 37.8487C12.7196 37.8907 12.6702 37.9241 12.6158 37.9468C12.5613 37.9696 12.5028 37.9812 12.4437 37.9812Z" fill="#333333"/>
<path d="M35.5656 37.9812C35.5073 37.9812 35.4496 37.9699 35.3958 37.9478C35.342 37.9256 35.293 37.8929 35.2518 37.8519C35.2106 37.811 35.1779 37.7624 35.1556 37.7089C35.1333 37.6553 35.1219 37.5979 35.1219 37.5399V32.291C35.1231 31.803 34.9696 31.3271 34.6831 30.9309C34.3966 30.5348 33.9918 30.2387 33.5263 30.0846L27.8614 28.2067C27.752 28.1682 27.6621 28.0888 27.6109 27.9852C27.5598 27.8817 27.5514 27.7622 27.5876 27.6526C27.6263 27.5438 27.7062 27.4543 27.8103 27.4034C27.9144 27.3525 28.0345 27.3442 28.1447 27.3802L33.8095 29.2582C34.4417 29.4783 34.9894 29.8885 35.3767 30.4319C35.7641 30.9753 35.972 31.6249 35.9716 32.291V37.5399C35.972 37.6508 35.9305 37.7578 35.8552 37.8396C35.78 37.9213 35.6766 37.9718 35.5656 37.9812Z" fill="#333333"/>
<path d="M22.1021 37.8592H21.9982C21.9422 37.846 21.8894 37.8218 21.8429 37.7882C21.7963 37.7545 21.757 37.7119 21.7271 37.663C21.6973 37.6141 21.6775 37.5598 21.6689 37.5032C21.6603 37.4466 21.6632 37.3889 21.6772 37.3334L22.9235 32.122L22.0738 30.4225C22.0245 30.3163 22.0186 30.1954 22.0573 30.085C22.0961 29.9746 22.1765 29.8836 22.2815 29.831C22.3868 29.7824 22.5071 29.7768 22.6166 29.8154C22.726 29.8541 22.8158 29.9338 22.8668 30.0376L23.811 31.9155C23.8441 32.013 23.8441 32.1186 23.811 32.216L22.527 37.5681C22.4955 37.6546 22.4376 37.7291 22.3614 37.7813C22.2852 37.8335 22.1946 37.8608 22.1021 37.8592Z" fill="#333333"/>
<path d="M25.9072 37.8592C25.8071 37.8599 25.7097 37.8268 25.6309 37.7655C25.552 37.7041 25.4963 37.6179 25.4729 37.5211L24.1889 32.169C24.1558 32.0716 24.1558 31.966 24.1889 31.8685L25.133 29.9906C25.184 29.8868 25.2739 29.8071 25.3833 29.7684C25.4927 29.7298 25.613 29.7354 25.7184 29.784C25.7712 29.8091 25.8186 29.8445 25.8577 29.8879C25.8968 29.9312 25.9268 29.9819 25.9461 30.0369C25.9654 30.0919 25.9736 30.15 25.9702 30.2081C25.9667 30.2663 25.9518 30.3233 25.9261 30.3757L25.0764 32.075L26.3226 37.2864C26.3367 37.3419 26.3395 37.3996 26.331 37.4562C26.3224 37.5128 26.3026 37.5671 26.2727 37.616C26.2429 37.6649 26.2035 37.7075 26.157 37.7412C26.1104 37.7748 26.0576 37.799 26.0016 37.8122L25.9072 37.8592Z" fill="#333333"/>
<path d="M28.8905 22.291C28.7797 22.2893 28.6733 22.2474 28.5916 22.173C28.5098 22.0986 28.4583 21.997 28.4467 21.8874C28.4388 21.7708 28.4767 21.6555 28.5524 21.5662C28.6282 21.4768 28.7358 21.4204 28.8527 21.4085C29.2047 21.3622 29.5269 21.1876 29.757 20.9188C29.9872 20.65 30.1091 20.306 30.099 19.953C30.099 19.5211 30.099 19.3051 29.9762 19.2394C29.9001 19.2071 29.8182 19.1906 29.7355 19.1906C29.6527 19.1906 29.5708 19.2071 29.4947 19.2394C29.4127 19.2734 29.3224 19.2825 29.2351 19.2658C29.1478 19.2491 29.0673 19.2072 29.0038 19.1454C28.9413 19.0844 28.8989 19.006 28.8821 18.9205C28.8652 18.8351 28.8747 18.7465 28.9094 18.6665C29.1754 18.0014 29.2977 17.2879 29.2681 16.5726C29.2681 16.4224 29.2681 16.2628 29.2681 16.0938C29.2631 14.7066 28.7062 13.3778 27.719 12.3977C26.7318 11.4177 25.3947 10.8664 23.9998 10.8639C22.6001 10.8639 21.2577 11.4168 20.2679 12.4012C19.2782 13.3855 18.7221 14.7205 18.7221 16.1126C18.6252 16.9812 18.7519 17.86 19.0903 18.6665C19.1271 18.7477 19.1377 18.8382 19.1208 18.9256C19.1039 19.013 19.0603 19.093 18.9959 19.1548C18.9313 19.2151 18.8504 19.2553 18.7632 19.2703C18.6759 19.2854 18.5861 19.2746 18.505 19.2394C18.4288 19.2071 18.347 19.1906 18.2642 19.1906C18.1815 19.1906 18.0996 19.2071 18.0234 19.2394C17.9385 19.3051 17.8629 19.5211 17.9007 19.953C17.8906 20.306 18.0125 20.65 18.2426 20.9188C18.4728 21.1876 18.795 21.3622 19.147 21.4085C19.2053 21.4132 19.2622 21.4293 19.3142 21.4559C19.3662 21.4826 19.4125 21.5194 19.4502 21.5639C19.4879 21.6084 19.5164 21.6599 19.5341 21.7154C19.5517 21.7709 19.5581 21.8294 19.553 21.8874C19.5483 21.945 19.532 22.0011 19.505 22.0524C19.4781 22.1037 19.4411 22.149 19.3962 22.1858C19.3512 22.2226 19.2994 22.2501 19.2436 22.2665C19.1878 22.283 19.1293 22.2881 19.0714 22.2816C18.5137 22.2159 17.9988 21.9514 17.6221 21.5371C17.2454 21.1227 17.0325 20.5867 17.0227 20.0282C16.9615 19.757 16.9748 19.4744 17.0611 19.2101C17.1475 18.9457 17.3038 18.7094 17.5136 18.5258C17.6655 18.4226 17.8406 18.3582 18.0234 18.338C17.8421 17.6173 17.7784 16.8722 17.8346 16.1314C17.8396 14.5085 18.4914 12.9537 19.647 11.8079C20.8027 10.6621 22.368 10.0187 23.9998 10.0187C25.6326 10.0236 27.1968 10.6717 28.3505 11.8207C29.5041 12.9698 30.1531 14.5264 30.1556 16.1502C30.1556 16.3286 30.1556 16.4882 30.1556 16.629C30.1639 17.2037 30.1037 17.7774 29.9762 18.338C30.163 18.3537 30.3422 18.4185 30.4955 18.5258C30.7053 18.7094 30.8616 18.9457 30.948 19.2101C31.0344 19.4744 31.0477 19.757 30.9865 20.0282C30.9807 20.5879 30.7691 21.126 30.3917 21.5412C30.0142 21.9564 29.497 22.2197 28.9377 22.2816L28.8905 22.291Z" fill="#333333"/>
<path d="M29.4852 15.6243C22.8763 18.8544 18.486 15.1644 18.4388 15.1269C18.3834 15.0751 18.3392 15.0125 18.309 14.943C18.2788 14.8736 18.2632 14.7986 18.2632 14.7229C18.2632 14.6473 18.2788 14.5725 18.309 14.5031C18.3392 14.4337 18.3834 14.3711 18.4388 14.3192C18.5472 14.2023 18.696 14.1306 18.8554 14.1184C19.0148 14.1062 19.1729 14.1544 19.298 14.2535C19.4585 14.3849 23.1973 17.4555 28.9943 14.6104C29.0623 14.5726 29.1372 14.5487 29.2146 14.54C29.292 14.5314 29.3704 14.5381 29.4452 14.56C29.5199 14.5818 29.5895 14.6183 29.6499 14.6672C29.7103 14.7162 29.7602 14.7767 29.7968 14.8451C29.8293 14.9164 29.847 14.9936 29.8489 15.0718C29.8508 15.1501 29.8367 15.2279 29.8077 15.3006C29.7786 15.3734 29.735 15.4396 29.6796 15.4952C29.6242 15.5509 29.5581 15.5947 29.4852 15.6243Z" fill="#333333"/>
<path d="M36 37.1549H12V38H36V37.1549Z" fill="#333333"/>
</svg>
