<svg width="90" height="90" viewBox="0 0 90 90" fill="none" xmlns="http://www.w3.org/2000/svg">
<circle cx="45" cy="45" r="45" fill="#FAFAFA"/>
<g clip-path="url(#clip0_1112_178764)">
<path d="M26.0596 46.31C31.8365 46.31 36.5196 41.6269 36.5196 35.85C36.5196 30.0731 31.8365 25.39 26.0596 25.39C20.2827 25.39 15.5996 30.0731 15.5996 35.85C15.5996 41.6269 20.2827 46.31 26.0596 46.31Z" fill="#235AB0"/>
<path d="M74.9202 41.01H54.2002V63.5H74.9202V41.01Z" fill="white"/>
<path d="M75.3303 64.03H53.8503C53.7097 64.03 53.5749 63.9741 53.4755 63.8748C53.3761 63.7754 53.3203 63.6406 53.3203 63.5V42.24C53.3203 41.7096 53.531 41.2008 53.9061 40.8257C54.2811 40.4506 54.7899 40.24 55.3203 40.24H73.8703C74.4007 40.24 74.9094 40.4506 75.2845 40.8257C75.6596 41.2008 75.8703 41.7096 75.8703 42.24V63.5C75.8703 63.5704 75.8562 63.6401 75.829 63.7051C75.8017 63.77 75.7618 63.8291 75.7115 63.8784C75.6613 63.9278 75.6017 63.9664 75.5362 63.9924C75.4707 64.0185 75.4007 64.0314 75.3303 64.03ZM54.3803 62.97H74.8003V42.24C74.8003 42.1165 74.776 41.9942 74.7288 41.8801C74.6815 41.7661 74.6123 41.6625 74.525 41.5752C74.4377 41.4879 74.3341 41.4188 74.22 41.3716C74.106 41.3243 73.9837 41.3 73.8603 41.3H55.3103C55.0627 41.3027 54.8262 41.4029 54.652 41.5789C54.4779 41.7549 54.3803 41.9924 54.3803 42.24V62.97Z" fill="#333333"/>
<path d="M60.0403 43.67H58.3203C58.022 43.67 57.7803 43.9117 57.7803 44.21V45.93C57.7803 46.2282 58.022 46.47 58.3203 46.47H60.0403C60.3385 46.47 60.5803 46.2282 60.5803 45.93V44.21C60.5803 43.9117 60.3385 43.67 60.0403 43.67Z" fill="#235AB0"/>
<path d="M65.4397 43.67H63.7197C63.4215 43.67 63.1797 43.9117 63.1797 44.21V45.93C63.1797 46.2282 63.4215 46.47 63.7197 46.47H65.4397C65.7379 46.47 65.9797 46.2282 65.9797 45.93V44.21C65.9797 43.9117 65.7379 43.67 65.4397 43.67Z" fill="#235AB0"/>
<path d="M70.8498 43.67H69.1298C68.8316 43.67 68.5898 43.9117 68.5898 44.21V45.93C68.5898 46.2282 68.8316 46.47 69.1298 46.47H70.8498C71.1481 46.47 71.3898 46.2282 71.3898 45.93V44.21C71.3898 43.9117 71.1481 43.67 70.8498 43.67Z" fill="#235AB0"/>
<path d="M60.0403 48.66H58.3203C58.022 48.66 57.7803 48.9017 57.7803 49.2V50.92C57.7803 51.2182 58.022 51.46 58.3203 51.46H60.0403C60.3385 51.46 60.5803 51.2182 60.5803 50.92V49.2C60.5803 48.9017 60.3385 48.66 60.0403 48.66Z" fill="#235AB0"/>
<path d="M65.4397 48.66H63.7197C63.4215 48.66 63.1797 48.9017 63.1797 49.2V50.92C63.1797 51.2182 63.4215 51.46 63.7197 51.46H65.4397C65.7379 51.46 65.9797 51.2182 65.9797 50.92V49.2C65.9797 48.9017 65.7379 48.66 65.4397 48.66Z" fill="#235AB0"/>
<path d="M70.8498 48.66H69.1298C68.8316 48.66 68.5898 48.9017 68.5898 49.2V50.92C68.5898 51.2182 68.8316 51.46 69.1298 51.46H70.8498C71.1481 51.46 71.3898 51.2182 71.3898 50.92V49.2C71.3898 48.9017 71.1481 48.66 70.8498 48.66Z" fill="#235AB0"/>
<path d="M60.0403 53.64H58.3203C58.022 53.64 57.7803 53.8818 57.7803 54.18V55.9C57.7803 56.1983 58.022 56.44 58.3203 56.44H60.0403C60.3385 56.44 60.5803 56.1983 60.5803 55.9V54.18C60.5803 53.8818 60.3385 53.64 60.0403 53.64Z" fill="#235AB0"/>
<path d="M65.4397 53.64H63.7197C63.4215 53.64 63.1797 53.8818 63.1797 54.18V55.9C63.1797 56.1983 63.4215 56.44 63.7197 56.44H65.4397C65.7379 56.44 65.9797 56.1983 65.9797 55.9V54.18C65.9797 53.8818 65.7379 53.64 65.4397 53.64Z" fill="#235AB0"/>
<path d="M70.8498 53.64H69.1298C68.8316 53.64 68.5898 53.8818 68.5898 54.18V55.9C68.5898 56.1983 68.8316 56.44 69.1298 56.44H70.8498C71.1481 56.44 71.3898 56.1983 71.3898 55.9V54.18C71.3898 53.8818 71.1481 53.64 70.8498 53.64Z" fill="#235AB0"/>
<path d="M64.5798 31.7199C64.4607 31.7203 64.3451 31.6797 64.2523 31.6051C64.1594 31.5305 64.0951 31.4264 64.0699 31.31C63.432 28.7851 62.1477 26.4698 60.3434 24.5919C58.5392 22.7141 56.2771 21.3381 53.7798 20.5997C51.0398 19.8517 48.1433 19.9004 45.4299 20.7399C43.1729 21.4221 41.1143 22.6401 39.4299 24.2899C39.3806 24.3392 39.3222 24.3782 39.2578 24.4049C39.1935 24.4316 39.1245 24.4455 39.0549 24.4455C38.9852 24.4455 38.9162 24.4316 38.8519 24.4049C38.7875 24.3782 38.7291 24.3392 38.6799 24.2899C38.6306 24.2407 38.5915 24.1822 38.5648 24.1178C38.5381 24.0535 38.5244 23.9846 38.5244 23.9149C38.5244 23.8453 38.5381 23.7762 38.5648 23.7118C38.5915 23.6475 38.6306 23.5892 38.6799 23.5399C40.499 21.7661 42.718 20.4559 45.1498 19.7199C48.0579 18.8154 51.1649 18.7669 54.0999 19.58C56.7761 20.3697 59.1992 21.8454 61.1288 23.861C63.0585 25.8765 64.4274 28.3619 65.0999 31.07C65.13 31.2051 65.1061 31.3465 65.0333 31.4642C64.9604 31.582 64.8443 31.6666 64.7098 31.6998L64.5798 31.7199Z" fill="#333333"/>
<path d="M65.9205 36.19L61.7505 33.73C61.6906 33.6941 61.6384 33.6466 61.5968 33.5904C61.5553 33.5342 61.5253 33.4703 61.5086 33.4024C61.4919 33.3346 61.4887 33.2642 61.4993 33.1951C61.5099 33.1261 61.5341 33.0598 61.5705 33.0001C61.6055 32.9405 61.652 32.8884 61.7073 32.847C61.7626 32.8056 61.8256 32.7756 61.8927 32.7588C61.9597 32.7421 62.0294 32.7391 62.0977 32.7496C62.166 32.7601 62.2315 32.784 62.2904 32.8201L65.5505 34.7401L67.3904 31.6299C67.4246 31.5695 67.4705 31.5166 67.5255 31.4742C67.5804 31.4318 67.6433 31.4008 67.7104 31.3831C67.7775 31.3654 67.8475 31.3614 67.9162 31.3712C67.9849 31.3809 68.0509 31.4043 68.1105 31.44C68.1709 31.4742 68.2238 31.5201 68.2662 31.575C68.3086 31.63 68.3395 31.693 68.3572 31.7601C68.3749 31.8272 68.3791 31.8969 68.3693 31.9656C68.3596 32.0343 68.3361 32.1005 68.3005 32.16L65.9205 36.19Z" fill="#333333"/>
<path d="M40.3296 70.3C38.0203 70.313 35.7364 69.8178 33.6396 68.8498C31.1255 67.6379 28.9721 65.7896 27.3933 63.488C25.8145 61.1865 24.8652 58.5119 24.6396 55.73C24.6313 55.5899 24.6778 55.4521 24.7692 55.3457C24.8607 55.2393 24.99 55.1726 25.1297 55.1599C25.2697 55.1515 25.4075 55.1981 25.5139 55.2895C25.6203 55.381 25.687 55.5102 25.6997 55.6499C25.9117 58.2465 26.7995 60.7426 28.2748 62.8899C29.7502 65.0371 31.7618 66.7608 34.1097 67.8899C36.6898 69.0776 39.5563 69.501 42.3697 69.1098C44.7193 68.8084 46.9603 67.9403 48.8996 66.5801C48.9567 66.5398 49.0212 66.5111 49.0893 66.4958C49.1575 66.4806 49.2279 66.4791 49.2967 66.4912C49.3654 66.5033 49.4311 66.5288 49.49 66.5664C49.5488 66.6039 49.5997 66.6527 49.6396 66.7099C49.7193 66.8248 49.7514 66.9662 49.729 67.1042C49.7066 67.2422 49.6316 67.3661 49.5196 67.4499C47.4377 68.9021 45.0367 69.8316 42.5196 70.1599C41.7938 70.2577 41.062 70.3046 40.3296 70.3Z" fill="#333333"/>
<path d="M22.0396 54.98C21.9158 54.9801 21.7959 54.9376 21.6996 54.8599C21.6455 54.8154 21.6006 54.7608 21.5678 54.699C21.5349 54.6371 21.5147 54.5693 21.5082 54.4995C21.5016 54.4298 21.509 54.3596 21.5299 54.2927C21.5507 54.2259 21.5846 54.1636 21.6296 54.1099L24.6296 50.53L28.3496 53.6399C28.4027 53.6842 28.4464 53.7387 28.4782 53.8C28.5101 53.8614 28.5294 53.9284 28.5349 53.9973C28.5405 54.0662 28.5323 54.1357 28.5108 54.2014C28.4893 54.2671 28.4549 54.3276 28.4096 54.3799C28.3201 54.4863 28.1924 54.5533 28.0539 54.5664C27.9155 54.5795 27.7775 54.5377 27.6696 54.45L24.7696 52.02L22.4396 54.79C22.392 54.8503 22.3311 54.8987 22.2618 54.9316C22.1924 54.9646 22.1164 54.9812 22.0396 54.98Z" fill="#333333"/>
<path d="M36.5202 36.28H15.5202C15.3796 36.28 15.2448 36.2242 15.1454 36.1248C15.0461 36.0254 14.9902 35.8906 14.9902 35.75C14.9902 35.6094 15.0461 35.4746 15.1454 35.3752C15.2448 35.2758 15.3796 35.22 15.5202 35.22H36.5202C36.6608 35.22 36.7956 35.2758 36.895 35.3752C36.9944 35.4746 37.0502 35.6094 37.0502 35.75C37.0502 35.8906 36.9944 36.0254 36.895 36.1248C36.7956 36.2242 36.6608 36.28 36.5202 36.28Z" fill="#333333"/>
<path d="M26.0301 36.2901C25.9605 36.2901 25.8915 36.2762 25.8272 36.2496C25.7629 36.223 25.7045 36.1841 25.6553 36.1349C25.6061 36.0856 25.5671 36.0273 25.5404 35.963C25.5138 35.8987 25.5001 35.8297 25.5001 35.7601V25.2601C25.4987 25.1901 25.5115 25.1207 25.5376 25.0558C25.5638 24.9908 25.6028 24.9317 25.6523 24.8822C25.7017 24.8327 25.7607 24.7938 25.8257 24.7677C25.8906 24.7415 25.9601 24.7287 26.0301 24.7301C26.0992 24.7301 26.1677 24.7439 26.2314 24.7706C26.2952 24.7974 26.3529 24.8365 26.4013 24.8858C26.4498 24.9352 26.4879 24.9937 26.5134 25.058C26.5389 25.1222 26.5514 25.191 26.5501 25.2601V35.7201C26.5571 35.7924 26.5488 35.8654 26.5259 35.9344C26.5029 36.0034 26.4657 36.0667 26.4167 36.1205C26.3677 36.1742 26.308 36.217 26.2414 36.2462C26.1748 36.2754 26.1028 36.2905 26.0301 36.2901Z" fill="#333333"/>
<path d="M36.5204 36.3101C36.4512 36.3101 36.3828 36.2963 36.3191 36.2695C36.2553 36.2428 36.1975 36.2034 36.1491 36.1541C36.1007 36.1047 36.0626 36.0462 36.0371 35.9819C36.0116 35.9177 35.9991 35.8492 36.0004 35.78C36.0004 33.1279 34.9468 30.5843 33.0715 28.709C31.1961 26.8336 28.6526 25.78 26.0004 25.78C23.3483 25.78 20.8047 26.8336 18.9293 28.709C17.054 30.5843 16.0004 33.1279 16.0004 35.78C16.0004 35.9206 15.9445 36.0554 15.8452 36.1548C15.7458 36.2542 15.611 36.3101 15.4704 36.3101C15.3298 36.3101 15.195 36.2542 15.0956 36.1548C14.9962 36.0554 14.9404 35.9206 14.9404 35.78C14.9536 32.8667 16.1167 30.0764 18.1768 28.0164C20.2368 25.9563 23.0271 24.7932 25.9404 24.78C27.39 24.78 28.8253 25.0665 30.1638 25.623C31.5023 26.1796 32.7176 26.9951 33.7399 28.0229C34.7621 29.0508 35.5711 30.2705 36.1204 31.6121C36.6696 32.9536 36.9483 34.3905 36.9404 35.8401C36.93 35.9531 36.8835 36.0597 36.8079 36.1443C36.7323 36.2289 36.6315 36.287 36.5204 36.3101Z" fill="#333333"/>
<path d="M20.4001 36.28C20.2595 36.28 20.1247 36.2241 20.0253 36.1248C19.9259 36.0254 19.8701 35.8906 19.8701 35.75C19.8701 30.75 21.8701 27.8701 23.5301 26.3201C23.6308 26.2229 23.7652 26.1685 23.9051 26.1685C24.045 26.1685 24.1794 26.2229 24.2801 26.3201C24.3294 26.3693 24.3685 26.4276 24.3951 26.4919C24.4218 26.5563 24.4355 26.6254 24.4355 26.6951C24.4355 26.7647 24.4218 26.8336 24.3951 26.8979C24.3685 26.9623 24.3294 27.0208 24.2801 27.0701C22.7701 28.4801 20.9601 31.07 20.9601 35.72C20.9644 35.7947 20.953 35.8693 20.9264 35.9392C20.8998 36.0091 20.8587 36.0728 20.8058 36.1257C20.7529 36.1786 20.6894 36.2197 20.6194 36.2463C20.5495 36.2729 20.4748 36.2844 20.4001 36.28Z" fill="#333333"/>
<path d="M31.65 36.28C31.5808 36.28 31.5124 36.2663 31.4487 36.2395C31.3849 36.2127 31.3271 36.1736 31.2787 36.1243C31.2303 36.0749 31.1922 36.0164 31.1667 35.9521C31.1412 35.8879 31.1287 35.8191 31.13 35.75C31.13 31.15 29.32 28.5099 27.8 27.0999C27.7507 27.0506 27.7116 26.9923 27.6849 26.928C27.6583 26.8636 27.6445 26.7945 27.6445 26.7249C27.6445 26.6552 27.6583 26.5863 27.6849 26.522C27.7116 26.4576 27.7507 26.3991 27.8 26.3499C27.8492 26.3006 27.9076 26.2615 27.972 26.2349C28.0363 26.2082 28.1053 26.1946 28.175 26.1946C28.2446 26.1946 28.3136 26.2082 28.3779 26.2349C28.4423 26.2615 28.5008 26.3006 28.55 26.3499C30.22 27.8999 32.21 30.8 32.21 35.78C32.2061 35.8497 32.1886 35.9179 32.1584 35.9807C32.1281 36.0436 32.0858 36.0998 32.0338 36.1462C31.9817 36.1927 31.9211 36.2283 31.8552 36.2512C31.7894 36.2742 31.7196 36.2841 31.65 36.28Z" fill="#333333"/>
<path d="M26.0302 31.7801C19.9702 31.7801 18.3203 28.58 18.2503 28.44C18.1879 28.314 18.1782 28.1684 18.2232 28.0352C18.2682 27.9021 18.3643 27.7924 18.4902 27.73C18.6162 27.6677 18.7618 27.6579 18.8949 27.7029C19.0281 27.7479 19.1379 27.8441 19.2003 27.97C19.2603 28.08 20.6802 30.72 26.0302 30.72C26.0994 30.72 26.1678 30.7338 26.2316 30.7605C26.2953 30.7873 26.3531 30.8264 26.4015 30.8758C26.4499 30.9251 26.488 30.9837 26.5136 31.0479C26.5391 31.1122 26.5516 31.1809 26.5502 31.2501C26.5516 31.3192 26.5391 31.388 26.5136 31.4522C26.488 31.5164 26.4499 31.575 26.4015 31.6243C26.3531 31.6737 26.2953 31.7128 26.2316 31.7396C26.1678 31.7663 26.0994 31.7801 26.0302 31.7801Z" fill="#333333"/>
<path d="M26.03 31.7799C25.9604 31.7799 25.8915 31.7663 25.8271 31.7396C25.7628 31.713 25.7044 31.6739 25.6552 31.6246C25.606 31.5754 25.567 31.5171 25.5403 31.4528C25.5137 31.3885 25.5 31.3195 25.5 31.2499C25.5 31.1093 25.5558 30.9745 25.6552 30.8751C25.7546 30.7757 25.8894 30.7199 26.03 30.7199C31.38 30.7199 32.8 28.0799 32.85 27.9699C32.9141 27.8456 33.0247 27.7517 33.1577 27.7086C33.2906 27.6655 33.4352 27.6768 33.56 27.7399C33.622 27.7697 33.6775 27.8117 33.7232 27.8632C33.7689 27.9146 33.8039 27.9746 33.8262 28.0397C33.8486 28.1048 33.8577 28.1736 33.8532 28.2423C33.8487 28.311 33.8306 28.3782 33.8 28.4398C33.73 28.5798 32.08 31.7799 26.03 31.7799Z" fill="#333333"/>
<path d="M26.03 46.79C25.8894 46.79 25.7546 46.7342 25.6552 46.6348C25.5558 46.5354 25.5 46.4006 25.5 46.26V35.72C25.5 35.5794 25.5558 35.4446 25.6552 35.3452C25.7546 35.2458 25.8894 35.1899 26.03 35.1899C26.1705 35.1899 26.3053 35.2458 26.4047 35.3452C26.5041 35.4446 26.56 35.5794 26.56 35.72V46.23C26.5641 46.3021 26.5534 46.3743 26.5286 46.4421C26.5038 46.5099 26.4654 46.5718 26.4158 46.6243C26.3661 46.6767 26.3063 46.7186 26.24 46.7471C26.1737 46.7756 26.1022 46.7902 26.03 46.79Z" fill="#333333"/>
<path d="M26.0303 46.79C23.1129 46.79 20.315 45.631 18.2521 43.5681C16.1892 41.5052 15.0303 38.7074 15.0303 35.79C15.0303 35.6495 15.0862 35.5147 15.1855 35.4153C15.2849 35.3159 15.4197 35.26 15.5603 35.26C15.7009 35.26 15.8357 35.3159 15.9351 35.4153C16.0345 35.5147 16.0903 35.6495 16.0903 35.79C16.0903 38.4422 17.1439 40.9857 19.0192 42.8611C20.8946 44.7364 23.4381 45.79 26.0903 45.79C28.7424 45.79 31.286 44.7364 33.1614 42.8611C35.0367 40.9857 36.0903 38.4422 36.0903 35.79C36.0889 35.7209 36.1014 35.6521 36.127 35.5879C36.1525 35.5236 36.1906 35.4651 36.239 35.4158C36.2874 35.3664 36.3452 35.3273 36.4089 35.3005C36.4727 35.2738 36.5412 35.26 36.6103 35.26C36.7509 35.26 36.8857 35.3159 36.985 35.4153C37.0844 35.5147 37.1403 35.6495 37.1403 35.79C37.1403 37.2439 36.8522 38.6833 36.2925 40.0251C35.7329 41.3669 34.9128 42.5843 33.8797 43.6072C32.8466 44.6301 31.6209 45.4381 30.2736 45.9844C28.9263 46.5307 27.484 46.8046 26.0303 46.79Z" fill="#333333"/>
<path d="M28.5196 44.98C28.3814 44.9801 28.2487 44.9264 28.1496 44.8301C28.1003 44.7809 28.0612 44.7223 28.0345 44.658C28.0079 44.5936 27.9941 44.5247 27.9941 44.4551C27.9941 44.3854 28.0079 44.3163 28.0345 44.252C28.0612 44.1876 28.1003 44.1293 28.1496 44.0801C29.1749 42.9605 29.9681 41.6486 30.483 40.2205C30.998 38.7923 31.2245 37.2763 31.1496 35.76C31.1483 35.6909 31.1607 35.6221 31.1863 35.5579C31.2118 35.4936 31.2499 35.4351 31.2983 35.3857C31.3468 35.3364 31.4045 35.2973 31.4683 35.2705C31.532 35.2438 31.6005 35.23 31.6696 35.23C31.8102 35.23 31.945 35.2859 32.0444 35.3853C32.1438 35.4846 32.1996 35.6194 32.1996 35.76C32.1996 40.46 30.4196 43.2801 28.9196 44.8201C28.8682 44.8738 28.8059 44.9158 28.7369 44.9434C28.6679 44.971 28.5938 44.9834 28.5196 44.98Z" fill="#333333"/>
<path d="M23.5301 44.97C23.4591 44.9712 23.3887 44.9577 23.3232 44.9302C23.2578 44.9026 23.1988 44.8617 23.1501 44.8101C21.6501 43.2701 19.8701 40.45 19.8701 35.76C19.8701 35.6194 19.9259 35.4846 20.0253 35.3853C20.1247 35.2859 20.2595 35.23 20.4001 35.23C20.5407 35.23 20.6754 35.2859 20.7748 35.3853C20.8742 35.4846 20.9301 35.6194 20.9301 35.76C20.9301 40.1 22.5501 42.6801 23.9301 44.0801C23.9791 44.1284 24.018 44.186 24.0445 44.2495C24.071 44.313 24.0847 44.3811 24.0847 44.45C24.0847 44.5188 24.071 44.5869 24.0445 44.6504C24.018 44.7139 23.9791 44.7717 23.9301 44.8201C23.8768 44.8705 23.8139 44.9095 23.7452 44.9353C23.6765 44.9611 23.6034 44.9729 23.5301 44.97Z" fill="#333333"/>
<path d="M33.33 43.8301C33.2308 43.8315 33.1333 43.8049 33.0485 43.7537C32.9636 43.7024 32.8949 43.6284 32.85 43.54C32.79 43.42 31.37 40.79 26.03 40.79C25.8894 40.79 25.7546 40.7342 25.6552 40.6348C25.5558 40.5354 25.5 40.4006 25.5 40.26C25.5 40.1194 25.5558 39.9846 25.6552 39.8853C25.7546 39.7859 25.8894 39.73 26.03 39.73C32.03 39.73 33.73 42.9301 33.8 43.0701C33.8623 43.196 33.872 43.3415 33.827 43.4746C33.782 43.6078 33.686 43.7177 33.56 43.78C33.489 43.8164 33.4097 43.8336 33.33 43.8301Z" fill="#333333"/>
<path d="M18.7299 43.8301C18.6476 43.8279 18.5663 43.8109 18.4899 43.78C18.3658 43.7158 18.2714 43.6058 18.2267 43.4734C18.1819 43.341 18.1903 43.1965 18.2499 43.0701C18.3199 42.9301 19.9699 39.73 26.0299 39.73C26.099 39.73 26.1675 39.7438 26.2312 39.7705C26.295 39.7973 26.3527 39.8364 26.4012 39.8857C26.4496 39.9351 26.4877 39.9936 26.5132 40.0579C26.5388 40.1221 26.5512 40.1909 26.5499 40.26C26.5512 40.3291 26.5388 40.3979 26.5132 40.4622C26.4877 40.5264 26.4496 40.5847 26.4012 40.634C26.3527 40.6834 26.295 40.7228 26.2312 40.7495C26.1675 40.7763 26.099 40.7901 26.0299 40.79C20.6799 40.79 19.2599 43.43 19.1999 43.54C19.1577 43.6284 19.0909 43.7027 19.0076 43.7542C18.9242 43.8056 18.8278 43.832 18.7299 43.8301Z" fill="#333333"/>
</g>
<defs>
<clipPath id="clip0_1112_178764">
<rect width="60.85" height="51.31" fill="white" transform="translate(15 19)"/>
</clipPath>
</defs>
</svg>
