<svg width="100" height="100" viewBox="0 0 100 100" fill="none" xmlns="http://www.w3.org/2000/svg">
<circle cx="50" cy="50" r="50" fill="#F2F6FB"/>
<g clip-path="url(#clip0_1028_170908)">
<path d="M27.7094 57.5696L37.7994 52.0996L48.1194 57.7696L48.3394 70.1496L38.0694 75.1596L27.3594 69.2496L27.7094 57.5696Z" fill="white"/>
<path d="M55.7891 59.8203C65.5921 59.8203 73.5391 51.8734 73.5391 42.0703C73.5391 32.2673 65.5921 24.3203 55.7891 24.3203C45.986 24.3203 38.0391 32.2673 38.0391 42.0703C38.0391 51.8734 45.986 59.8203 55.7891 59.8203Z" fill="white"/>
<path d="M46.3308 42.71C46.2612 42.71 46.1923 42.6961 46.128 42.6694C46.0637 42.6428 46.0052 42.6039 45.956 42.5547C45.9068 42.5055 45.8678 42.4469 45.8411 42.3826C45.8145 42.3183 45.8008 42.2495 45.8008 42.1799C45.8008 34.9699 48.3608 30.47 50.5108 27.97C50.6034 27.8644 50.7336 27.7991 50.8736 27.7879C51.0136 27.7767 51.1525 27.8204 51.2608 27.9099C51.3664 28.0026 51.4317 28.1327 51.4429 28.2727C51.4541 28.4127 51.4103 28.5517 51.3208 28.6599C48.3208 32.0999 46.8608 36.6599 46.8608 42.1799C46.8608 42.2495 46.8471 42.3183 46.8204 42.3826C46.7938 42.4469 46.7548 42.5055 46.7056 42.5547C46.6563 42.6039 46.5979 42.6428 46.5336 42.6694C46.4693 42.6961 46.4004 42.71 46.3308 42.71Z" fill="#333333"/>
<path d="M55.7893 35.1398C45.7893 35.1398 43.1493 29.9496 43.0393 29.7296C42.977 29.6037 42.9673 29.4582 43.0123 29.3251C43.0573 29.1919 43.1533 29.082 43.2793 29.0197C43.4053 28.9574 43.5509 28.9478 43.684 28.9928C43.8172 29.0378 43.927 29.1337 43.9893 29.2597C43.9893 29.3097 46.5293 34.0797 55.7893 34.0797C55.8589 34.0797 55.9278 34.0934 55.9921 34.12C56.0564 34.1467 56.1149 34.1858 56.1641 34.235C56.2133 34.2842 56.2523 34.3426 56.279 34.4069C56.3056 34.4712 56.3193 34.5402 56.3193 34.6098C56.3193 34.7503 56.2635 34.8851 56.1641 34.9845C56.0647 35.0839 55.9299 35.1398 55.7893 35.1398Z" fill="#333333"/>
<path d="M55.7917 35.1398C55.6512 35.1398 55.5163 35.0839 55.4169 34.9845C55.3176 34.8851 55.2617 34.7503 55.2617 34.6098C55.2617 34.4692 55.3176 34.3344 55.4169 34.235C55.5163 34.1356 55.6512 34.0797 55.7917 34.0797C65.0517 34.0797 67.5717 29.3097 67.5917 29.2597C67.6541 29.1337 67.7639 29.0378 67.897 28.9928C68.0302 28.9478 68.1757 28.9574 68.3017 29.0197C68.4277 29.082 68.5237 29.1919 68.5687 29.3251C68.6138 29.4582 68.604 29.6037 68.5417 29.7296C68.4317 29.9496 65.7517 35.1398 55.7917 35.1398Z" fill="#333333"/>
<path d="M55.7917 56.2701C55.6512 56.2701 55.5163 56.2142 55.4169 56.1148C55.3176 56.0154 55.2617 55.8807 55.2617 55.7401V28.3502C55.2617 28.2811 55.2755 28.2125 55.3022 28.1488C55.329 28.085 55.3682 28.0273 55.4175 27.9789C55.4669 27.9304 55.5254 27.8923 55.5896 27.8668C55.6539 27.8413 55.7226 27.8288 55.7917 27.8302C55.8608 27.8288 55.9295 27.8413 55.9938 27.8668C56.058 27.8923 56.1165 27.9304 56.1659 27.9789C56.2152 28.0273 56.2544 28.085 56.2812 28.1488C56.308 28.2125 56.3217 28.2811 56.3217 28.3502V55.7801C56.3116 55.9136 56.2513 56.0383 56.153 56.1292C56.0547 56.2201 55.9256 56.2705 55.7917 56.2701Z" fill="#333333"/>
<path d="M55.7904 60.3496C54.4455 60.3506 53.1044 60.2065 51.7904 59.9197C51.7219 59.9044 51.6571 59.8755 51.5998 59.835C51.5425 59.7944 51.4938 59.7429 51.4566 59.6833C51.4193 59.6238 51.3943 59.5573 51.383 59.488C51.3716 59.4187 51.3741 59.3479 51.3904 59.2795C51.4215 59.1433 51.5051 59.0249 51.6231 58.95C51.7411 58.875 51.8839 58.8498 52.0204 58.8796C53.2451 59.1515 54.4959 59.2888 55.7504 59.2896C60.2876 59.2843 64.6375 57.4803 67.8467 54.2729C71.0559 51.0656 72.8625 46.7168 72.8704 42.1797C72.8678 37.6372 71.0642 33.281 67.855 30.0662C64.6458 26.8513 60.2929 25.0401 55.7504 25.0295C51.2089 25.0375 46.8559 26.8466 43.6464 30.0598C40.437 33.273 38.633 37.6281 38.6304 42.1697C38.6245 44.5417 39.115 46.8885 40.0704 49.0596C40.0987 49.1233 40.1142 49.1918 40.1159 49.2615C40.1177 49.3311 40.1057 49.4006 40.0806 49.4656C40.0555 49.5306 40.0178 49.5902 39.9698 49.6406C39.9217 49.6911 39.8641 49.7313 39.8004 49.7595C39.6715 49.814 39.5264 49.8165 39.3959 49.7661C39.2653 49.7157 39.1593 49.6164 39.1004 49.4895C38.0836 47.1835 37.5623 44.6899 37.5704 42.1697C37.573 37.347 39.4886 32.7223 42.8969 29.3103C46.3052 25.8983 50.9278 23.9777 55.7504 23.9697C60.5723 23.9803 65.1933 25.9018 68.601 29.3132C72.0087 32.7247 73.9251 37.3478 73.9304 42.1697C73.9251 46.9828 72.0135 51.5978 68.6139 55.0049C65.2143 58.412 60.6035 60.3337 55.7904 60.3496Z" fill="#333333"/>
<path d="M60.9306 56.27C60.81 56.2695 60.6933 56.2272 60.6006 56.1502C60.4927 56.0621 60.4238 55.9349 60.4088 55.7964C60.3938 55.6579 60.434 55.5193 60.5206 55.4102C63.3106 52.0002 64.7206 47.5602 64.7206 42.2002C64.7206 36.6502 63.2206 32.1002 60.2606 28.6602C60.171 28.5519 60.1272 28.413 60.1384 28.273C60.1496 28.1329 60.215 28.0028 60.3206 27.9102C60.4272 27.8213 60.5644 27.7776 60.7028 27.7888C60.8412 27.8001 60.9696 27.8653 61.0606 27.9702C63.2106 30.4702 65.7806 34.9702 65.7806 42.1802C65.7806 47.8102 64.2906 52.4801 61.3406 56.0801C61.2905 56.14 61.2277 56.1881 61.1568 56.221C61.0859 56.2538 61.0087 56.2705 60.9306 56.27Z" fill="#333333"/>
<path d="M50.6508 56.2698C50.5727 56.2703 50.4954 56.2535 50.4245 56.2207C50.3537 56.1879 50.2909 56.1398 50.2408 56.0798C47.2908 52.4798 45.8008 47.81 45.8008 42.2C45.8008 42.0594 45.8566 41.9246 45.956 41.8252C46.0554 41.7258 46.1902 41.6699 46.3308 41.6699C46.4713 41.6699 46.6062 41.7258 46.7056 41.8252C46.8049 41.9246 46.8608 42.0594 46.8608 42.2C46.8608 47.56 48.2708 51.9999 51.0608 55.4099C51.1474 55.519 51.1875 55.6577 51.1725 55.7961C51.1576 55.9346 51.0887 56.0618 50.9808 56.1499C50.8872 56.2255 50.7711 56.2677 50.6508 56.2698Z" fill="#333333"/>
<path d="M68.0383 55.4104C67.9404 55.4123 67.844 55.3859 67.7606 55.3345C67.6773 55.283 67.6105 55.2087 67.5683 55.1204C67.5683 55.0604 65.0183 50.3003 55.7683 50.3003C55.6987 50.3003 55.6298 50.2866 55.5655 50.26C55.5012 50.2334 55.4427 50.1942 55.3935 50.145C55.3443 50.0958 55.3053 50.0374 55.2786 49.9731C55.252 49.9088 55.2383 49.8399 55.2383 49.7703C55.2383 49.6297 55.2941 49.4949 55.3935 49.3955C55.4929 49.2961 55.6277 49.2402 55.7683 49.2402C65.7683 49.2402 68.4083 54.4304 68.5183 54.6504C68.5806 54.7764 68.5903 54.9218 68.5453 55.0549C68.5003 55.1881 68.4043 55.298 68.2783 55.3604C68.2019 55.3912 68.1206 55.4082 68.0383 55.4104Z" fill="#333333"/>
<path d="M45.3414 53.3503C45.2625 53.3496 45.1847 53.3312 45.1138 53.2966C45.0429 53.262 44.9806 53.2122 44.9314 53.1504C44.8873 53.0969 44.8543 53.0349 44.8344 52.9685C44.8145 52.9021 44.8081 52.8324 44.8155 52.7634C44.823 52.6945 44.8441 52.6278 44.8778 52.5671C44.9114 52.5065 44.9569 52.4532 45.0114 52.4104C46.7814 50.9604 50.0914 49.2402 55.7914 49.2402C55.932 49.2402 56.0668 49.2961 56.1662 49.3955C56.2656 49.4949 56.3214 49.6297 56.3214 49.7703C56.3214 49.8399 56.3077 49.9088 56.2811 49.9731C56.2544 50.0374 56.2154 50.0958 56.1662 50.145C56.117 50.1942 56.0585 50.2334 55.9942 50.26C55.9299 50.2866 55.861 50.3003 55.7914 50.3003C50.4014 50.3003 47.3214 51.8902 45.6714 53.2302C45.5795 53.3088 45.4623 53.3516 45.3414 53.3503Z" fill="#333333"/>
<path d="M37.8 76.1501C37.7091 76.1472 37.6201 76.1231 37.54 76.0801L27.26 70.1401C27.1803 70.0953 27.1141 70.0299 27.0684 69.9507C27.0227 69.8715 26.9991 69.7816 27 69.6902V57.8201C27.0004 57.7264 27.0255 57.6345 27.0729 57.5537C27.1204 57.4729 27.1884 57.4061 27.27 57.3601L37.54 51.53C37.6194 51.4853 37.7089 51.4619 37.8 51.4619C37.8911 51.4619 37.9807 51.4853 38.06 51.53L48.34 57.3601C48.4191 57.4089 48.4851 57.4765 48.5321 57.5566C48.5792 57.6368 48.606 57.7272 48.61 57.8201C48.6108 57.914 48.586 58.0064 48.5385 58.0874C48.491 58.1684 48.4224 58.2349 48.34 58.28L38.07 64.2102C37.9476 64.2801 37.8027 64.2992 37.6664 64.2637C37.53 64.2282 37.4128 64.1407 37.34 64.02C37.2741 63.8974 37.2581 63.754 37.2954 63.6199C37.3326 63.4857 37.4203 63.3711 37.54 63.3L47.01 57.8301L37.8 52.6001L28.06 58.1301V69.3501L38.06 75.1301C38.18 75.2011 38.2672 75.3164 38.3028 75.4512C38.3383 75.5859 38.3194 75.7292 38.25 75.8501C38.208 75.9353 38.1443 76.0079 38.0653 76.0605C37.9863 76.1132 37.8948 76.1441 37.8 76.1501Z" fill="#333333"/>
<path d="M37.8017 76.1501C37.7082 76.1488 37.6167 76.1233 37.536 76.0759C37.4554 76.0286 37.3884 75.9611 37.3417 75.8801C37.2758 75.7575 37.2598 75.6141 37.297 75.48C37.3343 75.3458 37.422 75.2312 37.5417 75.1602L47.5417 69.3801V57.8201C47.5417 57.6795 47.5975 57.5447 47.6969 57.4453C47.7963 57.3459 47.9311 57.29 48.0717 57.29C48.2123 57.29 48.3471 57.3459 48.4465 57.4453C48.5459 57.5447 48.6017 57.6795 48.6017 57.8201V69.6902C48.6006 69.7824 48.5751 69.8726 48.5276 69.9517C48.4802 70.0307 48.4125 70.0958 48.3317 70.1401L38.0617 76.0801C37.9806 76.1205 37.8922 76.1444 37.8017 76.1501Z" fill="#333333"/>
<path d="M37.7995 72.1597C37.7304 72.161 37.6617 72.1486 37.5975 72.123C37.5332 72.0975 37.4747 72.0594 37.4254 72.011C37.376 71.9626 37.3368 71.9046 37.3101 71.8408C37.2833 71.7771 37.2695 71.7088 37.2695 71.6396V63.7595C37.2695 63.619 37.3254 63.4842 37.4248 63.3848C37.5242 63.2854 37.659 63.2295 37.7995 63.2295C37.9401 63.2295 38.0749 63.2854 38.1743 63.3848C38.2737 63.4842 38.3295 63.619 38.3295 63.7595V71.6396C38.3295 71.7088 38.3158 71.7771 38.289 71.8408C38.2623 71.9046 38.2231 71.9626 38.1737 72.011C38.1244 72.0594 38.0659 72.0975 38.0016 72.123C37.9374 72.1486 37.8687 72.161 37.7995 72.1597Z" fill="#333333"/>
<path d="M66.2398 73.1402C66.164 73.1379 66.0893 73.1208 66.0198 73.0902C65.927 73.0492 65.8481 72.9819 65.793 72.8966C65.7379 72.8113 65.709 72.7117 65.7098 72.6102V69.9002H62.1298C61.9893 69.9002 61.8545 69.8443 61.7551 69.745C61.6557 69.6456 61.5998 69.5108 61.5998 69.3702C61.5998 69.2296 61.6557 69.0948 61.7551 68.9954C61.8545 68.896 61.9893 68.8402 62.1298 68.8402H66.2398C66.3804 68.8402 66.5152 68.896 66.6146 68.9954C66.714 69.0948 66.7698 69.2296 66.7698 69.3702V71.4703L71.6898 67.3101L66.7698 63.1402V65.2501C66.7698 65.3906 66.714 65.5254 66.6146 65.6248C66.5152 65.7242 66.3804 65.7801 66.2398 65.7801H62.1198C61.9793 65.7801 61.8445 65.7242 61.7451 65.6248C61.6457 65.5254 61.5898 65.3906 61.5898 65.2501C61.5898 65.1095 61.6457 64.9747 61.7451 64.8753C61.8445 64.7759 61.9793 64.7203 62.1198 64.7203H65.7098V62.0001C65.7114 61.8991 65.7414 61.8007 65.7962 61.7159C65.8509 61.631 65.9285 61.5631 66.0198 61.5201C66.1115 61.4803 66.2123 61.4669 66.3112 61.481C66.41 61.4952 66.503 61.5364 66.5798 61.6002L72.8498 66.9002C72.9064 66.9525 72.9516 67.016 72.9826 67.0865C73.0136 67.1571 73.0297 67.2331 73.0298 67.3101C73.0289 67.3856 73.0124 67.4601 72.9814 67.5289C72.9505 67.5977 72.9057 67.6595 72.8498 67.7103L66.5798 73.0201C66.4854 73.101 66.3642 73.1439 66.2398 73.1402Z" fill="#333333"/>
<path d="M59.6494 69.7803C59.5836 69.7953 59.5153 69.7953 59.4494 69.7803C59.3841 69.7592 59.3254 69.7214 59.2794 69.6704C59.2307 69.6204 59.1902 69.5629 59.1594 69.5002C59.15 69.4306 59.15 69.36 59.1594 69.2903C59.163 69.1509 59.2203 69.0185 59.3194 68.9204C59.3654 68.8694 59.4241 68.8314 59.4894 68.8103C59.552 68.7809 59.6203 68.7656 59.6894 68.7656C59.7586 68.7656 59.8269 68.7809 59.8894 68.8103C59.956 68.8289 60.0153 68.8673 60.0594 68.9204C60.1585 69.0185 60.2159 69.1509 60.2194 69.2903C60.2337 69.3596 60.2337 69.431 60.2194 69.5002C60.1887 69.5629 60.1482 69.6204 60.0994 69.6704C60.0553 69.7235 59.996 69.7617 59.9294 69.7803C59.8385 69.81 59.7404 69.81 59.6494 69.7803Z" fill="#333333"/>
<path d="M56.2208 69.2595C56.2208 69.118 56.2763 68.9823 56.3754 68.8813C56.4745 68.7804 56.6093 68.7223 56.7508 68.7197C56.8923 68.7223 57.0271 68.7804 57.1262 68.8813C57.2253 68.9823 57.2808 69.118 57.2808 69.2595C57.2808 69.3287 57.267 69.3972 57.2403 69.4609C57.2135 69.5247 57.1743 69.5824 57.125 69.6309C57.0756 69.6793 57.0171 69.7174 56.9529 69.7429C56.8886 69.7685 56.8199 69.7809 56.7508 69.7795C56.6817 69.7809 56.613 69.7685 56.5487 69.7429C56.4845 69.7174 56.426 69.6793 56.3766 69.6309C56.3273 69.5824 56.2881 69.5247 56.2613 69.4609C56.2346 69.3972 56.2208 69.3287 56.2208 69.2595ZM53.8008 69.2595C53.8008 69.118 53.8563 68.9823 53.9554 68.8813C54.0545 68.7804 54.1893 68.7223 54.3308 68.7197C54.4004 68.721 54.4691 68.7358 54.5329 68.7637C54.5967 68.7915 54.6544 68.8317 54.7027 68.8818C54.7509 68.932 54.7889 68.9911 54.8143 69.0559C54.8397 69.1207 54.8521 69.1899 54.8508 69.2595C54.8508 69.3974 54.796 69.5297 54.6985 69.6272C54.601 69.7247 54.4687 69.7795 54.3308 69.7795C54.2617 69.7809 54.193 69.7685 54.1287 69.7429C54.0645 69.7174 54.006 69.6793 53.9566 69.6309C53.9073 69.5824 53.8681 69.5247 53.8413 69.4609C53.8146 69.3972 53.8008 69.3287 53.8008 69.2595Z" fill="#333333"/>
<path d="M50.9395 69.7795C50.8737 69.7945 50.8053 69.7945 50.7395 69.7795C50.6752 69.7563 50.6171 69.7188 50.5695 69.6697C50.5204 69.6221 50.4828 69.5638 50.4595 69.4995C50.4458 69.4302 50.4458 69.3589 50.4595 69.2896C50.4631 69.1502 50.5204 69.0177 50.6195 68.9197C50.6671 68.8706 50.7252 68.8328 50.7895 68.8096C50.8538 68.78 50.9238 68.7646 50.9945 68.7646C51.0653 68.7646 51.1352 68.78 51.1995 68.8096C51.2638 68.8328 51.322 68.8706 51.3695 68.9197C51.4658 69.0187 51.5197 69.1514 51.5195 69.2896C51.5338 69.3588 51.5338 69.4302 51.5195 69.4995C51.4962 69.5638 51.4586 69.6221 51.4095 69.6697C51.3619 69.7188 51.3038 69.7563 51.2395 69.7795C51.1417 69.809 51.0373 69.809 50.9395 69.7795Z" fill="#333333"/>
<path d="M29.9297 59.22V68.3L32.8497 69.99V60.91L40.7697 56.44L37.7997 54.75L29.9297 59.22Z" fill="#235AB0"/>
</g>
<defs>
<clipPath id="clip0_1028_170908">
<rect width="46.97" height="52.15" fill="white" transform="translate(27 24)"/>
</clipPath>
</defs>
</svg>
