<svg width="90" height="90" viewBox="0 0 90 90" fill="none" xmlns="http://www.w3.org/2000/svg">
<circle cx="45" cy="45" r="45" fill="#FAFAFA"/>
<g clip-path="url(#clip0_1081_173572)">
<path d="M43.4203 67.8606C39.8557 67.8405 36.3564 66.9025 33.2596 65.1369C30.1629 63.3714 27.5732 60.8378 25.7403 57.7805C23.944 54.6431 22.999 51.0908 22.999 47.4756C22.999 43.8603 23.944 40.3078 25.7403 37.1704C25.8112 37.0504 25.9265 36.9633 26.0613 36.9277C26.196 36.8921 26.3394 36.9111 26.4603 36.9804C26.5809 37.0533 26.6684 37.1705 26.7039 37.3069C26.7394 37.4433 26.7201 37.588 26.6503 37.7104C24.9497 40.6839 24.0552 44.0501 24.0552 47.4756C24.0552 50.901 24.9497 54.2669 26.6503 57.2404C28.4009 60.1839 30.8908 62.6185 33.8729 64.3025C36.855 65.9865 40.2256 66.8615 43.6503 66.8405C43.7891 66.8405 43.9224 66.8949 44.0215 66.9922C44.1207 67.0894 44.1777 67.2217 44.1803 67.3606C44.1804 67.5004 44.1262 67.6346 44.0292 67.7353C43.9323 67.836 43.8 67.8954 43.6603 67.9006L43.4203 67.8606Z" fill="#235AB0"/>
<path d="M44.0604 71.7812C43.9918 71.7824 43.9236 71.7697 43.86 71.7439C43.7965 71.7181 43.7388 71.6799 43.6904 71.6313C43.6411 71.5821 43.602 71.5236 43.5753 71.4592C43.5486 71.3949 43.5349 71.326 43.5349 71.2563C43.5349 71.1867 43.5486 71.1176 43.5753 71.0532C43.602 70.9889 43.6411 70.9306 43.6904 70.8813L47.1403 67.4312L43.5303 63.8313C43.4332 63.7306 43.3789 63.5962 43.3789 63.4563C43.3789 63.3164 43.4332 63.182 43.5303 63.0813C43.5796 63.032 43.638 62.993 43.7024 62.9663C43.7667 62.9396 43.8357 62.9258 43.9053 62.9258C43.975 62.9258 44.044 62.9396 44.1083 62.9663C44.1727 62.993 44.2311 63.032 44.2803 63.0813L48.6304 67.4312L44.4304 71.6313C44.3313 71.7277 44.1985 71.7814 44.0604 71.7812Z" fill="#235AB0"/>
<path d="M64.4901 53.9009C64.3945 53.8991 64.3012 53.8714 64.2201 53.8209C64.1597 53.7867 64.1067 53.7408 64.0643 53.6859C64.0219 53.6309 63.991 53.5679 63.9733 53.5008C63.9556 53.4337 63.9515 53.3639 63.9612 53.2952C63.971 53.2265 63.9944 53.1604 64.0301 53.1009C65.7305 50.1255 66.625 46.7579 66.625 43.3309C66.625 39.9039 65.7305 36.5362 64.0301 33.5609C62.2789 30.6186 59.7887 28.1855 56.8065 26.5032C53.8243 24.8209 50.4539 23.9478 47.0301 23.9708C46.8903 23.9682 46.757 23.9117 46.6582 23.8128C46.5593 23.714 46.5027 23.5805 46.5001 23.4407C46.4988 23.3716 46.5112 23.3031 46.5368 23.2388C46.5623 23.1746 46.6004 23.1161 46.6488 23.0667C46.6972 23.0174 46.755 22.978 46.8188 22.9512C46.8825 22.9245 46.9509 22.9107 47.0201 22.9107C50.635 22.8842 54.194 23.8045 57.3431 25.5799C60.4921 27.3553 63.1216 29.9241 64.9701 33.0308C66.7684 36.1657 67.7146 39.7168 67.7146 43.3309C67.7146 46.9449 66.7684 50.496 64.9701 53.6309C64.9243 53.7172 64.8547 53.7884 64.7696 53.8363C64.6845 53.8841 64.5875 53.9066 64.4901 53.9009Z" fill="#235AB0"/>
<path d="M46.7698 27.8694C46.6304 27.8658 46.4978 27.8083 46.3998 27.7092L42.0498 23.3594L46.2498 19.1592C46.299 19.1099 46.3575 19.0709 46.4218 19.0442C46.4862 19.0175 46.5552 19.0039 46.6248 19.0039C46.6945 19.0039 46.7634 19.0175 46.8278 19.0442C46.8921 19.0709 46.9506 19.1099 46.9998 19.1592C47.097 19.2598 47.1512 19.3943 47.1512 19.5342C47.1512 19.6741 47.097 19.8085 46.9998 19.9092L43.5398 23.3594L47.1498 26.9592C47.1991 27.0085 47.2382 27.067 47.2648 27.1313C47.2915 27.1957 47.3052 27.2646 47.3052 27.3342C47.3052 27.4039 47.2915 27.473 47.2648 27.5374C47.2382 27.6017 47.1991 27.66 47.1498 27.7092C47.0487 27.8098 46.9124 27.8673 46.7698 27.8694Z" fill="#235AB0"/>
<path d="M54.2896 36.1484H37.9896C37.6361 36.1484 37.3496 36.435 37.3496 36.7884V55.5184C37.3496 55.8719 37.6361 56.1584 37.9896 56.1584H54.2896C54.6431 56.1584 54.9296 55.8719 54.9296 55.5184V36.7884C54.9296 36.435 54.6431 36.1484 54.2896 36.1484Z" fill="white"/>
<path d="M54.2896 56.6604H37.9896C37.6873 56.6604 37.3973 56.5405 37.1835 56.3267C36.9697 56.1129 36.8496 55.8229 36.8496 55.5205V36.7805C36.8522 36.479 36.9732 36.1905 37.1864 35.9773C37.3996 35.7641 37.6881 35.6432 37.9896 35.6406H54.2896C54.5894 35.6458 54.8753 35.7678 55.0864 35.9807C55.2975 36.1937 55.4171 36.4807 55.4196 36.7805V55.5105C55.4209 55.6602 55.3927 55.8087 55.3367 55.9475C55.2806 56.0863 55.1977 56.2128 55.0928 56.3196C54.9878 56.4264 54.8629 56.5113 54.7251 56.5698C54.5873 56.6283 54.4393 56.6591 54.2896 56.6604ZM37.9896 36.6604C37.9525 36.6604 37.9169 36.6752 37.8906 36.7014C37.8644 36.7277 37.8496 36.7634 37.8496 36.8005V55.5305C37.8496 55.5676 37.8644 55.6031 37.8906 55.6294C37.9169 55.6556 37.9525 55.6704 37.9896 55.6704H54.2896C54.3267 55.6704 54.3624 55.6556 54.3886 55.6294C54.4149 55.6031 54.4296 55.5676 54.4296 55.5305V36.7805C54.4296 36.7434 54.4149 36.7079 54.3886 36.6816C54.3624 36.6554 54.3267 36.6406 54.2896 36.6406L37.9896 36.6604Z" fill="#333333"/>
<path d="M42.4796 39.8398H40.8096V41.5098H42.4796V39.8398Z" fill="#235AB0"/>
<path d="M46.9796 39.8398H45.3096V41.5098H46.9796V39.8398Z" fill="#235AB0"/>
<path d="M51.4698 39.8398H49.7998V41.5098H51.4698V39.8398Z" fill="#235AB0"/>
<path d="M42.4796 44.5117H40.8096V46.1817H42.4796V44.5117Z" fill="#235AB0"/>
<path d="M46.9796 44.5117H45.3096V46.1817H46.9796V44.5117Z" fill="#235AB0"/>
<path d="M51.4698 44.5117H49.7998V46.1817H51.4698V44.5117Z" fill="#235AB0"/>
</g>
<defs>
<clipPath id="clip0_1081_173572">
<rect width="44.68" height="52.76" fill="white" transform="translate(23 19)"/>
</clipPath>
</defs>
</svg>
