<svg width="90" height="90" viewBox="0 0 90 90" fill="none" xmlns="http://www.w3.org/2000/svg">
<circle cx="45" cy="45" r="45" fill="#FAFAFA"/>
<g clip-path="url(#clip0_1080_171878)">
<path d="M27.03 58.9697L23.75 64.8697V66.4197L24.74 66.9297L61.63 66.9497L62.99 65.6297L59.38 58.9297L27.03 58.9697Z" fill="white"/>
<path d="M26.41 22.3301H60.34L61.97 23.2601L62.94 25.1601V26.4801L66.05 26.6901V36.0601L62.94 33.6801V38.9801L62.22 48.7501L60.59 50.8301L53.41 51.0001L54.82 54.9501L53.78 55.5001L31.7 55.3201L33.27 50.6601H25.53L23.75 48.6801L24.02 24.8601L25.83 22.5201L26.41 22.3301Z" fill="white"/>
<path d="M33.9706 49.229L29.3906 44.6489L44.7406 29.3091L52.0506 36.6091L59.0506 29.6589L55.8506 26.459H66.6306V37.239L63.6306 34.239L52.0506 45.759L44.7406 38.459L33.9706 49.229ZM30.8906 44.6489L33.9706 47.729L44.7406 36.959L52.0506 44.269L63.5806 32.759L65.5206 34.709V27.5391H58.3506L60.5006 29.679L52.0506 38.1292L44.7406 30.8191L30.8906 44.6489Z" fill="#333333"/>
<path d="M59.5909 51.6101H26.8609C25.9609 51.6101 25.0976 51.2531 24.4603 50.6177C23.823 49.9822 23.4636 49.12 23.4609 48.22V25.3899C23.4636 24.4899 23.823 23.6277 24.4603 22.9922C25.0976 22.3567 25.9609 22 26.8609 22H59.6709C60.5648 22.0079 61.4194 22.3685 62.0487 23.0034C62.6779 23.6383 63.031 24.496 63.0309 25.3899C63.0309 25.5305 62.9751 25.6655 62.8757 25.7649C62.7763 25.8643 62.6415 25.9199 62.5009 25.9199C62.3604 25.9199 62.2256 25.8643 62.1262 25.7649C62.0268 25.6655 61.9709 25.5305 61.9709 25.3899C61.9709 24.7693 61.7244 24.1742 61.2856 23.7354C60.8467 23.2965 60.2515 23.05 59.6309 23.05H26.8609C26.2403 23.05 25.6451 23.2965 25.2063 23.7354C24.7675 24.1742 24.5209 24.7693 24.5209 25.3899V48.22C24.5209 48.8406 24.7675 49.4359 25.2063 49.8748C25.6451 50.3136 26.2403 50.5601 26.8609 50.5601H59.5909C59.8982 50.5601 60.2025 50.4994 60.4864 50.3818C60.7703 50.2642 61.0283 50.092 61.2456 49.8748C61.4629 49.6575 61.6352 49.3994 61.7528 49.1155C61.8704 48.8316 61.9309 48.5273 61.9309 48.22V37.76C61.9309 37.6909 61.9447 37.6223 61.9715 37.5586C61.9982 37.4948 62.0374 37.4371 62.0868 37.3887C62.1361 37.3403 62.1946 37.3021 62.2589 37.2766C62.3231 37.2511 62.3918 37.2387 62.4609 37.24C62.5301 37.2387 62.5988 37.2511 62.663 37.2766C62.7272 37.3021 62.7858 37.3403 62.8351 37.3887C62.8845 37.4371 62.9237 37.4948 62.9504 37.5586C62.9772 37.6223 62.9909 37.6909 62.9909 37.76V48.25C62.9804 49.1448 62.6175 49.9994 61.9811 50.6284C61.3446 51.2574 60.4858 51.6102 59.5909 51.6101Z" fill="#333333"/>
<path d="M54.7912 56.0294H31.6712C31.5845 56.0308 31.4988 56.0105 31.422 55.9703C31.3451 55.9301 31.2795 55.8714 31.2312 55.7994C31.1822 55.7287 31.1511 55.6472 31.1406 55.5618C31.1302 55.4765 31.1407 55.3898 31.1712 55.3094L32.9212 50.8892C32.9746 50.7593 33.0765 50.6555 33.2053 50.5994C33.3342 50.5434 33.4797 50.5399 33.6112 50.5894C33.7411 50.6428 33.8451 50.7448 33.9011 50.8736C33.9571 51.0024 33.9607 51.1479 33.9112 51.2794L32.4412 54.9793H54.0112L52.5512 51.2794C52.4983 51.1494 52.4992 51.0037 52.5536 50.8743C52.6079 50.745 52.7114 50.6426 52.8412 50.5894C52.9726 50.5399 53.1182 50.5434 53.247 50.5994C53.3759 50.6555 53.4778 50.7593 53.5312 50.8892L55.2812 55.3094C55.3117 55.3898 55.3222 55.4765 55.3117 55.5618C55.3013 55.6472 55.2702 55.7287 55.2212 55.7994C55.1744 55.8706 55.1106 55.9289 55.0355 55.9691C54.9603 56.0093 54.8764 56.03 54.7912 56.0294Z" fill="#333333"/>
<path d="M61.5606 67.449H24.9006C24.5711 67.4514 24.2468 67.3667 23.9605 67.2034C23.6743 67.0401 23.4363 66.804 23.2706 66.5191C23.1036 66.2339 23.0156 65.9095 23.0156 65.5791C23.0156 65.2487 23.1036 64.9241 23.2706 64.6389L26.6206 58.6389C26.6658 58.5566 26.7324 58.4882 26.8134 58.4407C26.8944 58.3932 26.9867 58.3684 27.0806 58.3692H59.4306C59.5245 58.3684 59.6169 58.3932 59.6979 58.4407C59.7789 58.4882 59.8455 58.5566 59.8906 58.6389L63.2406 64.6389C63.4076 64.9241 63.4956 65.2487 63.4956 65.5791C63.4956 65.9095 63.4076 66.2339 63.2406 66.5191C63.0709 66.8115 62.825 67.0523 62.5291 67.2161C62.2333 67.3798 61.8986 67.4603 61.5606 67.449ZM27.3606 59.3889L24.1706 65.1489C24.0968 65.2748 24.0579 65.4181 24.0579 65.564C24.0579 65.7099 24.0968 65.8532 24.1706 65.979C24.2434 66.1051 24.3485 66.2097 24.475 66.2818C24.6016 66.3538 24.745 66.3907 24.8906 66.3889H61.5506C61.6947 66.3899 61.8365 66.3526 61.9613 66.2805C62.0861 66.2085 62.1895 66.1043 62.2606 65.979C62.3345 65.8532 62.3734 65.7099 62.3734 65.564C62.3734 65.4181 62.3345 65.2748 62.2606 65.1489L59.0706 59.3889H27.3606Z" fill="#333333"/>
<path d="M26.0586 64.8702L28.2586 60.9102H58.1886L60.3886 64.8702H26.0586Z" fill="#235AB0"/>
</g>
<defs>
<clipPath id="clip0_1080_171878">
<rect width="43.58" height="45.45" fill="white" transform="translate(23 22)"/>
</clipPath>
</defs>
</svg>
