<svg width="32" height="32" viewBox="0 0 32 32" fill="none" xmlns="http://www.w3.org/2000/svg">
<path d="M10.4223 13.0101C10.0372 13.0101 9.7251 13.3256 9.7251 13.7148C9.7251 14.104 10.0372 14.4209 10.4223 14.4209C10.8074 14.4209 11.1194 14.1055 11.1194 13.7148C11.1194 13.3241 10.8074 13.0101 10.4223 13.0101Z" fill="#ECECEC"/>
<path d="M17.3155 12.9368C16.9004 12.9368 16.564 13.2768 16.564 13.6964C16.564 14.116 16.9004 14.4561 17.3155 14.4561C17.7307 14.4561 18.0671 14.116 18.0671 13.6964C18.0671 13.2768 17.7307 12.9368 17.3155 12.9368Z" fill="#ECECEC"/>
<path d="M23.5553 6H8.71138C7.21397 6 6 7.22702 6 8.74054V17.6451C6 19.1586 7.21397 20.3857 8.71138 20.3857H13.9538L15.7375 24.6325C15.7375 24.6325 15.8606 25 16.157 25C16.4547 25 16.5764 24.6325 16.5764 24.6325L18.3601 20.3857H23.5553C25.0527 20.3857 26.2667 19.1586 26.2667 17.6451V8.74054C26.2667 7.22702 25.0527 6 23.5553 6ZM12.3662 13.8714C12.3576 15.4993 10.6927 15.5456 10.6927 15.5456C10.0485 15.5456 9.68485 15.1144 9.68485 15.1144V15.4081H8.47231V10.3524C8.47231 10.3524 8.46659 10.351 8.47231 10.3496V10.3524C8.54819 10.364 9.68485 10.3496 9.68485 10.3496V12.2827C9.96973 11.7907 10.7943 11.7994 10.7943 11.7994C12.5895 11.9687 12.3647 13.8714 12.3647 13.8714H12.3662ZM14.5006 11.9557V15.4168H13.3139V11.9904C13.3139 11.5245 12.7412 11.3943 12.7412 11.3943V10.186C14.6366 10.2642 14.5006 11.9557 14.5006 11.9557ZM17.3137 15.5485C16.2142 15.5485 15.3238 14.7194 15.3238 13.6978C15.3238 12.6763 16.2142 11.8472 17.3137 11.8472C18.4131 11.8472 19.3035 12.6763 19.3035 13.6978C19.3035 14.7194 18.4131 15.5485 17.3137 15.5485ZM23.8158 15.5485C23.8158 15.5485 23.833 17.3065 22.065 17.3065H21.5268V16.1678H21.8517C21.8517 16.1678 22.5947 16.2372 22.5861 15.0797C22.5861 15.0797 22.4415 15.5485 21.3993 15.5485C21.3993 15.5485 19.922 15.4414 19.922 13.9843V13.4316C19.922 13.4316 19.9563 11.921 21.5783 11.8009C21.5783 11.8009 22.2182 11.7314 22.6119 12.2668V11.8964H23.8158V15.5499V15.5485Z" fill="#ECECEC"/>
<path d="M21.9317 12.9545C21.5265 12.9545 21.1973 13.2873 21.1973 13.6968C21.1973 14.1062 21.5265 14.439 21.9317 14.439C22.3368 14.439 22.6661 14.1062 22.6661 13.6968C22.6661 13.2873 22.3368 12.9545 21.9317 12.9545Z" fill="#ECECEC"/>
</svg>
