<svg width="100" height="97" viewBox="0 0 100 97" fill="none" xmlns="http://www.w3.org/2000/svg">
<ellipse cx="50" cy="48.4262" rx="50" ry="48.4262" fill="#F2F6FB"/>
<g clip-path="url(#clip0_1081_174648)">
<path d="M53.7785 31.3945H38.0332V35.9908H53.7785V31.3945Z" fill="white"/>
<path d="M52.8263 30.1523H38.7373V33.1855H52.8263V30.1523Z" fill="white"/>
<path d="M51.729 29.1094H39.9277V32.7429H51.729V29.1094Z" fill="white"/>
<path d="M56.6772 45.3906H36.6357V60.1111H56.6772V45.3906Z" fill="white"/>
<path d="M55.9213 36.3125H35.8799V60.9088H55.9213V36.3125Z" fill="white"/>
<path d="M58.5299 59.1094L61.9875 62.0595C62.4781 62.4788 62.8719 62.9996 63.1418 63.5858C63.4116 64.172 63.5511 64.8097 63.5506 65.455V67.4531H47.5879V65.4861C47.5867 64.8331 47.7288 64.1877 48.0043 63.5956C48.2798 63.0036 48.6818 62.4792 49.1821 62.0595L52.7018 59.1094" fill="white"/>
<path d="M63.5505 67.9987H47.5877C47.4422 67.9987 47.3027 67.9411 47.1998 67.8382C47.0969 67.7353 47.0391 67.5958 47.0391 67.4503V65.4832C47.0374 64.7509 47.197 64.0271 47.5066 63.3633C47.8161 62.6996 48.2679 62.1122 48.83 61.6427L52.3496 58.6819C52.4044 58.6357 52.4678 58.6008 52.5362 58.5793C52.6046 58.5579 52.6765 58.5503 52.7479 58.5571C52.8192 58.5638 52.8885 58.5849 52.9517 58.6187C53.0148 58.6526 53.0706 58.6987 53.1157 58.7545C53.1625 58.8085 53.1982 58.8715 53.2204 58.9395C53.2427 59.0075 53.2512 59.0792 53.2454 59.1505C53.2397 59.2218 53.2197 59.2914 53.1868 59.355C53.1538 59.4185 53.1085 59.4747 53.0536 59.5205L49.5339 62.4813C49.0946 62.8481 48.7415 63.3074 48.5 63.8263C48.2584 64.3452 48.1343 64.9109 48.1364 65.4832V66.9016H63.0018V65.4522C63.0034 64.8849 62.881 64.3241 62.6432 63.8091C62.4054 63.2941 62.0579 62.8375 61.625 62.4709L58.1778 59.5205C58.0685 59.4246 58.0009 59.2899 57.9893 59.1449C57.9777 59 58.023 58.8562 58.1157 58.7441C58.1631 58.6895 58.2209 58.6448 58.2857 58.6127C58.3505 58.5805 58.421 58.5616 58.4931 58.5568C58.5653 58.552 58.6377 58.5616 58.7061 58.5849C58.7746 58.6081 58.8378 58.6445 58.8921 58.6923L62.3393 61.6427C62.8911 62.1123 63.3343 62.6962 63.6382 63.354C63.9421 64.0117 64.0993 64.7276 64.0991 65.4522V67.4503C64.0991 67.5223 64.0849 67.5935 64.0573 67.66C64.0298 67.7266 63.9894 67.7873 63.9384 67.8382C63.8875 67.8892 63.827 67.9294 63.7604 67.957C63.6939 67.9846 63.6225 67.9987 63.5505 67.9987Z" fill="#333333"/>
<path d="M55.6213 60.3086C58.2226 60.3086 60.3314 57.792 60.3314 54.6875C60.3314 51.5831 58.2226 49.0664 55.6213 49.0664C53.0199 49.0664 50.9111 51.5831 50.9111 54.6875C50.9111 57.792 53.0199 60.3086 55.6213 60.3086Z" fill="white"/>
<path d="M55.6207 60.8588C52.7118 60.8588 50.3516 58.0949 50.3516 54.6477C50.3516 51.2004 52.7118 48.4883 55.6207 48.4883C58.5296 48.4883 60.8795 51.2522 60.8795 54.6477C60.8795 58.0431 58.5193 60.8588 55.6207 60.8588ZM55.6207 49.6268C53.3226 49.6268 51.4799 51.8941 51.4799 54.6891C51.4799 57.4841 53.3536 59.7615 55.6207 59.7615C57.8878 59.7615 59.7615 57.4945 59.7615 54.6891C59.7615 51.8837 57.9085 49.6268 55.6207 49.6268Z" fill="#333333"/>
<path d="M40.6725 44.3047H39.5752V45.3916H40.6725V44.3047Z" fill="#235AB0"/>
<path d="M40.6725 40.8984H39.5752V41.9854H40.6725V40.8984Z" fill="#235AB0"/>
<path d="M44.6998 44.3047H43.6025V45.3916H44.6998V44.3047Z" fill="#235AB0"/>
<path d="M44.6998 40.8984H43.6025V41.9854H44.6998V40.8984Z" fill="#235AB0"/>
<path d="M40.6725 54.3672H39.5752V55.4541H40.6725V54.3672Z" fill="#235AB0"/>
<path d="M40.6725 50.9609H39.5752V52.0479H40.6725V50.9609Z" fill="#235AB0"/>
<path d="M40.6725 47.7109H39.5752V48.7979H40.6725V47.7109Z" fill="#235AB0"/>
<path d="M44.6998 54.3672H43.6025V55.4541H44.6998V54.3672Z" fill="#235AB0"/>
<path d="M44.6998 50.9609H43.6025V52.0479H44.6998V50.9609Z" fill="#235AB0"/>
<path d="M44.6998 47.7109H43.6025V48.7979H44.6998V47.7109Z" fill="#235AB0"/>
<path d="M49.0582 44.3047H47.9609V45.3916H49.0582V44.3047Z" fill="#235AB0"/>
<path d="M49.0582 40.8984H47.9609V41.9854H49.0582V40.8984Z" fill="#235AB0"/>
<path d="M45.8283 60.9207H35.5384C35.4668 60.9207 35.396 60.9065 35.33 60.8788C35.264 60.8511 35.2042 60.8106 35.1541 60.7595C35.1039 60.7084 35.0645 60.6478 35.0381 60.5813C35.0116 60.5148 34.9987 60.4436 35.0001 60.372V37.3907C35.0132 36.8457 35.2356 36.3267 35.6211 35.9413C36.0065 35.5558 36.5255 35.3334 37.0705 35.3203H54.4929C55.0378 35.3334 55.5568 35.5558 55.9423 35.9413C56.3278 36.3267 56.5501 36.8457 56.5632 37.3907V38.0842C56.5633 38.1558 56.549 38.2267 56.5213 38.2927C56.4936 38.3587 56.453 38.4185 56.4019 38.4686C56.3509 38.5187 56.2903 38.5582 56.2238 38.5846C56.1573 38.6111 56.0862 38.6239 56.0146 38.6225C55.943 38.6239 55.8719 38.6111 55.8054 38.5846C55.7389 38.5582 55.6783 38.5187 55.6272 38.4686C55.5762 38.4185 55.5356 38.3587 55.5079 38.2927C55.4802 38.2267 55.4659 38.1558 55.4659 38.0842V37.3907C55.4659 37.1162 55.3569 36.8527 55.1627 36.6585C54.9686 36.4644 54.7053 36.3555 54.4307 36.3555H37.1223C36.8477 36.3555 36.5844 36.4644 36.3903 36.6585C36.1961 36.8527 36.0871 37.1162 36.0871 37.3907V59.8233H45.8283C45.9738 59.8233 46.1133 59.8812 46.2162 59.9841C46.3191 60.087 46.3769 60.2265 46.3769 60.372C46.3769 60.5175 46.3191 60.6571 46.2162 60.76C46.1133 60.8629 45.9738 60.9207 45.8283 60.9207Z" fill="#333333"/>
<path d="M56.118 46.6215C55.9725 46.6215 55.8329 46.5637 55.73 46.4608C55.6271 46.3579 55.5693 46.2183 55.5693 46.0728V38.0604C55.5693 37.9149 55.6271 37.7753 55.73 37.6725C55.8329 37.5696 55.9725 37.5117 56.118 37.5117C56.19 37.5117 56.2614 37.5258 56.328 37.5534C56.3945 37.581 56.455 37.6215 56.506 37.6725C56.5569 37.7234 56.5973 37.7838 56.6249 37.8504C56.6525 37.9169 56.6666 37.9884 56.6666 38.0604V46.0728C56.6666 46.1449 56.6525 46.2163 56.6249 46.2828C56.5973 46.3494 56.5569 46.4098 56.506 46.4608C56.455 46.5117 56.3945 46.5522 56.328 46.5798C56.2614 46.6074 56.19 46.6215 56.118 46.6215Z" fill="#333333"/>
<path d="M54.0993 36.2697C54.0269 36.2711 53.9549 36.2578 53.8877 36.2308C53.8205 36.2037 53.7594 36.1635 53.7082 36.1122C53.657 36.061 53.6166 35.9997 53.5895 35.9325C53.5625 35.8653 53.5492 35.7934 53.5506 35.721V34.0957C53.5479 32.7577 53.0145 31.4755 52.0674 30.5304C51.1203 29.5852 49.8369 29.0544 48.4989 29.0544H43.1573C41.821 29.0571 40.5403 29.589 39.5955 30.5339C38.6506 31.4788 38.1186 32.7595 38.1159 34.0957V35.721C38.1159 35.8665 38.0581 36.0061 37.9552 36.109C37.8523 36.2118 37.7127 36.2697 37.5672 36.2697C37.4217 36.2697 37.2821 36.2118 37.1793 36.109C37.0764 36.0061 37.0186 35.8665 37.0186 35.721V34.0957C37.0213 32.4684 37.6689 30.9087 38.8196 29.758C39.9702 28.6074 41.53 27.9598 43.1573 27.957H48.4989C50.1261 27.9598 51.6859 28.6074 52.8366 29.758C53.9872 30.9087 54.6349 32.4684 54.6376 34.0957V35.721C54.639 35.7926 54.6261 35.8638 54.5996 35.9303C54.5732 35.9968 54.5338 36.0574 54.4836 36.1084C54.4335 36.1595 54.3737 36.2 54.3077 36.2277C54.2417 36.2554 54.1709 36.2697 54.0993 36.2697Z" fill="#333333"/>
<path d="M48.4988 30.4102H43.1572C42.2439 30.4112 41.3626 30.7466 40.6798 31.3531C39.997 31.9596 39.56 32.7952 39.4512 33.702H52.2048C52.0982 32.7943 51.6617 31.9575 50.9785 31.3506C50.2952 30.7436 49.4127 30.409 48.4988 30.4102Z" fill="#235AB0"/>
<path d="M49.0582 47.7109H47.9609V48.7979H49.0582V47.7109Z" fill="#235AB0"/>
<path d="M49.0582 50.9609H47.9609V52.0479H49.0582V50.9609Z" fill="#235AB0"/>
</g>
<defs>
<clipPath id="clip0_1081_174648">
<rect width="29.0994" height="40" fill="white" transform="translate(35 28)"/>
</clipPath>
</defs>
</svg>
