<svg width="100" height="100" viewBox="0 0 100 100" fill="none" xmlns="http://www.w3.org/2000/svg">
<circle cx="50" cy="50" r="50" fill="#F2F6FB"/>
<g clip-path="url(#clip0_1075_171954)">
<path d="M40.5898 35.4492H30.2142C29.8791 35.4492 29.6074 35.73 29.6074 36.0764V60.1847C29.6074 60.5311 29.8791 60.8118 30.2142 60.8118H40.5898C40.9249 60.8118 41.1966 60.5311 41.1966 60.1847V36.0764C41.1966 35.73 40.9249 35.4492 40.5898 35.4492Z" fill="white" stroke="#333333" stroke-miterlimit="10"/>
<path d="M36.998 38.2578H33.3574V42.0208H36.998V38.2578Z" fill="#235AB0"/>
<path d="M36.998 44.4297H33.3574V48.1927H36.998V44.4297Z" fill="#235AB0"/>
<path d="M69.7871 35.4492H59.4114C59.0763 35.4492 58.8047 35.73 58.8047 36.0764V60.1847C58.8047 60.5311 59.0763 60.8118 59.4114 60.8118H69.7871C70.1222 60.8118 70.3938 60.5311 70.3938 60.1847V36.0764C70.3938 35.73 70.1222 35.4492 69.7871 35.4492Z" fill="white" stroke="#333333" stroke-miterlimit="10"/>
<path d="M66.7285 38.2578H63.0879V42.0208H66.7285V38.2578Z" fill="#235AB0"/>
<path d="M66.7285 44.4297H63.0879V48.1927H66.7285V44.4297Z" fill="#235AB0"/>
<path d="M59.3017 30.6094H40.5892C40.2541 30.6094 39.9824 30.8902 39.9824 31.2365V60.1866C39.9824 60.5329 40.2541 60.8137 40.5892 60.8137H59.3017C59.6368 60.8137 59.9085 60.5329 59.9085 60.1866V31.2365C59.9085 30.8902 59.6368 30.6094 59.3017 30.6094Z" fill="white" stroke="#333333" stroke-miterlimit="10"/>
<path d="M46.5722 34.1211H42.9316V37.8841H46.5722V34.1211Z" fill="#235AB0"/>
<path d="M51.7656 34.1211H48.125V37.8841H51.7656V34.1211Z" fill="#235AB0"/>
<path d="M56.9726 34.1211H53.332V37.8841H56.9726V34.1211Z" fill="#235AB0"/>
<path d="M46.5722 40.4297H42.9316V44.1927H46.5722V40.4297Z" fill="#235AB0"/>
<path d="M51.7656 40.4297H48.125V44.1927H51.7656V40.4297Z" fill="#235AB0"/>
<path d="M56.9726 40.4297H53.332V44.1927H56.9726V40.4297Z" fill="#235AB0"/>
<path d="M46.5722 46.75H42.9316V50.513H46.5722V46.75Z" fill="#235AB0"/>
<path d="M51.7656 46.75H48.125V50.513H51.7656V46.75Z" fill="#235AB0"/>
<path d="M56.9726 46.75H53.332V50.513H56.9726V46.75Z" fill="#235AB0"/>
</g>
<defs>
<clipPath id="clip0_1075_171954">
<rect width="42" height="31.4587" fill="white" transform="translate(29 29.9805)"/>
</clipPath>
</defs>
</svg>
