<svg width="100" height="97" viewBox="0 0 100 97" fill="none" xmlns="http://www.w3.org/2000/svg">
<ellipse cx="50" cy="48.4262" rx="50" ry="48.4262" fill="#F2F6FB"/>
<g clip-path="url(#clip0_1081_174647)">
<path d="M58.5331 29.0781H32.0771V66.9359H58.5331V29.0781Z" fill="white"/>
<path d="M55.8874 58.1305L53.7803 55.2742L64.2807 45.043L66.6337 47.2437L55.8874 58.1305Z" fill="#235AB0"/>
<path d="M66.8911 42.2578L65.5332 43.5806L67.8042 45.9687L69.3728 44.5171L66.8911 42.2578Z" fill="#235AB0"/>
<path d="M52.8088 59.2105C52.6694 59.208 52.5359 59.1539 52.4342 59.0585C52.3708 58.9975 52.3237 58.9217 52.2971 58.8378C52.2705 58.754 52.2654 58.6647 52.2821 58.5783L52.8791 55.4998C52.9009 55.3931 52.9539 55.2954 53.0313 55.2188L63.8712 44.3789C63.9715 44.2814 64.1059 44.2267 64.2458 44.2266C64.3857 44.2267 64.52 44.2814 64.6204 44.3789L67.1021 46.8605C67.2029 46.9614 67.2595 47.0982 67.2595 47.2408C67.2595 47.3835 67.2029 47.5206 67.1021 47.6215L56.2739 58.4615C56.1963 58.5352 56.0985 58.5839 55.9929 58.6018L52.9142 59.1988L52.8088 59.2105ZM53.9092 55.8276L53.4878 57.9579L55.63 57.5483L65.9666 47.2117L64.2458 45.4909L53.9092 55.8276Z" fill="#333333"/>
<path d="M67.9678 46.5883C67.8225 46.5869 67.6836 46.5281 67.5815 46.4245L65.1115 43.9427C65.0107 43.8417 64.9541 43.705 64.9541 43.5623C64.9541 43.4196 65.0107 43.2829 65.1115 43.1819L66.5748 41.7186C66.6785 41.6232 66.8143 41.5703 66.9552 41.5703C67.0962 41.5703 67.232 41.6232 67.3357 41.7186L69.8174 44.2002C69.9182 44.3012 69.9748 44.4379 69.9748 44.5806C69.9748 44.7233 69.9182 44.8603 69.8174 44.9613L68.3424 46.4245C68.2949 46.4765 68.237 46.5178 68.1725 46.546C68.108 46.5742 68.0382 46.5887 67.9678 46.5883ZM66.247 43.568L67.9678 45.2891L68.6702 44.5749L66.9494 42.8541L66.247 43.568Z" fill="#333333"/>
<path d="M61.0144 51.0139C60.869 51.0125 60.7301 50.9537 60.6281 50.8502C60.5785 50.8012 60.5392 50.7427 60.5124 50.6784C60.4855 50.6141 60.4717 50.5452 60.4717 50.4755C60.4717 50.4058 60.4855 50.3369 60.5124 50.2726C60.5392 50.2083 60.5785 50.1498 60.6281 50.1008L65.1115 45.6173C65.1605 45.5677 65.2189 45.5284 65.2832 45.5015C65.3475 45.4747 65.4165 45.4609 65.4862 45.4609C65.5558 45.4609 65.6248 45.4747 65.6891 45.5015C65.7534 45.5284 65.8118 45.5677 65.8607 45.6173C65.9615 45.7182 66.0181 45.8553 66.0181 45.9979C66.0181 46.1406 65.9615 46.2774 65.8607 46.3783L61.389 50.8502C61.2898 50.9509 61.1557 51.0095 61.0144 51.0139Z" fill="#333333"/>
<path d="M55.8877 58.6576C55.8183 58.6588 55.7493 58.646 55.6849 58.6199C55.6205 58.5937 55.5621 58.5546 55.5131 58.5053L53.0314 56.0237C52.9306 55.9228 52.874 55.786 52.874 55.6433C52.874 55.5007 52.9306 55.3636 53.0314 55.2627C53.1324 55.1619 53.2692 55.1055 53.4119 55.1055C53.5545 55.1055 53.6914 55.1619 53.7923 55.2627L56.274 57.7445C56.3695 57.8482 56.4224 57.984 56.4224 58.1249C56.4224 58.2658 56.3695 58.4016 56.274 58.5053C56.2229 58.555 56.1624 58.5941 56.0961 58.6202C56.0298 58.6463 55.959 58.6591 55.8877 58.6576Z" fill="#333333"/>
<path d="M59.0597 67.9882H31.5385C31.3977 67.9882 31.2625 67.9332 31.1618 67.8347C31.0611 67.7363 31.0031 67.6022 31 67.4615V28.5267C31.0031 28.3859 31.0611 28.2519 31.1618 28.1535C31.2625 28.055 31.3977 28 31.5385 28H59.0597C59.2005 28 59.3357 28.055 59.4364 28.1535C59.5371 28.2519 59.5951 28.3859 59.5982 28.5267V46.9874C59.5952 47.1293 59.5375 47.2643 59.4372 47.3646C59.3368 47.465 59.2016 47.5228 59.0597 47.5258C58.9178 47.5228 58.7826 47.465 58.6822 47.3646C58.5819 47.2643 58.5242 47.1293 58.5212 46.9874V29.0652H32.077V66.923H58.5212V58.272C58.5242 58.1301 58.5819 57.9948 58.6822 57.8945C58.7826 57.7941 58.9178 57.7366 59.0597 57.7336C59.2016 57.7366 59.3368 57.7941 59.4372 57.8945C59.5375 57.9948 59.5952 58.1301 59.5982 58.272V67.4615C59.5951 67.6022 59.5371 67.7363 59.4364 67.8347C59.3357 67.9332 59.2005 67.9882 59.0597 67.9882Z" fill="#333333"/>
<path d="M40.4239 35.3855H35.5541C35.4133 35.3824 35.2794 35.3244 35.1809 35.2237C35.0824 35.1231 35.0273 34.9878 35.0273 34.847C35.0273 34.7062 35.0824 34.571 35.1809 34.4704C35.2794 34.3697 35.4133 34.3117 35.5541 34.3086H40.4239C40.5667 34.3086 40.7037 34.3654 40.8047 34.4664C40.9056 34.5673 40.9624 34.7042 40.9624 34.847C40.9624 34.9898 40.9056 35.127 40.8047 35.228C40.7037 35.329 40.5667 35.3855 40.4239 35.3855Z" fill="#333333"/>
<path d="M54.7874 45.0456H35.601C35.4602 45.0426 35.3262 44.9845 35.2278 44.8839C35.1293 44.7832 35.0742 44.648 35.0742 44.5072C35.0742 44.3664 35.1293 44.2312 35.2278 44.1305C35.3262 44.0299 35.4602 43.9718 35.601 43.9688H54.7874C54.9302 43.9688 55.0672 44.0255 55.1682 44.1265C55.2692 44.2275 55.3259 44.3644 55.3259 44.5072C55.3259 44.65 55.2692 44.7872 55.1682 44.8882C55.0672 44.9891 54.9302 45.0456 54.7874 45.0456Z" fill="#333333"/>
<path d="M54.7866 49.8426H35.6002C35.4605 49.8426 35.3265 49.7871 35.2277 49.6883C35.1289 49.5895 35.0734 49.4556 35.0734 49.3159C35.0718 49.2458 35.0843 49.176 35.1101 49.1107C35.1358 49.0454 35.1744 48.986 35.2235 48.9358C35.2725 48.8856 35.3311 48.8458 35.3958 48.8186C35.4605 48.7914 35.53 48.7775 35.6002 48.7775H54.7866C54.8577 48.7759 54.9285 48.7887 54.9945 48.8152C55.0606 48.8417 55.1206 48.8812 55.1709 48.9315C55.2212 48.9818 55.2608 49.0418 55.2873 49.1079C55.3138 49.1739 55.3267 49.2448 55.3251 49.3159C55.3251 49.3861 55.3111 49.4556 55.2839 49.5203C55.2567 49.5849 55.2168 49.6435 55.1667 49.6926C55.1165 49.7417 55.057 49.7803 54.9918 49.8061C54.9265 49.8318 54.8567 49.8442 54.7866 49.8426Z" fill="#333333"/>
<path d="M51.8249 54.7019H35.6002C35.53 54.7019 35.4605 54.6879 35.3958 54.6607C35.3311 54.6335 35.2725 54.5937 35.2235 54.5435C35.1744 54.4934 35.1358 54.4339 35.1101 54.3686C35.0843 54.3034 35.0718 54.2336 35.0734 54.1634C35.0733 54.0226 35.1285 53.8874 35.2269 53.7868C35.3254 53.6861 35.4594 53.6281 35.6002 53.625H51.8249C51.9677 53.625 52.1047 53.6818 52.2057 53.7828C52.3067 53.8837 52.3634 54.0206 52.3634 54.1634C52.365 54.2346 52.3522 54.3054 52.3257 54.3715C52.2992 54.4376 52.2596 54.4975 52.2092 54.5478C52.1589 54.5982 52.0989 54.6377 52.0329 54.6642C51.9668 54.6906 51.8961 54.7035 51.8249 54.7019Z" fill="#333333"/>
<path d="M54.9977 61.6787H50.6313C50.4894 61.6757 50.3541 61.6179 50.2538 61.5175C50.1535 61.4172 50.0958 61.2819 50.0928 61.14C50.0958 60.9981 50.1535 60.8631 50.2538 60.7628C50.3541 60.6624 50.4894 60.6046 50.6313 60.6016H54.9977C55.1395 60.6046 55.2748 60.6624 55.3751 60.7628C55.4755 60.8631 55.5332 60.9981 55.5362 61.14C55.5332 61.2819 55.4755 61.4172 55.3751 61.5175C55.2748 61.6179 55.1395 61.6757 54.9977 61.6787Z" fill="#333333"/>
</g>
<defs>
<clipPath id="clip0_1081_174647">
<rect width="38.9699" height="40" fill="white" transform="translate(31 28)"/>
</clipPath>
</defs>
</svg>
