<svg width="100" height="100" viewBox="0 0 100 100" fill="none" xmlns="http://www.w3.org/2000/svg">
<circle cx="50" cy="50" r="50" fill="#F2F6FB"/>
<g clip-path="url(#clip0_1388_246865)">
<path d="M32.32 23.6719H67.48V27.4319L64.79 29.5419H34.75L32.32 27.3519V23.6719Z" fill="white"/>
<path d="M39.29 54.2891H28.18V65.3991H39.29V54.2891Z" fill="white"/>
<path d="M55.36 54.2891H43.93V65.7191H55.36V54.2891Z" fill="white"/>
<path d="M71.34 54.2891H60.04V65.5891H71.34V54.2891Z" fill="white"/>
<path d="M25.35 68.3197L26.26 66.2097L27.49 65.6797L72.45 65.8697L73.85 67.5197V76.0497H25.49L25.35 68.3197Z" fill="white"/>
<path d="M46.87 50.2896C46.7765 50.2882 46.685 50.2627 46.6043 50.2154C46.5237 50.168 46.4567 50.1008 46.41 50.0198L44.6 46.7996C43.5 44.7996 43.77 42.6098 45.36 40.4998L49.49 35.8596C49.5842 35.7549 49.7161 35.6919 49.8567 35.6843C49.9974 35.6768 50.1352 35.7255 50.24 35.8196C50.3448 35.9138 50.4078 36.0457 50.4153 36.1863C50.4228 36.327 50.3742 36.4648 50.28 36.5696L46.17 41.1697C45.5701 41.8626 45.1884 42.7173 45.0728 43.6265C44.9571 44.5356 45.1127 45.4588 45.52 46.2798L47.33 49.4998C47.3653 49.5599 47.3881 49.6265 47.3972 49.6956C47.4062 49.7647 47.4012 49.835 47.3826 49.9021C47.3639 49.9693 47.3319 50.0319 47.2885 50.0864C47.2452 50.141 47.1912 50.1864 47.13 50.2197C47.0518 50.2674 46.9616 50.2915 46.87 50.2896Z" fill="#333333"/>
<path d="M52.88 50.4085C52.7885 50.4104 52.6982 50.3861 52.62 50.3384C52.5588 50.3051 52.5049 50.2599 52.4615 50.2054C52.4181 50.1508 52.3861 50.088 52.3675 50.0208C52.3488 49.9536 52.3438 49.8834 52.3529 49.8142C52.3619 49.7451 52.3847 49.6786 52.42 49.6184L54.27 46.3184C54.6825 45.4916 54.8381 44.5603 54.717 43.6443C54.5958 42.7283 54.2033 41.8696 53.59 41.1785L49.52 36.6084C49.4272 36.505 49.3792 36.369 49.3868 36.2303C49.3943 36.0915 49.4566 35.9613 49.56 35.8684C49.6634 35.7756 49.7995 35.7276 49.9383 35.7351C50.0771 35.7426 50.2072 35.805 50.3 35.9085L54.41 40.5086C56.03 42.6486 56.3 44.8784 55.19 46.8384L53.34 50.1385C53.2933 50.2194 53.2263 50.2869 53.1457 50.3343C53.065 50.3816 52.9735 50.4071 52.88 50.4085Z" fill="#333333"/>
<path d="M45.06 47.0712C44.9673 47.0718 44.876 47.0482 44.7953 47.0025C44.7146 46.9569 44.6472 46.8909 44.6 46.8111C43.46 44.8111 43.73 42.6213 45.36 40.4913C45.4462 40.3799 45.5731 40.3072 45.7128 40.2894C45.8526 40.2716 45.9936 40.3102 46.105 40.3963C46.2164 40.4825 46.289 40.6094 46.3068 40.7491C46.3246 40.8888 46.2862 41.0298 46.2 41.1412C45.42 42.1412 44.29 44.1413 45.51 46.2713C45.5463 46.331 45.5705 46.3971 45.5811 46.4662C45.5917 46.5352 45.5886 46.6058 45.5719 46.6737C45.5551 46.7415 45.5252 46.8055 45.4836 46.8617C45.4421 46.9179 45.3899 46.9654 45.33 47.0013C45.2477 47.0479 45.1546 47.0719 45.06 47.0712Z" fill="#333333"/>
<path d="M49.9 46.3386C49.8309 46.34 49.7622 46.3275 49.6979 46.302C49.6337 46.2765 49.5752 46.2384 49.5258 46.1899C49.4765 46.1415 49.4373 46.0838 49.4105 46.02C49.3838 45.9563 49.37 45.8877 49.37 45.8186V29.3486C49.3596 29.2736 49.3654 29.1973 49.3871 29.1248C49.4087 29.0522 49.4456 28.9851 49.4954 28.928C49.5451 28.8709 49.6065 28.8251 49.6755 28.7937C49.7444 28.7623 49.8193 28.7461 49.895 28.7461C49.9707 28.7461 50.0456 28.7623 50.1145 28.7937C50.1835 28.8251 50.2449 28.8709 50.2946 28.928C50.3444 28.9851 50.3813 29.0522 50.4029 29.1248C50.4245 29.1973 50.4304 29.2736 50.42 29.3486V45.8186C50.42 45.9565 50.3652 46.0888 50.2677 46.1863C50.1702 46.2838 50.0379 46.3386 49.9 46.3386Z" fill="#333333"/>
<path d="M73.78 76.5493H25.53C25.4609 76.5506 25.3922 76.5382 25.3279 76.5127C25.2637 76.4872 25.2052 76.4491 25.1558 76.4006C25.1065 76.3522 25.0673 76.2945 25.0405 76.2307C25.0138 76.167 25 76.0987 25 76.0295V68.0295C25 67.2551 25.3076 66.5122 25.8553 65.9646C26.4029 65.417 27.1456 65.1094 27.92 65.1094H71.36C72.1344 65.1094 72.8772 65.417 73.4248 65.9646C73.9724 66.5122 74.28 67.2551 74.28 68.0295V76.0295C74.2801 76.1641 74.2281 76.2932 74.1348 76.3901C74.0416 76.4871 73.9144 76.5441 73.78 76.5493ZM26.06 75.5493H73.25V68.1194C73.25 67.8751 73.2019 67.6334 73.1084 67.4077C73.0149 67.182 72.8779 66.9769 72.7052 66.8042C72.5325 66.6315 72.3275 66.4946 72.1018 66.4011C71.8761 66.3076 71.6343 66.2595 71.39 66.2595H27.92C27.6757 66.2595 27.4339 66.3076 27.2082 66.4011C26.9825 66.4946 26.7775 66.6315 26.6048 66.8042C26.4321 66.9769 26.2951 67.182 26.2016 67.4077C26.1081 67.6334 26.06 67.8751 26.06 68.1194V75.5493Z" fill="#333333"/>
<path d="M39.36 66.2109C39.2904 66.2109 39.2215 66.1973 39.1572 66.1707C39.0929 66.144 39.0344 66.1049 38.9852 66.0557C38.936 66.0064 38.897 65.9481 38.8703 65.8838C38.8437 65.8195 38.83 65.7505 38.83 65.6809V54.8608H28.55V65.6809C28.55 65.8215 28.4941 65.9563 28.3947 66.0557C28.2954 66.1551 28.1606 66.2109 28.02 66.2109C27.8794 66.2109 27.7446 66.1551 27.6452 66.0557C27.5458 65.9563 27.49 65.8215 27.49 65.6809V54.3308C27.49 54.2612 27.5037 54.1925 27.5303 54.1282C27.557 54.0639 27.596 54.0053 27.6452 53.9561C27.6944 53.9068 27.7529 53.8679 27.8172 53.8413C27.8815 53.8147 27.9504 53.8008 28.02 53.8008H39.36C39.4296 53.8008 39.4985 53.8147 39.5628 53.8413C39.6271 53.8679 39.6855 53.9068 39.7348 53.9561C39.784 54.0053 39.823 54.0639 39.8496 54.1282C39.8763 54.1925 39.89 54.2612 39.89 54.3308V65.6809C39.89 65.8215 39.8342 65.9563 39.7348 66.0557C39.6354 66.1551 39.5006 66.2109 39.36 66.2109Z" fill="#333333"/>
<path d="M55.36 66.2109C55.2195 66.2109 55.0846 66.1551 54.9852 66.0557C54.8859 65.9563 54.83 65.8215 54.83 65.6809V54.8608H44.51V65.6809C44.51 65.8215 44.4542 65.9563 44.3548 66.0557C44.2554 66.1551 44.1206 66.2109 43.98 66.2109C43.8394 66.2109 43.7046 66.1551 43.6053 66.0557C43.5059 65.9563 43.45 65.8215 43.45 65.6809V54.3308C43.45 54.2612 43.4637 54.1925 43.4904 54.1282C43.517 54.0639 43.556 54.0053 43.6053 53.9561C43.6545 53.9068 43.7129 53.8679 43.7772 53.8413C43.8415 53.8147 43.9104 53.8008 43.98 53.8008H55.36C55.4296 53.8008 55.4985 53.8147 55.5628 53.8413C55.6271 53.8679 55.6856 53.9068 55.7348 53.9561C55.784 54.0053 55.823 54.0639 55.8497 54.1282C55.8763 54.1925 55.89 54.2612 55.89 54.3308V65.6809C55.89 65.8215 55.8342 65.9563 55.7348 66.0557C55.6354 66.1551 55.5006 66.2109 55.36 66.2109Z" fill="#333333"/>
<path d="M71.29 66.2109C71.1495 66.2109 71.0147 66.1551 70.9153 66.0557C70.8159 65.9563 70.76 65.8215 70.76 65.6809V54.8608H60.47V65.6809C60.47 65.8215 60.4142 65.9563 60.3148 66.0557C60.2154 66.1551 60.0806 66.2109 59.94 66.2109C59.7995 66.2109 59.6647 66.1551 59.5653 66.0557C59.4659 65.9563 59.41 65.8215 59.41 65.6809V54.3308C59.41 54.2612 59.4237 54.1925 59.4504 54.1282C59.477 54.0639 59.516 54.0053 59.5653 53.9561C59.6145 53.9068 59.6729 53.8679 59.7372 53.8413C59.8015 53.8147 59.8704 53.8008 59.94 53.8008H71.29C71.3596 53.8008 71.4286 53.8147 71.4929 53.8413C71.5572 53.8679 71.6156 53.9068 71.6648 53.9561C71.714 54.0053 71.7531 54.0639 71.7797 54.1282C71.8063 54.1925 71.82 54.2612 71.82 54.3308V65.6809C71.82 65.8215 71.7642 65.9563 71.6648 66.0557C71.5654 66.1551 71.4306 66.2109 71.29 66.2109Z" fill="#333333"/>
<path d="M64.06 29.8799H35.74C34.6534 29.8772 33.6121 29.4444 32.8438 28.676C32.0754 27.9077 31.6426 26.8666 31.64 25.78V23.53C31.64 23.3895 31.6958 23.2544 31.7952 23.155C31.8946 23.0556 32.0294 23 32.17 23H67.62C67.7605 23 67.8954 23.0556 67.9948 23.155C68.0941 23.2544 68.15 23.3895 68.15 23.53V25.78C68.15 26.8657 67.7194 27.9069 66.9527 28.6755C66.1859 29.4441 65.1456 29.8772 64.06 29.8799ZM32.7 24.0598V25.78C32.7 26.5757 33.016 27.3385 33.5787 27.9011C34.1413 28.4637 34.9043 28.78 35.7 28.78H64.06C64.8556 28.78 65.6187 28.4637 66.1813 27.9011C66.7439 27.3385 67.06 26.5757 67.06 25.78V24.0598H32.7Z" fill="#333333"/>
<path d="M40.01 73.6416C39.9391 73.6422 39.8688 73.6283 39.8035 73.6008C39.7381 73.5733 39.6791 73.5329 39.63 73.4817C39.5329 73.381 39.4786 73.2466 39.4786 73.1067C39.4786 72.9668 39.5329 72.8324 39.63 72.7317L41.51 70.8516L39.63 68.9717C39.5305 68.8722 39.4747 68.7373 39.4747 68.5967C39.4747 68.456 39.5305 68.3211 39.63 68.2217C39.7295 68.1222 39.8644 68.0664 40.005 68.0664C40.1457 68.0664 40.2805 68.1222 40.38 68.2217L42.64 70.4817C42.7372 70.5824 42.7914 70.7168 42.7914 70.8567C42.7914 70.9966 42.7372 71.131 42.64 71.2317L40.38 73.4817C40.3328 73.5326 40.2755 73.573 40.2118 73.6006C40.1481 73.6281 40.0794 73.6421 40.01 73.6416Z" fill="#235AB0"/>
<path d="M43.56 73.6418C43.4906 73.6423 43.4219 73.6284 43.3582 73.6008C43.2945 73.5733 43.2372 73.5328 43.19 73.4819C43.1407 73.4327 43.1016 73.3742 43.075 73.3098C43.0483 73.2455 43.0345 73.1766 43.0345 73.1069C43.0345 73.0373 43.0483 72.9682 43.075 72.9038C43.1016 72.8395 43.1407 72.7812 43.19 72.7319L45.07 70.8518L43.19 68.9719C43.1407 68.9227 43.1016 68.8642 43.075 68.7998C43.0483 68.7355 43.0345 68.6666 43.0345 68.5969C43.0345 68.5273 43.0483 68.4581 43.075 68.3938C43.1016 68.3295 43.1407 68.2711 43.19 68.2219C43.2907 68.1248 43.4251 68.0703 43.565 68.0703C43.7049 68.0703 43.8394 68.1248 43.94 68.2219L46.19 70.4819C46.2393 70.5312 46.2784 70.5895 46.3051 70.6538C46.3317 70.7182 46.3455 70.7873 46.3455 70.8569C46.3455 70.9266 46.3317 70.9955 46.3051 71.0598C46.2784 71.1242 46.2393 71.1827 46.19 71.2319L43.94 73.4819C43.8909 73.5331 43.8319 73.5736 43.7666 73.6011C43.7012 73.6286 43.6309 73.6425 43.56 73.6418Z" fill="#235AB0"/>
<path d="M47.12 73.6416C47.0491 73.6422 46.9788 73.6283 46.9135 73.6008C46.8481 73.5733 46.7891 73.5329 46.74 73.4817C46.6428 73.381 46.5885 73.2466 46.5885 73.1067C46.5885 72.9668 46.6428 72.8324 46.74 72.7317L48.63 70.8516L46.74 68.9717C46.6405 68.8722 46.5847 68.7373 46.5847 68.5967C46.5847 68.456 46.6405 68.3211 46.74 68.2217C46.8394 68.1222 46.9743 68.0664 47.115 68.0664C47.2556 68.0664 47.3905 68.1222 47.49 68.2217L49.75 70.4817C49.7993 70.5309 49.8384 70.5892 49.8651 70.6536C49.8917 70.7179 49.9055 70.787 49.9055 70.8567C49.9055 70.9263 49.8917 70.9952 49.8651 71.0596C49.8384 71.1239 49.7993 71.1825 49.75 71.2317L47.49 73.4817C47.4428 73.5326 47.3855 73.573 47.3218 73.6006C47.2581 73.6281 47.1894 73.6421 47.12 73.6416Z" fill="#235AB0"/>
<path d="M50.67 73.6418C50.6006 73.6423 50.5319 73.6284 50.4682 73.6008C50.4045 73.5733 50.3472 73.5328 50.3 73.4819C50.2507 73.4327 50.2116 73.3742 50.1849 73.3098C50.1583 73.2455 50.1445 73.1766 50.1445 73.1069C50.1445 73.0373 50.1583 72.9682 50.1849 72.9038C50.2116 72.8395 50.2507 72.7812 50.3 72.7319L52.18 70.8518L50.3 68.9719C50.2507 68.9227 50.2116 68.8642 50.1849 68.7998C50.1583 68.7355 50.1445 68.6666 50.1445 68.5969C50.1445 68.5273 50.1583 68.4581 50.1849 68.3938C50.2116 68.3295 50.2507 68.2711 50.3 68.2219C50.4007 68.1248 50.5351 68.0703 50.675 68.0703C50.8149 68.0703 50.9493 68.1248 51.05 68.2219L53.3 70.4819C53.3493 70.5312 53.3884 70.5895 53.4151 70.6538C53.4417 70.7182 53.4555 70.7873 53.4555 70.8569C53.4555 70.9266 53.4417 70.9955 53.4151 71.0598C53.3884 71.1242 53.3493 71.1827 53.3 71.2319L51.05 73.4819C51.0013 73.5336 50.9423 73.5745 50.8769 73.6021C50.8115 73.6296 50.741 73.6431 50.67 73.6418Z" fill="#235AB0"/>
<path d="M54.23 73.6418C54.1606 73.6423 54.0919 73.6284 54.0282 73.6008C53.9645 73.5733 53.9072 73.5328 53.86 73.4819C53.8107 73.4327 53.7716 73.3742 53.7449 73.3098C53.7183 73.2455 53.7045 73.1766 53.7045 73.1069C53.7045 73.0373 53.7183 72.9682 53.7449 72.9038C53.7716 72.8395 53.8107 72.7812 53.86 72.7319L55.74 70.8518L53.86 68.9719C53.8107 68.9227 53.7716 68.8642 53.7449 68.7998C53.7183 68.7355 53.7045 68.6666 53.7045 68.5969C53.7045 68.5273 53.7183 68.4581 53.7449 68.3938C53.7716 68.3295 53.8107 68.2711 53.86 68.2219C53.9607 68.1248 54.0951 68.0703 54.235 68.0703C54.3749 68.0703 54.5093 68.1248 54.61 68.2219L56.86 70.4819C56.9093 70.5312 56.9484 70.5895 56.9751 70.6538C57.0017 70.7182 57.0155 70.7873 57.0155 70.8569C57.0155 70.9266 57.0017 70.9955 56.9751 71.0598C56.9484 71.1242 56.9093 71.1827 56.86 71.2319L54.61 73.4819C54.5609 73.5331 54.5019 73.5736 54.4365 73.6011C54.3712 73.6286 54.3009 73.6425 54.23 73.6418Z" fill="#235AB0"/>
<path d="M68.92 60.7693V56.6992H62.36V60.7693C63.3407 60.122 64.4899 59.7769 65.665 59.7769C66.84 59.7769 67.9893 60.122 68.97 60.7693H68.92Z" fill="#235AB0"/>
<path d="M52.96 60.7693V56.6992H46.36V60.7693C47.3407 60.122 48.4899 59.7769 49.665 59.7769C50.84 59.7769 51.9893 60.122 52.97 60.7693H52.96Z" fill="#235AB0"/>
<path d="M37 60.7693V56.6992H30.36V60.7693C31.3407 60.122 32.4899 59.7769 33.665 59.7769C34.84 59.7769 35.9893 60.122 36.97 60.7693H37Z" fill="#235AB0"/>
</g>
<defs>
<clipPath id="clip0_1388_246865">
<rect width="49.31" height="53.55" fill="white" transform="translate(25 23)"/>
</clipPath>
</defs>
</svg>
