<svg width="104" height="100" viewBox="0 0 104 100" fill="none" xmlns="http://www.w3.org/2000/svg">
<ellipse cx="51.625" cy="50" rx="51.625" ry="50" fill="#F2F6FB"/>
<g clip-path="url(#clip0_1081_175861)">
<path d="M39.0625 60.0117V31.4805H64.5V65.4805H45.8333L39.0625 60.0117Z" fill="white"/>
<path d="M35.5837 44.9583L34.4482 43.6354L36.6357 41.875L37.917 42.8229L35.5837 44.9583Z" fill="#235AB0"/>
<path d="M36.9482 46.1667L39.0837 44.0625L48.3962 53.4062L48.667 54.0833L46.5837 55.875L36.9482 46.1667Z" fill="#235AB0"/>
<path d="M63.7184 46.2617L61.833 48.1367L67.4372 53.8346H68.6976L69.5205 53.2721V51.9805L63.7184 46.2617Z" fill="#235AB0"/>
<path d="M39.5417 41.3648C39.4154 41.3621 39.2951 41.3106 39.2058 41.2213C39.1165 41.132 39.0652 41.0119 39.0625 40.8856V31.5106C39.0625 31.3835 39.113 31.2615 39.2028 31.1716C39.2927 31.0818 39.4146 31.0312 39.5417 31.0312H64.0312C64.1583 31.0312 64.2802 31.0818 64.3701 31.1716C64.4599 31.2615 64.5104 31.3835 64.5104 31.5106V36.4481C64.5077 36.5734 64.456 36.6926 64.3664 36.7803C64.2769 36.8679 64.1565 36.9168 64.0312 36.9168C63.906 36.9168 63.7856 36.8679 63.6961 36.7803C63.6065 36.6926 63.5548 36.5734 63.5521 36.4481V31.9898H40.0208V40.9167C40.0129 41.0382 39.9589 41.1524 39.8699 41.2356C39.7809 41.3188 39.6635 41.365 39.5417 41.3648Z" fill="#333333"/>
<path d="M64.0312 66.5848H45.6354C45.5113 66.5826 45.3925 66.5342 45.3021 66.4492L39.2083 60.3556C39.1162 60.2648 39.0638 60.1411 39.0625 60.0118V52.0848C39.0652 51.9586 39.1165 51.8382 39.2058 51.7489C39.2951 51.6596 39.4154 51.6081 39.5417 51.6055C39.6687 51.6055 39.7906 51.656 39.8805 51.7458C39.9704 51.8357 40.0208 51.9578 40.0208 52.0848V59.8139L45.8333 65.6369H63.5417V52.5535C63.5443 52.4273 63.5956 52.3069 63.6849 52.2176C63.7742 52.1283 63.8946 52.0771 64.0208 52.0744C64.1471 52.0771 64.2674 52.1283 64.3567 52.2176C64.446 52.3069 64.4973 52.4273 64.5 52.5535V66.0952C64.5014 66.1581 64.4903 66.2207 64.4675 66.2793C64.4447 66.338 64.4106 66.3915 64.367 66.437C64.3235 66.4825 64.2715 66.519 64.2138 66.5443C64.1562 66.5697 64.0942 66.5834 64.0312 66.5848Z" fill="#333333"/>
<path d="M45.6356 66.5834C45.5738 66.5844 45.5124 66.5731 45.4551 66.5498C45.3978 66.5265 45.3458 66.4917 45.3023 66.4478L39.2085 60.3542C39.1417 60.2873 39.0962 60.2022 39.0777 60.1096C39.0591 60.0169 39.0684 59.9208 39.1044 59.8334C39.1404 59.7462 39.2009 59.6713 39.2785 59.6177C39.3561 59.5641 39.4476 59.5341 39.5418 59.5312H45.6981C45.8274 59.5325 45.951 59.5849 46.0418 59.677C46.1286 59.7663 46.1771 59.8859 46.1773 60.0104V66.1042C46.1786 66.1994 46.1516 66.2928 46.0997 66.3725C46.0477 66.4523 45.9732 66.5148 45.8856 66.5521C45.8055 66.5803 45.7202 66.5909 45.6356 66.5834ZM40.6981 60.4895L45.1668 64.9583V60.4895H40.6981Z" fill="#333333"/>
<path d="M68.1775 54.416C67.9378 54.4173 67.7002 54.3709 67.4785 54.2797C67.2568 54.1885 67.0553 54.0543 66.8859 53.8848L61.6775 48.6764C61.6069 48.6093 61.5507 48.5284 61.5123 48.4389C61.4739 48.3494 61.4541 48.253 61.4541 48.1556C61.4541 48.0582 61.4739 47.9616 61.5123 47.872C61.5507 47.7825 61.6069 47.7019 61.6775 47.6348L63.2088 46.0931C63.3486 45.9582 63.5353 45.8828 63.7296 45.8828C63.9239 45.8828 64.1107 45.9582 64.2505 46.0931L69.4588 51.3015C69.6284 51.4709 69.7627 51.6723 69.8538 51.894C69.945 52.1157 69.9913 52.3534 69.9901 52.5931C69.9913 52.8329 69.945 53.0703 69.8538 53.292C69.7627 53.5137 69.6284 53.7153 69.4588 53.8848C69.119 54.2247 68.6582 54.4158 68.1775 54.416ZM62.5005 48.166L67.563 53.2284C67.728 53.3875 67.9483 53.4766 68.1775 53.4766C68.4068 53.4766 68.6271 53.3875 68.7921 53.2284C68.8732 53.1482 68.9371 53.0525 68.9801 52.9469C69.0231 52.8412 69.0442 52.728 69.0421 52.614C69.0436 52.5 69.0222 52.3869 68.9793 52.2813C68.9363 52.1758 68.8727 52.0799 68.7921 51.9993L63.7296 46.9367L62.5005 48.166Z" fill="#333333"/>
<path d="M62.1773 48.2806C62.1146 48.2809 62.0525 48.2683 61.9951 48.2432C61.9377 48.2181 61.8862 48.1811 61.8439 48.1348L60.6773 46.968C60.6332 46.9245 60.5982 46.8727 60.5743 46.8155C60.5504 46.7582 60.5381 46.6969 60.5381 46.6349C60.5381 46.5729 60.5504 46.5113 60.5743 46.4541C60.5982 46.3969 60.6332 46.3451 60.6773 46.3015C60.7671 46.2118 60.8888 46.1614 61.0158 46.1614C61.1427 46.1614 61.2645 46.2118 61.3543 46.3015L62.1773 47.1245L62.7085 46.5932L61.8752 45.7702C61.7855 45.6804 61.7351 45.5587 61.7351 45.4317C61.7351 45.3048 61.7855 45.1828 61.8752 45.093C61.965 45.0033 62.0868 44.9531 62.2137 44.9531C62.3407 44.9531 62.4624 45.0033 62.5522 45.093L63.7189 46.2598C63.7638 46.3026 63.7991 46.3544 63.8225 46.4119C63.8458 46.4693 63.8567 46.5312 63.8543 46.5932C63.8556 46.6566 63.8443 46.7196 63.8211 46.7786C63.7978 46.8376 63.7631 46.8913 63.7189 46.9368L62.5106 48.1348C62.4683 48.1811 62.4168 48.2181 62.3594 48.2432C62.302 48.2683 62.2399 48.2809 62.1773 48.2806Z" fill="#333333"/>
<path d="M57.156 48.4181C56.2597 48.4205 55.3719 48.2449 54.544 47.9016C53.7161 47.5583 52.9646 47.0539 52.3331 46.4179C51.6971 45.7864 51.1928 45.0351 50.8495 44.2072C50.5062 43.3793 50.3306 42.4914 50.3331 41.5951C50.3293 40.6971 50.5041 39.8073 50.8474 38.9775C51.1908 38.1477 51.6958 37.3944 52.3331 36.7617C52.9646 36.1257 53.7161 35.6216 54.544 35.2783C55.3719 34.9349 56.2597 34.7593 57.156 34.7617C58.0538 34.7591 58.9433 34.9345 59.7729 35.2777C60.6025 35.621 61.3559 36.1254 61.9893 36.7617C62.6247 37.3958 63.1285 38.1493 63.4717 38.9788C63.8149 39.8082 63.9908 40.6975 63.9893 41.5951C63.9894 42.4911 63.8129 43.3781 63.4697 44.2057C63.1265 45.0333 62.6234 45.785 61.9893 46.4179C61.3559 47.0542 60.6025 47.5588 59.7729 47.9021C58.9433 48.2454 58.0538 48.4208 57.156 48.4181ZM57.156 35.72C56.3819 35.7141 55.6145 35.8633 54.8989 36.1584C54.1833 36.4536 53.5341 36.889 52.9893 37.4389C52.4394 37.9837 52.004 38.633 51.7088 39.3485C51.4136 40.0641 51.2646 40.8315 51.2706 41.6056C51.2646 42.3796 51.4136 43.147 51.7088 43.8626C52.004 44.5782 52.4394 45.2275 52.9893 45.7722C53.5341 46.3222 54.1833 46.7575 54.8989 47.0527C55.6145 47.3479 56.3819 47.4968 57.156 47.4909C57.9299 47.4957 58.6969 47.3463 59.4123 47.0512C60.1278 46.7561 60.7772 46.3212 61.3226 45.7722C61.8707 45.2261 62.3049 44.5766 62.5999 43.8613C62.8949 43.1461 63.045 42.3793 63.0414 41.6056C63.045 40.8319 62.8949 40.0651 62.5999 39.3498C62.3049 38.6346 61.8707 37.9851 61.3226 37.4389C60.7772 36.8899 60.1278 36.4551 59.4123 36.16C58.6969 35.8649 57.9299 35.7152 57.156 35.72Z" fill="#333333"/>
<path d="M49.542 38.5327H43.292C43.1667 38.53 43.0475 38.4784 42.9599 38.3888C42.8723 38.2992 42.8232 38.1786 42.8232 38.0533C42.8232 37.928 42.8723 37.8077 42.9599 37.7182C43.0475 37.6286 43.1667 37.5769 43.292 37.5742H49.542C49.6691 37.5742 49.791 37.6247 49.8808 37.7146C49.9707 37.8045 50.0212 37.9263 50.0212 38.0533C50.0212 38.1804 49.9707 38.3025 49.8808 38.3923C49.791 38.4822 49.6691 38.5327 49.542 38.5327Z" fill="#333333"/>
<path d="M48.6772 42.8645H43.2501C43.1877 42.8645 43.1259 42.8521 43.0683 42.8279C43.0107 42.8037 42.9586 42.7682 42.9149 42.7236C42.8712 42.679 42.8369 42.6261 42.814 42.568C42.7911 42.5099 42.78 42.4478 42.7814 42.3854C42.7813 42.2601 42.8304 42.1398 42.918 42.0502C43.0056 41.9606 43.1248 41.909 43.2501 41.9062H48.6772C48.8034 41.9089 48.9238 41.9601 49.0131 42.0494C49.1023 42.1387 49.1537 42.2591 49.1564 42.3854C49.1564 42.5125 49.1059 42.6343 49.016 42.7241C48.9262 42.814 48.8043 42.8645 48.6772 42.8645Z" fill="#333333"/>
<path d="M49.542 47.1265H43.292C43.1667 47.1238 43.0475 47.0721 42.9599 46.9825C42.8723 46.893 42.8232 46.7724 42.8232 46.6471C42.8232 46.5218 42.8723 46.4015 42.9599 46.3119C43.0475 46.2223 43.1667 46.1707 43.292 46.168H49.542C49.6691 46.168 49.791 46.2185 49.8808 46.3083C49.9707 46.3982 50.0212 46.52 50.0212 46.6471C50.0212 46.7742 49.9707 46.8962 49.8808 46.9861C49.791 47.076 49.6691 47.1265 49.542 47.1265Z" fill="#333333"/>
<path d="M60.2814 51.4167H48.6356C48.5722 51.4181 48.5093 51.4067 48.4505 51.3831C48.3917 51.3595 48.3384 51.3244 48.2936 51.2796C48.2488 51.2348 48.2135 51.1815 48.19 51.1227C48.1664 51.0639 48.1549 51.0009 48.1564 50.9376C48.1564 50.8751 48.1688 50.8133 48.193 50.7557C48.2172 50.6982 48.2527 50.646 48.2974 50.6024C48.342 50.5587 48.3949 50.5244 48.453 50.5014C48.511 50.4785 48.5731 50.4675 48.6356 50.4689H60.2814C60.4067 50.4688 60.527 50.5178 60.6166 50.6054C60.7061 50.6931 60.7578 50.8123 60.7605 50.9376C60.7605 51.0646 60.7101 51.1864 60.6202 51.2763C60.5303 51.3662 60.4085 51.4167 60.2814 51.4167Z" fill="#333333"/>
<path d="M60.2816 55.7202H51.3232C51.198 55.7175 51.0787 55.6659 50.9911 55.5763C50.9035 55.4867 50.8545 55.3661 50.8545 55.2408C50.8545 55.1155 50.9035 54.9952 50.9911 54.9057C51.0787 54.8161 51.198 54.7644 51.3232 54.7617H60.2816C60.4078 54.7644 60.5282 54.8159 60.6174 54.9052C60.7067 54.9944 60.7581 55.1146 60.7607 55.2408C60.7581 55.3671 60.7067 55.4875 60.6174 55.5768C60.5282 55.6661 60.4078 55.7176 60.2816 55.7202Z" fill="#333333"/>
<path d="M60.2816 60.0103H49.8649C49.7378 60.0103 49.616 59.9598 49.5261 59.8699C49.4362 59.7801 49.3857 59.6583 49.3857 59.5312C49.3885 59.4059 49.4401 59.2867 49.5297 59.1991C49.6193 59.1114 49.7396 59.0625 49.8649 59.0625H60.2816C60.4069 59.0625 60.5272 59.1114 60.6168 59.1991C60.7063 59.2867 60.758 59.4059 60.7607 59.5312C60.7607 59.6583 60.7102 59.7801 60.6204 59.8699C60.5305 59.9598 60.4086 60.0103 60.2816 60.0103Z" fill="#333333"/>
<path d="M49.2709 56.9577H49.1772L46.4376 56.4265C46.3468 56.4105 46.2631 56.3667 46.198 56.3014L36.5522 46.6555C36.4625 46.5657 36.4121 46.444 36.4121 46.317C36.4121 46.1901 36.4625 46.0684 36.5522 45.9785L38.7605 43.7805C38.8503 43.6908 38.9721 43.6406 39.0991 43.6406C39.226 43.6406 39.3477 43.6908 39.4376 43.7805L49.073 53.4159C49.1419 53.484 49.189 53.5713 49.2084 53.6662L49.7397 56.4056C49.7536 56.4825 49.7486 56.5616 49.725 56.636C49.7014 56.7105 49.6599 56.7778 49.6043 56.8326C49.5133 56.9155 49.394 56.9604 49.2709 56.9577ZM46.7709 55.5097L48.6668 55.8744L48.3022 53.9785L39.0938 44.7807L37.5626 46.3119L46.7709 55.5097Z" fill="#333333"/>
<path d="M35.7917 45.6872C35.6623 45.6859 35.5388 45.6336 35.4479 45.5415L34.1459 44.2394C34.0993 44.1951 34.0623 44.1416 34.0372 44.0825C34.0122 44.0233 33.9995 43.9598 34 43.8956C34.0009 43.8331 34.0142 43.7715 34.0393 43.7142C34.0643 43.657 34.1006 43.6052 34.1459 43.5622L36.3542 41.354C36.3978 41.3099 36.4497 41.2748 36.5069 41.251C36.5641 41.2271 36.6255 41.2148 36.6875 41.2148C36.7495 41.2148 36.8109 41.2271 36.8681 41.251C36.9253 41.2748 36.9773 41.3099 37.0209 41.354L38.3334 42.6665C38.3783 42.7092 38.4136 42.7611 38.4369 42.8185C38.4603 42.876 38.4711 42.9376 38.4688 42.9996C38.4701 43.063 38.4588 43.1263 38.4355 43.1853C38.4123 43.2443 38.3776 43.298 38.3334 43.3434L36.125 45.5415C36.082 45.5868 36.0303 45.623 35.9731 45.648C35.9158 45.6731 35.8542 45.6863 35.7917 45.6872ZM35.1563 43.8956L35.7917 44.5311L37.3229 42.9996L36.6875 42.3643L35.1563 43.8956Z" fill="#333333"/>
<path d="M41.9796 49.6686C41.8502 49.6673 41.7267 49.6147 41.6358 49.5226L37.6567 45.5436C37.567 45.4538 37.5166 45.3321 37.5166 45.2051C37.5166 45.0782 37.567 44.9562 37.6567 44.8664C37.749 44.7814 37.8698 44.7344 37.9952 44.7344C38.1206 44.7344 38.2414 44.7814 38.3337 44.8664L42.3129 48.856C42.357 48.8996 42.392 48.9517 42.4159 49.0089C42.4398 49.0661 42.4521 49.1274 42.4521 49.1894C42.4521 49.2514 42.4398 49.3128 42.4159 49.37C42.392 49.4272 42.357 49.479 42.3129 49.5226C42.2247 49.6122 42.1053 49.6646 41.9796 49.6686Z" fill="#333333"/>
<path d="M46.531 56.4062C46.4692 56.4073 46.4078 56.3959 46.3505 56.3726C46.2932 56.3493 46.2412 56.3148 46.1977 56.2709C46.108 56.1811 46.0576 56.0591 46.0576 55.9321C46.0576 55.8052 46.108 55.6835 46.1977 55.5937L48.406 53.3855C48.4496 53.3414 48.5015 53.3064 48.5587 53.2825C48.6159 53.2586 48.6773 53.2461 48.7393 53.2461C48.8014 53.2461 48.8627 53.2586 48.9199 53.2825C48.9772 53.3064 49.0291 53.3414 49.0727 53.3855C49.1623 53.4753 49.2127 53.597 49.2127 53.7239C49.2127 53.8509 49.1623 53.9726 49.0727 54.0624L46.8748 56.2709C46.8293 56.3151 46.7755 56.3496 46.7164 56.3729C46.6574 56.3961 46.5944 56.4075 46.531 56.4062Z" fill="#333333"/>
</g>
<defs>
<clipPath id="clip0_1081_175861">
<rect width="36" height="35.5833" fill="white" transform="translate(34 31)"/>
</clipPath>
</defs>
</svg>
