<svg width="24" height="16" viewBox="0 0 24 16" fill="none" xmlns="http://www.w3.org/2000/svg">
<g clip-path="url(#clip0_1040_173716)">
<path d="M24 0.5H0V15.5H24V0.5Z" fill="white"/>
<path d="M24 0.5H0V5.5H24V0.5Z" fill="#F0953E"/>
<path d="M24 10.5H0V15.5H24V10.5Z" fill="#3B8916"/>
<path d="M12.1 6C11.6846 6 11.2787 6.12318 10.9333 6.35393C10.588 6.58468 10.3188 6.91266 10.1599 7.29639C10.0009 7.68011 9.95931 8.10233 10.0403 8.50969C10.1214 8.91705 10.3214 9.29125 10.6151 9.58494C10.9088 9.87863 11.283 10.0786 11.6903 10.1596C12.0977 10.2407 12.5199 10.1991 12.9036 10.0402C13.2874 9.88121 13.6153 9.61205 13.8461 9.26671C14.0768 8.92137 14.2 8.51534 14.2 8.1C14.2 7.82422 14.1457 7.55117 14.0401 7.29639C13.9346 7.0416 13.7799 6.81008 13.5849 6.61508C13.3899 6.42008 13.1584 6.2654 12.9036 6.15987C12.6489 6.05433 12.3758 6 12.1 6M12.1 6.20049L12.0499 7.258L12.105 7.85943L12.1601 7.258L12.105 6.20049H12.2654C12.2653 6.2241 12.2739 6.24692 12.2896 6.26451C12.3054 6.28211 12.3271 6.29323 12.3506 6.29572C12.372 6.29466 12.3923 6.286 12.408 6.27131C12.4236 6.25661 12.4334 6.23685 12.4358 6.21554L12.5911 6.2506L12.2654 7.25298L12.1651 7.8494L12.3757 7.27806L12.5962 6.24561L12.7465 6.29572C12.7465 6.29572 12.7465 6.29572 12.7465 6.3308C12.7478 6.35385 12.7579 6.37552 12.7747 6.39137C12.7915 6.40722 12.8137 6.41603 12.8368 6.416C12.8533 6.41511 12.8692 6.40942 12.8825 6.39963C12.8959 6.38984 12.9061 6.37637 12.9119 6.36087L13.0573 6.43607L12.4809 7.32315L12.2253 7.87448L12.5761 7.37329L13.0773 6.43607L13.2127 6.51624C13.2057 6.53396 13.2057 6.55365 13.2127 6.57137C13.2126 6.58299 13.215 6.59449 13.2196 6.60517C13.2242 6.61585 13.2309 6.62548 13.2393 6.63346C13.2478 6.64145 13.2578 6.6476 13.2687 6.65157C13.2796 6.65555 13.2912 6.65724 13.3028 6.65656C13.3158 6.65683 13.3286 6.65374 13.34 6.6476C13.3515 6.64145 13.3611 6.63247 13.368 6.6215C13.4131 6.65659 13.4482 6.69667 13.4883 6.73175L12.7065 7.43845L12.3155 7.90455L12.7816 7.51863L13.4933 6.73677L13.5985 6.85203C13.5888 6.85981 13.5811 6.86975 13.5758 6.88106C13.5706 6.89237 13.5681 6.90474 13.5685 6.91719C13.5678 6.92879 13.5695 6.94041 13.5735 6.95133C13.5774 6.96225 13.5836 6.97225 13.5916 6.9807C13.5996 6.98915 13.6092 6.9959 13.6199 7.00049C13.6306 7.00508 13.6421 7.00742 13.6537 7.0074C13.6617 7.01071 13.6701 7.01242 13.6787 7.01242C13.6873 7.01242 13.6959 7.01071 13.7038 7.0074C13.7339 7.05251 13.7639 7.09763 13.789 7.14273L12.8518 7.64392L12.3506 7.99477L12.8969 7.74417L13.789 7.16779L13.8642 7.31315C13.8482 7.32116 13.8347 7.33326 13.825 7.34824C13.8153 7.36322 13.8098 7.38052 13.8091 7.39835C13.8103 7.42055 13.8196 7.44154 13.8354 7.45726C13.8511 7.47299 13.8721 7.48234 13.8943 7.48354H13.9293L13.9744 7.62887L12.942 7.8494L12.3757 8.05491L12.972 7.95466L13.9744 7.63389C13.9914 7.68263 14.0032 7.73303 14.0095 7.78424C13.9883 7.78783 13.9691 7.7989 13.9553 7.81544C13.9415 7.83199 13.9341 7.85295 13.9344 7.87448C13.9356 7.89753 13.9457 7.9192 13.9625 7.93505C13.9793 7.9509 14.0015 7.95971 14.0246 7.95968V7.95968C14.0246 8.0098 14.0246 8.06493 14.0246 8.11505L12.967 8.06494L12.3656 8.12006L12.967 8.17519L14.0246 8.12006C14.0246 8.17519 14.0246 8.23033 14.0246 8.28045C14.0015 8.28041 13.9793 8.28922 13.9625 8.30507C13.9457 8.32092 13.9356 8.3426 13.9344 8.36564C13.935 8.38692 13.9428 8.40735 13.9564 8.4237C13.97 8.44006 13.9887 8.45138 14.0095 8.45585C14.0095 8.50597 14.0095 8.55609 13.9744 8.60621L13.6186 8.49094L12.972 8.28543L12.3757 8.18522L12.942 8.3907L13.9744 8.61122C13.9615 8.66252 13.9448 8.71278 13.9243 8.76157H13.8943C13.8712 8.76286 13.8496 8.77294 13.8337 8.78972C13.8179 8.8065 13.809 8.8287 13.8091 8.85178C13.8063 8.86161 13.8063 8.87202 13.8091 8.88185V8.88185C13.8068 8.89344 13.8068 8.90536 13.8091 8.91694V8.91694L13.7389 9.05729L12.8518 8.48091L12.3055 8.23031L12.5962 8.4308L12.8017 8.57614L13.7389 9.07733L13.6537 9.21768C13.6373 9.2132 13.62 9.2132 13.6036 9.21768C13.5861 9.21763 13.569 9.22294 13.5547 9.23294C13.5403 9.24294 13.5294 9.25711 13.5233 9.27353C13.5173 9.28995 13.5165 9.30784 13.521 9.32474C13.5255 9.34165 13.5351 9.35676 13.5484 9.36803L13.4432 9.48329L12.7315 8.70143L12.2704 8.31554L12.6563 8.78164L13.4382 9.48831L13.3229 9.59357C13.3052 9.58659 13.2855 9.58659 13.2678 9.59357C13.2456 9.59477 13.2246 9.60412 13.2089 9.61985C13.1932 9.63557 13.1838 9.65656 13.1826 9.67876C13.1826 9.67876 13.1826 9.70884 13.1826 9.71887L13.0422 9.80908L12.541 8.86684L12.1902 8.36564L12.4458 8.91694L13.0172 9.80406L12.8768 9.87925C12.8723 9.86295 12.8625 9.84863 12.8488 9.83863C12.8352 9.82862 12.8186 9.82349 12.8017 9.8241C12.7781 9.82531 12.7559 9.83521 12.7392 9.85187C12.7225 9.86854 12.7127 9.89077 12.7115 9.91431C12.7115 9.91431 12.7115 9.91434 12.7115 9.94441C12.6631 9.96469 12.6127 9.97979 12.5611 9.9895L12.3405 8.95705L12.1301 8.39571L12.2303 8.99213L12.5561 9.99452C12.5053 10.0093 12.4534 10.0194 12.4007 10.0246C12.3972 10.0047 12.3866 9.98669 12.371 9.97384C12.3554 9.96098 12.3357 9.9541 12.3155 9.95441C12.3043 9.95441 12.2932 9.95662 12.2829 9.9609C12.2726 9.96518 12.2632 9.97146 12.2553 9.97938C12.2473 9.98729 12.2411 9.99669 12.2368 10.007C12.2325 10.0174 12.2303 10.0284 12.2303 10.0396V10.0396H12.0699L12.1251 8.9821L12.0699 8.38066L12.0148 8.9821L12.0649 10.0396H11.9045C11.9032 10.0166 11.8932 9.99489 11.8764 9.97904C11.8596 9.96319 11.8374 9.95438 11.8143 9.95441C11.7946 9.95581 11.7758 9.96331 11.7605 9.97589C11.7452 9.98846 11.7343 10.0055 11.7291 10.0246L11.5788 9.99452L11.9045 8.99213L12.0048 8.40073L11.7943 8.96206L11.5738 9.99452C11.5224 9.98411 11.472 9.969 11.4234 9.9494C11.4234 9.9494 11.4234 9.9494 11.4234 9.91933C11.4234 9.89624 11.4146 9.87404 11.3988 9.85726C11.3829 9.84048 11.3612 9.8304 11.3382 9.82912C11.3211 9.83024 11.3046 9.83596 11.2905 9.84566C11.2764 9.85537 11.2652 9.86869 11.258 9.88424L11.1177 9.80908L11.689 8.92196L11.9446 8.37066L11.5938 8.87185L11.0926 9.8141L10.9573 9.72388C10.963 9.70767 10.963 9.68996 10.9573 9.67375C10.9573 9.66256 10.9551 9.65148 10.9508 9.64114C10.9465 9.6308 10.9403 9.62143 10.9324 9.61351C10.9244 9.6056 10.915 9.59932 10.9047 9.59504C10.8944 9.59076 10.8833 9.58855 10.8721 9.58855C10.8596 9.58774 10.8471 9.59006 10.8357 9.59531C10.8243 9.60057 10.8144 9.60858 10.8069 9.61862C10.7646 9.58623 10.7244 9.55106 10.6867 9.51336L11.4735 8.80669L11.8594 8.34059L11.3933 8.72649L10.6867 9.50835C10.6466 9.47326 10.6115 9.42816 10.5764 9.39308C10.5874 9.38505 10.5964 9.37449 10.6025 9.36228C10.6086 9.35007 10.6117 9.33656 10.6115 9.32291C10.6102 9.29986 10.6001 9.27819 10.5833 9.26234C10.5665 9.24649 10.5444 9.23768 10.5213 9.23771C10.5047 9.23481 10.4877 9.23481 10.4711 9.23771C10.4387 9.19525 10.4102 9.14995 10.3859 9.10238L11.3282 8.60119L11.8294 8.25536L11.278 8.50596L10.391 9.08234C10.3659 9.03724 10.3459 8.99215 10.3208 8.94203C10.338 8.93736 10.353 8.92674 10.3631 8.91205C10.3732 8.89736 10.3777 8.87955 10.3759 8.86182C10.3766 8.85021 10.3749 8.8386 10.3709 8.82768C10.3669 8.81676 10.3608 8.80676 10.3528 8.79831C10.3448 8.78986 10.3352 8.78314 10.3245 8.77855C10.3138 8.77396 10.3023 8.77159 10.2907 8.77161H10.2556C10.2352 8.72109 10.2185 8.66917 10.2055 8.61624L11.2379 8.39571L11.8093 8.19024L11.2079 8.29045L10.2055 8.61122C10.1909 8.56013 10.1792 8.50826 10.1704 8.45585C10.1912 8.45339 10.2104 8.44334 10.2243 8.42762C10.2382 8.4119 10.2457 8.39162 10.2456 8.37066C10.2443 8.34761 10.2342 8.32594 10.2175 8.31009C10.2007 8.29424 10.1784 8.2854 10.1554 8.28543V8.28543C10.1554 8.23532 10.1554 8.18021 10.1554 8.12508L11.2129 8.1802L11.8143 8.12508L11.2129 8.06993L10.1554 8.12006C10.1554 8.06994 10.1554 8.01481 10.1554 7.9647C10.167 7.96538 10.1786 7.96368 10.1895 7.95971C10.2004 7.95573 10.2105 7.94955 10.2189 7.94157C10.2274 7.93359 10.2341 7.92398 10.2387 7.9133C10.2433 7.90263 10.2456 7.89109 10.2456 7.87947C10.2457 7.85718 10.2376 7.83565 10.2228 7.81899C10.208 7.80234 10.1875 7.79174 10.1654 7.78926C10.1742 7.7385 10.1859 7.6883 10.2005 7.63891L11.2029 7.95968L11.8043 8.05992L11.2329 7.85442L10.2005 7.63389C10.2142 7.58118 10.2309 7.5293 10.2506 7.47852H10.2807C10.2923 7.47854 10.3038 7.4762 10.3145 7.47161C10.3252 7.46702 10.3348 7.46027 10.3428 7.45182C10.3507 7.44337 10.3569 7.43337 10.3609 7.42245C10.3648 7.41153 10.3666 7.39992 10.3659 7.38831C10.3668 7.37204 10.3624 7.35592 10.3534 7.34237C10.3444 7.32881 10.3311 7.31856 10.3158 7.31315C10.3361 7.26329 10.3596 7.21473 10.3859 7.16779L11.2731 7.74417L11.8294 7.99477L11.3282 7.64392L10.3859 7.14273C10.3859 7.09763 10.441 7.05251 10.4711 7.0074C10.4888 7.01438 10.5085 7.01438 10.5262 7.0074C10.5493 7.00612 10.571 6.99607 10.5869 6.97929C10.6027 6.96251 10.6115 6.94027 10.6115 6.91719C10.609 6.89124 10.5985 6.86671 10.5814 6.84702L10.6816 6.73677L11.3933 7.51863L11.8594 7.90455L11.4735 7.43845L10.6867 6.73175L10.8069 6.62649C10.8147 6.63622 10.8246 6.64403 10.8359 6.64925C10.8472 6.65447 10.8596 6.65695 10.8721 6.65656C10.8837 6.65724 10.8953 6.65555 10.9062 6.65157C10.9171 6.6476 10.9271 6.64145 10.9356 6.63346C10.944 6.62548 10.9508 6.61585 10.9554 6.60517C10.9599 6.59449 10.9623 6.58299 10.9623 6.57137C10.9672 6.55332 10.9672 6.53429 10.9623 6.51624L11.0976 6.43607L11.5988 7.37329L11.9497 7.87448L11.694 7.32817L11.1227 6.44105L11.258 6.36589C11.2642 6.38217 11.2751 6.39617 11.2895 6.40603C11.3038 6.41588 11.3208 6.42111 11.3382 6.42101C11.3494 6.42169 11.3606 6.42015 11.3712 6.41649C11.3818 6.41282 11.3916 6.40711 11.4 6.39966C11.4083 6.39221 11.4151 6.38317 11.42 6.37308C11.4249 6.36299 11.4278 6.35203 11.4284 6.34084C11.4284 6.34084 11.4284 6.31076 11.4284 6.30073L11.5788 6.2506L11.8043 7.28305L12.0148 7.85442L11.9095 7.258L11.5838 6.25561L11.7391 6.22053C11.7426 6.24093 11.7529 6.25955 11.7684 6.27323C11.784 6.28692 11.8037 6.29485 11.8244 6.29572C11.8362 6.29572 11.8479 6.2934 11.8589 6.28886C11.8698 6.28433 11.8797 6.27766 11.8881 6.26929C11.8965 6.26091 11.9032 6.25096 11.9077 6.24001C11.9122 6.22907 11.9145 6.21735 11.9145 6.20551V6.20551C11.9662 6.20054 12.0183 6.20054 12.0699 6.20551" fill="#16007E"/>
<path d="M12.099 7.78452C12.1614 7.78452 12.2225 7.80305 12.2744 7.83774C12.3263 7.87244 12.3668 7.92174 12.3907 7.97944C12.4146 8.03713 12.4208 8.10063 12.4087 8.16188C12.3965 8.22313 12.3664 8.27939 12.3223 8.32355C12.2781 8.36771 12.2218 8.39778 12.1606 8.40997C12.0993 8.42215 12.0358 8.41591 11.9781 8.39201C11.9204 8.36811 11.8711 8.32763 11.8364 8.2757C11.8017 8.22378 11.7832 8.16272 11.7832 8.10027C11.7832 8.0588 11.7914 8.01775 11.8072 7.97944C11.8231 7.94113 11.8464 7.90634 11.8757 7.87702C11.905 7.8477 11.9398 7.82443 11.9781 7.80856C12.0164 7.79269 12.0575 7.78452 12.099 7.78452" fill="white"/>
<path d="M12.101 7.85937C12.1328 7.85868 12.1644 7.86444 12.1939 7.87628C12.2234 7.88813 12.2502 7.90584 12.2727 7.92832C12.2952 7.9508 12.3129 7.97759 12.3247 8.00709C12.3366 8.03659 12.3423 8.06815 12.3416 8.09993C12.3423 8.13194 12.3366 8.16377 12.3248 8.19354C12.313 8.22331 12.2954 8.25044 12.273 8.27332C12.2506 8.29619 12.2238 8.31436 12.1943 8.32676C12.1648 8.33916 12.1331 8.34555 12.101 8.34554C12.0359 8.34554 11.9735 8.31965 11.9274 8.27359C11.8814 8.22754 11.8555 8.16506 11.8555 8.09993C11.8555 8.06791 11.8618 8.03624 11.8743 8.00672C11.8867 7.9772 11.9049 7.95045 11.9277 7.92804C11.9506 7.90564 11.9777 7.88801 12.0074 7.87622C12.0372 7.86443 12.069 7.8587 12.101 7.85937" fill="#16007E"/>
</g>
<defs>
<clipPath id="clip0_1040_173716">
<rect width="24" height="15" fill="white" transform="translate(0 0.5)"/>
</clipPath>
</defs>
</svg>
