<svg width="90" height="90" viewBox="0 0 90 90" fill="none" xmlns="http://www.w3.org/2000/svg">
<g clip-path="url(#clip0_1261_193066)">
<path d="M26.53 18.9399H59.64V22.8599H63.09V61.0298C63.09 61.0298 62.58 70.7998 56.09 70.7998H29.36V66.8599L26.53 66.5198V18.9399Z" fill="white"/>
<path d="M59.64 22.5H63.09V61.1101C63.09 66.2901 59.59 70.49 55.27 70.49H29.36V66.3401" stroke="#333333" stroke-width="1.06" stroke-linecap="round" stroke-linejoin="round"/>
<path d="M51.07 18.5298H26.53V66.3398H52.53C53.161 66.2789 53.7425 65.972 54.1487 65.4854C54.5548 64.9987 54.7529 64.3714 54.7 63.7397V60.48H57.42C58.0517 60.419 58.6342 60.1123 59.042 59.626C59.4498 59.1397 59.6502 58.5126 59.6 57.8799V18.5298H51.03" stroke="#333333" stroke-width="1.06" stroke-linecap="round" stroke-linejoin="round"/>
<path d="M53.06 33.9302C51.2897 34.1666 49.4898 34.0393 47.7703 33.5562C46.0509 33.073 44.4481 32.244 43.06 31.1201C41.6723 32.2445 40.0695 33.0737 38.35 33.5569C36.6304 34.0401 34.8304 34.1671 33.06 33.9302C33.06 33.9302 31.13 50.24 43.06 53.75C54.98 50.24 53.06 33.9302 53.06 33.9302Z" fill="#235AB0" stroke="#333333" stroke-miterlimit="10"/>
<path d="M40.65 47.82L37.72 41.69L39.53 40.83L41.22 44.38L47.64 37.79L49.08 39.19L40.65 47.82Z" fill="white"/>
</g>
<defs>
<clipPath id="clip0_1261_193066">
<rect width="37.62" height="53.02" fill="white" transform="translate(26 18)"/>
</clipPath>
</defs>
</svg>
