<svg width="44" height="44" viewBox="0 0 44 44" fill="none" xmlns="http://www.w3.org/2000/svg">
<g clip-path="url(#clip0_891_226320)">
<path d="M22.23 11.54C19.46 11.54 17.38 7.47985 17.38 4.84985C17.3826 3.56437 17.8945 2.33232 18.8034 1.42334C19.7124 0.514361 20.9445 0.00264233 22.23 0C23.5172 -2.72489e-06 24.7519 0.510657 25.663 1.41992C26.5741 2.32919 27.0873 3.56263 27.09 4.84985C27.09 7.47985 25 11.54 22.23 11.54ZM22.23 1.18994C21.2601 1.19258 20.3307 1.57908 19.6449 2.26489C18.9591 2.9507 18.5726 3.87997 18.57 4.84985C18.57 6.91985 20.28 10.3398 22.23 10.3398C24.18 10.3398 25.89 6.91985 25.89 4.84985C25.8873 3.87997 25.5009 2.9507 24.8151 2.26489C24.1293 1.57908 23.1999 1.19258 22.23 1.18994Z" fill="#333333"/>
<path d="M30.99 18.8687H13.18C13.1012 18.8687 13.0232 18.8532 12.9504 18.8231C12.8776 18.7929 12.8115 18.7487 12.7558 18.693C12.7001 18.6372 12.6559 18.5712 12.6257 18.4984C12.5956 18.4256 12.58 18.3477 12.58 18.2689V14.3387C12.5796 14.2072 12.6225 14.0793 12.702 13.9745C12.7815 13.8697 12.8932 13.794 13.02 13.7589L20.02 11.8487V10.3087C20.0187 10.2308 20.033 10.1536 20.0622 10.0814C20.0913 10.0092 20.1348 9.94358 20.1898 9.88852C20.2449 9.83346 20.3105 9.79 20.3827 9.76083C20.4549 9.73166 20.5322 9.71748 20.61 9.71884C20.6883 9.71751 20.7661 9.73178 20.8389 9.76083C20.9116 9.78989 20.9778 9.83311 21.0337 9.88803C21.0895 9.94295 21.1339 10.0084 21.1642 10.0807C21.1945 10.1529 21.21 10.2304 21.21 10.3087V12.3087C21.2088 12.4398 21.1653 12.5672 21.086 12.6717C21.0068 12.7762 20.896 12.8522 20.77 12.8888L13.77 14.7989V17.6888H30.38V14.7689L23.67 12.7689C23.5475 12.7344 23.4395 12.6611 23.362 12.5601C23.2845 12.4592 23.2417 12.3361 23.24 12.2088V10.3287C23.2387 10.2504 23.253 10.1727 23.282 10.0999C23.3111 10.0272 23.3544 9.96097 23.4093 9.90512C23.4642 9.84927 23.5297 9.80502 23.6019 9.77475C23.6741 9.74447 23.7517 9.72884 23.83 9.72885C23.9892 9.72885 24.1418 9.79211 24.2543 9.90463C24.3668 10.0172 24.43 10.1696 24.43 10.3287V11.7489L31.15 13.7489C31.2731 13.7876 31.3804 13.8649 31.4561 13.9693C31.5317 14.0738 31.5717 14.1997 31.57 14.3287V18.3287C31.5576 18.4746 31.4914 18.611 31.3842 18.7108C31.277 18.8106 31.1365 18.8668 30.99 18.8687Z" fill="#333333"/>
<path d="M34.03 35.8486C31.26 35.8486 29.18 31.7887 29.18 29.1587C29.18 27.8724 29.691 26.6388 30.6005 25.7292C31.5101 24.8197 32.7437 24.3086 34.03 24.3086C34.6669 24.3086 35.2976 24.4342 35.886 24.678C36.4744 24.9217 37.0091 25.2789 37.4595 25.7292C37.9098 26.1796 38.2671 26.7143 38.5108 27.3027C38.7545 27.8912 38.88 28.5218 38.88 29.1587C38.84 31.7887 36.84 35.8486 34.03 35.8486ZM34.03 25.4988C33.0601 25.5014 32.1307 25.8879 31.4449 26.5737C30.7591 27.2595 30.3726 28.1888 30.37 29.1587C30.37 31.2287 32.08 34.6487 34.03 34.6487C35.98 34.6487 37.69 31.2287 37.69 29.1587C37.6874 28.1888 37.3009 27.2595 36.6151 26.5737C35.9293 25.8879 34.9999 25.5014 34.03 25.4988Z" fill="#333333"/>
<path d="M42.84 43.1812H25.03C24.8709 43.1812 24.7183 43.118 24.6057 43.0055C24.4932 42.8929 24.43 42.7403 24.43 42.5811V38.6512C24.4296 38.5197 24.4725 38.3917 24.552 38.287C24.6315 38.1822 24.7432 38.1062 24.87 38.0711L31.87 36.1612V34.6212C31.87 34.5429 31.8856 34.4654 31.9158 34.3932C31.9461 34.3209 31.9905 34.2554 32.0463 34.2005C32.1022 34.1456 32.1684 34.1024 32.2412 34.0733C32.3139 34.0443 32.3917 34.03 32.47 34.0313C32.5483 34.03 32.6261 34.0443 32.6989 34.0733C32.7716 34.1024 32.8378 34.1456 32.8937 34.2005C32.9495 34.2554 32.9939 34.3209 33.0241 34.3932C33.0544 34.4654 33.07 34.5429 33.07 34.6212V36.6212C33.071 36.7514 33.0296 36.8786 32.952 36.9832C32.8744 37.0879 32.7649 37.1644 32.64 37.2013L25.64 39.1112V42.0013H42.25V39.0811L35.54 37.0811C35.4175 37.0466 35.3095 36.9736 35.232 36.8726C35.1545 36.7717 35.1117 36.6486 35.11 36.5213V34.6412C35.1087 34.5629 35.123 34.4852 35.152 34.4124C35.1811 34.3397 35.2243 34.2735 35.2792 34.2176C35.3342 34.1618 35.3997 34.1173 35.4719 34.087C35.5441 34.0567 35.6217 34.0413 35.7 34.0413C35.8591 34.0413 36.0117 34.1044 36.1243 34.2169C36.2368 34.3294 36.3 34.4821 36.3 34.6412V36.0611L43.01 38.0611C43.1349 38.098 43.2444 38.1747 43.322 38.2794C43.3996 38.384 43.441 38.5109 43.44 38.6412V42.6412C43.4251 42.7897 43.3553 42.9273 43.2444 43.0272C43.1334 43.127 42.9893 43.182 42.84 43.1812Z" fill="#333333"/>
<path d="M9.65002 35.8486C6.88002 35.8486 4.79004 31.7887 4.79004 29.1587C4.79269 27.8715 5.30587 26.6378 6.21701 25.7285C7.12815 24.8193 8.3628 24.3086 9.65002 24.3086C10.9355 24.3112 12.1676 24.8232 13.0766 25.7322C13.9855 26.6412 14.4974 27.8732 14.5 29.1587C14.5 31.7887 12.42 35.8486 9.65002 35.8486ZM9.65002 25.4988C8.68014 25.5014 7.75075 25.8879 7.06494 26.5737C6.37913 27.2595 5.99266 28.1888 5.99002 29.1587C5.99002 31.2287 7.70002 34.6487 9.65002 34.6487C11.6 34.6487 13.31 31.2287 13.31 29.1587C13.3074 28.1888 12.9209 27.2595 12.2351 26.5737C11.5493 25.8879 10.6199 25.5014 9.65002 25.4988Z" fill="#333333"/>
<path d="M18.4 43.1812H0.600009C0.440879 43.1812 0.288245 43.118 0.175723 43.0055C0.0632009 42.8929 2.48454e-06 42.7403 2.48454e-06 42.5811V38.6512C-0.00037592 38.5197 0.0424796 38.3918 0.121981 38.287C0.201483 38.1822 0.313227 38.1062 0.440005 38.0711L7.44 36.1612V34.6212C7.43999 34.5429 7.45557 34.4654 7.48584 34.3932C7.51612 34.3209 7.56049 34.2554 7.61634 34.2005C7.67219 34.1456 7.73839 34.1024 7.81113 34.0733C7.88387 34.0443 7.96169 34.03 8.04001 34.0313C8.11786 34.03 8.19517 34.0442 8.26737 34.0733C8.33956 34.1025 8.40515 34.146 8.46021 34.201C8.51527 34.2561 8.55866 34.3217 8.58783 34.3939C8.617 34.4661 8.63136 34.5433 8.63001 34.6212V36.6212C8.63039 36.7527 8.58753 36.8809 8.50803 36.9857C8.42853 37.0905 8.31678 37.1662 8.19001 37.2013L1.19 39.1112V42.0013H17.84V39.0811L11.12 37.0811C10.9985 37.0463 10.8918 36.9728 10.816 36.8717C10.7402 36.7706 10.6994 36.6477 10.7 36.5213V34.6412C10.7 34.4838 10.7618 34.3328 10.8722 34.2205C10.9826 34.1083 11.1326 34.044 11.29 34.0413C11.4493 34.0438 11.6015 34.1074 11.7151 34.2191C11.8287 34.3308 11.8949 34.482 11.9 34.6412V36.0611L18.61 38.0611C18.7341 38.0994 18.8427 38.1765 18.92 38.2809C18.9974 38.3852 19.0394 38.5113 19.04 38.6412V42.6412C19.0248 42.7969 18.9493 42.9405 18.8298 43.0413C18.7102 43.1422 18.556 43.1924 18.4 43.1812Z" fill="#333333"/>
<path d="M16.53 29.9306C16.4284 29.9301 16.3285 29.9043 16.2395 29.8554C16.1504 29.8065 16.0749 29.736 16.02 29.6505C15.9377 29.5163 15.9115 29.355 15.9471 29.2016C15.9826 29.0481 16.077 28.9149 16.21 28.8305L21.77 25.3305C21.9042 25.2482 22.0655 25.2222 22.2189 25.2577C22.3723 25.2933 22.5056 25.3877 22.59 25.5206C22.632 25.5868 22.6605 25.6605 22.6737 25.7377C22.6869 25.8149 22.6846 25.894 22.6669 25.9704C22.6493 26.0467 22.6165 26.1187 22.5707 26.1823C22.5249 26.2458 22.4668 26.2996 22.4 26.3405L16.85 29.8405C16.7535 29.899 16.6429 29.9302 16.53 29.9306Z" fill="#333333"/>
<path d="M27.78 30.08C27.6671 30.0797 27.5565 30.0487 27.46 29.9902L21.76 26.33C21.6307 26.2423 21.54 26.1085 21.5065 25.956C21.473 25.8034 21.4993 25.6439 21.58 25.5102C21.6226 25.4438 21.6779 25.3864 21.7427 25.3415C21.8075 25.2965 21.8806 25.2647 21.9577 25.248C22.0348 25.2312 22.1144 25.23 22.192 25.2441C22.2696 25.2581 22.3437 25.2872 22.41 25.33L28.11 28.9902C28.176 29.0318 28.2331 29.0861 28.278 29.1501C28.3228 29.214 28.3546 29.2862 28.3713 29.3625C28.3881 29.4387 28.3895 29.5176 28.3755 29.5944C28.3616 29.6712 28.3325 29.7445 28.29 29.81C28.2345 29.8942 28.1587 29.9632 28.0696 30.0104C27.9804 30.0576 27.8808 30.0815 27.78 30.08Z" fill="#333333"/>
<path d="M22.08 26.4309C21.9226 26.4283 21.7725 26.3639 21.6622 26.2517C21.5518 26.1395 21.49 25.9882 21.49 25.8308V20.5608C21.49 20.4034 21.5518 20.2524 21.6622 20.1401C21.7725 20.0279 21.9226 19.9636 22.08 19.9609C22.1588 19.9609 22.2368 19.9764 22.3096 20.0066C22.3824 20.0367 22.4486 20.081 22.5043 20.1367C22.56 20.1924 22.6042 20.2585 22.6343 20.3313C22.6645 20.4041 22.68 20.482 22.68 20.5608V25.8308C22.68 25.9096 22.6645 25.9878 22.6343 26.0605C22.6042 26.1333 22.56 26.1994 22.5043 26.2551C22.4486 26.3108 22.3824 26.3551 22.3096 26.3853C22.2368 26.4154 22.1588 26.4309 22.08 26.4309Z" fill="#333333"/>
</g>
<defs>
<clipPath id="clip0_891_226320">
<rect width="43.38" height="43.18" fill="white"/>
</clipPath>
</defs>
</svg>
