<svg width="48" height="48" viewBox="0 0 48 48" fill="none" xmlns="http://www.w3.org/2000/svg">
<circle cx="24" cy="24" r="24" fill="#5D7294"/>
<path d="M17.6862 12.3203V32.8181C17.6862 32.8181 17.3279 36.1453 15.207 36.1453" stroke="white" stroke-width="1.4" stroke-linecap="round" stroke-linejoin="round"/>
<path d="M32.175 12.3203C32.1208 13.1946 31.4125 13.8907 30.5375 13.8907C29.6625 13.8907 28.9583 13.1946 28.9 12.3203H27.3708C27.3167 13.1946 26.6083 13.8907 25.7333 13.8907C24.8583 13.8907 24.1542 13.1946 24.0958 12.3203H22.5667C22.5125 13.1946 21.8042 13.8907 20.9292 13.8907C20.0542 13.8907 19.35 13.1946 19.2917 12.3203H17.7792L17.6875 28.9605H13V32.8181C13 35.097 14.95 36.6839 17.3292 36.6839H29.6708C32.0542 36.6839 34 35.097 34 32.8181V12.3203H32.175Z" stroke="white" stroke-width="1.4" stroke-linecap="round" stroke-linejoin="round"/>
<path d="M21.2109 18.7094H30.8734" stroke="white" stroke-width="1.4" stroke-linecap="round" stroke-linejoin="round"/>
<path d="M21.2109 22.082H30.8734" stroke="white" stroke-width="1.4" stroke-linecap="round" stroke-linejoin="round"/>
<path d="M21.2109 25.4602H30.8734" stroke="white" stroke-width="1.4" stroke-linecap="round" stroke-linejoin="round"/>
<path d="M21.2109 28.8356H25.7401" stroke="white" stroke-width="1.4" stroke-linecap="round" stroke-linejoin="round"/>
</svg>
