<svg width="100" height="100" viewBox="0 0 100 100" fill="none" xmlns="http://www.w3.org/2000/svg">
<circle cx="50" cy="50" r="50" fill="#F2F6FB"/>
<g clip-path="url(#clip0_1075_171952)">
<path d="M59.9409 31.2422H33.5742V68.9722H59.9409V31.2422Z" fill="white"/>
<path d="M57.3031 60.1996L55.2031 57.3529L65.6681 47.1562L68.0131 49.3496L57.3031 60.1996Z" fill="#235AB0"/>
<path d="M68.2693 44.3789L66.916 45.6972L69.1794 48.0772L70.7427 46.6306L68.2693 44.3789Z" fill="#235AB0"/>
<path d="M54.2348 61.3283C54.1646 61.3287 54.0951 61.3145 54.0308 61.2864C53.9665 61.2583 53.9088 61.2169 53.8615 61.1651C53.7974 61.105 53.7498 61.0295 53.7232 60.9457C53.6967 60.862 53.6921 60.7726 53.7098 60.6865L54.3048 57.6183C54.3244 57.5146 54.3777 57.4203 54.4565 57.35L65.2482 46.5467C65.2991 46.4972 65.3594 46.4582 65.4255 46.4322C65.4915 46.4062 65.5621 46.3934 65.6332 46.3949C65.7026 46.3922 65.7718 46.4046 65.8361 46.4308C65.9005 46.4569 65.9586 46.4964 66.0065 46.5467L68.4798 49.0199C68.5803 49.1205 68.6367 49.2571 68.6367 49.3993C68.6367 49.5415 68.5803 49.6778 68.4798 49.7784L57.6765 60.5701C57.6062 60.6488 57.5119 60.702 57.4082 60.7216L54.3398 61.3166L54.2348 61.3283ZM55.3198 57.9567L54.9115 60.0801L57.0348 59.6717L67.3482 49.3583L65.6332 47.6433L55.3198 57.9567Z" fill="#333333"/>
<path d="M69.3433 48.6941C69.2006 48.6934 69.0632 48.6391 68.9583 48.5423L66.485 46.0691C66.3845 45.9685 66.3281 45.8319 66.3281 45.6897C66.3281 45.5475 66.3845 45.4112 66.485 45.3106L67.955 43.8523C68.0556 43.7518 68.192 43.6953 68.3342 43.6953C68.4763 43.6953 68.6127 43.7518 68.7133 43.8523L71.175 46.314C71.2754 46.4147 71.3319 46.551 71.3319 46.6932C71.3319 46.8353 71.2754 46.9716 71.175 47.0723L69.7167 48.5423C69.6153 48.6374 69.4823 48.6916 69.3433 48.6941ZM67.6517 45.6606L69.3667 47.3639L70.0667 46.6641L68.3517 44.9489L67.6517 45.6606Z" fill="#333333"/>
<path d="M62.4013 53.1523C62.3321 53.1529 62.2636 53.1399 62.1995 53.1139C62.1354 53.0879 62.0771 53.0494 62.028 53.0008C61.9275 52.9002 61.8711 52.7639 61.8711 52.6217C61.8711 52.4795 61.9275 52.3429 62.028 52.2423L66.4846 47.7858C66.5852 47.6854 66.7216 47.6289 66.8638 47.6289C67.006 47.6289 67.1423 47.6854 67.243 47.7858C67.3434 47.8865 67.3998 48.0228 67.3998 48.165C67.3998 48.3071 67.3434 48.4434 67.243 48.5441L62.7863 53.0008C62.7354 53.0503 62.6751 53.0893 62.609 53.1153C62.5429 53.1414 62.4723 53.1538 62.4013 53.1523Z" fill="#333333"/>
<path d="M57.3024 60.7355C57.2322 60.7359 57.1627 60.7217 57.0984 60.6936C57.0341 60.6655 56.9764 60.6241 56.929 60.5723L54.4557 58.1105C54.3553 58.0099 54.2988 57.8735 54.2988 57.7314C54.2988 57.5892 54.3553 57.4529 54.4557 57.3523C54.5563 57.2518 54.6927 57.1953 54.8349 57.1953C54.977 57.1953 55.1134 57.2518 55.214 57.3523L57.6757 59.8254C57.7251 59.8743 57.7643 59.9325 57.791 59.9966C57.8178 60.0607 57.8316 60.1294 57.8316 60.1989C57.8316 60.2683 57.8178 60.337 57.791 60.4011C57.7643 60.4652 57.7251 60.5234 57.6757 60.5723C57.6275 60.623 57.5696 60.6636 57.5055 60.6916C57.4414 60.7197 57.3723 60.7345 57.3024 60.7355Z" fill="#333333"/>
<path d="M60.4651 70.0329H33.0368C32.9659 70.0345 32.8954 70.0217 32.8295 69.9953C32.7637 69.9689 32.7039 69.9295 32.6538 69.8794C32.6036 69.8292 32.5641 69.7694 32.5377 69.7036C32.5113 69.6378 32.4985 69.5672 32.5001 69.4963V30.7046C32.5001 30.5623 32.5567 30.4258 32.6573 30.3252C32.758 30.2246 32.8945 30.168 33.0368 30.168H60.4651C60.6065 30.1709 60.7413 30.2286 60.8413 30.3286C60.9413 30.4286 60.9988 30.5632 61.0018 30.7046V49.1613C60.9987 49.3016 60.9409 49.4352 60.8405 49.5333C60.7402 49.6315 60.6055 49.6863 60.4651 49.6863C60.3248 49.6863 60.19 49.6315 60.0897 49.5333C59.9894 49.4352 59.9315 49.3016 59.9285 49.1613V31.2996H33.5735V68.9947H59.9285V60.3848C59.9285 60.2425 59.985 60.1058 60.0857 60.0051C60.1863 59.9045 60.3228 59.8479 60.4651 59.8479C60.6075 59.8479 60.744 59.9045 60.8446 60.0051C60.9453 60.1058 61.0018 60.2425 61.0018 60.3848V69.5313C60.9929 69.6675 60.9324 69.7953 60.8328 69.8885C60.7331 69.9817 60.6016 70.0332 60.4651 70.0329Z" fill="#333333"/>
<path d="M41.9857 37.4953H37.1324C36.992 37.4953 36.8573 37.4405 36.757 37.3423C36.6566 37.2442 36.5988 37.1106 36.5957 36.9703C36.5957 36.828 36.6522 36.6913 36.7529 36.5907C36.8535 36.49 36.99 36.4337 37.1324 36.4337H41.9857C42.0566 36.4321 42.1271 36.4449 42.1929 36.4713C42.2588 36.4977 42.3186 36.5371 42.3687 36.5873C42.4189 36.6374 42.4584 36.6972 42.4848 36.763C42.5112 36.8288 42.524 36.8994 42.5224 36.9703C42.5224 37.0403 42.5084 37.1095 42.4813 37.174C42.4542 37.2385 42.4145 37.2968 42.3645 37.3458C42.3145 37.3947 42.2552 37.4331 42.1902 37.4588C42.1251 37.4845 42.0556 37.4968 41.9857 37.4953Z" fill="#333333"/>
<path d="M56.2072 47.167H37.0855C36.9441 47.164 36.8093 47.1064 36.7093 47.0063C36.6093 46.9063 36.5518 46.7718 36.5488 46.6304C36.5488 46.488 36.6054 46.3513 36.706 46.2507C36.8067 46.15 36.9432 46.0938 37.0855 46.0938H56.2072C56.3495 46.0938 56.486 46.15 56.5866 46.2507C56.6873 46.3513 56.7438 46.488 56.7438 46.6304C56.7409 46.7718 56.6834 46.9063 56.5833 47.0063C56.4833 47.1064 56.3486 47.164 56.2072 47.167Z" fill="#333333"/>
<path d="M56.2072 51.9717H37.0855C36.9432 51.9717 36.8067 51.9154 36.706 51.8147C36.6054 51.7141 36.5488 51.5774 36.5488 51.4351C36.5518 51.2937 36.6093 51.1588 36.7093 51.0588C36.8093 50.9588 36.9441 50.9014 37.0855 50.8984H56.2072C56.3486 50.9014 56.4833 50.9588 56.5833 51.0588C56.6834 51.1588 56.7409 51.2937 56.7438 51.4351C56.7438 51.5774 56.6873 51.7141 56.5866 51.8147C56.486 51.9154 56.3495 51.9717 56.2072 51.9717Z" fill="#333333"/>
<path d="M53.2555 56.792H37.0855C36.9441 56.789 36.8093 56.7314 36.7093 56.6313C36.6093 56.5313 36.5518 56.3968 36.5488 56.2554C36.5518 56.114 36.6093 55.9791 36.7093 55.8791C36.8093 55.7791 36.9441 55.7217 37.0855 55.7188H53.2555C53.3978 55.7188 53.5343 55.775 53.635 55.8757C53.7356 55.9763 53.7922 56.113 53.7922 56.2554C53.7922 56.3977 53.7356 56.5341 53.635 56.6348C53.5343 56.7354 53.3978 56.792 53.2555 56.792Z" fill="#333333"/>
<path d="M56.4158 63.7453H52.0641C51.9218 63.7453 51.7853 63.6887 51.6847 63.588C51.584 63.4874 51.5275 63.351 51.5275 63.2086C51.5259 63.1377 51.5387 63.0671 51.5651 63.0013C51.5915 62.9354 51.631 62.8757 51.6811 62.8255C51.7313 62.7754 51.7911 62.736 51.8569 62.7096C51.9227 62.6832 51.9932 62.6704 52.0641 62.672H56.4158C56.4857 62.672 56.555 62.6859 56.6194 62.713C56.6839 62.7401 56.7423 62.7798 56.7912 62.8298C56.8401 62.8798 56.8786 62.9391 56.9042 63.0041C56.9299 63.0692 56.9424 63.1387 56.9408 63.2086C56.9408 63.349 56.8859 63.4837 56.7878 63.584C56.6896 63.6844 56.5561 63.7422 56.4158 63.7453Z" fill="#333333"/>
</g>
<defs>
<clipPath id="clip0_1075_171952">
<rect width="38.8383" height="39.865" fill="white" transform="translate(32.5 30.168)"/>
</clipPath>
</defs>
</svg>
