<svg width="100" height="100" viewBox="0 0 100 100" fill="none" xmlns="http://www.w3.org/2000/svg">
<circle cx="50" cy="50" r="50" fill="#F2F6FB"/>
<g clip-path="url(#clip0_1867_378063)">
<path d="M46.2596 54.3502L47.6096 56.4902L47.9796 60.2302L46.6096 65.1502L42.4896 69.3902L36.9496 70.6802L31.5896 69.2002L28.0796 65.2802L26.3496 60.2302L27.9496 54.2602L32.8896 49.7502L38.6796 48.9902L42.7096 50.6102L46.2596 54.3502Z" fill="white"/>
<path d="M41.0004 60.0801L40.3904 63.3902C40.3682 63.4683 40.3415 63.5451 40.3104 63.6202C40.2721 63.6978 40.2214 63.7687 40.1604 63.8301C40.0832 63.9027 39.991 63.9574 39.8904 63.9903C39.7548 64.0341 39.6128 64.0542 39.4704 64.0501C39.327 64.0572 39.1837 64.0335 39.0504 63.9803C38.9562 63.9447 38.8683 63.8939 38.7904 63.8301C38.7293 63.7687 38.6787 63.6978 38.6404 63.6202C38.6093 63.5451 38.5825 63.4683 38.5604 63.3902L37.8504 60.0801H36.6404L35.9504 63.3902C35.9282 63.4683 35.9015 63.5451 35.8704 63.6202C35.8321 63.6978 35.7814 63.7687 35.7204 63.8301C35.6424 63.8939 35.5546 63.9447 35.4604 63.9803C35.327 64.0335 35.1838 64.0572 35.0404 64.0501C34.8947 64.0549 34.7492 64.0348 34.6104 63.9903C34.5127 63.9573 34.4238 63.9025 34.3504 63.8301C34.2893 63.7687 34.2387 63.6978 34.2004 63.6202L34.1104 63.3902L33.5004 60.0801H32.5004C32.412 60.0806 32.3266 60.0487 32.2604 59.9903C32.2273 59.9599 32.2013 59.9226 32.184 59.8811C32.1667 59.8397 32.1587 59.7949 32.1604 59.75C32.1591 59.7038 32.1674 59.6578 32.1846 59.6148C32.2018 59.5718 32.2276 59.5327 32.2604 59.5C32.3266 59.4416 32.412 59.4097 32.5004 59.4102H33.3504L32.7104 55.8602C32.6504 55.6802 32.6504 55.5403 32.7104 55.4703C32.77 55.405 32.8459 55.3565 32.9304 55.3301C33.0349 55.3001 33.1458 55.3001 33.2504 55.3301C33.2991 55.3558 33.3421 55.3914 33.3765 55.4344C33.4109 55.4774 33.436 55.5269 33.4504 55.5801L34.1204 59.4102H35.9904L36.8004 55.5801C36.8318 55.4903 36.8914 55.4132 36.9704 55.3602C37.0482 55.3335 37.1326 55.3335 37.2104 55.3602C37.2884 55.3349 37.3724 55.3349 37.4504 55.3602C37.5266 55.4137 37.5829 55.4911 37.6104 55.5801L38.4304 59.4102H40.3104L40.9904 55.5801C41.0047 55.5269 41.0299 55.4774 41.0643 55.4344C41.0987 55.3914 41.1416 55.3558 41.1904 55.3301C41.2949 55.3001 41.4058 55.3001 41.5104 55.3301C41.5948 55.3565 41.6707 55.405 41.7304 55.4703C41.8104 55.5403 41.8104 55.6802 41.7304 55.8602L41.0704 59.4102H41.9504C42.0387 59.4097 42.1241 59.4416 42.1904 59.5C42.2232 59.5327 42.249 59.5718 42.2662 59.6148C42.2834 59.6578 42.2916 59.7038 42.2904 59.75C42.2921 59.7949 42.284 59.8397 42.2667 59.8811C42.2495 59.9226 42.2234 59.9599 42.1904 59.9903C42.1241 60.0487 42.0387 60.0806 41.9504 60.0801H41.0004ZM35.0004 63.3501C35.042 63.3674 35.0888 63.3674 35.1304 63.3501C35.1377 63.3172 35.1377 63.283 35.1304 63.25L35.7904 60.1202H34.2004L34.7504 63.25C34.7551 63.2801 34.7674 63.3086 34.7861 63.3326C34.8048 63.3566 34.8293 63.3755 34.8572 63.3875C34.8852 63.3995 34.9158 63.4042 34.946 63.4012C34.9763 63.3981 35.0053 63.3874 35.0304 63.3702L35.0004 63.3501ZM36.7304 59.4102H37.6804L37.2104 57.1802L36.7304 59.4102ZM39.4404 63.3501C39.4852 63.3562 39.5307 63.3451 39.5677 63.3191C39.6048 63.2932 39.6307 63.2544 39.6404 63.2102L40.1904 60.0801H38.6404L39.3204 63.2102C39.3358 63.2461 39.356 63.2796 39.3804 63.3101C39.403 63.3394 39.4346 63.3605 39.4704 63.3702L39.4404 63.3501Z" fill="#333333"/>
<path d="M39.4707 64.1996C39.311 64.2063 39.1515 64.1825 39.0007 64.1295C38.8866 64.0857 38.7815 64.0213 38.6907 63.9396C38.6137 63.8637 38.5495 63.7759 38.5007 63.6796C38.4647 63.5985 38.4346 63.515 38.4107 63.4296L37.7307 60.2296H36.7307L36.0707 63.4196C36.0707 63.5196 36.0107 63.5996 35.9807 63.6796C35.9318 63.7759 35.8676 63.8637 35.7907 63.9396C35.6998 64.0213 35.5947 64.0857 35.4807 64.1295C35.3299 64.1825 35.1704 64.2063 35.0107 64.1996C34.8477 64.2061 34.685 64.1823 34.5307 64.1295C34.4102 64.0929 34.3005 64.0278 34.2107 63.9396C34.1331 63.8665 34.0718 63.7779 34.0307 63.6796C33.9903 63.6003 33.9601 63.5163 33.9407 63.4296L33.3407 60.2296H32.4907C32.3667 60.2314 32.2461 60.1888 32.1507 60.1095C32.1003 60.0646 32.0606 60.009 32.0346 59.9467C32.0087 59.8843 31.9971 59.8168 32.0007 59.7494C31.997 59.6805 32.0085 59.6117 32.0344 59.5477C32.0603 59.4838 32.1 59.4264 32.1507 59.3795C32.2461 59.3003 32.3667 59.2576 32.4907 59.2594H33.1607L32.5507 55.8895C32.5084 55.8048 32.4916 55.7097 32.5022 55.6156C32.5129 55.5215 32.5505 55.4326 32.6107 55.3595C32.6906 55.271 32.795 55.2084 32.9107 55.1796C33.0409 55.1388 33.1804 55.1388 33.3107 55.1796C33.3821 55.2099 33.4454 55.2563 33.4958 55.3153C33.5461 55.3743 33.582 55.4441 33.6007 55.5194L34.2607 59.2494H35.8807L36.6607 55.5394C36.7012 55.4109 36.7818 55.2989 36.8907 55.2196C36.9928 55.158 37.1118 55.13 37.2307 55.1395C37.3393 55.1376 37.4465 55.1654 37.5407 55.2196C37.6504 55.2893 37.7319 55.3954 37.7707 55.5194L38.5707 59.2494H40.1907L40.8507 55.5494C40.8687 55.4702 40.904 55.3959 40.9541 55.3319C41.0043 55.2679 41.068 55.216 41.1407 55.1796C41.2777 55.139 41.4236 55.139 41.5607 55.1796C41.6723 55.2113 41.7728 55.2735 41.8507 55.3595C41.9125 55.4357 41.9511 55.5281 41.9617 55.6256C41.9724 55.7232 41.9547 55.8218 41.9107 55.9095L41.2907 59.2594H41.9807C42.105 59.2557 42.2262 59.2986 42.3207 59.3795C42.3713 59.4264 42.411 59.4838 42.4369 59.5477C42.4628 59.6117 42.4744 59.6805 42.4707 59.7494C42.4743 59.8168 42.4627 59.8843 42.4367 59.9467C42.4107 60.009 42.3711 60.0646 42.3207 60.1095C42.2262 60.1904 42.105 60.2333 41.9807 60.2296H41.1007L40.5307 63.4196C40.5307 63.5196 40.4607 63.5996 40.4307 63.6796C40.3871 63.7765 40.3261 63.8646 40.2507 63.9396C40.1571 64.0279 40.0441 64.093 39.9207 64.1295C39.7758 64.1786 39.6236 64.2023 39.4707 64.1996ZM36.4707 59.9296H37.9407L38.6807 63.3595C38.6981 63.4281 38.7215 63.495 38.7507 63.5595C38.7819 63.6159 38.8225 63.6667 38.8707 63.7096C38.9297 63.7686 39.0016 63.813 39.0807 63.8395C39.3189 63.9098 39.5724 63.9098 39.8107 63.8395C39.8866 63.8154 39.9577 63.7783 40.0207 63.7296C40.0673 63.6779 40.1075 63.6207 40.1407 63.5595C40.1716 63.4877 40.1983 63.4143 40.2207 63.3395L40.8407 59.9296H41.9707C42.0161 59.9448 42.0653 59.9448 42.1107 59.9296C42.1198 59.9091 42.1245 59.887 42.1245 59.8646C42.1245 59.8422 42.1198 59.8199 42.1107 59.7994C42.1107 59.7094 42.1107 59.6795 42.1107 59.6595C42.0653 59.6443 42.0161 59.6443 41.9707 59.6595H40.9407L41.6307 55.9296C41.6307 55.7696 41.6307 55.6996 41.6307 55.6796C41.6307 55.6596 41.5107 55.5795 41.4907 55.5795C41.4542 55.5643 41.4151 55.5565 41.3757 55.5565C41.3362 55.5565 41.2971 55.5643 41.2607 55.5795C41.2007 55.5795 41.1607 55.6796 41.1407 55.7296L40.4507 59.6595H38.3407L37.4907 55.7196C37.4778 55.6666 37.4457 55.6202 37.4007 55.5895C37.377 55.5793 37.3515 55.5741 37.3257 55.5741C37.2999 55.5741 37.2744 55.5793 37.2507 55.5895C37.221 55.5805 37.1897 55.5781 37.159 55.5826C37.1283 55.5872 37.099 55.5984 37.0731 55.6156C37.0473 55.6328 37.0256 55.6557 37.0096 55.6823C36.9937 55.7088 36.9838 55.7385 36.9807 55.7694L36.1507 59.6896H34.0207L33.3307 55.6896C33.3307 55.6896 33.2807 55.5795 33.2207 55.5595C33.1859 55.5446 33.1485 55.537 33.1107 55.537C33.0729 55.537 33.0354 55.5446 33.0007 55.5595C33.0007 55.5595 32.9207 55.5595 32.8507 55.6595C32.7807 55.7595 32.8507 55.7495 32.8507 55.8895L33.5407 59.6395H32.5407C32.4952 59.6243 32.4461 59.6243 32.4007 59.6395C32.4007 59.6395 32.4007 59.6894 32.4007 59.7794C32.3916 59.7999 32.3869 59.8222 32.3869 59.8446C32.3869 59.867 32.3916 59.8891 32.4007 59.9095C32.4461 59.9248 32.4952 59.9248 32.5407 59.9095H33.6407L34.2807 63.3395C34.2981 63.4081 34.3215 63.4749 34.3507 63.5394C34.3838 63.6006 34.4241 63.6579 34.4707 63.7096C34.5313 63.7563 34.5988 63.7932 34.6707 63.8195C34.9124 63.8895 35.169 63.8895 35.4107 63.8195C35.4873 63.7923 35.5584 63.7518 35.6207 63.6996C35.667 63.6513 35.7073 63.5974 35.7407 63.5394C35.7716 63.4677 35.7983 63.3943 35.8207 63.3195L36.4707 59.9296ZM39.4707 63.5094C39.4257 63.5118 39.3808 63.5043 39.3393 63.4869C39.2977 63.4696 39.2606 63.4432 39.2307 63.4095C39.1916 63.3694 39.161 63.3216 39.1407 63.2694L38.4107 59.9296H40.4107L39.8307 63.2396C39.8139 63.3208 39.768 63.3928 39.7017 63.4425C39.6354 63.4922 39.5533 63.516 39.4707 63.5094ZM39.4707 63.1796H39.5207L40.0507 60.1796H38.8007L39.4407 63.1295L39.4707 63.1796ZM35.0707 63.5094C34.9915 63.5121 34.9138 63.4878 34.8502 63.4406C34.7867 63.3933 34.741 63.3259 34.7207 63.2494L34.1407 59.9296H36.1407L35.4407 63.2494C35.4235 63.309 35.3927 63.3639 35.3507 63.4095C35.3134 63.4562 35.263 63.4906 35.2059 63.5084C35.1489 63.5262 35.0879 63.5265 35.0307 63.5094H35.0707ZM34.5007 60.2296L35.0207 63.2296H35.1007L35.7207 60.2994L34.5007 60.2296ZM37.9407 59.5595H36.6107L37.2807 56.4396L37.9407 59.5595ZM36.9907 59.2594H37.5607L37.2807 57.9196L36.9907 59.2594Z" fill="#333333"/>
<path d="M66.1503 32.71L66.2403 43.72L60.2703 43.19L57.8803 44.59L55.3403 48.75L52.1003 50.99L45.6003 54.62L41.4003 57.41L38.9403 56.18L38.8603 53.7L45.3203 47.96L46.1203 45.57L44.3003 44.62L40.2203 46.53L38.8603 49.37L34.6903 49.21L32.8203 50.2L33.6303 44.52L35.9703 38.88L39.0903 36.03L47.4303 34.17L55.8103 32.81L66.1503 32.71Z" fill="white"/>
<path d="M67.1102 28.7102L73.6302 28.4102L73.4002 47.3302H67.5002L66.2402 46.3102L66.4502 29.0602L67.1102 28.7102Z" fill="#235AB0"/>
<path d="M32.5109 50.6998H32.461C32.3219 50.6847 32.1945 50.6151 32.1065 50.5065C32.0185 50.3978 31.9769 50.2589 31.991 50.1197C31.991 49.7497 32.991 41.1797 36.601 37.3597C38.361 35.4897 41.941 34.8797 45.101 34.3597C46.041 34.1997 46.921 34.0497 47.681 33.8797L48.0509 33.7897C52.0834 32.748 56.2365 32.2469 60.401 32.2997H66.241C66.3815 32.2997 66.5163 32.3555 66.6157 32.4549C66.7151 32.5543 66.771 32.6891 66.771 32.8297C66.771 32.9703 66.7151 33.1051 66.6157 33.2044C66.5163 33.3038 66.3815 33.3597 66.241 33.3597H60.401C56.317 33.2991 52.2435 33.7901 48.2909 34.8197L47.9109 34.9098C47.1209 35.0898 46.2309 35.2398 45.2809 35.4098C42.2809 35.9198 38.8909 36.5097 37.3709 38.1197C34.0109 41.6697 33.0509 50.1796 33.0409 50.2596C33.0195 50.3841 32.9543 50.4968 32.8572 50.5775C32.76 50.6582 32.6372 50.7016 32.5109 50.6998Z" fill="#333333"/>
<path d="M66.2395 43.7204H60.7995C60.7196 43.7485 60.6341 43.7569 60.5502 43.7451C60.4663 43.7334 60.3865 43.7018 60.3174 43.6528C60.2482 43.6039 60.1919 43.5391 60.153 43.4639C60.114 43.3886 60.0938 43.3052 60.0938 43.2204C60.0938 43.1357 60.114 43.052 60.153 42.9768C60.1919 42.9016 60.2482 42.8368 60.3174 42.7878C60.3865 42.7389 60.4663 42.7073 60.5502 42.6955C60.6341 42.6838 60.7196 42.6924 60.7995 42.7204H66.2395C66.3194 42.6924 66.4049 42.6838 66.4888 42.6955C66.5727 42.7073 66.6526 42.7389 66.7217 42.7878C66.7908 42.8368 66.8472 42.9016 66.8861 42.9768C66.925 43.052 66.9453 43.1357 66.9453 43.2204C66.9453 43.3052 66.925 43.3886 66.8861 43.4639C66.8472 43.5391 66.7908 43.6039 66.7217 43.6528C66.6526 43.7018 66.5727 43.7334 66.4888 43.7451C66.4049 43.7569 66.3194 43.7485 66.2395 43.7204Z" fill="#333333"/>
<path d="M74.0802 47.7002H67.6402C67.1363 47.7002 66.653 47.4999 66.2967 47.1436C65.9404 46.7872 65.7402 46.304 65.7402 45.8V29.9001C65.7429 29.397 65.9439 28.9153 66.2996 28.5596C66.6554 28.2038 67.1371 28.0026 67.6402 28H74.1102L74.0802 47.7002ZM67.6402 29.0601C67.4174 29.0601 67.2038 29.1486 67.0463 29.3062C66.8887 29.4637 66.8002 29.6774 66.8002 29.9001V45.8C66.7989 45.9107 66.8197 46.0205 66.8615 46.123C66.9032 46.2256 66.965 46.3187 67.0433 46.397C67.1215 46.4752 67.2147 46.5371 67.3172 46.5789C67.4197 46.6206 67.5295 46.6415 67.6402 46.6401H73.0602V29.0601H67.6402Z" fill="#333333"/>
<path d="M37.2606 71.05C35.6697 71.0587 34.0951 70.7301 32.6404 70.0859C31.1857 69.4418 29.8841 68.4967 28.8212 67.313C27.7583 66.1292 26.9583 64.7336 26.474 63.2182C25.9896 61.7029 25.8319 60.1022 26.0112 58.5215C26.1905 56.9407 26.7027 55.4158 27.5141 54.0473C28.3255 52.6789 29.4177 51.4979 30.7186 50.5822C32.0196 49.6666 33.4999 49.0371 35.0618 48.7351C36.6238 48.4331 38.2321 48.4654 39.7806 48.8301C40.9225 49.1239 42.0217 49.5642 43.0506 50.1401C43.1117 50.1736 43.1656 50.2186 43.2092 50.2729C43.2528 50.3272 43.2853 50.3896 43.3048 50.4565C43.3244 50.5234 43.3305 50.5936 43.3229 50.6628C43.3153 50.7321 43.2941 50.799 43.2606 50.8601C43.1912 50.9815 43.0773 51.0714 42.943 51.1106C42.8087 51.1497 42.6644 51.1351 42.5406 51.07C41.5979 50.5371 40.5893 50.1304 39.5406 49.8601C37.4811 49.3873 35.3256 49.5665 33.3724 50.3728C31.4192 51.1791 29.765 52.5724 28.6387 54.3603C27.5125 56.1482 26.9699 58.2422 27.086 60.352C27.2022 62.4619 27.9714 64.4835 29.2871 66.1369C30.6029 67.7904 32.4001 68.9938 34.43 69.5808C36.4599 70.1678 38.6221 70.1091 40.6172 69.4131C42.6123 68.717 44.3417 67.418 45.566 65.6958C46.7903 63.9735 47.4489 61.9131 47.4506 59.8C47.4505 58.8189 47.3125 57.8428 47.0406 56.9001C46.8397 56.0345 46.4077 55.2395 45.7906 54.6001C45.7307 54.5641 45.6785 54.5166 45.637 54.4604C45.5955 54.4042 45.5655 54.3403 45.5487 54.2724C45.532 54.2046 45.5289 54.1342 45.5395 54.0652C45.5501 53.9961 45.5743 53.9298 45.6106 53.8701C45.6456 53.8105 45.6921 53.7584 45.7475 53.717C45.8028 53.6756 45.8658 53.6459 45.9328 53.6291C45.9999 53.6124 46.0696 53.6091 46.1379 53.6196C46.2062 53.6301 46.2717 53.6541 46.3306 53.6902C47.4006 54.3402 47.9906 56.3801 48.0506 56.6101C48.3597 57.6451 48.5147 58.7199 48.5106 59.8C48.5053 62.7821 47.3183 65.6406 45.2097 67.7492C43.1011 69.8579 40.2427 71.0447 37.2606 71.05Z" fill="#333333"/>
<path d="M40.849 57.7405C40.4761 57.7276 40.1108 57.6308 39.7802 57.4578C39.4496 57.2847 39.1621 57.0396 38.939 56.7405L38.869 56.6604C38.6355 56.3741 38.4621 56.0437 38.3591 55.689C38.2561 55.3342 38.2256 54.9622 38.2695 54.5954C38.3133 54.2287 38.4306 53.8747 38.6144 53.5542C38.7982 53.2337 39.0446 52.9536 39.339 52.7305L39.589 52.5403C41.7902 50.9756 43.7394 49.0839 45.369 46.9304C45.4693 46.7855 45.5295 46.6168 45.5435 46.4412C45.5576 46.2656 45.525 46.0894 45.449 45.9304C45.3646 45.7674 45.2368 45.6306 45.0799 45.5354C44.9229 45.4401 44.7427 45.39 44.559 45.3904C43.8551 45.3802 43.1578 45.5284 42.519 45.8245C41.8803 46.1205 41.3163 46.5566 40.869 47.1003L39.609 49.4905C39.5414 49.6111 39.43 49.701 39.2979 49.7419C39.1658 49.7829 39.023 49.7717 38.899 49.7104C38.8371 49.6778 38.7822 49.6333 38.7376 49.5793C38.6929 49.5254 38.6594 49.4632 38.639 49.3962C38.6185 49.3293 38.6115 49.2589 38.6184 49.1892C38.6253 49.1195 38.6459 49.0521 38.679 48.9905L40.029 46.4504C40.5886 45.7759 41.2947 45.2379 42.0935 44.8774C42.8924 44.517 43.763 44.3435 44.639 44.3704C45.0165 44.3641 45.388 44.4649 45.7106 44.6609C46.0332 44.8569 46.2938 45.1399 46.4622 45.4778C46.6306 45.8156 46.6999 46.1942 46.6622 46.5698C46.6245 46.9454 46.4812 47.3027 46.249 47.6003C44.557 49.8374 42.5338 51.8034 40.249 53.4304L39.999 53.6103C39.8169 53.7496 39.6646 53.924 39.5512 54.1233C39.4378 54.3226 39.3657 54.5425 39.339 54.7703C39.3108 54.9929 39.3291 55.2191 39.3928 55.4343C39.4565 55.6495 39.5642 55.8489 39.709 56.0203L39.779 56.1003C40.439 56.8603 41.009 57.0305 42.599 55.9805C43.259 55.5505 43.959 55.0403 44.599 54.5603C45.239 54.0803 46.069 53.5003 46.699 53.1003C47.9317 52.3326 49.2342 51.6831 50.5891 51.1604C52.0233 50.6611 53.3385 49.8703 54.452 48.8376C55.5655 47.805 56.4532 46.5529 57.0591 45.1604C57.3624 44.422 57.8796 43.7913 58.5443 43.3494C59.2091 42.9074 59.9908 42.6744 60.789 42.6804C60.869 42.6523 60.9544 42.6438 61.0383 42.6555C61.1222 42.6673 61.2021 42.6988 61.2712 42.7478C61.3403 42.7968 61.3967 42.8618 61.4356 42.937C61.4745 43.0122 61.4948 43.0957 61.4948 43.1804C61.4948 43.2651 61.4745 43.3486 61.4356 43.4238C61.3967 43.4991 61.3403 43.5638 61.2712 43.6128C61.2021 43.6618 61.1222 43.6936 61.0383 43.7053C60.9544 43.7171 60.869 43.7085 60.789 43.6804C60.2019 43.6828 59.6283 43.8576 59.1395 44.1829C58.6507 44.5081 58.268 44.9696 58.039 45.5102C57.3787 47.0312 56.4118 48.3996 55.1988 49.53C53.9858 50.6604 52.5527 51.5287 50.989 52.0803C49.6943 52.5762 48.4489 53.1923 47.269 53.9204C46.659 54.3104 45.959 54.8103 45.269 55.3503C44.579 55.8903 43.879 56.3503 43.199 56.7903C42.5259 57.3306 41.7086 57.6612 40.849 57.7405Z" fill="#333333"/>
</g>
<defs>
<clipPath id="clip0_1867_378063">
<rect width="48.08" height="43.05" fill="white" transform="translate(26 28)"/>
</clipPath>
</defs>
</svg>
