<svg width="100" height="100" viewBox="0 0 100 100" fill="none" xmlns="http://www.w3.org/2000/svg">
<circle cx="50" cy="50" r="50" fill="#F2F6FB"/>
<g clip-path="url(#clip0_1102_180984)">
<path d="M42.2285 69.9102L38.4984 66.7402L37.9584 65.8003C38.9924 64.6995 39.5588 63.2403 39.5385 61.7302C39.5385 58.7302 37.4384 56.2803 34.8484 56.2803C32.2584 56.2803 30.1584 58.7202 30.1584 61.7302C30.1372 63.2502 30.7115 64.7182 31.7585 65.8203L26.5284 70.1104L26.3984 74.1902H42.5085L42.2285 69.9102Z" fill="white"/>
<path d="M57.9706 70.0198L54.2506 66.8499L53.7106 65.9097C54.7401 64.806 55.3058 63.349 55.2906 61.8398C55.2906 58.8398 53.1906 56.3896 50.5906 56.3896C47.9906 56.3896 45.9006 58.8298 45.9006 61.8398C45.8799 63.3616 46.4581 64.8304 47.5106 65.9297L42.2706 70.2197L42.1406 74.2998H58.2606L57.9706 70.0198Z" fill="white"/>
<path d="M73.33 70.0198L69.6 66.8499L69.06 65.9097C70.0939 64.8089 70.6604 63.3499 70.64 61.8398C70.64 58.8398 68.54 56.3896 65.95 56.3896C63.36 56.3896 61.25 58.8298 61.25 61.8398C61.2336 63.3608 61.8112 64.828 62.86 65.9297L57.63 70.2197L57.5 74.2998H73.61L73.33 70.0198Z" fill="white"/>
<path d="M30.3984 28.1405L31.9984 25.6305L67.9184 25.4805L69.8984 27.4305V29.4105L69.9984 54.6305L30.3984 53.9505V28.1405Z" fill="white"/>
<path d="M53.1114 37.3604H48.1914V50.5404H53.1114V37.3604Z" fill="#235AB0"/>
<path d="M43.7895 40.3798C44.4909 40.3798 45.0595 39.8112 45.0595 39.1098C45.0595 38.4084 44.4909 37.8398 43.7895 37.8398C43.0881 37.8398 42.5195 38.4084 42.5195 39.1098C42.5195 39.8112 43.0881 40.3798 43.7895 40.3798Z" fill="#235AB0"/>
<path d="M50.6581 32.3397C51.2546 32.3397 51.7381 31.8562 51.7381 31.2597C51.7381 30.6632 51.2546 30.1797 50.6581 30.1797C50.0617 30.1797 49.5781 30.6632 49.5781 31.2597C49.5781 31.8562 50.0617 32.3397 50.6581 32.3397Z" fill="#235AB0"/>
<path d="M57.9803 37.0397C58.621 37.0397 59.1403 36.5204 59.1403 35.8797C59.1403 35.2391 58.621 34.7197 57.9803 34.7197C57.3397 34.7197 56.8203 35.2391 56.8203 35.8797C56.8203 36.5204 57.3397 37.0397 57.9803 37.0397Z" fill="#235AB0"/>
<path d="M42.5906 74.7998C42.521 74.7998 42.4521 74.7862 42.3878 74.7595C42.3235 74.7329 42.2651 74.6937 42.2159 74.6445C42.1666 74.5953 42.1276 74.537 42.101 74.4727C42.0743 74.4084 42.0606 74.3394 42.0606 74.2698V70.5298L37.4406 66.3499C37.3913 66.3006 37.3522 66.2421 37.3256 66.1777C37.2989 66.1134 37.2852 66.0445 37.2852 65.9749C37.2852 65.9052 37.2989 65.8361 37.3256 65.7717C37.3522 65.7074 37.3913 65.6491 37.4406 65.5999C37.5413 65.5027 37.6757 65.4482 37.8156 65.4482C37.9555 65.4482 38.0899 65.5027 38.1906 65.5999L42.9806 69.9397C43.0351 69.991 43.0784 70.053 43.1076 70.1218C43.1369 70.1907 43.1515 70.265 43.1506 70.3398V74.3398C43.1355 74.4743 43.0685 74.5975 42.964 74.6833C42.8594 74.7692 42.7255 74.8111 42.5906 74.7998Z" fill="#333333"/>
<path d="M34.8102 67.7998C31.9702 67.7998 29.6602 65.0898 29.6602 61.7998C29.6602 58.5098 31.9702 55.7998 34.8102 55.7998C37.6502 55.7998 39.9601 58.5098 39.9601 61.7998C39.9601 65.0898 37.6502 67.7998 34.8102 67.7998ZM34.8102 56.7998C32.5502 56.7998 30.7202 59.0298 30.7202 61.7998C30.7202 64.5698 32.5502 66.7998 34.8102 66.7998C37.0702 66.7998 38.9001 64.5698 38.9001 61.7998C38.9001 59.0298 37.0602 56.7798 34.8102 56.7798V56.7998Z" fill="#333333"/>
<path d="M58.2302 74.7998C58.1611 74.7998 58.0927 74.786 58.0289 74.7593C57.9651 74.7325 57.9074 74.6934 57.8589 74.644C57.8105 74.5947 57.7724 74.5362 57.7469 74.4719C57.7214 74.4077 57.7089 74.3389 57.7102 74.2698V70.5298L53.0802 66.3398C52.9837 66.2409 52.9297 66.108 52.9297 65.9697C52.9297 65.8315 52.9837 65.6988 53.0802 65.5999C53.1295 65.5506 53.1879 65.5113 53.2523 65.4846C53.3166 65.4579 53.3856 65.4443 53.4552 65.4443C53.5249 65.4443 53.5939 65.4579 53.6582 65.4846C53.7225 65.5113 53.781 65.5506 53.8302 65.5999L58.6302 69.9397C58.6847 69.991 58.728 70.053 58.7572 70.1218C58.7865 70.1907 58.8012 70.265 58.8002 70.3398V74.3398C58.7827 74.4751 58.7136 74.5984 58.6075 74.6841C58.5013 74.7698 58.3662 74.8112 58.2302 74.7998Z" fill="#333333"/>
<path d="M42.588 70.8296C42.5137 70.8304 42.4402 70.8146 42.3727 70.7834C42.3053 70.7523 42.2456 70.7065 42.1981 70.6494C42.1478 70.6018 42.1078 70.5446 42.0805 70.481C42.0531 70.4173 42.0391 70.3488 42.0391 70.2795C42.0391 70.2103 42.0531 70.1417 42.0805 70.0781C42.1078 70.0145 42.1478 69.9571 42.1981 69.9094L46.988 65.4795C47.0887 65.3823 47.2231 65.3281 47.363 65.3281C47.5029 65.3281 47.6374 65.3823 47.738 65.4795C47.787 65.5279 47.8259 65.5854 47.8525 65.6489C47.879 65.7124 47.8927 65.7808 47.8927 65.8496C47.8927 65.9184 47.879 65.9865 47.8525 66.05C47.8259 66.1136 47.787 66.1711 47.738 66.2195L42.938 70.6494C42.8482 70.7513 42.7232 70.8158 42.588 70.8296Z" fill="#333333"/>
<path d="M50.4586 67.7998C47.6186 67.7998 45.3086 65.0898 45.3086 61.7998C45.3086 58.5098 47.6186 55.7998 50.4586 55.7998C53.2986 55.7998 55.6086 58.5098 55.6086 61.7998C55.6086 65.0898 53.2986 67.7998 50.4586 67.7998ZM50.4586 56.7998C48.1986 56.7998 46.3686 59.0298 46.3686 61.7998C46.3686 64.5698 48.1986 66.7998 50.4586 66.7998C52.7186 66.7998 54.5486 64.5698 54.5486 61.7998C54.5486 59.0298 52.7086 56.7798 50.4586 56.7798V56.7998Z" fill="#333333"/>
<path d="M73.88 74.8003H26.53C26.4604 74.8003 26.3915 74.7866 26.3272 74.76C26.2629 74.7334 26.2045 74.6942 26.1553 74.645C26.1061 74.5958 26.067 74.5374 26.0404 74.4731C26.0137 74.4088 26 74.3399 26 74.2703V70.2703C25.9993 70.1969 26.014 70.1243 26.0433 70.0571C26.0726 69.9899 26.1158 69.9295 26.17 69.8801L31.17 65.2903C31.2184 65.2413 31.276 65.2023 31.3395 65.1758C31.4031 65.1492 31.4712 65.1357 31.54 65.1357C31.6089 65.1357 31.677 65.1492 31.7405 65.1758C31.8041 65.2023 31.8617 65.2413 31.91 65.2903C31.9593 65.3395 31.9984 65.3978 32.0251 65.4622C32.0518 65.5265 32.0655 65.5956 32.0655 65.6653C32.0655 65.7349 32.0518 65.8038 32.0251 65.8682C31.9984 65.9325 31.9593 65.9911 31.91 66.0403L27.04 70.4702V73.6802H73.34V70.4702L68.71 66.2803C68.6607 66.231 68.6216 66.1725 68.595 66.1082C68.5683 66.0438 68.5546 65.9749 68.5546 65.9053C68.5546 65.8356 68.5683 65.7665 68.595 65.7021C68.6216 65.6378 68.6607 65.5795 68.71 65.5303C68.7592 65.481 68.8177 65.442 68.882 65.4153C68.9464 65.3886 69.0154 65.3748 69.085 65.3748C69.1547 65.3748 69.2237 65.3886 69.288 65.4153C69.3524 65.442 69.4108 65.481 69.46 65.5303L74.26 69.8704C74.3145 69.9216 74.3578 69.9836 74.3871 70.0525C74.4163 70.1213 74.4309 70.1955 74.43 70.2703V74.2703C74.4301 74.3416 74.4158 74.4121 74.3879 74.4778C74.36 74.5434 74.3191 74.6029 74.2678 74.6523C74.2164 74.7018 74.1556 74.7404 74.089 74.7659C74.0224 74.7913 73.9513 74.803 73.88 74.8003Z" fill="#333333"/>
<path d="M58.2304 70.8296C58.1577 70.8297 58.0858 70.8134 58.0201 70.7822C57.9544 70.7511 57.8964 70.7057 57.8504 70.6494C57.8002 70.6018 57.7602 70.5446 57.7328 70.481C57.7055 70.4173 57.6914 70.3488 57.6914 70.2795C57.6914 70.2103 57.7055 70.1417 57.7328 70.0781C57.7602 70.0145 57.8002 69.9571 57.8504 69.9094L62.6404 65.4795C62.7411 65.3823 62.8755 65.3281 63.0154 65.3281C63.1553 65.3281 63.2897 65.3823 63.3904 65.4795C63.4394 65.5279 63.4783 65.5854 63.5048 65.6489C63.5314 65.7124 63.545 65.7808 63.545 65.8496C63.545 65.9184 63.5314 65.9865 63.5048 66.05C63.4783 66.1136 63.4394 66.1711 63.3904 66.2195L58.5904 70.6494C58.4981 70.7536 58.3691 70.8182 58.2304 70.8296Z" fill="#333333"/>
<path d="M66.111 67.7998C63.271 67.7998 60.9609 65.0898 60.9609 61.7998C60.9609 58.5098 63.271 55.7998 66.111 55.7998C68.951 55.7998 71.261 58.5098 71.261 61.7998C71.261 65.0898 68.951 67.7998 66.111 67.7998ZM66.111 56.7998C63.851 56.7998 62.011 59.0298 62.011 61.7998C62.011 64.5698 63.851 66.7998 66.111 66.7998C68.371 66.7998 70.201 64.5698 70.201 61.7998C70.201 59.0298 68.361 56.7798 66.111 56.7798V56.7998Z" fill="#333333"/>
<path d="M70.0006 55.0198H30.4206C30.2801 55.0198 30.1452 54.9639 30.0458 54.8645C29.9464 54.7651 29.8906 54.6303 29.8906 54.4897V28.4897C29.8906 27.5668 30.2573 26.6817 30.9099 26.0291C31.5625 25.3764 32.4477 25.0098 33.3706 25.0098H67.0506C67.9736 25.0098 68.8587 25.3764 69.5114 26.0291C70.164 26.6817 70.5306 27.5668 70.5306 28.4897V54.4897C70.5306 54.6303 70.4748 54.7651 70.3754 54.8645C70.276 54.9639 70.1412 55.0198 70.0006 55.0198ZM30.9506 53.9597H69.4706V28.4797C69.468 27.8387 69.2122 27.2248 68.7589 26.7715C68.3056 26.3182 67.6916 26.0624 67.0506 26.0598H33.3706C32.7288 26.0598 32.1133 26.3147 31.6594 26.7686C31.2056 27.2224 30.9506 27.8379 30.9506 28.4797V53.9597Z" fill="#333333"/>
<path d="M61.88 51.3H38.78C38.6394 51.3 38.5046 51.2442 38.4052 51.1448C38.3058 51.0454 38.25 50.9106 38.25 50.77V30.45C38.25 30.3094 38.3058 30.1746 38.4052 30.0752C38.5046 29.9758 38.6394 29.9199 38.78 29.9199C38.9206 29.9199 39.0554 29.9758 39.1548 30.0752C39.2542 30.1746 39.31 30.3094 39.31 30.45V50.25H61.88C62.0206 50.25 62.1554 50.3059 62.2548 50.4053C62.3542 50.5047 62.41 50.6395 62.41 50.78C62.4074 50.9189 62.3504 51.0512 62.2513 51.1484C62.1522 51.2457 62.0189 51.3001 61.88 51.3Z" fill="#333333"/>
<path d="M40.3389 30.7502C40.1975 30.7519 40.061 30.6982 39.9589 30.6003L38.8189 29.4502L37.6789 30.6003C37.5782 30.6975 37.4438 30.7517 37.3039 30.7517C37.164 30.7517 37.0296 30.6975 36.9289 30.6003C36.8796 30.5511 36.8405 30.4926 36.8138 30.4282C36.7872 30.3639 36.7734 30.295 36.7734 30.2253C36.7734 30.1557 36.7872 30.0866 36.8138 30.0222C36.8405 29.9579 36.8796 29.8996 36.9289 29.8503L38.4489 28.3303C38.5479 28.2338 38.6807 28.1797 38.8189 28.1797C38.9572 28.1797 39.0899 28.2338 39.1889 28.3303L40.7089 29.8503C40.7582 29.8996 40.7973 29.9579 40.824 30.0222C40.8507 30.0866 40.8644 30.1557 40.8644 30.2253C40.8644 30.295 40.8507 30.3639 40.824 30.4282C40.7973 30.4926 40.7582 30.5511 40.7089 30.6003C40.6098 30.6967 40.4771 30.7504 40.3389 30.7502Z" fill="#333333"/>
<path d="M62.2403 52.6699C62.1009 52.6663 61.9684 52.6091 61.8703 52.51C61.821 52.4608 61.7819 52.4022 61.7552 52.3379C61.7286 52.2735 61.7148 52.2047 61.7148 52.135C61.7148 52.0654 61.7286 51.9965 61.7552 51.9321C61.7819 51.8678 61.821 51.8092 61.8703 51.76L62.8703 50.76L61.8703 49.76C61.821 49.7108 61.7819 49.6522 61.7552 49.5879C61.7286 49.5235 61.7148 49.4547 61.7148 49.385C61.7148 49.3154 61.7286 49.2465 61.7552 49.1821C61.7819 49.1178 61.821 49.0592 61.8703 49.01C61.9693 48.9135 62.1021 48.8594 62.2403 48.8594C62.3785 48.8594 62.5113 48.9135 62.6103 49.01L63.9803 50.3799C64.0809 50.481 64.1383 50.6174 64.1403 50.76C64.1396 50.8292 64.1251 50.8976 64.0976 50.9612C64.0702 51.0247 64.0303 51.082 63.9803 51.1299L62.6103 52.5C62.5633 52.5518 62.5062 52.5936 62.4426 52.6228C62.3791 52.652 62.3102 52.6679 62.2403 52.6699Z" fill="#333333"/>
<path d="M46.2598 51.3005C46.1192 51.3005 45.9844 51.2447 45.885 51.1453C45.7856 51.0459 45.7298 50.9111 45.7298 50.7705V44.1206H41.7298V50.7705C41.7298 50.9111 41.674 51.0459 41.5746 51.1453C41.4752 51.2447 41.3404 51.3005 41.1998 51.3005C41.1307 51.3005 41.0622 51.2868 40.9984 51.26C40.9347 51.2333 40.8769 51.1941 40.8285 51.1448C40.7801 51.0954 40.742 51.0369 40.7165 50.9727C40.6909 50.9084 40.6785 50.8396 40.6798 50.7705V43.5906C40.6785 43.5215 40.6909 43.4527 40.7165 43.3884C40.742 43.3242 40.7801 43.2657 40.8285 43.2163C40.8769 43.167 40.9347 43.1278 40.9984 43.1011C41.0622 43.0743 41.1307 43.0605 41.1998 43.0605H46.2798C46.3494 43.0605 46.4183 43.0742 46.4826 43.1008C46.5469 43.1275 46.6054 43.1666 46.6546 43.2158C46.7038 43.265 46.7428 43.3234 46.7694 43.3877C46.7961 43.452 46.8098 43.521 46.8098 43.5906V50.7705C46.8098 50.8418 46.7955 50.9124 46.7676 50.978C46.7397 51.0437 46.6989 51.1031 46.6476 51.1526C46.5962 51.2021 46.5354 51.2407 46.4688 51.2661C46.4021 51.2915 46.3311 51.3032 46.2598 51.3005Z" fill="#333333"/>
<path d="M60.3791 51.3C60.2385 51.3 60.1037 51.2442 60.0043 51.1448C59.9049 51.0454 59.8491 50.9106 59.8491 50.77V41.1399H55.8491V50.77C55.8491 50.9106 55.7932 51.0454 55.6938 51.1448C55.5944 51.2442 55.4596 51.3 55.3191 51.3C55.1785 51.3 55.0437 51.2442 54.9443 51.1448C54.8449 51.0454 54.7891 50.9106 54.7891 50.77V40.6101C54.7891 40.4695 54.8449 40.3347 54.9443 40.2354C55.0437 40.136 55.1785 40.0801 55.3191 40.0801H60.3891C60.5296 40.0801 60.6644 40.136 60.7638 40.2354C60.8632 40.3347 60.9191 40.4695 60.9191 40.6101V50.77C60.9191 50.8405 60.905 50.9101 60.8778 50.9751C60.8505 51.0401 60.8106 51.0991 60.7603 51.1484C60.71 51.1978 60.6504 51.2364 60.585 51.2625C60.5195 51.2885 60.4495 51.3014 60.3791 51.3Z" fill="#333333"/>
<path d="M53.2111 51.2997C53.0705 51.2997 52.9357 51.2438 52.8363 51.1444C52.7369 51.045 52.6811 50.9102 52.6811 50.7696V37.8995H48.6811V50.7696C48.6811 50.9102 48.6253 51.045 48.5259 51.1444C48.4265 51.2438 48.2917 51.2997 48.1511 51.2997C48.0105 51.2997 47.8757 51.2438 47.7763 51.1444C47.6769 51.045 47.6211 50.9102 47.6211 50.7696V37.3697C47.6211 37.3006 47.6349 37.2321 47.6616 37.1683C47.6884 37.1046 47.7276 37.0468 47.7769 36.9984C47.8263 36.95 47.8848 36.9119 47.949 36.8863C48.0133 36.8608 48.082 36.8484 48.1511 36.8497H53.2211C53.2902 36.8484 53.3589 36.8608 53.4232 36.8863C53.4874 36.9119 53.5459 36.95 53.5953 36.9984C53.6446 37.0468 53.6838 37.1046 53.7106 37.1683C53.7373 37.2321 53.7511 37.3006 53.7511 37.3697V50.7696C53.7511 50.8401 53.7371 50.9097 53.7098 50.9747C53.6826 51.0397 53.6426 51.0987 53.5923 51.148C53.5421 51.1974 53.4825 51.236 53.417 51.2621C53.3515 51.2881 53.2815 51.301 53.2111 51.2997Z" fill="#333333"/>
<path d="M57.8816 37.6899C57.4095 37.6899 56.9567 37.5025 56.6229 37.1687C56.2891 36.8349 56.1016 36.382 56.1016 35.9099C56.1016 35.4378 56.2891 34.9852 56.6229 34.6514C56.9567 34.3176 57.4095 34.1299 57.8816 34.1299C58.3546 34.1299 58.8084 34.3171 59.1438 34.6506C59.4792 34.9842 59.6689 35.4369 59.6716 35.9099C59.6689 36.3829 59.4792 36.8357 59.1438 37.1692C58.8084 37.5027 58.3546 37.6899 57.8816 37.6899ZM57.8816 35.1899C57.787 35.1899 57.6934 35.2087 57.606 35.2449C57.5187 35.2811 57.4393 35.334 57.3724 35.4009C57.3056 35.4677 57.2526 35.5472 57.2164 35.6345C57.1802 35.7219 57.1616 35.8154 57.1616 35.9099C57.1616 36.0045 57.1802 36.0982 57.2164 36.1855C57.2526 36.2729 57.3056 36.3523 57.3724 36.4192C57.4393 36.486 57.5187 36.539 57.606 36.5752C57.6934 36.6114 57.787 36.6299 57.8816 36.6299C58.0734 36.6299 58.2576 36.5544 58.3943 36.4197C58.5309 36.2849 58.6089 36.1018 58.6116 35.9099C58.6089 35.718 58.5309 35.5349 58.3943 35.4001C58.2576 35.2654 58.0734 35.1899 57.8816 35.1899Z" fill="#333333"/>
<path d="M50.6789 32.9797C50.2119 32.9852 49.7615 32.8068 49.4247 32.4832C49.088 32.1595 48.892 31.7166 48.8789 31.2498C48.8789 30.7777 49.0665 30.325 49.4003 29.9912C49.7341 29.6574 50.1868 29.4697 50.6589 29.4697C51.131 29.4697 51.5837 29.6574 51.9175 29.9912C52.2514 30.325 52.4389 30.7777 52.4389 31.2498C52.426 31.7097 52.2355 32.1467 51.9074 32.4692C51.5793 32.7918 51.139 32.9747 50.6789 32.9797ZM50.6789 30.4797C50.487 30.4797 50.3028 30.5552 50.1662 30.6899C50.0296 30.8247 49.9515 31.0078 49.9489 31.1997C49.9515 31.3916 50.0296 31.5747 50.1662 31.7095C50.3028 31.8442 50.487 31.9197 50.6789 31.9197C50.7734 31.9197 50.8671 31.9012 50.9544 31.865C51.0418 31.8288 51.1212 31.7758 51.188 31.709C51.2549 31.6421 51.3079 31.5627 51.3441 31.4753C51.3803 31.388 51.3989 31.2943 51.3989 31.1997C51.3989 31.0088 51.323 30.8257 51.188 30.6907C51.053 30.5556 50.8698 30.4797 50.6789 30.4797Z" fill="#333333"/>
<path d="M43.7214 40.9302C43.2493 40.9302 42.7966 40.7428 42.4628 40.4089C42.129 40.0751 41.9414 39.6222 41.9414 39.1501C41.9414 38.6771 42.1286 38.2233 42.4622 37.8879C42.7957 37.5525 43.2484 37.363 43.7214 37.3604C44.1944 37.363 44.6472 37.5525 44.9807 37.8879C45.3142 38.2233 45.5014 38.6771 45.5014 39.1501C45.5014 39.6222 45.3139 40.0751 44.9801 40.4089C44.6463 40.7428 44.1935 40.9302 43.7214 40.9302ZM43.7214 38.4202C43.5295 38.4228 43.3464 38.5008 43.2117 38.6375C43.0769 38.7741 43.0014 38.9583 43.0014 39.1501C43.0014 39.3411 43.0773 39.5244 43.2123 39.6594C43.3473 39.7945 43.5304 39.8704 43.7214 39.8704C43.9124 39.8704 44.0955 39.7945 44.2305 39.6594C44.3656 39.5244 44.4414 39.3411 44.4414 39.1501C44.4414 38.9583 44.3659 38.7741 44.2311 38.6375C44.0964 38.5008 43.9133 38.4228 43.7214 38.4202Z" fill="#333333"/>
<path d="M56.8803 35.6899C56.7733 35.6928 56.6681 35.6614 56.5803 35.6001L51.5803 32.2099C51.4636 32.1306 51.3826 32.0089 51.3545 31.8706C51.3265 31.7323 51.3537 31.5884 51.4303 31.4699C51.4695 31.4119 51.5198 31.3622 51.5783 31.3237C51.6368 31.2852 51.7023 31.2586 51.7711 31.2456C51.84 31.2325 51.9107 31.2333 51.9792 31.2478C52.0477 31.2622 52.1127 31.2903 52.1703 31.33L57.2203 34.7299C57.3348 34.8089 57.4136 34.9298 57.4398 35.0664C57.4659 35.2029 57.4374 35.3442 57.3603 35.4599C57.3077 35.5372 57.2356 35.5992 57.1513 35.6396C57.067 35.68 56.9735 35.6973 56.8803 35.6899Z" fill="#333333"/>
<path d="M44.3202 38.5703C44.1882 38.5733 44.0598 38.5268 43.9601 38.4402C43.9109 38.391 43.8718 38.3327 43.8451 38.2683C43.8184 38.204 43.8047 38.1348 43.8047 38.0652C43.8047 37.9955 43.8184 37.9267 43.8451 37.8623C43.8718 37.798 43.9109 37.7394 43.9601 37.6902L49.4202 31.6902C49.4678 31.64 49.5252 31.6001 49.5888 31.5728C49.6524 31.5454 49.7209 31.5312 49.7902 31.5312C49.8594 31.5312 49.9279 31.5454 49.9915 31.5728C50.0551 31.6001 50.1125 31.64 50.1602 31.6902C50.2091 31.7386 50.248 31.7961 50.2746 31.8596C50.3011 31.9231 50.3148 31.9915 50.3148 32.0603C50.3148 32.1291 50.3011 32.1972 50.2746 32.2607C50.248 32.3243 50.2091 32.3818 50.1602 32.4302L44.7002 38.4302C44.6501 38.4787 44.5904 38.5164 44.525 38.5405C44.4595 38.5646 44.3898 38.5748 44.3202 38.5703Z" fill="#333333"/>
</g>
<defs>
<clipPath id="clip0_1102_180984">
<rect width="48.41" height="49.8" fill="white" transform="translate(26 25)"/>
</clipPath>
</defs>
</svg>
