<svg width="90" height="90" viewBox="0 0 90 90" fill="none" xmlns="http://www.w3.org/2000/svg">
<circle cx="45" cy="45" r="45" fill="#FAFAFA"/>
<g clip-path="url(#clip0_1988_380666)">
<path d="M53.6201 31.9306V36.5506H58.4901V40.3606L65.6101 34.1506L58.4601 27.8906V31.5706L53.6201 31.9306Z" fill="#235AB0"/>
<path d="M46.3 24.5195H27.27V43.5495H46.3V24.5195Z" fill="white"/>
<path d="M23.25 43.9502L20.38 45.4802L19.46 47.9102L20.06 50.6102L22.95 52.8702H23.9L24.08 64.7102L66.52 64.3702L66.69 53.0402L69.97 51.5702L71.21 48.6702L70.35 45.6902L67.61 43.7402L23.25 43.9502Z" fill="white"/>
<path d="M58.4199 40.7997C58.344 40.7973 58.2693 40.7803 58.1999 40.7496C58.1078 40.7076 58.0296 40.6401 57.9747 40.5551C57.9197 40.47 57.8903 40.3709 57.8899 40.2697V37.0397H53.6299C53.4893 37.0397 53.3545 36.9838 53.2551 36.8844C53.1557 36.785 53.0999 36.6502 53.0999 36.5097V31.7997C53.0999 31.7301 53.1136 31.6611 53.1402 31.5968C53.1668 31.5325 53.2059 31.4742 53.2551 31.4249C53.3043 31.3757 53.3628 31.3366 53.4271 31.3099C53.4914 31.2833 53.5603 31.2697 53.6299 31.2697H57.8799V28.0397C57.8803 27.9384 57.9097 27.8393 57.9647 27.7543C58.0196 27.6692 58.0978 27.6017 58.1899 27.5597C58.2804 27.5149 58.3823 27.4985 58.4823 27.5128C58.5823 27.5271 58.6755 27.5715 58.7499 27.6398L66.0099 33.7897C66.0685 33.8387 66.1159 33.8998 66.1487 33.9689C66.1815 34.0379 66.1989 34.1132 66.1999 34.1896C66.2003 34.2663 66.1835 34.3423 66.1506 34.4115C66.1177 34.4808 66.0696 34.5416 66.0099 34.5897L58.7499 40.7396C58.6507 40.7987 58.5335 40.82 58.4199 40.7997ZM54.1699 35.9796H58.4199C58.5604 35.9796 58.6953 36.0355 58.7947 36.1349C58.8941 36.2343 58.9499 36.3691 58.9499 36.5097V39.1298L64.8599 34.1298L58.9499 29.1298V31.7997C58.9499 31.9403 58.8941 32.0751 58.7947 32.1744C58.6953 32.2738 58.5604 32.3297 58.4199 32.3297H54.1699V35.9796Z" fill="#333333"/>
<path d="M66.57 53.3801H24.07C22.7254 53.3801 21.4358 52.8458 20.485 51.895C19.5342 50.9442 19 49.6547 19 48.3101C19.0026 46.9671 19.538 45.6801 20.4885 44.7314C21.439 43.7828 22.7271 43.25 24.07 43.25H66.57C67.9112 43.2526 69.1967 43.7867 70.145 44.7351C71.0934 45.6835 71.6274 46.9689 71.63 48.3101C71.63 49.653 71.0972 50.9411 70.1486 51.8916C69.1999 52.8421 67.9129 53.3775 66.57 53.3801ZM24.07 44.3C23.0091 44.3 21.9917 44.7215 21.2416 45.4717C20.4914 46.2218 20.07 47.2392 20.07 48.3C20.07 49.3609 20.4914 50.3783 21.2416 51.1284C21.9917 51.8786 23.0091 52.3 24.07 52.3H66.57C67.6309 52.3 68.6483 51.8786 69.3984 51.1284C70.1486 50.3783 70.57 49.3609 70.57 48.3C70.57 47.2392 70.1486 46.2218 69.3984 45.4717C68.6483 44.7215 67.6309 44.3 66.57 44.3H24.07Z" fill="#333333"/>
<path d="M64.21 49.1609C64.0988 49.1609 63.9887 49.1388 63.8862 49.0959C63.7836 49.0531 63.6906 48.9902 63.6124 48.9111C63.5343 48.8321 63.4726 48.7383 63.431 48.6353C63.3893 48.5322 63.3686 48.4219 63.3699 48.3108C63.3699 48.088 63.4584 47.8743 63.616 47.7168C63.7735 47.5593 63.9872 47.4707 64.21 47.4707C64.4319 47.4733 64.6441 47.5628 64.801 47.7197C64.958 47.8767 65.0473 48.0888 65.0499 48.3108C65.0499 48.5345 64.9618 48.7491 64.8045 48.9082C64.6473 49.0673 64.4337 49.1583 64.21 49.1609ZM64.21 48.1008C64.1816 48.0995 64.1532 48.1038 64.1265 48.1138C64.0999 48.1237 64.0755 48.1391 64.0549 48.1587C64.0344 48.1783 64.018 48.2019 64.0068 48.228C63.9957 48.2542 63.9899 48.2824 63.9899 48.3108C63.9899 48.5508 64.4199 48.5508 64.4199 48.3108C64.4199 48.2551 64.3978 48.2017 64.3585 48.1624C64.3191 48.123 64.2657 48.1008 64.21 48.1008Z" fill="#333333"/>
<path d="M57.9101 49.1609C57.6864 49.1583 57.4727 49.0673 57.3155 48.9082C57.1582 48.7491 57.0701 48.5345 57.0701 48.3108C57.0727 48.0888 57.162 47.8767 57.319 47.7197C57.4759 47.5628 57.6881 47.4733 57.9101 47.4707C58.0204 47.4707 58.1296 47.4925 58.2315 47.5347C58.3334 47.5769 58.426 47.6388 58.504 47.7168C58.582 47.7948 58.6439 47.8873 58.6861 47.9893C58.7283 48.0912 58.7501 48.2005 58.7501 48.3108C58.7514 48.4219 58.7306 48.5322 58.689 48.6353C58.6474 48.7383 58.5858 48.8321 58.5076 48.9111C58.4295 48.9902 58.3364 49.0531 58.2338 49.0959C58.1313 49.1388 58.0213 49.1609 57.9101 49.1609ZM57.9101 48.1008C57.8544 48.1008 57.801 48.123 57.7616 48.1624C57.7222 48.2017 57.7001 48.2551 57.7001 48.3108C57.7001 48.5508 58.1301 48.5508 58.1301 48.3108C58.1301 48.2824 58.1243 48.2542 58.1132 48.228C58.102 48.2019 58.0856 48.1783 58.0651 48.1587C58.0445 48.1391 58.0202 48.1237 57.9935 48.1138C57.9669 48.1038 57.9385 48.0995 57.9101 48.1008Z" fill="#333333"/>
<path d="M51.6301 49.1609C51.4064 49.1583 51.1927 49.0673 51.0355 48.9082C50.8782 48.7491 50.79 48.5345 50.79 48.3108C50.7926 48.0888 50.882 47.8767 51.0389 47.7197C51.1959 47.5628 51.4081 47.4733 51.6301 47.4707C51.8538 47.4707 52.0685 47.5591 52.2276 47.7163C52.3867 47.8736 52.4774 48.0871 52.48 48.3108C52.48 48.5362 52.3905 48.7525 52.2311 48.9119C52.0717 49.0713 51.8555 49.1609 51.6301 49.1609ZM51.6301 48.1008C51.6025 48.1008 51.5752 48.1061 51.5497 48.1167C51.5242 48.1273 51.5011 48.1429 51.4816 48.1624C51.4621 48.1819 51.4466 48.205 51.436 48.2305C51.4255 48.2559 51.42 48.2832 51.42 48.3108C51.42 48.5508 51.85 48.5508 51.85 48.3108C51.8501 48.2824 51.8444 48.2542 51.8332 48.228C51.822 48.2019 51.8057 48.1783 51.7851 48.1587C51.7645 48.1391 51.7401 48.1237 51.7135 48.1138C51.6869 48.1038 51.6585 48.0995 51.6301 48.1008Z" fill="#333333"/>
<path d="M45.3201 49.1609C45.2089 49.1609 45.0988 49.1388 44.9963 49.0959C44.8937 49.0531 44.8007 48.9902 44.7225 48.9111C44.6444 48.8321 44.5828 48.7383 44.5411 48.6353C44.4995 48.5322 44.4787 48.4219 44.48 48.3108C44.48 48.088 44.5685 47.8743 44.7261 47.7168C44.8836 47.5593 45.0973 47.4707 45.3201 47.4707C45.542 47.4733 45.7542 47.5628 45.9112 47.7197C46.0682 47.8767 46.1575 48.0888 46.1601 48.3108C46.1601 48.5345 46.0719 48.7491 45.9147 48.9082C45.7574 49.0673 45.5438 49.1583 45.3201 49.1609ZM45.3201 48.1008C45.2917 48.0995 45.2633 48.1038 45.2366 48.1138C45.21 48.1237 45.1856 48.1391 45.165 48.1587C45.1445 48.1783 45.1281 48.2019 45.1169 48.228C45.1058 48.2542 45.1 48.2824 45.1 48.3108C45.1 48.5508 45.5301 48.5508 45.5301 48.3108C45.5301 48.2551 45.5079 48.2017 45.4686 48.1624C45.4292 48.123 45.3758 48.1008 45.3201 48.1008Z" fill="#333333"/>
<path d="M39.02 49.1609C38.7963 49.1583 38.5826 49.0673 38.4254 48.9082C38.2681 48.7491 38.1799 48.5345 38.1799 48.3108C38.1825 48.0888 38.2719 47.8767 38.4288 47.7197C38.5858 47.5628 38.798 47.4733 39.02 47.4707C39.2427 47.4707 39.4564 47.5593 39.6139 47.7168C39.7714 47.8743 39.8599 48.088 39.8599 48.3108C39.8612 48.4219 39.8405 48.5322 39.7989 48.6353C39.7573 48.7383 39.6956 48.8321 39.6175 48.9111C39.5394 48.9902 39.4463 49.0531 39.3438 49.0959C39.2412 49.1388 39.1311 49.1609 39.02 49.1609ZM39.02 48.1008C38.9643 48.1008 38.9108 48.123 38.8715 48.1624C38.8321 48.2017 38.8099 48.2551 38.8099 48.3108C38.8099 48.5508 39.2399 48.5508 39.2399 48.3108C39.24 48.2824 39.2343 48.2542 39.2231 48.228C39.2119 48.2019 39.1955 48.1783 39.1749 48.1587C39.1544 48.1391 39.13 48.1237 39.1034 48.1138C39.0767 48.1038 39.0484 48.0995 39.02 48.1008Z" fill="#333333"/>
<path d="M32.7199 49.1609C32.4962 49.1583 32.2826 49.0673 32.1253 48.9082C31.9681 48.7491 31.8799 48.5345 31.8799 48.3108C31.8825 48.0888 31.9718 47.8767 32.1288 47.7197C32.2858 47.5628 32.4979 47.4733 32.7199 47.4707C32.9436 47.4707 33.1583 47.5591 33.3174 47.7163C33.4766 47.8736 33.5673 48.0871 33.5699 48.3108C33.5699 48.5362 33.4803 48.7525 33.3209 48.9119C33.1615 49.0713 32.9453 49.1609 32.7199 49.1609ZM32.7199 48.1008C32.6642 48.1008 32.6108 48.123 32.5714 48.1624C32.532 48.2017 32.5099 48.2551 32.5099 48.3108C32.5099 48.5508 32.9399 48.5508 32.9399 48.3108C32.9399 48.2824 32.9341 48.2542 32.923 48.228C32.9118 48.2019 32.8954 48.1783 32.8749 48.1587C32.8543 48.1391 32.83 48.1237 32.8033 48.1138C32.7767 48.1038 32.7483 48.0995 32.7199 48.1008Z" fill="#333333"/>
<path d="M26.4299 49.1609C26.3187 49.1609 26.2086 49.1388 26.1061 49.0959C26.0035 49.0531 25.9105 48.9902 25.8323 48.9111C25.7542 48.8321 25.6926 48.7383 25.6509 48.6353C25.6093 48.5322 25.5886 48.4219 25.5899 48.3108C25.5899 48.088 25.6784 47.8743 25.8359 47.7168C25.9935 47.5593 26.2071 47.4707 26.4299 47.4707C26.6518 47.4733 26.864 47.5628 27.021 47.7197C27.178 47.8767 27.2673 48.0888 27.2699 48.3108C27.2699 48.5345 27.1817 48.7491 27.0245 48.9082C26.8672 49.0673 26.6536 49.1583 26.4299 49.1609ZM26.4299 48.1008C26.4015 48.0995 26.3731 48.1038 26.3464 48.1138C26.3198 48.1237 26.2955 48.1391 26.2749 48.1587C26.2543 48.1783 26.2379 48.2019 26.2267 48.228C26.2156 48.2542 26.2099 48.2824 26.2099 48.3108C26.2099 48.5508 26.6399 48.5508 26.6399 48.3108C26.6399 48.2551 26.6178 48.2017 26.5784 48.1624C26.539 48.123 26.4856 48.1008 26.4299 48.1008Z" fill="#333333"/>
<path d="M66.5701 65.2002H24.0701C24.0005 65.2002 23.9316 65.1865 23.8672 65.1599C23.8029 65.1333 23.7445 65.0944 23.6953 65.0452C23.6461 64.996 23.607 64.9373 23.5804 64.873C23.5537 64.8087 23.54 64.74 23.54 64.6704V52.8503C23.54 52.7098 23.5959 52.575 23.6953 52.4756C23.7947 52.3762 23.9295 52.3203 24.0701 52.3203C24.2106 52.3203 24.3454 52.3762 24.4448 52.4756C24.5442 52.575 24.6 52.7098 24.6 52.8503V64.1404H66.04V52.8503C66.04 52.7098 66.0959 52.575 66.1953 52.4756C66.2947 52.3762 66.4295 52.3203 66.5701 52.3203C66.7106 52.3203 66.8454 52.3762 66.9448 52.4756C67.0442 52.575 67.1 52.7098 67.1 52.8503V64.6704C67.1 64.74 67.0863 64.8087 67.0597 64.873C67.0331 64.9373 66.994 64.996 66.9448 65.0452C66.8956 65.0944 66.8372 65.1333 66.7729 65.1599C66.7086 65.1865 66.6397 65.2002 66.5701 65.2002Z" fill="#333333"/>
<path d="M42.5201 40.5801C42.4492 40.5807 42.3789 40.5668 42.3135 40.5393C42.2482 40.5118 42.1892 40.4713 42.1401 40.4202L30.35 28.6301C30.3008 28.5809 30.2617 28.5224 30.235 28.458C30.2083 28.3937 30.1946 28.3248 30.1946 28.2551C30.1946 28.1855 30.2083 28.1163 30.235 28.052C30.2617 27.9877 30.3008 27.9294 30.35 27.8801C30.3993 27.8308 30.4577 27.7916 30.5221 27.7649C30.5864 27.7382 30.6554 27.7246 30.725 27.7246C30.7947 27.7246 30.8637 27.7382 30.928 27.7649C30.9924 27.7916 31.0508 27.8308 31.1 27.8801L42.8901 39.6702C42.9394 39.7194 42.9785 39.7777 43.0051 39.842C43.0318 39.9064 43.0455 39.9755 43.0455 40.0452C43.0455 40.1148 43.0318 40.1837 43.0051 40.248C42.9785 40.3124 42.9394 40.3709 42.8901 40.4202C42.8429 40.4711 42.7856 40.5115 42.7219 40.5391C42.6582 40.5666 42.5895 40.5805 42.5201 40.5801Z" fill="#333333"/>
<path d="M30.7201 40.5801C30.6507 40.5805 30.582 40.5666 30.5182 40.5391C30.4545 40.5115 30.3972 40.4711 30.35 40.4202C30.3008 40.3709 30.2617 40.3124 30.235 40.248C30.2083 40.1837 30.1946 40.1148 30.1946 40.0452C30.1946 39.9755 30.2083 39.9064 30.235 39.842C30.2617 39.7777 30.3008 39.7194 30.35 39.6702L42.1401 27.8801C42.1893 27.8308 42.2477 27.7916 42.3121 27.7649C42.3764 27.7382 42.4454 27.7246 42.5151 27.7246C42.5847 27.7246 42.6537 27.7382 42.718 27.7649C42.7824 27.7916 42.8409 27.8308 42.8901 27.8801C42.9394 27.9294 42.9785 27.9877 43.0051 28.052C43.0318 28.1163 43.0455 28.1855 43.0455 28.2551C43.0455 28.3248 43.0318 28.3937 43.0051 28.458C42.9785 28.5224 42.9394 28.5809 42.8901 28.6301L31.1 40.4202C31.051 40.4713 30.9919 40.5118 30.9266 40.5393C30.8612 40.5668 30.791 40.5807 30.7201 40.5801Z" fill="#333333"/>
<path d="M46.24 44.2997C46.1709 44.301 46.1022 44.2886 46.038 44.263C45.9738 44.2375 45.9152 44.1994 45.8659 44.151C45.8165 44.1026 45.7773 44.0448 45.7506 43.9811C45.7238 43.9173 45.71 43.8488 45.7101 43.7796V25.0497H27.5201V43.7997C27.5201 43.8688 27.5063 43.9373 27.4795 44.0011C27.4528 44.0648 27.4136 44.1226 27.3642 44.171C27.3149 44.2194 27.2564 44.2575 27.1921 44.2831C27.1279 44.3086 27.0591 44.321 26.99 44.3197C26.8521 44.3197 26.7199 44.2649 26.6223 44.1673C26.5248 44.0698 26.4701 43.9376 26.4701 43.7997V24.5497C26.4687 24.4805 26.4812 24.4118 26.5067 24.3475C26.5322 24.2833 26.5703 24.2247 26.6187 24.1754C26.6672 24.126 26.725 24.0869 26.7887 24.0602C26.8525 24.0334 26.9209 24.0196 26.99 24.0196H46.24C46.31 24.0183 46.3795 24.0311 46.4444 24.0572C46.5093 24.0834 46.5683 24.1225 46.6178 24.172C46.6673 24.2215 46.7063 24.2804 46.7325 24.3453C46.7586 24.4102 46.7714 24.4797 46.7701 24.5497V43.7997C46.7648 43.9358 46.7064 44.0645 46.6073 44.1581C46.5082 44.2516 46.3763 44.3024 46.24 44.2997Z" fill="#333333"/>
<path d="M64.4899 62.5901V55.8C58.6148 57.7958 52.4444 58.783 46.2399 58.72C39.3703 58.824 32.5463 57.5877 26.1499 55.0801V62.55L64.4899 62.5901Z" fill="#235AB0"/>
</g>
<defs>
<clipPath id="clip0_1988_380666">
<rect width="52.63" height="41.2" fill="white" transform="translate(19 24)"/>
</clipPath>
</defs>
</svg>
