<svg width="32" height="32" viewBox="0 0 32 32" fill="none" xmlns="http://www.w3.org/2000/svg">
<path d="M0 0H32V32H0V0Z" fill="#FF0000"/>
<path d="M22.7077 12.3919C22.5464 11.786 22.0722 11.3079 21.4702 11.1463C20.3781 10.8513 16.0004 10.8513 16.0004 10.8513C16.0004 10.8513 11.6219 10.8513 10.5305 11.1463C9.92775 11.3079 9.4536 11.7852 9.29225 12.3919C9 13.4905 9 15.7842 9 15.7842C9 15.7842 9 18.0771 9.29225 19.1764C9.4536 19.7824 9.92775 20.2604 10.5305 20.422C11.6227 20.7162 16.0004 20.7162 16.0004 20.7162C16.0004 20.7162 20.3781 20.7162 21.4702 20.422C22.0722 20.2596 22.5472 19.7824 22.7077 19.1764C23 18.0771 23 15.7842 23 15.7842C23 15.7842 23 13.4913 22.7077 12.3919ZM14.6 17.8978V13.6698L18.2372 15.7842L14.6 17.8978Z" fill="white"/>
</svg>
