<svg width="100" height="100" viewBox="0 0 100 100" fill="none" xmlns="http://www.w3.org/2000/svg">
<circle cx="50" cy="50" r="50" fill="#F2F6FB"/>
<g clip-path="url(#clip0_1738_334668)">
<path d="M31.5391 23.5701H64.699V27.49H68.159V65.6599C68.159 65.6599 67.639 75.4399 61.159 75.4399H34.449V71.52L31.619 71.1899L31.5391 23.5701Z" fill="white"/>
<path d="M60.3306 76.02H34.4206C34.28 76.02 34.1452 75.9641 34.0458 75.8647C33.9464 75.7654 33.8906 75.6306 33.8906 75.49V71.3398C33.8906 71.2702 33.9043 71.2015 33.931 71.1372C33.9576 71.0729 33.9966 71.0143 34.0458 70.9651C34.0951 70.9159 34.1535 70.877 34.2178 70.8503C34.2821 70.8237 34.351 70.8101 34.4206 70.8101C34.4902 70.8101 34.5592 70.8237 34.6235 70.8503C34.6878 70.877 34.7462 70.9159 34.7954 70.9651C34.8446 71.0143 34.8836 71.0729 34.9103 71.1372C34.9369 71.2015 34.9506 71.2702 34.9506 71.3398V74.96H60.3306C64.3306 74.96 67.6306 70.9599 67.6306 66.1099V28.03H64.7006C64.6315 28.03 64.563 28.0163 64.4993 27.9895C64.4355 27.9627 64.3778 27.9234 64.3293 27.874C64.2809 27.8247 64.2428 27.7664 64.2173 27.7021C64.1917 27.6379 64.1793 27.5691 64.1806 27.5C64.1793 27.4309 64.1917 27.3621 64.2173 27.2979C64.2428 27.2336 64.2809 27.1751 64.3293 27.1257C64.3778 27.0764 64.4355 27.0373 64.4993 27.0105C64.563 26.9837 64.6315 26.97 64.7006 26.97H68.1606C68.3012 26.97 68.436 27.0258 68.5354 27.1252C68.6348 27.2246 68.6906 27.3594 68.6906 27.5V66.1099C68.7006 71.5699 64.9406 76.02 60.3306 76.02Z" fill="#333333"/>
<path d="M57.6315 71.8699H31.6315C31.491 71.8699 31.3562 71.8142 31.2568 71.7148C31.1574 71.6154 31.1016 71.4804 31.1016 71.3398V23.53C31.1016 23.3895 31.1574 23.2547 31.2568 23.1553C31.3562 23.0559 31.491 23 31.6315 23H64.7015C64.8421 23 64.9769 23.0559 65.0763 23.1553C65.1757 23.2547 65.2315 23.3895 65.2315 23.53V62.8799C65.2686 63.6483 65.0091 64.4016 64.5067 64.9841C64.0042 65.5667 63.2971 65.934 62.5315 66.01H60.3416V68.74C60.3939 69.5136 60.1385 70.2766 59.6309 70.8628C59.1234 71.449 58.4047 71.811 57.6315 71.8699ZM32.1215 70.8101H57.6315C58.121 70.7474 58.5666 70.4957 58.8731 70.1089C59.1795 69.7221 59.3225 69.2308 59.2715 68.74V65.48C59.2715 65.3394 59.3274 65.2046 59.4268 65.1052C59.5262 65.0058 59.661 64.95 59.8015 64.95H62.5215C63.0118 64.8873 63.4583 64.636 63.7664 64.2495C64.0744 63.863 64.2197 63.3717 64.1715 62.8799V24.0601H32.1215V70.8101Z" fill="#333333"/>
<path d="M26.1014 33.83L31.8614 35.39L27.7514 51.37L21.4414 49.78L26.1014 33.83Z" fill="#235AB0"/>
<path d="M67.0898 36.27L72.9198 34.26L78.1298 50.11L77.5998 50.82L72.1798 52.33L67.0898 36.27Z" fill="#235AB0"/>
<path d="M31.6692 36.76L45.1392 40.31L48.5392 39.34L59.3592 41.69L67.8292 39.23L71.2492 50.13L58.7992 55.37L60.1692 57.25L59.6892 58.91L57.6392 59.45L56.4692 61.59L53.3092 61.79L53.3892 63.09L51.1692 64.29L49.3392 63.89L48.4392 65.16L46.8492 65.26L44.4092 63.4L42.1992 65.42L40.9092 65.26L39.7892 63.76L37.7992 63.45L36.5492 61.36L34.3292 61.07L33.4092 59.4L33.7092 58.43L32.5092 58.32L31.8492 56.46L34.6792 53.14L32.5092 50.96L28.1992 49.44L31.6692 36.76Z" fill="white"/>
<path d="M57.8287 51.4801C52.8287 51.4801 49.3787 46.5401 49.3287 46.4801C48.8787 45.8601 48.1587 45.1 47.4187 45.17C46.6787 45.24 45.9788 46.1701 45.7888 46.5501C45.5917 47.1798 45.2671 47.7622 44.8353 48.2611C44.4035 48.76 43.8737 49.1646 43.2787 49.45C42.8393 49.6001 42.3736 49.658 41.9108 49.6202C41.448 49.5823 40.998 49.4495 40.5887 49.2301C40.1949 49.0305 39.8839 48.6987 39.7102 48.2928C39.5365 47.8869 39.5112 47.4328 39.6387 47.0101L40.5187 44.0101C40.7299 43.2849 41.0971 42.6145 41.5946 42.0462C42.0921 41.4779 42.7079 41.0253 43.3987 40.72L46.7087 39.2701C48.0092 38.7749 49.4373 38.7255 50.7687 39.13L59.2787 41.13L67.5287 38.71C67.595 38.6902 67.6646 38.6838 67.7334 38.6912C67.8022 38.6987 67.8688 38.72 67.9294 38.7535C67.9899 38.787 68.0432 38.8322 68.086 38.8865C68.1288 38.9409 68.1603 39.0034 68.1787 39.0701C68.2001 39.1371 68.2076 39.2075 68.2009 39.2774C68.1942 39.3474 68.1734 39.4152 68.1398 39.4769C68.1062 39.5386 68.0604 39.5928 68.0052 39.6363C67.95 39.6798 67.8866 39.7118 67.8187 39.7301L59.3087 42.2301L50.5387 40.15C49.4291 39.7947 48.2328 39.8194 47.1387 40.22L43.8287 41.68C43.2768 41.9215 42.7846 42.2812 42.3871 42.734C41.9897 43.1867 41.6967 43.7215 41.5287 44.3001L40.6588 47.3001C40.5956 47.4871 40.6012 47.6903 40.6745 47.8736C40.7478 48.0569 40.884 48.2082 41.0587 48.3001C41.3354 48.4581 41.6424 48.5557 41.9595 48.5867C42.2766 48.6178 42.5967 48.5815 42.8987 48.4801C43.3618 48.238 43.7713 47.9053 44.1029 47.5015C44.4345 47.0978 44.6813 46.6312 44.8287 46.13C45.0654 45.6281 45.4138 45.187 45.847 44.8404C46.2803 44.4938 46.7871 44.2507 47.3287 44.13C48.3287 44.05 49.3287 44.64 50.1987 45.89C50.4187 46.22 55.4787 53.52 62.2887 48.95C62.4044 48.8729 62.5458 48.8445 62.6824 48.8707C62.8189 48.8969 62.9397 48.9755 63.0187 49.0899C63.0585 49.1476 63.0864 49.2126 63.1008 49.2811C63.1153 49.3496 63.116 49.4205 63.103 49.4893C63.09 49.5581 63.0635 49.6235 63.025 49.682C62.9865 49.7405 62.9368 49.791 62.8787 49.8302C61.3998 50.8758 59.6397 51.4507 57.8287 51.4801Z" fill="#333333"/>
<path d="M58.6994 55.96C58.5968 55.96 58.4964 55.9296 58.411 55.8726C58.3255 55.8157 58.2589 55.7347 58.2194 55.6399C58.1916 55.5764 58.1768 55.5079 58.1758 55.4385C58.1749 55.3691 58.1879 55.3002 58.2139 55.2359C58.24 55.1716 58.2787 55.1131 58.3278 55.064C58.3768 55.0149 58.4351 54.9762 58.4994 54.95L71.0794 49.66C71.143 49.6321 71.2115 49.6174 71.2809 49.6165C71.3503 49.6156 71.4191 49.6285 71.4834 49.6546C71.5477 49.6807 71.6062 49.7193 71.6553 49.7684C71.7044 49.8174 71.7432 49.8757 71.7694 49.94C71.8229 50.0687 71.8234 50.2134 71.771 50.3426C71.7186 50.4717 71.6174 50.5748 71.4894 50.6299L58.9094 55.92C58.8429 55.9477 58.7714 55.9614 58.6994 55.96Z" fill="#333333"/>
<path d="M58.0388 60.1199C57.695 60.1207 57.3548 60.0501 57.0398 59.9124C56.7247 59.7746 56.4418 59.573 56.2089 59.3201L49.4789 52.1799C49.4299 52.1316 49.391 52.074 49.3644 52.0105C49.3379 51.947 49.3242 51.8789 49.3242 51.8101C49.3242 51.7412 49.3379 51.6729 49.3644 51.6094C49.391 51.5459 49.4299 51.4883 49.4789 51.4399C49.5274 51.3894 49.5856 51.3492 49.6501 51.3218C49.7145 51.2943 49.7838 51.2803 49.8539 51.2803C49.9239 51.2803 49.9932 51.2943 50.0576 51.3218C50.1221 51.3492 50.1803 51.3894 50.2289 51.4399L56.9589 58.5801C57.132 58.7621 57.3485 58.8969 57.5882 58.9722C57.8279 59.0474 58.0828 59.0605 58.3289 59.01C58.5796 58.9502 58.8108 58.8268 58.9999 58.6516C59.1891 58.4764 59.3299 58.2555 59.4088 58.01C59.477 57.8156 59.4944 57.6071 59.4594 57.4041C59.4244 57.2011 59.3382 57.0102 59.2089 56.8499L56.1089 53.6499C56.0596 53.6007 56.0205 53.5424 55.9938 53.478C55.9671 53.4137 55.9534 53.3446 55.9534 53.2749C55.9534 53.2052 55.9671 53.1364 55.9938 53.072C56.0205 53.0077 56.0596 52.9491 56.1089 52.8999C56.1581 52.8506 56.2165 52.8116 56.2809 52.7849C56.3452 52.7582 56.4142 52.7444 56.4839 52.7444C56.5535 52.7444 56.6225 52.7582 56.6868 52.7849C56.7512 52.8116 56.8096 52.8506 56.8589 52.8999L59.9889 56.1399C60.2442 56.4405 60.4156 56.8031 60.4858 57.1912C60.5561 57.5792 60.5226 57.9789 60.3889 58.3499C60.2503 58.7598 60.0065 59.1263 59.6818 59.4124C59.3571 59.6984 58.963 59.8941 58.5388 59.98C58.3776 60.0442 58.21 60.091 58.0388 60.1199Z" fill="#333333"/>
<path d="M54.7004 62.54C54.2316 62.5394 53.7678 62.4443 53.3365 62.2605C52.9053 62.0767 52.5155 61.8078 52.1904 61.47L46.5305 55.54C46.4812 55.4908 46.4421 55.4323 46.4154 55.3679C46.3887 55.3036 46.375 55.2347 46.375 55.165C46.375 55.0954 46.3887 55.0263 46.4154 54.9619C46.4421 54.8976 46.4812 54.8393 46.5305 54.79C46.5788 54.7411 46.6364 54.7021 46.7 54.6755C46.7635 54.649 46.8316 54.6353 46.9005 54.6353C46.9693 54.6353 47.0374 54.649 47.101 54.6755C47.1645 54.7021 47.2221 54.7411 47.2704 54.79L52.9404 60.72C53.2311 61.0242 53.5963 61.2472 53.9998 61.3665C54.4034 61.4858 54.8311 61.4972 55.2404 61.3999C55.6384 61.3093 56.0061 61.117 56.3076 60.8418C56.6091 60.5666 56.834 60.2182 56.9604 59.8301C57.0024 59.6899 57.0958 59.5708 57.222 59.4966C57.3481 59.4224 57.4975 59.3985 57.6404 59.4299C57.7053 59.4462 57.7662 59.4752 57.8196 59.5154C57.873 59.5556 57.9178 59.606 57.9514 59.6638C57.9849 59.7216 58.0066 59.7857 58.015 59.8521C58.0234 59.9184 58.0185 59.9857 58.0004 60.05V60.1499C57.8217 60.7149 57.4975 61.2229 57.0605 61.623C56.6235 62.0232 56.0889 62.3015 55.5104 62.4299C55.2453 62.4964 54.9737 62.5334 54.7004 62.54Z" fill="#333333"/>
<path d="M51.0395 64.71H50.8495C50.394 64.678 49.9493 64.5563 49.5409 64.3521C49.1325 64.1478 48.7684 63.8652 48.4695 63.52L43.7795 58.3101C43.683 58.2111 43.6289 58.0782 43.6289 57.9399C43.6289 57.8017 43.683 57.669 43.7795 57.5701C43.8287 57.5208 43.8871 57.4815 43.9515 57.4548C44.0158 57.4282 44.0848 57.4146 44.1545 57.4146C44.2241 57.4146 44.2931 57.4282 44.3574 57.4548C44.4218 57.4815 44.4803 57.5208 44.5295 57.5701L49.2095 62.77C49.6304 63.2525 50.2217 63.5534 50.8595 63.6099C51.3791 63.6158 51.8892 63.4706 52.3277 63.1919C52.7662 62.9131 53.1143 62.513 53.3295 62.04C53.3645 61.9805 53.411 61.9284 53.4663 61.887C53.5216 61.8456 53.5847 61.8156 53.6517 61.7988C53.7187 61.7821 53.7884 61.7788 53.8567 61.7893C53.925 61.7998 53.9906 61.8238 54.0495 61.8599C54.1094 61.8958 54.1616 61.9433 54.2031 61.9995C54.2446 62.0557 54.2746 62.1197 54.2913 62.1875C54.3081 62.2553 54.3112 62.326 54.3006 62.395C54.29 62.4641 54.2658 62.5302 54.2295 62.5898C53.9373 63.1973 53.4869 63.7148 52.9255 64.0879C52.3642 64.461 51.7126 64.6759 51.0395 64.71Z" fill="#333333"/>
<path d="M47.4493 65.8499C46.8118 65.8483 46.1994 65.6012 45.7393 65.16L32.1193 51.42L28.1193 50.0999C27.987 50.0544 27.8781 49.9586 27.8162 49.8331C27.7544 49.7076 27.7448 49.5626 27.7893 49.43C27.8109 49.3636 27.8453 49.3022 27.8907 49.2491C27.936 49.196 27.9914 49.1525 28.0537 49.1209C28.1159 49.0893 28.1838 49.0703 28.2534 49.065C28.323 49.0597 28.393 49.0681 28.4593 49.0899L32.6993 50.4901L32.7893 50.5801L46.4993 64.41C46.6876 64.5856 46.92 64.7072 47.1717 64.7618C47.4234 64.8164 47.6851 64.8019 47.9293 64.72C48.1544 64.6498 48.3561 64.5195 48.5129 64.3433C48.6697 64.1672 48.7756 63.9518 48.8193 63.72C48.8414 63.5796 48.9153 63.4526 49.0263 63.3638C49.1373 63.275 49.2775 63.2308 49.4193 63.2401C49.4864 63.2463 49.5516 63.2658 49.6111 63.2974C49.6706 63.329 49.7233 63.3721 49.7661 63.4241C49.8089 63.4762 49.8409 63.5361 49.8603 63.6007C49.8798 63.6652 49.8862 63.7331 49.8793 63.8001V63.8599C49.8159 64.2957 49.6313 64.7049 49.3467 65.0408C49.062 65.3768 48.6887 65.626 48.2693 65.7601C48.0031 65.8364 47.7258 65.8667 47.4493 65.8499Z" fill="#333333"/>
<path d="M33.389 58.96C32.8866 58.959 32.3996 58.7861 32.009 58.47C31.7975 58.2972 31.6236 58.0831 31.4981 57.8406C31.3725 57.5981 31.298 57.3325 31.279 57.0601C31.2588 56.7901 31.2936 56.5188 31.3812 56.2627C31.4689 56.0066 31.6076 55.771 31.7891 55.5701L34.239 52.8899C34.2882 52.8406 34.3467 52.8016 34.4111 52.7749C34.4754 52.7482 34.5443 52.7344 34.614 52.7344C34.6837 52.7344 34.7527 52.7482 34.817 52.7749C34.8814 52.8016 34.9398 52.8406 34.989 52.8899C35.0383 52.9391 35.0774 52.9977 35.1041 53.062C35.1308 53.1264 35.1445 53.1952 35.1445 53.2649C35.1445 53.3345 35.1308 53.4037 35.1041 53.468C35.0774 53.5324 35.0383 53.5907 34.989 53.6399L32.5391 56.3101C32.4551 56.4049 32.3913 56.5159 32.3517 56.6362C32.3122 56.7566 32.2976 56.8838 32.309 57.01C32.3309 57.269 32.4529 57.5093 32.649 57.6799C32.8729 57.8657 33.1607 57.9562 33.4506 57.9319C33.7405 57.9076 34.0092 57.7705 34.199 57.55C34.2997 57.4529 34.4341 57.3984 34.574 57.3984C34.7139 57.3984 34.8484 57.4529 34.949 57.55C34.9983 57.5993 35.0374 57.6576 35.0641 57.7219C35.0908 57.7863 35.1045 57.8554 35.1045 57.925C35.1045 57.9947 35.0908 58.0636 35.0641 58.1279C35.0374 58.1923 34.9983 58.2508 34.949 58.3C34.7465 58.509 34.5041 58.6752 34.2361 58.7886C33.9681 58.902 33.68 58.9602 33.389 58.96Z" fill="#333333"/>
<path d="M35.4499 62.04C34.88 62.041 34.3292 61.8348 33.8999 61.46C33.4218 61.0465 33.1269 60.4605 33.0799 59.8301C33.0583 59.5193 33.0984 59.2071 33.198 58.9119C33.2975 58.6167 33.4545 58.3441 33.6599 58.1099L35.9899 55.55C36.0383 55.5011 36.0959 55.4621 36.1594 55.4355C36.2229 55.409 36.291 55.3953 36.3599 55.3953C36.4287 55.3953 36.4969 55.409 36.5604 55.4355C36.624 55.4621 36.6816 55.5011 36.7299 55.55C36.8271 55.6507 36.8814 55.7852 36.8814 55.925C36.8814 56.0649 36.8271 56.1994 36.7299 56.3L34.4099 58.8499C34.2896 58.9846 34.1996 59.1436 34.1461 59.3162C34.0927 59.4887 34.0769 59.6707 34.0999 59.8499C34.1097 60.0226 34.1546 60.1917 34.232 60.3464C34.3093 60.5012 34.4175 60.6386 34.5499 60.75C34.8087 60.9747 35.1453 61.0889 35.4874 61.0684C35.8295 61.0478 36.1499 60.894 36.3799 60.6399L37.6399 59.26C37.7406 59.1629 37.875 59.1084 38.0149 59.1084C38.1548 59.1084 38.2892 59.1629 38.3899 59.26C38.4392 59.3092 38.4783 59.3675 38.505 59.4319C38.5316 59.4962 38.5454 59.5654 38.5454 59.635C38.5454 59.7047 38.5316 59.7735 38.505 59.8379C38.4783 59.9022 38.4392 59.9608 38.3899 60.01L37.1299 61.3899C36.6767 61.8183 36.0734 62.0519 35.4499 62.04Z" fill="#333333"/>
<path d="M38.6016 64.02C38.0078 64.0197 37.4361 63.7945 37.0015 63.3899C36.5452 62.9668 36.2744 62.3806 36.2482 61.7588C36.222 61.137 36.4424 60.5301 36.8615 60.0701L38.8615 57.95C38.9108 57.9007 38.9692 57.8616 39.0336 57.835C39.0979 57.8083 39.1669 57.7944 39.2365 57.7944C39.3062 57.7944 39.3752 57.8083 39.4395 57.835C39.5039 57.8616 39.5623 57.9007 39.6115 57.95C39.6605 57.9983 39.6994 58.0559 39.726 58.1194C39.7525 58.1829 39.7662 58.2512 39.7662 58.3201C39.7662 58.3889 39.7525 58.457 39.726 58.5205C39.6994 58.584 39.6605 58.6416 39.6115 58.6899L37.6616 60.8101C37.4307 61.0639 37.3095 61.3986 37.3245 61.7415C37.3395 62.0843 37.4894 62.4072 37.7415 62.6399C37.9928 62.8733 38.3261 62.9981 38.6689 62.9868C39.0117 62.9756 39.3361 62.8294 39.5716 62.5801L40.4315 61.6799C40.4792 61.6297 40.5366 61.5898 40.6002 61.5625C40.6638 61.5352 40.7323 61.521 40.8015 61.521C40.8708 61.521 40.9393 61.5352 41.0029 61.5625C41.0665 61.5898 41.1239 61.6297 41.1715 61.6799C41.2208 61.7292 41.26 61.7877 41.2866 61.8521C41.3133 61.9164 41.327 61.9853 41.327 62.0549C41.327 62.1246 41.3133 62.1937 41.2866 62.2581C41.26 62.3224 41.2208 62.3807 41.1715 62.4299L40.3115 63.3398C40.0866 63.5619 39.8193 63.7367 39.5256 63.8535C39.2318 63.9703 38.9176 64.027 38.6016 64.02Z" fill="#333333"/>
<path d="M41.6112 65.96C41.0305 65.9633 40.4712 65.7409 40.0513 65.3398C39.6209 64.9256 39.3712 64.3586 39.3562 63.7615C39.3412 63.1643 39.5622 62.5852 39.9713 62.1499L41.5613 60.47C41.6105 60.4207 41.669 60.3817 41.7333 60.355C41.7977 60.3283 41.8666 60.3145 41.9363 60.3145C42.0059 60.3145 42.0749 60.3283 42.1393 60.355C42.2036 60.3817 42.262 60.4207 42.3113 60.47C42.3605 60.5192 42.3996 60.5777 42.4263 60.6421C42.453 60.7064 42.4667 60.7753 42.4667 60.845C42.4667 60.9146 42.453 60.9835 42.4263 61.0479C42.3996 61.1122 42.3605 61.1707 42.3113 61.22L40.7113 62.9099C40.4949 63.1412 40.3787 63.4488 40.3881 63.7654C40.3975 64.082 40.5316 64.3818 40.7613 64.5999C40.9873 64.8204 41.2906 64.9438 41.6063 64.9438C41.9221 64.9438 42.2253 64.8204 42.4513 64.5999L44.1313 62.96C44.1805 62.9107 44.239 62.8716 44.3033 62.845C44.3677 62.8183 44.4366 62.8044 44.5063 62.8044C44.5759 62.8044 44.6449 62.8183 44.7093 62.845C44.7736 62.8716 44.832 62.9107 44.8813 62.96C44.9302 63.0083 44.9692 63.0659 44.9957 63.1294C45.0223 63.1929 45.0359 63.2612 45.0359 63.3301C45.0359 63.3989 45.0223 63.467 44.9957 63.5305C44.9692 63.594 44.9302 63.6516 44.8813 63.7L43.2113 65.3201C43.0004 65.5275 42.7503 65.6909 42.4756 65.8008C42.2009 65.9107 41.9071 65.9648 41.6112 65.96Z" fill="#333333"/>
<path d="M45.1881 40.8899H45.0581L31.5681 37.44C31.5 37.4249 31.4357 37.3961 31.3792 37.3553C31.3226 37.3144 31.2751 37.2624 31.2395 37.2024C31.2038 37.1424 31.1809 37.0756 31.1721 37.0064C31.1632 36.9372 31.1687 36.8671 31.1881 36.8001C31.2044 36.7327 31.2341 36.6691 31.2753 36.6133C31.3165 36.5575 31.3684 36.5105 31.4281 36.4751C31.4877 36.4397 31.5538 36.4167 31.6225 36.4073C31.6912 36.3978 31.7611 36.402 31.8281 36.42L45.3181 39.8699C45.3863 39.8849 45.4506 39.9137 45.5071 39.9546C45.5636 39.9955 45.6112 40.0477 45.6468 40.1077C45.6824 40.1677 45.7054 40.2343 45.7142 40.3035C45.723 40.3727 45.7176 40.443 45.6981 40.51C45.6672 40.6209 45.6003 40.7184 45.508 40.7871C45.4157 40.8559 45.3032 40.892 45.1881 40.8899Z" fill="#333333"/>
<path d="M27.251 52.0099C27.1481 52.0239 27.0439 52.0239 26.941 52.0099L21.941 50.6498C21.788 50.6101 21.6446 50.5402 21.5192 50.444C21.3938 50.3478 21.289 50.2272 21.211 50.0898C21.1299 49.9525 21.0774 49.8004 21.0568 49.6423C21.0362 49.4841 21.0478 49.3233 21.091 49.1698L25.091 34.1698C25.1753 33.8613 25.3783 33.5987 25.6556 33.4394C25.9329 33.2801 26.2621 33.2373 26.571 33.32L31.571 34.6899C31.7234 34.7305 31.8663 34.8008 31.9915 34.8967C32.1167 34.9925 32.2218 35.1122 32.3007 35.2487C32.3797 35.3852 32.4309 35.536 32.4516 35.6923C32.4722 35.8487 32.4618 36.0075 32.421 36.1598L28.421 51.1598C28.3421 51.4078 28.186 51.6241 27.9755 51.777C27.7651 51.9299 27.5112 52.0115 27.251 52.0099ZM27.251 50.9499C27.2868 50.959 27.3247 50.9537 27.3566 50.935C27.3884 50.9163 27.4116 50.8855 27.421 50.8498L31.481 35.8498C31.4901 35.8113 31.4836 35.7709 31.463 35.7372C31.4424 35.7035 31.4093 35.6793 31.371 35.6698L26.371 34.31C26.3526 34.3039 26.3332 34.3016 26.3139 34.3034C26.2947 34.3052 26.276 34.3111 26.2591 34.3205C26.2422 34.3299 26.2274 34.3427 26.2157 34.3581C26.2039 34.3735 26.1955 34.391 26.191 34.4098L22.191 49.4098C22.1857 49.4466 22.1926 49.4843 22.2106 49.5168C22.2287 49.5493 22.257 49.5748 22.291 49.5898L27.251 50.9499Z" fill="#333333"/>
<path d="M72.4792 52.75C72.2267 52.7519 71.9802 52.6736 71.7753 52.5262C71.5704 52.3788 71.4177 52.1699 71.3392 51.93L66.4292 37.1399C66.3323 36.8358 66.3573 36.506 66.4992 36.22C66.5686 36.0775 66.6666 35.9507 66.787 35.8475C66.9074 35.7443 67.0477 35.6668 67.1992 35.6199L72.1992 33.97C72.3502 33.92 72.5096 33.9001 72.6683 33.9117C72.8269 33.9233 72.9817 33.9661 73.1239 34.0376C73.266 34.1092 73.3926 34.2081 73.4964 34.3287C73.6003 34.4492 73.6794 34.5889 73.7292 34.74L78.6292 49.5201C78.7272 49.8238 78.7013 50.1538 78.5571 50.4385C78.4129 50.7232 78.162 50.9395 77.8592 51.0401L72.8592 52.69C72.7361 52.7286 72.6081 52.7489 72.4792 52.75ZM72.5392 34.97L67.5392 36.6099C67.5009 36.6255 67.4691 36.6538 67.4492 36.69C67.4411 36.7072 67.437 36.7259 67.437 36.7449C67.437 36.7639 67.4411 36.7829 67.4492 36.8001L72.3492 51.5801C72.3607 51.6166 72.3858 51.6472 72.4193 51.6658C72.4528 51.6844 72.4921 51.6894 72.5292 51.68L77.5292 50.0301C77.5483 50.0246 77.566 50.0151 77.5812 50.0022C77.5964 49.9894 77.6086 49.9733 77.6171 49.9554C77.6257 49.9374 77.6302 49.9179 77.6306 49.898C77.6309 49.8781 77.6271 49.8582 77.6192 49.8399L72.7192 35.0601C72.7076 35.0236 72.6825 34.9928 72.649 34.9742C72.6156 34.9556 72.5763 34.9506 72.5392 34.96V34.97Z" fill="#333333"/>
</g>
<defs>
<clipPath id="clip0_1738_334668">
<rect width="57.65" height="53.02" fill="white" transform="translate(21 23)"/>
</clipPath>
</defs>
</svg>
