<svg width="100" height="100" viewBox="0 0 100 100" fill="none" xmlns="http://www.w3.org/2000/svg">
<circle cx="50" cy="50" r="50" fill="#F2F6FB"/>
<g clip-path="url(#clip0_1997_378882)">
<path d="M53.0198 26.3098C53.5197 25.5723 54.2456 25.0174 55.0883 24.7283C55.9309 24.4392 56.8447 24.4317 57.692 24.707C58.5393 24.9823 59.2742 25.5254 59.786 26.2546C60.2979 26.9838 60.5589 27.8596 60.5298 28.75C60.5129 29.4188 60.6588 30.0816 60.9549 30.6816C61.2509 31.2816 61.6883 31.8008 62.2294 32.1943C62.7705 32.5879 63.3991 32.8439 64.0611 32.9407C64.7231 33.0374 65.3987 32.9721 66.0298 32.75C66.8675 32.4518 67.7791 32.4324 68.6286 32.6951C69.4781 32.9577 70.2198 33.4881 70.743 34.207C71.2661 34.926 71.5427 35.795 71.5313 36.6841C71.5199 37.5731 71.2212 38.4346 70.6798 39.1399C70.2702 39.6695 69.9962 40.2912 69.8816 40.9509C69.767 41.6106 69.8153 42.2883 70.0223 42.925C70.2293 43.5618 70.5887 44.1383 71.0693 44.6045C71.5499 45.0707 72.1371 45.4123 72.7798 45.5998C73.6355 45.8496 74.3871 46.3701 74.9218 47.0832C75.4565 47.7963 75.7456 48.6636 75.7456 49.5549C75.7456 50.4462 75.4565 51.3135 74.9218 52.0266C74.3871 52.7397 73.6355 53.2603 72.7798 53.51C72.1371 53.6975 71.5499 54.0392 71.0693 54.5054C70.5887 54.9715 70.2293 55.5481 70.0223 56.1848C69.8153 56.8216 69.767 57.4993 69.8816 58.1589C69.9962 58.8186 70.2702 59.4403 70.6798 59.97C71.2257 60.6749 71.5282 61.5379 71.5418 62.4294C71.5554 63.3209 71.2795 64.1927 70.7554 64.9141C70.2313 65.6354 69.4874 66.1672 68.6353 66.4297C67.7832 66.6922 66.869 66.6712 66.0298 66.3699C65.3987 66.1452 64.7224 66.0778 64.0594 66.1736C63.3963 66.2693 62.7667 66.5254 62.2249 66.9194C61.6831 67.3134 61.2456 67.8335 60.9502 68.4348C60.6549 69.0361 60.5106 69.7002 60.5298 70.3699C60.5537 71.2577 60.29 72.1294 59.7781 72.8552C59.2662 73.581 58.5335 74.122 57.6891 74.3975C56.8448 74.6729 55.934 74.6681 55.0926 74.3838C54.2512 74.0995 53.5241 73.5509 53.0198 72.8198C52.6416 72.2671 52.1342 71.8149 51.5418 71.5024C50.9493 71.19 50.2896 71.0268 49.6198 71.0268C48.9501 71.0268 48.2904 71.19 47.6979 71.5024C47.1055 71.8149 46.5981 72.2671 46.2198 72.8198C45.7172 73.5555 44.9896 74.1085 44.1462 74.3957C43.3027 74.683 42.3889 74.6891 41.5417 74.4131C40.6945 74.1371 39.9596 73.594 39.4472 72.865C38.9348 72.136 38.6726 71.2605 38.6999 70.3699C38.7191 69.7002 38.5748 69.0361 38.2795 68.4348C37.9841 67.8335 37.5466 67.3134 37.0048 66.9194C36.463 66.5254 35.8334 66.2693 35.1703 66.1736C34.5073 66.0778 33.831 66.1452 33.1999 66.3699C32.3613 66.6676 31.449 66.686 30.5992 66.4221C29.7494 66.1582 29.0079 65.6262 28.4856 64.9058C27.9633 64.1854 27.6883 63.3152 27.7017 62.4255C27.7151 61.5358 28.0161 60.6743 28.5598 59.97C28.9671 59.4396 29.2391 58.818 29.3524 58.1589C29.4657 57.4999 29.4168 56.8232 29.2101 56.1872C29.0034 55.5513 28.6449 54.9752 28.1658 54.5088C27.6866 54.0423 27.1011 53.6996 26.4598 53.51C25.6042 53.2603 24.8527 52.7397 24.3179 52.0266C23.7832 51.3135 23.4941 50.4462 23.4941 49.5549C23.4941 48.6636 23.7832 47.7963 24.3179 47.0832C24.8527 46.3701 25.6042 45.8496 26.4598 45.5998C27.1011 45.4103 27.6866 45.0675 28.1658 44.6011C28.6449 44.1346 29.0034 43.5585 29.2101 42.9226C29.4168 42.2866 29.4657 41.61 29.3524 40.9509C29.2391 40.2919 28.9671 39.6703 28.5598 39.1399C28.0125 38.4368 27.7085 37.5747 27.6936 36.6838C27.6787 35.7929 27.9538 34.9214 28.4773 34.2004C29.0009 33.4794 29.7446 32.9481 30.5963 32.6865C31.4481 32.4249 32.3619 32.4472 33.1999 32.75C33.831 32.9747 34.5073 33.042 35.1703 32.9463C35.8334 32.8505 36.463 32.5944 37.0048 32.2004C37.5466 31.8064 37.9841 31.2863 38.2795 30.6851C38.5748 30.0838 38.7191 29.4196 38.6999 28.75C38.6749 27.8603 38.9388 26.9863 39.452 26.259C39.9652 25.5318 40.7001 24.9903 41.5467 24.7156C42.3933 24.4409 43.3061 24.4477 44.1486 24.7351C44.991 25.0225 45.7177 25.5749 46.2198 26.3098C46.5981 26.8625 47.1055 27.3147 47.6979 27.6272C48.2904 27.9396 48.9501 28.103 49.6198 28.103C50.2896 28.103 50.9493 27.9396 51.5418 27.6272C52.1342 27.3147 52.6416 26.8625 53.0198 26.3098Z" fill="#235AB0"/>
<path d="M56.3606 75.11C55.6181 75.1096 54.887 74.927 54.2315 74.5783C53.5759 74.2296 53.016 73.7255 52.6006 73.11C52.2713 72.618 51.8245 72.216 51.3007 71.9401C50.7769 71.6642 50.1926 71.5233 49.6006 71.5302C49.009 71.526 48.4257 71.6679 47.9023 71.9435C47.3789 72.2192 46.9317 72.6199 46.6006 73.11C46.0368 73.9332 45.2217 74.5518 44.2772 74.8732C43.3327 75.1947 42.3095 75.2019 41.3606 74.8935C40.4118 74.5851 39.5883 73.9776 39.0132 73.1623C38.4382 72.3469 38.1426 71.3674 38.1706 70.3701C38.1866 69.7824 38.0592 69.1997 37.7995 68.6723C37.5398 68.1449 37.1556 67.6886 36.68 67.343C36.2044 66.9973 35.6518 66.7728 35.07 66.6887C34.4881 66.6045 33.8945 66.6633 33.3405 66.86C32.4008 67.1943 31.3782 67.2157 30.4254 66.9206C29.4727 66.6255 28.641 66.0299 28.0547 65.2231C27.4684 64.4162 27.159 63.4413 27.1727 62.444C27.1863 61.4467 27.5224 60.4806 28.1306 59.6901C28.4917 59.2252 28.7336 58.6789 28.8353 58.0991C28.937 57.5192 28.8953 56.9233 28.7138 56.3632C28.5324 55.8031 28.2167 55.2958 27.7944 54.8857C27.372 54.4755 26.8557 54.1751 26.2906 54.0102C25.3311 53.7302 24.4883 53.1465 23.8886 52.3469C23.289 51.5472 22.9648 50.5746 22.9648 49.5751C22.9648 48.5756 23.289 47.6031 23.8886 46.8034C24.4883 46.0037 25.3311 45.4201 26.2906 45.1401C26.8557 44.9752 27.372 44.6747 27.7944 44.2646C28.2167 43.8545 28.5324 43.3471 28.7138 42.787C28.8953 42.227 28.937 41.6311 28.8353 41.0512C28.7336 40.4713 28.4917 39.9251 28.1306 39.4601C27.5224 38.6696 27.1863 37.7035 27.1727 36.7062C27.159 35.7089 27.4684 34.734 28.0547 33.9272C28.641 33.1203 29.4727 32.5247 30.4254 32.2297C31.3782 31.9346 32.4008 31.956 33.3405 32.2902C33.8945 32.4869 34.4881 32.5457 35.07 32.4616C35.6518 32.3775 36.2044 32.1529 36.68 31.8073C37.1556 31.4617 37.5398 31.0054 37.7995 30.478C38.0592 29.9505 38.1866 29.3679 38.1706 28.7802C38.1449 27.7838 38.4421 26.8055 39.0179 25.9919C39.5938 25.1783 40.4173 24.5729 41.3656 24.2658C42.3139 23.9587 43.3361 23.9664 44.2796 24.288C45.2231 24.6096 46.0373 25.2276 46.6006 26.05C46.932 26.5408 47.3789 26.943 47.9019 27.2209C48.425 27.4988 49.0083 27.6442 49.6006 27.6442C50.1929 27.6442 50.7761 27.4988 51.2992 27.2209C51.8222 26.943 52.2691 26.5408 52.6006 26.05C53.1639 25.2276 53.978 24.6096 54.9215 24.288C55.865 23.9664 56.8872 23.9587 57.8355 24.2658C58.7838 24.5729 59.6073 25.1783 60.1832 25.9919C60.759 26.8055 61.0563 27.7838 61.0305 28.7802C61.0139 29.3691 61.1412 29.9531 61.4015 30.4816C61.6617 31.0101 62.047 31.4671 62.5239 31.8129C63.0008 32.1588 63.5549 32.3831 64.1381 32.4662C64.7213 32.5494 65.316 32.489 65.8705 32.2902C66.8103 31.956 67.8329 31.9346 68.7856 32.2297C69.7384 32.5247 70.57 33.1203 71.1563 33.9272C71.7426 34.734 72.0521 35.7089 72.0384 36.7062C72.0248 37.7035 71.6887 38.6696 71.0805 39.4601C70.7194 39.9251 70.4775 40.4713 70.3758 41.0512C70.2741 41.6311 70.3158 42.227 70.4973 42.787C70.6787 43.3471 70.9943 43.8545 71.4167 44.2646C71.8391 44.6747 72.3554 44.9752 72.9206 45.1401C73.88 45.4201 74.7228 46.0037 75.3225 46.8034C75.9221 47.6031 76.2463 48.5756 76.2463 49.5751C76.2463 50.5746 75.9221 51.5472 75.3225 52.3469C74.7228 53.1465 73.88 53.7302 72.9206 54.0102C72.3554 54.1751 71.8391 54.4755 71.4167 54.8857C70.9943 55.2958 70.6787 55.8031 70.4973 56.3632C70.3158 56.9233 70.2741 57.5192 70.3758 58.0991C70.4775 58.6789 70.7194 59.2252 71.0805 59.6901C71.6887 60.4806 72.0248 61.4467 72.0384 62.444C72.0521 63.4413 71.7426 64.4162 71.1563 65.2231C70.57 66.0299 69.7384 66.6255 68.7856 66.9206C67.8329 67.2157 66.8103 67.1943 65.8705 66.86C65.316 66.6638 64.722 66.6052 64.1398 66.6894C63.5576 66.7736 63.0046 66.9981 62.5284 67.3434C62.0522 67.6888 61.667 68.1448 61.4061 68.6721C61.1452 69.1993 61.0163 69.782 61.0305 70.3701C61.0746 71.3704 60.7852 72.3571 60.2079 73.1752C59.6305 73.9933 58.7978 74.5964 57.8405 74.8901C57.3619 75.0408 56.8624 75.115 56.3606 75.11ZM49.6205 70.5102C50.3699 70.5111 51.1079 70.6934 51.7714 71.0417C52.4349 71.39 53.0042 71.8939 53.4305 72.5102C53.8728 73.1522 54.5106 73.6341 55.2488 73.8845C55.9871 74.1349 56.7865 74.1403 57.5281 73.8998C58.2697 73.6594 58.9138 73.186 59.3647 72.55C59.8156 71.914 60.0491 71.1494 60.0305 70.3701C60.0097 69.6193 60.1721 68.8749 60.5039 68.2011C60.8356 67.5273 61.3266 66.9446 61.9343 66.5034C62.542 66.0621 63.2482 65.7755 63.9915 65.6686C64.7349 65.5618 65.4932 65.6378 66.2006 65.8901C66.937 66.1518 67.7384 66.1682 68.4849 65.9367C69.2314 65.7052 69.8829 65.2381 70.3421 64.6056C70.8012 63.9732 71.0433 63.2092 71.0323 62.4277C71.0212 61.6462 70.7575 60.8894 70.2805 60.2702C69.8226 59.675 69.5167 58.9771 69.3893 58.237C69.2618 57.4969 69.3167 56.737 69.5491 56.0229C69.7816 55.3088 70.1846 54.6621 70.7233 54.1389C71.2619 53.6156 71.92 53.2318 72.6406 53.0202C73.4132 52.8162 74.0966 52.362 74.5842 51.7289C75.0718 51.0958 75.3362 50.3193 75.3362 49.5202C75.3362 48.7211 75.0718 47.9443 74.5842 47.3112C74.0966 46.6781 73.4132 46.2242 72.6406 46.0202C71.92 45.8086 71.2619 45.4245 70.7233 44.9013C70.1846 44.3781 69.7816 43.7313 69.5491 43.0173C69.3167 42.3032 69.2618 41.5432 69.3893 40.8032C69.5167 40.0631 69.8226 39.3654 70.2805 38.7702C70.753 38.1507 71.013 37.3952 71.0219 36.6161C71.0307 35.8371 70.788 35.0759 70.3297 34.4457C69.8715 33.8156 69.2221 33.3502 68.4782 33.1186C67.7343 32.887 66.9355 32.9015 66.2006 33.1601C65.4932 33.4098 64.7357 33.484 63.9933 33.3762C63.2509 33.2683 62.5459 32.9815 61.9388 32.5407C61.3318 32.0999 60.8409 31.5184 60.5085 30.8459C60.1761 30.1734 60.0121 29.4301 60.0305 28.6801C60.0514 27.8999 59.8195 27.1337 59.3694 26.496C58.9193 25.8583 58.2752 25.3833 57.5331 25.1415C56.7909 24.8998 55.9906 24.9042 55.2513 25.1545C54.5119 25.4047 53.8733 25.8874 53.4305 26.5302C53.0062 27.149 52.4375 27.6549 51.7737 28.0046C51.1099 28.3542 50.3708 28.537 49.6205 28.537C48.8703 28.537 48.1313 28.3542 47.4674 28.0046C46.8036 27.6549 46.2349 27.149 45.8105 26.5302C45.3695 25.8828 44.7303 25.3957 43.9889 25.1425C43.2476 24.8893 42.4441 24.8833 41.6991 25.1257C40.9541 25.368 40.3079 25.8456 39.8573 26.4865C39.4068 27.1274 39.1764 27.8971 39.2006 28.6801C39.2208 29.4297 39.0583 30.1729 38.7271 30.8456C38.396 31.5183 37.906 32.1002 37.2996 32.5412C36.6932 32.9822 35.9885 33.2691 35.2465 33.3769C34.5045 33.4847 33.7474 33.4103 33.0406 33.1601C32.305 32.8979 31.5043 32.8806 30.7581 33.1108C30.0119 33.341 29.3602 33.8064 28.9001 34.4374C28.4401 35.0684 28.1964 35.8314 28.2055 36.6122C28.2146 37.3931 28.476 38.1501 28.9506 38.7702C29.411 39.3639 29.7193 40.0611 29.8487 40.8012C29.9781 41.5413 29.9246 42.3018 29.693 43.0165C29.4613 43.7313 29.0584 44.3786 28.5194 44.902C27.9805 45.4255 27.3217 45.8095 26.6006 46.0202C25.8279 46.2242 25.1445 46.6781 24.6569 47.3112C24.1693 47.9443 23.9049 48.7211 23.9049 49.5202C23.9049 50.3193 24.1693 51.0958 24.6569 51.7289C25.1445 52.362 25.8279 52.8162 26.6006 53.0202C27.3217 53.2309 27.9805 53.6146 28.5194 54.1381C29.0584 54.6616 29.4613 55.3089 29.693 56.0236C29.9246 56.7383 29.9781 57.4988 29.8487 58.2389C29.7193 58.9791 29.411 59.6765 28.9506 60.2702C28.4715 60.89 28.2064 61.6483 28.195 62.4316C28.1837 63.2149 28.4267 63.9808 28.8877 64.6142C29.3486 65.2476 30.0026 65.7142 30.7514 65.9443C31.5002 66.1744 32.3035 66.1554 33.0406 65.8901C33.7474 65.6373 34.5053 65.5611 35.2483 65.6679C35.9913 65.7747 36.697 66.0611 37.3041 66.5026C37.9112 66.9441 38.4013 67.5274 38.7318 68.2014C39.0623 68.8753 39.2232 69.6197 39.2006 70.3701C39.1786 71.1522 39.4107 71.9206 39.8621 72.5597C40.3134 73.1989 40.9597 73.6745 41.7041 73.9155C42.4486 74.1565 43.251 74.1498 43.9913 73.8964C44.7316 73.6431 45.3699 73.1568 45.8105 72.5102C46.2363 71.8933 46.8054 71.3891 47.4691 71.0407C48.1327 70.6923 48.871 70.5103 49.6205 70.5102Z" fill="#333333"/>
<path d="M44.9394 59.8498L39.1094 46.8498L42.2094 45.4598L45.7994 53.4698L57.5094 39.2598L60.1194 41.4198L44.9394 59.8498Z" fill="white"/>
</g>
<defs>
<clipPath id="clip0_1997_378882">
<rect width="53.23" height="51.11" fill="white" transform="translate(23 24)"/>
</clipPath>
</defs>
</svg>
