<svg width="37" height="39" viewBox="0 0 37 39" fill="none" xmlns="http://www.w3.org/2000/svg">
<g clip-path="url(#clip0_891_226330)">
<path d="M28.97 32.7913L28.33 31.9014C28.76 31.5914 29.18 31.2514 29.58 30.9014L27.87 26.4314L28.1 26.1814C28.9903 25.195 29.7254 24.0788 30.28 22.8713L30.41 22.5613L34.86 22.3513C35.0221 21.7256 35.149 21.0914 35.24 20.4514L31.45 18.3413V18.0012C31.45 17.7812 31.45 17.5713 31.45 17.3613C31.4506 16.2098 31.2993 15.0633 31 13.9514L30.92 13.6313L33.86 10.9014C33.5623 10.2628 33.2284 9.64172 32.86 9.04126L29.06 9.78125L28.85 9.50122C27.9945 8.34275 26.9579 7.32976 25.78 6.50122L25.5 6.31128L25.96 2.67139C25.3124 2.34509 24.6443 2.06106 23.96 1.82129L21.71 4.59131L21.37 4.51123C19.8955 4.15084 18.3706 4.04282 16.86 4.19141H16.53L14.58 1.19141C13.9024 1.34065 13.2345 1.53083 12.58 1.76123L12.63 5.34131L12.32 5.49121C10.9271 6.18919 9.66789 7.12683 8.59998 8.26123L8.35997 8.51123L4.70998 7.38135C4.31501 7.88774 3.9478 8.41526 3.60997 8.96143L6.15997 11.9014L6.01997 12.2114C5.42313 13.644 5.08457 15.1709 5.01997 16.7214V17.0713L1.09998 18.7114C1.12307 19.2872 1.17649 19.8613 1.25998 20.4314L5.56998 21.1213L5.66997 21.4414C6.13908 22.8583 6.84213 24.1866 7.74997 25.3713L7.95998 25.6514L5.81998 29.8113C6.27391 30.2919 6.75824 30.7429 7.26997 31.1614L6.55997 32.0112C5.92067 31.4734 5.31612 30.8956 4.74997 30.2812L4.48997 29.9912L6.66997 25.7612C5.87121 24.6391 5.24119 23.4061 4.79997 22.1013L0.35997 21.3914L0.289978 21.0012C0.145869 20.128 0.0623366 19.246 0.039978 18.3613V17.9912L4.03998 16.3213C4.15543 14.8717 4.49269 13.4485 5.03998 12.1013L2.41997 9.10132L2.61998 8.76123C3.0996 7.93873 3.64469 7.15635 4.24997 6.42139L4.47997 6.13135L8.19997 7.28125C9.21835 6.24235 10.3925 5.36869 11.68 4.69141L11.62 1.01123L11.99 0.881348C12.9027 0.541713 13.8428 0.280733 14.8 0.101318L15.17 0.03125L17.17 3.11133C18.5766 3.00244 19.9916 3.10018 21.37 3.40137L23.67 0.571289L24.03 0.691406C25.0149 1.0195 25.9715 1.4275 26.89 1.91138L27.22 2.09131L26.75 5.8313C27.8204 6.61859 28.7762 7.55086 29.59 8.60132L33.45 7.85132L33.66 8.16138C34.2048 9.02013 34.6828 9.91938 35.09 10.8513L35.24 11.2114L32.24 14.0212C32.5083 15.1244 32.6426 16.256 32.64 17.3914V17.7412L36.49 19.8813V20.2512C36.3801 21.2024 36.1894 22.1425 35.92 23.0613L35.82 23.4414L31.24 23.6614C30.7033 24.7422 30.0312 25.7503 29.24 26.6614L30.98 31.1914L30.7 31.4514C30.1497 31.9311 29.572 32.3784 28.97 32.7913Z" fill="#333333"/>
<path d="M11.01 23.4817C9.5788 21.7826 8.7927 19.6334 8.78998 17.4119C8.79263 14.9179 9.78521 12.527 11.5496 10.7644C13.3141 9.00185 15.706 8.01172 18.2 8.01172C20.6922 8.01437 23.0816 9.00555 24.8439 10.7678C26.6061 12.5301 27.5973 14.9196 27.6 17.4119C27.5982 19.5579 26.8645 21.6391 25.52 23.3118L24.66 22.6218C25.8503 21.1463 26.4997 19.3077 26.5 17.4119C26.4973 15.2114 25.622 13.1016 24.066 11.5457C22.5101 9.98968 20.4005 9.11446 18.2 9.11182C15.9977 9.11181 13.8856 9.98597 12.3275 11.5422C10.7693 13.0985 9.89262 15.2096 9.88997 17.4119C9.90468 19.3783 10.6129 21.2763 11.89 22.7717L11.01 23.4817Z" fill="#333333"/>
<path d="M18.31 25.9788C16.9802 25.963 15.71 25.4243 14.7743 24.4792C13.8386 23.5342 13.3125 22.2589 13.31 20.929V16.929C13.3125 15.599 13.8386 14.3235 14.7743 13.3784C15.71 12.4333 16.9802 11.8947 18.31 11.8789C19.6485 11.8815 20.9315 12.4144 21.878 13.3608C22.8245 14.3073 23.3574 15.5904 23.36 16.929V20.929C23.3574 22.2675 22.8245 23.5503 21.878 24.4968C20.9315 25.4433 19.6485 25.9761 18.31 25.9788ZM18.31 12.9788C17.2578 12.9919 16.2532 13.4192 15.5138 14.168C14.7745 14.9167 14.3599 15.9265 14.36 16.9788V20.9788C14.3599 22.031 14.7745 23.0411 15.5138 23.7898C16.2532 24.5385 17.2578 24.9656 18.31 24.9788C19.3709 24.9788 20.3883 24.5575 21.1384 23.8074C21.8886 23.0572 22.31 22.0396 22.31 20.9788V16.9788C22.314 16.451 22.2134 15.9277 22.0142 15.439C21.8149 14.9502 21.5209 14.5057 21.1491 14.1311C20.7773 13.7565 20.335 13.459 19.8477 13.2561C19.3604 13.0532 18.8378 12.949 18.31 12.949V12.9788Z" fill="#333333"/>
<path d="M23.86 38.6507H12.53C11.5726 38.6507 10.6543 38.2703 9.97733 37.5933C9.30032 36.9163 8.91998 35.998 8.91998 35.0406V30.8907C8.96961 30.3986 9.13157 29.9245 9.39337 29.5049C9.65517 29.0853 10.0098 28.7316 10.43 28.4707C11.2886 27.8124 12.2666 27.3266 13.31 27.0406L16.82 26.0406C16.8896 26.0208 16.9624 26.0148 17.0343 26.0232C17.1062 26.0316 17.1757 26.0541 17.2389 26.0894C17.302 26.1247 17.3576 26.1722 17.4024 26.229C17.4472 26.2859 17.4804 26.351 17.5 26.4207C17.5212 26.4903 17.5282 26.5634 17.5204 26.6358C17.5126 26.7081 17.4904 26.7781 17.4549 26.8416C17.4194 26.9051 17.3714 26.9609 17.3139 27.0054C17.2563 27.0499 17.1904 27.0822 17.12 27.1006L13.61 28.1006C12.7055 28.3466 11.8568 28.7641 11.11 29.3306C10.62 29.7206 10.03 30.3307 10.03 30.8907V35.0406C10.0287 35.3697 10.0924 35.6958 10.2174 36.0003C10.3425 36.3048 10.5264 36.5818 10.7587 36.815C10.991 37.0482 11.267 37.2332 11.571 37.3594C11.8749 37.4857 12.2008 37.5506 12.53 37.5506H23.86C24.5257 37.5506 25.1641 37.2862 25.6348 36.8155C26.1055 36.3448 26.37 35.7063 26.37 35.0406V30.8907C26.37 30.3107 25.78 29.7206 25.28 29.3306C24.5416 28.7625 23.6991 28.3447 22.8 28.1006L19.39 27.1006C19.3203 27.081 19.2552 27.0478 19.1984 27.003C19.1416 26.9582 19.0942 26.9026 19.0589 26.8394C19.0236 26.7762 19.0011 26.7069 18.9927 26.635C18.9843 26.5632 18.9902 26.4903 19.01 26.4207C19.0519 26.2815 19.1462 26.164 19.2731 26.0931C19.4 26.0221 19.5495 26.0033 19.69 26.0406L23.1 27.0406C24.1434 27.3266 25.1214 27.8124 25.98 28.4707C26.4001 28.7316 26.7548 29.0853 27.0166 29.5049C27.2784 29.9245 27.4404 30.3986 27.49 30.8907V35.0406C27.49 35.5163 27.396 35.9875 27.2133 36.4268C27.0306 36.8661 26.7629 37.2649 26.4256 37.6004C26.0882 37.9359 25.6879 38.2014 25.2476 38.3816C24.8073 38.5619 24.3357 38.6533 23.86 38.6507Z" fill="#333333"/>
<path d="M16.97 27.1017C16.8241 27.1017 16.6842 27.0437 16.5811 26.9405C16.4779 26.8374 16.42 26.6975 16.42 26.5516V25.4017C16.42 25.2558 16.4779 25.1159 16.5811 25.0128C16.6842 24.9096 16.8241 24.8517 16.97 24.8517C17.0426 24.8503 17.1147 24.8636 17.1821 24.8907C17.2494 24.9179 17.3106 24.9583 17.3619 25.0096C17.4133 25.061 17.4537 25.1222 17.4809 25.1895C17.508 25.2569 17.5213 25.3291 17.52 25.4017V26.5516C17.5213 26.6242 17.508 26.6964 17.4809 26.7638C17.4537 26.8311 17.4133 26.8924 17.3619 26.9437C17.3106 26.995 17.2494 27.0354 17.1821 27.0626C17.1147 27.0898 17.0426 27.103 16.97 27.1017Z" fill="#333333"/>
<path d="M19.52 27.1589C19.3741 27.1589 19.2342 27.1009 19.1311 26.9978C19.0279 26.8947 18.97 26.7548 18.97 26.6089V25.429C18.97 25.2831 19.0279 25.1432 19.1311 25.04C19.2342 24.9369 19.3741 24.8789 19.52 24.8789C19.6658 24.8789 19.8057 24.9369 19.9089 25.04C20.012 25.1432 20.07 25.2831 20.07 25.429V26.6089C20.07 26.7548 20.012 26.8947 19.9089 26.9978C19.8057 27.1009 19.6658 27.1589 19.52 27.1589Z" fill="#333333"/>
<path d="M18.2 31.8291C16.44 31.8291 15 29.9592 15 27.6592C14.9997 27.4014 15.0198 27.1439 15.06 26.8892C15.0698 26.8176 15.0937 26.7487 15.1302 26.6863C15.1666 26.624 15.2151 26.5693 15.2726 26.5257C15.3302 26.482 15.3958 26.4502 15.4657 26.4319C15.5356 26.4136 15.6084 26.4094 15.68 26.4192C15.8254 26.4415 15.9562 26.5199 16.0441 26.6377C16.132 26.7556 16.1701 26.9034 16.15 27.0491C16.1348 27.2522 16.1348 27.4562 16.15 27.6592C16.15 29.3192 17.15 30.7193 18.25 30.7193C19.35 30.7193 20.34 29.3192 20.34 27.6592C20.3387 27.4549 20.322 27.2509 20.29 27.0491C20.2699 26.9034 20.308 26.7556 20.3959 26.6377C20.4838 26.5199 20.6146 26.4415 20.76 26.4192C20.8316 26.4094 20.9044 26.4136 20.9743 26.4319C21.0442 26.4502 21.1098 26.482 21.1674 26.5257C21.225 26.5693 21.2734 26.624 21.3098 26.6863C21.3463 26.7487 21.3702 26.8176 21.38 26.8892C21.4202 27.1439 21.4403 27.4014 21.44 27.6592C21.39 29.9592 19.96 31.8291 18.2 31.8291Z" fill="#333333"/>
<path d="M19.97 17.4982C19.5013 17.4986 19.0378 17.4 18.61 17.2084C18.1831 16.9949 17.8025 16.6991 17.49 16.3383C17.3025 16.0887 17.0449 15.9007 16.75 15.7982C16.11 15.6482 15.23 16.1582 14.22 17.2482C14.1689 17.2996 14.1081 17.3405 14.0412 17.3683C13.9743 17.3961 13.9025 17.4105 13.83 17.4105C13.7575 17.4105 13.6858 17.3961 13.6188 17.3683C13.5519 17.3405 13.4911 17.2996 13.44 17.2482C13.3886 17.1971 13.3478 17.1364 13.32 17.0695C13.2922 17.0025 13.2778 16.9308 13.2778 16.8583C13.2778 16.7858 13.2922 16.714 13.32 16.6471C13.3478 16.5802 13.3886 16.5195 13.44 16.4684C14.77 15.0284 15.94 14.4684 17.02 14.6984C17.5315 14.839 17.9861 15.1361 18.32 15.5482C18.5358 15.8078 18.8009 16.0221 19.1 16.1784C19.68 16.4484 20.59 16.6082 22.49 15.5282C22.5521 15.4909 22.621 15.4666 22.6927 15.4564C22.7644 15.4463 22.8374 15.4507 22.9074 15.4694C22.9774 15.488 23.0429 15.5206 23.1 15.5651C23.1572 15.6096 23.2048 15.6649 23.24 15.7282C23.2756 15.7912 23.2984 15.8607 23.307 15.9325C23.3157 16.0043 23.3101 16.0772 23.2906 16.1469C23.2711 16.2165 23.2381 16.2816 23.1933 16.3385C23.1486 16.3954 23.0931 16.4428 23.03 16.4782C22.1181 17.0826 21.0622 17.4346 19.97 17.4982Z" fill="#333333"/>
</g>
<defs>
<clipPath id="clip0_891_226330">
<rect width="36.43" height="38.65" fill="white"/>
</clipPath>
</defs>
</svg>
