<svg width="100" height="97" viewBox="0 0 100 97" fill="none" xmlns="http://www.w3.org/2000/svg">
<ellipse cx="50" cy="48.4262" rx="50" ry="48.4262" fill="#F2F6FB"/>
<g clip-path="url(#clip0_1081_174652)">
<path d="M33.8165 55.1705L38.8179 53.6179L40.0045 52.4979V45.7776L41.6014 43.7039L46.6028 40.3327L45.9596 38.27L45.4827 34.6104L47.0796 30.6626L49.7855 28.7773L52.7907 28.9326L55.0308 30.6626L56.2839 33.1355L56.6277 36.8949L55.9513 38.7912L55.0308 40.3327L60.5091 43.7039L62.106 45.5115L62.3943 47.2193V54.0393L63.8692 53.5181L66.1426 53.8065L67.562 54.9819V56.0576L59.5221 63.5431L54.2878 65.4948L47.8559 65.262L40.0045 65.0513L33.5947 66.1269L33.8165 55.1705Z" fill="white"/>
<path d="M33.1514 66.8458C33.0228 66.8455 32.8979 66.8029 32.7957 66.7248C32.6936 66.6467 32.6198 66.5372 32.5859 66.4132C32.5484 66.2618 32.5715 66.1019 32.6502 65.9673C32.7289 65.8327 32.857 65.7341 33.0073 65.6925C37.3447 64.7375 41.7901 64.3646 46.226 64.5835C47.0466 64.5835 47.8784 64.7054 48.7101 64.783C50.2521 64.962 51.8045 65.036 53.3566 65.0048C55.7501 64.9459 58.0513 64.0693 59.8772 62.5207L66.6973 56.0335C66.8065 55.9289 66.8703 55.7854 66.8747 55.6342C66.876 55.5581 66.862 55.4827 66.8334 55.4122C66.8048 55.3417 66.7623 55.2777 66.7084 55.224C66.1172 54.6094 65.3061 54.2546 64.4534 54.238C63.6008 54.2213 62.7764 54.5441 62.1617 55.1352L56.6169 60.5246C56.5053 60.6323 56.3562 60.6927 56.2011 60.6927C56.0459 60.6927 55.8968 60.6323 55.7852 60.5246C55.7305 60.47 55.6872 60.4053 55.6576 60.334C55.628 60.2626 55.6128 60.1859 55.6128 60.1087C55.6128 60.0315 55.628 59.9551 55.6576 59.8837C55.6872 59.8124 55.7305 59.7474 55.7852 59.6928L61.33 54.3035C62.1736 53.5053 63.2966 53.0698 64.4577 53.0906C65.6188 53.1113 66.7256 53.5867 67.5401 54.4145C67.8619 54.7513 68.0373 55.2017 68.0281 55.6675C68.0261 55.8962 67.978 56.1222 67.8865 56.3319C67.795 56.5415 67.6621 56.7305 67.4958 56.8874L60.6757 63.3857C58.6424 65.1245 56.0752 66.1146 53.401 66.1914C51.7933 66.2206 50.1854 66.1428 48.5881 65.9586C47.7785 65.881 46.9579 65.8034 46.1484 65.7591C41.8341 65.568 37.5134 65.9408 33.2956 66.868C33.2466 66.8701 33.1976 66.8625 33.1514 66.8458Z" fill="#333333"/>
<path d="M54.4548 60.935H52.1149C50.6765 60.9374 49.2418 60.7888 47.8344 60.4915L43.5094 59.5599C43.4336 59.5441 43.3617 59.5135 43.2977 59.4697C43.2338 59.426 43.1791 59.3701 43.1368 59.3051C43.0946 59.2402 43.0656 59.1674 43.0515 59.0912C43.0374 59.0151 43.0385 58.9369 43.0548 58.8611C43.0894 58.7094 43.1816 58.5772 43.312 58.4924C43.4424 58.4075 43.6007 58.3767 43.7534 58.4065L48.0783 59.3382C49.4046 59.6256 50.7579 59.7705 52.1149 59.7705H54.4548C54.6631 59.7705 54.8693 59.7295 55.0617 59.6498C55.2541 59.5701 55.4289 59.4535 55.5762 59.3062C55.7234 59.159 55.8402 58.9839 55.9199 58.7915C55.9996 58.5991 56.0406 58.3931 56.0406 58.1848C56.0406 57.7642 55.8736 57.3608 55.5762 57.0634C55.2788 56.766 54.8754 56.5991 54.4548 56.5991H52.3922C50.4128 56.6007 48.454 56.1968 46.6367 55.4124L46.3373 55.2792C45.2636 54.7762 44.1511 54.3609 43.0104 54.0373C41.31 53.6311 39.5347 53.66 37.8484 54.1213C36.1621 54.5826 34.6193 55.4613 33.3625 56.6765C33.3079 56.7312 33.2431 56.7747 33.1717 56.8043C33.1004 56.8339 33.0239 56.849 32.9467 56.849C32.8694 56.849 32.7929 56.8339 32.7216 56.8043C32.6502 56.7747 32.5854 56.7312 32.5308 56.6765C32.4761 56.6219 32.4328 56.5573 32.4032 56.4859C32.3736 56.4146 32.3584 56.3379 32.3584 56.2607C32.3584 56.1834 32.3736 56.107 32.4032 56.0357C32.4328 55.9643 32.4761 55.8994 32.5308 55.8448C33.9332 54.4879 35.6549 53.5062 37.5369 52.9906C39.419 52.4751 41.4006 52.4423 43.2988 52.8951C44.5127 53.2308 45.6961 53.6685 46.8363 54.2036L47.1357 54.3257C48.8035 55.0566 50.6046 55.4342 52.4254 55.4346H54.4881C55.2204 55.4346 55.9228 55.7255 56.4406 56.2433C56.9585 56.7612 57.2494 57.4636 57.2494 58.1959C57.2465 58.5595 57.1718 58.9188 57.0297 59.2534C56.8875 59.5881 56.6807 59.8913 56.4211 60.1458C56.1614 60.4003 55.8541 60.6011 55.5166 60.7365C55.1792 60.872 54.8184 60.9394 54.4548 60.935Z" fill="#333333"/>
<path d="M62.1174 54.904C61.9616 54.904 61.8121 54.842 61.7018 54.7318C61.5916 54.6216 61.5297 54.4721 61.5297 54.3162V47.2299C61.5371 46.4686 61.3336 45.7202 60.942 45.0675C60.7304 44.7205 60.4602 44.413 60.1435 44.1583C58.4155 42.9421 56.6157 41.8311 54.754 40.8314C54.6866 40.7954 54.6271 40.7464 54.5788 40.6871C54.5306 40.6279 54.4946 40.5595 54.4729 40.4862C54.4512 40.413 54.4443 40.3361 54.4526 40.2602C54.4609 40.1842 54.4842 40.1107 54.5211 40.0439C54.5571 39.975 54.6066 39.9141 54.6667 39.8649C54.7267 39.8157 54.7962 39.7792 54.8707 39.7574C54.9453 39.7357 55.0235 39.7292 55.1006 39.7385C55.1777 39.7477 55.2522 39.7723 55.3196 39.811C57.2353 40.8402 59.087 41.9846 60.8643 43.2378C61.2738 43.5742 61.6259 43.975 61.9067 44.4244C62.4241 45.264 62.6933 46.2326 62.683 47.2188V54.2829C62.6875 54.361 62.6763 54.4393 62.6502 54.5131C62.6241 54.5868 62.5835 54.6545 62.5308 54.7123C62.4781 54.7702 62.4144 54.817 62.3434 54.8499C62.2725 54.8828 62.1956 54.9012 62.1174 54.904Z" fill="#333333"/>
<path d="M40.005 53.7617C39.8491 53.7617 39.6996 53.6998 39.5893 53.5895C39.4791 53.4793 39.4172 53.3298 39.4172 53.1739V47.2298C39.4084 46.2454 39.6733 45.2781 40.1824 44.4355C40.4638 43.9832 40.82 43.5818 41.2359 43.2489C43.01 41.9908 44.862 40.8462 46.7807 39.8221C46.8472 39.7836 46.9208 39.7592 46.9971 39.7501C47.0734 39.741 47.1507 39.7475 47.2244 39.7693C47.2981 39.7911 47.3666 39.8276 47.4256 39.8768C47.4847 39.9259 47.5332 39.9865 47.568 40.0549C47.605 40.1218 47.6282 40.1953 47.6365 40.2712C47.6448 40.3472 47.6379 40.4241 47.6162 40.4973C47.5946 40.5706 47.5586 40.639 47.5103 40.6982C47.4621 40.7574 47.4025 40.8062 47.3351 40.8422C45.4749 41.8445 43.6753 42.9554 41.9456 44.1691C41.6352 44.4272 41.3692 44.7344 41.1583 45.0785C40.7616 45.7292 40.5578 46.479 40.5705 47.2409V53.1739C40.5706 53.3261 40.5118 53.4723 40.4063 53.582C40.3008 53.6916 40.157 53.756 40.005 53.7617Z" fill="#333333"/>
<path d="M51.061 42.9931C47.6676 42.9931 44.9062 39.6662 44.9062 35.4965C44.9062 31.3269 47.6676 28 51.061 28C54.4544 28 57.2046 31.3269 57.2046 35.4965C57.2046 39.6662 54.4544 42.9931 51.061 42.9931ZM51.061 29.1645C48.3107 29.1645 46.0817 32.0033 46.0817 35.4965C46.0817 38.9898 48.2997 41.8175 51.061 41.8175C53.8222 41.8175 56.0402 38.9898 56.0402 35.4965C56.0402 32.0033 53.8001 29.1645 51.061 29.1645Z" fill="#333333"/>
<path d="M34.2273 53.1641H32.2644C31.8724 53.1641 31.5547 53.4818 31.5547 53.8738V66.7266C31.5547 67.1186 31.8724 67.4363 32.2644 67.4363H34.2273C34.6192 67.4363 34.937 67.1186 34.937 66.7266V53.8738C34.937 53.4818 34.6192 53.1641 34.2273 53.1641Z" fill="#235AB0"/>
<path d="M34.216 67.9907H32.2753C31.939 67.9907 31.6163 67.8576 31.3774 67.6209C31.1386 67.3841 31.0029 67.0627 31 66.7263V53.8735C31.0029 53.5372 31.1386 53.2157 31.3774 52.9789C31.6163 52.7422 31.939 52.6094 32.2753 52.6094H34.216C34.5523 52.6094 34.875 52.7422 35.1138 52.9789C35.3527 53.2157 35.4883 53.5372 35.4913 53.8735V66.7263C35.4883 67.0627 35.3527 67.3841 35.1138 67.6209C34.875 67.8576 34.5523 67.9907 34.216 67.9907ZM32.2753 53.7183C32.233 53.7182 32.1923 53.7342 32.1614 53.763C32.1305 53.7918 32.1118 53.8313 32.109 53.8735V66.7263C32.1118 66.7685 32.1305 66.808 32.1614 66.8368C32.1923 66.8656 32.233 66.8818 32.2753 66.8818H34.216C34.2582 66.8818 34.2989 66.8656 34.3298 66.8368C34.3607 66.808 34.3795 66.7685 34.3823 66.7263V53.8735C34.3795 53.8313 34.3607 53.7918 34.3298 53.763C34.2989 53.7342 34.2582 53.7182 34.216 53.7183H32.2753Z" fill="#333333"/>
</g>
<defs>
<clipPath id="clip0_1081_174652">
<rect width="37.0391" height="40" fill="white" transform="translate(31 28)"/>
</clipPath>
</defs>
</svg>
