<svg width="100" height="100" viewBox="0 0 100 100" fill="none" xmlns="http://www.w3.org/2000/svg">
<circle cx="50" cy="50" r="50" fill="#F2F6FB"/>
<g clip-path="url(#clip0_1756_335676)">
<path d="M38.1484 23.9399H71.2584V27.8601H74.7184V66.02C74.7184 66.02 74.2084 75.8 67.7184 75.8H40.9884V71.8799L38.1484 71.55V23.9399Z" fill="white"/>
<path d="M71.2583 27.5H74.7183V66.1101C74.7183 71.2901 71.2083 75.49 66.8883 75.49H40.9883V71.3401" stroke="#333333" stroke-width="1.06" stroke-linecap="round" stroke-linejoin="round"/>
<path d="M62.6984 23.52H38.1484V71.3401H64.1484C64.7775 71.2791 65.3575 70.9735 65.7634 70.489C66.1692 70.0046 66.3686 69.38 66.3184 68.75V65.48H69.0484C69.6794 65.4191 70.2609 65.1121 70.6671 64.6255C71.0733 64.1388 71.2713 63.5115 71.2184 62.8799V23.53H62.6584" stroke="#333333" stroke-width="1.06" stroke-linecap="round" stroke-linejoin="round"/>
<path d="M54.7119 57.4301C60.1187 57.4301 64.5019 53.047 64.5019 47.6401C64.5019 42.2332 60.1187 37.8501 54.7119 37.8501C49.305 37.8501 44.9219 42.2332 44.9219 47.6401C44.9219 53.047 49.305 57.4301 54.7119 57.4301Z" fill="#235AB0"/>
<path d="M51.8714 53.1699L48.9414 47.0399L50.7414 46.1699L52.4414 49.7199L58.8614 43.1399L60.2914 44.5399L51.8714 53.1699Z" fill="white"/>
<path d="M47.7112 71.3999H25.5312V75.7499H47.7112V71.3999Z" fill="#235AB0"/>
<path d="M26.4883 71.7199L27.2683 68.3899L29.8483 66.6399L33.5183 66.5399L33.8283 63.7999H35.0483V59.4799L33.4583 56.1499L31.4983 52.9999L31.8883 49.1899L35.2783 46.9399H37.7583L40.3983 48.5499L41.7583 51.6299L41.0983 54.6899L38.3083 58.4499L37.7783 62.2399L38.2183 63.9899H39.6183L39.6683 66.6999L44.2883 66.8199L46.1083 68.8899L46.5883 71.7199H26.4883Z" fill="white"/>
<path d="M48.07 76H25V71.1699H48.07V76ZM26 75H47.07V72.1699H26V75Z" fill="#333333"/>
<path d="M39.1192 67.0801H33.9492C33.684 67.0801 33.4296 66.9746 33.2421 66.7871C33.0546 66.5996 32.9492 66.3453 32.9492 66.0801V64.3401C32.9492 64.0749 33.0546 63.8203 33.2421 63.6328C33.4296 63.4453 33.684 63.3401 33.9492 63.3401H39.1192C39.3844 63.3401 39.6388 63.4453 39.8263 63.6328C40.0139 63.8203 40.1192 64.0749 40.1192 64.3401V66.0801C40.1192 66.3453 40.0139 66.5996 39.8263 66.7871C39.6388 66.9746 39.3844 67.0801 39.1192 67.0801ZM39.1192 64.3601H33.9692V66.0801H39.0992L39.1192 64.3601Z" fill="#333333"/>
<path d="M46.9599 71.3999H45.9599C45.9599 69.0199 44.6198 67.0801 42.9598 67.0801H30.0898C28.4398 67.0801 27.0898 69.0199 27.0898 71.3999H26.0898C26.0898 68.4699 27.8798 66.0801 30.0898 66.0801H42.9698C45.1698 66.0801 46.9599 68.4699 46.9599 71.3999Z" fill="#333333"/>
<path d="M35.3206 64.3L34.3206 64.0701C35.5406 58.8401 32.6206 56.13 32.5006 56.02C31.9753 55.4947 31.5586 54.8711 31.2744 54.1848C30.9901 53.4985 30.8437 52.7629 30.8438 52.02C30.8438 51.2772 30.9901 50.5415 31.2744 49.8552C31.5586 49.1689 31.9753 48.5453 32.5006 48.02C33.0259 47.4947 33.6495 47.078 34.3358 46.7937C35.0221 46.5094 35.7577 46.363 36.5006 46.363C37.2435 46.363 37.9791 46.5094 38.6654 46.7937C39.3517 47.078 39.9753 47.4947 40.5006 48.02L39.7906 48.72C38.9194 47.8501 37.7382 47.3619 36.5071 47.3628C35.2759 47.3637 34.0955 47.8539 33.2256 48.7251C32.3557 49.5963 31.8675 50.7774 31.8685 52.0085C31.8694 53.2397 32.3594 54.4201 33.2306 55.29C33.3706 55.4 36.7106 58.46 35.3206 64.3Z" fill="#333333"/>
<path d="M37.7108 64.3C36.3608 58.46 39.7108 55.4 39.8408 55.3C40.6485 54.4144 41.083 53.2508 41.0537 52.0525C41.0243 50.8542 40.5333 49.7137 39.6831 48.8687C38.8329 48.0236 37.6892 47.5394 36.4907 47.5173C35.2922 47.4952 34.1315 47.9369 33.2508 48.75L32.5508 48.05C33.6116 46.9892 35.0505 46.3931 36.5508 46.3931C38.0511 46.3931 39.4899 46.9892 40.5508 48.05C41.6116 49.1109 42.2076 50.5498 42.2076 52.05C42.2076 53.5503 41.6116 54.9892 40.5508 56.05C40.4108 56.18 37.5508 58.8901 38.7108 64.1201L37.7108 64.3Z" fill="#333333"/>
</g>
<defs>
<clipPath id="clip0_1756_335676">
<rect width="50.25" height="53.02" fill="white" transform="translate(25 23)"/>
</clipPath>
</defs>
</svg>
