<svg width="90" height="90" viewBox="0 0 90 90" fill="none" xmlns="http://www.w3.org/2000/svg">
<circle cx="45" cy="45" r="45" fill="#FAFAFA"/>
<g clip-path="url(#clip0_1988_378937)">
<path d="M66.3596 20.5H22.8096V49.15H66.3596V20.5Z" fill="white"/>
<path d="M66.8703 49.6599H22.3203V20H66.8703V49.6599ZM23.3203 48.6599H65.8703V21H23.3203V48.6599Z" fill="#333333"/>
<path d="M75.4095 69.9301L13.7695 69.6701L22.9295 49.1001H66.4795L75.4095 69.9301Z" fill="white"/>
<path d="M76.1397 70.4802L12.9697 70.2202L22.5797 48.6401H66.7897L76.1397 70.4802ZM14.5097 69.2202L74.6197 69.4702L66.1397 49.6003H23.2397L14.5097 69.2202Z" fill="#333333"/>
<path d="M44.5901 44.5201C49.8423 44.5201 54.1001 40.1818 54.1001 34.8301C54.1001 29.4785 49.8423 25.1401 44.5901 25.1401C39.3379 25.1401 35.0801 29.4785 35.0801 34.8301C35.0801 40.1818 39.3379 44.5201 44.5901 44.5201Z" fill="#235AB0"/>
<path d="M44.59 45.0199C42.5669 45.0577 40.5784 44.4922 38.8779 43.3957C37.1774 42.2992 35.8418 40.7213 35.0413 38.8629C34.2408 37.0046 34.0117 34.9499 34.3831 32.9608C34.7546 30.9718 35.7099 29.1384 37.1271 27.6942C38.5443 26.2501 40.3594 25.2605 42.3411 24.8517C44.3228 24.4429 46.3813 24.6335 48.2544 25.3988C50.1274 26.1642 51.7302 27.4697 52.8585 29.1493C53.9869 30.8289 54.5896 32.8066 54.59 34.83C54.6113 37.5062 53.5707 40.0817 51.6961 41.9919C49.8216 43.902 47.2661 44.9909 44.59 45.0199ZM44.59 25.6398C42.7648 25.6021 40.9696 26.1088 39.4336 27.0954C37.8975 28.082 36.6901 29.5038 35.9653 31.1794C35.2405 32.8549 35.0312 34.7086 35.364 36.5036C35.6969 38.2986 36.5568 39.9536 37.8341 41.258C39.1115 42.5623 40.7484 43.4565 42.536 43.8268C44.3237 44.1971 46.1812 44.0267 47.8715 43.3371C49.5619 42.6474 51.0085 41.4699 52.027 39.9547C53.0455 38.4396 53.5896 36.6556 53.59 34.83C53.6113 32.419 52.676 30.0978 50.989 28.3752C49.302 26.6525 47.0009 25.6688 44.59 25.6398Z" fill="#333333"/>
<path d="M48.69 35.28L48.03 38.98C48.009 39.0695 47.9788 39.1567 47.94 39.24C47.8936 39.3268 47.8365 39.4074 47.77 39.48C47.6877 39.5582 47.5885 39.6163 47.48 39.6499C47.3314 39.6974 47.1761 39.7211 47.02 39.72C46.8639 39.7217 46.7085 39.698 46.56 39.6499C46.4557 39.609 46.3606 39.5479 46.28 39.47C46.2086 39.4055 46.1507 39.3273 46.11 39.24C46.0711 39.1567 46.041 39.0695 46.02 38.98L45.24 35.28H43.9L43.15 38.98C43.1245 39.0682 43.0944 39.1549 43.06 39.24C43.0158 39.3252 42.9585 39.4028 42.89 39.47C42.8074 39.5452 42.7127 39.606 42.61 39.6499C42.4615 39.698 42.3061 39.7217 42.15 39.72C41.9906 39.7218 41.8319 39.6981 41.68 39.6499C41.5745 39.6162 41.4786 39.558 41.4 39.48C41.3304 39.41 41.273 39.3289 41.23 39.24C41.1912 39.1567 41.161 39.0695 41.14 38.98L40.46 35.28H39.39C39.295 35.2846 39.2019 35.2523 39.13 35.19C39.059 35.114 39.0195 35.0139 39.0195 34.9099C39.0195 34.806 39.059 34.7058 39.13 34.6299C39.2009 34.5649 39.2938 34.5293 39.39 34.53H40.32L39.61 30.53C39.55 30.32 39.55 30.1701 39.61 30.0901C39.6717 30.0134 39.7555 29.9574 39.85 29.9299C39.9639 29.8939 40.0861 29.8939 40.2 29.9299C40.2554 29.9571 40.3039 29.9965 40.342 30.0449C40.3801 30.0934 40.4068 30.1498 40.42 30.21L41.16 34.48H43.21L44.1 30.21C44.1253 30.1064 44.1898 30.0167 44.28 29.96C44.3566 29.9092 44.449 29.8878 44.54 29.8999C44.6342 29.8889 44.7294 29.9101 44.81 29.96C44.8943 30.0228 44.9572 30.1101 44.99 30.21L45.89 34.48H47.94L48.69 30.21C48.7033 30.1498 48.7299 30.0934 48.768 30.0449C48.8061 29.9965 48.8547 29.9571 48.91 29.9299C49.0119 29.8913 49.1231 29.885 49.2287 29.9119C49.3343 29.9387 49.429 29.9975 49.5 30.0801C49.58 30.1601 49.59 30.31 49.5 30.52L48.78 34.52H49.78C49.8755 34.5228 49.9673 34.5579 50.04 34.6199C50.1051 34.6987 50.1406 34.7977 50.1406 34.8999C50.1406 35.0021 50.1051 35.1011 50.04 35.1799C49.9663 35.239 49.8745 35.2709 49.78 35.27L48.69 35.28ZM42.15 38.94C42.1722 38.9493 42.196 38.9541 42.22 38.9541C42.2441 38.9541 42.2679 38.9493 42.29 38.94C42.3158 38.9068 42.3361 38.8698 42.35 38.8301L43.08 35.3201H41.33L41.93 38.8301C41.9487 38.8684 41.9792 38.8997 42.017 38.9195C42.0547 38.9392 42.0979 38.9464 42.14 38.94H42.15ZM44.05 34.53H45.05L44.53 32.0401L44.05 34.53ZM47.05 38.94C47.0737 38.9442 47.098 38.9438 47.1215 38.9385C47.1449 38.9332 47.1671 38.9234 47.1867 38.9094C47.2063 38.8955 47.2228 38.8777 47.2354 38.8572C47.248 38.8367 47.2564 38.8138 47.26 38.7901L47.87 35.28H46.1L46.85 38.7901C46.8599 38.8314 46.8806 38.8692 46.91 38.8999C46.91 38.8999 46.95 38.94 47.02 38.94H47.05Z" fill="white"/>
<path d="M47.0199 39.8402C46.8497 39.8448 46.6801 39.8176 46.5199 39.7601C46.3965 39.7187 46.2837 39.6504 46.1899 39.5602C46.1091 39.4838 46.0445 39.392 45.9999 39.2902C45.9578 39.2036 45.9244 39.1132 45.8999 39.0201L45.1399 35.41H43.9999L43.2699 39.0001C43.244 39.0992 43.2106 39.1962 43.1699 39.2902C43.122 39.3901 43.0578 39.4813 42.9799 39.5602C42.8861 39.6504 42.7733 39.7187 42.6499 39.7601C42.4894 39.8168 42.32 39.8439 42.1499 39.8402C41.9771 39.8473 41.8044 39.8235 41.6399 39.7701C41.5138 39.7293 41.4003 39.6571 41.3099 39.5602C41.2259 39.4866 41.1608 39.394 41.1199 39.2902C41.0778 39.2036 41.0444 39.1132 41.0199 39.0201L40.3599 35.41H39.3599C39.2306 35.4146 39.1048 35.368 39.0099 35.2802C38.9134 35.1812 38.8594 35.0483 38.8594 34.91C38.8594 34.7718 38.9134 34.6391 39.0099 34.5402C39.1048 34.4523 39.2306 34.4055 39.3599 34.41H40.1399L39.4599 30.5902C39.4159 30.5025 39.3982 30.4038 39.4088 30.3063C39.4195 30.2087 39.458 30.1164 39.5199 30.0402C39.6025 29.9528 39.7056 29.8875 39.8199 29.8502C39.9569 29.8097 40.1028 29.8097 40.2399 29.8502C40.3133 29.8844 40.3783 29.9342 40.4302 29.9965C40.482 30.0587 40.5195 30.1317 40.5399 30.2101L41.2599 34.4H43.1399L44.0099 30.2201C44.043 30.0854 44.125 29.9677 44.2399 29.89C44.3418 29.8278 44.4609 29.7999 44.5799 29.8102C44.692 29.8059 44.803 29.8335 44.8999 29.89C45.0122 29.9659 45.0937 30.0795 45.1299 30.2101L46.0199 34.4H47.8599L48.5899 30.2301C48.6108 30.1494 48.6482 30.0739 48.6999 30.0084C48.7515 29.943 48.8162 29.8893 48.8899 29.8502C49.0304 29.8099 49.1794 29.8099 49.3199 29.8502C49.4342 29.8875 49.5373 29.9528 49.6199 30.0402C49.6754 30.1249 49.705 30.2238 49.705 30.3251C49.705 30.4263 49.6754 30.5253 49.6199 30.61L48.9299 34.41H49.7499C49.8759 34.4071 49.998 34.4539 50.0899 34.5402C50.1864 34.6391 50.2404 34.7718 50.2404 34.91C50.2404 35.0483 50.1864 35.1812 50.0899 35.2802C49.998 35.3664 49.8759 35.413 49.7499 35.41H48.7499L48.1099 39.0001C48.0808 39.0995 48.044 39.1965 47.9999 39.2902C47.9553 39.392 47.8906 39.4838 47.8099 39.5602C47.7173 39.6593 47.5999 39.7317 47.4699 39.7701C47.3246 39.8174 47.1727 39.8411 47.0199 39.8402ZM43.7999 35.16H45.3499L46.1399 38.9501C46.161 39.0331 46.1912 39.1136 46.2299 39.1901C46.2604 39.2613 46.3045 39.3258 46.3599 39.38C46.431 39.448 46.5164 39.4994 46.6099 39.5302C46.7418 39.5748 46.8807 39.5952 47.0199 39.5902C47.1623 39.5943 47.3043 39.5739 47.4399 39.5302C47.5313 39.5066 47.6144 39.458 47.6799 39.39C47.7386 39.3326 47.7861 39.2649 47.8199 39.1901C47.8603 39.1108 47.8905 39.0268 47.9099 38.9401L48.5899 35.16H49.7999C49.8316 35.1613 49.8632 35.1558 49.8926 35.1437C49.9219 35.1316 49.9483 35.1135 49.9699 35.0902C49.9958 35.0686 50.0158 35.0406 50.0281 35.0092C50.0403 34.9777 50.0444 34.9435 50.0399 34.91C50.0443 34.8751 50.0403 34.8396 50.0281 34.8065C50.0159 34.7735 49.9959 34.7438 49.9699 34.7201C49.9227 34.6797 49.862 34.6582 49.7999 34.66H48.6799L49.4299 30.5502C49.4299 30.4402 49.4999 30.2801 49.4299 30.2201C49.382 30.1643 49.3198 30.1229 49.2499 30.1002C49.1625 30.0697 49.0673 30.0697 48.9799 30.1002C48.9099 30.1002 48.8599 30.1902 48.8299 30.3002L48.0599 34.66H45.7999L44.8799 30.2802C44.857 30.2132 44.8153 30.154 44.7599 30.11C44.6985 30.0878 44.6313 30.0878 44.5699 30.11C44.5012 30.0908 44.4285 30.0908 44.3599 30.11C44.3001 30.1584 44.2579 30.2254 44.2399 30.3002L43.3299 34.66H41.0699L40.3199 30.2802C40.2954 30.2028 40.2415 30.1383 40.1699 30.1002C40.0825 30.0697 39.9873 30.0697 39.8999 30.1002C39.8287 30.1202 39.7657 30.1621 39.7199 30.2201C39.6499 30.2801 39.7199 30.4402 39.7199 30.5302L40.4599 34.66H39.3799C39.3145 34.6567 39.2502 34.6781 39.1999 34.7201C39.1739 34.7438 39.1539 34.7735 39.1417 34.8065C39.1295 34.8396 39.1255 34.8751 39.1299 34.91C39.1254 34.9435 39.1295 34.9777 39.1417 35.0092C39.154 35.0406 39.174 35.0686 39.1999 35.0902C39.223 35.1142 39.2511 35.1328 39.2822 35.1449C39.3132 35.157 39.3466 35.1621 39.3799 35.16H40.5599L41.2499 38.9601L41.3299 39.1901C41.3673 39.2628 41.4144 39.33 41.4699 39.39C41.5371 39.4558 41.6196 39.504 41.7099 39.5302C41.8487 39.5747 41.9942 39.595 42.1399 39.5902C42.2791 39.5952 42.418 39.5748 42.5499 39.5302C42.6421 39.4968 42.727 39.4457 42.7999 39.38C42.8521 39.3233 42.8959 39.2593 42.9299 39.1901C42.9702 39.1108 43.0005 39.0268 43.0199 38.9401L43.7999 35.16ZM47.0199 39.0702C46.9757 39.0739 46.9313 39.0677 46.8898 39.0521C46.8483 39.0366 46.8108 39.0119 46.7799 38.9801C46.7453 38.9347 46.7183 38.8842 46.6999 38.8302L45.9099 35.16H47.9899L47.3599 38.8102C47.3433 38.8869 47.3 38.9552 47.2377 39.0028C47.1754 39.0505 47.0982 39.0743 47.0199 39.0702ZM47.0199 38.8102C47.0899 38.8102 47.0999 38.8101 47.1099 38.7501L47.6899 35.4H46.2199L46.9399 38.7501L47.0199 38.8102ZM42.1999 39.0702C42.1216 39.0743 42.0443 39.0505 41.982 39.0028C41.9197 38.9552 41.8764 38.8869 41.8599 38.8102L41.2299 35.16H43.2799L42.5199 38.8102C42.5069 38.8743 42.4756 38.9333 42.4299 38.9801C42.3971 39.0236 42.3514 39.0558 42.2994 39.0719C42.2473 39.0881 42.1916 39.0875 42.1399 39.0702H42.1999ZM41.5199 35.41L42.1099 38.7601C42.1099 38.7601 42.1099 38.8202 42.1999 38.8202V38.7501L42.8799 35.4201L41.5199 35.41ZM45.2899 34.66H43.9499L44.6199 31.4301L45.2899 34.66ZM44.2899 34.41H45.0199L44.6499 32.65L44.2899 34.41Z" fill="white"/>
<path d="M57.2302 53H32.9902V54H57.2302V53Z" fill="#333333"/>
<path d="M61.1795 57.48H29.0195V58.48H61.1795V57.48Z" fill="#333333"/>
<path d="M65.4702 63.6299H24.7002V64.6299H65.4702V63.6299Z" fill="#333333"/>
</g>
<defs>
<clipPath id="clip0_1988_378937">
<rect width="63.17" height="50.43" fill="white" transform="translate(13 20)"/>
</clipPath>
</defs>
</svg>
