<svg width="100" height="100" viewBox="0 0 100 100" fill="none" xmlns="http://www.w3.org/2000/svg">
<circle cx="50" cy="50" r="50" fill="#F2F6FB"/>
<g clip-path="url(#clip0_1283_202881)">
<path d="M38.15 23.9414H71.26V27.8616H74.72V66.0215C74.72 66.0215 74.21 75.8015 67.72 75.8015H40.99V71.8813L38.15 71.5515V23.9414Z" fill="white"/>
<path d="M71.26 27.5H74.72V66.1101C74.72 71.2901 71.21 75.49 66.89 75.49H40.99V71.3401" stroke="#333333" stroke-width="1.06" stroke-linecap="round" stroke-linejoin="round"/>
<path d="M62.7 23.5195H38.15V71.3396H64.15C64.779 71.2787 65.359 70.973 65.7649 70.4885C66.1708 70.0041 66.3701 69.3795 66.32 68.7495V65.4795H69.05C69.6809 65.4186 70.2625 65.1117 70.6687 64.625C71.0748 64.1383 71.2729 63.5111 71.22 62.8794V23.5295H62.66" stroke="#333333" stroke-width="1.06" stroke-linecap="round" stroke-linejoin="round"/>
<path d="M54.71 57.4316C60.1169 57.4316 64.5 53.0484 64.5 47.6416C64.5 42.2347 60.1169 37.8516 54.71 37.8516C49.3031 37.8516 44.92 42.2347 44.92 47.6416C44.92 53.0484 49.3031 57.4316 54.71 57.4316Z" fill="#235AB0"/>
<path d="M51.87 53.1706L48.94 47.0406L50.74 46.1706L52.44 49.7206L58.86 43.1406L60.29 44.5406L51.87 53.1706Z" fill="white"/>
<path d="M47.71 71.3984H25.53V75.7484H47.71V71.3984Z" fill="#235AB0"/>
<path d="M26.49 71.7214L27.27 68.3914L29.85 66.6414L33.52 66.5414L33.83 63.8014H35.05V59.4814L33.46 56.1514L31.5 53.0014L31.89 49.1914L35.28 46.9414H37.76L40.4 48.5514L41.76 51.6314L41.1 54.6914L38.31 58.4514L37.78 62.2414L38.22 63.9914H39.62L39.67 66.7014L44.29 66.8214L46.11 68.8914L46.59 71.7214H26.49Z" fill="white"/>
<path d="M48.07 76.002H25V71.1719H48.07V76.002ZM26 75.002H47.07V72.1719H26V75.002Z" fill="#333333"/>
<path d="M39.12 67.0798H33.95C33.6848 67.0798 33.4304 66.9744 33.2429 66.7869C33.0554 66.5993 32.95 66.3451 32.95 66.0798V64.3398C32.95 64.0746 33.0554 63.8201 33.2429 63.6326C33.4304 63.445 33.6848 63.3398 33.95 63.3398H39.12C39.3852 63.3398 39.6396 63.445 39.8271 63.6326C40.0147 63.8201 40.12 64.0746 40.12 64.3398V66.0798C40.12 66.3451 40.0147 66.5993 39.8271 66.7869C39.6396 66.9744 39.3852 67.0798 39.12 67.0798ZM39.12 64.3599H33.97V66.0798H39.1L39.12 64.3599Z" fill="#333333"/>
<path d="M46.96 71.3979H45.96C45.96 69.0179 44.62 67.0781 42.96 67.0781H30.09C28.44 67.0781 27.09 69.0179 27.09 71.3979H26.09C26.09 68.4679 27.88 66.0781 30.09 66.0781H42.97C45.17 66.0781 46.96 68.4679 46.96 71.3979Z" fill="#333333"/>
<path d="M35.32 64.3003L34.32 64.0703C35.54 58.8403 32.62 56.1303 32.5 56.0203C31.9747 55.495 31.558 54.8714 31.2737 54.1851C30.9895 53.4987 30.8431 52.7631 30.8431 52.0203C30.8431 51.2774 30.9895 50.5418 31.2737 49.8555C31.558 49.1691 31.9747 48.5456 32.5 48.0203C33.0253 47.495 33.6489 47.0782 34.3352 46.7939C35.0215 46.5097 35.7571 46.3633 36.5 46.3633C37.2429 46.3633 37.9785 46.5097 38.6648 46.7939C39.3511 47.0782 39.9747 47.495 40.5 48.0203L39.79 48.7202C38.9188 47.8503 37.7376 47.3621 36.5065 47.363C35.2753 47.364 34.0949 47.8541 33.225 48.7253C32.3551 49.5966 31.8669 50.7776 31.8678 52.0088C31.8688 53.24 32.3588 54.4204 33.23 55.2903C33.37 55.4003 36.71 58.4603 35.32 64.3003Z" fill="#333333"/>
<path d="M37.71 64.3015C36.36 58.4615 39.71 55.4015 39.84 55.3015C40.6477 54.4158 41.0823 53.2523 41.0529 52.054C41.0235 50.8556 40.5325 49.7151 39.6823 48.8701C38.8321 48.0251 37.6884 47.5409 36.4899 47.5188C35.2915 47.4967 34.1307 47.9383 33.25 48.7515L32.55 48.0515C33.6109 46.9906 35.0497 46.3945 36.55 46.3945C38.0503 46.3945 39.4891 46.9906 40.55 48.0515C41.6109 49.1124 42.2068 50.5512 42.2068 52.0515C42.2068 53.5518 41.6109 54.9906 40.55 56.0515C40.41 56.1815 37.55 58.8916 38.71 64.1216L37.71 64.3015Z" fill="#333333"/>
</g>
<defs>
<clipPath id="clip0_1283_202881">
<rect width="50.25" height="53.02" fill="white" transform="translate(25 23)"/>
</clipPath>
</defs>
</svg>
