<svg width="20" height="20" viewBox="0 0 20 20" fill="none" xmlns="http://www.w3.org/2000/svg">
<g clip-path="url(#clip0_1038_171325)">
<path d="M13.1023 15.3938H6.89648V9.20416H13.1023V15.3938ZM7.74858 14.5417H12.2502V10.008H7.74858V14.5417Z" fill="#333333"/>
<path d="M19.6227 8.86661C19.5297 8.86545 19.4396 8.83437 19.3655 8.7781L10.0407 1.76847L0.724015 8.7781C0.634321 8.84591 0.521456 8.87558 0.410026 8.86052C0.298597 8.84547 0.19764 8.78701 0.129161 8.69783C0.0613513 8.60813 0.0317501 8.49525 0.0468082 8.38382C0.0618662 8.27239 0.120361 8.17126 0.209546 8.10279L10.0407 0.69928L19.8719 8.10279C19.9624 8.17007 20.0224 8.27056 20.039 8.38206C20.0556 8.49355 20.0273 8.60715 19.9604 8.69783C19.9217 8.75096 19.8709 8.79386 19.8121 8.82324C19.7534 8.85261 19.6884 8.86758 19.6227 8.86661V8.86661Z" fill="#333333"/>
<path d="M12.6776 7.34723C12.5864 7.35026 12.4974 7.31878 12.4284 7.25892L10.0168 5.44219L7.60527 7.25892C7.51558 7.32673 7.40271 7.35621 7.29128 7.34115C7.17985 7.32609 7.07889 7.26764 7.01041 7.17845C6.97621 7.13396 6.95132 7.08304 6.93723 7.02871C6.92313 6.97439 6.92012 6.9178 6.92837 6.86229C6.93662 6.80678 6.95597 6.75355 6.98525 6.70568C7.01454 6.6578 7.05317 6.61623 7.09884 6.58361L9.97665 4.38104L12.9107 6.59165C13.0012 6.65894 13.0612 6.75923 13.0778 6.87073C13.0944 6.98222 13.0661 7.09582 12.9992 7.1865C12.9602 7.23471 12.9113 7.27397 12.8558 7.3017C12.8004 7.32943 12.7396 7.34496 12.6776 7.34723Z" fill="#333333"/>
<path d="M18.2075 19.3007H1.80078V7.09013C1.80078 6.97714 1.84567 6.86858 1.92557 6.78868C2.00547 6.70879 2.11383 6.66406 2.22683 6.66406C2.2824 6.66405 2.33742 6.67513 2.38867 6.69664C2.43991 6.71815 2.48636 6.7496 2.52528 6.78927C2.5642 6.82894 2.59482 6.87599 2.61535 6.92763C2.63588 6.97928 2.6459 7.03456 2.64483 7.09013V18.4486H17.3554V7.09013C17.3554 6.97714 17.4003 6.86858 17.4802 6.78868C17.5601 6.70879 17.6685 6.66406 17.7815 6.66406C17.8374 6.66406 17.8928 6.67503 17.9445 6.69644C17.9962 6.71786 18.0432 6.74912 18.0827 6.78868C18.1223 6.82825 18.1537 6.87535 18.1751 6.92704C18.1965 6.97873 18.2075 7.03418 18.2075 7.09013V19.3007Z" fill="#333333"/>
</g>
<defs>
<clipPath id="clip0_1038_171325">
<rect width="20" height="18.6013" fill="white" transform="translate(0 0.699341)"/>
</clipPath>
</defs>
</svg>
