<svg width="100" height="100" viewBox="0 0 100 100" fill="none" xmlns="http://www.w3.org/2000/svg">
<circle cx="50" cy="50" r="50" fill="#F2F6FB"/>
<g clip-path="url(#clip0_1738_334708)">
<path d="M27.5703 73.43V34.47L28.9003 32.85H33.1703V22.7L34.5703 21.37L54.6803 21.5L55.9003 22.64L55.7303 32.72L60.5603 33.17L61.7103 34.82V73.57L27.5703 73.43Z" fill="white"/>
<path d="M51.7006 65.62H50.6406V67.4H51.7006V65.62Z" fill="#235AB0"/>
<path d="M38.5405 49.2H37.4805V50.99H38.5405V49.2Z" fill="#235AB0"/>
<path d="M38.5405 43.61H37.4805V45.39H38.5405V43.61Z" fill="#235AB0"/>
<path d="M38.5405 38.25H37.4805V40.03H38.5405V38.25Z" fill="#235AB0"/>
<path d="M45.1498 49.2H44.0898V50.99H45.1498V49.2Z" fill="#235AB0"/>
<path d="M45.1498 43.61H44.0898V45.39H45.1498V43.61Z" fill="#235AB0"/>
<path d="M45.1498 38.25H44.0898V40.03H45.1498V38.25Z" fill="#235AB0"/>
<path d="M51.7006 49.2H50.6406V50.99H51.7006V49.2Z" fill="#235AB0"/>
<path d="M51.7006 43.61H50.6406V45.39H51.7006V43.61Z" fill="#235AB0"/>
<path d="M51.7006 38.25H50.6406V40.03H51.7006V38.25Z" fill="#235AB0"/>
<path d="M38.5405 65.74H37.4805V67.53H38.5405V65.74Z" fill="#235AB0"/>
<path d="M38.5405 60.15H37.4805V61.93H38.5405V60.15Z" fill="#235AB0"/>
<path d="M38.5405 54.79H37.4805V56.57H38.5405V54.79Z" fill="#235AB0"/>
<path d="M45.1498 65.74H44.0898V67.53H45.1498V65.74Z" fill="#235AB0"/>
<path d="M45.1498 60.15H44.0898V61.93H45.1498V60.15Z" fill="#235AB0"/>
<path d="M45.1498 54.79H44.0898V56.57H45.1498V54.79Z" fill="#235AB0"/>
<path d="M51.7006 60.02H50.6406V61.81H51.7006V60.02Z" fill="#235AB0"/>
<path d="M51.7006 54.67H50.6406V56.45H51.7006V54.67Z" fill="#235AB0"/>
<path d="M61.64 74.14H27.53C27.3894 74.14 27.2546 74.0841 27.1552 73.9847C27.0558 73.8853 27 73.7505 27 73.61V34.92C27.0026 34.2658 27.2637 33.639 27.7263 33.1764C28.189 32.7137 28.8157 32.4527 29.47 32.4501H59.7C60.3551 32.4501 60.9833 32.7102 61.4465 33.1735C61.9098 33.6367 62.17 34.265 62.17 34.92V73.61C62.1714 73.68 62.1586 73.7494 62.1324 73.8143C62.1063 73.8792 62.0673 73.9382 62.0178 73.9877C61.9683 74.0372 61.9093 74.0763 61.8444 74.1024C61.7795 74.1286 61.71 74.1414 61.64 74.14ZM44.59 73.08H61.12V34.92C61.1174 34.5452 60.9666 34.1864 60.7006 33.9222C60.4345 33.6581 60.0749 33.5099 59.7 33.5099H29.47C29.096 33.5099 28.7374 33.6585 28.473 33.923C28.2086 34.1874 28.06 34.5461 28.06 34.92V73.08H44.59Z" fill="#333333"/>
<path d="M55.9297 33.5099C55.7891 33.5099 55.6543 33.454 55.5549 33.3546C55.4555 33.2552 55.3997 33.1204 55.3997 32.9799V23.08C55.3971 22.8006 55.2842 22.5334 55.0857 22.3368C54.8872 22.1402 54.6191 22.0299 54.3397 22.0299H34.7897C34.5103 22.0299 34.2422 22.1402 34.0437 22.3368C33.8452 22.5334 33.7323 22.8006 33.7297 23.08V32.9501C33.731 33.0192 33.7185 33.0877 33.693 33.152C33.6675 33.2162 33.6294 33.2747 33.581 33.3241C33.5325 33.3734 33.4748 33.4126 33.411 33.4393C33.3473 33.4661 33.2788 33.4799 33.2097 33.4799C33.0691 33.4799 32.9343 33.4242 32.8349 33.3248C32.7355 33.2254 32.6797 33.0906 32.6797 32.9501V23.08C32.6797 22.5203 32.902 21.9837 33.2977 21.588C33.6934 21.1923 34.2301 20.9698 34.7897 20.9698H54.3397C54.8993 20.9698 55.436 21.1923 55.8317 21.588C56.2274 21.9837 56.4497 22.5203 56.4497 23.08V32.9501C56.4552 33.0216 56.4459 33.0935 56.4222 33.1613C56.3986 33.229 56.3611 33.2913 56.3123 33.3439C56.2634 33.3965 56.2042 33.4383 56.1384 33.4669C56.0725 33.4955 56.0015 33.5101 55.9297 33.5099Z" fill="#333333"/>
<path d="M57.5306 66.18L55.0906 60.59L55.7306 56.58L58.8206 52.85L62.4106 52.28L65.4906 53.49L67.9006 57.35L68.2706 61.45L66.6606 65.62L65.9806 66.18L71.5406 71.37L72.8506 73.96V77.83H50.6406V72.79L57.5306 66.18Z" fill="white"/>
<path d="M52.2497 25.23H36.9297V29.81H52.2497V25.23Z" fill="#235AB0"/>
<path d="M72.6589 78.2299H50.6589C50.5184 78.2299 50.3836 78.1742 50.2842 78.0748C50.1848 77.9754 50.1289 77.8407 50.1289 77.7001V74.9799C50.1262 74.0017 50.3389 73.0352 50.7519 72.1486C51.165 71.2619 51.7683 70.4771 52.5189 69.85L57.3689 65.7699C57.4772 65.6804 57.6161 65.6366 57.7561 65.6478C57.8961 65.659 58.0263 65.7244 58.1189 65.83C58.2073 65.9395 58.2494 66.0791 58.2363 66.2191C58.2232 66.3592 58.156 66.4887 58.0489 66.58L53.1989 70.66C52.5692 71.1894 52.0636 71.8507 51.718 72.5973C51.3724 73.3439 51.1952 74.1572 51.1989 74.9799V77.1701H72.1989V74.9401C72.195 74.123 72.0142 73.3164 71.6689 72.5758C71.3237 71.8353 70.8222 71.1784 70.1989 70.65L65.4289 66.58C65.3233 66.4873 65.258 66.3572 65.2468 66.2172C65.2356 66.0771 65.2794 65.9382 65.3689 65.83C65.4616 65.7244 65.5917 65.659 65.7318 65.6478C65.8718 65.6366 66.0107 65.6804 66.1189 65.7699L70.8889 69.85C71.6237 70.4788 72.2134 71.2596 72.6174 72.1383C73.0214 73.017 73.23 73.9729 73.2289 74.9401V77.7001C73.2291 77.7732 73.2142 77.8454 73.1851 77.9125C73.156 77.9795 73.1134 78.04 73.0598 78.0897C73.0063 78.1395 72.9431 78.1776 72.8741 78.2018C72.8051 78.2259 72.7318 78.2354 72.6589 78.2299Z" fill="#333333"/>
<path d="M61.7109 68.37C57.8309 68.37 54.7109 64.65 54.7109 60.08C54.7109 55.51 57.8709 51.7899 61.7109 51.7899C65.5509 51.7899 68.7109 55.51 68.7109 60.08C68.7109 64.65 65.5909 68.37 61.7109 68.37ZM61.7109 52.85C58.4109 52.85 55.7109 56.09 55.7109 60.08C55.7109 64.07 58.3909 67.3099 61.7109 67.3099C65.0309 67.3099 67.7109 64.07 67.7109 60.08C67.7109 56.09 65.0109 52.85 61.7109 52.85Z" fill="#333333"/>
</g>
<defs>
<clipPath id="clip0_1738_334708">
<rect width="46.19" height="57.23" fill="white" transform="translate(27 21)"/>
</clipPath>
</defs>
</svg>
