<svg width="100" height="100" viewBox="0 0 100 100" fill="none" xmlns="http://www.w3.org/2000/svg">
<circle cx="50" cy="50" r="50" fill="#F2F6FB"/>
<g clip-path="url(#clip0_1102_180986)">
<path d="M73.89 50.7998H27.5V57.4198H73.89V50.7998Z" fill="white"/>
<path d="M74.4 57.9199H27V50.2998H74.4V57.9199ZM28 56.9199H73.4V51.2998H28V56.9199Z" fill="#333333"/>
<path d="M42.1995 72.3097H29.0195V64.8697V57.4297H42.1995V72.3097Z" fill="white"/>
<path d="M42.7112 72.7998H28.5312V56.9199H42.7112V72.7998ZM29.5312 71.7998H41.7112V57.9199H29.5312V71.7998Z" fill="#333333"/>
<path d="M73.9002 57.4297H68.6602V72.3097H73.9002V57.4297Z" fill="white"/>
<path d="M74.4001 72.7998H68.1602V56.9199H74.4001V72.7998ZM69.1602 71.7998H73.4001V57.9199H69.1602V71.7998Z" fill="#333333"/>
<path d="M42.1995 64.3701H29.0195V65.3701H42.1995V64.3701Z" fill="#333333"/>
<path d="M36.5684 60.5195H34.6484V61.5195H36.5684V60.5195Z" fill="#333333"/>
<path d="M36.5684 68.1104H34.6484V69.1104H36.5684V68.1104Z" fill="#333333"/>
<path d="M64.1295 27.5H37.2595C36.7128 27.5 36.2695 27.9432 36.2695 28.49V45.65C36.2695 46.1968 36.7128 46.64 37.2595 46.64H64.1295C64.6763 46.64 65.1195 46.1968 65.1195 45.65V28.49C65.1195 27.9432 64.6763 27.5 64.1295 27.5Z" fill="white"/>
<path d="M64.1413 47.1301H37.2612C36.8687 47.1301 36.4923 46.9741 36.2147 46.6965C35.9372 46.419 35.7813 46.0427 35.7813 45.6501V28.48C35.7812 28.0875 35.9372 27.7111 36.2147 27.4336C36.4923 27.156 36.8687 27 37.2612 27H64.1413C64.5338 27 64.9102 27.156 65.1878 27.4336C65.4653 27.7111 65.6212 28.0875 65.6212 28.48V45.6501C65.6212 46.0427 65.4653 46.419 65.1878 46.6965C64.9102 46.9741 64.5338 47.1301 64.1413 47.1301ZM37.2612 28.05C37.1339 28.05 37.0119 28.1007 36.9218 28.1907C36.8318 28.2807 36.7812 28.4027 36.7812 28.53V45.7C36.7812 45.8273 36.8318 45.9495 36.9218 46.0396C37.0119 46.1296 37.1339 46.1799 37.2612 46.1799H64.1413C64.2047 46.1813 64.2677 46.1699 64.3265 46.1462C64.3854 46.1226 64.4389 46.0873 64.4837 46.0425C64.5286 45.9976 64.5639 45.9441 64.5875 45.8853C64.6111 45.8264 64.6226 45.7634 64.6212 45.7V28.53C64.6226 28.4666 64.6111 28.4036 64.5875 28.3447C64.5639 28.2859 64.5286 28.2323 64.4837 28.1875C64.4389 28.1427 64.3854 28.1074 64.3265 28.0837C64.2677 28.0601 64.2047 28.0487 64.1413 28.05H37.2612Z" fill="#333333"/>
<path d="M53.5886 46.6396H47.8086V50.7796H53.5886V46.6396Z" fill="white"/>
<path d="M54.0886 51.2698H47.3086V46.1299H54.0886V51.2698ZM48.3086 50.2698H53.0886V47.1299H48.3086V50.2698Z" fill="#333333"/>
<path d="M47.5398 37.1104H44.5898V42.5404H47.5398V37.1104Z" fill="#235AB0"/>
<path d="M52.1688 35.1602H49.2188V42.5402H52.1688V35.1602Z" fill="#235AB0"/>
<path d="M56.8094 31.5996H53.8594V42.5396H56.8094V31.5996Z" fill="#235AB0"/>
</g>
<defs>
<clipPath id="clip0_1102_180986">
<rect width="47.39" height="45.81" fill="white" transform="translate(27 27)"/>
</clipPath>
</defs>
</svg>
