<svg width="100" height="100" viewBox="0 0 100 100" fill="none" xmlns="http://www.w3.org/2000/svg">
<circle cx="50" cy="50" r="50" fill="#F2F6FB"/>
<path d="M47.7972 59.746L47.7855 51.625L39.3622 41.3718L38.0205 37.0608L36.2005 36.2685V34.6956L35.2438 34.0664L34.0188 34.882L32.5488 48.1646L32.8055 49.6792L39.2688 57.3575L39.7472 60.6781H47.7972V59.746Z" fill="white"/>
<path d="M52.4531 60.2703V52.3008L61.2265 41.6747L62.0081 37.0958L63.5248 36.4782L64.0148 34.6257L65.2981 34.0664L66.5465 35.4879L67.6665 48.7238L61.9265 56.0642L60.5148 57.5789V60.5034L52.4531 60.2703Z" fill="white"/>
<path d="M48.5219 64.2305H39.4219V67.1317H48.5219V64.2305Z" fill="white"/>
<path d="M60.9457 64.2305H51.8457V67.1317H60.9457V64.2305Z" fill="white"/>
<path d="M49.0111 60.6758H39.2461V64.1595H49.0111V60.6758Z" fill="#235AB0"/>
<path d="M61.1549 60.6758H51.2383V64.1595H61.1549V60.6758Z" fill="#235AB0"/>
<path d="M50.1321 43.0259C55.0548 43.0259 59.0454 39.0405 59.0454 34.1243C59.0454 29.2081 55.0548 25.2227 50.1321 25.2227C45.2094 25.2227 41.2188 29.2081 41.2188 34.1243C41.2188 39.0405 45.2094 43.0259 50.1321 43.0259Z" fill="white"/>
<path d="M50.1888 43.6305C47.7134 43.6305 45.3395 42.6483 43.5891 40.9002C41.8388 39.1522 40.8555 36.7815 40.8555 34.3094C40.8555 31.8373 41.8388 29.4663 43.5891 27.7182C45.3395 25.9702 47.7134 24.9883 50.1888 24.9883C52.6642 24.9883 55.0381 25.9702 56.7885 27.7182C58.5388 29.4663 59.5221 31.8373 59.5221 34.3094C59.5221 36.7815 58.5388 39.1522 56.7885 40.9002C55.0381 42.6483 52.6642 43.6305 50.1888 43.6305ZM50.1888 26.1534C48.0229 26.1534 45.9456 27.0125 44.4141 28.542C42.8825 30.0715 42.0221 32.1463 42.0221 34.3094C42.0221 36.4725 42.8825 38.5469 44.4141 40.0765C45.9456 41.606 48.0229 42.4653 50.1888 42.4653C52.3547 42.4653 54.432 41.606 55.9635 40.0765C57.4951 38.5469 58.3555 36.4725 58.3555 34.3094C58.3431 32.1544 57.4773 30.0916 55.9471 28.5722C54.4169 27.0527 52.3467 26.1997 50.1888 26.1998V26.1534Z" fill="#333333"/>
<path d="M60.3746 61.4804C60.2146 61.4627 60.0679 61.3836 59.9655 61.2596C59.8631 61.1356 59.8132 60.9766 59.8263 60.8164L60.0596 58.0899C60.115 57.465 60.4021 56.8834 60.8646 56.4588L66.4646 50.0039H66.5346C66.6983 49.8629 66.8162 49.6763 66.8729 49.468L67.0129 48.9785C67.0824 48.7125 67.1061 48.4368 67.0829 48.1629L65.858 35.5211C65.8451 35.3875 65.7928 35.261 65.7076 35.1573C65.6224 35.0535 65.5082 34.9772 65.3796 34.9385L64.9946 34.8222C64.9055 34.796 64.8102 34.8001 64.7236 34.8338C64.637 34.8676 64.5641 34.929 64.5163 35.0085V36.9078L64.6213 46.3919C64.6257 46.4992 64.6009 46.6059 64.5496 46.7003C64.4982 46.7946 64.4222 46.8731 64.3296 46.9278L60.8296 48.9202C60.6886 49.001 60.5213 49.0233 60.3641 48.9819C60.2069 48.9404 60.0724 48.8386 59.9896 48.6988C59.9093 48.5598 59.8875 48.3946 59.929 48.2394C59.9706 48.0843 60.0721 47.9521 60.2113 47.8716L63.3496 46.054L63.2213 35.0668C63.2197 34.825 63.2842 34.5872 63.408 34.3793C63.5953 34.0667 63.882 33.8258 64.2225 33.6949C64.5629 33.5639 64.9374 33.5507 65.2863 33.657L65.6713 33.7734C66.0292 33.8841 66.3465 34.0982 66.5831 34.3884C66.8197 34.6786 66.9652 35.0322 67.0013 35.4047L68.1679 48.0463C68.2045 48.4732 68.165 48.9033 68.0513 49.3164L67.9113 49.794C67.8 50.2182 67.5643 50.5998 67.2346 50.8895L61.6346 57.3444V57.414C61.388 57.6228 61.233 57.9197 61.2029 58.2413L60.9696 60.9794C60.945 61.1194 60.8719 61.2463 60.7632 61.3379C60.6544 61.4294 60.5169 61.4798 60.3746 61.4804Z" fill="#333333"/>
<path d="M52.5344 61.4817C52.3735 61.4817 52.2192 61.4181 52.1054 61.3045C51.9917 61.1908 51.9277 61.0365 51.9277 60.8758V52.7781C51.9277 52.7781 51.9277 52.6851 51.9277 52.6501C52.0116 52.2794 52.1792 51.9325 52.4177 51.6363L60.8411 41.3597C61.0877 41.0446 61.4484 40.8389 61.8455 40.7866C62.2426 40.7343 62.6444 40.8396 62.9644 41.0801L63.4661 41.4297C63.7984 41.675 64.0285 42.034 64.1125 42.4381C64.1964 42.8422 64.1283 43.2632 63.9211 43.6203L61.0161 48.6418L59.7094 50.6345C59.6657 50.701 59.6094 50.7583 59.5435 50.8032C59.4777 50.848 59.4037 50.8794 59.3257 50.8956C59.2476 50.9118 59.1672 50.9124 59.0889 50.8976C59.0106 50.8828 58.936 50.8527 58.8694 50.8091C58.8027 50.7655 58.7454 50.7093 58.7005 50.6436C58.6556 50.5778 58.6242 50.5039 58.6079 50.426C58.5917 50.3481 58.5909 50.2678 58.6058 50.1896C58.6206 50.1114 58.6507 50.0368 58.6944 49.9703L59.9777 48.0012L62.8711 43.0144C62.9269 42.917 62.9447 42.8024 62.921 42.6927C62.8973 42.583 62.8338 42.4859 62.7427 42.4202L62.2527 42.0589C62.1844 42.007 62.0984 41.984 62.0133 41.9949C61.9281 42.0058 61.8507 42.0498 61.7977 42.1172L53.3627 52.3938C53.2564 52.5273 53.1808 52.6823 53.1411 52.8481V60.8758C53.1411 61.0365 53.0772 61.1908 52.9634 61.3045C52.8496 61.4181 52.6953 61.4817 52.5344 61.4817Z" fill="#333333"/>
<path d="M61.0745 42.7098H60.9695C60.812 42.6814 60.6721 42.5918 60.5804 42.4609C60.4886 42.3299 60.4523 42.1681 60.4795 42.0106L61.2378 37.42C61.3132 37.033 61.5191 36.6834 61.8212 36.4295C62.1287 36.1726 62.5092 36.0188 62.909 35.9895C63.3089 35.9602 63.7078 36.0572 64.0495 36.2665L64.1778 36.3365C64.3158 36.4211 64.4151 36.5563 64.4544 36.7131C64.4937 36.87 64.4698 37.0359 64.3878 37.1754C64.3013 37.3113 64.1651 37.4081 64.0082 37.4451C63.8513 37.4821 63.6861 37.4562 63.5478 37.3734L63.4312 37.3034C63.3033 37.2286 63.1558 37.1943 63.008 37.2047C62.8602 37.2151 62.7189 37.2697 62.6028 37.3617C62.5579 37.3947 62.5203 37.4365 62.4922 37.4846C62.4641 37.5327 62.4462 37.5861 62.4395 37.6413L61.6695 42.2089C61.6449 42.3488 61.5718 42.4754 61.4631 42.567C61.3543 42.6586 61.2168 42.7092 61.0745 42.7098Z" fill="#333333"/>
<path d="M61.1206 64.7668H51.1223C50.9614 64.7668 50.8071 64.7029 50.6933 64.5893C50.5795 64.4757 50.5156 64.3216 50.5156 64.1609V60.8751C50.5156 60.7145 50.5795 60.5604 50.6933 60.4467C50.8071 60.3331 50.9614 60.2695 51.1223 60.2695H61.1206C61.2815 60.2695 61.4358 60.3331 61.5496 60.4467C61.6634 60.5604 61.7273 60.7145 61.7273 60.8751V64.1609C61.7273 64.3216 61.6634 64.4757 61.5496 64.5893C61.4358 64.7029 61.2815 64.7668 61.1206 64.7668ZM51.7873 63.6017H60.5723V61.5277H51.7873V63.6017Z" fill="#333333"/>
<path d="M60.8293 67.1319C60.6684 67.1319 60.5141 67.068 60.4003 66.9544C60.2866 66.8408 60.2227 66.6867 60.2227 66.526V64.1957C60.2227 64.0351 60.2866 63.881 60.4003 63.7673C60.5141 63.6537 60.6684 63.5898 60.8293 63.5898C60.9902 63.5898 61.1445 63.6537 61.2583 63.7673C61.3721 63.881 61.436 64.0351 61.436 64.1957V66.526C61.436 66.6867 61.3721 66.8408 61.2583 66.9544C61.1445 67.068 60.9902 67.1319 60.8293 67.1319Z" fill="#333333"/>
<path d="M51.8449 67.1319C51.684 67.1319 51.5297 67.068 51.416 66.9544C51.3022 66.8408 51.2383 66.6867 51.2383 66.526V64.1957C51.2383 64.0351 51.3022 63.881 51.416 63.7673C51.5297 63.6537 51.684 63.5898 51.8449 63.5898C52.0058 63.5898 52.1602 63.6537 52.2739 63.7673C52.3877 63.881 52.4516 64.0351 52.4516 64.1957V66.526C52.4516 66.6867 52.3877 66.8408 52.2739 66.9544C52.1602 67.068 52.0058 67.1319 51.8449 67.1319Z" fill="#333333"/>
<path d="M39.8769 61.4801C39.7238 61.4805 39.5762 61.4234 39.4636 61.3196C39.3511 61.2159 39.282 61.0733 39.2703 60.9208L39.0369 58.1946C39.0098 57.8689 38.8546 57.5673 38.6053 57.3557L38.5469 57.2858L32.9469 50.8309C32.6168 50.5348 32.378 50.1509 32.2586 49.724L32.1302 49.2578C32.0158 48.8408 31.9763 48.4071 32.0136 47.9763L33.1803 35.3461C33.2163 34.9736 33.3618 34.62 33.5985 34.3298C33.8351 34.0396 34.1523 33.8258 34.5102 33.7151L34.8953 33.5984C35.2441 33.4921 35.6187 33.5054 35.9591 33.6363C36.2995 33.7672 36.5862 34.0084 36.7736 34.321C36.899 34.5281 36.9637 34.7661 36.9602 35.0082L36.8319 45.9957L39.9702 47.8131C40.1094 47.8935 40.2109 48.0257 40.2525 48.1809C40.2941 48.336 40.2723 48.5012 40.1919 48.6403C40.1092 48.78 39.9746 48.8819 39.8174 48.9233C39.6602 48.9647 39.493 48.9427 39.3519 48.8618L35.8519 46.8695C35.7596 46.8136 35.6832 46.7349 35.6301 46.6411C35.577 46.5472 35.5489 46.4411 35.5486 46.3333L35.6886 34.9965C35.6477 34.9061 35.576 34.833 35.4863 34.7903C35.3966 34.7477 35.2947 34.7383 35.1986 34.7636L34.8136 34.8802C34.685 34.9189 34.5708 34.9949 34.4856 35.0987C34.4004 35.2024 34.3481 35.3292 34.3352 35.4628L33.1686 48.1043C33.1459 48.3821 33.1696 48.6616 33.2386 48.9315L33.3786 49.4094C33.4354 49.6178 33.5532 49.8043 33.7169 49.9453H33.7869L39.3752 56.4002C39.8449 56.8208 40.1369 57.4038 40.1919 58.0313L40.4252 60.7578C40.4384 60.918 40.3884 61.077 40.286 61.201C40.1837 61.325 40.0369 61.4044 39.8769 61.4221V61.4801Z" fill="#333333"/>
<path d="M47.7147 61.4824C47.5538 61.4824 47.3995 61.4188 47.2857 61.3051C47.1719 61.1915 47.108 61.0372 47.108 60.8765V52.8488C47.0689 52.677 46.9888 52.5172 46.8747 52.3829L38.463 42.1296C38.4096 42.0595 38.331 42.0129 38.2439 41.9999C38.1567 41.9868 38.0679 42.0083 37.9963 42.0596L37.5063 42.4209C37.413 42.4849 37.3478 42.5821 37.3239 42.6925C37.3 42.803 37.3194 42.9184 37.378 43.0151L40.2947 48.0369L41.5547 49.9709C41.5983 50.0375 41.6284 50.1121 41.6433 50.1903C41.6581 50.2684 41.6574 50.3487 41.6411 50.4266C41.6249 50.5045 41.5934 50.5785 41.5486 50.6443C41.5037 50.71 41.4463 50.7662 41.3797 50.8098C41.2424 50.8955 41.0774 50.9251 40.9188 50.8926C40.7602 50.86 40.6203 50.768 40.528 50.6352L39.2563 48.6659L36.328 43.621C36.1208 43.2639 36.0526 42.8429 36.1366 42.4388C36.2205 42.0347 36.4507 41.6757 36.783 41.4304L37.273 41.0808C37.5963 40.8409 38.0009 40.7371 38.4 40.7915C38.7991 40.846 39.161 41.0543 39.408 41.3721L47.8197 51.6253C48.0609 51.9242 48.2287 52.2755 48.3097 52.6508C48.3162 52.6933 48.3162 52.7364 48.3097 52.7788V60.8765C48.3097 61.0372 48.2457 61.1915 48.132 61.3051C48.0182 61.4188 47.8639 61.4824 47.703 61.4824H47.7147Z" fill="#333333"/>
<path d="M39.1757 42.7087C39.0334 42.7081 38.8959 42.6574 38.7872 42.5659C38.6784 42.4743 38.6053 42.3477 38.5807 42.2077L37.8107 37.6169C37.7856 37.516 37.7283 37.426 37.6474 37.3606C37.5313 37.2686 37.3901 37.214 37.2422 37.2036C37.0944 37.1932 36.9469 37.2275 36.819 37.3023L36.7024 37.3722C36.5641 37.4551 36.399 37.4809 36.242 37.4439C36.0851 37.4069 35.9489 37.3101 35.8624 37.1743C35.7804 37.0348 35.7565 36.8689 35.7958 36.712C35.8351 36.5552 35.9344 36.4199 36.0724 36.3354L36.189 36.2654C36.5331 36.0568 36.9337 35.9603 37.3351 35.9895C37.7366 36.0187 38.1189 36.1721 38.429 36.4284C38.7259 36.6769 38.9312 37.0173 39.0124 37.3956L39.7707 42.0561C39.7979 42.2136 39.7616 42.3755 39.6699 42.5064C39.5781 42.6373 39.4382 42.7269 39.2807 42.7553L39.1757 42.7087Z" fill="#333333"/>
<path d="M49.1284 64.7668H39.1301C38.9692 64.7668 38.8149 64.7029 38.7011 64.5893C38.5874 64.4757 38.5234 64.3216 38.5234 64.1609V60.8751C38.5234 60.7145 38.5874 60.5604 38.7011 60.4467C38.8149 60.3331 38.9692 60.2695 39.1301 60.2695H49.1284C49.2893 60.2695 49.4436 60.3331 49.5574 60.4467C49.6712 60.5604 49.7351 60.7145 49.7351 60.8751V64.1609C49.7351 64.3216 49.6712 64.4757 49.5574 64.5893C49.4436 64.7029 49.2893 64.7668 49.1284 64.7668ZM39.7951 63.6017H48.5801V61.5277H39.7951V63.6017Z" fill="#333333"/>
<path d="M39.4211 67.1319C39.2602 67.1319 39.1059 67.068 38.9921 66.9544C38.8784 66.8408 38.8145 66.6867 38.8145 66.526V64.1957C38.8145 64.0351 38.8784 63.881 38.9921 63.7673C39.1059 63.6537 39.2602 63.5898 39.4211 63.5898C39.582 63.5898 39.7363 63.6537 39.8501 63.7673C39.9639 63.881 40.0278 64.0351 40.0278 64.1957V66.526C40.0278 66.6867 39.9639 66.8408 39.8501 66.9544C39.7363 67.068 39.582 67.1319 39.4211 67.1319Z" fill="#333333"/>
<path d="M48.4035 67.1319C48.2426 67.1319 48.0883 67.068 47.9746 66.9544C47.8608 66.8408 47.7969 66.6867 47.7969 66.526V64.1957C47.7969 64.0351 47.8608 63.881 47.9746 63.7673C48.0883 63.6537 48.2426 63.5898 48.4035 63.5898C48.5644 63.5898 48.7187 63.6537 48.8325 63.7673C48.9463 63.881 49.0102 64.0351 49.0102 64.1957V66.526C49.0102 66.6867 48.9463 66.8408 48.8325 66.9544C48.7187 67.068 48.5644 67.1319 48.4035 67.1319Z" fill="#333333"/>
<path d="M53.5273 34.4701L52.6873 37.9655H51.2057L50.5873 34.773C50.5873 34.7148 50.5873 34.54 50.5873 34.4584H49.8057C49.8057 34.5283 49.7357 34.7148 49.7357 34.773L49.024 37.9655H47.589L46.819 34.4701H45.6523V33.3749H46.644L46.0257 30.6367H47.4023L47.9157 33.3749H49.0823L49.6773 30.6367H50.9723L51.4973 33.3749H52.5823L53.154 30.6367H54.4723L53.7957 33.3749H54.8107V34.4701H53.5273ZM48.7557 34.4701H48.079C48.2073 35.1691 48.3123 35.8915 48.394 36.4857C48.499 35.8799 48.639 35.1808 48.7557 34.4701ZM50.039 33.3749H50.3423L50.2023 32.3844C50.1673 32.7107 50.109 33.037 50.039 33.3749ZM52.3723 34.4701H51.7073C51.8357 35.1225 51.929 35.8565 52.0223 36.4741C52.139 35.8565 52.2207 35.1225 52.3607 34.4701H52.3723Z" fill="#333333"/>
</svg>
