<svg width="90" height="90" viewBox="0 0 90 90" fill="none" xmlns="http://www.w3.org/2000/svg">
<circle cx="45" cy="45" r="45" fill="#FAFAFA"/>
<g clip-path="url(#clip0_1283_202842)">
<path d="M60.97 54.1914H28.53V62.8314H60.97V54.1914Z" fill="#235AB0"/>
<path d="M30.08 54.1897L30.33 41.5097L32.34 36.0997L35.4 32.6997L40.37 29.9597L44.81 29.1797L51.04 30.5697L55.73 34.1297L58.82 39.4597L59.46 44.4597V54.1897H30.08Z" fill="white"/>
<path d="M59.83 54.1897H58.83V43.9597C58.732 40.2786 57.2009 36.7812 54.5626 34.2122C51.9244 31.6432 48.3874 30.2056 44.705 30.2056C41.0225 30.2056 37.4856 31.6432 34.8474 34.2122C32.2091 36.7812 30.6779 40.2786 30.58 43.9597V54.1897H29.58V43.9597C29.6814 40.0156 31.3194 36.2671 34.1448 33.5134C36.9703 30.7597 40.7596 29.2188 44.705 29.2188C48.6503 29.2188 52.4396 30.7597 55.2651 33.5134C58.0905 36.2671 59.7285 40.0156 59.83 43.9597V54.1897Z" fill="#333333"/>
<path d="M61.46 63.4514H27.95V53.6914H61.46V63.4514ZM28.95 62.4514H60.46V54.6914H28.95V62.4514Z" fill="#333333"/>
<path d="M34.47 39.9893L33.55 39.5894C34.9756 36.4707 37.5307 34.0084 40.7 32.6992L41.04 33.6392C38.1418 34.8731 35.8018 37.1347 34.47 39.9893Z" fill="#333333"/>
<path d="M45.21 19H44.21V25.73H45.21V19Z" fill="#333333"/>
<path d="M29.2467 22.996L28.5396 23.7031L33.2984 28.4619L34.0055 27.7548L29.2467 22.996Z" fill="#333333"/>
<path d="M27.73 39.2891H21V40.2891H27.73V39.2891Z" fill="#333333"/>
<path d="M61.0576 22.999L56.2988 27.7578L57.0059 28.4649L61.7647 23.7061L61.0576 22.999Z" fill="#333333"/>
<path d="M69.3 39.2891H62.57V40.2891H69.3V39.2891Z" fill="#333333"/>
</g>
<defs>
<clipPath id="clip0_1283_202842">
<rect width="48.3" height="44.45" fill="white" transform="translate(21 19)"/>
</clipPath>
</defs>
</svg>
