<svg width="100" height="100" viewBox="0 0 100 100" fill="none" xmlns="http://www.w3.org/2000/svg">
<circle cx="50" cy="50" r="50" fill="#F2F6FB"/>
<g clip-path="url(#clip0_1096_175288)">
<path d="M26.0995 34.6191L31.8595 36.1891L27.7495 52.1691L21.4395 50.5791L26.0995 34.6191Z" fill="#235AB0"/>
<path d="M67.0898 37.0608L72.9198 35.0508L78.1298 50.9108L77.5998 51.6208L72.1798 53.1308L67.0898 37.0608Z" fill="#235AB0"/>
<path d="M31.6692 37.5605L45.1392 41.1105L48.5392 40.1405L59.3592 42.4805L67.8292 40.0205L71.2492 50.9305L58.7992 56.1705L60.1692 58.0505L59.6892 59.7105L57.6392 60.2505L56.4692 62.3905L53.3092 62.5905L53.3892 63.8905L51.1692 65.0905L49.3392 64.6805L48.4392 65.9605L46.8492 66.0605L44.4092 64.2005L42.1992 66.2105L40.9092 66.0605L39.7892 64.5505L37.7992 64.2505L36.5492 62.1605L34.3292 61.8705L33.4092 60.1905L33.7092 59.2205L32.5092 59.1205L31.8492 57.2605L34.6792 53.9405L32.5092 51.7505L28.1992 50.2405L31.6692 37.5605Z" fill="white"/>
<path d="M57.8292 52.2999C52.8292 52.2999 49.3792 47.3599 49.3292 47.2999C48.8792 46.6799 48.1693 45.9099 47.4193 45.9899C46.6693 46.0699 45.9793 46.99 45.7893 47.36C45.5938 47.9905 45.2698 48.5735 44.8378 49.0726C44.4058 49.5717 43.8752 49.976 43.2792 50.2599C42.8425 50.4153 42.3776 50.476 41.9156 50.4381C41.4535 50.4002 41.0048 50.2645 40.5992 50.0399C40.1949 49.8502 39.8718 49.522 39.6884 49.1149C39.505 48.7077 39.4734 48.2484 39.5992 47.8199L40.4793 44.8199C40.6904 44.0947 41.0576 43.4244 41.5551 42.8561C42.0526 42.2878 42.6684 41.8352 43.3593 41.5299L46.6693 40.0699C47.9707 39.58 49.3971 39.5306 50.7293 39.9298L59.2393 41.9298L67.4893 39.5099C67.5556 39.4901 67.6251 39.4839 67.6939 39.4913C67.7627 39.4988 67.8294 39.5198 67.8899 39.5533C67.9504 39.5869 68.0037 39.632 68.0465 39.6864C68.0893 39.7408 68.1208 39.8033 68.1392 39.87C68.1606 39.9356 68.1685 40.0049 68.1624 40.0736C68.1562 40.1424 68.1361 40.2091 68.1034 40.2699C68.0707 40.3307 68.026 40.3841 67.972 40.4271C67.918 40.4701 67.8558 40.5016 67.7893 40.5199L59.2692 43.0199L50.4992 40.9498C49.3896 40.5945 48.1933 40.6192 47.0992 41.0199L43.7893 42.4799C43.2387 42.7208 42.7475 43.0793 42.3502 43.5301C41.9529 43.981 41.6591 44.5135 41.4893 45.09L40.6192 48.09C40.5539 48.2769 40.5585 48.4811 40.632 48.6649C40.7055 48.8487 40.8431 48.9996 41.0192 49.09C41.2969 49.2499 41.6052 49.3495 41.924 49.3822C42.2427 49.4149 42.5648 49.38 42.8692 49.2799C43.3307 49.0348 43.7384 48.6997 44.0682 48.2943C44.398 47.889 44.6432 47.4218 44.7893 46.92C44.8493 46.81 45.7893 45.06 47.2893 44.92C48.2893 44.84 49.2892 45.43 50.1592 46.67C50.3792 47 55.4392 54.3099 62.2492 49.7399C62.3069 49.7001 62.3719 49.6723 62.4404 49.6578C62.5089 49.6434 62.5796 49.6426 62.6484 49.6556C62.7173 49.6687 62.7828 49.6953 62.8413 49.7338C62.8997 49.7723 62.9501 49.822 62.9893 49.88C63.0654 49.9969 63.0923 50.1391 63.0642 50.2758C63.0361 50.4124 62.9553 50.5325 62.8392 50.61C61.3761 51.6622 59.6308 52.2509 57.8292 52.2999Z" fill="#333333"/>
<path d="M58.7302 56.7592C58.6259 56.7612 58.5233 56.7318 58.4359 56.6747C58.3485 56.6177 58.2803 56.5355 58.2402 56.4391C58.1864 56.309 58.1855 56.1632 58.2378 56.0324C58.2901 55.9016 58.3914 55.7963 58.5202 55.7392L71.1002 50.4491C71.2302 50.3963 71.3758 50.3972 71.5051 50.4516C71.6345 50.5059 71.737 50.6094 71.7902 50.7392C71.8436 50.8679 71.8442 51.0126 71.7918 51.1418C71.7394 51.2709 71.6382 51.374 71.5102 51.4291L58.9302 56.7192C58.8669 56.7458 58.7989 56.7595 58.7302 56.7592Z" fill="#333333"/>
<path d="M58.0397 60.9109C57.697 60.9106 57.3579 60.8402 57.0432 60.7043C56.7286 60.5685 56.4449 60.37 56.2097 60.1208L49.4797 52.9807C49.4304 52.9315 49.3913 52.8732 49.3646 52.8088C49.3379 52.7445 49.3242 52.6754 49.3242 52.6057C49.3242 52.5361 49.3379 52.4672 49.3646 52.4028C49.3913 52.3385 49.4304 52.2799 49.4797 52.2307C49.528 52.1817 49.5857 52.143 49.6492 52.1165C49.7127 52.0899 49.7808 52.0762 49.8497 52.0762C49.9185 52.0762 49.9867 52.0899 50.0502 52.1165C50.1137 52.143 50.1713 52.1817 50.2197 52.2307L56.9496 59.3708C57.1204 59.5561 57.3368 59.6933 57.5772 59.7688C57.8176 59.8443 58.0736 59.8552 58.3196 59.8008C58.5667 59.7501 58.7964 59.6358 58.9858 59.4692C59.1752 59.3026 59.3178 59.0894 59.3997 58.8508C59.4669 58.6563 59.4838 58.4479 59.4488 58.2451C59.4138 58.0423 59.3281 57.8515 59.1996 57.6907L56.0997 54.4907C56.0507 54.4424 56.0118 54.3848 55.9852 54.3213C55.9587 54.2578 55.945 54.1897 55.945 54.1208C55.945 54.052 55.9587 53.9837 55.9852 53.9202C56.0118 53.8567 56.0507 53.7991 56.0997 53.7507C56.1489 53.7014 56.2073 53.6624 56.2717 53.6357C56.336 53.6091 56.405 53.5952 56.4747 53.5952C56.5443 53.5952 56.6133 53.6091 56.6776 53.6357C56.742 53.6624 56.8004 53.7014 56.8497 53.7507L59.9797 56.9907C60.235 57.2913 60.4064 57.6539 60.4766 58.042C60.5469 58.43 60.5134 58.8297 60.3796 59.2007C60.2376 59.6086 59.9927 59.973 59.6686 60.2585C59.3445 60.5441 58.9522 60.7413 58.5297 60.8308C58.3686 60.8699 58.2048 60.8967 58.0397 60.9109Z" fill="#333333"/>
<path d="M54.6497 63.2991C54.1799 63.2989 53.715 63.203 53.2835 63.0173C52.852 62.8317 52.4628 62.56 52.1396 62.219L46.4797 56.2991C46.4304 56.2498 46.3913 56.1913 46.3646 56.127C46.3379 56.0626 46.3242 55.9937 46.3242 55.9241C46.3242 55.8544 46.3379 55.7855 46.3646 55.7212C46.3913 55.6568 46.4304 55.5983 46.4797 55.5491C46.528 55.5001 46.5857 55.4611 46.6492 55.4346C46.7127 55.408 46.7808 55.3945 46.8497 55.3945C46.9185 55.3945 46.9867 55.408 47.0502 55.4346C47.1137 55.4611 47.1713 55.5001 47.2197 55.5491L52.8896 61.469C53.1798 61.7742 53.5447 61.9984 53.9481 62.1194C54.3514 62.2404 54.7794 62.2542 55.1896 62.1592C55.5884 62.0704 55.9571 61.8787 56.2589 61.6033C56.5606 61.3278 56.785 60.9782 56.9097 60.5891C56.9496 60.4476 57.0425 60.327 57.1693 60.2524C57.296 60.1779 57.4466 60.1551 57.5897 60.189C57.6552 60.2039 57.717 60.2324 57.7712 60.2722C57.8253 60.3121 57.8707 60.3625 57.9045 60.4207C57.9383 60.4788 57.9597 60.5433 57.9675 60.6101C57.9752 60.6769 57.9692 60.7447 57.9496 60.8091V60.9092C57.7691 61.4731 57.4444 61.98 57.0076 62.3799C56.5709 62.7798 56.0373 63.0587 55.4597 63.189C55.1945 63.2554 54.9229 63.2924 54.6497 63.2991Z" fill="#333333"/>
<path d="M51.0402 65.5103H50.8502C50.3942 65.4804 49.9488 65.3599 49.5401 65.1555C49.1314 64.9512 48.7677 64.6672 48.4702 64.3203L43.7902 59.1204C43.7409 59.0711 43.7018 59.0126 43.6752 58.9482C43.6485 58.8839 43.6348 58.815 43.6348 58.7454C43.6348 58.6757 43.6485 58.6066 43.6752 58.5422C43.7018 58.4779 43.7409 58.4196 43.7902 58.3704C43.8909 58.2732 44.0253 58.2187 44.1652 58.2188C44.3051 58.2188 44.4396 58.2732 44.5402 58.3704L49.2302 63.5703C49.4354 63.814 49.6869 64.0145 49.9701 64.1604C50.2533 64.3063 50.5626 64.3948 50.8802 64.4204C51.3989 64.4223 51.9072 64.274 52.3436 63.9937C52.7801 63.7133 53.1262 63.3128 53.3402 62.8403C53.376 62.7802 53.4236 62.7278 53.4801 62.6865C53.5366 62.6452 53.6008 62.6157 53.669 62.5999C53.7372 62.584 53.8078 62.5821 53.8768 62.5942C53.9457 62.6063 54.0115 62.6323 54.0702 62.6704C54.1868 62.7446 54.2699 62.8611 54.3016 62.9956C54.3334 63.1301 54.3114 63.2719 54.2402 63.3904C53.9482 63.9999 53.4964 64.5188 52.9329 64.8921C52.3695 65.2654 51.7154 65.479 51.0402 65.5103Z" fill="#333333"/>
<path d="M47.4602 66.6508C46.8221 66.6522 46.2086 66.4045 45.7502 65.9606L32.1202 52.2106L28.1202 50.8908C28.0541 50.8703 27.9929 50.8368 27.9399 50.7924C27.8869 50.748 27.8433 50.6934 27.8116 50.632C27.78 50.5705 27.7609 50.5034 27.7555 50.4345C27.7501 50.3656 27.7585 50.2963 27.7802 50.2306C27.8005 50.1634 27.8343 50.1011 27.8794 50.0473C27.9245 49.9935 27.98 49.9494 28.0426 49.9176C28.1052 49.8859 28.1736 49.8671 28.2437 49.8625C28.3137 49.8578 28.384 49.8675 28.4502 49.8908L32.6902 51.2907L32.7802 51.3808L46.4902 65.2106C46.6779 65.3874 46.9106 65.509 47.163 65.5619C47.4153 65.6149 47.6774 65.5972 47.9202 65.5106C48.1453 65.4404 48.3471 65.3101 48.5038 65.1339C48.6606 64.9578 48.7665 64.7424 48.8102 64.5106C48.8345 64.3721 48.9093 64.2473 49.0201 64.1605C49.1308 64.0738 49.2698 64.0311 49.4102 64.0407C49.4773 64.0469 49.5425 64.0665 49.602 64.098C49.6615 64.1296 49.7142 64.1727 49.757 64.2248C49.7997 64.2768 49.8318 64.337 49.8512 64.4015C49.8706 64.466 49.8771 64.5337 49.8702 64.6007C49.8085 65.0383 49.6248 65.4494 49.34 65.7873C49.0553 66.1251 48.681 66.3758 48.2602 66.5106C48.002 66.5971 47.7324 66.6444 47.4602 66.6508Z" fill="#333333"/>
<path d="M33.3997 59.7097C32.8949 59.7127 32.4055 59.5354 32.0197 59.2097C31.8076 59.039 31.6325 58.8269 31.5053 58.5862C31.378 58.3454 31.3013 58.0813 31.2798 57.8098C31.2581 57.5382 31.2922 57.265 31.3799 57.0071C31.4676 56.7491 31.6071 56.5119 31.7898 56.3098L34.2398 53.6399C34.289 53.5906 34.3474 53.5513 34.4118 53.5247C34.4761 53.498 34.5451 53.4844 34.6148 53.4844C34.6844 53.4844 34.7534 53.498 34.8177 53.5247C34.8821 53.5513 34.9406 53.5906 34.9898 53.6399C35.0388 53.6883 35.0776 53.7458 35.1042 53.8093C35.1307 53.8728 35.1444 53.9409 35.1444 54.0098C35.1444 54.0786 35.1307 54.1467 35.1042 54.2102C35.0776 54.2737 35.0388 54.3315 34.9898 54.3799L32.5398 57.0498C32.3743 57.2479 32.2919 57.5023 32.3097 57.7598C32.318 57.8883 32.3536 58.0137 32.4139 58.1274C32.4742 58.2412 32.558 58.3409 32.6598 58.4199C32.7686 58.5134 32.8949 58.5843 33.0313 58.6289C33.1677 58.6735 33.3116 58.6908 33.4547 58.6797C33.5978 58.6685 33.7372 58.6292 33.8651 58.564C33.9929 58.4988 34.1067 58.4091 34.1997 58.2998C34.249 58.2505 34.3074 58.2115 34.3718 58.1848C34.4361 58.1581 34.5051 58.1443 34.5747 58.1443C34.6444 58.1443 34.7134 58.1581 34.7777 58.1848C34.8421 58.2115 34.9005 58.2505 34.9497 58.2998C34.9987 58.3482 35.0376 58.4057 35.0642 58.4692C35.0907 58.5328 35.1044 58.6011 35.1044 58.6699C35.1044 58.7388 35.0907 58.8068 35.0642 58.8704C35.0376 58.9339 34.9987 58.9914 34.9497 59.0398C34.7496 59.2498 34.5093 59.4174 34.2429 59.5325C33.9766 59.6476 33.6899 59.7079 33.3997 59.7097Z" fill="#333333"/>
<path d="M35.45 62.8401C34.8783 62.8411 34.3264 62.6309 33.9 62.25C33.6636 62.0471 33.4695 61.7997 33.3288 61.5217C33.188 61.2438 33.1035 60.9408 33.08 60.6301C33.0582 60.3178 33.0981 60.0041 33.1976 59.7073C33.2972 59.4104 33.4543 59.1362 33.6601 58.9001L35.9901 56.3401C36.0384 56.2911 36.096 56.2521 36.1596 56.2256C36.2231 56.199 36.2912 56.1855 36.3601 56.1855C36.4289 56.1855 36.497 56.199 36.5606 56.2256C36.6241 56.2521 36.6817 56.2911 36.7301 56.3401C36.7803 56.3877 36.8203 56.4452 36.8476 56.5088C36.8749 56.5724 36.8891 56.6407 36.8891 56.71C36.8891 56.7792 36.8749 56.8478 36.8476 56.9114C36.8203 56.975 36.7803 57.0324 36.7301 57.0801L34.4101 59.6401C34.2981 59.7681 34.2129 59.9171 34.1597 60.0786C34.1064 60.2401 34.0862 60.4106 34.1001 60.5801C34.1086 60.7531 34.153 60.9225 34.2305 61.0774C34.308 61.2323 34.4168 61.3693 34.5501 61.48C34.8065 61.7084 35.1428 61.8261 35.4857 61.8074C35.8285 61.7886 36.15 61.6351 36.38 61.3801L37.65 60C37.6984 59.951 37.756 59.9123 37.8195 59.8857C37.8831 59.8592 37.9512 59.8455 38.02 59.8455C38.0889 59.8455 38.157 59.8592 38.2205 59.8857C38.2841 59.9123 38.3417 59.951 38.39 60C38.4393 60.0492 38.4784 60.1078 38.5051 60.1721C38.5318 60.2365 38.5455 60.3053 38.5455 60.375C38.5455 60.4447 38.5318 60.5138 38.5051 60.5781C38.4784 60.6425 38.4393 60.7008 38.39 60.75L37.13 62.1201C36.9123 62.3463 36.6515 62.5265 36.3629 62.6501C36.0744 62.7738 35.764 62.8384 35.45 62.8401Z" fill="#333333"/>
<path d="M38.6491 64.8093C38.0544 64.8141 37.4809 64.5882 37.0491 64.1792C36.5918 63.7561 36.3211 63.1687 36.2967 62.5461C36.2723 61.9236 36.4962 61.3169 36.9191 60.8594L38.8591 58.7393C38.9598 58.6421 39.0942 58.5879 39.2341 58.5879C39.374 58.5879 39.5084 58.6421 39.6091 58.7393C39.6584 58.7885 39.6975 58.847 39.7242 58.9114C39.7508 58.9757 39.7646 59.0446 39.7646 59.1143C39.7646 59.1839 39.7508 59.253 39.7242 59.3174C39.6975 59.3817 39.6584 59.44 39.6091 59.4893L37.6691 61.6094C37.437 61.8619 37.3141 62.196 37.3272 62.5388C37.3403 62.8816 37.4884 63.2051 37.7391 63.4392C37.9904 63.6726 38.3236 63.7974 38.6664 63.7861C39.0092 63.7749 39.3336 63.6288 39.5691 63.3794L40.4291 62.4692C40.4783 62.42 40.5368 62.3809 40.6011 62.3542C40.6655 62.3276 40.7345 62.314 40.8041 62.314C40.8738 62.314 40.9427 62.3276 41.0071 62.3542C41.0714 62.3809 41.1299 62.42 41.1791 62.4692C41.2284 62.5185 41.2675 62.577 41.2942 62.6414C41.3208 62.7057 41.3346 62.7746 41.3346 62.8442C41.3346 62.9139 41.3208 62.983 41.2942 63.0474C41.2675 63.1117 41.2284 63.17 41.1791 63.2192L40.3191 64.1294C40.0992 64.3471 39.8385 64.519 39.5519 64.6357C39.2653 64.7524 38.9585 64.8115 38.6491 64.8093Z" fill="#333333"/>
<path d="M41.6503 66.7197C41.0706 66.718 40.5131 66.4965 40.0903 66.0999C39.6599 65.6856 39.4102 65.1184 39.3952 64.5212C39.3803 63.9241 39.6012 63.3452 40.0103 62.9099L41.6003 61.2197C41.6495 61.1704 41.708 61.1314 41.7723 61.1047C41.8367 61.0781 41.9057 61.0645 41.9753 61.0645C42.045 61.0645 42.1139 61.0781 42.1783 61.1047C42.2426 61.1314 42.3011 61.1704 42.3503 61.2197C42.3996 61.269 42.4387 61.3275 42.4654 61.3918C42.4921 61.4562 42.5058 61.5251 42.5058 61.5947C42.5058 61.6644 42.4921 61.7335 42.4654 61.7979C42.4387 61.8622 42.3996 61.9205 42.3503 61.9697L40.7603 63.6599C40.6487 63.7705 40.5602 63.9021 40.4997 64.0471C40.4393 64.1922 40.4082 64.3478 40.4082 64.5049C40.4082 64.662 40.4393 64.8174 40.4997 64.9624C40.5602 65.1074 40.6487 65.2392 40.7603 65.3499C40.9863 65.5704 41.2896 65.6938 41.6053 65.6938C41.9211 65.6938 42.2243 65.5704 42.4503 65.3499L44.1303 63.7197C44.1795 63.6704 44.238 63.6314 44.3024 63.6047C44.3667 63.5781 44.4356 63.5645 44.5053 63.5645C44.5749 63.5645 44.6439 63.5781 44.7083 63.6047C44.7726 63.6314 44.8311 63.6704 44.8803 63.7197C44.9296 63.769 44.9687 63.8275 44.9953 63.8918C45.022 63.9562 45.0357 64.0251 45.0357 64.0947C45.0357 64.1644 45.022 64.2335 44.9953 64.2979C44.9687 64.3622 44.9296 64.4205 44.8803 64.4697L43.2103 66.0898C42.7902 66.4919 42.2318 66.7173 41.6503 66.7197Z" fill="#333333"/>
<path d="M45.1898 41.6908H45.0598L31.5698 38.2408C31.502 38.2234 31.4384 38.1927 31.3825 38.1505C31.3266 38.1083 31.2797 38.0554 31.2444 37.995C31.209 37.9345 31.186 37.8678 31.1766 37.7984C31.1673 37.7291 31.1718 37.6586 31.1898 37.5909C31.2274 37.4576 31.3148 37.3438 31.4339 37.2731C31.553 37.2023 31.6948 37.1799 31.8298 37.2108L45.3198 40.661C45.4572 40.6964 45.5751 40.7842 45.6481 40.9059C45.721 41.0275 45.7432 41.173 45.7098 41.3109C45.6755 41.4217 45.6063 41.5183 45.5127 41.5868C45.419 41.6552 45.3058 41.6917 45.1898 41.6908Z" fill="#333333"/>
<path d="M27.2496 52.8092C27.1467 52.8232 27.0424 52.8232 26.9396 52.8092L21.9396 51.4491C21.6312 51.3615 21.3693 51.1571 21.2096 50.8793C21.0506 50.6038 21.0074 50.2764 21.0896 49.9691L25.1396 34.9691C25.2238 34.6606 25.4269 34.3982 25.7042 34.2389C25.9815 34.0796 26.3106 34.0366 26.6195 34.1192L31.6696 35.4791C31.9767 35.5657 32.2376 35.7691 32.3965 36.0458C32.5553 36.3224 32.5995 36.6502 32.5196 36.9591L28.4696 51.9591C28.3898 52.2163 28.2265 52.4396 28.0055 52.5936C27.7845 52.7476 27.5185 52.8235 27.2496 52.8092ZM27.2496 51.7491C27.288 51.7582 27.3285 51.7517 27.3622 51.7311C27.3959 51.7105 27.4201 51.6776 27.4296 51.6393L31.4296 36.6393C31.4391 36.6022 31.4339 36.5629 31.4153 36.5294C31.3967 36.4959 31.3661 36.4707 31.3296 36.4591L26.2696 35.0992C26.2325 35.0898 26.1932 35.0948 26.1597 35.1134C26.1262 35.132 26.1012 35.1626 26.0896 35.1991L22.0396 50.1991C22.0349 50.2345 22.0422 50.2706 22.0603 50.3014C22.0784 50.3322 22.1063 50.3562 22.1396 50.3692L27.2496 51.7491Z" fill="#333333"/>
<path d="M72.4799 53.5491C72.2266 53.5488 71.9799 53.4682 71.7752 53.3191C71.5704 53.17 71.418 52.96 71.3399 52.719L66.43 37.939C66.332 37.635 66.357 37.3048 66.4999 37.0191C66.5708 36.8775 66.6693 36.7515 66.7895 36.6485C66.9097 36.5454 67.0492 36.4676 67.1999 36.4192L72.1999 34.7691C72.3496 34.7189 72.5078 34.6989 72.6652 34.71C72.8227 34.7211 72.9764 34.7632 73.1176 34.8338C73.2588 34.9044 73.3847 35.002 73.4881 35.1214C73.5914 35.2407 73.6702 35.3793 73.7199 35.5291L78.6199 50.3191C78.67 50.4688 78.6902 50.627 78.6791 50.7845C78.668 50.9419 78.6259 51.0957 78.5553 51.2369C78.4847 51.3781 78.387 51.5039 78.2677 51.6072C78.1483 51.7106 78.0098 51.7894 77.8599 51.8391L72.8599 53.489C72.7371 53.5284 72.6089 53.5487 72.4799 53.5491ZM72.5399 35.7591L67.5399 37.4092C67.5051 37.4211 67.4764 37.4461 67.4599 37.479C67.4503 37.4958 67.4452 37.5149 67.4452 37.5342C67.4452 37.5535 67.4503 37.5724 67.4599 37.5891L72.3599 52.3792C72.3654 52.3983 72.3749 52.416 72.3878 52.4312C72.4007 52.4464 72.4166 52.4586 72.4346 52.4671C72.4526 52.4756 72.4721 52.4802 72.492 52.4805C72.5119 52.4809 72.5317 52.4769 72.55 52.469L77.55 50.8291C77.5872 50.8155 77.618 50.7886 77.6365 50.7535C77.655 50.7183 77.6598 50.6776 77.6499 50.6392L72.74 35.8492C72.7348 35.8287 72.725 35.8096 72.7114 35.7935C72.6979 35.7773 72.6809 35.7645 72.6616 35.7559C72.6424 35.7472 72.6215 35.7429 72.6004 35.7434C72.5793 35.744 72.5587 35.7494 72.5399 35.7591Z" fill="#333333"/>
</g>
<defs>
<clipPath id="clip0_1096_175288">
<rect width="57.65" height="32.72" fill="white" transform="translate(21 34)"/>
</clipPath>
</defs>
</svg>
