<svg width="90" height="90" viewBox="0 0 90 90" fill="none" xmlns="http://www.w3.org/2000/svg">
<g clip-path="url(#clip0_679_107364)">
<path d="M33.825 32.04H21C20.5858 32.04 20.25 32.3758 20.25 32.79V61.62C20.25 62.0343 20.5858 62.37 21 62.37H33.825C34.2392 62.37 34.575 62.0343 34.575 61.62V32.79C34.575 32.3758 34.2392 32.04 33.825 32.04Z" fill="white" stroke="#333333" stroke-miterlimit="10"/>
<path d="M29.3848 35.4H24.8848V39.9H29.3848V35.4Z" fill="#235AB0"/>
<path d="M29.3848 42.78H24.8848V47.28H29.3848V42.78Z" fill="#235AB0"/>
<path d="M69.9148 32.04H57.0898C56.6756 32.04 56.3398 32.3758 56.3398 32.79V61.62C56.3398 62.0343 56.6756 62.37 57.0898 62.37H69.9148C70.3291 62.37 70.6648 62.0343 70.6648 61.62V32.79C70.6648 32.3758 70.3291 32.04 69.9148 32.04Z" fill="white" stroke="#333333" stroke-miterlimit="10"/>
<path d="M66.1348 35.4H61.6348V39.9H66.1348V35.4Z" fill="#235AB0"/>
<path d="M66.1348 42.78H61.6348V47.28H66.1348V42.78Z" fill="#235AB0"/>
<path d="M56.9552 26.25H33.8252C33.411 26.25 33.0752 26.5858 33.0752 27V61.62C33.0752 62.0342 33.411 62.37 33.8252 62.37H56.9552C57.3694 62.37 57.7052 62.0342 57.7052 61.62V27C57.7052 26.5858 57.3694 26.25 56.9552 26.25Z" fill="white" stroke="#333333" stroke-miterlimit="10"/>
<path d="M41.2197 30.45H36.7197V34.95H41.2197V30.45Z" fill="#235AB0"/>
<path d="M47.6396 30.45H43.1396V34.95H47.6396V30.45Z" fill="#235AB0"/>
<path d="M54.0752 30.45H49.5752V34.95H54.0752V30.45Z" fill="#235AB0"/>
<path d="M41.2197 37.995H36.7197V42.495H41.2197V37.995Z" fill="#235AB0"/>
<path d="M47.6396 37.995H43.1396V42.495H47.6396V37.995Z" fill="#235AB0"/>
<path d="M54.0752 37.995H49.5752V42.495H54.0752V37.995Z" fill="#235AB0"/>
<path d="M41.2197 45.5551H36.7197V50.0551H41.2197V45.5551Z" fill="#235AB0"/>
<path d="M47.6396 45.5551H43.1396V50.0551H47.6396V45.5551Z" fill="#235AB0"/>
<path d="M54.0752 45.5551H49.5752V50.0551H54.0752V45.5551Z" fill="#235AB0"/>
</g>
<defs>
<clipPath id="clip0_679_107364">
<rect width="51.915" height="37.62" fill="white" transform="translate(19.5 25.5)"/>
</clipPath>
</defs>
</svg>
