<svg width="100" height="100" viewBox="0 0 100 100" fill="none" xmlns="http://www.w3.org/2000/svg">
<circle cx="50" cy="50" r="50" fill="#F2F6FB"/>
<g clip-path="url(#clip0_1307_206081)">
<path d="M69.05 31.4004H28V62.5704H69.05V31.4004Z" fill="white"/>
<path d="M70.84 50.5898H66.72V59.8498H70.84V50.5898Z" fill="white"/>
<path d="M71.8699 51.4297H70.3899V58.9797H71.8699V51.4297Z" fill="white"/>
<path d="M69.2001 57.2891H63.6201V68.5291H69.2001V57.2891Z" fill="white"/>
<path d="M30.1299 52.2191L30.4199 34.3691L65.8999 34.5391V40.9091L63.9199 43.2391L64.0499 46.9791L65.8999 48.2491V50.0391L60.7699 52.5491L55.4499 46.7591L50.1699 53.0391L41.7699 44.7891L39.9899 42.2491L30.1299 52.2191Z" fill="#235AB0"/>
<path d="M61.31 39.8008H57.77V43.7008H61.31V39.8008Z" fill="white"/>
<path d="M61.0601 63.0201H27.5901C27.5122 63.0215 27.4349 63.0073 27.3627 62.9781C27.2905 62.9489 27.2249 62.9055 27.1699 62.8504C27.1148 62.7954 27.0714 62.7298 27.0422 62.6576C27.0131 62.5854 26.9987 62.5081 27.0001 62.4303V31.5902C26.9987 31.5123 27.0131 31.4351 27.0422 31.3629C27.0714 31.2907 27.1148 31.2251 27.1699 31.17C27.2249 31.115 27.2905 31.0715 27.3627 31.0423C27.4349 31.0132 27.5122 30.9987 27.5901 31.0001H69.0701C69.1479 30.9987 69.2253 31.0132 69.2975 31.0423C69.3697 31.0715 69.4352 31.115 69.4903 31.17C69.5454 31.2251 69.5888 31.2907 69.6179 31.3629C69.6471 31.4351 69.6614 31.5123 69.6601 31.5902V39.7201C69.6601 39.7971 69.6448 39.8734 69.615 39.9444C69.5852 40.0155 69.5416 40.0799 69.4867 40.1339C69.4318 40.1879 69.3666 40.2303 69.2951 40.2589C69.2236 40.2874 69.1471 40.3015 69.0701 40.3001C68.9153 40.3002 68.7668 40.2394 68.6564 40.1309C68.546 40.0225 68.4827 39.8748 68.4801 39.7201V32.1703H28.1801V61.8202H61.0601C61.2148 61.8228 61.3623 61.8861 61.4708 61.9964C61.5793 62.1068 61.6401 62.2555 61.6401 62.4102C61.6442 62.4889 61.6322 62.5676 61.6049 62.6414C61.5775 62.7153 61.5355 62.7829 61.4812 62.8399C61.4269 62.897 61.3616 62.9422 61.2892 62.9732C61.2168 63.0042 61.1388 63.0202 61.0601 63.0201Z" fill="#333333"/>
<path d="M59.52 60.0802H30.52C30.4422 60.0815 30.3648 60.0671 30.2926 60.0379C30.2205 60.0088 30.1549 59.9653 30.0998 59.9102C30.0447 59.8552 30.0013 59.7898 29.9722 59.7176C29.943 59.6454 29.9287 59.5679 29.93 59.4901V34.4901C29.93 34.4131 29.9453 34.337 29.9751 34.266C30.0049 34.1949 30.0485 34.1305 30.1034 34.0765C30.1583 34.0225 30.2235 33.9801 30.295 33.9515C30.3665 33.9229 30.443 33.9089 30.52 33.9102H66.13C66.207 33.9089 66.2835 33.9229 66.355 33.9515C66.4266 33.9801 66.4917 34.0225 66.5466 34.0765C66.6015 34.1305 66.6452 34.1949 66.6749 34.266C66.7047 34.337 66.72 34.4131 66.72 34.4901V39.6903C66.72 39.7673 66.7047 39.8434 66.6749 39.9144C66.6452 39.9854 66.6015 40.0499 66.5466 40.1038C66.4917 40.1578 66.4266 40.2003 66.355 40.2288C66.2835 40.2574 66.207 40.2714 66.13 40.2701C65.9753 40.2701 65.8267 40.2094 65.7163 40.1009C65.606 39.9924 65.5426 39.845 65.54 39.6903V35.0802H31.13V58.8802H59.54C59.617 58.8789 59.6935 58.8929 59.765 58.9215C59.8366 58.95 59.9017 58.9925 59.9566 59.0465C60.0115 59.1005 60.0552 59.1649 60.0849 59.2359C60.1147 59.307 60.13 59.383 60.13 59.46C60.1358 59.5421 60.1241 59.6246 60.0956 59.7017C60.0671 59.7789 60.0226 59.8492 59.9649 59.9078C59.9072 59.9664 59.8377 60.0121 59.761 60.0418C59.6843 60.0716 59.6022 60.0846 59.52 60.0802Z" fill="#333333"/>
<path d="M44.94 59.8206C44.7991 59.8192 44.6638 59.7659 44.56 59.6707C44.4423 59.5683 44.37 59.4234 44.3587 59.2678C44.3475 59.1123 44.3983 58.9588 44.5 58.8406L54.99 46.8406C55.0478 46.781 55.1169 46.7335 55.1934 46.7012C55.2698 46.6688 55.352 46.6523 55.435 46.6523C55.518 46.6523 55.6001 46.6688 55.6766 46.7012C55.753 46.7335 55.8222 46.781 55.88 46.8406L59.2 50.6306C59.3017 50.7488 59.3525 50.9023 59.3412 51.0579C59.33 51.2134 59.2576 51.3581 59.14 51.4604C59.0218 51.5622 58.8681 51.613 58.7126 51.6018C58.5571 51.5906 58.4123 51.5183 58.31 51.4006L55.43 48.1206L45.43 59.5906C45.3715 59.664 45.2969 59.723 45.2119 59.7629C45.1269 59.8028 45.0338 59.8225 44.94 59.8206Z" fill="#333333"/>
<path d="M50.13 53.9795C50.0453 53.9793 49.9615 53.9614 49.884 53.927C49.8065 53.8926 49.737 53.8423 49.6801 53.7795L40.02 42.7795L31.02 53.0095C30.9177 53.1272 30.773 53.1997 30.6174 53.2109C30.4619 53.2222 30.3082 53.1713 30.19 53.0696C30.0747 52.9658 30.004 52.8215 29.9928 52.6667C29.9816 52.512 30.0308 52.3588 30.13 52.2395L39.55 41.4995C39.6054 41.4376 39.6732 41.3879 39.749 41.354C39.8248 41.3201 39.907 41.3027 39.9901 41.3027C40.0731 41.3027 40.1553 41.3201 40.2311 41.354C40.3069 41.3879 40.3747 41.4376 40.4301 41.4995L50.5401 53.0295C50.5901 53.0872 50.6283 53.1543 50.6524 53.2268C50.6765 53.2993 50.686 53.376 50.6804 53.4521C50.6749 53.5283 50.6543 53.6027 50.6199 53.6709C50.5855 53.7391 50.538 53.7998 50.48 53.8496C50.3813 53.931 50.258 53.9767 50.13 53.9795Z" fill="#333333"/>
<path d="M59.5199 44.4109C58.8197 44.4109 58.1482 44.1325 57.6531 43.6375C57.158 43.1424 56.8799 42.4709 56.8799 41.7708C56.8799 41.0706 57.158 40.3991 57.6531 39.9041C58.1482 39.409 58.8197 39.1309 59.5199 39.1309C59.8679 39.1361 60.2115 39.2096 60.531 39.3477C60.8505 39.4857 61.1397 39.6853 61.3821 39.9351C61.6245 40.1849 61.8152 40.4802 61.9436 40.8037C62.0719 41.1273 62.1352 41.4728 62.1299 41.8208C62.1144 42.5063 61.8339 43.1591 61.3472 43.6421C60.8605 44.1251 60.2055 44.4007 59.5199 44.4109ZM59.5199 40.3008C59.1317 40.3034 58.7604 40.4595 58.4869 40.7349C58.2134 41.0103 58.0599 41.3826 58.0599 41.7708C58.0599 42.1589 58.2134 42.5312 58.4869 42.8066C58.7604 43.082 59.1317 43.2381 59.5199 43.2407C59.9098 43.2407 60.2837 43.086 60.5593 42.8103C60.835 42.5346 60.9899 42.1606 60.9899 41.7708C60.9899 41.3809 60.835 41.0071 60.5593 40.7314C60.2837 40.4558 59.9098 40.3008 59.5199 40.3008Z" fill="#333333"/>
<path d="M66.49 48.7407C64.68 48.7407 63.21 46.9707 63.21 44.7407C63.21 42.5107 64.68 40.8008 66.49 40.8008C68.3 40.8008 69.77 42.5707 69.77 44.7407C69.77 46.9107 68.3 48.7407 66.49 48.7407ZM66.49 42.0208C65.33 42.0208 64.38 43.2608 64.38 44.7908C64.38 46.3208 65.38 47.5608 66.49 47.5608C67.6 47.5608 68.6 46.3208 68.6 44.7908C68.6 43.2608 67.65 42.0208 66.49 42.0208Z" fill="#333333"/>
<path d="M69.73 60.8208C69.6132 60.8207 69.4992 60.7853 69.4028 60.7192C69.3065 60.6532 69.2323 60.5596 69.19 60.4507C69.1341 60.3061 69.1374 60.1454 69.1992 60.0032C69.2609 59.8609 69.3762 59.7488 69.52 59.6909C70.2009 59.4213 70.7847 58.9525 71.195 58.3459C71.6053 57.7394 71.8232 57.0231 71.82 56.2908V54.2908C71.82 53.3254 71.4365 52.3997 70.7539 51.717C70.0713 51.0344 69.1454 50.6509 68.18 50.6509H64.8C63.8346 50.6509 62.9088 51.0344 62.2262 51.717C61.5435 52.3997 61.16 53.3254 61.16 54.2908V56.2908C61.1569 57.0231 61.3747 57.7394 61.785 58.3459C62.1954 58.9525 62.7791 59.4213 63.46 59.6909C63.6039 59.7488 63.7191 59.8609 63.7809 60.0032C63.8426 60.1454 63.8459 60.3061 63.79 60.4507C63.7321 60.5945 63.6199 60.71 63.4777 60.7717C63.3355 60.8335 63.1747 60.8367 63.03 60.7808C62.1279 60.4276 61.3538 59.8097 60.8094 59.0083C60.265 58.2069 59.9759 57.2596 59.98 56.2908V54.2908C59.98 53.6578 60.1047 53.0311 60.3469 52.4463C60.5892 51.8615 60.9442 51.3301 61.3918 50.8826C61.8393 50.435 62.3707 50.0799 62.9555 49.8376C63.5403 49.5954 64.1671 49.4707 64.8 49.4707H68.18C69.4576 49.4733 70.682 49.9821 71.5854 50.8855C72.4887 51.7889 72.9974 53.0132 73 54.2908V56.2908C73.0081 57.2538 72.7263 58.1968 72.1913 58.9976C71.6563 59.7983 70.8928 60.4197 70 60.7808C69.9149 60.817 69.822 60.8308 69.73 60.8208Z" fill="#333333"/>
<path d="M66.4899 68.5294C66.3334 68.5294 66.1834 68.4672 66.0727 68.3565C65.9621 68.2459 65.8999 68.096 65.8999 67.9395V60.1895C65.8999 60.1125 65.9152 60.0362 65.945 59.9652C65.9748 59.8941 66.0184 59.8297 66.0733 59.7757C66.1282 59.7217 66.1933 59.6793 66.2649 59.6507C66.3364 59.6222 66.4129 59.6081 66.4899 59.6095C66.6447 59.6094 66.7932 59.6702 66.9036 59.7787C67.014 59.8871 67.0773 60.0348 67.0799 60.1895V67.9395C67.0773 68.0952 67.0143 68.2438 66.9042 68.3538C66.7942 68.4639 66.6456 68.5268 66.4899 68.5294Z" fill="#333333"/>
<path d="M65.03 69.1693C64.2696 69.1524 63.5383 68.8733 62.96 68.3792C62.8952 68.3255 62.8428 68.2582 62.8065 68.1822C62.7703 68.1062 62.751 68.0235 62.75 67.9393V53.6292C62.75 53.5518 62.7653 53.475 62.7949 53.4034C62.8246 53.3318 62.868 53.2668 62.9228 53.212C62.9776 53.1572 63.0426 53.1137 63.1142 53.0841C63.1858 53.0544 63.2625 53.0391 63.34 53.0391C63.4179 53.0378 63.4952 53.0522 63.5674 53.0814C63.6396 53.1106 63.7052 53.154 63.7602 53.2091C63.8153 53.2641 63.8587 53.3295 63.8878 53.4017C63.917 53.4739 63.9314 53.5514 63.93 53.6292V67.6292C64.2392 67.8754 64.6282 67.9993 65.0229 67.9771C65.4175 67.955 65.7902 67.7883 66.07 67.5091C66.1805 67.3998 66.3296 67.3385 66.485 67.3385C66.6404 67.3385 66.7895 67.3998 66.9 67.5091C67.1825 67.7871 67.5566 67.9526 67.9524 67.9747C68.3481 67.9968 68.7383 67.874 69.05 67.6292V53.6292C69.0486 53.5514 69.063 53.4739 69.0922 53.4017C69.1213 53.3295 69.1647 53.2641 69.2198 53.2091C69.2748 53.154 69.3404 53.1106 69.4126 53.0814C69.4848 53.0522 69.5621 53.0378 69.64 53.0391C69.717 53.0391 69.7933 53.0545 69.8643 53.0843C69.9353 53.1141 69.9997 53.1576 70.0537 53.2125C70.1077 53.2674 70.1502 53.3326 70.1788 53.4041C70.2073 53.4757 70.2213 53.5522 70.22 53.6292V67.9393C70.2209 68.0228 70.2035 68.1055 70.1689 68.1815C70.1344 68.2575 70.0835 68.325 70.02 68.3792C69.549 68.8139 68.9476 69.0807 68.3093 69.1385C67.671 69.1964 67.0315 69.0419 66.49 68.6991C66.064 69.0036 65.5537 69.1681 65.03 69.1693Z" fill="#333333"/>
</g>
<defs>
<clipPath id="clip0_1307_206081">
<rect width="46" height="38.18" fill="white" transform="translate(27 31)"/>
</clipPath>
</defs>
</svg>
