<svg width="100" height="100" viewBox="0 0 100 100" fill="none" xmlns="http://www.w3.org/2000/svg">
<circle cx="50" cy="50" r="50" fill="#F2F6FB"/>
<g clip-path="url(#clip0_1756_335669)">
<path d="M46.67 23.51C44.153 23.5087 41.6605 24.0033 39.3347 24.9656C37.009 25.9279 34.8956 27.3391 33.1154 29.1184C31.3352 30.8977 29.9229 33.0102 28.9594 35.3355C27.9959 37.6607 27.5 40.153 27.5 42.6699C27.5 45.1869 27.9959 47.6794 28.9594 50.0046C29.9229 52.3299 31.3352 54.4424 33.1154 56.2217C34.8956 58.001 37.009 59.4122 39.3347 60.3745C41.6605 61.3368 44.153 61.8314 46.67 61.8301C51.7516 61.8301 56.625 59.8115 60.2182 56.2183C63.8114 52.6251 65.83 47.7515 65.83 42.6699C65.83 37.5884 63.8114 32.715 60.2182 29.1218C56.625 25.5286 51.7516 23.51 46.67 23.51ZM46.67 56.51C44.8569 56.5113 43.0613 56.1553 41.3859 55.4624C39.7104 54.7695 38.188 53.7533 36.9055 52.4717C35.623 51.1901 34.6056 49.6684 33.9114 47.9934C33.2173 46.3185 32.86 44.523 32.86 42.71C32.86 40.8969 33.2173 39.1017 33.9114 37.4268C34.6056 35.7518 35.623 34.2301 36.9055 32.9485C38.188 31.6669 39.7104 30.6504 41.3859 29.9575C43.0613 29.2646 44.8569 28.9086 46.67 28.9099C50.33 28.9099 53.8401 30.3639 56.4281 32.9519C59.0161 35.5399 60.47 39.05 60.47 42.71C60.4594 46.363 59.0008 49.8628 56.414 52.4421C53.8271 55.0215 50.3231 56.47 46.67 56.47V56.51Z" fill="white"/>
<path d="M46.6694 57.02C42.8767 57.0174 39.2399 55.5103 36.5571 52.8293C33.8743 50.1484 32.3647 46.5127 32.3594 42.72C32.3647 38.9273 33.8743 35.2915 36.5571 32.6106C39.2399 29.9297 42.8767 28.4226 46.6694 28.4199C50.4603 28.4252 54.0945 29.9336 56.7751 32.6143C59.4558 35.2949 60.9641 38.929 60.9694 42.72C60.9641 46.5109 59.4558 50.1451 56.7751 52.8257C54.0945 55.5063 50.4603 57.0147 46.6694 57.02ZM46.6694 29.4199C43.1419 29.4226 39.7595 30.8245 37.2642 33.3179C34.769 35.8112 33.3647 39.1925 33.3594 42.72C33.3647 46.2475 34.769 49.6289 37.2642 52.1223C39.7595 54.6157 43.1419 56.0174 46.6694 56.02C50.1959 56.0174 53.5773 54.6152 56.071 52.1216C58.5646 49.6279 59.9667 46.2465 59.9694 42.72C59.9746 40.9696 59.6346 39.2353 58.9687 37.6165C58.3027 35.9976 57.3241 34.5262 56.0887 33.2861C54.8532 32.0461 53.3854 31.0619 51.7691 30.3899C50.1528 29.7179 48.4198 29.3714 46.6694 29.3701V29.4199Z" fill="#333333"/>
<path d="M54.5781 58.1899L58.4881 64.4099L63.0081 61.2499L59.1681 55.4399L54.5781 58.1899Z" fill="white"/>
<path d="M46.6911 62.3401C43.52 62.3455 40.3946 61.5844 37.5809 60.1218C34.7672 58.6593 32.3486 56.5385 30.5311 53.94C27.5491 49.6588 26.3872 44.3697 27.3002 39.2329C28.2132 34.0962 31.1265 29.5314 35.4011 26.5401C39.6818 23.5597 44.9694 22.3976 50.1052 23.3086C55.2411 24.2196 59.8065 27.1291 62.8011 31.3999C65.783 35.681 66.945 40.9704 66.032 46.1072C65.119 51.244 62.2056 55.8087 57.9311 58.8001C54.6371 61.1069 50.7125 62.343 46.6911 62.3401ZM46.6411 24C42.8237 23.9973 39.0981 25.1706 35.9711 27.3601C31.9165 30.1999 29.1534 34.5315 28.2874 39.4053C27.4213 44.2791 28.5231 49.2973 31.3511 53.3601C34.1892 57.4168 38.5209 60.1817 43.3955 61.0479C48.2701 61.914 53.2891 60.8106 57.3511 57.98C61.4056 55.1402 64.1688 50.8086 65.0348 45.9348C65.9008 41.0611 64.7991 36.0428 61.9711 31.98C60.2465 29.516 57.9518 27.5054 55.2826 26.1194C52.6134 24.7334 49.6487 24.0132 46.6411 24.02V24Z" fill="#333333"/>
<path d="M58.3606 65.1001L54.6406 59.77L59.9706 56.04L63.7006 61.3801L58.3606 65.1001ZM56.0306 60.01L58.6106 63.71L62.3106 61.1301L59.7206 57.4299L56.0306 60.01Z" fill="#333333"/>
<path d="M56.1094 64.0099L64.2894 58.6699L72.3294 70.7899L64.4094 76.5199L56.1094 64.0099Z" fill="#235AB0"/>
<path d="M64.0513 77.17H63.9113H63.7013L63.5113 76.95L55.4113 64.7401C55.329 64.5626 55.3173 64.3606 55.3786 64.1749C55.4399 63.9891 55.5696 63.8337 55.7413 63.7401L63.5813 58.3502C63.7827 58.2109 64.0282 58.1503 64.2713 58.18H64.4813L64.6813 58.4L72.7713 70.6102C72.8569 70.786 72.8713 70.9879 72.8117 71.1741C72.7521 71.3604 72.623 71.5167 72.4513 71.6102L64.6013 77.0001C64.4386 77.1094 64.2473 77.1685 64.0513 77.17ZM56.4213 64.4L64.1613 76.0701L71.7713 70.8502L64.0213 59.18L56.4213 64.4Z" fill="#333333"/>
</g>
<defs>
<clipPath id="clip0_1756_335669">
<rect width="45.88" height="54.17" fill="white" transform="translate(27 23)"/>
</clipPath>
</defs>
</svg>
