<svg width="100" height="100" viewBox="0 0 100 100" fill="none" xmlns="http://www.w3.org/2000/svg">
<circle cx="50" cy="50" r="50" fill="#F2F6FB"/>
<g clip-path="url(#clip0_1856_378784)">
<path d="M43.1183 36.8803L38.2283 32.3503L40.3683 30.1803L42.7583 29.5303L45.1683 30.6903L45.8783 31.6603L48.9483 30.1503L51.1783 30.2103L53.1983 31.8403L55.3783 29.6703H58.1783L60.8083 32.2003L56.2483 36.8803L65.2183 51.3203L67.6083 57.7503L67.0483 63.2703L64.5583 67.5403L60.1483 70.4803H40.1283L34.6283 67.8903L31.9183 63.6003L31.4883 58.2303L33.0883 52.5203L43.1183 36.8803Z" fill="white"/>
<path d="M56.9012 71.2195H42.1113C39.2035 71.2147 36.4136 70.069 34.3417 68.0288C32.2697 65.9887 31.081 63.217 31.0312 60.3096V60.1895C31.0678 56.2185 32.3749 52.3636 34.7612 49.1895L42.6912 36.6297C42.7407 36.5557 42.8076 36.495 42.8861 36.4532C42.9646 36.4113 43.0523 36.3895 43.1412 36.3897H56.1412C56.2315 36.3887 56.3205 36.4113 56.3994 36.4551C56.4783 36.4989 56.5444 36.5625 56.5912 36.6397L64.3812 49.2295C66.7623 52.4052 68.0626 56.2605 68.0912 60.2295C68.022 61.9207 67.5924 63.5778 66.8312 65.0896C65.9177 66.94 64.5021 68.4959 62.7462 69.5799C60.9902 70.6638 58.9648 71.232 56.9012 71.2195ZM43.4012 37.4395L35.6113 49.7896C33.3413 52.7848 32.0965 56.4314 32.0613 60.1895V60.2996C32.0982 62.9361 33.1748 65.4513 35.057 67.2979C36.9392 69.1445 39.4745 70.1731 42.1113 70.1597H56.9012C58.7712 70.1671 60.6058 69.6501 62.1967 68.6673C63.7875 67.6845 65.071 66.2752 65.9012 64.5996C66.5908 63.227 66.9827 61.7241 67.0513 60.1895C67.0133 56.4444 65.7761 52.8101 63.5212 49.8196L55.8713 37.4395H43.4012Z" fill="#333333"/>
<path d="M43.11 37.4399C43.0415 37.4411 42.9733 37.4286 42.9097 37.4028C42.8462 37.3771 42.7885 37.3386 42.7401 37.29L37.91 32.6201C37.8094 32.519 37.752 32.3826 37.75 32.24C37.752 32.0974 37.8094 31.9612 37.91 31.8601L39.64 30.1301C40.3635 29.4089 41.3435 29.0039 42.3651 29.0039C43.3866 29.0039 44.3665 29.4089 45.09 30.1301L46.09 31.1301L46.34 30.8801C47.211 30.016 48.3882 29.531 49.6151 29.531C50.8419 29.531 52.0191 30.016 52.89 30.8801L53.13 31.1301L54.13 30.1301C54.8702 29.4413 55.8439 29.0583 56.855 29.0583C57.8662 29.0583 58.8398 29.4413 59.58 30.1301L61.3101 31.8601C61.4106 31.9612 61.468 32.0974 61.47 32.24C61.468 32.3826 61.4106 32.519 61.3101 32.6201L56.48 37.29C56.4308 37.3393 56.3723 37.3784 56.308 37.405C56.2436 37.4317 56.1747 37.4456 56.105 37.4456C56.0354 37.4456 55.9664 37.4317 55.902 37.405C55.8377 37.3784 55.7793 37.3393 55.73 37.29C55.6811 37.2417 55.6421 37.1841 55.6156 37.1206C55.5891 37.0571 55.5754 36.989 55.5754 36.9202C55.5754 36.8513 55.5891 36.783 55.6156 36.7195C55.6421 36.656 55.6811 36.5984 55.73 36.55L60.17 32.24L58.82 30.8901C58.2868 30.3649 57.5684 30.0706 56.82 30.0706C56.0716 30.0706 55.3532 30.3649 54.82 30.8901L53.42 32.29C53.3179 32.3879 53.1815 32.4416 53.04 32.4399C52.9714 32.4411 52.9033 32.4286 52.8397 32.4028C52.7761 32.3771 52.7185 32.3386 52.67 32.29L52.0601 31.6702C51.3858 31.0015 50.4746 30.6262 49.525 30.6262C48.5754 30.6262 47.6643 31.0015 46.9901 31.6702L46.38 32.29C46.2771 32.3828 46.1435 32.4341 46.005 32.4341C45.8665 32.4341 45.7329 32.3828 45.63 32.29L44.23 30.8901C43.9709 30.6304 43.6631 30.4243 43.3242 30.2837C42.9853 30.1431 42.6219 30.0708 42.255 30.0708C41.8881 30.0708 41.5248 30.1431 41.1859 30.2837C40.847 30.4243 40.5392 30.6304 40.28 30.8901L38.92 32.24L43.3701 36.55C43.419 36.5984 43.4579 36.656 43.4844 36.7195C43.511 36.783 43.5247 36.8513 43.5247 36.9202C43.5247 36.989 43.511 37.0571 43.4844 37.1206C43.4579 37.1841 43.419 37.2417 43.3701 37.29C43.3 37.3645 43.2096 37.4166 43.11 37.4399Z" fill="#333333"/>
<path d="M61.3795 51.4099L61.2996 51.2998L57.3495 44.9199C58.3495 49.0999 60.1896 53.2598 60.2396 57.5698C60.2721 60.9561 59.1976 64.2603 57.1796 66.9797C57.0496 67.1597 56.9095 67.3198 56.7695 67.4998H56.8995C58.2625 67.5179 59.6031 67.1526 60.7684 66.4453C61.9336 65.738 62.8766 64.7172 63.4896 63.4998C64.0079 62.479 64.3108 61.3625 64.3795 60.2197C64.3515 57.0371 63.2996 53.9483 61.3795 51.4099Z" fill="#235AB0"/>
<path d="M54.3613 55.3095L53.5712 59.6295C53.5434 59.7326 53.5066 59.833 53.4612 59.9296C53.4143 60.033 53.35 60.1275 53.2712 60.2094C53.1683 60.2976 53.0495 60.3657 52.9213 60.4096C52.7434 60.4657 52.5577 60.4926 52.3713 60.4894C52.1838 60.4955 51.9969 60.4651 51.8212 60.3996C51.6957 60.3561 51.5802 60.2879 51.4813 60.1994C51.4005 60.123 51.3359 60.0314 51.2913 59.9296C51.2427 59.8332 51.2026 59.7328 51.1713 59.6295L50.2512 55.3095H48.6512L47.7612 59.6295C47.7612 59.7295 47.6912 59.8296 47.6512 59.9296C47.603 60.0319 47.535 60.1234 47.4512 60.1994C47.3535 60.2896 47.2376 60.358 47.1113 60.3996C46.9391 60.4653 46.7554 60.4958 46.5712 60.4894C46.3814 60.494 46.1922 60.4671 46.0112 60.4096C45.8857 60.3661 45.7702 60.298 45.6713 60.2094C45.5926 60.1252 45.5253 60.0313 45.4712 59.9296C45.4712 59.8296 45.3913 59.7295 45.3613 59.6295L44.5613 55.3095H43.2812C43.168 55.3113 43.058 55.2722 42.9712 55.1994C42.9268 55.1572 42.8921 55.106 42.8697 55.049C42.8472 54.992 42.8375 54.9307 42.8412 54.8695C42.8361 54.8097 42.8452 54.7494 42.8678 54.6937C42.8904 54.6381 42.9258 54.5887 42.9712 54.5495C43.0124 54.5099 43.061 54.479 43.1142 54.4584C43.1674 54.4378 43.2242 54.428 43.2812 54.4296H44.4012L43.5513 49.7995C43.4713 49.5595 43.4813 49.3794 43.5513 49.2794C43.6292 49.1935 43.7296 49.1312 43.8412 49.0995C43.9748 49.0586 44.1176 49.0586 44.2512 49.0995C44.3182 49.1306 44.3773 49.1764 44.424 49.2335C44.4708 49.2907 44.504 49.3578 44.5212 49.4296L45.3912 54.4296H47.8412L48.8412 49.4296C48.8775 49.3071 48.9553 49.2009 49.0613 49.1295C49.155 49.075 49.2632 49.0505 49.3713 49.0595C49.4825 49.0504 49.5939 49.0748 49.6912 49.1295C49.794 49.202 49.8683 49.3082 49.9012 49.4296L50.9712 54.4296H53.4213L54.3113 49.4296C54.3287 49.3593 54.3609 49.2934 54.4057 49.2365C54.4505 49.1796 54.5069 49.1329 54.5712 49.0995C54.7083 49.0589 54.8542 49.0589 54.9913 49.0995C55.1029 49.1312 55.2033 49.1935 55.2812 49.2794C55.3812 49.3794 55.3912 49.5595 55.2812 49.7995L54.4213 54.4296H55.5613C55.6183 54.428 55.6751 54.4378 55.7283 54.4584C55.7816 54.479 55.8301 54.5099 55.8713 54.5495C55.9167 54.5887 55.9521 54.6381 55.9747 54.6937C55.9973 54.7494 56.0064 54.8097 56.0012 54.8695C56.0049 54.9307 55.9952 54.992 55.9728 55.049C55.9503 55.106 55.9157 55.1572 55.8713 55.1994C55.7846 55.2722 55.6745 55.3113 55.5613 55.3095H54.3613ZM46.5712 59.5795C46.6321 59.5841 46.6926 59.5663 46.7413 59.5294C46.7704 59.4895 46.794 59.4459 46.8113 59.3996L47.6713 55.3095H45.5912L46.3113 59.3996C46.3254 59.456 46.3596 59.5051 46.4074 59.5382C46.4552 59.5713 46.5134 59.5861 46.5712 59.5795ZM48.8312 54.4296H50.0312L49.4113 51.5194L48.8312 54.4296ZM52.3713 59.5795C52.4278 59.5857 52.4846 59.5707 52.5308 59.5375C52.577 59.5043 52.6092 59.4552 52.6213 59.3996L53.3513 55.3095H51.2313L52.1312 59.3996C52.1485 59.4459 52.1721 59.4895 52.2012 59.5294C52.2499 59.5663 52.3104 59.5841 52.3713 59.5795Z" fill="#333333"/>
<path d="M52.3713 60.69C52.1604 60.6927 51.9506 60.659 51.7512 60.5902C51.6025 60.5344 51.4666 60.4494 51.3513 60.3402C51.2434 60.2534 51.1606 60.1394 51.1113 60.0101C51.0613 59.9001 51.0213 59.7903 50.9813 59.6803L50.0912 55.5101H48.8212L47.9612 59.6702C47.924 59.7858 47.8806 59.8991 47.8312 60.0101C47.776 60.139 47.6942 60.2549 47.5912 60.3502C47.4711 60.4504 47.3362 60.5314 47.1912 60.5902C46.9919 60.659 46.7821 60.6927 46.5712 60.69C46.3576 60.6962 46.1445 60.666 45.9412 60.6002C45.7878 60.5481 45.6478 60.4627 45.5312 60.3502C45.4336 60.2504 45.3526 60.1355 45.2913 60.0101C45.2425 59.9035 45.2024 59.7933 45.1713 59.6803L44.3912 55.5101H43.2812C43.1203 55.5105 42.9643 55.4539 42.8412 55.3502C42.7751 55.2894 42.723 55.215 42.6885 55.1322C42.6539 55.0493 42.6378 54.9599 42.6412 54.8702C42.6372 54.7819 42.6531 54.6937 42.6877 54.6124C42.7224 54.531 42.7748 54.4586 42.8412 54.4002C42.9609 54.2896 43.1183 54.2286 43.2812 54.2301H44.1613L43.3513 49.8302C43.2968 49.719 43.2763 49.5942 43.2924 49.4715C43.3084 49.3488 43.3601 49.2337 43.4412 49.1402C43.5429 49.0283 43.6749 48.9485 43.8212 48.9102C43.9935 48.8544 44.179 48.8544 44.3513 48.9102C44.4447 48.9513 44.5275 49.0132 44.5933 49.0911C44.6592 49.1691 44.7064 49.2612 44.7313 49.3602L45.5912 54.22H47.7112L48.7112 49.3802C48.7568 49.2083 48.8634 49.0588 49.0112 48.96C49.1439 48.8817 49.2977 48.8469 49.4512 48.8602C49.5919 48.8492 49.7323 48.8842 49.8513 48.96C49.9941 49.0551 50.0999 49.1965 50.1512 49.3602L51.2012 54.22H53.3113L54.1713 49.3902C54.1972 49.2865 54.2455 49.1897 54.3129 49.1068C54.3803 49.0238 54.4651 48.9568 54.5613 48.9102C54.737 48.855 54.9255 48.855 55.1013 48.9102C55.2465 48.951 55.3778 49.0304 55.4813 49.1402C55.5611 49.2405 55.611 49.3612 55.6251 49.4886C55.6393 49.616 55.6172 49.7448 55.5613 49.8602L54.7512 54.2301H55.6512C55.8149 54.2314 55.9734 54.2879 56.1013 54.3902C56.1655 54.4519 56.2158 54.5266 56.2486 54.6095C56.2814 54.6923 56.2959 54.7812 56.2913 54.8702C56.294 54.9589 56.2786 55.0472 56.246 55.1297C56.2133 55.2123 56.164 55.2874 56.1013 55.3502C55.9734 55.4525 55.8149 55.5087 55.6512 55.5101H54.5112L53.7512 59.6602C53.7156 59.7796 53.6722 59.8964 53.6213 60.0101C53.5647 60.1358 53.4869 60.2509 53.3912 60.3502C53.2671 60.4629 53.1206 60.5481 52.9612 60.6002C52.771 60.6632 52.5716 60.6934 52.3713 60.69ZM48.4913 55.1102H50.4213L51.4213 59.5802C51.449 59.6721 51.4824 59.7623 51.5212 59.8502C51.5552 59.9275 51.6066 59.9959 51.6713 60.0501C51.7524 60.1248 51.8475 60.1825 51.9512 60.22C52.277 60.3203 52.6254 60.3203 52.9512 60.22C53.0515 60.1914 53.1439 60.1402 53.2212 60.0701C53.2844 60.0044 53.3382 59.9305 53.3812 59.8502C53.4218 59.7596 53.4553 59.6659 53.4813 59.5701L54.2913 55.1102H55.7712C55.8045 55.1123 55.8379 55.1071 55.869 55.095C55.9 55.083 55.9281 55.0641 55.9512 55.0401C55.9512 55.0401 56.0112 54.9802 56.0112 54.8702C56.0153 54.8376 56.012 54.8044 56.0016 54.7733C55.9913 54.7421 55.974 54.7136 55.9512 54.69C55.9009 54.6481 55.8367 54.6268 55.7712 54.6302H54.3912L55.2913 49.7601C55.3613 49.5501 55.3513 49.4603 55.2913 49.4303C55.2389 49.3727 55.1738 49.3281 55.1013 49.3001C55.0036 49.2694 54.8989 49.2694 54.8013 49.3001C54.7213 49.3001 54.6812 49.4201 54.6512 49.5001L53.7413 54.6302H50.9612L49.8613 49.4801C49.8354 49.4146 49.7943 49.3564 49.7413 49.3101C49.6756 49.294 49.6069 49.294 49.5413 49.3101C49.4659 49.2902 49.3866 49.2902 49.3113 49.3101C49.2511 49.3601 49.2061 49.4259 49.1813 49.5001L48.1013 54.6302H45.3212L44.4213 49.47C44.4213 49.47 44.3512 49.3201 44.2812 49.3001C44.187 49.2696 44.0855 49.2696 43.9913 49.3001C43.9129 49.3221 43.8431 49.3676 43.7913 49.4303C43.7913 49.4303 43.7913 49.5501 43.7913 49.7301L44.6813 54.6302H43.3312C43.298 54.6288 43.2649 54.6343 43.2339 54.6463C43.2029 54.6584 43.1748 54.6765 43.1512 54.7C43.1512 54.7 43.0912 54.7602 43.0912 54.8702C43.0912 54.9802 43.0912 55.0201 43.1512 55.0401C43.1748 55.0636 43.2029 55.082 43.2339 55.0941C43.2649 55.1061 43.298 55.1116 43.3312 55.1102H44.7812L45.6113 59.5902C45.6113 59.6602 45.6712 59.7502 45.7112 59.8502C45.7471 59.9322 45.798 60.0068 45.8613 60.0701C45.9416 60.1359 46.033 60.1866 46.1312 60.22C46.4582 60.3124 46.8043 60.3124 47.1312 60.22C47.2349 60.1825 47.3301 60.1248 47.4113 60.0501C47.4694 59.99 47.5198 59.9229 47.5613 59.8502C47.5613 59.7502 47.6313 59.6601 47.6613 59.5701L48.4913 55.1102ZM52.3713 59.7801C52.3124 59.7843 52.2533 59.7757 52.1981 59.755C52.1429 59.7343 52.0928 59.7021 52.0513 59.6602C52.0051 59.6029 51.968 59.5386 51.9412 59.47L50.9913 55.1102H53.5912L52.8212 59.4303C52.8019 59.5335 52.7455 59.626 52.6626 59.6905C52.5797 59.755 52.4761 59.7868 52.3713 59.7801ZM52.3212 59.3602L53.0112 55.5001H51.3812L52.2212 59.3502L52.3212 59.3602ZM46.5712 59.7801C46.4692 59.7876 46.3679 59.7586 46.2855 59.6981C46.203 59.6376 46.1448 59.5496 46.1213 59.45L45.3513 55.1102H47.9213L47.0112 59.44C46.9844 59.5198 46.9438 59.5945 46.8912 59.6602C46.8497 59.7021 46.7995 59.7343 46.7443 59.755C46.6891 59.7757 46.6301 59.7843 46.5712 59.7801ZM45.8312 55.5101L46.5112 59.3602H46.6113C46.6113 59.3602 46.6113 59.3601 46.6113 59.3101L47.4113 55.4901L45.8312 55.5101ZM50.3212 54.6302H48.5912L49.4512 50.5601L50.3212 54.6302ZM49.0812 54.2301H49.8212L49.4512 52.4801L49.0812 54.2301Z" fill="#333333"/>
</g>
<defs>
<clipPath id="clip0_1856_378784">
<rect width="37.11" height="42.22" fill="white" transform="translate(31 29)"/>
</clipPath>
</defs>
</svg>
