<svg width="100" height="100" viewBox="0 0 100 100" fill="none" xmlns="http://www.w3.org/2000/svg">
<circle cx="50" cy="50" r="50" fill="#F2F6FB"/>
<g clip-path="url(#clip0_1029_170966)">
<path d="M49.9684 64.4496C57.8772 64.4496 64.2884 58.0383 64.2884 50.1296C64.2884 42.2209 57.8772 35.8096 49.9684 35.8096C42.0597 35.8096 35.6484 42.2209 35.6484 50.1296C35.6484 58.0383 42.0597 64.4496 49.9684 64.4496Z" fill="#235AB0"/>
<path d="M64.1413 50.6594H35.8113C35.6707 50.6594 35.5359 50.6038 35.4365 50.5044C35.3371 50.405 35.2812 50.2702 35.2812 50.1296C35.2812 50.06 35.295 49.9911 35.3216 49.9268C35.3482 49.8625 35.3873 49.8039 35.4365 49.7546C35.4857 49.7054 35.5441 49.6665 35.6084 49.6399C35.6727 49.6133 35.7417 49.5996 35.8113 49.5996H64.1413C64.2109 49.5996 64.2798 49.6133 64.3441 49.6399C64.4084 49.6665 64.4668 49.7054 64.516 49.7546C64.5652 49.8039 64.6043 49.8625 64.6309 49.9268C64.6575 49.9911 64.6712 50.06 64.6712 50.1296C64.6712 50.2702 64.6154 50.405 64.516 50.5044C64.4166 50.6038 64.2818 50.6594 64.1413 50.6594Z" fill="#333333"/>
<path d="M49.9792 50.6797C49.8387 50.6797 49.7038 50.6238 49.6045 50.5244C49.5051 50.425 49.4492 50.2902 49.4492 50.1497V35.9597C49.4492 35.8192 49.5051 35.6844 49.6045 35.585C49.7038 35.4856 49.8387 35.4297 49.9792 35.4297C50.1198 35.4297 50.2546 35.4856 50.354 35.585C50.4534 35.6844 50.5092 35.8192 50.5092 35.9597V50.1497C50.5092 50.2193 50.4955 50.2882 50.4689 50.3525C50.4422 50.4168 50.4032 50.4752 50.354 50.5244C50.3048 50.5736 50.2463 50.6128 50.182 50.6394C50.1177 50.666 50.0488 50.6797 49.9792 50.6797Z" fill="#333333"/>
<path d="M64.1389 50.6997C63.9983 50.6997 63.8635 50.6438 63.7641 50.5444C63.6647 50.445 63.6089 50.3102 63.6089 50.1697C63.6583 48.3467 63.3418 46.5324 62.6783 44.8337C62.0148 43.1351 61.0176 41.5866 59.7457 40.2798C58.4737 38.9729 56.9528 37.9344 55.2728 37.2251C53.5927 36.5158 51.7875 36.1504 49.9639 36.1504C48.1403 36.1504 46.3351 36.5158 44.6551 37.2251C42.975 37.9344 41.4541 38.9729 40.1822 40.2798C38.9102 41.5866 37.913 43.1351 37.2495 44.8337C36.586 46.5324 36.2696 48.3467 36.3189 50.1697C36.3189 50.3102 36.2631 50.445 36.1637 50.5444C36.0643 50.6438 35.9295 50.6997 35.7889 50.6997C35.6483 50.6997 35.5135 50.6438 35.4141 50.5444C35.3147 50.445 35.2589 50.3102 35.2589 50.1697C35.2077 48.2063 35.5502 46.2527 36.2662 44.4238C36.9821 42.595 38.0571 40.928 39.4276 39.5212C40.7982 38.1145 42.4366 36.9963 44.2462 36.2329C46.0557 35.4695 47.9999 35.0762 49.9639 35.0762C51.9279 35.0762 53.8721 35.4695 55.6816 36.2329C57.4912 36.9963 59.1296 38.1145 60.5002 39.5212C61.8707 40.928 62.9457 42.595 63.6617 44.4238C64.3776 46.2527 64.7201 48.2063 64.6689 50.1697C64.6689 50.3102 64.6131 50.445 64.5137 50.5444C64.4143 50.6438 64.2795 50.6997 64.1389 50.6997Z" fill="#333333"/>
<path d="M42.3895 50.6602C42.3195 50.6615 42.25 50.6487 42.1851 50.6226C42.1201 50.5964 42.0612 50.5575 42.0117 50.5081C41.9622 50.4586 41.9232 50.3996 41.897 50.3347C41.8709 50.2698 41.8581 50.2003 41.8595 50.1304C41.8595 43.4704 44.5095 39.6103 46.7395 37.5403C46.7887 37.491 46.8472 37.452 46.9115 37.4253C46.9758 37.3986 47.0448 37.3848 47.1145 37.3848C47.1841 37.3848 47.2531 37.3986 47.3174 37.4253C47.3818 37.452 47.4403 37.491 47.4895 37.5403C47.5397 37.5879 47.5797 37.6454 47.607 37.709C47.6344 37.7726 47.6485 37.8409 47.6485 37.9102C47.6485 37.9794 47.6344 38.048 47.607 38.1116C47.5797 38.1752 47.5397 38.2326 47.4895 38.2803C45.4195 40.2103 42.9395 43.8203 42.9395 50.1003C42.9453 50.1745 42.9352 50.2489 42.9098 50.3188C42.8844 50.3888 42.8442 50.4525 42.7921 50.5056C42.7399 50.5587 42.677 50.6 42.6076 50.6267C42.5381 50.6534 42.4637 50.6647 42.3895 50.6602Z" fill="#333333"/>
<path d="M57.5806 50.6594C57.5114 50.6594 57.443 50.6457 57.3792 50.6189C57.3155 50.5921 57.2577 50.553 57.2093 50.5037C57.1609 50.4543 57.1228 50.3958 57.0972 50.3315C57.0717 50.2673 57.0592 50.1988 57.0606 50.1296C57.0606 43.8496 54.5806 40.2396 52.5106 38.3096C52.4603 38.2619 52.4203 38.2045 52.393 38.1409C52.3657 38.0773 52.3516 38.0087 52.3516 37.9395C52.3516 37.8702 52.3657 37.8019 52.393 37.7383C52.4203 37.6747 52.4603 37.6172 52.5106 37.5696C52.5598 37.5203 52.6182 37.481 52.6826 37.4543C52.7469 37.4277 52.8159 37.4141 52.8856 37.4141C52.9552 37.4141 53.0242 37.4277 53.0885 37.4543C53.1529 37.481 53.2113 37.5203 53.2606 37.5696C55.4906 39.6296 58.1406 43.4994 58.1406 50.1594C58.1381 50.2295 58.1214 50.2986 58.0916 50.3621C58.0619 50.4256 58.0195 50.4823 57.9672 50.5291C57.9149 50.5758 57.8537 50.6114 57.7872 50.6338C57.7208 50.6562 57.6505 50.6649 57.5806 50.6594Z" fill="#333333"/>
<path d="M49.9795 44.5796C41.9195 44.5796 39.7395 40.3594 39.6495 40.1794C39.5894 40.0537 39.5812 39.9095 39.6267 39.7778C39.6722 39.6461 39.7677 39.5376 39.8926 39.4758C40.0175 39.414 40.1617 39.404 40.294 39.4477C40.4263 39.4915 40.5361 39.5854 40.5995 39.7094C40.6795 39.8594 42.5995 43.5195 49.9795 43.5195C50.1201 43.5195 50.2549 43.5754 50.3543 43.6748C50.4537 43.7742 50.5095 43.909 50.5095 44.0495C50.5095 44.1901 50.4537 44.3249 50.3543 44.4243C50.2549 44.5237 50.1201 44.5796 49.9795 44.5796Z" fill="#333333"/>
<path d="M49.9909 44.5802C49.8504 44.5802 49.7156 44.5243 49.6162 44.4249C49.5168 44.3255 49.4609 44.1907 49.4609 44.0502C49.4609 43.9096 49.5168 43.7748 49.6162 43.6754C49.7156 43.576 49.8504 43.5201 49.9909 43.5201C57.3509 43.5201 59.2909 39.8601 59.3709 39.7101C59.4018 39.6444 59.4453 39.5856 59.4989 39.5367C59.5526 39.4879 59.6153 39.45 59.6836 39.4254C59.7518 39.4008 59.8242 39.3898 59.8967 39.3932C59.9692 39.3966 60.0403 39.4143 60.1059 39.4452C60.1716 39.476 60.2305 39.5195 60.2794 39.5731C60.3282 39.6267 60.3661 39.6894 60.3907 39.7577C60.4153 39.8259 60.4262 39.8983 60.4228 39.9708C60.4194 40.0433 60.4018 40.1144 60.3709 40.18C60.2309 40.36 58.0509 44.5802 49.9909 44.5802Z" fill="#333333"/>
<path d="M49.9909 64.8496C49.8504 64.8496 49.7156 64.7937 49.6162 64.6943C49.5168 64.5949 49.4609 64.4601 49.4609 64.3196V50.1296C49.4609 49.9891 49.5168 49.854 49.6162 49.7546C49.7156 49.6552 49.8504 49.5996 49.9909 49.5996C50.1315 49.5996 50.2663 49.6552 50.3657 49.7546C50.4651 49.854 50.5209 49.9891 50.5209 50.1296V64.3196C50.5209 64.4601 50.4651 64.5949 50.3657 64.6943C50.2663 64.7937 50.1315 64.8496 49.9909 64.8496Z" fill="#333333"/>
<path d="M49.9912 64.8501C46.0925 64.8475 42.354 63.2982 39.5962 60.5422C36.8384 57.7863 35.2865 54.0487 35.2812 50.1499C35.2812 50.0093 35.3371 49.8745 35.4365 49.7751C35.5359 49.6758 35.6707 49.6201 35.8113 49.6201C35.9518 49.6201 36.0866 49.6758 36.186 49.7751C36.2854 49.8745 36.3413 50.0093 36.3413 50.1499C36.2919 51.9729 36.6083 53.7874 37.2719 55.4861C37.9354 57.1847 38.9326 58.7332 40.2045 60.04C41.4764 61.3469 42.9973 62.3855 44.6774 63.0947C46.3575 63.804 48.1626 64.1694 49.9863 64.1694C51.8099 64.1694 53.615 63.804 55.2951 63.0947C56.9752 62.3855 58.4961 61.3469 59.768 60.04C61.0399 58.7332 62.0371 57.1847 62.7006 55.4861C63.3642 53.7874 63.6806 51.9729 63.6313 50.1499C63.6313 50.0093 63.6871 49.8745 63.7865 49.7751C63.8859 49.6758 64.0207 49.6201 64.1613 49.6201C64.3018 49.6201 64.4366 49.6758 64.536 49.7751C64.6354 49.8745 64.6912 50.0093 64.6912 50.1499C64.686 54.047 63.1355 57.7829 60.3799 60.5386C57.6242 63.2942 53.8883 64.8448 49.9912 64.8501Z" fill="#333333"/>
<path d="M53.3488 62.4099C53.2107 62.4101 53.0779 62.3563 52.9788 62.26C52.9299 62.2116 52.891 62.1541 52.8644 62.0906C52.8379 62.0271 52.8242 61.9587 52.8242 61.8899C52.8242 61.8211 52.8379 61.753 52.8644 61.6895C52.891 61.6259 52.9299 61.5684 52.9788 61.52C54.8388 59.6 57.0688 56.0699 57.0688 50.1499C57.0407 50.07 57.0322 49.9845 57.044 49.9006C57.0557 49.8167 57.0874 49.7371 57.1364 49.668C57.1853 49.5988 57.2502 49.5423 57.3254 49.5034C57.4007 49.4645 57.4841 49.4443 57.5688 49.4443C57.6536 49.4443 57.737 49.4645 57.8123 49.5034C57.8875 49.5423 57.9523 49.5988 58.0013 49.668C58.0503 49.7371 58.082 49.8167 58.0937 49.9006C58.1055 49.9845 58.0969 50.07 58.0688 50.1499C58.0688 56.4299 55.6888 60.2 53.6888 62.25C53.6 62.3447 53.4784 62.4018 53.3488 62.4099Z" fill="#333333"/>
<path d="M46.6105 62.3994C46.5395 62.4007 46.469 62.3872 46.4036 62.3596C46.3381 62.3321 46.2792 62.2912 46.2305 62.2395C44.2305 60.1895 41.8605 56.4194 41.8605 50.1494C41.8501 50.0744 41.8559 49.9981 41.8775 49.9255C41.8992 49.853 41.9361 49.7859 41.9858 49.7288C42.0356 49.6717 42.097 49.6259 42.1659 49.5945C42.2349 49.5631 42.3097 49.5469 42.3855 49.5469C42.4612 49.5469 42.5361 49.5631 42.605 49.5945C42.6739 49.6259 42.7353 49.6717 42.7851 49.7288C42.8348 49.7859 42.8718 49.853 42.8934 49.9255C42.915 49.9981 42.9208 50.0744 42.9105 50.1494C42.9105 56.0594 45.1305 59.5895 46.9905 61.5095C47.0395 61.5579 47.0783 61.6154 47.1049 61.679C47.1314 61.7425 47.1451 61.8108 47.1451 61.8796C47.1451 61.9485 47.1314 62.0166 47.1049 62.0801C47.0783 62.1436 47.0395 62.2011 46.9905 62.2495C46.9402 62.2984 46.8807 62.3368 46.8155 62.3625C46.7503 62.3883 46.6806 62.4008 46.6105 62.3994Z" fill="#333333"/>
<path d="M59.8409 60.8704C59.7422 60.8701 59.6456 60.8417 59.5623 60.7886C59.4791 60.7354 59.4127 60.6598 59.3709 60.5703C59.2909 60.4203 57.3709 56.7603 49.9909 56.7603C49.8504 56.7603 49.7156 56.7044 49.6162 56.605C49.5168 56.5056 49.4609 56.3708 49.4609 56.2302C49.4609 56.0897 49.5168 55.9549 49.6162 55.8555C49.7156 55.7561 49.8504 55.7002 49.9909 55.7002C58.0509 55.7002 60.2309 59.9203 60.3209 60.1003C60.3594 60.182 60.3768 60.272 60.3715 60.3621C60.3662 60.4522 60.3384 60.5394 60.2907 60.616C60.2429 60.6926 60.1767 60.7559 60.0982 60.8003C60.0196 60.8447 59.9312 60.8689 59.8409 60.8704Z" fill="#333333"/>
<path d="M40.1404 60.8601C40.0615 60.8788 39.9793 60.8788 39.9004 60.8601C39.7744 60.7978 39.6784 60.6878 39.6334 60.5547C39.5884 60.4215 39.5981 60.2759 39.6604 60.1499C39.7504 59.9699 41.9304 55.75 49.9904 55.75C50.131 55.75 50.2658 55.8059 50.3652 55.9053C50.4646 56.0047 50.5204 56.1395 50.5204 56.28C50.5204 56.4206 50.4646 56.5554 50.3652 56.6548C50.2658 56.7542 50.131 56.8101 49.9904 56.8101C42.6304 56.8101 40.6904 60.4701 40.6104 60.6201C40.5614 60.6992 40.4917 60.7631 40.4089 60.8054C40.326 60.8477 40.2332 60.8668 40.1404 60.8601Z" fill="#333333"/>
<path d="M47.981 73.2702C44.28 73.2786 40.6424 72.3086 37.4369 70.4587C34.2313 68.6087 31.5716 65.9443 29.7271 62.7355C27.8827 59.5268 26.919 55.8878 26.9338 52.1867C26.9485 48.4856 27.9411 44.854 29.811 41.6601C29.8462 41.5993 29.893 41.5463 29.9489 41.5038C30.0047 41.4613 30.0684 41.4302 30.1363 41.4125C30.2042 41.3949 30.275 41.3909 30.3445 41.4008C30.4139 41.4107 30.4808 41.4342 30.541 41.4702C30.661 41.5411 30.7482 41.6564 30.7838 41.7912C30.8194 41.926 30.8004 42.0692 30.731 42.1901C28.9661 45.2467 28.0414 48.7158 28.0509 52.2453C28.0605 55.7748 29.0038 59.2391 30.7853 62.2861C32.5668 65.333 35.1228 67.8542 38.1939 69.5937C41.265 71.3332 44.7417 72.229 48.271 72.1901C48.4116 72.1901 48.5464 72.246 48.6458 72.3454C48.7452 72.4448 48.801 72.5796 48.801 72.7201C48.801 72.8607 48.7452 72.9955 48.6458 73.0949C48.5464 73.1943 48.4116 73.2502 48.271 73.2502L47.981 73.2702Z" fill="#333333"/>
<path d="M48.6697 77.2898C48.5275 77.2857 48.392 77.2288 48.2897 77.1299C48.1926 77.0292 48.1383 76.8948 48.1383 76.7549C48.1383 76.615 48.1926 76.4805 48.2897 76.3799L51.8597 72.8198L48.1397 69.0999C48.0426 68.9992 47.9883 68.8648 47.9883 68.7249C47.9883 68.585 48.0426 68.4505 48.1397 68.3499C48.189 68.3006 48.2474 68.2613 48.3118 68.2346C48.3761 68.2079 48.4451 68.1943 48.5147 68.1943C48.5844 68.1943 48.6534 68.2079 48.7177 68.2346C48.782 68.2613 48.8405 68.3006 48.8897 68.3499L53.3597 72.8198L49.0497 77.1299C48.9492 77.2314 48.8126 77.2888 48.6697 77.2898Z" fill="#333333"/>
<path d="M69.7004 58.8896C69.6058 58.8903 69.5127 58.8663 69.4304 58.8197C69.3097 58.7469 69.2223 58.6297 69.1868 58.4933C69.1513 58.3569 69.1705 58.2122 69.2404 58.0898C71.0054 55.0332 71.9301 51.5641 71.9205 48.0346C71.911 44.5051 70.9676 41.0408 69.1862 37.9938C67.4047 34.9469 64.8486 32.4257 61.7775 30.6862C58.7065 28.9467 55.2297 28.0509 51.7004 28.0898C51.6235 28.0962 51.5461 28.0854 51.4738 28.0583C51.4016 28.0311 51.3362 27.9883 51.2826 27.9328C51.229 27.8772 51.1884 27.8104 51.1638 27.7372C51.1392 27.664 51.1312 27.5863 51.1404 27.5097C51.1377 27.4402 51.1492 27.3709 51.1742 27.3061C51.1992 27.2412 51.2373 27.1821 51.286 27.1325C51.3347 27.0828 51.393 27.0435 51.4574 27.0172C51.5218 26.991 51.5909 26.9782 51.6604 26.9796H51.9604C55.6683 26.9653 59.3138 27.933 62.5264 29.7843C65.7391 31.6356 68.4043 34.3045 70.2511 37.5197C72.0979 40.7349 73.0605 44.3817 73.0411 48.0895C73.0217 51.7973 72.0209 55.4341 70.1404 58.6298C70.0949 58.7067 70.0307 58.7709 69.9538 58.8163C69.8769 58.8618 69.7897 58.8868 69.7004 58.8896Z" fill="#333333"/>
<path d="M51.4611 32.0896C51.3917 32.0901 51.323 32.0759 51.2593 32.0483C51.1956 32.0208 51.1383 31.9803 51.0911 31.9294L46.6211 27.5095L50.9311 23.1995C50.9803 23.1502 51.0388 23.1111 51.1031 23.0845C51.1675 23.0578 51.2364 23.0439 51.3061 23.0439C51.3758 23.0439 51.4447 23.0578 51.5091 23.0845C51.5734 23.1111 51.6319 23.1502 51.6811 23.1995C51.7782 23.3001 51.8325 23.4346 51.8325 23.5745C51.8325 23.7144 51.7782 23.8488 51.6811 23.9495L48.1411 27.5095L51.8711 31.2395C51.9676 31.3385 52.0216 31.4714 52.0216 31.6096C52.0216 31.7479 51.9676 31.8805 51.8711 31.9795C51.8143 32.0256 51.7485 32.0594 51.6778 32.0784C51.6072 32.0973 51.5333 32.1011 51.4611 32.0896Z" fill="#333333"/>
</g>
<defs>
<clipPath id="clip0_1029_170966">
<rect width="45.98" height="54.29" fill="white" transform="translate(27 23)"/>
</clipPath>
</defs>
</svg>
