<svg width="104" height="100" viewBox="0 0 104 100" fill="none" xmlns="http://www.w3.org/2000/svg">
<ellipse cx="51.625" cy="50" rx="51.625" ry="50" fill="#F2F6FB"/>
<g clip-path="url(#clip0_1081_175862)">
<path d="M32.4863 66.2465V54.863L34.4646 52.6886L37.0483 52.5352H68.4872L71.2926 54.1638L71.7701 57.9242L71.3522 66.4938H65.3919L64.7524 62.9551L62.4586 61.2327L58.6982 61.173H41.6102L39.5978 63.083L38.549 66.4938L32.4863 66.2465Z" fill="#235AB0"/>
<path d="M52.0984 41.7494C54.3494 41.7494 56.1742 39.9246 56.1742 37.6735C56.1742 35.4225 54.3494 33.5977 52.0984 33.5977C49.8473 33.5977 48.0225 35.4225 48.0225 37.6735C48.0225 39.9246 49.8473 41.7494 52.0984 41.7494Z" fill="white"/>
<path d="M62.0665 38.6994C64.3458 38.6994 66.1936 36.8517 66.1936 34.5724C66.1936 32.2931 64.3458 30.4453 62.0665 30.4453C59.7872 30.4453 57.9395 32.2931 57.9395 34.5724C57.9395 36.8517 59.7872 38.6994 62.0665 38.6994Z" fill="white"/>
<path d="M42.1388 38.4827C44.3475 38.4827 46.1379 36.6922 46.1379 34.4835C46.1379 32.2749 44.3475 30.4844 42.1388 30.4844C39.9301 30.4844 38.1396 32.2749 38.1396 34.4835C38.1396 36.6922 39.9301 38.4827 42.1388 38.4827Z" fill="white"/>
<path d="M35.5391 52.9205V41.554L41.218 36.7533L43.3412 36.6169L48.7729 41.7501L52.5759 39.03L55.1937 42.1594L60.9579 36.4805H63.823L64.8207 38.4843L68.1291 41.5284L68.4873 52.5367L35.5391 52.9205Z" fill="white"/>
<path d="M58.4679 53.0495C58.4082 53.0507 58.3489 53.04 58.2936 53.0177C58.2382 52.9954 58.1879 52.962 58.1457 52.9198C58.1035 52.8776 58.0703 52.8274 58.048 52.772C58.0257 52.7167 58.0148 52.6574 58.016 52.5978V46.0745C58.0157 45.7579 57.9452 45.4454 57.8095 45.1594C57.6739 44.8733 57.4764 44.6209 57.2315 44.4203L53.9912 41.5296C53.9495 41.4883 53.9163 41.4393 53.8937 41.3851C53.871 41.331 53.8594 41.2729 53.8594 41.2142C53.8594 41.1555 53.871 41.0974 53.8937 41.0433C53.9163 40.9891 53.9495 40.9398 53.9912 40.8986C54.0771 40.8158 54.1917 40.7695 54.311 40.7695C54.4303 40.7695 54.5449 40.8158 54.6307 40.8986L57.8539 43.7808C58.1987 44.0647 58.4762 44.4214 58.6664 44.8255C58.8566 45.2295 58.9548 45.6707 58.9539 46.1172V52.6403C58.9431 52.7587 58.886 52.8682 58.795 52.9448C58.704 53.0214 58.5865 53.059 58.4679 53.0495Z" fill="#333333"/>
<path d="M45.532 53.0495C45.4121 53.0495 45.2972 53.002 45.2124 52.9173C45.1277 52.8325 45.0801 52.7176 45.0801 52.5977V46.0745C45.0796 45.6259 45.1787 45.1829 45.3705 44.7773C45.5622 44.3718 45.8416 44.0139 46.1886 43.7296L49.4118 40.8476C49.503 40.7702 49.6208 40.7313 49.7402 40.7393C49.8595 40.7473 49.9711 40.8012 50.0513 40.89C50.1336 40.9744 50.1797 41.0877 50.1797 41.2056C50.1797 41.3235 50.1336 41.4368 50.0513 41.5212L46.8111 44.4118C46.5625 44.6116 46.3621 44.8648 46.2248 45.1527C46.0875 45.4405 46.0169 45.7556 46.018 46.0745V52.5977C46.0182 52.6601 46.0055 52.7217 45.9807 52.7789C45.9559 52.836 45.9195 52.8875 45.8739 52.93C45.8282 52.9724 45.7743 53.0049 45.7154 53.0255C45.6566 53.0461 45.5942 53.0542 45.532 53.0495Z" fill="#333333"/>
<path d="M56.0458 52.5352C55.9864 52.5352 55.9276 52.5236 55.8728 52.5008C55.818 52.4781 55.7682 52.4448 55.7262 52.4028C55.6842 52.3608 55.6509 52.3111 55.6282 52.2562C55.6055 52.2014 55.5938 52.1426 55.5938 52.0832V46.7027C55.5927 46.6433 55.6033 46.5843 55.6249 46.5291C55.6466 46.4738 55.679 46.4234 55.7201 46.3806C55.7613 46.3379 55.8105 46.3036 55.8649 46.2799C55.9193 46.2561 55.9779 46.2433 56.0372 46.2422C56.1571 46.2422 56.272 46.2898 56.3568 46.3746C56.4415 46.4593 56.4892 46.5743 56.4892 46.6941V52.0832C56.4892 52.2016 56.4427 52.3154 56.3598 52.3999C56.2769 52.4844 56.1641 52.533 56.0458 52.5352Z" fill="#333333"/>
<path d="M47.9539 52.5352C47.8945 52.5352 47.8358 52.5236 47.7809 52.5008C47.7261 52.4781 47.6763 52.4448 47.6343 52.4028C47.5924 52.3608 47.5591 52.3111 47.5364 52.2562C47.5136 52.2014 47.502 52.1426 47.502 52.0832V46.6941C47.5062 46.5756 47.5552 46.4632 47.639 46.3794C47.7229 46.2955 47.8354 46.2464 47.9539 46.2422C48.0132 46.2433 48.0718 46.2561 48.1262 46.2799C48.1806 46.3036 48.2298 46.3379 48.271 46.3806C48.3122 46.4234 48.3445 46.4738 48.3662 46.5291C48.3878 46.5843 48.3984 46.6433 48.3973 46.7027V52.0832C48.3973 52.2016 48.3509 52.3154 48.268 52.3999C48.185 52.4844 48.0723 52.533 47.9539 52.5352Z" fill="#333333"/>
<path d="M51.9961 42.237C50.8005 42.2347 49.6545 41.7588 48.809 40.9134C47.9636 40.0679 47.4876 38.9218 47.4854 37.7262C47.4853 36.529 47.9603 35.3808 48.806 34.5335C49.6517 33.6863 50.799 33.2093 51.9961 33.207C53.194 33.2093 54.3422 33.6861 55.1892 34.5331C56.0363 35.3802 56.5132 36.5283 56.5154 37.7262C56.5109 38.9226 56.033 40.0686 55.1862 40.9138C54.3394 41.759 53.1925 42.2347 51.9961 42.237ZM51.9961 34.1107C51.0387 34.113 50.1213 34.4949 49.4451 35.1726C48.7689 35.8504 48.3892 36.7688 48.3892 37.7262C48.3915 38.6821 48.7722 39.5983 49.4481 40.2743C50.1241 40.9502 51.0402 41.3308 51.9961 41.333C52.9535 41.333 53.8718 40.9534 54.5496 40.2772C55.2274 39.601 55.6093 38.6836 55.6115 37.7262C55.6115 36.7673 55.2306 35.8478 54.5526 35.1697C53.8746 34.4917 52.955 34.1107 51.9961 34.1107Z" fill="#333333"/>
<path d="M35.5388 52.9215C35.419 52.9215 35.304 52.8739 35.2193 52.7891C35.1345 52.7044 35.0869 52.5894 35.0869 52.4696V42.9109C35.0875 42.4613 35.1871 42.0174 35.3787 41.6106C35.5703 41.2039 35.8491 40.8442 36.1954 40.5574L39.4186 37.684C39.5044 37.6011 39.6191 37.5547 39.7384 37.5547C39.8577 37.5547 39.9723 37.6011 40.0581 37.684C40.1404 37.7684 40.1865 37.8815 40.1865 37.9994C40.1865 38.1172 40.1404 38.2306 40.0581 38.315L36.8179 41.2055C36.5693 41.4053 36.3689 41.6585 36.2317 41.9464C36.0944 42.2343 36.0237 42.5493 36.0249 42.8682V52.4696C36.0251 52.5319 36.0123 52.5937 35.9875 52.6509C35.9627 52.7081 35.9263 52.7594 35.8807 52.8018C35.835 52.8443 35.7811 52.8768 35.7223 52.8974C35.6634 52.918 35.601 52.9262 35.5388 52.9215Z" fill="#333333"/>
<path d="M37.9606 52.9188C37.8407 52.9188 37.7257 52.8712 37.641 52.7864C37.5562 52.7016 37.5086 52.5867 37.5086 52.4668V43.4879C37.5049 43.4276 37.514 43.3673 37.5354 43.3108C37.5568 43.2542 37.5899 43.2028 37.6327 43.16C37.6754 43.1173 37.7268 43.0842 37.7833 43.0628C37.8398 43.0414 37.9002 43.0322 37.9606 43.036C38.0199 43.0371 38.0785 43.0499 38.1329 43.0736C38.1873 43.0974 38.2365 43.1316 38.2776 43.1744C38.3188 43.2172 38.3512 43.2676 38.3728 43.3228C38.3945 43.3781 38.4051 43.4371 38.404 43.4965V52.4668C38.404 52.5852 38.3575 52.699 38.2746 52.7835C38.1917 52.868 38.0789 52.9166 37.9606 52.9188Z" fill="#333333"/>
<path d="M42.0105 39.0299C40.8126 39.0277 39.6644 38.5509 38.8174 37.7038C37.9703 36.8568 37.4935 35.7085 37.4912 34.5106C37.4935 33.3135 37.9706 32.1662 38.8179 31.3205C39.6652 30.4748 40.8134 30 42.0105 30C43.2061 30.0023 44.3522 30.4782 45.1976 31.3236C46.0431 32.169 46.519 33.315 46.5213 34.5106C46.519 35.707 46.0433 36.8539 45.1981 37.7007C44.3529 38.5475 43.2069 39.0254 42.0105 39.0299ZM42.0105 30.9037C41.0531 30.9037 40.1348 31.2836 39.457 31.9598C38.7792 32.636 38.3973 33.5532 38.3951 34.5106C38.3951 34.9854 38.4886 35.4555 38.6703 35.8941C38.852 36.3328 39.1183 36.7315 39.454 37.0672C39.7897 37.4029 40.1883 37.6691 40.6269 37.8508C41.0656 38.0325 41.5357 38.126 42.0105 38.126C42.9679 38.1238 43.8853 37.7419 44.5615 37.0641C45.2377 36.3863 45.6174 35.468 45.6174 34.5106C45.6152 33.5547 45.2344 32.6386 44.5585 31.9627C43.8825 31.2868 42.9664 30.906 42.0105 30.9037Z" fill="#333333"/>
<path d="M68.4952 52.922C68.3753 52.922 68.2604 52.8743 68.1756 52.7896C68.0909 52.7048 68.0433 52.5899 68.0433 52.47V42.9113C68.043 42.5947 67.9725 42.2822 67.8368 41.9962C67.7012 41.7101 67.5037 41.4577 67.2588 41.2572L64.01 38.3579C63.9272 38.272 63.8809 38.1574 63.8809 38.0381C63.8809 37.9188 63.9272 37.8042 64.01 37.7183C64.052 37.6763 64.1018 37.643 64.1567 37.6203C64.2115 37.5975 64.2704 37.5859 64.3298 37.5859C64.3892 37.5859 64.448 37.5975 64.5028 37.6203C64.5577 37.643 64.6075 37.6763 64.6495 37.7183L67.8898 40.6091C68.2334 40.8934 68.5096 41.2503 68.6984 41.6544C68.8871 42.0584 68.9837 42.4995 68.9812 42.9455V52.5468C68.9643 52.66 68.9042 52.7621 68.8136 52.8321C68.7231 52.902 68.609 52.9342 68.4952 52.922Z" fill="#333333"/>
<path d="M66.0399 52.9219C65.92 52.9219 65.8051 52.8742 65.7203 52.7895C65.6356 52.7047 65.588 52.5898 65.588 52.4699V43.4996C65.5868 43.4402 65.5974 43.3812 65.6191 43.3259C65.6408 43.2707 65.6731 43.2203 65.7143 43.1775C65.7555 43.1347 65.8047 43.1005 65.8591 43.0767C65.9135 43.053 65.972 43.0402 66.0314 43.0391C66.1512 43.0391 66.2662 43.0867 66.3509 43.1715C66.4357 43.2562 66.4833 43.3712 66.4833 43.491V52.4699C66.4844 52.5289 66.4738 52.5875 66.452 52.6423C66.4303 52.6971 66.3978 52.747 66.3565 52.7891C66.3152 52.8312 66.2659 52.8645 66.2116 52.8873C66.1572 52.9101 66.0989 52.9219 66.0399 52.9219Z" fill="#333333"/>
<path d="M61.9893 39.0299C60.7922 39.0277 59.6449 38.5505 58.7992 37.7032C57.9535 36.8559 57.4785 35.7077 57.4785 34.5106C57.4785 33.9182 57.5952 33.3317 57.8219 32.7844C58.0486 32.2371 58.3808 31.74 58.7997 31.3211C59.2185 30.9022 59.7158 30.57 60.2631 30.3433C60.8104 30.1166 61.3969 30 61.9893 30C63.1864 30 64.3346 30.4748 65.1819 31.3205C66.0292 32.1662 66.5063 33.3135 66.5086 34.5106C66.5063 35.7085 66.0295 36.8568 65.1824 37.7038C64.3354 38.5509 63.1872 39.0277 61.9893 39.0299ZM61.9893 30.9037C61.0334 30.906 60.1172 31.2868 59.4413 31.9627C58.7654 32.6386 58.3846 33.5547 58.3824 34.5106C58.3824 35.468 58.7621 36.3863 59.4383 37.0641C60.1145 37.7419 61.0319 38.1238 61.9893 38.126C62.9482 38.126 63.8678 37.7452 64.5458 37.0672C65.2238 36.3892 65.6047 35.4695 65.6047 34.5106C65.6025 33.5532 65.2205 32.636 64.5428 31.9598C63.865 31.2836 62.9467 30.9037 61.9893 30.9037Z" fill="#333333"/>
<path d="M37.7979 66.9472H32.4685C32.3487 66.9472 32.2337 66.8996 32.149 66.8148C32.0642 66.7301 32.0166 66.6151 32.0166 66.4953V55.8963C32.0189 54.9019 32.4149 53.9489 33.118 53.2458C33.8211 52.5427 34.7741 52.1468 35.7685 52.1445H59.7378C59.8576 52.1445 59.9726 52.1922 60.0573 52.2769C60.1421 52.3617 60.1897 52.4766 60.1897 52.5965C60.1909 52.6562 60.18 52.7154 60.1577 52.7707C60.1354 52.8261 60.1021 52.8763 60.0599 52.9185C60.0177 52.9607 59.9674 52.9941 59.9121 53.0164C59.8567 53.0387 59.7974 53.0494 59.7378 53.0482H35.7514C34.9961 53.0482 34.2717 53.3483 33.7376 53.8824C33.2035 54.4165 32.9034 55.141 32.9034 55.8963V66.0433H37.7979C38.0565 66.0433 38.3046 65.9412 38.4883 65.7592C38.6719 65.5771 38.7762 65.3299 38.7785 65.0713V64.9606C38.7874 63.8657 39.2257 62.818 39.9991 62.043C40.7725 61.268 41.8192 60.8275 42.9141 60.8164H59.968C60.0273 60.8164 60.0861 60.828 60.1409 60.8507C60.1958 60.8735 60.2456 60.9068 60.2876 60.9488C60.3295 60.9908 60.3628 61.0405 60.3855 61.0953C60.4082 61.1502 60.4199 61.209 60.4199 61.2683C60.4199 61.3882 60.3723 61.5031 60.2876 61.5879C60.2028 61.6727 60.0879 61.7203 59.968 61.7203H42.9141C42.0463 61.7225 41.2148 62.0683 40.6012 62.6819C39.9877 63.2954 39.642 64.1268 39.6397 64.9945V65.1055C39.631 65.5912 39.4341 66.0545 39.0906 66.3981C38.747 66.7416 38.2836 66.9385 37.7979 66.9472Z" fill="#333333"/>
<path d="M71.5484 66.9472H66.2105C65.7136 66.945 65.2378 66.7467 64.8865 66.3953C64.5352 66.044 64.3368 65.5682 64.3346 65.0713V64.9606C64.3346 64.0936 63.9907 63.262 63.3785 62.6481C62.7663 62.0343 61.9357 61.6884 61.0687 61.6862H60.0114C59.8915 61.6862 59.7766 61.6385 59.6918 61.5538C59.6071 61.469 59.5594 61.3541 59.5594 61.2342C59.5594 61.1143 59.6071 60.9994 59.6918 60.9146C59.7766 60.8299 59.8915 60.7822 60.0114 60.7822H61.0687C62.1754 60.7845 63.2359 61.2257 64.0177 62.009C64.7994 62.7924 65.2384 63.8539 65.2384 64.9606V65.0713C65.2384 65.3291 65.3408 65.5764 65.5231 65.7587C65.7054 65.941 65.9527 66.0433 66.2105 66.0433H71.0964V55.8963C71.0942 55.1417 70.7934 54.4185 70.2598 53.8849C69.7262 53.3513 69.0031 53.0505 68.2484 53.0482H59.7215C59.6016 53.0482 59.4867 53.0008 59.4019 52.916C59.3171 52.8313 59.2695 52.7163 59.2695 52.5965C59.2695 52.4766 59.3171 52.3617 59.4019 52.2769C59.4867 52.1922 59.6016 52.1445 59.7215 52.1445H68.2484C69.2428 52.1468 70.1958 52.5427 70.8989 53.2458C71.602 53.9489 71.998 54.9019 72.0003 55.8963V66.4953C72.0003 66.5546 71.9886 66.6134 71.9659 66.6683C71.9432 66.7231 71.9099 66.7729 71.8679 66.8148C71.826 66.8568 71.7761 66.8902 71.7213 66.9129C71.6665 66.9356 71.6077 66.9472 71.5484 66.9472Z" fill="#333333"/>
<path d="M48.7981 42.2373C48.6803 42.2374 48.5671 42.1916 48.4826 42.1095L44.3641 37.9823C44.3213 37.9417 44.2872 37.8927 44.2638 37.8385C44.2405 37.7843 44.2285 37.726 44.2285 37.667C44.2285 37.6079 44.2405 37.5495 44.2638 37.4952C44.2872 37.441 44.3213 37.392 44.3641 37.3514C44.4061 37.3093 44.4559 37.2761 44.5108 37.2533C44.5656 37.2306 44.6245 37.2188 44.6839 37.2188C44.7432 37.2188 44.8021 37.2306 44.8569 37.2533C44.9118 37.2761 44.9616 37.3093 45.0036 37.3514L49.1221 41.4699C49.205 41.5558 49.2513 41.6704 49.2513 41.7897C49.2513 41.909 49.205 42.0236 49.1221 42.1095C49.0346 42.1921 48.9185 42.2378 48.7981 42.2373Z" fill="#333333"/>
<path d="M55.5086 42.2867C55.3908 42.2868 55.2776 42.241 55.1931 42.1589C55.1511 42.1169 55.1178 42.067 55.095 42.0121C55.0723 41.9573 55.0605 41.8985 55.0605 41.8391C55.0605 41.7797 55.0723 41.7208 55.095 41.6659C55.1178 41.6111 55.1511 41.5613 55.1931 41.5194L59.0558 37.6566C59.1417 37.5738 59.2563 37.5273 59.3756 37.5273C59.4949 37.5273 59.6095 37.5738 59.6954 37.6566C59.7782 37.7425 59.8245 37.8571 59.8245 37.9764C59.8245 38.0957 59.7782 38.2103 59.6954 38.2961L55.8326 42.1589C55.7451 42.2415 55.629 42.2873 55.5086 42.2867Z" fill="#333333"/>
</g>
<defs>
<clipPath id="clip0_1081_175862">
<rect width="40" height="36.9473" fill="white" transform="translate(32 30)"/>
</clipPath>
</defs>
</svg>
