<svg width="100" height="100" viewBox="0 0 100 100" fill="none" xmlns="http://www.w3.org/2000/svg">
<circle cx="50" cy="50" r="50" fill="#F2F6FB"/>
<g clip-path="url(#clip0_1307_206082)">
<path d="M35.8512 41.4355H31.7778V58.7446H35.8512V41.4355Z" fill="white"/>
<path d="M40.7997 39.3184H36.2942V61.4139H40.7997V39.3184Z" fill="white"/>
<path d="M58.9191 48.1016H41.0266V52.5963H58.9191V48.1016Z" fill="#235AB0"/>
<path d="M63.7813 39.0801H59.5891V61.6294H63.7813V39.0801Z" fill="white"/>
<path d="M67.9196 41.793H64.4297V58.9292H67.9196V41.793Z" fill="white"/>
<path d="M33.9497 60.2472C33.5628 60.2486 33.1795 60.1737 32.8217 60.0267C32.4639 59.8796 32.1386 59.6635 31.8646 59.3904C31.5905 59.1174 31.3731 58.7928 31.2247 58.4355C31.0764 58.0783 31 57.6952 31 57.3084V43.4137C31 43.0269 31.0764 42.6438 31.2247 42.2866C31.3731 41.9293 31.5905 41.6047 31.8646 41.3317C32.1386 41.0586 32.4639 40.8425 32.8217 40.6954C33.1795 40.5484 33.5628 40.4732 33.9497 40.4746C34.7291 40.4746 35.4766 40.7845 36.0278 41.3356C36.5789 41.8868 36.8885 42.6343 36.8885 43.4137V57.3408C36.88 58.1146 36.5666 58.8539 36.0164 59.3981C35.4662 59.9422 34.7235 60.2473 33.9497 60.2472ZM33.9497 41.793C33.5188 41.793 33.1055 41.9634 32.7998 42.2671C32.4942 42.5707 32.321 42.9829 32.3182 43.4137V57.3408C32.321 57.7717 32.4942 58.1839 32.7998 58.4875C33.1055 58.7911 33.5188 58.9615 33.9497 58.9615C34.3795 58.9615 34.7917 58.7907 35.0957 58.4867C35.3996 58.1828 35.5704 57.7707 35.5704 57.3408V43.4459C35.5747 43.2304 35.5359 43.0161 35.4564 42.8157C35.3769 42.6153 35.2582 42.4329 35.1073 42.2789C34.9564 42.125 34.7762 42.0029 34.5775 41.9194C34.3787 41.8359 34.1653 41.793 33.9497 41.793Z" fill="#333333"/>
<path d="M66.0612 60.2472C65.6744 60.2486 65.2911 60.1737 64.9333 60.0267C64.5755 59.8796 64.2502 59.6635 63.9762 59.3904C63.7021 59.1174 63.4847 58.7928 63.3363 58.4355C63.1879 58.0783 63.1116 57.6952 63.1116 57.3084V43.4137C63.1116 43.0269 63.1879 42.6438 63.3363 42.2866C63.4847 41.9293 63.7021 41.6047 63.9762 41.3317C64.2502 41.0586 64.5755 40.8425 64.9333 40.6954C65.2911 40.5484 65.6744 40.4732 66.0612 40.4746C66.8407 40.4746 67.5882 40.7845 68.1393 41.3356C68.6905 41.8868 69.0001 42.6343 69.0001 43.4137V57.3408C68.9916 58.1146 68.6782 58.8539 68.128 59.3981C67.5777 59.9422 66.8351 60.2473 66.0612 60.2472ZM66.0612 41.793C65.6304 41.793 65.2171 41.9634 64.9114 42.2671C64.6057 42.5707 64.4326 42.9829 64.4297 43.4137V57.3408C64.4326 57.7717 64.6057 58.1839 64.9114 58.4875C65.2171 58.7911 65.6304 58.9615 66.0612 58.9615C66.4911 58.9615 66.9033 58.7907 67.2072 58.4867C67.5112 58.1828 67.6819 57.7707 67.6819 57.3408V43.4459C67.6863 43.2304 67.6475 43.0161 67.568 42.8157C67.4885 42.6153 67.3698 42.4329 67.2189 42.2789C67.0679 42.125 66.8878 42.0029 66.689 41.9194C66.4903 41.8359 66.2768 41.793 66.0612 41.793Z" fill="#333333"/>
<path d="M38.52 62.7424C38.1331 62.7439 37.7498 62.669 37.392 62.5219C37.0342 62.3749 36.7089 62.1585 36.4349 61.8854C36.1609 61.6124 35.9434 61.288 35.795 60.9308C35.6467 60.5735 35.5703 60.1905 35.5703 59.8036V40.9603C35.5703 40.5735 35.6467 40.1905 35.795 39.8332C35.9434 39.4759 36.1609 39.1513 36.4349 38.8783C36.7089 38.6052 37.0342 38.3891 37.392 38.242C37.7498 38.095 38.1331 38.0201 38.52 38.0215C39.2994 38.0215 40.0469 38.3311 40.5981 38.8822C41.1492 39.4334 41.4589 40.1809 41.4589 40.9603V59.8036C41.4589 60.583 41.1492 61.3306 40.5981 61.8817C40.0469 62.4329 39.2994 62.7424 38.52 62.7424ZM38.52 39.3396C38.0892 39.3396 37.6758 39.51 37.3701 39.8137C37.0645 40.1173 36.8913 40.5295 36.8885 40.9603V59.8036C36.8913 60.2344 37.0645 60.6467 37.3701 60.9503C37.6758 61.2539 38.0892 61.4243 38.52 61.4243C38.9498 61.4243 39.3621 61.2534 39.666 60.9495C39.9699 60.6456 40.1407 60.2334 40.1407 59.8036V40.9603C40.1436 40.7457 40.1037 40.5325 40.0236 40.3333C39.9434 40.1342 39.8245 39.953 39.6737 39.8002C39.5229 39.6474 39.3433 39.5261 39.1452 39.4433C38.9472 39.3605 38.7347 39.318 38.52 39.318V39.3396Z" fill="#333333"/>
<path d="M61.4907 62.7424C61.1038 62.7439 60.7205 62.669 60.3627 62.5219C60.0049 62.3749 59.6797 62.1585 59.4056 61.8854C59.1316 61.6124 58.9141 61.288 58.7658 60.9308C58.6174 60.5735 58.541 60.1905 58.541 59.8036V40.9603C58.541 40.5735 58.6174 40.1905 58.7658 39.8332C58.9141 39.4759 59.1316 39.1513 59.4056 38.8783C59.6797 38.6052 60.0049 38.3891 60.3627 38.242C60.7205 38.095 61.1038 38.0201 61.4907 38.0215C62.2701 38.0215 63.0176 38.3311 63.5688 38.8822C64.1199 39.4334 64.4296 40.1809 64.4296 40.9603V59.8036C64.4296 60.583 64.1199 61.3306 63.5688 61.8817C63.0176 62.4329 62.2701 62.7424 61.4907 62.7424ZM61.4907 39.3396C61.0599 39.3396 60.6465 39.51 60.3408 39.8137C60.0352 40.1173 59.862 40.5295 59.8592 40.9603V59.8036C59.862 60.2344 60.0352 60.6467 60.3408 60.9503C60.6465 61.2539 61.0599 61.4243 61.4907 61.4243C61.9205 61.4243 62.3328 61.2534 62.6367 60.9495C62.9406 60.6456 63.1114 60.2334 63.1114 59.8036V40.9603C63.1143 40.7457 63.0744 40.5325 62.9943 40.3333C62.9141 40.1342 62.7952 39.953 62.6444 39.8002C62.4936 39.6474 62.314 39.5261 62.1159 39.4433C61.9179 39.3605 61.7054 39.318 61.4907 39.318V39.3396Z" fill="#333333"/>
<path d="M59.2001 53.3095H40.8322C40.6582 53.3067 40.4922 53.2362 40.3692 53.1132C40.2462 52.9902 40.1759 52.8242 40.1731 52.6503V48.0691C40.1759 47.8952 40.2462 47.7292 40.3692 47.6061C40.4922 47.4831 40.6582 47.4129 40.8322 47.4102H59.2001C59.3749 47.4102 59.5426 47.4796 59.6662 47.6032C59.7898 47.7268 59.8592 47.8943 59.8592 48.0691V52.6503C59.8592 52.8251 59.7898 52.9928 59.6662 53.1164C59.5426 53.24 59.3749 53.3095 59.2001 53.3095ZM41.4589 51.9913H58.541V48.7499H41.4589V51.9913Z" fill="#333333"/>
</g>
<defs>
<clipPath id="clip0_1307_206082">
<rect width="38" height="24.7319" fill="white" transform="translate(31 38)"/>
</clipPath>
</defs>
</svg>
