<svg width="100" height="100" viewBox="0 0 100 100" fill="none" xmlns="http://www.w3.org/2000/svg">
<circle cx="50" cy="50" r="50" fill="#F2F6FB"/>
<g clip-path="url(#clip0_1928_379608)">
<path d="M26.7903 39.6592V34.8692L27.8003 33.9492H47.3903L48.3103 35.1092L48.6003 39.3192L51.1203 40.2692L51.9603 42.9592L52.0903 47.3192H67.9703V56.8792H77.2303V66.1592H52.0103V73.5092H23.5303V41.1692L24.8303 39.6592H26.7903Z" fill="white"/>
<path d="M30.3398 51.2695H29.3398V52.7695H30.3398V51.2695Z" fill="#235AB0"/>
<path d="M30.3398 46.5703H29.3398V48.0703H30.3398V46.5703Z" fill="#235AB0"/>
<path d="M35.8896 51.2695H34.8896V52.7695H35.8896V51.2695Z" fill="#235AB0"/>
<path d="M35.8896 46.5703H34.8896V48.0703H35.8896V46.5703Z" fill="#235AB0"/>
<path d="M40.96 51.2695H39.96V52.7695H40.96V51.2695Z" fill="#235AB0"/>
<path d="M40.96 46.5703H39.96V48.0703H40.96V46.5703Z" fill="#235AB0"/>
<path d="M30.3398 65.1484H29.3398V66.6484H30.3398V65.1484Z" fill="#235AB0"/>
<path d="M30.3398 60.4492H29.3398V61.9492H30.3398V60.4492Z" fill="#235AB0"/>
<path d="M30.3398 55.9609H29.3398V57.4609H30.3398V55.9609Z" fill="#235AB0"/>
<path d="M35.8896 65.1484H34.8896V66.6484H35.8896V65.1484Z" fill="#235AB0"/>
<path d="M35.8896 60.4492H34.8896V61.9492H35.8896V60.4492Z" fill="#235AB0"/>
<path d="M35.8896 55.9609H34.8896V57.4609H35.8896V55.9609Z" fill="#235AB0"/>
<path d="M51.91 73.9495H23.53C23.4609 73.9508 23.3922 73.9384 23.3279 73.9128C23.2637 73.8873 23.2052 73.8492 23.1558 73.8008C23.1065 73.7524 23.0673 73.6946 23.0405 73.6309C23.0138 73.5671 23 73.4986 23 73.4294V41.8994C23 41.1373 23.3021 40.4063 23.84 39.8665C24.3779 39.3266 25.1079 39.0222 25.87 39.0195H49.56C50.3238 39.0195 51.0564 39.3229 51.5965 39.863C52.1366 40.4031 52.44 41.1356 52.44 41.8994V47.4495C52.44 47.59 52.3842 47.7248 52.2848 47.8242C52.1854 47.9236 52.0506 47.9795 51.91 47.9795C51.7694 47.9795 51.6346 47.9236 51.5352 47.8242C51.4359 47.7248 51.38 47.59 51.38 47.4495V41.8994C51.3813 41.66 51.3352 41.4228 51.2442 41.2014C51.1532 40.98 51.0192 40.7789 50.8499 40.6096C50.6806 40.4404 50.4795 40.3063 50.2581 40.2153C50.0366 40.1243 49.7994 40.078 49.56 40.0793H25.87C25.3873 40.0793 24.9244 40.2712 24.5831 40.6125C24.2418 40.9539 24.05 41.4167 24.05 41.8994V72.8994H51.38V65.9595C51.38 65.8899 51.3937 65.8209 51.4203 65.7566C51.447 65.6923 51.486 65.6339 51.5352 65.5847C51.5845 65.5355 51.6429 65.4964 51.7072 65.4697C51.7715 65.4431 51.8404 65.4294 51.91 65.4294C51.9796 65.4294 52.0485 65.4431 52.1128 65.4697C52.1771 65.4964 52.2356 65.5355 52.2848 65.5847C52.334 65.6339 52.373 65.6923 52.3997 65.7566C52.4263 65.8209 52.44 65.8899 52.44 65.9595V73.4294C52.44 73.4986 52.4263 73.5671 52.3995 73.6309C52.3727 73.6946 52.3335 73.7524 52.2842 73.8008C52.2348 73.8492 52.1763 73.8873 52.1121 73.9128C52.0478 73.9384 51.9791 73.9508 51.91 73.9495Z" fill="#333333"/>
<path d="M59.5297 66.4902H39.9297V56.1602H59.5297V66.4902ZM40.9897 65.4302H58.4697V57.2202H40.9897V65.4302Z" fill="#333333"/>
<path d="M77.7602 66.4902H58.6902C58.5496 66.4902 58.4148 66.4344 58.3154 66.335C58.216 66.2356 58.1602 66.1008 58.1602 65.9602C58.1602 65.8906 58.1739 65.8216 58.2005 65.7573C58.2271 65.693 58.2662 65.6347 58.3154 65.5854C58.3646 65.5362 58.423 65.4971 58.4873 65.4705C58.5516 65.4438 58.6206 65.4302 58.6902 65.4302H76.6902V57.2202H58.6902C58.6206 57.2202 58.5516 57.2066 58.4873 57.1799C58.423 57.1533 58.3646 57.1142 58.3154 57.0649C58.2662 57.0157 58.2271 56.9574 58.2005 56.8931C58.1739 56.8288 58.1602 56.7598 58.1602 56.6902C58.1602 56.5496 58.216 56.4148 58.3154 56.3154C58.4148 56.216 58.5496 56.1602 58.6902 56.1602H77.7602V66.4902Z" fill="#333333"/>
<path d="M67.9401 57.252C67.8705 57.252 67.8016 57.2381 67.7373 57.2114C67.673 57.1848 67.6146 57.1459 67.5654 57.0967C67.5162 57.0475 67.4771 56.9891 67.4505 56.9248C67.4238 56.8605 67.4101 56.7915 67.4101 56.7219V47.9819H49.9301V56.7219C49.9301 56.7915 49.9164 56.8605 49.8898 56.9248C49.8632 56.9891 49.8241 57.0475 49.7749 57.0967C49.7257 57.1459 49.6673 57.1848 49.603 57.2114C49.5387 57.2381 49.4697 57.252 49.4001 57.252C49.3305 57.252 49.2616 57.2381 49.1973 57.2114C49.133 57.1848 49.0746 57.1459 49.0254 57.0967C48.9761 57.0475 48.9371 56.9891 48.9105 56.9248C48.8838 56.8605 48.8701 56.7915 48.8701 56.7219V46.9219H68.4701V56.7219C68.4701 56.7915 68.4564 56.8605 68.4298 56.9248C68.4031 56.9891 68.3641 57.0475 68.3149 57.0967C68.2657 57.1459 68.2072 57.1848 68.1429 57.2114C68.0786 57.2381 68.0097 57.252 67.9401 57.252Z" fill="#333333"/>
<path d="M73.8796 45.99C73.81 45.99 73.7411 45.9761 73.6768 45.9495C73.6125 45.9228 73.5541 45.8839 73.5049 45.8347C73.4556 45.7855 73.4166 45.7271 73.39 45.6628C73.3633 45.5985 73.3496 45.5296 73.3496 45.46V28.0598H64.3496L48.6796 39.5598C48.6232 39.6005 48.5592 39.6297 48.4915 39.6458C48.4237 39.6618 48.3535 39.6645 48.2848 39.6533C48.2161 39.6422 48.1502 39.6174 48.091 39.5808C48.0318 39.5442 47.9803 39.4964 47.9396 39.4399C47.8589 39.3263 47.8252 39.1858 47.8457 39.0479C47.8662 38.9099 47.9393 38.7852 48.0496 38.7L64.0496 27H74.4796V45.46C74.4803 45.5359 74.4647 45.6111 74.4338 45.6804C74.4029 45.7498 74.3574 45.8116 74.3005 45.8618C74.2436 45.9121 74.1766 45.9496 74.104 45.9717C74.0314 45.9938 73.9549 46 73.8796 45.99Z" fill="#333333"/>
<path d="M73.88 52.0996C72.9279 52.0996 72.0148 51.7214 71.3415 51.0481C70.6683 50.3748 70.29 49.4619 70.29 48.5098C70.29 48.4406 70.3038 48.3721 70.3306 48.3083C70.3573 48.2446 70.3965 48.1868 70.4459 48.1384C70.4952 48.09 70.5537 48.0519 70.618 48.0264C70.6822 48.0008 70.7509 47.9884 70.82 47.9897C70.8892 47.9884 70.9578 48.0008 71.0221 48.0264C71.0863 48.0519 71.1449 48.09 71.1942 48.1384C71.2436 48.1868 71.2828 48.2446 71.3095 48.3083C71.3363 48.3721 71.35 48.4406 71.35 48.5098C71.35 49.1808 71.6166 49.8241 72.0911 50.2986C72.5655 50.7731 73.209 51.0396 73.88 51.0396C74.551 51.0396 75.1945 50.7731 75.669 50.2986C76.1435 49.8241 76.41 49.1808 76.41 48.5098C76.4074 47.8405 76.1397 47.1994 75.6655 46.7271C75.1913 46.2547 74.5493 45.9897 73.88 45.9897C73.8104 45.9897 73.7415 45.9759 73.6772 45.9492C73.6129 45.9226 73.5545 45.8837 73.5053 45.8345C73.4561 45.7853 73.417 45.7269 73.3904 45.6626C73.3637 45.5983 73.35 45.5293 73.35 45.4597C73.35 45.3192 73.4059 45.1844 73.5053 45.085C73.6047 44.9856 73.7395 44.9297 73.88 44.9297C74.8287 44.9323 75.7378 45.3104 76.4086 45.9812C77.0794 46.652 77.4574 47.5611 77.4601 48.5098C77.4601 49.4602 77.0832 50.3717 76.4121 51.0447C75.741 51.7176 74.8304 52.097 73.88 52.0996Z" fill="#333333"/>
<path d="M51.96 50.0117V54.2817C54.2182 53.5359 56.5817 53.1576 58.96 53.1616C61.1158 53.1594 63.2609 53.4658 65.33 54.0715V50.0117H51.96Z" fill="#235AB0"/>
<path d="M48.3398 39.6609C48.1992 39.6609 48.0644 39.605 47.965 39.5056C47.8656 39.4062 47.8098 39.2714 47.8098 39.1309V35.3308C47.8098 35.1399 47.7339 34.9568 47.5989 34.8218C47.4639 34.6868 47.2807 34.6108 47.0898 34.6108H28.0398C27.8488 34.6108 27.6657 34.6868 27.5306 34.8218C27.3956 34.9568 27.3198 35.1399 27.3198 35.3308V39.1309C27.3198 39.2714 27.2639 39.4062 27.1645 39.5056C27.0651 39.605 26.9303 39.6609 26.7898 39.6609C26.6492 39.6609 26.5144 39.605 26.415 39.5056C26.3156 39.4062 26.2598 39.2714 26.2598 39.1309V35.3308C26.2598 34.8587 26.4473 34.4061 26.7811 34.0723C27.1149 33.7385 27.5677 33.5508 28.0398 33.5508H47.0898C47.5601 33.5534 48.0103 33.7422 48.3419 34.0757C48.6736 34.4092 48.8598 34.8605 48.8598 35.3308V39.1309C48.8611 39.2 48.8486 39.2688 48.8231 39.333C48.7976 39.3973 48.7594 39.4558 48.711 39.5051C48.6626 39.5545 48.6049 39.5936 48.5411 39.6204C48.4774 39.6471 48.4089 39.6609 48.3398 39.6609Z" fill="#333333"/>
</g>
<defs>
<clipPath id="clip0_1928_379608">
<rect width="54.77" height="46.96" fill="white" transform="translate(23 27)"/>
</clipPath>
</defs>
</svg>
