<svg width="36" height="39" viewBox="0 0 36 39" fill="none" xmlns="http://www.w3.org/2000/svg">
<g clip-path="url(#clip0_891_226308)">
<path d="M20.56 36.5502C20.3979 36.5539 20.2362 36.5336 20.08 36.4902C18.53 36.0202 10.72 35.8803 7.84003 35.8603C7.68885 35.8603 7.54386 35.8002 7.43697 35.6933C7.33007 35.5864 7.27002 35.4414 7.27002 35.2902C7.27259 35.1398 7.33348 34.9964 7.43982 34.8901C7.54616 34.7837 7.68966 34.7227 7.84003 34.7201C8.27003 34.7201 18.38 34.7801 20.4 35.4001C21.18 35.6401 25.33 34.2801 32.85 30.7101C32.8777 30.6992 32.9022 30.6818 32.9214 30.6591C32.9406 30.6364 32.9538 30.6093 32.96 30.5803C32.9736 30.5504 32.9806 30.518 32.9806 30.4853C32.9806 30.4525 32.9736 30.4199 32.96 30.3901C32.6288 29.9308 32.1547 29.5946 31.6118 29.4335C31.069 29.2725 30.4881 29.2959 29.96 29.5002L23.89 31.8603C23.2245 32.1178 22.4914 32.1423 21.81 31.9301L18.61 30.9301C18.4667 30.882 18.3478 30.7799 18.2786 30.6454C18.2095 30.5109 18.1957 30.3547 18.24 30.2101C18.2881 30.0668 18.3903 29.948 18.5248 29.8788C18.6593 29.8097 18.8155 29.7959 18.96 29.8403L22.16 30.8403C22.5843 30.9873 23.0457 30.9873 23.47 30.8403L29.54 28.4701C30.308 28.172 31.1533 28.1381 31.9427 28.3735C32.7321 28.6088 33.4207 29.1002 33.9 29.7702C34.0142 29.9324 34.092 30.1172 34.1283 30.3122C34.1645 30.5072 34.1583 30.7077 34.11 30.9001C34.0596 31.0922 33.9682 31.2714 33.8423 31.425C33.7163 31.5786 33.5586 31.7032 33.38 31.7902C28.61 33.9902 22.74 36.5502 20.56 36.5502Z" fill="#333333"/>
<path d="M22.68 30.9207H13.75C13.5996 30.9181 13.4561 30.8573 13.3498 30.751C13.2434 30.6446 13.1825 30.5012 13.18 30.3508C13.18 30.276 13.1947 30.2017 13.2234 30.1326C13.252 30.0634 13.294 30.0007 13.3469 29.9478C13.3998 29.8948 13.4627 29.8529 13.5318 29.8242C13.601 29.7956 13.6751 29.7808 13.75 29.7808H22.59C22.5749 29.2551 22.3593 28.7552 21.9875 28.3833C21.6156 28.0115 21.1156 27.7959 20.59 27.7808C19.3762 27.7584 18.1645 27.6716 16.96 27.5208C16.1078 27.3703 15.271 27.1428 14.46 26.8408C13.2208 26.3565 11.9094 26.0827 10.58 26.0308C8.66997 26.0308 6.29997 28.2706 5.57997 29.1306C5.53124 29.1872 5.47168 29.2336 5.4048 29.2668C5.33791 29.3001 5.26505 29.3196 5.1905 29.3242C5.11596 29.3289 5.04123 29.3186 4.97073 29.2939C4.90023 29.2693 4.83538 29.2308 4.77998 29.1807C4.72267 29.1326 4.67555 29.0736 4.64142 29.0071C4.60728 28.9406 4.58681 28.868 4.58122 28.7935C4.57563 28.7189 4.58502 28.6439 4.60885 28.573C4.63268 28.5021 4.67046 28.4367 4.71997 28.3806C4.84997 28.2306 7.80998 24.8906 10.62 24.8906C12.0756 24.9388 13.5125 25.2331 14.87 25.7607C15.6127 26.0396 16.3791 26.2503 17.16 26.3906C17.94 26.5006 19.16 26.5806 20.67 26.6306C21.5083 26.6567 22.3033 27.0088 22.886 27.6121C23.4686 28.2153 23.793 29.0222 23.79 29.8608C23.7887 30.0039 23.7588 30.1453 23.7019 30.2766C23.6451 30.4079 23.5625 30.5264 23.459 30.6252C23.3555 30.7241 23.2332 30.8013 23.0994 30.8521C22.9656 30.9028 22.823 30.926 22.68 30.9207Z" fill="#333333"/>
<path d="M4.57998 38.679C4.50701 38.6894 4.43294 38.6894 4.35998 38.679C4.22066 38.6193 4.10966 38.5083 4.04998 38.369L0.0499954 28.899C-0.0066832 28.7583 -0.00597081 28.601 0.051979 28.4608C0.109929 28.3206 0.220501 28.2086 0.359993 28.149L4.13999 26.5491C4.27803 26.494 4.43195 26.494 4.56998 26.5491C4.64141 26.5767 4.70655 26.6182 4.76153 26.6714C4.81651 26.7247 4.8602 26.7887 4.88999 26.8592L8.88999 36.3292C8.9211 36.3979 8.93799 36.472 8.93967 36.5474C8.94135 36.6228 8.92778 36.6978 8.89976 36.7679C8.87174 36.8379 8.82987 36.9017 8.77663 36.9551C8.7234 37.0086 8.65992 37.0508 8.58999 37.0792L4.80999 38.679C4.73407 38.6941 4.6559 38.6941 4.57998 38.679ZM1.31998 28.939L4.87998 37.3592L7.60998 36.199L4.04998 27.7791L1.31998 28.939Z" fill="#333333"/>
<path d="M30.57 27.04C30.4209 27.0411 30.2773 26.9835 30.17 26.8799C30.1165 26.8269 30.074 26.7639 30.045 26.6943C30.016 26.6248 30.0011 26.5504 30.0011 26.4751C30.0011 26.3998 30.016 26.3251 30.045 26.2556C30.074 26.1861 30.1165 26.1231 30.17 26.0701C32.8707 23.3353 34.3804 19.6435 34.37 15.8C34.3647 11.9145 32.8181 8.18966 30.0697 5.44312C27.3213 2.69657 23.5955 1.15255 19.71 1.1499C15.8245 1.15255 12.0987 2.69657 9.35028 5.44312C6.60185 8.18966 5.05529 11.9145 5.05 15.8C5.0439 18.7343 5.92207 21.6023 7.57 24.03C7.6545 24.1548 7.68616 24.308 7.65805 24.4561C7.62994 24.6041 7.54436 24.735 7.42001 24.8201C7.29524 24.9046 7.14209 24.9361 6.99404 24.908C6.846 24.8799 6.71511 24.7943 6.63 24.6699C4.85219 22.054 3.90428 18.9629 3.91 15.8C3.91529 11.6113 5.58163 7.59547 8.54356 4.63354C11.5055 1.67162 15.5212 0.00529223 19.71 0C23.8988 0.00529223 27.9145 1.67162 30.8764 4.63354C33.8384 7.59547 35.5047 11.6113 35.51 15.8C35.5192 19.9412 33.8951 23.9187 30.99 26.8699C30.935 26.9249 30.8695 26.9686 30.7973 26.9978C30.7251 27.027 30.6478 27.0413 30.57 27.04Z" fill="#333333"/>
<path d="M12.87 23.9805H12.82C12.7451 23.9742 12.6721 23.9531 12.6053 23.9185C12.5385 23.8838 12.4792 23.8365 12.4309 23.7788C12.3826 23.7212 12.3461 23.6546 12.3236 23.5828C12.3012 23.511 12.2931 23.4355 12.3 23.3606C12.4 22.1906 12.51 20.8705 12.14 20.5005C11.77 20.1305 9.01001 17.2505 9.96001 14.2905C10.36 13.0205 7.84001 10.5004 5.96001 9.12037C5.8975 9.07755 5.84432 9.02272 5.80371 8.95875C5.7631 8.89478 5.7359 8.8231 5.72374 8.7483C5.71159 8.67351 5.71474 8.59699 5.733 8.52345C5.75127 8.44991 5.78427 8.38098 5.83 8.32057C5.91817 8.19942 6.05049 8.11785 6.19834 8.09352C6.34618 8.06919 6.49768 8.10393 6.62001 8.19044C7.17001 8.58044 11.9 12.0804 11.09 14.6304C10.48 16.5204 12 18.7004 12.99 19.6904C13.73 20.4304 13.61 21.8305 13.48 23.4605C13.4648 23.609 13.3929 23.7459 13.2793 23.8428C13.1657 23.9396 13.0191 23.989 12.87 23.9805Z" fill="#333333"/>
<path d="M16.74 25.4888C16.6255 25.4896 16.5137 25.4545 16.42 25.3887C16.3574 25.3474 16.3036 25.2941 16.262 25.2317C16.2204 25.1693 16.1918 25.0993 16.1778 25.0257C16.1638 24.952 16.1648 24.8761 16.1806 24.8028C16.1964 24.7294 16.2268 24.6602 16.27 24.5989C16.5582 24.2056 16.8941 23.8495 17.27 23.5388L17.63 23.1987C17.69 23.1388 17.69 23.0788 17.63 22.7188C17.5111 22.2338 17.5295 21.7254 17.6831 21.2503C17.8368 20.7752 18.1196 20.3523 18.5 20.0288C19.3163 19.1894 19.9917 18.2236 20.5 17.1687C20.97 16.1687 21.04 15.3688 20.69 15.0188C20.34 14.6688 20.33 14.7187 19.53 15.4387C19.0738 15.9877 18.4275 16.3447 17.72 16.4387C16.6 16.4387 16.32 15.5089 16.12 14.8189C15.9965 14.2202 15.7171 13.6647 15.31 13.2088C14.6904 12.6666 13.97 12.2521 13.19 11.9888C12.3714 11.7159 11.6163 11.2805 10.97 10.7088C10.8165 10.5864 10.7025 10.4216 10.642 10.2349C10.5816 10.0482 10.5774 9.84778 10.63 9.65871C10.84 8.89871 11.89 8.59881 13.33 8.25881C13.6251 8.19845 13.9157 8.11828 14.2 8.01882C14.4732 7.88526 14.7676 7.80064 15.07 7.76882C15.4964 7.7648 15.9124 7.63702 16.2675 7.4009C16.6226 7.16477 16.9014 6.83041 17.07 6.43874C17.57 5.31874 16.31 2.78874 15.4 1.43874C15.3155 1.31397 15.2838 1.16076 15.312 1.01272C15.3401 0.864673 15.4256 0.733813 15.55 0.648701C15.6748 0.564203 15.8279 0.532702 15.976 0.560811C16.124 0.58892 16.2549 0.674499 16.34 0.798848C16.62 1.19885 19.04 4.79869 18.12 6.88869C17.8788 7.44683 17.4895 7.92846 16.9941 8.28103C16.4988 8.63359 15.9163 8.84362 15.31 8.88869C15.1405 8.91582 14.9733 8.95606 14.81 9.00881C14.4375 9.17973 14.0441 9.30064 13.64 9.36867C13.0249 9.49044 12.4248 9.67825 11.85 9.92873C12.3923 10.3678 13.0086 10.7064 13.67 10.9287C14.5892 11.2441 15.4359 11.7405 16.16 12.3887C16.7019 12.9819 17.0809 13.7055 17.26 14.4888C17.49 15.2588 17.55 15.2888 17.76 15.2888C17.97 15.2888 18.44 14.9487 18.76 14.6187C19.37 14.0687 20.4 13.1388 21.5 14.2388C22 14.7488 22.42 15.7587 21.5 17.6787C20.9276 18.8568 20.1677 19.9341 19.25 20.8687C19.0005 21.0636 18.8148 21.3286 18.7168 21.6297C18.6188 21.9307 18.613 22.2544 18.7 22.5589C18.7807 22.812 18.7935 23.0819 18.7374 23.3416C18.6813 23.6013 18.558 23.8416 18.38 24.0388L17.98 24.4087C17.6796 24.6652 17.408 24.9536 17.17 25.2688C17.1188 25.3347 17.0538 25.3885 16.9794 25.4265C16.9051 25.4645 16.8234 25.4858 16.74 25.4888Z" fill="#333333"/>
<path d="M30.57 27.0417C30.497 27.0512 30.423 27.0512 30.35 27.0417C30.2801 27.0132 30.2165 26.9712 30.163 26.9179C30.1095 26.8647 30.067 26.8012 30.0382 26.7314C30.0094 26.6616 29.9947 26.5869 29.995 26.5114C29.9953 26.4359 30.0106 26.3612 30.04 26.2917C30.79 24.4317 30.31 23.7517 29.56 22.9917C28.81 22.2317 29.28 21.4817 29.56 20.7917C29.99 19.7917 30.21 19.1717 29.56 18.5017C29.0236 18.0186 28.3403 17.7297 27.62 17.6816C26.9508 17.6791 26.3067 17.4262 25.8145 16.9729C25.3222 16.5195 25.0174 15.8984 24.96 15.2317C24.8074 14.4997 24.8729 13.7392 25.1484 13.0442C25.424 12.3491 25.8974 11.7503 26.51 11.3217C26.9077 10.9975 27.3882 10.7909 27.8972 10.7255C28.4061 10.6602 28.9233 10.7385 29.39 10.9516C30.23 11.4416 32.93 11.5517 34.44 11.5017C34.5922 11.499 34.7393 11.5561 34.8496 11.6608C34.96 11.7656 35.0248 11.9096 35.03 12.0617C35.0327 12.1374 35.0202 12.2128 34.9934 12.2837C34.9666 12.3545 34.9259 12.4192 34.8738 12.4741C34.8217 12.529 34.7591 12.573 34.6898 12.6035C34.6204 12.634 34.5457 12.6503 34.47 12.6516C34.04 12.6516 30.21 12.7516 28.82 11.9416C28.5402 11.8452 28.2401 11.8231 27.9491 11.8774C27.6581 11.9317 27.3862 12.0607 27.16 12.2517C26.7306 12.5608 26.4007 12.9884 26.2106 13.4821C26.0206 13.9759 25.9787 14.5145 26.09 15.0317C26.32 16.3017 26.81 16.3817 27.81 16.5517C28.7669 16.6344 29.6684 17.0358 30.37 17.6916C31.64 18.9616 31.03 20.3417 30.63 21.2517C30.48 21.6017 30.26 22.0816 30.37 22.1816C31.49 23.3116 32.01 24.4616 31.1 26.7216C31.0509 26.8196 30.9751 26.9016 30.8813 26.9582C30.7875 27.0148 30.6796 27.0439 30.57 27.0417Z" fill="#333333"/>
<path d="M24.32 7.98179C24.1606 7.98308 24.0021 7.95939 23.85 7.91173C23.5675 7.79983 23.3124 7.62865 23.1019 7.40953C22.8914 7.19041 22.7305 6.92846 22.63 6.64171C21.77 4.81171 24.85 2.00177 25.48 1.46177C25.5362 1.4114 25.6019 1.37279 25.6732 1.34801C25.7446 1.32322 25.8201 1.31284 25.8955 1.31749C25.9708 1.32214 26.0445 1.34174 26.1122 1.37511C26.18 1.40847 26.2404 1.45491 26.29 1.51182C26.388 1.62781 26.4367 1.77761 26.4255 1.92906C26.4142 2.08051 26.3441 2.22161 26.23 2.32188C24.98 3.41188 23.3 5.38173 23.66 6.16173C23.78 6.42173 23.98 6.75188 24.2 6.82188C24.42 6.89188 25.04 6.59185 25.57 6.29185C25.7962 6.15609 26.0133 6.00582 26.22 5.8419C26.5269 5.51402 26.9454 5.3126 27.3931 5.27745C27.8409 5.24229 28.2856 5.37576 28.64 5.65172C29.6099 6.04154 30.6671 6.16255 31.7 6.00181C31.8498 5.98193 32.0014 6.02247 32.1215 6.11436C32.2415 6.20625 32.3201 6.34196 32.34 6.4918C32.3512 6.56619 32.3474 6.64209 32.3286 6.71495C32.3099 6.78781 32.2767 6.85614 32.2309 6.91588C32.1852 6.97561 32.1279 7.02551 32.0624 7.0626C31.997 7.0997 31.9247 7.12314 31.85 7.1317C30.5689 7.3175 29.2614 7.14801 28.07 6.64171C27.49 6.30171 27.42 6.35181 26.91 6.75181C26.6636 6.94293 26.4065 7.11991 26.14 7.28184C25.6032 7.66709 24.9766 7.90807 24.32 7.98179Z" fill="#333333"/>
</g>
<defs>
<clipPath id="clip0_891_226308">
<rect width="35.5" height="38.68" fill="white"/>
</clipPath>
</defs>
</svg>
