<svg width="100" height="100" viewBox="0 0 100 100" fill="none" xmlns="http://www.w3.org/2000/svg">
<circle cx="50" cy="50" r="50" fill="#F2F6FB"/>
<g clip-path="url(#clip0_1738_334683)">
<path d="M32.5703 75.43V36.47L33.9003 34.85H38.1703V24.7L39.5703 23.37L59.6803 23.5L60.9003 24.64L60.7303 34.72L65.5603 35.17L66.7103 36.82V75.57L32.5703 75.43Z" fill="white"/>
<path d="M56.7006 67.62H55.6406V69.4H56.7006V67.62Z" fill="#235AB0"/>
<path d="M43.5405 51.2H42.4805V52.99H43.5405V51.2Z" fill="#235AB0"/>
<path d="M43.5405 45.61H42.4805V47.39H43.5405V45.61Z" fill="#235AB0"/>
<path d="M43.5405 40.25H42.4805V42.03H43.5405V40.25Z" fill="#235AB0"/>
<path d="M50.1498 51.2H49.0898V52.99H50.1498V51.2Z" fill="#235AB0"/>
<path d="M50.1498 45.61H49.0898V47.39H50.1498V45.61Z" fill="#235AB0"/>
<path d="M50.1498 40.25H49.0898V42.03H50.1498V40.25Z" fill="#235AB0"/>
<path d="M56.7006 51.2H55.6406V52.99H56.7006V51.2Z" fill="#235AB0"/>
<path d="M56.7006 45.61H55.6406V47.39H56.7006V45.61Z" fill="#235AB0"/>
<path d="M56.7006 40.25H55.6406V42.03H56.7006V40.25Z" fill="#235AB0"/>
<path d="M43.5405 67.74H42.4805V69.53H43.5405V67.74Z" fill="#235AB0"/>
<path d="M43.5405 62.15H42.4805V63.93H43.5405V62.15Z" fill="#235AB0"/>
<path d="M43.5405 56.79H42.4805V58.57H43.5405V56.79Z" fill="#235AB0"/>
<path d="M50.1498 67.74H49.0898V69.53H50.1498V67.74Z" fill="#235AB0"/>
<path d="M50.1498 62.15H49.0898V63.93H50.1498V62.15Z" fill="#235AB0"/>
<path d="M50.1498 56.79H49.0898V58.57H50.1498V56.79Z" fill="#235AB0"/>
<path d="M56.7006 62.02H55.6406V63.81H56.7006V62.02Z" fill="#235AB0"/>
<path d="M56.7006 56.67H55.6406V58.45H56.7006V56.67Z" fill="#235AB0"/>
<path d="M66.65 76.14H32.53C32.3894 76.14 32.2546 76.0841 32.1552 75.9847C32.0558 75.8853 32 75.7505 32 75.61V36.92C32 36.265 32.2602 35.6367 32.7234 35.1735C33.1866 34.7102 33.8149 34.4501 34.47 34.4501H64.73C65.3851 34.4501 66.0133 34.7102 66.4765 35.1735C66.9398 35.6367 67.2 36.265 67.2 36.92V75.61C67.2 75.6813 67.1857 75.7519 67.1578 75.8175C67.1299 75.8831 67.0891 75.9426 67.0378 75.9921C66.9864 76.0415 66.9256 76.0802 66.859 76.1056C66.7923 76.131 66.7213 76.1427 66.65 76.14ZM49.59 75.08H66.12V36.92C66.12 36.5452 65.9718 36.1856 65.7076 35.9196C65.4435 35.6535 65.0849 35.5028 64.71 35.5001H34.47C34.0951 35.5028 33.7365 35.6535 33.4724 35.9196C33.2082 36.1856 33.06 36.5452 33.06 36.92V75.08H49.59Z" fill="#333333"/>
<path d="M60.9519 35.5001C60.8823 35.5001 60.8134 35.4862 60.7491 35.4596C60.6848 35.433 60.6263 35.3941 60.5771 35.3448C60.5279 35.2956 60.4889 35.237 60.4622 35.1727C60.4356 35.1084 60.4219 35.0397 60.4219 34.9701V25.14C60.4219 24.8606 60.3116 24.5924 60.1149 24.3939C59.9183 24.1954 59.6513 24.0826 59.3719 24.08H39.8119C39.671 24.0773 39.531 24.1028 39.4001 24.1549C39.2692 24.207 39.1499 24.2847 39.0494 24.3834C38.9488 24.4821 38.8689 24.5997 38.8144 24.7296C38.7599 24.8595 38.7318 24.9991 38.7319 25.14V35.0001C38.7319 35.1407 38.676 35.2755 38.5766 35.3749C38.4773 35.4743 38.3424 35.5299 38.2019 35.5299C38.0613 35.5299 37.9265 35.4743 37.8271 35.3749C37.7277 35.2755 37.6719 35.1407 37.6719 35.0001V25.14C37.6719 24.5804 37.8942 24.0438 38.2899 23.6481C38.6856 23.2524 39.2223 23.0299 39.7819 23.0299H59.3419C59.9015 23.0299 60.4382 23.2524 60.8339 23.6481C61.2296 24.0438 61.4519 24.5804 61.4519 25.14V35.0001C61.4447 35.1304 61.3897 35.2533 61.2974 35.3456C61.2052 35.4378 61.0821 35.4929 60.9519 35.5001Z" fill="#333333"/>
<path d="M57.2497 27.23H41.9297V31.81H57.2497V27.23Z" fill="#235AB0"/>
</g>
<defs>
<clipPath id="clip0_1738_334683">
<rect width="35.17" height="53.14" fill="white" transform="translate(32 23)"/>
</clipPath>
</defs>
</svg>
