<svg width="90" height="90" viewBox="0 0 90 90" fill="none" xmlns="http://www.w3.org/2000/svg">
<g clip-path="url(#clip0_1988_378894)">
<path d="M30.5999 39.21L26.6599 42.49L26.4399 66.17L28.5199 69.58L31.0099 70.93L58.6299 70.58L61.6299 69.36L63.1699 66.09V43.26L60.7999 39.79L58.0599 39.21H30.5999Z" fill="white"/>
<path d="M34.24 39.4202H37.71V28.5602L40.07 24.4202L44.94 23.1002L49.5 24.7402L51.65 29.2202V39.4202L55.09 39.2102L54.88 27.8702L52.47 22.6002L47.06 19.4702L41.02 19.8402L35.69 23.8902L34.05 29.5902L34.18 36.0802L34.24 39.4202Z" fill="white"/>
<path d="M57.98 71.1499H31.61C30.1248 71.1499 28.7004 70.5597 27.6502 69.5095C26.6 68.4593 26.01 67.035 26.01 65.5498V44.3799C26.0127 42.8955 26.6035 41.4725 27.6531 40.4229C28.7028 39.3732 30.1256 38.7824 31.61 38.7798H57.99C59.4744 38.7824 60.8972 39.3732 61.9468 40.4229C62.9965 41.4725 63.5873 42.8955 63.59 44.3799V65.5498C63.59 66.286 63.4448 67.015 63.1628 67.6951C62.8807 68.3751 62.4673 68.993 61.9462 69.5132C61.4252 70.0333 60.8067 70.4455 60.1261 70.7263C59.4455 71.0072 58.7162 71.1512 57.98 71.1499ZM31.61 39.7798C30.3908 39.7824 29.2223 40.268 28.3602 41.1301C27.4981 41.9922 27.0127 43.1607 27.01 44.3799V65.5498C27.01 66.7698 27.4946 67.9398 28.3573 68.8025C29.22 69.6652 30.39 70.1499 31.61 70.1499H57.99C59.21 70.1499 60.38 69.6652 61.2427 68.8025C62.1053 67.9398 62.59 66.7698 62.59 65.5498V44.3799C62.5873 43.1607 62.1018 41.9922 61.2397 41.1301C60.3777 40.268 59.2092 39.7824 57.99 39.7798H31.61Z" fill="#333333"/>
<path d="M55.48 39.21H54.48V29.9001C54.5222 28.5742 54.2974 27.2532 53.8191 26.0159C53.3409 24.7785 52.6187 23.6501 51.6957 22.6973C50.7727 21.7445 49.6677 20.9869 48.4462 20.4695C47.2246 19.9521 45.9116 19.6855 44.585 19.6855C43.2584 19.6855 41.9454 19.9521 40.7239 20.4695C39.5024 20.9869 38.3973 21.7445 37.4743 22.6973C36.5513 23.6501 35.8292 24.7785 35.3509 26.0159C34.8726 27.2532 34.6479 28.5742 34.6901 29.9001V39.21H33.6901V29.9001C33.6459 28.4416 33.895 26.9889 34.4226 25.6284C34.9502 24.268 35.7457 23.0273 36.7617 21.98C37.7778 20.9327 38.9938 20.1001 40.3376 19.5315C41.6815 18.9629 43.1258 18.6699 44.585 18.6699C46.0442 18.6699 47.4886 18.9629 48.8325 19.5315C50.1763 20.1001 51.3923 20.9327 52.4083 21.98C53.4244 23.0273 54.2199 24.268 54.7475 25.6284C55.2751 26.9889 55.5242 28.4416 55.48 29.9001V39.21Z" fill="#333333"/>
<path d="M38.06 39.2097H37.06V30.1299C36.9668 29.0886 37.0914 28.0393 37.4259 27.0488C37.7605 26.0583 38.2976 25.1482 39.0031 24.3767C39.7087 23.6052 40.5671 22.9892 41.5238 22.5676C42.4805 22.1461 43.5146 21.9282 44.56 21.9282C45.6055 21.9282 46.6395 22.1461 47.5962 22.5676C48.5529 22.9892 49.4113 23.6052 50.1169 24.3767C50.8224 25.1482 51.3595 26.0583 51.6941 27.0488C52.0286 28.0393 52.1533 29.0886 52.06 30.1299V39.1299H51.06V30.1299C51.1472 29.2238 51.0439 28.3094 50.7569 27.4456C50.4699 26.5817 50.0055 25.7875 49.3934 25.1138C48.7814 24.44 48.0352 23.9016 47.2029 23.5332C46.3705 23.1648 45.4703 22.9746 44.56 22.9746C43.6498 22.9746 42.7496 23.1648 41.9172 23.5332C41.0848 23.9016 40.3387 24.44 39.7266 25.1138C39.1145 25.7875 38.6501 26.5817 38.3631 27.4456C38.0761 28.3094 37.9729 29.2238 38.06 30.1299V39.2097Z" fill="#333333"/>
<path d="M56.44 51.4902H33.15C32.1283 51.4902 31.3 52.3185 31.3 53.3402V57.8402C31.3 58.862 32.1283 59.6902 33.15 59.6902H56.44C57.4618 59.6902 58.2901 58.862 58.2901 57.8402V53.3402C58.2901 52.3185 57.4618 51.4902 56.44 51.4902Z" fill="#235AB0"/>
<path d="M57.02 59.6897H32.4301C32.2646 59.6897 32.1007 59.6573 31.9479 59.594C31.795 59.5307 31.6561 59.4378 31.5391 59.3208C31.4221 59.2038 31.3293 59.065 31.2659 58.9121C31.2026 58.7592 31.17 58.5954 31.17 58.4299V52.4897C31.17 52.1546 31.3024 51.8331 31.5385 51.5952C31.7745 51.3573 32.095 51.2224 32.4301 51.2197H57.02C57.3568 51.2197 57.6799 51.3536 57.9181 51.5918C58.1563 51.83 58.29 52.1529 58.29 52.4897V58.4299C58.29 58.5962 58.2571 58.7608 58.1932 58.9143C58.1292 59.0678 58.0355 59.2071 57.9175 59.3242C57.7994 59.4414 57.6593 59.5339 57.5053 59.5967C57.3513 59.6594 57.1863 59.691 57.02 59.6897ZM32.4301 51.7598C32.2382 51.7624 32.055 51.8404 31.9203 51.9771C31.7855 52.1137 31.71 52.2979 31.71 52.4897V58.4299C31.71 58.6218 31.7855 58.8058 31.9203 58.9424C32.055 59.079 32.2382 59.1573 32.4301 59.1599H57.02C57.2136 59.1599 57.3994 59.0829 57.5363 58.946C57.6732 58.8091 57.7501 58.6235 57.7501 58.4299V52.4897C57.7501 52.2961 57.6732 52.1105 57.5363 51.9736C57.3994 51.8367 57.2136 51.7598 57.02 51.7598H32.4301Z" fill="#333333"/>
<path d="M36.75 55.8499L35.75 56.5198L35.47 56.0498L36.57 55.4597L35.47 54.8699L35.75 54.3999L36.75 55.0498V53.7798H37.31V55.0498L38.37 54.3999L38.63 54.8699L37.53 55.4597L38.63 56.0498L38.37 56.5198L37.31 55.8499V57.1299H36.75V55.8499Z" fill="white"/>
<path d="M41.9 55.8499L40.9 56.5198L40.62 56.0498L41.72 55.4597L40.62 54.8699L40.9 54.3999L41.9 55.0498V53.7798H42.46V55.0498L43.53 54.3999L43.79 54.8699L42.69 55.4597L43.79 56.0498L43.53 56.5198L42.46 55.8499V57.1299H41.9V55.8499Z" fill="white"/>
<path d="M47.05 55.8499L46 56.5198L45.72 56.0498L46.82 55.4597L45.72 54.8699L46 54.3999L47.05 55.0498V53.7798H47.61V55.0498L48.68 54.3999L48.94 54.8699L47.84 55.4597L48.94 56.0498L48.68 56.5198L47.61 55.8499V57.1299H47.04L47.05 55.8499Z" fill="white"/>
<path d="M52.2 55.8499L51.14 56.5198L50.87 56.0498L51.97 55.4597L50.87 54.8699L51.14 54.3999L52.2 55.0498V53.7798H52.76V55.0498L53.83 54.3999L54.09 54.8699L52.99 55.4597L54.09 56.0498L53.83 56.5198L52.76 55.8499V57.1299H52.2V55.8499Z" fill="white"/>
</g>
<defs>
<clipPath id="clip0_1988_378894">
<rect width="37.58" height="52.16" fill="white" transform="translate(26 19)"/>
</clipPath>
</defs>
</svg>
