<svg width="90" height="90" viewBox="0 0 90 90" fill="none" xmlns="http://www.w3.org/2000/svg">
<circle cx="45" cy="45" r="45" fill="#FAFAFA"/>
<g clip-path="url(#clip0_1988_378983)">
<path d="M19.5109 37.62V28.91H23.6209L24.3209 26.34L27.7709 24.25L30.9109 24.78L32.8409 27.93V28.85L37.0709 28.91L36.9209 37.62H41.1809L41.0709 49.23L44.4309 48.49L48.2609 49.02L48.5109 38.72L50.6009 36.75L51.1409 32.33L55.0609 28.15L57.7809 27.32L58.1309 24.25L64.0209 24.38L64.5709 27.96L68.1709 28.85L71.4309 33L71.3609 37.34L73.8509 38.02V68.18H56.3509L53.4409 71.27L48.0509 74.25L42.7709 74.49L35.7909 71.21L33.0909 67.75L15.4609 67.84V37.34L19.5109 37.62Z" fill="white"/>
<path d="M21.7109 48.0293H20.7109V49.3793H21.7109V48.0293Z" fill="#235AB0"/>
<path d="M21.7109 43.8008H20.7109V45.1508H21.7109V43.8008Z" fill="#235AB0"/>
<path d="M26.6992 48.0293H25.6992V49.3793H26.6992V48.0293Z" fill="#235AB0"/>
<path d="M26.6992 43.8008H25.6992V45.1508H26.6992V43.8008Z" fill="#235AB0"/>
<path d="M21.7109 60.5195H20.7109V61.8695H21.7109V60.5195Z" fill="#235AB0"/>
<path d="M21.7109 56.3008H20.7109V57.6508H21.7109V56.3008Z" fill="#235AB0"/>
<path d="M21.7109 52.25H20.7109V53.6H21.7109V52.25Z" fill="#235AB0"/>
<path d="M44.9598 74.3591C52.0677 74.3591 57.8298 68.597 57.8298 61.4891C57.8298 54.3812 52.0677 48.6191 44.9598 48.6191C37.8519 48.6191 32.0898 54.3812 32.0898 61.4891C32.0898 68.597 37.8519 74.3591 44.9598 74.3591Z" fill="#235AB0"/>
<path d="M26.6992 60.5195H25.6992V61.8695H26.6992V60.5195Z" fill="#235AB0"/>
<path d="M26.6992 56.3008H25.6992V57.6508H26.6992V56.3008Z" fill="#235AB0"/>
<path d="M26.6992 52.25H25.6992V53.6H26.6992V52.25Z" fill="#235AB0"/>
<path d="M36.8697 38.0205C36.8006 38.0205 36.7321 38.0067 36.6683 37.98C36.6046 37.9532 36.5468 37.9141 36.4984 37.8647C36.45 37.8154 36.4119 37.7569 36.3864 37.6926C36.3608 37.6284 36.3483 37.5596 36.3497 37.4905V29.3704H20.2397V37.4905C20.2397 37.631 20.1838 37.7658 20.0844 37.8652C19.985 37.9646 19.8503 38.0205 19.7097 38.0205C19.5691 38.0205 19.4343 37.9646 19.3349 37.8652C19.2355 37.7658 19.1797 37.631 19.1797 37.4905V28.8406C19.1797 28.7 19.2355 28.565 19.3349 28.4656C19.4343 28.3662 19.5691 28.3105 19.7097 28.3105H36.8697C37.0103 28.3105 37.1451 28.3662 37.2444 28.4656C37.3438 28.565 37.3997 28.7 37.3997 28.8406V37.4905C37.3997 37.631 37.3438 37.7658 37.2444 37.8652C37.1451 37.9646 37.0103 38.0205 36.8697 38.0205Z" fill="#333333"/>
<path d="M32.8919 29.3708C32.7513 29.3708 32.6165 29.3152 32.5171 29.2158C32.4177 29.1164 32.3619 28.9816 32.3619 28.8411C32.3101 27.7978 31.8593 26.8143 31.1026 26.0942C30.3459 25.3742 29.3414 24.9727 28.2969 24.9727C27.2524 24.9727 26.2478 25.3742 25.4911 26.0942C24.7345 26.8143 24.2836 27.7978 24.2319 28.8411C24.2319 28.9816 24.1761 29.1164 24.0767 29.2158C23.9773 29.3152 23.8425 29.3708 23.7019 29.3708C23.5613 29.3708 23.4265 29.3152 23.3271 29.2158C23.2277 29.1164 23.1719 28.9816 23.1719 28.8411C23.2302 27.521 23.7956 26.2743 24.7504 25.3608C25.7051 24.4474 26.9755 23.9375 28.2969 23.9375C29.6182 23.9375 30.8886 24.4474 31.8434 25.3608C32.7981 26.2743 33.3636 27.521 33.4219 28.8411C33.4219 28.9107 33.4082 28.9794 33.3815 29.0437C33.3549 29.108 33.3159 29.1666 33.2667 29.2158C33.2174 29.265 33.159 29.3039 33.0947 29.3306C33.0304 29.3572 32.9615 29.3708 32.8919 29.3708Z" fill="#333333"/>
<path d="M28.2917 24.78C28.2221 24.78 28.1532 24.7664 28.0889 24.7397C28.0246 24.7131 27.9661 24.674 27.9169 24.6248C27.8677 24.5755 27.8287 24.5172 27.8021 24.4529C27.7754 24.3886 27.7617 24.3196 27.7617 24.25V14.53C27.7617 14.3895 27.8175 14.2547 27.9169 14.1553C28.0163 14.0559 28.1511 14 28.2917 14C28.4323 14 28.567 14.0559 28.6664 14.1553C28.7658 14.2547 28.8217 14.3895 28.8217 14.53V24.22C28.8258 24.2921 28.8151 24.3643 28.7903 24.4321C28.7655 24.4999 28.7271 24.5618 28.6775 24.6143C28.6279 24.6667 28.568 24.7086 28.5017 24.7371C28.4354 24.7656 28.3639 24.7801 28.2917 24.78Z" fill="#333333"/>
<path d="M33.2301 68.501H15.5201C15.4509 68.501 15.3825 68.4872 15.3188 68.4604C15.255 68.4337 15.1972 68.3946 15.1488 68.3452C15.1004 68.2959 15.0623 68.2373 15.0367 68.1731C15.0112 68.1088 14.9988 68.0401 15.0001 67.9709V37.491C14.9988 37.4218 15.0112 37.3531 15.0367 37.2888C15.0623 37.2246 15.1004 37.166 15.1488 37.1167C15.1972 37.0673 15.255 37.0282 15.3188 37.0015C15.3825 36.9747 15.4509 36.9609 15.5201 36.9609H41.1101C41.2506 36.9609 41.3854 37.0168 41.4848 37.1162C41.5842 37.2156 41.6401 37.3504 41.6401 37.491V48.7009C41.6415 48.7709 41.6287 48.8404 41.6025 48.9053C41.5764 48.9702 41.5374 49.0294 41.4879 49.0789C41.4384 49.1283 41.3794 49.1672 41.3145 49.1934C41.2496 49.2195 41.1801 49.2323 41.1101 49.231C40.9695 49.231 40.8347 49.1751 40.7353 49.0757C40.6359 48.9763 40.5801 48.8415 40.5801 48.7009V38.021H16.0501V67.4409H33.2301C33.3706 67.4409 33.5054 67.4968 33.6048 67.5962C33.7042 67.6956 33.7601 67.8304 33.7601 67.9709C33.7601 68.1115 33.7042 68.2463 33.6048 68.3457C33.5054 68.4451 33.3706 68.501 33.2301 68.501Z" fill="#333333"/>
<path d="M63.1602 47.8203H62.1602V49.1703H63.1602V47.8203Z" fill="#235AB0"/>
<path d="M63.1602 43.5898H62.1602V44.9398H63.1602V43.5898Z" fill="#235AB0"/>
<path d="M68.1602 47.8203H67.1602V49.1703H68.1602V47.8203Z" fill="#235AB0"/>
<path d="M68.1602 43.5898H67.1602V44.9398H68.1602V43.5898Z" fill="#235AB0"/>
<path d="M63.1602 60.3105H62.1602V61.6605H63.1602V60.3105Z" fill="#235AB0"/>
<path d="M63.1602 56.0801H62.1602V57.4301H63.1602V56.0801Z" fill="#235AB0"/>
<path d="M63.1602 52.0391H62.1602V53.3891H63.1602V52.0391Z" fill="#235AB0"/>
<path d="M68.1602 60.3105H67.1602V61.6605H68.1602V60.3105Z" fill="#235AB0"/>
<path d="M68.1602 56.0801H67.1602V57.4301H68.1602V56.0801Z" fill="#235AB0"/>
<path d="M68.1602 52.0391H67.1602V53.3891H68.1602V52.0391Z" fill="#235AB0"/>
<path d="M74.1594 68.501H56.4494C56.3088 68.501 56.174 68.4451 56.0746 68.3457C55.9752 68.2463 55.9194 68.1115 55.9194 67.9709C55.9194 67.8304 55.9752 67.6956 56.0746 67.5962C56.174 67.4968 56.3088 67.4409 56.4494 67.4409H73.6394V39.4409C73.6368 38.9962 73.4589 38.5704 73.1444 38.2559C72.8299 37.9414 72.4041 37.7636 71.9594 37.761H50.5994C50.1538 37.761 49.7265 37.9379 49.4114 38.2529C49.0964 38.568 48.9194 38.9954 48.9194 39.4409V48.9009C48.9194 49.0414 48.8636 49.1762 48.7642 49.2756C48.6648 49.375 48.53 49.4309 48.3894 49.4309C48.2488 49.4309 48.114 49.375 48.0146 49.2756C47.9152 49.1762 47.8594 49.0414 47.8594 48.9009V39.4409C47.862 38.716 48.1518 38.0217 48.6654 37.51C49.179 36.9983 49.8744 36.7109 50.5994 36.7109H71.9594C72.6834 36.7109 73.3778 36.9985 73.8898 37.5105C74.4017 38.0225 74.6894 38.7169 74.6894 39.4409V67.9309C74.6949 68.0038 74.6853 68.077 74.6611 68.146C74.637 68.215 74.5988 68.2783 74.549 68.3318C74.4992 68.3853 74.4389 68.4279 74.3719 68.457C74.3048 68.4861 74.2325 68.5012 74.1594 68.501Z" fill="#333333"/>
<path d="M71.3481 37.3398C71.2785 37.3398 71.2096 37.326 71.1453 37.2993C71.081 37.2727 71.0226 37.2338 70.9734 37.1846C70.9242 37.1354 70.8851 37.0768 70.8585 37.0125C70.8319 36.9481 70.8182 36.8794 70.8182 36.8098V34.8098C70.8155 33.1106 70.1393 31.4816 68.9378 30.28C67.7363 29.0785 66.1074 28.4023 64.4081 28.3997H57.7781C56.078 28.4023 54.4481 29.0783 53.245 30.2795C52.0419 31.4808 51.3634 33.1097 51.3581 34.8098V36.8098C51.3862 36.8897 51.3948 36.9752 51.383 37.0591C51.3713 37.143 51.3396 37.2229 51.2906 37.292C51.2417 37.3611 51.1768 37.4174 51.1016 37.4563C51.0263 37.4952 50.9429 37.5156 50.8581 37.5156C50.7734 37.5156 50.69 37.4952 50.6147 37.4563C50.5395 37.4174 50.4746 37.3611 50.4256 37.292C50.3767 37.2229 50.345 37.143 50.3332 37.0591C50.3215 36.9752 50.33 36.8897 50.3581 36.8098V34.8098C50.3608 32.8295 51.1487 30.9308 52.549 29.5305C53.9493 28.1302 55.8478 27.3425 57.8281 27.3398H64.4581C66.4385 27.3425 68.337 28.1302 69.7373 29.5305C71.1376 30.9308 71.9255 32.8295 71.9282 34.8098V36.8098C71.9285 36.8838 71.9133 36.9571 71.8836 37.0249C71.8539 37.0927 71.8103 37.1534 71.7557 37.2034C71.701 37.2533 71.6365 37.2912 71.5663 37.3147C71.4961 37.3382 71.4218 37.3468 71.3481 37.3398Z" fill="#333333"/>
<path d="M64.4111 28.3809C64.2705 28.3809 64.1357 28.3252 64.0363 28.2258C63.9369 28.1264 63.8811 27.9914 63.8811 27.8508V25.301C63.8811 25.1605 63.8252 25.0257 63.7258 24.9263C63.6264 24.8269 63.4916 24.771 63.3511 24.771H58.8311C58.6905 24.771 58.5557 24.8269 58.4563 24.9263C58.3569 25.0257 58.3011 25.1605 58.3011 25.301V27.8508C58.3115 27.9259 58.3056 28.0024 58.284 28.075C58.2624 28.1475 58.2255 28.2146 58.1757 28.2717C58.126 28.3288 58.0645 28.3746 57.9956 28.406C57.9267 28.4374 57.8518 28.4536 57.7761 28.4536C57.7003 28.4536 57.6255 28.4374 57.5566 28.406C57.4877 28.3746 57.4262 28.3288 57.3765 28.2717C57.3267 28.2146 57.2898 28.1475 57.2681 28.075C57.2465 28.0024 57.2407 27.9259 57.2511 27.8508V25.301C57.2511 24.8811 57.4172 24.4781 57.7133 24.1802C58.0093 23.8823 58.4111 23.7136 58.8311 23.7109H63.3511C63.5599 23.7109 63.7666 23.7521 63.9595 23.832C64.1524 23.9119 64.3278 24.0291 64.4754 24.1768C64.6231 24.3244 64.7402 24.4995 64.8201 24.6924C64.9 24.8853 64.9411 25.0922 64.9411 25.301V27.8508C64.9411 27.9204 64.9274 27.9894 64.9008 28.0537C64.8741 28.118 64.835 28.1766 64.7858 28.2258C64.7366 28.275 64.6782 28.3139 64.6139 28.3406C64.5496 28.3672 64.4807 28.3809 64.4111 28.3809Z" fill="#333333"/>
<path d="M61.1016 15.2395L63.2216 15.8195L66.6716 14.5195L68.5816 15.1695V19.9195H65.6616L62.1116 20.9395L61.1016 20.2595V15.2395Z" fill="#235AB0"/>
<path d="M61.1082 24.7705C60.9676 24.7705 60.8328 24.7146 60.7334 24.6152C60.634 24.5158 60.5781 24.381 60.5781 24.2405V14.0605L61.4482 14.7905C61.6634 14.9434 61.9067 15.052 62.1642 15.1104C62.4216 15.1687 62.6881 15.1755 62.9482 15.1304C63.5003 15.0327 64.0402 14.8751 64.5582 14.6604L64.7681 14.5806C65.4382 14.3005 66.1526 14.1412 66.8782 14.1104C67.5746 14.1367 68.2571 14.3142 68.8782 14.6304L69.1882 14.7805V20.9104L68.4282 20.5505C67.9359 20.2943 67.3927 20.1507 66.8381 20.1304C66.2354 20.1642 65.6432 20.3031 65.0881 20.5405L64.8882 20.6104C64.5317 20.753 64.1678 20.8767 63.7982 20.9805C63.0901 21.2189 62.3332 21.2738 61.5981 21.1404V24.2405C61.5985 24.3744 61.5482 24.5035 61.4573 24.6018C61.3664 24.7001 61.2417 24.7604 61.1082 24.7705ZM61.6382 20.0205C62.2563 20.2139 62.9211 20.1963 63.5281 19.9705C63.8981 19.8705 64.2281 19.7404 64.5281 19.6204L64.7382 19.5405C65.422 19.271 66.1444 19.1124 66.8782 19.0706C67.3135 19.0787 67.7451 19.1528 68.1581 19.2905V15.4604C67.7525 15.2767 67.3135 15.1779 66.8682 15.1704C66.2667 15.2055 65.6752 15.3409 65.1182 15.5706L64.9182 15.6504C64.3267 15.8958 63.7095 16.0736 63.0781 16.1804C62.5918 16.244 62.0975 16.2032 61.6282 16.0605L61.6382 20.0205Z" fill="#333333"/>
<path d="M34.0712 31.6504H22.5312V34.3404H34.0712V31.6504Z" fill="#235AB0"/>
<path d="M66.8681 31.3691H55.3281V34.0591H66.8681V31.3691Z" fill="#235AB0"/>
<path d="M52.7118 63.7496C52.635 63.7507 52.559 63.7342 52.4897 63.7012C52.4203 63.6683 52.3595 63.6199 52.3119 63.5596L50.8418 61.8396C50.7896 61.7883 50.7487 61.7265 50.7215 61.6585C50.6943 61.5905 50.6815 61.5176 50.6839 61.4444C50.6863 61.3712 50.7038 61.2993 50.7354 61.2332C50.767 61.1671 50.8119 61.1082 50.8674 61.0604C50.9229 61.0125 50.9876 60.9767 51.0577 60.9551C51.1277 60.9336 51.2014 60.9267 51.2741 60.9351C51.3469 60.9435 51.4172 60.9671 51.4804 61.004C51.5437 61.0408 51.5987 61.0903 51.6419 61.1495L52.7718 62.4695L54.1018 61.3494C54.2079 61.2592 54.3455 61.2151 54.4843 61.2264C54.6231 61.2376 54.7517 61.3034 54.8418 61.4095C54.932 61.5156 54.9764 61.6533 54.9651 61.792C54.9539 61.9308 54.8879 62.0593 54.7818 62.1495L53.0519 63.6194C52.9589 63.7039 52.8375 63.7505 52.7118 63.7496Z" fill="white"/>
<path d="M35.2485 64.1009C35.1248 64.1011 35.0047 64.0588 34.9085 63.981C34.8014 63.8898 34.7342 63.7603 34.7211 63.6202C34.708 63.4801 34.7501 63.3405 34.8385 63.231L36.2785 61.481C36.3226 61.4268 36.3772 61.3821 36.4391 61.3495C36.501 61.3168 36.5688 61.2969 36.6385 61.2911C36.7744 61.2794 36.9098 61.3184 37.0185 61.401L38.7785 62.8412C38.8855 62.9324 38.9528 63.0617 38.9658 63.2018C38.9789 63.3418 38.9368 63.4817 38.8485 63.5912C38.8049 63.645 38.7511 63.6895 38.6901 63.7223C38.6291 63.755 38.5621 63.7751 38.4932 63.7816C38.4243 63.7881 38.3547 63.7808 38.2887 63.7601C38.2226 63.7394 38.1613 63.7057 38.1085 63.661L36.7585 62.5611L35.6585 63.901C35.6089 63.9622 35.5464 64.0119 35.4756 64.0465C35.4048 64.081 35.3273 64.0995 35.2485 64.1009Z" fill="white"/>
<path d="M52.7117 60.5601C52.5886 60.56 52.4694 60.517 52.3745 60.4385C52.2796 60.3601 52.215 60.2509 52.1918 60.1299C51.8958 58.4939 51.0728 56.9996 49.8484 55.8748C48.624 54.75 47.0653 54.0566 45.41 53.9002C43.7548 53.7439 42.0938 54.1332 40.6804 55.0088C39.2671 55.8845 38.1788 57.1983 37.5817 58.7501C37.5313 58.8827 37.4304 58.9898 37.301 59.0479C37.1716 59.106 37.0244 59.1105 36.8918 59.0601C36.7592 59.0097 36.652 58.9085 36.5939 58.7791C36.5357 58.6497 36.5313 58.5025 36.5817 58.3699C37.2623 56.6034 38.5019 55.1079 40.1113 54.1111C41.7208 53.1144 43.612 52.6711 45.4967 52.8489C47.3815 53.0268 49.1564 53.8161 50.551 55.0962C51.9457 56.3764 52.8836 58.0773 53.2218 59.94C53.245 60.0778 53.2129 60.2193 53.1323 60.3336C53.0518 60.4478 52.9294 60.5257 52.7918 60.5501L52.7117 60.5601Z" fill="white"/>
<path d="M44.6903 70.2198C43.0395 70.2179 41.4232 69.7469 40.0299 68.8617C38.6365 67.9764 37.5234 66.7134 36.8203 65.2198C36.7903 65.157 36.7732 65.0887 36.7701 65.0191C36.7669 64.9496 36.7778 64.8801 36.8021 64.8148C36.8263 64.7495 36.8634 64.6897 36.9112 64.639C36.959 64.5883 37.0165 64.5479 37.0802 64.5199C37.2064 64.4614 37.3505 64.4548 37.4814 64.5016C37.6124 64.5483 37.7197 64.6447 37.7802 64.7699C38.3399 65.9605 39.1983 66.986 40.2719 67.7464C41.3455 68.5069 42.5977 68.9763 43.9066 69.1092C45.2156 69.2421 46.5366 69.0339 47.7411 68.5047C48.9457 67.9756 49.9927 67.1438 50.7802 66.0899C50.8197 66.0293 50.8711 65.9774 50.9314 65.9374C50.9916 65.8973 51.0595 65.8701 51.1306 65.8573C51.2018 65.8445 51.2749 65.8462 51.3453 65.8627C51.4157 65.8791 51.482 65.9099 51.5401 65.953C51.5982 65.9961 51.6469 66.0506 51.6832 66.1131C51.7195 66.1757 51.7425 66.2452 51.7509 66.317C51.7594 66.3888 51.753 66.4616 51.7323 66.5309C51.7115 66.6002 51.6768 66.6645 51.6303 66.7198C50.824 67.8013 49.7773 68.6805 48.5728 69.2879C47.3684 69.8954 46.0392 70.2144 44.6903 70.2198Z" fill="white"/>
<path d="M44.8403 75.021C42.1647 75.019 39.5499 74.2237 37.3262 72.7358C35.1025 71.248 33.3699 69.1341 32.3474 66.6616C31.3249 64.1892 31.0583 61.4691 31.5815 58.8452C32.1047 56.2213 33.3941 53.8114 35.2867 51.9202C37.1793 50.029 39.5902 48.7415 42.2144 48.2202C44.8387 47.699 47.5587 47.9674 50.0304 48.9917C52.5021 50.0161 54.6145 51.7503 56.1008 53.9751C57.587 56.1999 58.3803 58.8154 58.3803 61.491C58.375 65.0795 56.9465 68.5194 54.4081 71.0559C51.8697 73.5924 48.4288 75.0184 44.8403 75.021ZM44.8403 49.021C42.3716 49.021 39.9583 49.7532 37.9058 51.125C35.8532 52.4968 34.2536 54.4463 33.3094 56.7273C32.3651 59.0083 32.1185 61.5183 32.6009 63.9395C33.0832 66.3606 34.2728 68.5842 36.0192 70.3291C37.7656 72.0741 39.9902 73.262 42.4117 73.7424C44.8333 74.2229 47.3429 73.9742 49.6231 73.0281C51.9034 72.082 53.8518 70.4809 55.222 68.4273C56.5921 66.3736 57.3223 63.9597 57.3203 61.491C57.315 58.1836 55.9981 55.0133 53.6585 52.6755C51.3189 50.3378 48.1477 49.0236 44.8403 49.021Z" fill="#333333"/>
</g>
<defs>
<clipPath id="clip0_1988_378983">
<rect width="59.7" height="61.02" fill="white" transform="translate(15 14)"/>
</clipPath>
</defs>
</svg>
