<svg width="100" height="100" viewBox="0 0 100 100" fill="none" xmlns="http://www.w3.org/2000/svg">
<circle cx="50" cy="50" r="50" fill="#F2F6FB"/>
<g clip-path="url(#clip0_1307_206084)">
<path d="M70.12 36.7397V35.6997H66.81V36.7397H61.2V33.6797H51.81V36.7397H46.22V35.6997H42.99V36.7397H39.73V60.0497H73.25V36.7397H70.12Z" fill="white"/>
<path d="M41.8301 64.8496L42.1301 66.8096L44.7601 69.1896L47.4101 69.0196L49.0501 64.8496H41.8301Z" fill="white"/>
<path d="M61.2 64.8496V66.7696L64 69.1896L66 68.9296L68.29 66.6396L68.4199 64.8496H61.2Z" fill="white"/>
<path d="M61.6999 36.7307H60.6399V34.3909C60.6399 34.3528 60.6324 34.315 60.6178 34.2798C60.6033 34.2446 60.5819 34.2127 60.555 34.1858C60.528 34.1589 60.4961 34.1374 60.4609 34.1228C60.4257 34.1082 60.388 34.1008 60.3499 34.1008H52.6899C52.613 34.1008 52.5392 34.1314 52.4848 34.1858C52.4305 34.2402 52.3999 34.314 52.3999 34.3909V36.7307H51.3999V34.3909C51.3999 34.0355 51.5411 33.6947 51.7924 33.4434C52.0437 33.1921 52.3845 33.0508 52.7399 33.0508H60.3999C60.7562 33.0508 61.0981 33.1916 61.351 33.4426C61.6039 33.6936 61.7473 34.0346 61.7499 34.3909L61.6999 36.7307Z" fill="#333333"/>
<path d="M66.82 39.2092C66.6795 39.2092 66.5447 39.1536 66.4453 39.0542C66.3459 38.9548 66.29 38.8198 66.29 38.6792V36.4692C66.29 36.1341 66.4225 35.8126 66.6585 35.5747C66.8945 35.3368 67.215 35.2019 67.55 35.1992H69.41C69.7469 35.1992 70.0699 35.3331 70.3081 35.5713C70.5462 35.8095 70.68 36.1324 70.68 36.4692V36.7292C70.68 36.8698 70.6242 37.0046 70.5248 37.104C70.4254 37.2034 70.2906 37.2593 70.15 37.2593C70.0095 37.2593 69.8747 37.2034 69.7753 37.104C69.6759 37.0046 69.62 36.8698 69.62 36.7292V36.4692C69.62 36.4417 69.6146 36.4144 69.6041 36.3889C69.5935 36.3634 69.578 36.3403 69.5585 36.3208C69.539 36.3013 69.5159 36.2859 69.4904 36.2754C69.4649 36.2648 69.4376 36.2593 69.41 36.2593H67.55C67.5225 36.2593 67.4952 36.2648 67.4697 36.2754C67.4442 36.2859 67.4211 36.3013 67.4016 36.3208C67.3821 36.3403 67.3666 36.3634 67.356 36.3889C67.3455 36.4144 67.34 36.4417 67.34 36.4692V38.6792C67.3414 38.7483 67.3289 38.8171 67.3034 38.8813C67.2778 38.9456 67.2397 39.0041 67.1913 39.0535C67.1429 39.1028 67.0851 39.1419 67.0214 39.1687C66.9576 39.1955 66.8892 39.2092 66.82 39.2092Z" fill="#333333"/>
<path d="M70.1501 38.3694C70.0805 38.3694 70.0116 38.3555 69.9473 38.3289C69.883 38.3022 69.8246 38.2633 69.7754 38.2141C69.7261 38.1649 69.6871 38.1065 69.6605 38.0422C69.6338 37.9779 69.6201 37.909 69.6201 37.8394V36.7292C69.6201 36.6596 69.6338 36.5909 69.6605 36.5266C69.6871 36.4623 69.7261 36.4037 69.7754 36.3545C69.8246 36.3053 69.883 36.2664 69.9473 36.2397C70.0116 36.2131 70.0805 36.1992 70.1501 36.1992C70.2197 36.1992 70.2886 36.2131 70.3529 36.2397C70.4172 36.2664 70.4757 36.3053 70.5249 36.3545C70.5741 36.4037 70.6131 36.4623 70.6398 36.5266C70.6664 36.5909 70.6801 36.6596 70.6801 36.7292V37.7993C70.6856 37.8722 70.676 37.9454 70.6519 38.0144C70.6277 38.0834 70.5895 38.1467 70.5398 38.2002C70.49 38.2537 70.4297 38.2963 70.3626 38.3254C70.2956 38.3545 70.2232 38.3696 70.1501 38.3694Z" fill="#333333"/>
<path d="M66.81 36.2109H46.22V37.2709H66.81V36.2109Z" fill="#333333"/>
<path d="M71.82 61.0994H41.23C40.5607 61.0967 39.9197 60.8289 39.4474 60.3547C38.9751 59.8806 38.71 59.2386 38.71 58.5693V38.7192C38.71 38.0509 38.9755 37.4101 39.4481 36.9375C39.9206 36.4649 40.5616 36.1992 41.23 36.1992H42.89V37.2593H41.23C40.8418 37.2593 40.4694 37.4128 40.194 37.6863C39.9186 37.9598 39.7626 38.3311 39.76 38.7192V58.5693C39.76 58.9592 39.9148 59.333 40.1905 59.6086C40.4662 59.8843 40.8401 60.0393 41.23 60.0393H71.82C72.2081 60.0367 72.5794 59.8806 72.853 59.6052C73.1265 59.3298 73.28 58.9575 73.28 58.5693V38.7192C73.2773 38.3328 73.1227 37.9632 72.8494 37.6899C72.5762 37.4167 72.2064 37.2619 71.82 37.2593H70.15V36.1992H71.82C72.4875 36.2019 73.1269 36.4684 73.599 36.9404C74.071 37.4125 74.3373 38.0517 74.34 38.7192V58.5693C74.3374 59.2378 74.0713 59.8782 73.5996 60.3518C73.1278 60.8254 72.4884 61.0941 71.82 61.0994Z" fill="#333333"/>
<path d="M46.2301 39.2092C46.0895 39.2092 45.9547 39.1536 45.8553 39.0542C45.7559 38.9548 45.7001 38.8198 45.7001 38.6792V36.4692C45.7001 36.4417 45.6947 36.4144 45.6841 36.3889C45.6736 36.3634 45.6581 36.3403 45.6386 36.3208C45.6191 36.3013 45.596 36.2859 45.5705 36.2754C45.545 36.2648 45.5177 36.2593 45.4901 36.2593H43.6301C43.6025 36.2593 43.5752 36.2648 43.5497 36.2754C43.5243 36.2859 43.5011 36.3013 43.4816 36.3208C43.4621 36.3403 43.4466 36.3634 43.4361 36.3889C43.4255 36.4144 43.4201 36.4417 43.4201 36.4692V36.7292C43.4201 36.8698 43.3643 37.0046 43.2649 37.104C43.1655 37.2034 43.0307 37.2593 42.8901 37.2593C42.7495 37.2593 42.6147 37.2034 42.5153 37.104C42.4159 37.0046 42.3601 36.8698 42.3601 36.7292V36.4692C42.3601 36.1324 42.4939 35.8095 42.7321 35.5713C42.9703 35.3331 43.2933 35.1992 43.6301 35.1992H45.4901C45.6564 35.1992 45.8211 35.2322 45.9746 35.2961C46.1281 35.3601 46.2675 35.4537 46.3846 35.5718C46.5018 35.6898 46.5944 35.8301 46.6571 35.9841C46.7198 36.1382 46.7514 36.3029 46.7501 36.4692V38.6792C46.7514 38.7483 46.739 38.8171 46.7134 38.8813C46.6879 38.9456 46.6498 39.0041 46.6014 39.0535C46.553 39.1028 46.4952 39.1419 46.4314 39.1687C46.3677 39.1955 46.2992 39.2092 46.2301 39.2092Z" fill="#333333"/>
<path d="M42.8901 38.3694C42.8205 38.3694 42.7516 38.3555 42.6873 38.3289C42.623 38.3022 42.5646 38.2633 42.5153 38.2141C42.4661 38.1649 42.4271 38.1065 42.4005 38.0422C42.3738 37.9779 42.3601 37.909 42.3601 37.8394V36.7292C42.3601 36.6596 42.3738 36.5909 42.4005 36.5266C42.4271 36.4623 42.4661 36.4037 42.5153 36.3545C42.5646 36.3053 42.623 36.2664 42.6873 36.2397C42.7516 36.2131 42.8205 36.1992 42.8901 36.1992C42.9597 36.1992 43.0286 36.2131 43.0929 36.2397C43.1572 36.2664 43.2157 36.3053 43.2649 36.3545C43.3141 36.4037 43.3531 36.4623 43.3798 36.5266C43.4064 36.5909 43.4201 36.6596 43.4201 36.7292V37.7993C43.4256 37.8722 43.416 37.9454 43.3919 38.0144C43.3677 38.0834 43.3295 38.1467 43.2798 38.2002C43.23 38.2537 43.1697 38.2963 43.1026 38.3254C43.0356 38.3545 42.9632 38.3696 42.8901 38.3694Z" fill="#333333"/>
<path d="M70.6701 56.03H69.6201V41.81H43.4201V56.03H42.3601V40.75H70.6701V56.03Z" fill="#333333"/>
<path d="M45.4399 69.5097C44.8967 69.5097 44.3588 69.4027 43.8571 69.1945C43.3554 68.9864 42.8997 68.6812 42.516 68.2966C42.1324 67.912 41.8284 67.4556 41.6214 66.9533C41.4144 66.4511 41.3086 65.913 41.3099 65.3698C41.3086 65.3007 41.321 65.2319 41.3466 65.1677C41.3721 65.1034 41.4102 65.0449 41.4586 64.9956C41.507 64.9462 41.5648 64.9071 41.6286 64.8803C41.6923 64.8536 41.7608 64.8398 41.8299 64.8398C41.9705 64.8398 42.1053 64.8957 42.2047 64.9951C42.3041 65.0945 42.3599 65.2293 42.3599 65.3698C42.3625 66.1859 42.6879 66.9676 43.2649 67.5446C43.842 68.1217 44.6239 68.447 45.4399 68.4497C46.2568 68.4497 47.0402 68.1252 47.6178 67.5476C48.1954 66.97 48.5199 66.1867 48.5199 65.3698C48.5141 65.2944 48.5245 65.2183 48.5504 65.1472C48.5763 65.076 48.6172 65.0115 48.6703 64.9575C48.7233 64.9035 48.7873 64.8614 48.858 64.8342C48.9287 64.807 49.0043 64.7953 49.0799 64.7998C49.2205 64.7998 49.3553 64.8556 49.4547 64.955C49.5541 65.0544 49.6099 65.1892 49.6099 65.3298C49.6152 65.8794 49.5111 66.4244 49.3035 66.9333C49.096 67.4422 48.7892 67.9048 48.401 68.2939C48.0129 68.683 47.5511 68.9909 47.0427 69.1997C46.5344 69.4084 45.9895 69.5137 45.4399 69.5097Z" fill="#333333"/>
<path d="M64.81 69.5098C64.2668 69.5098 63.729 69.4028 63.2272 69.1946C62.7255 68.9864 62.2698 68.6812 61.8861 68.2966C61.5025 67.9121 61.1985 67.4556 60.9915 66.9534C60.7846 66.4511 60.6787 65.9131 60.68 65.3699C60.6787 65.3007 60.6912 65.232 60.7167 65.1677C60.7422 65.1035 60.7803 65.045 60.8288 64.9956C60.8772 64.9463 60.9349 64.9071 60.9987 64.8804C61.0625 64.8536 61.1309 64.8398 61.2 64.8398C61.3406 64.8398 61.4754 64.8957 61.5748 64.9951C61.6742 65.0945 61.73 65.2293 61.73 65.3699C61.73 66.1867 62.0545 66.97 62.6321 67.5476C63.2098 68.1252 63.9932 68.4497 64.81 68.4497C65.6269 68.4497 66.4103 68.1252 66.9879 67.5476C67.5655 66.97 67.89 66.1867 67.89 65.3699C67.89 65.2293 67.9459 65.0945 68.0453 64.9951C68.1447 64.8957 68.2795 64.8398 68.42 64.8398C68.5606 64.8398 68.6954 64.8957 68.7948 64.9951C68.8942 65.0945 68.95 65.2293 68.95 65.3699C68.95 66.4679 68.5139 67.5207 67.7375 68.2971C66.9611 69.0735 65.908 69.5098 64.81 69.5098Z" fill="#333333"/>
<path d="M73.81 65.5492H37.36C36.5325 65.5492 35.7389 65.2205 35.1538 64.6353C34.5687 64.0502 34.24 63.2565 34.24 62.4291V32.4291C34.24 32.0737 34.0988 31.7328 33.8475 31.4815C33.5962 31.2302 33.2554 31.0892 32.9 31.0892H26.53C26.4604 31.0892 26.3915 31.0756 26.3272 31.0489C26.2629 31.0223 26.2045 30.9831 26.1552 30.9339C26.106 30.8847 26.067 30.8264 26.0403 30.7621C26.0137 30.6978 26 30.6288 26 30.5592C26 30.49 26.0138 30.4215 26.0405 30.3578C26.0673 30.294 26.1065 30.2363 26.1558 30.1878C26.2052 30.1394 26.2637 30.1013 26.3279 30.0758C26.3922 30.0502 26.4609 30.0378 26.53 30.0392H32.9C33.5348 30.0392 34.1437 30.2907 34.5935 30.7386C35.0433 31.1865 35.2974 31.7943 35.3 32.4291V62.4291C35.3 62.9754 35.517 63.4995 35.9034 63.8858C36.2897 64.2722 36.8137 64.4891 37.36 64.4891H73.81C73.9506 64.4891 74.0854 64.545 74.1848 64.6444C74.2842 64.7438 74.34 64.8786 74.34 65.0191C74.34 65.1597 74.2842 65.2945 74.1848 65.3939C74.0854 65.4933 73.9506 65.5492 73.81 65.5492Z" fill="#333333"/>
<path d="M44.9399 43.3105V49.0005C48.5842 47.4224 52.5188 46.6254 56.4899 46.6606C60.4747 46.6189 64.4236 47.416 68.0799 49.0005V43.3105H44.9399Z" fill="#235AB0"/>
</g>
<defs>
<clipPath id="clip0_1307_206084">
<rect width="48.33" height="39.52" fill="white" transform="translate(26 30)"/>
</clipPath>
</defs>
</svg>
