<svg width="100" height="100" viewBox="0 0 100 100" fill="none" xmlns="http://www.w3.org/2000/svg">
<circle cx="50" cy="50" r="50" fill="#F2F6FB"/>
<g clip-path="url(#clip0_1096_175287)">
<path d="M54.5801 58.1895L58.4901 64.4095L63.0101 61.2495L59.1701 55.4395L54.5801 58.1895Z" fill="white"/>
<path d="M46.6502 61.8395C57.232 61.8395 65.8102 53.2613 65.8102 42.6795C65.8102 32.0978 57.232 23.5195 46.6502 23.5195C36.0685 23.5195 27.4902 32.0978 27.4902 42.6795C27.4902 53.2613 36.0685 61.8395 46.6502 61.8395Z" fill="white"/>
<path d="M46.7009 62.3402C43.5295 62.3473 40.4034 61.5869 37.5895 60.1242C34.7756 58.6615 32.3572 56.5398 30.5409 53.9401C27.5589 49.659 26.3969 44.3698 27.3099 39.2331C28.2229 34.0963 31.1363 29.5315 35.4108 26.5402C39.6904 23.5588 44.978 22.3969 50.1131 23.31C55.2483 24.223 59.8114 27.1362 62.8009 31.4101C65.7812 35.6908 66.9432 40.9785 66.0322 46.1144C65.1213 51.2503 62.2116 55.8156 57.9408 58.8102C54.6454 61.1129 50.7211 62.3454 46.7009 62.3402ZM46.6409 24.0002C42.8266 23.9976 39.1042 25.1707 35.9809 27.36C31.9241 30.1981 29.1593 34.5299 28.2931 39.4045C27.4269 44.279 28.5302 49.2981 31.3609 53.36C34.2007 57.4145 38.5322 60.1778 43.406 61.0439C48.2798 61.9099 53.2981 60.8081 57.3609 57.9801C61.4176 55.142 64.1824 50.8103 65.0486 45.9357C65.9148 41.0611 64.8115 36.0421 61.9809 31.9801C60.2563 29.5122 57.9607 27.4978 55.2898 26.1083C52.6188 24.7189 49.6516 23.9956 46.6409 24.0002Z" fill="#333333"/>
<path d="M58.3609 65.1106L54.6309 59.7708L59.9709 56.0508L63.6909 61.3806L58.3609 65.1106ZM56.0209 60.0208L58.6009 63.7207L62.3009 61.1306L59.7209 57.4407L56.0209 60.0208Z" fill="#333333"/>
<path d="M56.1094 64.0099L64.2894 58.6699L72.3294 70.7899L64.4094 76.5199L56.1094 64.0099Z" fill="#235AB0"/>
<path d="M64.0496 77.2199H63.9096H63.7096L63.5096 76.9899L55.4196 64.7899C55.3708 64.7001 55.3404 64.6015 55.3301 64.4999C55.3198 64.3982 55.3298 64.2956 55.3596 64.1979C55.3894 64.1002 55.4383 64.0092 55.5036 63.9305C55.5688 63.8519 55.649 63.7872 55.7396 63.7399L63.5896 58.3597C63.7896 58.217 64.0353 58.153 64.2796 58.1798L64.4896 58.2299L64.6796 58.4498L72.7796 70.6498C72.8595 70.8276 72.8699 71.0289 72.8088 71.214C72.7477 71.3991 72.6196 71.5545 72.4496 71.6498L64.6096 77.0299C64.4463 77.1482 64.2511 77.2144 64.0496 77.2199ZM56.4196 64.4398L64.1696 76.1198L71.7696 70.8998L64.0296 59.2199L56.4196 64.4398Z" fill="#333333"/>
<path d="M54.7896 33.3691H38.4896C38.1361 33.3691 37.8496 33.6557 37.8496 34.0091V52.7391C37.8496 53.0926 38.1361 53.3791 38.4896 53.3791H54.7896C55.1431 53.3791 55.4296 53.0926 55.4296 52.7391V34.0091C55.4296 33.6557 55.1431 33.3691 54.7896 33.3691Z" fill="white"/>
<path d="M54.7996 53.8792H38.4996C38.1964 53.8792 37.9054 53.7594 37.69 53.5459C37.4746 53.3324 37.3522 53.0425 37.3496 52.7393V34.0093C37.3522 33.706 37.4746 33.4161 37.69 33.2026C37.9054 32.9891 38.1964 32.8691 38.4996 32.8691H54.7996C55.102 32.8691 55.3919 32.9893 55.6057 33.2031C55.8195 33.4169 55.9396 33.7069 55.9396 34.0093V52.7393C55.9396 53.0416 55.8195 53.3316 55.6057 53.5454C55.3919 53.7592 55.102 53.8792 54.7996 53.8792ZM38.4996 33.8792C38.4615 33.8791 38.4248 33.8937 38.3969 33.9197C38.3691 33.9457 38.3521 33.9813 38.3496 34.0193V52.7493C38.3521 52.7873 38.3691 52.8229 38.3969 52.8489C38.4248 52.8749 38.4615 52.8892 38.4996 52.8892H54.7996C54.8368 52.8892 54.8724 52.8744 54.8986 52.8481C54.9249 52.8219 54.9396 52.7864 54.9396 52.7493V34.0193C54.9396 33.9822 54.9249 33.9464 54.8986 33.9202C54.8724 33.8939 54.8368 33.8792 54.7996 33.8792H38.4996Z" fill="#333333"/>
<path d="M42.9805 37.0508H41.3105V38.7208H42.9805V37.0508Z" fill="#235AB0"/>
<path d="M47.4805 37.0508H45.8105V38.7208H47.4805V37.0508Z" fill="#235AB0"/>
<path d="M51.9805 37.0508H50.3105V38.7208H51.9805V37.0508Z" fill="#235AB0"/>
<path d="M42.9805 41.7305H41.3105V43.4005H42.9805V41.7305Z" fill="#235AB0"/>
<path d="M47.4805 41.7305H45.8105V43.4005H47.4805V41.7305Z" fill="#235AB0"/>
<path d="M51.9805 41.7305H50.3105V43.4005H51.9805V41.7305Z" fill="#235AB0"/>
</g>
<defs>
<clipPath id="clip0_1096_175287">
<rect width="45.88" height="54.17" fill="white" transform="translate(27 23)"/>
</clipPath>
</defs>
</svg>
