<svg width="100" height="100" viewBox="0 0 100 100" fill="none" xmlns="http://www.w3.org/2000/svg">
<circle cx="50" cy="50" r="50" fill="#F2F6FB"/>
<g clip-path="url(#clip0_1320_213437)">
<path d="M34.6551 29.6719L33.0605 31.129V54.4426H67.4393H68.0877V31.8317L66.3125 29.6719H34.6551Z" fill="white"/>
<path d="M29.2969 71.287L29.6583 67.8561L33.8254 63.6811L32.6029 60.0435L35.3031 56.1682H37.9181L40.8947 59.0618L40.4057 63.6811L39.9273 64.6835L43.6586 67.8561L48.0383 64.2288L46.5713 60.6946L47.5493 57.4703L51.0361 55.7549L54.4165 58.1834L54.7142 61.9036L53.4066 64.2908L57.6907 67.8561L61.8472 64.0531L60.1251 60.3019L62.0066 56.7366L65.015 55.7549L68.0872 57.9457L68.8633 61.511L67.0667 64.2081L71.6272 68.0111V71.4523L29.2969 71.287Z" fill="white"/>
<path d="M43.7553 71.9895C43.6813 71.9895 43.608 71.9754 43.5397 71.9479C43.4713 71.9203 43.4092 71.8799 43.3569 71.829C43.3046 71.7782 43.2631 71.7179 43.2348 71.6514C43.2064 71.585 43.1919 71.5137 43.1919 71.4418V68.2694L39.1417 64.6938C39.0883 64.6446 39.0458 64.5852 39.0167 64.5195C38.9877 64.4538 38.9727 64.3829 38.9727 64.3114C38.9727 64.2398 38.9877 64.169 39.0167 64.1032C39.0458 64.0375 39.0883 63.9781 39.1417 63.9289C39.2487 63.8285 39.3916 63.7725 39.5403 63.7725C39.6891 63.7725 39.832 63.8285 39.939 63.9289L44.1911 67.6596C44.2478 67.7114 44.293 67.7737 44.324 67.843C44.3551 67.9123 44.3714 67.9869 44.3719 68.0625V71.4831C44.3665 71.5561 44.3462 71.6273 44.3121 71.6925C44.2781 71.7577 44.2309 71.8156 44.1734 71.8628C44.116 71.91 44.0494 71.9455 43.9776 71.9673C43.9057 71.9891 43.8302 71.9966 43.7553 71.9895Z" fill="#333333"/>
<path d="M36.8779 65.9753C34.316 65.9753 32.2324 63.5983 32.2324 60.6841C32.2324 57.7699 34.3585 55.4033 36.8779 55.4033C39.3973 55.4033 41.5234 57.7699 41.5234 60.6841C41.5234 63.5983 39.4398 65.9753 36.8779 65.9753ZM36.8779 56.4988C34.9325 56.4988 33.3592 58.3796 33.3592 60.6324C33.3592 62.8852 34.9325 64.8281 36.8779 64.8281C38.8233 64.8281 40.4072 62.9472 40.4072 60.6324C40.4072 58.3176 38.8233 56.4988 36.8779 56.4988Z" fill="#333333"/>
<path d="M57.6374 71.9895C57.5634 71.9895 57.4902 71.9754 57.4218 71.9479C57.3535 71.9204 57.2914 71.8799 57.239 71.829C57.1867 71.7782 57.1452 71.7179 57.1169 71.6514C57.0886 71.585 57.074 71.5137 57.074 71.4418V68.2694L53.2258 64.9005C53.1734 64.8496 53.1319 64.7891 53.1035 64.7226C53.0751 64.6561 53.0605 64.5849 53.0605 64.513C53.0605 64.441 53.0751 64.3695 53.1035 64.3031C53.1319 64.2366 53.1734 64.1763 53.2258 64.1254C53.2765 64.0735 53.3375 64.0321 53.4051 64.0038C53.4727 63.9756 53.5455 63.9609 53.6191 63.9609C53.6927 63.9609 53.7656 63.9756 53.8332 64.0038C53.9008 64.0321 53.9618 64.0735 54.0125 64.1254L58.052 67.6596C58.1121 67.7092 58.1604 67.7709 58.1935 67.8405C58.2265 67.9101 58.2435 67.9859 58.2434 68.0625V71.4832C58.238 71.5551 58.218 71.6256 58.1846 71.69C58.1512 71.7545 58.105 71.8118 58.0487 71.8588C57.9924 71.9059 57.9271 71.9416 57.8565 71.964C57.7859 71.9865 57.7115 71.9951 57.6374 71.9895Z" fill="#333333"/>
<path d="M43.7556 68.5697C43.6777 68.5705 43.6005 68.5551 43.529 68.5248C43.4576 68.4945 43.3935 68.4499 43.3411 68.3938C43.2887 68.343 43.2471 68.2827 43.2187 68.2162C43.1904 68.1497 43.1758 68.0783 43.1758 68.0063C43.1758 67.9343 43.1904 67.8631 43.2187 67.7966C43.2471 67.7302 43.2887 67.6696 43.3411 67.6188L47.1999 64.1878C47.2522 64.1369 47.3144 64.0965 47.3828 64.069C47.4512 64.0414 47.5245 64.0273 47.5985 64.0273C47.6726 64.0273 47.7459 64.0414 47.8143 64.069C47.8827 64.0965 47.9448 64.1369 47.9972 64.1878C48.0496 64.2387 48.0911 64.2992 48.1195 64.3657C48.1478 64.4322 48.1624 64.5033 48.1624 64.5753C48.1624 64.6473 48.1478 64.7187 48.1195 64.7852C48.0911 64.8517 48.0496 64.912 47.9972 64.9629L44.1383 68.3938C44.0391 68.4985 43.9018 68.5617 43.7556 68.5697Z" fill="#333333"/>
<path d="M50.7178 65.9753C48.1558 65.9753 46.0723 63.5983 46.0723 60.6841C46.0723 57.7699 48.1984 55.4033 50.7178 55.4033C53.2372 55.4033 55.3632 57.7699 55.3632 60.6841C55.3632 63.5983 53.2797 65.9753 50.7178 65.9753ZM50.7178 56.4988C48.7724 56.4988 47.1885 58.3796 47.1885 60.6324C47.1885 62.8852 48.7724 64.8281 50.7178 64.8281C52.6631 64.8281 54.2471 62.9472 54.2471 60.6324C54.2471 58.3176 52.6631 56.4988 50.7178 56.4988Z" fill="#333333"/>
<path d="M71.4582 71.9899C71.3842 71.9899 71.3109 71.9758 71.2426 71.9483C71.1742 71.9207 71.1121 71.8803 71.0598 71.8294C71.0075 71.7786 70.966 71.7183 70.9376 71.6518C70.9093 71.5854 70.8948 71.5141 70.8948 71.4422V68.2698L67.121 64.973C67.0184 64.8707 66.9609 64.7337 66.9609 64.5908C66.9609 64.4479 67.0184 64.3106 67.121 64.2083C67.1733 64.1574 67.2354 64.117 67.3038 64.0895C67.3722 64.0619 67.4455 64.0479 67.5196 64.0479C67.5936 64.0479 67.667 64.0619 67.7354 64.0895C67.8038 64.117 67.8659 64.1574 67.9182 64.2083L71.8727 67.66C71.9334 67.7091 71.9821 67.7709 72.0152 67.8406C72.0483 67.9103 72.065 67.9861 72.0641 68.0629V71.4835C72.0587 71.5555 72.0388 71.6259 72.0053 71.6904C71.9719 71.7549 71.9258 71.8121 71.8694 71.8592C71.8131 71.9063 71.7478 71.942 71.6772 71.9644C71.6066 71.9868 71.5322 71.9955 71.4582 71.9899Z" fill="#333333"/>
<path d="M29.5529 71.9898C29.4794 71.9898 29.4066 71.9755 29.3389 71.9479C29.2711 71.9202 29.2097 71.8798 29.1582 71.8288C29.1067 71.7778 29.0662 71.7173 29.0391 71.6509C29.012 71.5845 28.9987 71.5135 29.0001 71.442V68.0217C29.0006 67.9461 29.0169 67.8712 29.0479 67.8019C29.079 67.7326 29.1242 67.6703 29.1808 67.6185L33.433 63.857C33.4853 63.8061 33.5475 63.7655 33.6159 63.7379C33.6843 63.7104 33.7576 63.6963 33.8316 63.6963C33.9057 63.6963 33.979 63.7104 34.0474 63.7379C34.1158 63.7655 34.1779 63.8061 34.2303 63.857C34.2827 63.9079 34.3242 63.9681 34.3526 64.0346C34.3809 64.1011 34.3955 64.1725 34.3955 64.2445C34.3955 64.3165 34.3809 64.3877 34.3526 64.4542C34.3242 64.5207 34.2827 64.5812 34.2303 64.6321L30.1376 68.2386V71.4113C30.1438 71.4879 30.133 71.5648 30.106 71.6371C30.079 71.7093 30.0363 71.7752 29.9809 71.8301C29.9254 71.8849 29.8586 71.9276 29.7847 71.9552C29.7109 71.9828 29.6318 71.9944 29.5529 71.9898Z" fill="#333333"/>
<path d="M71.4582 71.9897H29.5744C29.5009 71.9898 29.4281 71.9755 29.3603 71.9479C29.2926 71.9202 29.2312 71.8798 29.1797 71.8288C29.1282 71.7778 29.0877 71.7173 29.0606 71.6509C29.0334 71.5845 29.0202 71.5134 29.0216 71.442C29.0202 71.3706 29.0334 71.2998 29.0606 71.2334C29.0877 71.167 29.1282 71.1065 29.1797 71.0555C29.2312 71.0045 29.2926 70.9638 29.3603 70.9362C29.4281 70.9085 29.5009 70.8945 29.5744 70.8945H71.4582C71.6076 70.8945 71.7509 70.952 71.8566 71.0547C71.9622 71.1575 72.0216 71.2968 72.0216 71.442C72.0216 71.5139 72.007 71.5852 71.9787 71.6517C71.9504 71.7181 71.9089 71.7784 71.8566 71.8293C71.8042 71.8801 71.7421 71.9206 71.6738 71.9481C71.6054 71.9756 71.5322 71.9897 71.4582 71.9897Z" fill="#333333"/>
<path d="M68.0029 54.99H32.997C32.8476 54.99 32.7043 54.9323 32.5986 54.8295C32.493 54.7268 32.4336 54.5875 32.4336 54.4423C32.4336 54.297 32.493 54.1577 32.5986 54.055C32.7043 53.9523 32.8476 53.8945 32.997 53.8945H68.0029C68.1524 53.8945 68.2957 53.9523 68.4013 54.055C68.507 54.1577 68.5664 54.297 68.5664 54.4423C68.5664 54.5875 68.507 54.7268 68.4013 54.8295C68.2957 54.9323 68.1524 54.99 68.0029 54.99Z" fill="#333333"/>
<path d="M57.6376 68.5687C57.5596 68.5695 57.4824 68.5541 57.4109 68.5238C57.3395 68.4936 57.2754 68.4489 57.223 68.3929C57.1709 68.3429 57.1296 68.2834 57.1013 68.2178C57.0731 68.1522 57.0586 68.0818 57.0586 68.0107C57.0586 67.9395 57.0731 67.8689 57.1013 67.8033C57.1296 67.7376 57.1709 67.6782 57.223 67.6282L61.4751 63.815C61.5265 63.7644 61.5878 63.7241 61.6553 63.6967C61.7228 63.6692 61.7953 63.6553 61.8685 63.6553C61.9416 63.6553 62.0141 63.6692 62.0816 63.6967C62.1491 63.7241 62.2104 63.7644 62.2618 63.815C62.3142 63.8658 62.3557 63.9264 62.3841 63.9928C62.4124 64.0593 62.4271 64.1305 62.4271 64.2025C62.4271 64.2745 62.4124 64.3457 62.3841 64.4122C62.3557 64.4787 62.3142 64.5392 62.2618 64.59L58.0096 68.3929C57.9628 68.4449 57.9058 68.4874 57.8419 68.5175C57.778 68.5477 57.7085 68.5651 57.6376 68.5687Z" fill="#333333"/>
<path d="M64.5596 65.9753C61.9976 65.9753 59.9141 63.5983 59.9141 60.6841C59.9141 57.7699 62.0401 55.4033 64.5596 55.4033C67.079 55.4033 69.205 57.7699 69.205 60.6841C69.205 63.5983 67.1215 65.9753 64.5596 65.9753ZM64.5596 56.4988C62.6142 56.4988 61.0303 58.3796 61.0303 60.6324C61.0303 62.8852 62.6142 64.8281 64.5596 64.8281C66.5049 64.8281 68.0888 62.9472 68.0888 60.6324C68.0888 58.3176 66.5049 56.4988 64.5596 56.4988Z" fill="#333333"/>
<path d="M68.0032 54.9902C67.8537 54.9902 67.7104 54.9325 67.6048 54.8298C67.4991 54.7271 67.4398 54.5878 67.4398 54.4425V32.0797C67.437 31.5516 67.2199 31.0458 66.8357 30.6724C66.4516 30.299 65.9314 30.0878 65.3881 30.0851H35.6229C35.0806 30.0878 34.5615 30.2992 34.1791 30.6729C33.7966 31.0466 33.5819 31.5525 33.5819 32.0797V54.4425C33.5819 54.5878 33.5225 54.7271 33.4169 54.8298C33.3112 54.9325 33.1679 54.9902 33.0185 54.9902C32.8691 54.9902 32.7258 54.9325 32.6201 54.8298C32.5144 54.7271 32.4551 54.5878 32.4551 54.4425V32.0797C32.4551 31.2575 32.7911 30.4689 33.3891 29.8875C33.9872 29.3061 34.7984 28.9795 35.6442 28.9795H65.4093C66.2551 28.9795 67.0663 29.3061 67.6644 29.8875C68.2625 30.4689 68.5985 31.2575 68.5985 32.0797V54.4425C68.5986 54.5171 68.583 54.5909 68.5527 54.6595C68.5225 54.728 68.4781 54.7898 68.4223 54.8411C68.3666 54.8924 68.3007 54.9321 68.2286 54.9577C68.1565 54.9833 68.0798 54.9944 68.0032 54.9902Z" fill="#333333"/>
<rect x="37" y="33" width="27" height="18" fill="#235AB0"/>
</g>
<defs>
<clipPath id="clip0_1320_213437">
<rect width="43" height="43" fill="white" transform="translate(29 29)"/>
</clipPath>
</defs>
</svg>
