<svg width="100" height="100" viewBox="0 0 100 100" fill="none" xmlns="http://www.w3.org/2000/svg">
<circle cx="50" cy="50" r="50" fill="#F2F6FB"/>
<g clip-path="url(#clip0_1087_175277)">
<path d="M26.0995 34.6191L31.8595 36.1891L27.7495 52.1691L21.4395 50.5791L26.0995 34.6191Z" fill="#235AB0"/>
<path d="M67.0898 37.0608L72.9198 35.0508L78.1298 50.9108L77.5998 51.6208L72.1798 53.1308L67.0898 37.0608Z" fill="#235AB0"/>
<path d="M31.6692 37.5605L45.1392 41.1105L48.5392 40.1405L59.3592 42.4805L67.8292 40.0205L71.2492 50.9305L58.7992 56.1705L60.1692 58.0505L59.6892 59.7105L57.6392 60.2505L56.4692 62.3905L53.3092 62.5905L53.3892 63.8905L51.1692 65.0905L49.3392 64.6805L48.4392 65.9605L46.8492 66.0605L44.4092 64.2005L42.1992 66.2105L40.9092 66.0605L39.7892 64.5505L37.7992 64.2505L36.5492 62.1605L34.3292 61.8705L33.4092 60.1905L33.7092 59.2205L32.5092 59.1205L31.8492 57.2605L34.6792 53.9405L32.5092 51.7505L28.1992 50.2405L31.6692 37.5605Z" fill="white"/>
<path d="M57.8503 52.2604C52.8503 52.2604 49.4003 47.3104 49.3503 47.2604C48.9003 46.6404 48.1803 45.8703 47.4403 45.9503C46.7003 46.0303 46.0003 46.9504 45.8103 47.3204C45.6148 47.9509 45.2909 48.5339 44.8589 49.0331C44.4269 49.5322 43.8962 49.9364 43.3003 50.2203C42.8614 50.3734 42.3953 50.433 41.932 50.3951C41.4687 50.3572 41.0185 50.2227 40.6103 50.0003C40.2151 49.8023 39.9028 49.4707 39.7289 49.0643C39.555 48.6579 39.5307 48.203 39.6603 47.7804L40.5403 44.7804C40.7502 44.0546 41.1169 43.3838 41.6146 42.8153C42.1122 42.2468 42.7287 41.7944 43.4203 41.4903L46.7303 40.0304C48.0318 39.5404 49.4581 39.4911 50.7903 39.8902L59.3003 41.8902L67.5503 39.4703C67.6159 39.4489 67.6852 39.4412 67.7539 39.4474C67.8227 39.4535 67.8895 39.4735 67.9502 39.5062C68.011 39.5389 68.0645 39.5835 68.1075 39.6376C68.1505 39.6916 68.182 39.7538 68.2003 39.8204C68.2202 39.8874 68.2267 39.9575 68.2194 40.027C68.212 40.0964 68.191 40.1639 68.1576 40.2252C68.1241 40.2865 68.0788 40.3406 68.0244 40.3844C67.9699 40.4282 67.9074 40.4608 67.8403 40.4803L59.3303 42.9803L50.5603 40.9103C49.4507 40.555 48.2543 40.5797 47.1603 40.9803L43.8503 42.4403C43.2986 42.6795 42.8065 43.0375 42.409 43.4886C42.0114 43.9398 41.7182 44.473 41.5503 45.0504L40.6803 48.0504C40.615 48.2373 40.6196 48.4415 40.6931 48.6253C40.7666 48.8091 40.9042 48.9601 41.0803 49.0504C41.357 49.2084 41.6639 49.306 41.981 49.337C42.2981 49.368 42.6182 49.3317 42.9203 49.2303C43.3854 48.9911 43.7966 48.6594 44.1285 48.2552C44.4604 47.8511 44.7061 47.3832 44.8503 46.8805C44.9103 46.7705 45.8503 45.0205 47.3503 44.8805C48.3503 44.8005 49.3503 45.3902 50.2203 46.6402C50.4403 46.9702 55.5003 54.2703 62.3103 49.7003C62.3678 49.6613 62.4325 49.6343 62.5006 49.6207C62.5687 49.6071 62.6389 49.6072 62.7069 49.6212C62.775 49.6352 62.8395 49.6627 62.8968 49.702C62.9541 49.7414 63.0028 49.7919 63.0403 49.8504C63.0798 49.9073 63.1075 49.9714 63.1218 50.0392C63.1362 50.1069 63.1368 50.1767 63.1238 50.2447C63.1107 50.3127 63.0843 50.3775 63.0459 50.4352C63.0075 50.4928 62.958 50.5422 62.9003 50.5804C61.4248 51.6367 59.6645 52.2223 57.8503 52.2604Z" fill="#333333"/>
<path d="M58.7209 56.7606C58.6168 56.7612 58.515 56.7298 58.4292 56.6708C58.3433 56.6118 58.2777 56.528 58.2409 56.4306C58.2131 56.367 58.1983 56.2985 58.1973 56.2291C58.1964 56.1598 58.2093 56.0908 58.2354 56.0265C58.2615 55.9622 58.3002 55.904 58.3493 55.8549C58.3983 55.8058 58.4567 55.7668 58.5209 55.7406L71.1009 50.4506C71.2296 50.3972 71.3742 50.3967 71.5034 50.4491C71.6325 50.5015 71.7358 50.6026 71.7909 50.7306C71.8447 50.8608 71.8456 51.0068 71.7933 51.1376C71.741 51.2684 71.6397 51.3734 71.5109 51.4306L58.9309 56.7206C58.8644 56.7483 58.7929 56.762 58.7209 56.7606Z" fill="#333333"/>
<path d="M58.0397 60.9097C57.6968 60.9105 57.3574 60.841 57.0426 60.7051C56.7278 60.5692 56.4442 60.37 56.2097 60.1199L49.4797 52.9797C49.4304 52.9305 49.3913 52.8722 49.3647 52.8079C49.338 52.7435 49.3242 52.6744 49.3242 52.6047C49.3242 52.5351 49.338 52.4662 49.3647 52.4019C49.3913 52.3375 49.4304 52.279 49.4797 52.2297C49.5289 52.1805 49.5874 52.1414 49.6517 52.1147C49.7161 52.0881 49.785 52.0742 49.8547 52.0742C49.9244 52.0742 49.9933 52.0881 50.0577 52.1147C50.122 52.1414 50.1805 52.1805 50.2297 52.2297L56.9597 59.3699C57.1299 59.556 57.3462 59.6938 57.5868 59.7693C57.8274 59.8448 58.0837 59.8553 58.3297 59.7998C58.5757 59.7464 58.8039 59.6311 58.9929 59.4648C59.1818 59.2986 59.3253 59.087 59.4097 58.8499C59.4779 58.6555 59.4953 58.4469 59.4603 58.2439C59.4253 58.0409 59.339 57.85 59.2097 57.6897L56.1097 54.4897C56.0604 54.4405 56.0213 54.382 55.9946 54.3176C55.968 54.2533 55.9542 54.1844 55.9542 54.1147C55.9542 54.0451 55.968 53.9762 55.9946 53.9119C56.0213 53.8475 56.0604 53.789 56.1097 53.7397C56.2104 53.6426 56.3448 53.5884 56.4847 53.5884C56.6246 53.5884 56.759 53.6426 56.8597 53.7397L59.9897 56.9797C60.2423 57.2818 60.412 57.6443 60.4822 58.0317C60.5523 58.4192 60.5204 58.8183 60.3897 59.1897C60.2511 59.5996 60.0073 59.9661 59.6826 60.2522C59.358 60.5383 58.9638 60.734 58.5397 60.8198C58.3766 60.867 58.209 60.897 58.0397 60.9097Z" fill="#333333"/>
<path d="M54.6809 63.3403C54.2111 63.3401 53.7463 63.2443 53.3148 63.0586C52.8833 62.8729 52.4941 62.6012 52.1709 62.2603L46.5109 56.3403C46.4616 56.2911 46.4226 56.2326 46.3959 56.1682C46.3692 56.1039 46.3555 56.035 46.3555 55.9653C46.3555 55.8957 46.3692 55.8266 46.3959 55.7622C46.4226 55.6979 46.4616 55.6396 46.5109 55.5903C46.5593 55.5414 46.6169 55.5024 46.6804 55.4758C46.7439 55.4493 46.8121 55.4355 46.8809 55.4355C46.9498 55.4355 47.0179 55.4493 47.0814 55.4758C47.1449 55.5024 47.2025 55.5414 47.2509 55.5903L52.9209 61.5103C53.2111 61.8155 53.5759 62.0396 53.9793 62.1606C54.3827 62.2817 54.8106 62.2953 55.2209 62.2002C55.6205 62.1096 55.9894 61.9163 56.2911 61.6392C56.5928 61.362 56.8168 61.0108 56.9409 60.6204C56.9829 60.4807 57.0768 60.3623 57.2032 60.2898C57.3297 60.2173 57.4792 60.1959 57.6209 60.2302C57.6854 60.2453 57.7461 60.2733 57.7994 60.3125C57.8528 60.3517 57.8976 60.4012 57.9313 60.4583C57.9649 60.5153 57.9867 60.5786 57.9952 60.6443C58.0037 60.7099 57.9989 60.7766 57.9809 60.8403V60.9502C57.7986 61.5132 57.4733 62.0193 57.0369 62.4189C56.6004 62.8186 56.0678 63.0981 55.4909 63.2302C55.2258 63.2967 54.9541 63.3337 54.6809 63.3403Z" fill="#333333"/>
<path d="M51.0403 65.5103H50.8503C50.3948 65.4782 49.9502 65.3565 49.5417 65.1523C49.1333 64.9481 48.7692 64.6655 48.4703 64.3203L43.7803 59.1204C43.6832 59.0197 43.6289 58.8853 43.6289 58.7454C43.6289 58.6055 43.6832 58.471 43.7803 58.3704C43.881 58.2732 44.0154 58.2187 44.1553 58.2188C44.2952 58.2187 44.4297 58.2732 44.5303 58.3704L49.2103 63.5703C49.6302 64.0557 50.2214 64.3601 50.8604 64.4202C51.3802 64.4215 51.8895 64.2733 52.3275 63.9932C52.7654 63.713 53.1136 63.3129 53.3304 62.8403C53.3654 62.7808 53.4119 62.7286 53.4672 62.6873C53.5225 62.6459 53.5856 62.6159 53.6526 62.5991C53.7196 62.5824 53.7893 62.5791 53.8576 62.5896C53.9259 62.6001 53.9914 62.6241 54.0504 62.6602C54.1693 62.7346 54.2547 62.8525 54.2883 62.9888C54.3219 63.125 54.3011 63.2689 54.2303 63.3901C53.9391 63.9982 53.4889 64.5165 52.9273 64.8896C52.3658 65.2628 51.7138 65.4772 51.0403 65.5103Z" fill="#333333"/>
<path d="M47.4493 66.6396C46.813 66.6417 46.2005 66.3981 45.7393 65.9597L32.1193 52.2597L28.1193 50.9397C27.987 50.8941 27.8781 50.7983 27.8163 50.6728C27.7544 50.5473 27.7448 50.4024 27.7893 50.2697C27.8348 50.1374 27.9308 50.0286 28.0563 49.9668C28.1818 49.9049 28.3267 49.8951 28.4593 49.9397L32.6993 51.3398L32.7893 51.4296L46.4993 65.2497C46.6865 65.4273 46.9188 65.55 47.171 65.6047C47.4231 65.6594 47.6854 65.6439 47.9293 65.5598C48.1544 65.4895 48.3561 65.3592 48.5129 65.1831C48.6697 65.0069 48.7756 64.7915 48.8193 64.5598C48.8437 64.4212 48.9185 64.2964 49.0292 64.2097C49.14 64.1229 49.2789 64.0803 49.4193 64.0898C49.486 64.0948 49.551 64.113 49.6104 64.1435C49.6699 64.1741 49.7226 64.2163 49.7655 64.2675C49.8084 64.3188 49.8406 64.3782 49.8601 64.4421C49.8797 64.506 49.8862 64.5731 49.8793 64.6396V64.6997C49.8159 65.1354 49.6314 65.5446 49.3467 65.8806C49.062 66.2165 48.6887 66.4657 48.2693 66.5998C48.0002 66.6594 47.723 66.6727 47.4493 66.6396Z" fill="#333333"/>
<path d="M33.3898 59.7097C32.8862 59.7051 32.3994 59.5287 32.0098 59.2097C31.7994 59.0381 31.6263 58.8256 31.5008 58.585C31.3753 58.3443 31.3001 58.0805 31.2798 57.8098C31.2581 57.5382 31.2922 57.265 31.3799 57.0071C31.4676 56.7491 31.6071 56.5119 31.7898 56.3098L34.2398 53.6396C34.3404 53.5425 34.4749 53.4883 34.6148 53.4883C34.7547 53.4883 34.8891 53.5425 34.9898 53.6396C35.0391 53.6889 35.0782 53.7474 35.1048 53.8118C35.1315 53.8761 35.1452 53.945 35.1452 54.0146C35.1452 54.0843 35.1315 54.1534 35.1048 54.2178C35.0782 54.2821 35.0391 54.3404 34.9898 54.3896L32.5398 57.0598C32.3743 57.2579 32.2919 57.5123 32.3098 57.7698C32.3181 57.8972 32.3525 58.0217 32.411 58.1353C32.4695 58.2488 32.5508 58.3489 32.6497 58.4297C32.8734 58.6142 33.1599 58.705 33.449 58.6826C33.738 58.6602 34.0072 58.5266 34.1998 58.3098C34.2938 58.2057 34.4246 58.1421 34.5646 58.1328C34.7046 58.1235 34.8428 58.169 34.9498 58.2598C34.9991 58.309 35.0381 58.3675 35.0648 58.4319C35.0915 58.4962 35.1052 58.5651 35.1052 58.6348C35.1052 58.7044 35.0915 58.7733 35.0648 58.8376C35.0381 58.902 34.9991 58.9605 34.9498 59.0098C34.7514 59.2269 34.5107 59.4011 34.2423 59.5215C33.974 59.6419 33.6838 59.7059 33.3898 59.7097Z" fill="#333333"/>
<path d="M35.4493 62.8401C34.8632 62.8478 34.2943 62.6415 33.8493 62.26C33.6138 62.057 33.421 61.8093 33.2819 61.5312C33.1429 61.2532 33.0604 60.9501 33.0393 60.6399C33.0169 60.3275 33.0566 60.014 33.1561 59.717C33.2557 59.4201 33.4131 59.1456 33.6193 58.9099L35.9493 56.3501C35.9977 56.3011 36.0553 56.2621 36.1188 56.2356C36.1823 56.2091 36.2504 56.1953 36.3193 56.1953C36.3881 56.1953 36.4563 56.2091 36.5198 56.2356C36.5833 56.2621 36.6409 56.3011 36.6893 56.3501C36.7864 56.4508 36.8407 56.5852 36.8407 56.7251C36.8407 56.865 36.7864 56.9994 36.6893 57.1001L34.3693 59.6499C34.2555 59.7787 34.1694 59.9296 34.1161 60.093C34.0628 60.2564 34.0434 60.429 34.0593 60.6001C34.069 60.7729 34.114 60.9417 34.1914 61.0964C34.2687 61.2512 34.3769 61.3886 34.5093 61.5C34.7668 61.7259 35.1026 61.8419 35.4447 61.8232C35.7868 61.8045 36.1079 61.6525 36.3393 61.3999L37.5993 60.02C37.6485 59.9707 37.707 59.9317 37.7713 59.905C37.8357 59.8784 37.9046 59.8645 37.9743 59.8645C38.0439 59.8645 38.1129 59.8784 38.1773 59.905C38.2416 59.9317 38.3001 59.9707 38.3493 60.02C38.3995 60.0677 38.4395 60.1251 38.4668 60.1887C38.4942 60.2523 38.5083 60.3207 38.5083 60.3899C38.5083 60.4591 38.4942 60.5277 38.4668 60.5913C38.4395 60.6549 38.3995 60.7124 38.3493 60.76L37.0893 62.1399C36.6558 62.5796 36.0667 62.8313 35.4493 62.8401Z" fill="#333333"/>
<path d="M38.5996 64.8096C38.0058 64.8092 37.4342 64.584 36.9996 64.1794C36.5432 63.7563 36.2725 63.1701 36.2462 62.5483C36.22 61.9265 36.4405 61.3197 36.8596 60.8596L38.8096 58.7395C38.8588 58.6902 38.9173 58.6512 38.9816 58.6245C39.046 58.5978 39.1149 58.584 39.1846 58.584C39.2542 58.584 39.3232 58.5978 39.3876 58.6245C39.4519 58.6512 39.5104 58.6902 39.5596 58.7395C39.6089 58.7887 39.648 58.8473 39.6747 58.9116C39.7014 58.976 39.7151 59.0448 39.7151 59.1145C39.7151 59.1842 39.7014 59.253 39.6747 59.3174C39.648 59.3817 39.6089 59.4403 39.5596 59.4895L37.6096 61.6096C37.3812 61.8646 37.2616 62.1987 37.2766 62.5408C37.2915 62.8828 37.4398 63.2054 37.6896 63.4395C37.9409 63.6729 38.2742 63.7976 38.617 63.7864C38.9597 63.7751 39.2842 63.629 39.5196 63.3796L40.3796 62.4695C40.428 62.4205 40.4856 62.3818 40.5491 62.3552C40.6126 62.3287 40.6808 62.3149 40.7496 62.3149C40.8184 62.3149 40.8866 62.3287 40.9501 62.3552C41.0136 62.3818 41.0712 62.4205 41.1196 62.4695C41.1689 62.5187 41.208 62.5773 41.2347 62.6416C41.2613 62.7059 41.2751 62.7748 41.2751 62.8445C41.2751 62.9141 41.2613 62.9833 41.2347 63.0476C41.208 63.112 41.1689 63.1703 41.1196 63.2195L40.2596 64.1196C39.819 64.5596 39.2223 64.8076 38.5996 64.8096Z" fill="#333333"/>
<path d="M41.6106 66.72C41.0287 66.7196 40.4696 66.4939 40.0506 66.0901C39.6185 65.6789 39.3673 65.1129 39.3523 64.5166C39.3373 63.9203 39.5597 63.3423 39.9706 62.9099L41.5606 61.22C41.6098 61.1707 41.6683 61.1317 41.7326 61.105C41.797 61.0783 41.8659 61.0645 41.9356 61.0645C42.0052 61.0645 42.0742 61.0783 42.1386 61.105C42.2029 61.1317 42.2614 61.1707 42.3106 61.22C42.3599 61.2692 42.399 61.3277 42.4257 61.3921C42.4523 61.4564 42.4661 61.5253 42.4661 61.595C42.4661 61.6646 42.4523 61.7338 42.4257 61.7981C42.399 61.8624 42.3599 61.9207 42.3106 61.97L40.7106 63.6499C40.4936 63.8829 40.3772 64.192 40.3865 64.5103C40.3959 64.8285 40.5303 65.1303 40.7606 65.3501C40.9866 65.5706 41.2898 65.6938 41.6056 65.6938C41.9214 65.6938 42.2246 65.5706 42.4506 65.3501L44.1306 63.72C44.1798 63.6707 44.2383 63.6317 44.3026 63.605C44.367 63.5783 44.4359 63.5645 44.5056 63.5645C44.5753 63.5645 44.6442 63.5783 44.7086 63.605C44.7729 63.6317 44.8314 63.6707 44.8806 63.72C44.9299 63.7692 44.969 63.8277 44.9956 63.8921C45.0223 63.9564 45.0361 64.0253 45.0361 64.095C45.0361 64.1646 45.0223 64.2338 44.9956 64.2981C44.969 64.3624 44.9299 64.4207 44.8806 64.47L43.2106 66.0901C42.7805 66.5018 42.2059 66.7279 41.6106 66.72Z" fill="#333333"/>
<path d="M45.1902 41.6792H45.0602L31.5702 38.2293C31.5017 38.2131 31.4372 38.1833 31.3806 38.1414C31.324 38.0995 31.2765 38.0464 31.241 37.9856C31.2055 37.9249 31.1827 37.8575 31.1739 37.7876C31.1652 37.7178 31.1707 37.647 31.1902 37.5794C31.2065 37.512 31.2362 37.4484 31.2774 37.3926C31.3186 37.3368 31.3705 37.2898 31.4302 37.2544C31.4898 37.219 31.5559 37.196 31.6246 37.1866C31.6933 37.1771 31.7633 37.1813 31.8302 37.1992L45.3202 40.6492C45.3884 40.6642 45.4527 40.6933 45.5092 40.7342C45.5658 40.775 45.6133 40.827 45.6489 40.887C45.6845 40.947 45.7075 41.0136 45.7163 41.0828C45.7251 41.152 45.7197 41.2223 45.7002 41.2893C45.6712 41.402 45.6051 41.5016 45.5126 41.5723C45.4202 41.643 45.3066 41.6807 45.1902 41.6792Z" fill="#333333"/>
<path d="M27.2507 52.8093C27.1475 52.8184 27.0438 52.8184 26.9407 52.8093L21.9407 51.4391C21.7877 51.3994 21.6442 51.3295 21.5188 51.2333C21.3934 51.1371 21.2886 51.0168 21.2106 50.8793C21.1298 50.7438 21.0775 50.5932 21.0568 50.4367C21.0362 50.2802 21.0477 50.121 21.0907 49.9692L25.1407 34.9692C25.225 34.6607 25.4279 34.398 25.7053 34.2387C25.9826 34.0794 26.3117 34.0366 26.6206 34.1193L31.6206 35.4792C31.9292 35.5635 32.1918 35.7665 32.3511 36.0439C32.5103 36.3212 32.5533 36.6502 32.4707 36.9592L28.4207 51.9592C28.3404 52.2062 28.184 52.4217 27.9738 52.5744C27.7636 52.7271 27.5104 52.8093 27.2507 52.8093ZM27.2507 51.7392C27.2684 51.7452 27.2872 51.7474 27.3058 51.7455C27.3245 51.7436 27.3425 51.7377 27.3586 51.7282C27.3748 51.7187 27.3887 51.706 27.3994 51.6906C27.4101 51.6752 27.4174 51.6575 27.4207 51.6391L31.4807 36.6391C31.4897 36.6006 31.4833 36.5602 31.4627 36.5265C31.4421 36.4928 31.409 36.4686 31.3706 36.4592L26.3207 35.0993C26.3023 35.0932 26.2829 35.0909 26.2636 35.0927C26.2443 35.0945 26.2257 35.1004 26.2088 35.1098C26.1918 35.1192 26.177 35.132 26.1653 35.1474C26.1536 35.1628 26.1452 35.1803 26.1407 35.1991L22.0907 50.1991C22.0853 50.236 22.0922 50.2736 22.1103 50.3061C22.1284 50.3386 22.1566 50.3644 22.1907 50.3793L27.2507 51.7392Z" fill="#333333"/>
<path d="M72.4797 53.5495C72.2261 53.5507 71.9786 53.4708 71.7736 53.3215C71.5685 53.1721 71.4165 52.9612 71.3397 52.7194L66.4297 37.9294C66.3787 37.7809 66.3585 37.6237 66.3706 37.4672C66.3826 37.3107 66.4266 37.1583 66.4997 37.0195C66.5691 36.8757 66.6669 36.7476 66.7872 36.6427C66.9075 36.5379 67.0479 36.4584 67.1997 36.4094L72.1997 34.7695C72.5034 34.6679 72.835 34.691 73.1218 34.8334C73.4086 34.9759 73.6272 35.2261 73.7297 35.5295L78.6297 50.3195C78.7278 50.6232 78.7019 50.9533 78.5576 51.238C78.4134 51.5226 78.1626 51.7389 77.8597 51.8395L72.8597 53.4794C72.7384 53.5258 72.6096 53.5496 72.4797 53.5495ZM72.5397 35.7594L67.5397 37.4094C67.4897 37.4094 67.4697 37.4594 67.4497 37.4794C67.4417 37.4966 67.4375 37.5153 67.4375 37.5344C67.4375 37.5534 67.4417 37.5723 67.4497 37.5895L72.3497 52.3796C72.354 52.3984 72.3623 52.4159 72.3742 52.4311C72.3861 52.4462 72.4012 52.4586 72.4184 52.4672C72.4356 52.4758 72.4546 52.4805 72.4738 52.4809C72.4931 52.4813 72.5122 52.4773 72.5297 52.4694L77.5297 50.8195C77.5485 50.8153 77.5661 50.807 77.5813 50.7951C77.5965 50.7832 77.6088 50.7679 77.6174 50.7507C77.626 50.7334 77.6307 50.7147 77.6311 50.6955C77.6315 50.6762 77.6276 50.6569 77.6197 50.6393L72.7197 35.8495C72.7062 35.8149 72.6803 35.7863 72.6471 35.7697C72.6138 35.7531 72.5756 35.7495 72.5397 35.7594Z" fill="#333333"/>
</g>
<defs>
<clipPath id="clip0_1087_175277">
<rect width="57.65" height="32.72" fill="white" transform="translate(21 34)"/>
</clipPath>
</defs>
</svg>
