<svg width="100" height="100" viewBox="0 0 100 100" fill="none" xmlns="http://www.w3.org/2000/svg">
<circle cx="50" cy="50" r="50" fill="#F2F6FB"/>
<g clip-path="url(#clip0_1320_213436)">
<path d="M53.8199 43.6674H61.6253L63.6931 48.0541L65.7611 43.6674H71.9767C72.6107 43.6674 73.2188 43.4135 73.6671 42.9615C74.1154 42.5095 74.3673 41.8964 74.3673 41.2571V28.0733C74.3673 27.4341 74.1154 26.8209 73.6671 26.3689C73.2188 25.9169 72.6107 25.6631 71.9767 25.6631H46.9707C46.3367 25.6631 45.7286 25.9169 45.2803 26.3689C44.8319 26.8209 44.5801 27.4341 44.5801 28.0733V31.9899" fill="white"/>
<path d="M53.8199 43.6674H61.6253L63.6931 48.0541L65.7611 43.6674H71.9767C72.6107 43.6674 73.2188 43.4135 73.6671 42.9615C74.1154 42.5095 74.3673 41.8964 74.3673 41.2571V28.0733C74.3673 27.4341 74.1154 26.8209 73.6671 26.3689C73.2188 25.9169 72.6107 25.6631 71.9767 25.6631H46.9707C46.3367 25.6631 45.7286 25.9169 45.2803 26.3689C44.8319 26.8209 44.5801 27.4341 44.5801 28.0733V31.9899" stroke="#333333" stroke-width="1.06" stroke-miterlimit="10" stroke-linecap="round"/>
<path d="M37.5875 52.0791C34.3778 53.8061 31.2761 55.7299 28.2999 57.8396C27.5642 58.4439 26.9548 59.1895 26.5069 60.0329C25.8864 61.2124 25.57 62.5301 25.5866 63.8651V70.3729C31.4916 73.0074 37.8777 74.3683 44.3351 74.3683C50.7924 74.3683 57.1785 73.0074 63.0836 70.3729V63.8651C63.0986 62.5265 62.7822 61.2052 62.1632 60.0209C61.7119 59.1831 61.1029 58.4421 60.3702 57.8396C57.394 55.7299 54.2923 53.8061 51.0826 52.0791" fill="white"/>
<path d="M37.5875 52.0791C34.3778 53.8061 31.2761 55.7299 28.2999 57.8396C27.5642 58.4439 26.9548 59.1895 26.5069 60.0329C25.8864 61.2124 25.57 62.5301 25.5866 63.8651V70.3729C31.4916 73.0074 37.8777 74.3683 44.3351 74.3683C50.7924 74.3683 57.1785 73.0074 63.0836 70.3729V70.3729V63.8651C63.0986 62.5265 62.7822 61.2052 62.1632 60.0209C61.7119 59.1831 61.1029 58.4421 60.3702 57.8396C57.394 55.7299 54.2923 53.8061 51.0826 52.0791" stroke="#333333" stroke-width="1.06" stroke-miterlimit="10" stroke-linecap="round"/>
<path d="M44.3766 55.6218C49.5918 55.6218 53.8196 50.3288 53.8196 43.7997C53.8196 37.2705 49.5918 31.9775 44.3766 31.9775C39.1614 31.9775 34.9336 37.2705 34.9336 43.7997C34.9336 50.3288 39.1614 55.6218 44.3766 55.6218Z" fill="white" stroke="#333333" stroke-width="1.06" stroke-miterlimit="10" stroke-linecap="round"/>
<path d="M34.8012 56.3809C33.0693 57.3734 31.397 58.4679 29.7928 59.6587C29.299 60.071 28.8925 60.5792 28.5975 61.153C28.1633 61.9887 27.9454 62.9214 27.964 63.8645V68.8297C33.1909 70.9393 38.7694 72.0231 44.3996 72.0232C50.0257 72.0215 55.6 70.9378 60.8232 68.8297V63.8645C60.8418 62.9214 60.6239 61.9887 60.1897 61.153C59.8946 60.5792 59.4881 60.071 58.9944 59.6587C57.461 58.5234 55.8647 57.4775 54.2131 56.5256C51.6458 59.0989 48.198 60.5824 44.5789 60.6711C40.89 60.5785 37.3824 59.0394 34.8012 56.3809Z" fill="#235AB0"/>
</g>
<defs>
<clipPath id="clip0_1320_213436">
<rect width="50" height="50" fill="white" transform="translate(25 25)"/>
</clipPath>
</defs>
</svg>
