<svg width="100" height="100" viewBox="0 0 100 100" fill="none" xmlns="http://www.w3.org/2000/svg">
<circle cx="50" cy="50" r="50" fill="#F2F6FB"/>
<g clip-path="url(#clip0_1075_171953)">
<path d="M40.4338 39.8862L34.3555 49.5812L37.3655 52.1012L36.2921 54.0029L38.8938 56.7329L41.4838 58.7862L42.6855 60.4079H44.6688L45.7771 62.4729L47.7488 62.1112L49.0555 60.9212L51.7855 62.2512L54.6088 61.9245L56.2071 60.3379L57.7588 59.9995L58.7271 58.3079L60.2438 57.3629L61.0605 55.3095L63.1371 55.6595L64.0005 53.8979L63.4405 52.3462L66.8588 49.8612L61.5271 41.0879L59.4738 41.2045L55.7171 40.3645L51.4588 39.7695L48.2038 40.5162L45.4505 42.4645L43.2921 41.8929L40.4338 39.8862Z" fill="white"/>
<path d="M37.3411 36.8281L29.7578 49.7198L32.9428 51.7615L40.9695 38.1815L37.3411 36.8281Z" fill="#235AB0"/>
<path d="M60.0332 38.0867L63.7549 36.5117L71.1632 49.4034L67.8732 51.7601L60.0332 38.0867Z" fill="#235AB0"/>
<path d="M33.1182 52.4388C33.0047 52.4353 32.8934 52.4077 32.7916 52.3574L29.2916 50.3508C29.1537 50.2589 29.051 50.1232 28.9999 49.9657C28.9765 49.8837 28.9706 49.7974 28.9827 49.713C28.9947 49.6286 29.0244 49.5479 29.0699 49.4758L36.6066 36.4089C36.6919 36.2622 36.8319 36.1552 36.9959 36.1115C37.1599 36.0678 37.3345 36.0908 37.4816 36.1756L40.9816 38.1822C41.1244 38.2686 41.2288 38.4064 41.2733 38.5673C41.2972 38.6473 41.3034 38.7316 41.2913 38.8143C41.2792 38.8969 41.2492 38.9758 41.2033 39.0455L33.6666 52.1238C33.6093 52.2185 33.529 52.2972 33.4331 52.3523C33.3372 52.4074 33.2288 52.437 33.1182 52.4388ZM30.5049 49.5689L32.8382 50.9341L39.7449 38.9641L37.4116 37.5989L30.5049 49.5689Z" fill="#333333"/>
<path d="M67.8964 52.346H67.7331C67.5722 52.3015 67.4345 52.1971 67.3481 52.0543L59.7998 38.976C59.7581 38.9041 59.731 38.8246 59.7202 38.7422C59.7094 38.6597 59.715 38.5757 59.7367 38.4955C59.7584 38.4152 59.7957 38.3402 59.8466 38.2745C59.8975 38.2087 59.9608 38.1535 60.0331 38.1124L63.5331 36.1058C63.6863 36.0429 63.8582 36.0429 64.0114 36.1058C64.0922 36.1254 64.168 36.1615 64.2342 36.2117C64.3004 36.2619 64.3556 36.325 64.3964 36.3974L71.9448 49.4643C71.9864 49.5362 72.0135 49.6155 72.0243 49.6979C72.0351 49.7803 72.0295 49.8643 72.0079 49.9445C71.9862 50.0248 71.9488 50.0998 71.8979 50.1656C71.8471 50.2313 71.7837 50.2865 71.7114 50.3276L68.2114 52.3343C68.1095 52.367 68.0005 52.371 67.8964 52.346ZM61.2231 38.8709L68.1298 50.8409L70.4631 49.4643L63.5448 37.506L61.2231 38.8709Z" fill="#333333"/>
<path d="M38.4375 56.6503C37.8978 56.6519 37.3741 56.4665 36.9558 56.1253C36.711 55.9325 36.5074 55.6924 36.3568 55.4195C36.2062 55.1467 36.1118 54.8465 36.0792 54.5366C36.0466 54.2266 36.0764 53.9134 36.1668 53.6151C36.2573 53.3169 36.4066 53.0398 36.6058 52.8002L37.1775 52.0887C37.3703 51.8439 37.6103 51.64 37.8831 51.4894C38.156 51.3389 38.4562 51.2446 38.7661 51.212C39.0761 51.1794 39.3894 51.2093 39.6876 51.2997C39.9858 51.3902 40.2629 51.5394 40.5025 51.7387C40.7473 51.9315 40.951 52.1713 41.1015 52.4442C41.2521 52.717 41.3465 53.0173 41.3791 53.3272C41.4117 53.6371 41.3819 53.9504 41.2915 54.2486C41.201 54.5468 41.0518 54.8239 40.8525 55.0635L40.2808 55.7753C40.0857 56.0188 39.8437 56.2206 39.5691 56.3689C39.2946 56.5172 38.9931 56.6089 38.6825 56.6386L38.4375 56.6503ZM37.7492 55.1452C37.976 55.3265 38.2655 55.4104 38.5542 55.3785C38.8397 55.3415 39.1015 55.2004 39.2892 54.982L39.8725 54.2702C40.0473 54.0401 40.1305 53.7533 40.1058 53.4653C40.0757 53.1776 39.9332 52.9133 39.7092 52.7302C39.5969 52.6382 39.4675 52.5696 39.3285 52.5279C39.1895 52.4863 39.0436 52.4726 38.8992 52.4878C38.7549 52.503 38.615 52.5466 38.4877 52.6162C38.3604 52.6859 38.2481 52.7803 38.1575 52.8937L37.5858 53.5935C37.4944 53.7048 37.4265 53.8336 37.3863 53.972C37.3462 54.1104 37.3347 54.2557 37.3525 54.3987C37.3867 54.6884 37.5282 54.9547 37.7492 55.1452Z" fill="#333333"/>
<path d="M41.0393 58.96C40.4981 58.9584 39.9743 58.7687 39.5576 58.4234C39.3155 58.2296 39.1144 57.9895 38.9661 57.717C38.8179 57.4446 38.7255 57.1452 38.6942 56.8366C38.6595 56.5273 38.6871 56.2143 38.7752 55.9158C38.8634 55.6172 39.0104 55.3392 39.2076 55.0983L41.7276 51.9951C41.9214 51.7529 42.1616 51.5517 42.434 51.4035C42.7064 51.2553 43.0057 51.163 43.3143 51.1318C43.6236 51.097 43.9368 51.1245 44.2353 51.2127C44.5338 51.3008 44.8117 51.4478 45.0526 51.645C45.2947 51.8388 45.4958 52.079 45.644 52.3514C45.7923 52.6238 45.8847 52.9232 45.9159 53.2318C45.9506 53.5412 45.9231 53.8541 45.8349 54.1527C45.7468 54.4512 45.5998 54.7293 45.4026 54.9701L42.8826 58.0734C42.6888 58.3155 42.4486 58.5164 42.1762 58.6647C41.9038 58.8129 41.6045 58.9055 41.2959 58.9367L41.0393 58.96ZM43.5593 52.3919C43.3968 52.3907 43.2361 52.4255 43.0888 52.4941C42.9415 52.5627 42.8113 52.6633 42.7076 52.7883L40.1992 55.9032C40.0203 56.1318 39.9329 56.419 39.9543 56.7085C39.9912 56.994 40.1325 57.2557 40.3509 57.4433C40.4622 57.5348 40.591 57.6029 40.7294 57.643C40.8678 57.6831 41.0129 57.6944 41.1559 57.6766C41.3009 57.6652 41.442 57.6241 41.5705 57.5558C41.6989 57.4876 41.8119 57.3939 41.9026 57.2801L44.4109 54.1766C44.5899 53.9481 44.6772 53.6611 44.6559 53.3717C44.6187 53.0802 44.4729 52.8137 44.2476 52.6251C44.0523 52.4697 43.8089 52.3872 43.5593 52.3919Z" fill="#333333"/>
<path d="M43.5956 61.3063C43.0529 61.3049 42.5265 61.1199 42.1023 60.7813C41.8575 60.5885 41.6538 60.3484 41.5033 60.0755C41.3527 59.8027 41.2583 59.5025 41.2257 59.1925C41.1931 58.8826 41.2229 58.5693 41.3133 58.2711C41.4038 57.9729 41.553 57.6958 41.7523 57.4562L43.8056 54.9129C43.9985 54.6681 44.2384 54.4645 44.5113 54.3139C44.7841 54.1634 45.0844 54.0689 45.3943 54.0362C45.7042 54.0036 46.0175 54.0335 46.3157 54.124C46.614 54.2144 46.8911 54.3636 47.1306 54.5629C47.3772 54.7558 47.5824 54.9963 47.734 55.2701C47.8856 55.544 47.9806 55.8458 48.0132 56.1571C48.0459 56.4684 48.0156 56.7831 47.9241 57.0825C47.8326 57.3819 47.6818 57.6598 47.4807 57.8997L45.4273 60.4313C45.2076 60.7057 44.9288 60.9269 44.6116 61.0784C44.2945 61.2299 43.9471 61.3078 43.5956 61.3063ZM42.9073 59.7895C43.1334 59.9717 43.4224 60.0568 43.7111 60.0262C43.9997 59.9956 44.2645 59.8518 44.4473 59.6263L46.5006 57.0945C46.6665 56.8622 46.7414 56.5773 46.7113 56.2935C46.6812 56.0097 46.5482 55.747 46.3373 55.5547C46.1113 55.3725 45.8222 55.2874 45.5336 55.318C45.2449 55.3486 44.9801 55.4924 44.7973 55.7179L42.744 58.2495C42.6523 58.3607 42.5837 58.4893 42.5423 58.6274C42.5008 58.7655 42.4873 58.9104 42.5025 59.0538C42.5177 59.1972 42.5613 59.3362 42.6309 59.4625C42.7004 59.5889 42.7943 59.7 42.9073 59.7895Z" fill="#333333"/>
<path d="M46.3479 63.4182C45.8081 63.4199 45.2845 63.2344 44.8662 62.8933C44.621 62.7023 44.4179 62.4627 44.2694 62.1898C44.1208 61.9168 44.0301 61.6161 44.0028 61.3065C43.9681 60.9972 43.9956 60.6839 44.0838 60.3854C44.172 60.0868 44.319 59.809 44.5162 59.5682L45.9278 57.8182C46.123 57.5747 46.365 57.3729 46.6395 57.2246C46.9141 57.0763 47.2156 56.9846 47.5262 56.9549C47.8336 56.9217 48.1446 56.9499 48.441 57.038C48.7375 57.1262 49.0134 57.2724 49.2528 57.4681C49.4976 57.661 49.7013 57.9008 49.8519 58.1736C50.0024 58.4465 50.0968 58.747 50.1294 59.0569C50.1621 59.3668 50.1323 59.6801 50.0418 59.9783C49.9514 60.2766 49.8021 60.5536 49.6028 60.7932L48.1912 62.5432C47.996 62.7867 47.754 62.9885 47.4795 63.1368C47.2049 63.2851 46.9034 63.3768 46.5928 63.4066L46.3479 63.4182ZM47.7712 58.2033H47.6545C47.5117 58.2169 47.3731 58.259 47.2468 58.3272C47.1206 58.3953 47.0093 58.4879 46.9195 58.5998L45.4962 60.3498C45.4047 60.4611 45.3368 60.5899 45.2967 60.7283C45.2566 60.8667 45.2451 61.0117 45.2628 61.1547C45.2743 61.2997 45.3154 61.441 45.3836 61.5694C45.4519 61.6978 45.5458 61.8109 45.6595 61.9015C45.8863 62.0828 46.1758 62.1667 46.4645 62.1348C46.75 62.0978 47.0118 61.9564 47.1995 61.738L48.6228 59.9766C48.7887 59.7444 48.8636 59.4592 48.8335 59.1754C48.8034 58.8916 48.6704 58.6288 48.4595 58.4365C48.2608 58.2875 48.0196 58.2058 47.7712 58.2033Z" fill="#333333"/>
<path d="M52.4733 62.9741C50.9553 62.9219 49.4748 62.4888 48.1682 61.7143C48.0954 61.6722 48.0317 61.616 47.981 61.5489C47.9302 61.4817 47.8935 61.4051 47.8728 61.3235C47.8521 61.242 47.848 61.1569 47.8607 61.0738C47.8734 60.9906 47.9026 60.911 47.9466 60.8393C47.9887 60.7681 48.0444 60.7056 48.1106 60.6559C48.1768 60.6062 48.2521 60.57 48.3323 60.5494C48.4125 60.5288 48.4959 60.5243 48.5779 60.536C48.6598 60.5477 48.7387 60.5753 48.8099 60.6175C48.9966 60.7225 53.3483 63.2424 55.0983 60.3141C55.1855 60.1694 55.3263 60.0651 55.4902 60.0236C55.654 59.9821 55.8276 60.0068 55.9733 60.0925C56.0445 60.1346 56.1068 60.1904 56.1565 60.2566C56.2062 60.3228 56.2424 60.398 56.263 60.4782C56.2836 60.5583 56.2881 60.642 56.2765 60.724C56.2648 60.8059 56.2371 60.8846 56.1949 60.9558C55.8202 61.6021 55.2746 62.1324 54.618 62.4885C53.9614 62.8446 53.2192 63.0126 52.4733 62.9741Z" fill="#333333"/>
<path d="M56.5328 61.3759C54.7711 61.3759 51.8661 59.6606 50.5478 58.8206C50.4768 58.7766 50.4154 58.7192 50.3669 58.6512C50.3185 58.5832 50.284 58.5061 50.2656 58.4247C50.2471 58.3433 50.245 58.2592 50.2594 58.1769C50.2738 58.0947 50.3044 58.0159 50.3494 57.9456C50.4405 57.8048 50.583 57.7053 50.7465 57.6682C50.91 57.6312 51.0816 57.6596 51.2244 57.7474C53.6511 59.2991 56.2294 60.3841 56.7544 60.0807C57.7461 59.4974 57.7461 59.2292 57.7461 58.4358C57.7461 58.2677 57.8121 58.1061 57.9299 57.9861C58.0477 57.8661 58.208 57.7972 58.3761 57.7941C58.5463 57.7941 58.7095 57.8618 58.8298 57.9821C58.9501 58.1024 59.0178 58.2657 59.0178 58.4358C59.0826 59.0085 58.958 59.5867 58.663 60.0819C58.368 60.577 57.9189 60.9617 57.3844 61.1773C57.1217 61.314 56.8288 61.3824 56.5328 61.3759Z" fill="#333333"/>
<path d="M37.5056 53.3268C37.4106 53.3263 37.3169 53.304 37.232 53.2616C37.147 53.2191 37.073 53.1576 37.0156 53.0818L34.1689 49.5234C34.0629 49.3916 34.0133 49.2234 34.0308 49.0552C34.0483 48.8869 34.1314 48.7323 34.2622 48.6251C34.3955 48.5204 34.5648 48.473 34.7331 48.4926C34.9014 48.5123 35.055 48.5976 35.1606 48.7302L38.0072 52.3003C38.0603 52.3647 38.0997 52.439 38.1232 52.519C38.1467 52.599 38.1537 52.6831 38.1439 52.766C38.1341 52.8488 38.1077 52.9289 38.0661 53.0012C38.0246 53.0736 37.9688 53.1367 37.9022 53.1869C37.79 53.2777 37.6499 53.3269 37.5056 53.3268Z" fill="#333333"/>
<path d="M58.867 58.9265C56.3354 58.9265 52.8004 55.9049 52.3571 55.5199C52.2314 55.4078 52.1548 55.2508 52.1439 55.0827C52.133 54.9146 52.1886 54.749 52.2987 54.6216C52.3534 54.558 52.4202 54.506 52.4952 54.4686C52.5702 54.4312 52.652 54.4091 52.7356 54.4037C52.8193 54.3982 52.9032 54.4096 52.9824 54.437C53.0617 54.4644 53.1346 54.5072 53.1971 54.5632C55.0054 56.1498 58.1204 58.1333 59.3571 57.5616C59.9404 57.3049 60.0687 56.3947 60.0687 55.6247C60.0687 55.4566 60.1347 55.2953 60.2525 55.1753C60.3703 55.0553 60.5306 54.9864 60.6987 54.9833C60.8669 54.9864 61.0271 55.0553 61.1449 55.1753C61.2627 55.2953 61.3287 55.4566 61.3287 55.6247C61.3287 57.2464 60.8504 58.2849 59.882 58.7166C59.5628 58.8589 59.2165 58.9304 58.867 58.9265Z" fill="#333333"/>
<path d="M62.0625 56.5231C59.6125 56.5231 55.4825 53.3966 54.0825 52.2766C54.0172 52.2254 53.9628 52.1618 53.9221 52.0895C53.8815 52.0171 53.8556 51.9374 53.8458 51.8551C53.8361 51.7727 53.8427 51.6891 53.8653 51.6092C53.8879 51.5294 53.926 51.455 53.9775 51.3899C54.0288 51.323 54.0931 51.267 54.1664 51.2253C54.2397 51.1836 54.3207 51.157 54.4045 51.1473C54.4883 51.1375 54.5732 51.1447 54.6541 51.1683C54.7351 51.192 54.8105 51.2315 54.8759 51.2848C57.8859 53.6882 61.7358 55.8816 62.4592 55.1582C62.6466 55.0005 62.7979 54.8043 62.9026 54.5829C63.0073 54.3614 63.063 54.1197 63.0659 53.8748C63.0659 53.1748 62.3192 52.44 61.0942 51.7283C57.4659 49.6283 51.7609 45.895 50.5942 45.055L49.2525 45.4048C48.1532 46.9175 46.517 47.9529 44.6792 48.2984C44.3794 48.349 44.0716 48.3195 43.7868 48.2129C43.5021 48.1064 43.2505 47.9266 43.0575 47.6917C42.8616 47.4595 42.7304 47.1798 42.6771 46.8808C42.6239 46.5817 42.6504 46.2736 42.7542 45.9881C43.5447 43.8903 44.8013 41.9994 46.4292 40.4581C46.5692 40.3298 49.2759 38.0432 56.2059 39.6649C56.8242 39.7932 57.3725 39.945 57.8509 40.0733C59.2742 40.4583 60.0559 40.6683 61.1409 40.0733C61.2128 40.0316 61.2922 40.0044 61.3747 39.9936C61.4571 39.9827 61.5409 39.9884 61.6211 40.0101C61.7014 40.0318 61.7765 40.0692 61.8423 40.12C61.908 40.1709 61.963 40.2344 62.0042 40.3066C62.0459 40.3785 62.0729 40.458 62.0837 40.5404C62.0946 40.6229 62.089 40.7066 62.0673 40.7868C62.0456 40.8671 62.0082 40.9424 61.9573 41.0081C61.9065 41.0739 61.8431 41.1288 61.7709 41.1699C60.2425 42.0566 59.0409 41.7298 57.5242 41.3214C57.0575 41.1931 56.5325 41.0533 55.9375 40.925C49.7192 39.4783 47.3159 41.3915 47.2925 41.4032C45.8146 42.8079 44.6704 44.5263 43.9442 46.4316C43.9154 46.5124 43.909 46.5995 43.9254 46.6837C43.9418 46.7678 43.9805 46.8458 44.0375 46.9098C44.0891 46.9721 44.1561 47.0202 44.2317 47.0488C44.3074 47.0775 44.3893 47.0859 44.4692 47.0733C46.0322 46.7604 47.4125 45.8525 48.3192 44.5415C48.3617 44.4717 48.4176 44.4112 48.4837 44.3632C48.5497 44.3151 48.6247 44.2804 48.7042 44.2615L50.5475 43.7716C50.6349 43.7517 50.7255 43.7498 50.8137 43.7659C50.9019 43.7819 50.986 43.8156 51.0608 43.865C51.1192 43.865 57.7459 48.3217 61.7709 50.6434C63.4159 51.6001 64.2908 52.6617 64.3725 53.805C64.3819 54.2464 64.2937 54.6842 64.1142 55.0876C63.9347 55.4909 63.6684 55.8498 63.3342 56.1383C62.9774 56.4289 62.5205 56.567 62.0625 56.5231Z" fill="#333333"/>
<path d="M63.2297 53.2081C63.1191 53.2063 63.0108 53.1763 62.9149 53.1212C62.819 53.0661 62.7387 52.9877 62.6814 52.8931C62.5967 52.746 62.5736 52.5714 62.6174 52.4074C62.6611 52.2435 62.768 52.1034 62.9147 52.0181C63.1131 51.8897 65.1781 50.303 66.4147 49.323C66.4805 49.2722 66.5556 49.2347 66.6359 49.2131C66.7162 49.1914 66.7999 49.186 66.8824 49.1968C66.9648 49.2077 67.0442 49.2346 67.1161 49.2763C67.1881 49.318 67.251 49.3737 67.3014 49.4398C67.3523 49.5056 67.3896 49.5806 67.4113 49.6608C67.4329 49.7411 67.4385 49.8248 67.4277 49.9072C67.4168 49.9896 67.3898 50.0691 67.3481 50.141C67.3064 50.213 67.2509 50.2761 67.1847 50.3265C65.6331 51.4931 63.7431 53.0097 63.5447 53.1147C63.4492 53.1716 63.3409 53.2038 63.2297 53.2081Z" fill="#333333"/>
<path d="M45.2757 42.823C42.5807 42.823 39.6407 40.6997 39.5124 40.6064C39.4431 40.5588 39.3843 40.4977 39.3395 40.4267C39.2947 40.3556 39.2648 40.2761 39.2517 40.1931C39.2386 40.1102 39.2425 40.0253 39.2633 39.9439C39.284 39.8625 39.3212 39.7863 39.3724 39.7197C39.4725 39.5851 39.6214 39.495 39.7872 39.4688C39.9529 39.4426 40.1223 39.4824 40.2591 39.5796C40.2591 39.5796 43.2924 41.7731 45.6257 41.5398C45.7924 41.5233 45.9589 41.5725 46.0897 41.6771C46.2205 41.7817 46.3052 41.9335 46.3257 42.0998C46.342 42.2683 46.2911 42.4364 46.184 42.5675C46.077 42.6986 45.9224 42.7819 45.754 42.7996L45.2757 42.823Z" fill="#333333"/>
</g>
<defs>
<clipPath id="clip0_1075_171953">
<rect width="43.0033" height="27.4167" fill="white" transform="translate(29 36)"/>
</clipPath>
</defs>
</svg>
