<svg width="90" height="90" viewBox="0 0 90 90" fill="none" xmlns="http://www.w3.org/2000/svg">
<circle cx="45" cy="45" r="45" fill="#FAFAFA"/>
<g clip-path="url(#clip0_1988_378967)">
<path d="M50.1898 32.3105H25.0398L20.5198 34.4905L18.3398 40.1005L19.0598 45.9405L21.5398 49.5205L25.2698 51.0005H28.7798L38.7798 68.5005L40.2598 68.7505L48.3898 63.8405L48.5898 62.7505L41.5798 50.8805H50.1898V32.3105Z" fill="white"/>
<path d="M65.9097 35.0801L69.3397 35.4301L71.2397 37.4901L71.3997 42.5101L71.1997 45.8601L69.2197 48.0401H65.6797L65.9097 35.0801Z" fill="white"/>
<path d="M50.0801 34.8396L50.4901 31.0096L65.4001 21.5996L65.8701 29.6396L65.6801 61.4896L64.5001 61.1896L50.1901 52.4196L50.0801 34.8396Z" fill="#235AB0"/>
<path d="M67.7594 34.6202H66.3994V21.8202C66.4085 21.6731 66.3757 21.5265 66.3049 21.3973C66.2342 21.2681 66.1282 21.1617 65.9994 21.0902C65.8692 21.022 65.7225 20.9915 65.5759 21.0021C65.4292 21.0127 65.2885 21.064 65.1694 21.1503L50.4994 30.4303C50.2891 30.5541 50.1119 30.7269 49.983 30.9342C49.8542 31.1414 49.7774 31.3768 49.7594 31.6202V31.6903H26.6494C24.3829 31.6551 22.1866 32.4765 20.4994 33.9903C19.6444 34.8764 18.9825 35.9301 18.5556 37.0851C18.1287 38.24 17.9461 39.4711 18.0194 40.7003C18.0194 40.9103 17.5594 45.7903 20.4194 48.9303C21.2421 49.786 22.2397 50.4541 23.3443 50.889C24.4488 51.3239 25.6342 51.5154 26.8194 51.4503H28.4894L38.2094 68.2901C38.3313 68.5024 38.4938 68.6885 38.6877 68.8377C38.8816 68.987 39.1031 69.0967 39.3394 69.1603C39.4982 69.2087 39.6635 69.2324 39.8294 69.2303C40.1556 69.2269 40.4755 69.1409 40.7594 68.9803L48.0394 64.7701C48.4667 64.5212 48.7787 64.1141 48.9078 63.6368C49.037 63.1595 48.9729 62.6507 48.7294 62.2203L42.5094 51.4503H49.7594V52.0602C49.768 52.3026 49.8353 52.5394 49.9555 52.7501C50.0756 52.9608 50.2451 53.1393 50.4494 53.2701L65.0994 62.0301C65.2405 62.1185 65.403 62.167 65.5694 62.1703C65.6996 62.1715 65.8276 62.1368 65.9394 62.0702C66.0656 61.994 66.1686 61.8849 66.2373 61.7545C66.3061 61.6241 66.3379 61.4773 66.3294 61.3302V48.6202H67.7594C68.8875 48.6176 69.9685 48.1676 70.7652 47.369C71.562 46.5704 72.0094 45.4883 72.0094 44.3602V38.9103C72.0134 38.3491 71.9064 37.7927 71.6947 37.2731C71.4831 36.7534 71.1708 36.2808 70.7759 35.8822C70.381 35.4836 69.9112 35.1668 69.3935 34.9503C68.8759 34.7338 68.3205 34.6215 67.7594 34.6202ZM41.9694 50.4203H40.7494L41.3594 51.4803L47.8794 62.7801C47.9853 62.9648 48.0143 63.1839 47.96 63.3898C47.9057 63.5956 47.7726 63.7718 47.5894 63.8802L40.2994 68.0902C40.207 68.145 40.1043 68.1804 39.9977 68.1942C39.8911 68.208 39.7828 68.1998 39.6794 68.1703C39.5766 68.1427 39.4803 68.0949 39.3961 68.0296C39.312 67.9644 39.2417 67.8829 39.1894 67.7901L29.7794 51.4803L29.1694 50.4203H26.8894C25.8518 50.4832 24.8128 50.3221 23.843 49.9476C22.8733 49.5732 21.9955 48.9941 21.2694 48.2501C18.7294 45.4601 19.1294 40.8801 19.1394 40.7901C19.0675 39.6961 19.2213 38.5989 19.5911 37.5668C19.961 36.5346 20.539 35.5895 21.2894 34.7901C22.7813 33.474 24.7101 32.7609 26.6994 32.7901H49.7594V50.4303L41.9694 50.4203ZM65.3394 60.9303L51.0594 52.3902C50.966 52.3161 50.9051 52.2085 50.8894 52.0902V31.6202C50.905 31.4963 50.9655 31.3824 51.0594 31.3002L65.3394 22.3002V60.9303ZM65.7294 22.0502L65.4494 21.6002L65.7294 22.0502ZM70.9594 44.3202C70.9594 45.1689 70.6223 45.9827 70.0222 46.5829C69.4221 47.183 68.6081 47.5201 67.7594 47.5201H66.3994V35.6202H67.7594C68.6073 35.6229 69.4197 35.9609 70.0193 36.5604C70.6188 37.16 70.9568 37.9723 70.9594 38.8202V44.3202Z" fill="#333333"/>
</g>
<defs>
<clipPath id="clip0_1988_378967">
<rect width="53.96" height="48.25" fill="white" transform="translate(18 21)"/>
</clipPath>
</defs>
</svg>
