<svg width="90" height="90" viewBox="0 0 90 90" fill="none" xmlns="http://www.w3.org/2000/svg">
<circle cx="45" cy="45" r="45" fill="#FAFAFA"/>
<g clip-path="url(#clip0_1119_179012)">
<path d="M69.8008 19.3398H19.5508V48.8598H69.8008V19.3398Z" fill="#235AB0"/>
<path d="M69.5497 49.2896H19.5497C19.4797 49.2909 19.4101 49.2781 19.3452 49.252C19.2803 49.2258 19.2213 49.1867 19.1719 49.1372C19.1224 49.0877 19.0834 49.0288 19.0572 48.9639C19.0311 48.899 19.0183 48.8295 19.0196 48.7595V19.5095C19.0196 19.369 19.0754 19.2342 19.1748 19.1348C19.2742 19.0354 19.4091 18.9795 19.5497 18.9795H69.5497C69.6902 18.9795 69.825 19.0354 69.9244 19.1348C70.0238 19.2342 70.0796 19.369 70.0796 19.5095V48.7395C70.0838 48.8111 70.0731 48.8829 70.0482 48.9502C70.0233 49.0175 69.9847 49.0787 69.9349 49.1304C69.8851 49.182 69.8253 49.2229 69.7589 49.2502C69.6926 49.2776 69.6214 49.291 69.5497 49.2896ZM20.0497 48.2295H69.0497V20.0596H20.0497V48.2295Z" fill="#333333"/>
<path d="M36.6195 68.1804V50.7104H34.0795L31.2695 44.0104L35.8695 43.7904L36.0495 39.5504L41.5395 34.7404L39.2595 30.6004L40.2595 26.3204L43.8595 23.6104L46.4195 23.8604L49.3795 27.1804L49.8095 31.0604L47.9195 34.7404L52.3995 38.9404L53.2695 40.4104L53.2595 44.3904L57.4095 43.9004L57.7595 44.8604L55.1195 50.7104L52.2395 50.6704V67.3904L36.6195 68.1804Z" fill="white"/>
<path d="M55.2588 51.1302H52.2588C52.1182 51.1302 51.9834 51.0743 51.884 50.9749C51.7846 50.8755 51.7288 50.7407 51.7288 50.6001C51.7288 50.4596 51.7846 50.3248 51.884 50.2254C51.9834 50.126 52.1182 50.0701 52.2588 50.0701H54.9088L57.2487 44.3501H31.8187L34.1787 50.0301H36.8388C36.9793 50.0301 37.1141 50.0859 37.2135 50.1853C37.3129 50.2847 37.3687 50.4195 37.3687 50.5601C37.3701 50.6301 37.3574 50.6995 37.3312 50.7644C37.305 50.8294 37.2661 50.8883 37.2166 50.9378C37.1671 50.9873 37.1081 51.0264 37.0432 51.0525C36.9783 51.0787 36.9087 51.0915 36.8388 51.0901H33.8388C33.7336 51.09 33.6308 51.0583 33.5435 50.9995C33.4563 50.9408 33.3885 50.8575 33.3488 50.76L30.8787 44.71C30.8057 44.5493 30.7765 44.3722 30.794 44.1966C30.8116 44.0209 30.8753 43.853 30.9788 43.71C31.07 43.5677 31.1959 43.4511 31.3445 43.3706C31.4931 43.2902 31.6597 43.2486 31.8288 43.25H57.2888C57.4578 43.2486 57.6244 43.2902 57.773 43.3706C57.9217 43.4511 58.0475 43.5677 58.1388 43.71C58.2422 43.853 58.3059 44.0209 58.3235 44.1966C58.3411 44.3722 58.3118 44.5493 58.2387 44.71L55.7688 50.76C55.7345 50.8682 55.6665 50.9625 55.5747 51.0291C55.4829 51.0957 55.3722 51.1312 55.2588 51.1302Z" fill="#333333"/>
<path d="M52.2507 66.8503C52.1102 66.8503 51.9754 66.7945 51.876 66.6951C51.7766 66.5957 51.7208 66.4609 51.7208 66.3203V48.3804H37.3608V66.3203C37.3608 66.4609 37.3049 66.5957 37.2055 66.6951C37.1061 66.7945 36.9713 66.8503 36.8307 66.8503C36.6902 66.8503 36.5554 66.7945 36.456 66.6951C36.3566 66.5957 36.3008 66.4609 36.3008 66.3203V48.1902C36.3008 47.9594 36.3924 47.7381 36.5555 47.575C36.7187 47.4118 36.94 47.3203 37.1708 47.3203H51.9108C52.1415 47.3203 52.3628 47.4118 52.5259 47.575C52.6891 47.7381 52.7808 47.9594 52.7808 48.1902V66.3203C52.7808 66.4609 52.7249 66.5957 52.6255 66.6951C52.5261 66.7945 52.3913 66.8503 52.2507 66.8503Z" fill="#333333"/>
<path d="M53.2618 44.3896C53.1212 44.3896 52.9864 44.334 52.887 44.2346C52.7876 44.1352 52.7318 44.0004 52.7318 43.8598V41.6796C52.7334 41.0507 52.5982 40.4291 52.3358 39.8576C52.0733 39.2861 51.6898 38.7785 51.2118 38.3698L47.4418 35.1396C47.3883 35.0944 47.3444 35.0392 47.3125 34.977C47.2805 34.9148 47.2612 34.847 47.2556 34.7773C47.25 34.7076 47.2583 34.6373 47.2799 34.5708C47.3016 34.5042 47.3362 34.4427 47.3818 34.3896C47.4259 34.336 47.4806 34.2922 47.5423 34.2604C47.6041 34.2287 47.6717 34.21 47.741 34.2053C47.8103 34.2006 47.8798 34.21 47.9453 34.2331C48.0108 34.2562 48.0708 34.2926 48.1217 34.3398L51.9018 37.5698C52.4963 38.0765 52.9733 38.7067 53.2997 39.4165C53.6261 40.1262 53.794 40.8984 53.7918 41.6796V43.8598C53.7918 43.9294 53.7781 43.9981 53.7514 44.0624C53.7248 44.1268 53.6857 44.1854 53.6365 44.2346C53.5873 44.2838 53.5289 44.3227 53.4646 44.3493C53.4003 44.3759 53.3314 44.3896 53.2618 44.3896Z" fill="#333333"/>
<path d="M35.819 44.3897C35.6785 44.3897 35.5437 44.3341 35.4443 44.2347C35.3449 44.1353 35.2891 44.0005 35.2891 43.86V41.7098C35.2886 40.9192 35.4611 40.1381 35.7945 39.4212C36.1279 38.7043 36.6141 38.069 37.2191 37.5599L41.059 34.3299C41.1127 34.2849 41.1748 34.2509 41.2417 34.2301C41.3086 34.2092 41.3789 34.2018 41.4487 34.2083C41.5184 34.2149 41.5862 34.2353 41.648 34.2682C41.7099 34.301 41.7646 34.3456 41.809 34.3998C41.8537 34.4526 41.8874 34.5141 41.9081 34.5802C41.9289 34.6462 41.9361 34.7156 41.9296 34.7845C41.9231 34.8534 41.9029 34.9205 41.8702 34.9815C41.8374 35.0425 41.7928 35.0962 41.739 35.1397L37.899 38.37C37.4137 38.7808 37.0237 39.2922 36.756 39.869C36.4884 40.4458 36.3495 41.0739 36.3491 41.7098V43.86C36.3491 44.0005 36.2932 44.1353 36.1938 44.2347C36.0944 44.3341 35.9596 44.3897 35.819 44.3897Z" fill="#333333"/>
<path d="M44.5901 36.5901C41.4601 36.5901 38.9102 33.5899 38.9102 29.9199C38.9102 26.2499 41.4601 23.25 44.5901 23.25C47.7201 23.25 50.2701 26.2499 50.2701 29.9199C50.2701 33.5899 47.7201 36.5901 44.5901 36.5901ZM44.5901 24.3101C42.0401 24.3101 39.9702 26.8199 39.9702 29.9199C39.9702 33.0199 42.0401 35.53 44.5901 35.53C47.1401 35.53 49.2101 33.0099 49.2101 29.9199C49.2101 26.8299 47.1401 24.3101 44.5901 24.3101Z" fill="#333333"/>
<path d="M24.1595 60.7405L23.6595 56.4705L26.2195 52.6905L29.7195 52.4205L32.3495 54.6405L33.3795 58.3705L31.8595 62.4905L36.8395 66.8505L41.2295 62.0205L39.9695 58.5605L40.7395 54.6705L44.0595 52.2305L46.7995 52.6905L49.3895 56.0505V59.8605L47.9795 62.5705L52.9395 66.8505L57.8195 62.3805L56.5995 60.0905L56.5195 55.7405L59.9495 52.2305L63.3495 52.8905L65.8295 56.2005L65.9795 59.5505L64.3395 62.7205L69.3695 67.2205L69.0295 71.2605H19.7695V66.9905L24.9195 62.1805L24.1595 60.7405Z" fill="white"/>
<path d="M36.5818 71.7097C36.4413 71.7097 36.3065 71.6538 36.2071 71.5544C36.1077 71.455 36.0519 71.3203 36.0519 71.1797V67.2698L31.2219 62.8896C31.1726 62.8404 31.1335 62.7821 31.1068 62.7178C31.0801 62.6534 31.0664 62.5843 31.0664 62.5146C31.0664 62.445 31.0801 62.3761 31.1068 62.3118C31.1335 62.2474 31.1726 62.1889 31.2219 62.1396C31.2711 62.0904 31.3295 62.0513 31.3939 62.0247C31.4582 61.998 31.5272 61.9844 31.5969 61.9844C31.6665 61.9844 31.7355 61.998 31.7998 62.0247C31.8642 62.0513 31.9226 62.0904 31.9719 62.1396L36.9719 66.6697C37.0261 66.719 37.0693 66.7795 37.0986 66.8467C37.1279 66.9139 37.1426 66.9865 37.1418 67.0598V71.2097C37.138 71.2794 37.1205 71.3476 37.0903 71.4104C37.06 71.4732 37.0177 71.5295 36.9656 71.5759C36.9136 71.6224 36.8529 71.6582 36.787 71.6812C36.7212 71.7041 36.6515 71.7138 36.5818 71.7097Z" fill="#333333"/>
<path d="M28.4615 64.3999C25.4615 64.3999 23.1016 61.5801 23.1016 58.1201C23.1016 54.6601 25.5015 51.8301 28.4615 51.8301C31.4215 51.8301 33.8115 54.6501 33.8115 58.1201C33.8115 61.5901 31.4115 64.3999 28.4615 64.3999ZM28.4615 52.8899C26.0915 52.8899 24.1616 55.2301 24.1616 58.1201C24.1616 61.0101 26.0915 63.3401 28.4615 63.3401C30.8315 63.3401 32.7515 61.0001 32.7515 58.1201C32.7515 55.2401 30.8315 52.8899 28.4615 52.8899Z" fill="#333333"/>
<path d="M52.9209 71.7097C52.8518 71.7097 52.7833 71.6959 52.7195 71.6692C52.6558 71.6424 52.598 71.6033 52.5496 71.554C52.5012 71.5046 52.4631 71.4461 52.4376 71.3818C52.412 71.3176 52.3995 71.2488 52.4009 71.1797V67.2698L47.5609 62.8799C47.5119 62.8315 47.473 62.7737 47.4465 62.7102C47.4199 62.6467 47.4062 62.5786 47.4062 62.5098C47.4062 62.4409 47.4199 62.3728 47.4465 62.3093C47.473 62.2458 47.5119 62.188 47.5609 62.1396C47.6615 62.0425 47.796 61.9883 47.9359 61.9883C48.0758 61.9883 48.2102 62.0425 48.3109 62.1396L53.3109 66.6797C53.3651 66.729 53.4083 66.7895 53.4376 66.8567C53.4669 66.9239 53.4817 66.9965 53.4809 67.0698V71.2197C53.4771 71.289 53.4595 71.3569 53.4291 71.4192C53.3988 71.4815 53.3563 71.5371 53.3041 71.5828C53.2519 71.6284 53.1911 71.6632 53.1253 71.6851C53.0595 71.7069 52.99 71.7152 52.9209 71.7097Z" fill="#333333"/>
<path d="M36.5806 67.5596C36.4333 67.5564 36.2932 67.4952 36.1906 67.3894C36.1413 67.3402 36.1022 67.2819 36.0756 67.2175C36.0489 67.1532 36.0352 67.0841 36.0352 67.0144C36.0352 66.9447 36.0489 66.8759 36.0756 66.8115C36.1022 66.7472 36.1413 66.6886 36.1906 66.6394L41.1906 62.0195C41.2913 61.9224 41.4257 61.8682 41.5656 61.8682C41.7055 61.8682 41.8399 61.9224 41.9406 62.0195C42.0378 62.1202 42.0921 62.2546 42.0921 62.3945C42.0921 62.5344 42.0378 62.6689 41.9406 62.7695L36.9406 67.3894C36.8466 67.4899 36.7179 67.5508 36.5806 67.5596Z" fill="#333333"/>
<path d="M44.7993 64.3999C41.8493 64.3999 39.4492 61.5801 39.4492 58.1201C39.4492 54.6601 41.8493 51.8301 44.7993 51.8301C47.7493 51.8301 50.1592 54.6501 50.1592 58.1201C50.1592 61.5901 47.7493 64.3999 44.7993 64.3999ZM44.7993 52.8899C42.4293 52.8899 40.4992 55.2301 40.4992 58.1201C40.4992 61.0101 42.4293 63.3401 44.7993 63.3401C47.1693 63.3401 49.0992 61.0001 49.0992 58.1201C49.0992 55.2401 47.1693 52.8899 44.7993 52.8899Z" fill="#333333"/>
<path d="M69.2713 71.7097H19.8112C19.6707 71.7097 19.5359 71.6538 19.4365 71.5544C19.3371 71.455 19.2813 71.3203 19.2813 71.1797V67.0298C19.2805 66.9565 19.2953 66.8839 19.3246 66.8167C19.3539 66.7494 19.397 66.689 19.4513 66.6396L24.7213 61.8499C24.7705 61.8006 24.8289 61.7613 24.8933 61.7346C24.9576 61.7079 25.0266 61.6943 25.0963 61.6943C25.1659 61.6943 25.2349 61.7079 25.2992 61.7346C25.3636 61.7613 25.4221 61.8006 25.4713 61.8499C25.5206 61.8991 25.5597 61.9574 25.5863 62.0217C25.613 62.0861 25.6267 62.1552 25.6267 62.2249C25.6267 62.2945 25.613 62.3634 25.5863 62.4277C25.5597 62.4921 25.5206 62.5506 25.4713 62.5999L20.3813 67.2297V70.6199H68.7813V67.2397L63.9412 62.8499C63.892 62.8006 63.8529 62.7421 63.8262 62.6777C63.7995 62.6134 63.7858 62.5445 63.7858 62.4749C63.7858 62.4052 63.7995 62.3361 63.8262 62.2717C63.8529 62.2074 63.892 62.1491 63.9412 62.0999C63.9905 62.0506 64.049 62.0113 64.1133 61.9846C64.1777 61.9579 64.2466 61.9443 64.3162 61.9443C64.3859 61.9443 64.4549 61.9579 64.5193 61.9846C64.5836 62.0113 64.642 62.0506 64.6912 62.0999L69.6912 66.6396C69.7483 66.6872 69.7941 66.747 69.8253 66.8145C69.8564 66.8819 69.8721 66.9555 69.8712 67.0298V71.1797C69.8719 71.2556 69.8563 71.3308 69.8254 71.4001C69.7945 71.4695 69.7491 71.5313 69.6922 71.5815C69.6353 71.6318 69.5682 71.6693 69.4956 71.6914C69.423 71.7135 69.3465 71.7197 69.2713 71.7097Z" fill="#333333"/>
<path d="M52.9183 67.5598C52.8466 67.5592 52.7759 67.5437 52.7105 67.5144C52.6451 67.4852 52.5865 67.4426 52.5383 67.3896C52.489 67.3404 52.4499 67.2821 52.4232 67.2178C52.3965 67.1534 52.3828 67.0843 52.3828 67.0146C52.3828 66.945 52.3965 66.8761 52.4232 66.8118C52.4499 66.7474 52.489 66.6889 52.5383 66.6396L57.5383 62.0198C57.5875 61.9705 57.6459 61.9315 57.7103 61.9048C57.7746 61.8781 57.8436 61.8643 57.9133 61.8643C57.9829 61.8643 58.0519 61.8781 58.1162 61.9048C58.1806 61.9315 58.239 61.9705 58.2883 62.0198C58.3376 62.069 58.3766 62.1275 58.4033 62.1919C58.43 62.2562 58.4437 62.3251 58.4437 62.3948C58.4437 62.4644 58.43 62.5333 58.4033 62.5977C58.3766 62.662 58.3376 62.7206 58.2883 62.7698L53.2883 67.3896C53.1918 67.4924 53.0591 67.5536 52.9183 67.5598Z" fill="#333333"/>
<path d="M61.149 64.3999C58.149 64.3999 55.7891 61.5801 55.7891 58.1201C55.7891 54.6601 58.189 51.8301 61.149 51.8301C64.109 51.8301 66.499 54.6501 66.499 58.1201C66.499 61.5901 64.099 64.3999 61.149 64.3999ZM61.149 52.8899C58.779 52.8899 56.8491 55.2301 56.8491 58.1201C56.8491 61.0101 58.779 63.3401 61.149 63.3401C63.519 63.3401 65.439 61.0001 65.439 58.1201C65.439 55.2401 63.519 52.8899 61.149 52.8899Z" fill="#333333"/>
</g>
<defs>
<clipPath id="clip0_1119_179012">
<rect width="51.09" height="52.71" fill="white" transform="translate(19 19)"/>
</clipPath>
</defs>
</svg>
