<svg width="100" height="100" viewBox="0 0 100 100" fill="none" xmlns="http://www.w3.org/2000/svg">
<circle cx="50" cy="50" r="50" fill="#F2F6FB"/>
<g clip-path="url(#clip0_1102_180985)">
<path d="M26.7883 31.9904L29.8183 29.6504L33.2783 30.0604L35.0883 33.4404L35.6983 34.1104L73.9183 33.9904V70.5104H31.7383L28.3583 69.3704L26.4883 66.8204V65.2304L26.7883 31.9904Z" fill="white"/>
<path d="M65.3891 40.2305H58.0391V64.8005H65.3891V40.2305Z" fill="#235AB0"/>
<path d="M74.0317 70.9402H31.5117C30.0512 70.9349 28.6523 70.3508 27.6214 69.3162C26.5905 68.2815 26.0117 66.8807 26.0117 65.4202V33.8501C26.0117 32.5638 26.5227 31.3302 27.4323 30.4207C28.3418 29.5111 29.5754 29 30.8617 29C32.0855 29.0042 33.2626 29.47 34.158 30.3042C35.0534 31.1384 35.6011 32.2796 35.6917 33.5H74.0317C74.1723 33.5 74.3071 33.5559 74.4065 33.6553C74.5059 33.7547 74.5617 33.8895 74.5617 34.03V70.4102C74.5617 70.5507 74.5059 70.6855 74.4065 70.7849C74.3071 70.8843 74.1723 70.9402 74.0317 70.9402ZM30.8617 30.0601C29.8556 30.0601 28.8906 30.459 28.1782 31.1694C27.4659 31.8799 27.0644 32.844 27.0617 33.8501V65.4202C27.0617 66.6013 27.5302 67.7342 28.3645 68.5703C29.1987 69.4064 30.3306 69.8775 31.5117 69.8801H73.5117V34.5601H35.7217V64.6501C35.722 64.7528 35.693 64.8534 35.6381 64.9402C35.5832 65.027 35.5046 65.0964 35.4117 65.1401C35.3179 65.1806 35.2146 65.1934 35.1137 65.1775C35.0128 65.1616 34.9185 65.1174 34.8417 65.05C34.7117 64.94 31.7417 62.39 28.4817 63.98C28.4187 64.0105 28.3503 64.0283 28.2805 64.0322C28.2106 64.0362 28.1406 64.0262 28.0746 64.0029C28.0086 63.9797 27.9479 63.9436 27.8959 63.8967C27.8439 63.8499 27.8017 63.7932 27.7717 63.73C27.7411 63.6683 27.723 63.6014 27.7184 63.5327C27.7139 63.464 27.7231 63.395 27.7455 63.3298C27.7678 63.2647 27.8028 63.2048 27.8485 63.1533C27.8942 63.1018 27.9497 63.0599 28.0117 63.03C29.0771 62.5473 30.2492 62.348 31.4142 62.4514C32.5793 62.5548 33.698 62.9573 34.6617 63.6201V33.8501C34.6617 33.3515 34.5633 32.8579 34.3723 32.3975C34.1812 31.937 33.9011 31.5186 33.5481 31.1665C33.1951 30.8144 32.7761 30.5356 32.3152 30.3457C31.8542 30.1558 31.3603 30.0587 30.8617 30.0601Z" fill="#333333"/>
<path d="M65.2101 65.3202C65.0696 65.3202 64.9348 65.2643 64.8354 65.1649C64.736 65.0655 64.6801 64.9307 64.6801 64.7901V40.5902H58.4702V64.7901C58.4702 64.9307 58.4143 65.0655 58.3149 65.1649C58.2155 65.2643 58.0807 65.3202 57.9402 65.3202C57.7996 65.3202 57.6648 65.2643 57.5654 65.1649C57.466 65.0655 57.4102 64.9307 57.4102 64.7901V40.0602C57.4101 39.991 57.4239 39.9225 57.4507 39.8587C57.4774 39.795 57.5166 39.7372 57.566 39.6888C57.6153 39.6404 57.6739 39.6023 57.7381 39.5768C57.8023 39.5512 57.871 39.5388 57.9402 39.5401H65.2101C65.2793 39.5388 65.348 39.5512 65.4122 39.5768C65.4765 39.6023 65.535 39.6404 65.5843 39.6888C65.6337 39.7372 65.6729 39.795 65.6996 39.8587C65.7264 39.9225 65.7402 39.991 65.7401 40.0602V64.7901C65.7401 64.8597 65.7264 64.9287 65.6998 64.993C65.6732 65.0573 65.6341 65.1157 65.5849 65.1649C65.5357 65.2141 65.4773 65.2532 65.413 65.2799C65.3487 65.3065 65.2797 65.3202 65.2101 65.3202Z" fill="#333333"/>
<path d="M57.9406 65.3201C57.8 65.3201 57.6653 65.2642 57.5659 65.1648C57.4665 65.0654 57.4106 64.9306 57.4106 64.79V48.0601H51.2006V64.79C51.2006 64.9306 51.1448 65.0654 51.0454 65.1648C50.946 65.2642 50.8112 65.3201 50.6706 65.3201C50.5301 65.3201 50.3952 65.2642 50.2958 65.1648C50.1964 65.0654 50.1406 64.9306 50.1406 64.79V47.53C50.1406 47.3895 50.1964 47.2547 50.2958 47.1553C50.3952 47.0559 50.5301 47 50.6706 47H57.9406C58.0812 47 58.216 47.0559 58.3154 47.1553C58.4148 47.2547 58.4706 47.3895 58.4706 47.53V64.79C58.4706 64.9306 58.4148 65.0654 58.3154 65.1648C58.216 65.2642 58.0812 65.3201 57.9406 65.3201Z" fill="#333333"/>
<path d="M43.4011 65.2395C43.2605 65.2395 43.1257 65.1836 43.0263 65.0842C42.9269 64.9848 42.8711 64.85 42.8711 64.7095V54.5095C42.8711 54.4399 42.8848 54.3709 42.9114 54.3066C42.9381 54.2423 42.9771 54.184 43.0263 54.1348C43.0756 54.0856 43.134 54.0467 43.1983 54.02C43.2626 53.9934 43.3315 53.9795 43.4011 53.9795H50.6311C50.7007 53.9795 50.7696 53.9934 50.8339 54.02C50.8982 54.0467 50.9566 54.0856 51.0059 54.1348C51.0551 54.184 51.0941 54.2423 51.1208 54.3066C51.1474 54.3709 51.1611 54.4399 51.1611 54.5095C51.1611 54.6501 51.1053 54.7849 51.0059 54.8843C50.9065 54.9837 50.7717 55.0396 50.6311 55.0396H43.8911V64.7095C43.8915 64.8434 43.8412 64.9725 43.7503 65.0708C43.6594 65.1691 43.5346 65.2294 43.4011 65.2395Z" fill="#333333"/>
<path d="M68.5694 65.3198H39.1394C38.9988 65.3198 38.864 65.2639 38.7646 65.1646C38.6652 65.0652 38.6094 64.9304 38.6094 64.7898C38.6094 64.6492 38.6652 64.5144 38.7646 64.415C38.864 64.3156 38.9988 64.2598 39.1394 64.2598H68.5694C68.7099 64.2598 68.8447 64.3156 68.9441 64.415C69.0435 64.5144 69.0994 64.6492 69.0994 64.7898C69.0994 64.9304 69.0435 65.0652 68.9441 65.1646C68.8447 65.2639 68.7099 65.3198 68.5694 65.3198Z" fill="#333333"/>
</g>
<defs>
<clipPath id="clip0_1102_180985">
<rect width="48.55" height="41.93" fill="white" transform="translate(26 29)"/>
</clipPath>
</defs>
</svg>
