<svg width="104" height="100" viewBox="0 0 104 100" fill="none" xmlns="http://www.w3.org/2000/svg">
<ellipse cx="51.625" cy="50" rx="51.625" ry="50" fill="#F2F6FB"/>
<g clip-path="url(#clip0_1081_175863)">
<path d="M59.5252 31H34.998V66.0977H59.5252V31Z" fill="white"/>
<path d="M60.014 67.0836H34.4992C34.3668 67.0836 34.2398 67.031 34.1462 66.9374C34.0526 66.8438 34 66.7169 34 66.5844V30.4992C34.0028 30.3676 34.0563 30.2422 34.1493 30.1492C34.2423 30.0561 34.3677 30.0028 34.4992 30H60.014C60.1464 30 60.2733 30.0524 60.367 30.146C60.4606 30.2396 60.5132 30.3668 60.5132 30.4992V47.6139C60.5132 47.679 60.5002 47.7434 60.475 47.8034C60.4498 47.8633 60.4128 47.9177 60.3663 47.9631C60.3198 48.0086 60.2647 48.0444 60.2042 48.0683C60.1437 48.0922 60.079 48.1037 60.014 48.1022C59.8834 48.1023 59.7581 48.0513 59.6647 47.96C59.5714 47.8687 59.5176 47.7444 59.5147 47.6139V30.9984H34.9984V66.0853H59.5147V58.0758C59.5147 58.0103 59.5276 57.9454 59.5527 57.8848C59.5778 57.8242 59.6146 57.7693 59.6609 57.7229C59.7073 57.6765 59.7624 57.6396 59.8229 57.6145C59.8835 57.5894 59.9484 57.5766 60.014 57.5766C60.0799 57.5752 60.1455 57.5871 60.2067 57.6116C60.268 57.6362 60.3236 57.6728 60.3703 57.7195C60.4169 57.7661 60.4536 57.822 60.4782 57.8832C60.5028 57.9444 60.5147 58.0099 60.5132 58.0758V66.5844C60.5147 66.6504 60.5028 66.7158 60.4782 66.7771C60.4536 66.8383 60.4169 66.8942 60.3703 66.9408C60.3236 66.9875 60.268 67.0241 60.2067 67.0487C60.1455 67.0732 60.0799 67.0851 60.014 67.0836Z" fill="#333333"/>
<path d="M42.7904 36.847H38.2757C38.2107 36.8484 38.146 36.837 38.0855 36.8131C38.025 36.7892 37.9698 36.7534 37.9233 36.7079C37.8768 36.6624 37.8399 36.6081 37.8147 36.5481C37.7894 36.4882 37.7765 36.4237 37.7765 36.3587C37.775 36.2927 37.7869 36.2273 37.8115 36.1661C37.836 36.1048 37.8727 36.049 37.9194 36.0023C37.9661 35.9557 38.0217 35.919 38.0829 35.8945C38.1442 35.8699 38.2097 35.858 38.2757 35.8595H42.7904C42.8555 35.8595 42.9199 35.8724 42.9799 35.8977C43.0398 35.9229 43.0942 35.9598 43.1397 36.0063C43.1851 36.0528 43.2209 36.1079 43.2448 36.1684C43.2687 36.229 43.2803 36.2936 43.2788 36.3587C43.2788 36.4882 43.2273 36.6126 43.1358 36.7042C43.0442 36.7958 42.92 36.847 42.7904 36.847Z" fill="#333333"/>
<path d="M56.0525 45.811H38.2757C38.2101 45.811 38.1452 45.7982 38.0847 45.7731C38.0241 45.748 37.9691 45.7114 37.9227 45.665C37.8763 45.6186 37.8396 45.5634 37.8145 45.5028C37.7894 45.4423 37.7765 45.3774 37.7765 45.3118C37.775 45.2458 37.7869 45.1804 37.8115 45.1192C37.836 45.0579 37.8727 45.0021 37.9194 44.9554C37.9661 44.9088 38.0217 44.8722 38.0829 44.8476C38.1442 44.823 38.2097 44.8111 38.2757 44.8126H56.0525C56.1184 44.8111 56.184 44.823 56.2452 44.8476C56.3065 44.8722 56.3621 44.9088 56.4088 44.9554C56.4554 45.0021 56.4921 45.0579 56.5167 45.1192C56.5413 45.1804 56.5532 45.2458 56.5517 45.3118C56.5517 45.4442 56.4991 45.5714 56.4055 45.665C56.3118 45.7586 56.1849 45.811 56.0525 45.811Z" fill="#333333"/>
<path d="M56.0525 50.2523H38.2757C38.2097 50.2538 38.1442 50.2419 38.0829 50.2173C38.0217 50.1927 37.9661 50.1561 37.9194 50.1095C37.8727 50.0628 37.836 50.007 37.8115 49.9457C37.7869 49.8845 37.775 49.8191 37.7765 49.7531C37.7765 49.6875 37.7894 49.6226 37.8145 49.5621C37.8396 49.5015 37.8763 49.4465 37.9227 49.4002C37.9691 49.3538 38.0241 49.3169 38.0847 49.2918C38.1452 49.2667 38.2101 49.2539 38.2757 49.2539H56.0525C56.1849 49.2539 56.3118 49.3065 56.4055 49.4002C56.4991 49.4938 56.5517 49.6207 56.5517 49.7531C56.5532 49.8191 56.5413 49.8845 56.5167 49.9457C56.4921 50.007 56.4554 50.0628 56.4088 50.1095C56.3621 50.1561 56.3065 50.1927 56.2452 50.2173C56.184 50.2419 56.1184 50.2538 56.0525 50.2523Z" fill="#333333"/>
<path d="M53.2852 54.764H38.2434C38.111 54.764 37.984 54.7116 37.8904 54.618C37.7967 54.5244 37.7441 54.3972 37.7441 54.2648C37.7441 54.1324 37.7967 54.0055 37.8904 53.9119C37.984 53.8183 38.111 53.7656 38.2434 53.7656H53.2852C53.4157 53.7685 53.5399 53.8223 53.6312 53.9156C53.7225 54.0089 53.7736 54.1343 53.7736 54.2648C53.7736 54.3954 53.7225 54.5207 53.6312 54.614C53.5399 54.7073 53.4157 54.7612 53.2852 54.764Z" fill="#333333"/>
<path d="M56.2485 61.233H52.2004C52.0689 61.2302 51.9435 61.1766 51.8505 61.0836C51.7574 60.9905 51.7039 60.8651 51.7012 60.7336C51.7039 60.602 51.7574 60.4768 51.8505 60.3838C51.9435 60.2908 52.0689 60.2371 52.2004 60.2344H56.2485C56.38 60.2371 56.5054 60.2908 56.5984 60.3838C56.6914 60.4768 56.7449 60.602 56.7477 60.7336C56.7449 60.8651 56.6914 60.9905 56.5984 61.0836C56.5054 61.1766 56.38 61.2302 56.2485 61.233Z" fill="#333333"/>
<path d="M60.5135 60.6813C64.901 60.6813 68.4577 57.1246 68.4577 52.7372C68.4577 48.3497 64.901 44.793 60.5135 44.793C56.1261 44.793 52.5693 48.3497 52.5693 52.7372C52.5693 57.1246 56.1261 60.6813 60.5135 60.6813Z" fill="#235AB0"/>
<path d="M60.5132 61.2355C58.2632 61.2326 56.1062 60.3375 54.5153 58.7465C52.9243 57.1555 52.0292 54.9986 52.0264 52.7486C52.0264 50.4978 52.9205 48.3391 54.5121 46.7476C56.1037 45.156 58.2624 44.2617 60.5132 44.2617C62.764 44.2617 64.9227 45.156 66.5143 46.7476C68.1059 48.3391 69 50.4978 69 52.7486C68.9971 54.9986 68.1021 57.1555 66.5111 58.7465C64.9201 60.3375 62.7632 61.2326 60.5132 61.2355ZM60.5132 45.347C58.5511 45.3499 56.6701 46.1306 55.2827 47.5181C53.8952 48.9055 53.1145 50.7865 53.1116 52.7486C53.1145 54.7107 53.8952 56.5917 55.2827 57.9792C56.6701 59.3666 58.5511 60.1474 60.5132 60.1502C62.4753 60.1474 64.3563 59.3666 65.7437 57.9792C67.1312 56.5917 67.9119 54.7107 67.9147 52.7486C67.9119 50.7865 67.1312 48.9055 65.7437 47.5181C64.3563 46.1306 62.4753 45.3499 60.5132 45.347Z" fill="#333333"/>
<path d="M57.9739 57.0458L56.2266 52.1946L57.2576 51.8256L58.408 55.0706L64.594 48.9062L65.3537 49.6768L57.9739 57.0458Z" fill="white"/>
</g>
<defs>
<clipPath id="clip0_1081_175863">
<rect width="35" height="37.0837" fill="white" transform="translate(34 30)"/>
</clipPath>
</defs>
</svg>
