<svg width="100" height="100" viewBox="0 0 100 100" fill="none" xmlns="http://www.w3.org/2000/svg">
<circle cx="50" cy="50" r="50" fill="#F2F6FB"/>
<g clip-path="url(#clip0_1988_380415)">
<path d="M32.5293 26.5547H64.6193V66.736L62.5093 67.4983H59.8693V70.965L58.4993 72.4478H32.5293V26.5547Z" fill="white"/>
<path d="M63.9297 39.3549L69.4497 33.6953H69.8597L72.5597 36.6191L72.4597 37.1308L67.1597 42.8113L63.9297 39.3549Z" fill="#235AB0"/>
<path d="M52.3602 33.5601C51.944 33.5562 51.538 33.4243 51.193 33.181C50.848 32.9377 50.5793 32.5938 50.4202 32.1921C50.2671 31.8146 50.011 31.4925 49.6838 31.2659C49.3566 31.0394 48.9728 30.9185 48.5802 30.9182C48.1859 30.9165 47.8 31.0365 47.4708 31.2631C47.1416 31.4898 46.884 31.813 46.7302 32.1921C46.5743 32.5898 46.3104 32.9311 45.971 33.1741C45.6317 33.4172 45.2316 33.5514 44.8202 33.5601C44.548 33.5628 44.278 33.5091 44.0258 33.4023C43.7735 33.2954 43.5441 33.1373 43.3506 32.9373C43.1572 32.7373 43.0037 32.4993 42.8989 32.237C42.7942 31.9746 42.7402 31.6932 42.7402 31.4089V27.3053C42.7402 26.9591 42.8719 26.6269 43.1064 26.3821C43.3408 26.1374 43.6587 26 43.9902 26H53.1602C53.4917 26 53.8097 26.1374 54.0441 26.3821C54.2785 26.6269 54.4102 26.9591 54.4102 27.3053V31.4089C54.4115 31.6909 54.3595 31.9704 54.257 32.2314C54.1546 32.4923 54.0038 32.7295 53.8134 32.9294C53.6229 33.1293 53.3964 33.2879 53.147 33.3962C52.8977 33.5044 52.6303 33.5601 52.3602 33.5601ZM48.5802 29.8113C49.1824 29.8097 49.7715 29.9943 50.2733 30.3418C50.7752 30.6893 51.1673 31.1843 51.4002 31.7641C51.4695 31.9642 51.5957 32.1373 51.7619 32.2604C51.9281 32.3836 52.1264 32.4509 52.3302 32.4532C52.5954 32.4532 52.8498 32.3431 53.0373 32.1472C53.2249 31.9514 53.3302 31.6859 53.3302 31.4089V27.3053C53.3302 27.2526 53.3102 27.202 53.2746 27.1648C53.2389 27.1276 53.1906 27.1067 53.1402 27.1067H43.9502C43.8998 27.1067 43.8515 27.1276 43.8159 27.1648C43.7803 27.202 43.7602 27.2526 43.7602 27.3053V31.4089C43.7602 31.6859 43.8656 31.9514 44.0531 32.1472C44.2407 32.3431 44.495 32.4532 44.7602 32.4532C44.9758 32.4665 45.1898 32.4066 45.37 32.2824C45.5503 32.1581 45.6872 31.9763 45.7602 31.7641C45.9891 31.1821 46.3806 30.6854 46.8835 30.339C47.3865 29.9926 47.9778 29.8123 48.5802 29.8217V29.8113Z" fill="#333333"/>
<path d="M64.6209 35.377C64.4803 35.377 64.3455 35.3187 64.2461 35.2149C64.1467 35.1111 64.0909 34.9703 64.0909 34.8235V27.1067H53.1609C53.0203 27.1067 52.8855 27.0486 52.7861 26.9448C52.6867 26.841 52.6309 26.7002 52.6309 26.5535C52.6309 26.4067 52.6867 26.2657 52.7861 26.1619C52.8855 26.0581 53.0203 26 53.1609 26H64.6209C64.7614 26 64.8962 26.0581 64.9956 26.1619C65.095 26.2657 65.1509 26.4067 65.1509 26.5535V34.8235C65.1509 34.9703 65.095 35.1111 64.9956 35.2149C64.8962 35.3187 64.7614 35.377 64.6209 35.377Z" fill="#333333"/>
<path d="M57.77 73.0015H32.53C32.3894 73.0015 32.2546 72.9431 32.1552 72.8394C32.0558 72.7356 32 72.5948 32 72.448V26.5027C32 26.43 32.0137 26.358 32.0403 26.2908C32.067 26.2237 32.106 26.1627 32.1552 26.1114C32.2045 26.06 32.2629 26.0191 32.3272 25.9913C32.3915 25.9635 32.4604 25.9492 32.53 25.9492H43.95C44.0196 25.9492 44.0885 25.9635 44.1528 25.9913C44.2171 26.0191 44.2756 26.06 44.3248 26.1114C44.374 26.1627 44.413 26.2237 44.4397 26.2908C44.4663 26.358 44.48 26.43 44.48 26.5027C44.48 26.6495 44.4242 26.7902 44.3248 26.894C44.2254 26.9978 44.0906 27.0561 43.95 27.0561H33.02V71.8423H57.73C58.1473 71.8423 58.5477 71.6699 58.8437 71.3628C59.1397 71.0556 59.3074 70.6386 59.31 70.2028V67.4462C59.3086 67.3731 59.3214 67.3006 59.3476 67.2328C59.3737 67.165 59.4127 67.1032 59.4622 67.0516C59.5117 66.9999 59.5707 66.9593 59.6356 66.932C59.7005 66.9047 59.7701 66.8913 59.84 66.8927H62.48C62.8973 66.89 63.2966 66.7149 63.5908 66.4058C63.8849 66.0967 64.05 65.6786 64.05 65.2428V53.6731C64.05 53.5263 64.1058 53.3856 64.2052 53.2818C64.3046 53.178 64.4395 53.1196 64.58 53.1196C64.7206 53.1196 64.8554 53.178 64.9548 53.2818C65.0542 53.3856 65.11 53.5263 65.11 53.6731V65.3264C65.11 66.0558 64.8332 66.7554 64.3403 67.2721C63.8474 67.7888 63.1784 68.0803 62.48 68.083H60.36V70.2864C60.3523 71.0022 60.0772 71.6865 59.5934 72.1936C59.1097 72.7007 58.4554 72.9907 57.77 73.0015Z" fill="#333333"/>
<path d="M48.5693 60.0004C53.9762 60.0004 58.3593 55.4234 58.3593 49.7775C58.3593 44.1316 53.9762 39.5547 48.5693 39.5547C43.1624 39.5547 38.7793 44.1316 38.7793 49.7775C38.7793 55.4234 43.1624 60.0004 48.5693 60.0004Z" fill="#235AB0"/>
<path d="M50.3301 55.0083L51.9401 51.1552L62.9901 39.8359L66.9301 43.2087L55.6601 55.4365L52.1401 56.9193L50.3301 55.0083Z" fill="white"/>
<path d="M56.8195 54.5705C56.7486 54.5712 56.6783 54.5567 56.6129 54.528C56.5476 54.4992 56.4885 54.457 56.4395 54.4035L52.7395 50.54C52.6902 50.4886 52.6511 50.4275 52.6244 50.3603C52.5977 50.2931 52.584 50.2212 52.584 50.1484C52.584 50.0757 52.5977 50.0035 52.6244 49.9363C52.6511 49.8691 52.6902 49.8082 52.7395 49.7568L68.5795 33.2164C68.8582 32.9301 69.2335 32.7695 69.6245 32.7695C70.0154 32.7695 70.3908 32.9301 70.6695 33.2164L73.0294 35.6809C73.3043 35.9737 73.4583 36.3671 73.4583 36.7771C73.4583 37.1871 73.3043 37.5808 73.0294 37.8736L57.1895 54.4035C57.1423 54.4567 57.085 54.4989 57.0213 54.5277C56.9576 54.5565 56.8889 54.571 56.8195 54.5705ZM53.8195 50.1535L56.8195 53.2862L72.2794 37.1427C72.3194 37.1018 72.3511 37.0532 72.3727 36.9994C72.3944 36.9456 72.4055 36.8877 72.4055 36.8294C72.4055 36.771 72.3944 36.7134 72.3727 36.6596C72.3511 36.6058 72.3194 36.5569 72.2794 36.5161L69.9495 33.9996C69.8709 33.9186 69.7649 33.8731 69.6544 33.8731C69.544 33.8731 69.4381 33.9186 69.3595 33.9996L53.8195 50.1535Z" fill="#333333"/>
<path d="M52.06 57.4205C51.9218 57.4206 51.7891 57.3645 51.69 57.264L50.01 55.4993C49.9354 55.4239 49.8841 55.327 49.8627 55.2209C49.8413 55.1148 49.8508 55.0044 49.89 54.904L51.29 51.3329C51.3208 51.2675 51.3613 51.2074 51.41 51.1552L52.74 49.7561C52.7893 49.7047 52.8477 49.6637 52.9121 49.6358C52.9764 49.608 53.0454 49.5938 53.115 49.5938C53.1847 49.5938 53.2537 49.608 53.318 49.6358C53.3824 49.6637 53.4408 49.7047 53.49 49.7561C53.5393 49.8075 53.5784 49.8684 53.6051 49.9356C53.6318 50.0028 53.6455 50.075 53.6455 50.1477C53.6455 50.2205 53.6318 50.2924 53.6051 50.3596C53.5784 50.4268 53.5393 50.4879 53.49 50.5393L52.23 51.855L51 54.9877L52.19 56.2198L55.19 54.9354L56.45 53.6197C56.5507 53.5182 56.6851 53.4616 56.825 53.4616C56.9649 53.4616 57.0994 53.5182 57.2 53.6197C57.2493 53.6711 57.2884 53.732 57.3151 53.7992C57.3418 53.8663 57.3555 53.9385 57.3555 54.0113C57.3555 54.084 57.3418 54.1559 57.3151 54.2231C57.2884 54.2903 57.2493 54.3514 57.2 54.4028L55.87 55.8019C55.8204 55.8556 55.7584 55.8952 55.69 55.9169L52.27 57.3787C52.2043 57.41 52.1322 57.4244 52.06 57.4205Z" fill="#333333"/>
<path d="M49.4493 58.392C49.3799 58.3925 49.3112 58.3777 49.2475 58.3489C49.1838 58.3202 49.1265 58.2779 49.0793 58.2248C49.03 58.1734 48.9909 58.1125 48.9643 58.0453C48.9376 57.9781 48.9238 57.9059 48.9238 57.8332C48.9238 57.7605 48.9376 57.6885 48.9643 57.6214C48.9909 57.5542 49.03 57.493 49.0793 57.4416L50.8493 55.6038C50.8985 55.5523 50.957 55.5116 51.0213 55.4837C51.0857 55.4559 51.1546 55.4414 51.2243 55.4414C51.294 55.4414 51.3629 55.4559 51.4273 55.4837C51.4916 55.5116 51.5501 55.5523 51.5993 55.6038C51.6965 55.7089 51.7508 55.8493 51.7508 55.9954C51.7508 56.1415 51.6965 56.2818 51.5993 56.387L49.8293 58.2248C49.7802 58.2782 49.7212 58.3207 49.6559 58.3494C49.5905 58.3782 49.5202 58.3927 49.4493 58.392Z" fill="#333333"/>
<path d="M64.6291 51.4385C64.4879 51.4392 64.3518 51.3832 64.2491 51.282C64.1519 51.1769 64.0977 51.0365 64.0977 50.8904C64.0977 50.7443 64.1519 50.6039 64.2491 50.4988L70.7991 43.6696C70.9518 43.5109 71.0729 43.322 71.1552 43.1141C71.2376 42.9062 71.2797 42.6834 71.2791 42.4584C71.2786 42.0012 71.1063 41.5623 70.7991 41.2365L69.9191 40.3282C69.8219 40.2231 69.7676 40.0827 69.7676 39.9366C69.7676 39.7905 69.8219 39.6501 69.9191 39.545C70.0198 39.4436 70.1542 39.3867 70.2941 39.3867C70.434 39.3867 70.5684 39.4436 70.6691 39.545L71.5491 40.4638C71.8011 40.7248 72.0008 41.0356 72.1364 41.378C72.2721 41.7205 72.341 42.0878 72.3391 42.4584C72.3399 42.8288 72.2704 43.1955 72.1349 43.5378C71.9993 43.8801 71.8002 44.1912 71.5491 44.4528L64.9991 51.282C64.9 51.3825 64.7673 51.4386 64.6291 51.4385Z" fill="#333333"/>
<path d="M67.0693 43.8667C67.0001 43.866 66.9317 43.8508 66.8682 43.8221C66.8047 43.7934 66.7473 43.7519 66.6993 43.6997L62.9893 39.8362C62.8922 39.7311 62.8379 39.5907 62.8379 39.4446C62.8379 39.2985 62.8922 39.1581 62.9893 39.053C63.0386 39.0016 63.097 38.9605 63.1614 38.9327C63.2257 38.9048 63.2947 38.8906 63.3643 38.8906C63.434 38.8906 63.503 38.9048 63.5673 38.9327C63.6317 38.9605 63.6901 39.0016 63.7393 39.053L67.4393 42.9166C67.4886 42.968 67.5277 43.0288 67.5544 43.096C67.5811 43.1632 67.5948 43.2354 67.5948 43.3081C67.5948 43.3809 67.5811 43.4528 67.5544 43.52C67.5277 43.5872 67.4886 43.6483 67.4393 43.6997C67.3413 43.8032 67.2087 43.863 67.0693 43.8667Z" fill="#333333"/>
<path d="M45.7308 55.5516L42.8008 49.1506L44.6108 48.2421L46.3008 51.949L52.7208 45.0781L54.1608 46.5296L45.7308 55.5516Z" fill="white"/>
</g>
<defs>
<clipPath id="clip0_1988_380415">
<rect width="41.46" height="47" fill="white" transform="translate(32 26)"/>
</clipPath>
</defs>
</svg>
