<svg width="100" height="100" viewBox="0 0 100 100" fill="none" xmlns="http://www.w3.org/2000/svg">
<circle cx="50" cy="50" r="50" fill="#F2F6FB"/>
<g clip-path="url(#clip0_1307_206079)">
<path d="M60.8799 65.5308L51.9899 58.4208L48.9299 52.1608L52.2699 46.5808L56.5899 45.3008L60.8799 47.9008L66.3399 45.3008L69.5299 46.7108L72.2599 52.4308L70.2099 58.1408L62.8399 64.4408L60.8799 65.5308Z" fill="#235AB0"/>
<path d="M33.88 32.6608C34.5316 32.6608 35.06 32.0205 35.06 31.2308C35.06 30.441 34.5316 29.8008 33.88 29.8008C33.2283 29.8008 32.7 30.441 32.7 31.2308C32.7 32.0205 33.2283 32.6608 33.88 32.6608Z" fill="white"/>
<path d="M44.7 32.6808C45.4953 32.6808 46.14 32.0361 46.14 31.2408C46.14 30.4455 45.4953 29.8008 44.7 29.8008C43.9047 29.8008 43.26 30.4455 43.26 31.2408C43.26 32.0361 43.9047 32.6808 44.7 32.6808Z" fill="white"/>
<path d="M62.4301 57.1205C63.4353 57.1205 64.2501 56.3056 64.2501 55.3005C64.2501 54.2953 63.4353 53.4805 62.4301 53.4805C61.4249 53.4805 60.6101 54.2953 60.6101 55.3005C60.6101 56.3056 61.4249 57.1205 62.4301 57.1205Z" fill="white"/>
<path d="M60.8799 66.4492L60.5399 66.2893C60.0699 66.0493 48.9199 60.3792 48.9199 52.1692C48.9199 48.6292 51.6799 44.6992 55.6399 44.6992C56.6393 44.7226 57.6225 44.9564 58.5254 45.3855C59.4283 45.8145 60.2306 46.4291 60.8799 47.1892C61.5269 46.4289 62.3273 45.8141 63.2286 45.385C64.13 44.9559 65.1119 44.7221 66.1099 44.6992C70.1099 44.6992 72.8299 48.6292 72.8299 52.1692C72.8299 60.3792 61.6799 66.0493 61.2099 66.2893L60.8799 66.4492ZM55.6399 46.1892C52.6399 46.1892 50.4099 49.3392 50.4099 52.1892C50.4099 58.7492 59.0599 63.8093 60.8799 64.7993C62.6999 63.7993 71.3399 58.7492 71.3399 52.1892C71.3399 49.3592 69.0999 46.1892 66.1099 46.1892C65.1841 46.2185 64.2797 46.4745 63.4759 46.9348C62.6722 47.3951 61.9937 48.0457 61.4999 48.8293L60.8799 49.8293L60.2499 48.8293C59.7562 48.0457 59.0777 47.3951 58.2739 46.9348C57.4701 46.4745 56.5657 46.2185 55.6399 46.1892Z" fill="#333333"/>
<path d="M44.4301 33.4803C44.1364 33.4739 43.8468 33.4094 43.5781 33.2906C43.3093 33.1719 43.0667 33.0012 42.8641 32.7885C42.6615 32.5757 42.503 32.3249 42.3976 32.0507C42.2923 31.7764 42.2421 31.484 42.2501 31.1903C42.2547 30.8958 42.3181 30.6054 42.4366 30.3358C42.5551 30.0662 42.7263 29.823 42.9401 29.6205C43.3718 29.2124 43.9462 28.9897 44.5401 29.0004C45.1352 29.0178 45.6994 29.2693 46.1101 29.7003C46.3136 29.9127 46.4724 30.1638 46.5771 30.4386C46.6819 30.7134 46.7305 31.0065 46.7201 31.3004C46.7044 31.8928 46.4546 32.4548 46.0254 32.8634C45.5961 33.272 45.0225 33.4938 44.4301 33.4803ZM44.4301 31.9904C44.5288 31.9959 44.6276 31.981 44.7203 31.9467C44.813 31.9123 44.8976 31.8591 44.9689 31.7906C45.0402 31.7222 45.0967 31.64 45.1347 31.5487C45.1728 31.4575 45.1916 31.3592 45.1901 31.2604C45.1951 31.1615 45.18 31.0627 45.1456 30.9698C45.1112 30.877 45.0583 30.7921 44.9901 30.7203C44.8482 30.5803 44.6592 30.4983 44.4601 30.4904C44.2633 30.491 44.0739 30.5659 43.9301 30.7003C43.8575 30.7661 43.7995 30.8463 43.7599 30.9359C43.7203 31.0255 43.6999 31.1224 43.7001 31.2203C43.6961 31.3192 43.7119 31.4178 43.7467 31.5104C43.7814 31.603 43.8344 31.6879 43.9025 31.7596C43.9705 31.8314 44.0523 31.8887 44.1429 31.9283C44.2335 31.968 44.3312 31.9891 44.4301 31.9904Z" fill="#333333"/>
<path d="M34.0101 33.4805H33.9501C33.3577 33.4648 32.7957 33.2149 32.3871 32.7857C31.9785 32.3565 31.7567 31.7829 31.7701 31.1905C31.7875 30.5954 32.0391 30.0313 32.4701 29.6206C32.9006 29.2107 33.4758 28.9877 34.0701 29.0005C34.6622 29.0184 35.2231 29.27 35.6301 29.7005C35.8368 29.911 35.9984 30.1615 36.105 30.4366C36.2116 30.7117 36.261 31.0057 36.2501 31.3006C36.2345 31.8842 35.9916 32.4385 35.5732 32.8457C35.1548 33.2529 34.5939 33.4807 34.0101 33.4805ZM34.0101 31.9905C34.1073 31.9918 34.2038 31.974 34.2941 31.938C34.3844 31.9021 34.4667 31.8486 34.5363 31.7808C34.606 31.713 34.6616 31.6323 34.7 31.543C34.7384 31.4537 34.7588 31.3577 34.7601 31.2605C34.7658 31.0614 34.6941 30.8679 34.5601 30.7205C34.4183 30.5805 34.2293 30.4985 34.0301 30.4905C33.8331 30.4901 33.6434 30.5652 33.5001 30.7005C33.3545 30.8352 33.2682 31.0222 33.2601 31.2205C33.2574 31.319 33.2742 31.4171 33.3095 31.5091C33.3447 31.6011 33.3978 31.6854 33.4655 31.7569C33.5333 31.8284 33.6146 31.8857 33.7046 31.9258C33.7946 31.9659 33.8916 31.9879 33.9901 31.9905H34.0101Z" fill="#333333"/>
<path d="M39.2001 46.189C35.2801 46.189 31.3901 45.6791 29.5701 42.0391L30.9001 41.3691C32.1001 43.7591 34.4301 44.699 39.2001 44.699C43.1201 44.699 46.0901 43.4891 47.5501 41.2891L48.7901 42.1191C47.0101 44.7591 43.6401 46.189 39.2001 46.189Z" fill="#333333"/>
<path d="M39.2001 49.9197C33.7901 49.9197 30.2001 43.3498 29.5701 42.0398C28.5143 39.5724 27.9798 36.9134 28.0001 34.2297C28.0001 31.4097 32.1501 30.5498 32.3301 30.5098L32.6201 31.9697C31.8101 32.1397 29.4801 32.9097 29.4801 34.2297C29.468 36.6811 29.951 39.1097 30.9001 41.3699C32.5301 44.6299 35.6801 48.4297 39.2001 48.4297C42.7201 48.4297 45.8801 44.6299 47.5101 41.3699C48.4552 39.1088 48.9348 36.6803 48.9201 34.2297C48.9201 32.9097 46.6001 32.1397 45.7801 31.9697L46.0801 30.5098C46.2501 30.5098 50.4101 31.4097 50.4101 34.2297C50.4303 36.9134 49.8958 39.5724 48.8401 42.0398C48.1801 43.3498 44.6201 49.9197 39.2001 49.9197Z" fill="#333333"/>
<path d="M50.4099 71.5994C44.4099 71.5994 41.6299 67.6692 39.6199 64.6592C39.6199 64.8292 39.6199 64.9892 39.5399 65.1492C39.2699 66.7492 37.8699 68.4994 34.7399 68.6094C33.9454 68.6057 33.1713 68.3567 32.5235 67.8967C31.8756 67.4368 31.3854 66.7882 31.1199 66.0393C30.7131 65.152 30.575 64.1651 30.7224 63.2002C30.8699 62.2353 31.2966 61.3347 31.9499 60.6094C32.376 60.1164 32.907 59.7249 33.5039 59.4636C34.1008 59.2024 34.7487 59.0779 35.3999 59.0994C36.5534 59.2605 37.6145 59.8192 38.3999 60.6792C38.3999 59.2292 38.3999 57.7894 38.3999 56.3594C38.2954 53.942 38.3455 51.5204 38.5499 49.1094L40.0299 49.2693C39.8382 51.6175 39.7915 53.9754 39.8899 56.3293C39.8899 58.3293 39.9799 60.3293 39.8399 62.3293C40.0999 62.6993 40.3699 63.1093 40.6599 63.5393C42.5999 66.4493 45.0099 70.0793 50.3899 70.0793C56.4999 70.0793 60.8499 56.5292 60.8899 56.3992L62.3099 56.8494C62.1399 57.4794 57.5999 71.5994 50.4099 71.5994ZM35.1199 60.5994C34.7157 60.628 34.3211 60.7363 33.9589 60.9182C33.5968 61.1001 33.2742 61.352 33.0099 61.6592C32.5606 62.1702 32.2725 62.8027 32.1817 63.4771C32.091 64.1514 32.2017 64.8376 32.4999 65.4492C32.6487 65.921 32.9402 66.3352 33.3342 66.6343C33.7283 66.9334 34.2055 67.103 34.6999 67.1194C37.4299 67.0294 37.9799 65.5392 38.0799 64.8992C38.1799 64.2592 38.2799 63.5093 38.3399 62.7993C37.2699 61.4093 36.2399 60.6594 35.3399 60.5894L35.1199 60.5994Z" fill="#333333"/>
<path d="M62.3701 58.1406C61.5745 58.1406 60.8114 57.8246 60.2488 57.262C59.6862 56.6994 59.3701 55.9363 59.3701 55.1406C59.3701 54.345 59.6862 53.5821 60.2488 53.0195C60.8114 52.4569 61.5745 52.1406 62.3701 52.1406C63.1658 52.1406 63.9288 52.4569 64.4914 53.0195C65.054 53.5821 65.3701 54.345 65.3701 55.1406C65.3701 55.9363 65.054 56.6994 64.4914 57.262C63.9288 57.8246 63.1658 58.1406 62.3701 58.1406ZM62.3701 53.6606C61.9723 53.6606 61.5908 53.8188 61.3095 54.1001C61.0282 54.3814 60.8701 54.7628 60.8701 55.1606C60.8728 55.5567 61.032 55.9357 61.313 56.2148C61.594 56.494 61.974 56.6506 62.3701 56.6506C62.7662 56.6506 63.1462 56.494 63.4273 56.2148C63.7083 55.9357 63.8675 55.5567 63.8701 55.1606C63.8701 54.7628 63.7121 54.3814 63.4308 54.1001C63.1495 53.8188 62.7679 53.6606 62.3701 53.6606Z" fill="#333333"/>
</g>
<defs>
<clipPath id="clip0_1307_206079">
<rect width="44.84" height="42.59" fill="white" transform="translate(28 29)"/>
</clipPath>
</defs>
</svg>
