<svg width="32" height="32" viewBox="0 0 32 32" fill="none" xmlns="http://www.w3.org/2000/svg">
<path d="M16.0002 28.0001C18.8852 28.0001 21.2239 25.6349 21.2239 22.7172C21.2239 19.7996 18.8852 17.4344 16.0002 17.4344C13.1151 17.4344 10.7764 19.7996 10.7764 22.7172C10.7764 25.6349 13.1151 28.0001 16.0002 28.0001Z" fill="#003994" stroke="#333333" stroke-linecap="round" stroke-linejoin="round"/>
<path d="M15.9998 24.5364C16.9934 24.5364 17.7988 23.7219 17.7988 22.7172C17.7988 21.7125 16.9934 20.8979 15.9998 20.8979C15.0063 20.8979 14.2009 21.7125 14.2009 22.7172C14.2009 23.7219 15.0063 24.5364 15.9998 24.5364Z" fill="white" stroke="#333333" stroke-linecap="round" stroke-linejoin="round"/>
<path d="M12.4281 15.2128H18.1795L13.7514 4H8L12.4281 15.2128Z" fill="white" stroke="#333333" stroke-linecap="round" stroke-linejoin="round"/>
<path d="M19.5719 15.2128H13.8206L18.2487 4H24L19.5719 15.2128Z" fill="white" stroke="#333333" stroke-linecap="round" stroke-linejoin="round"/>
<path d="M16 15.2128V17.4343" stroke="#333333" stroke-linecap="round" stroke-linejoin="round"/>
</svg>
