<svg width="100" height="100" viewBox="0 0 100 100" fill="none" xmlns="http://www.w3.org/2000/svg">
<circle cx="50" cy="50" r="50" fill="#F2F6FB"/>
<g clip-path="url(#clip0_1075_171956)">
<path d="M36.9997 43.0505L38.2097 39.1907L34.4397 31.5706L39.5197 33.5706L43.4097 30.6406L47.0597 33.6406L52.4397 31.5706L48.4397 39.5706L49.5697 42.6807L53.9097 49.6106L55.3997 52.9207C55.3997 52.9207 57.5697 60.6805 54.0097 64.5405C52.7277 66.1296 51.126 67.4315 49.3085 68.3618C47.4911 69.2921 45.4984 69.83 43.4597 69.9407C43.4597 69.9407 27.0497 68.6306 31.4597 53.5906C31.3597 53.5706 31.7497 49.2205 36.9997 43.0505Z" fill="white"/>
<path d="M69.1502 53.0295V59.8195H58.2602V62.3295L50.9102 56.1495L58.2302 50.2695L58.3602 53.1895L69.1502 53.0295Z" fill="#235AB0"/>
<path d="M43.1393 41.1501C39.0193 41.1501 37.7893 40.0302 37.6593 39.9102C37.6094 39.8552 37.5658 39.7946 37.5293 39.73L33.6793 31.9102C33.6185 31.7896 33.5955 31.6534 33.6133 31.5195C33.6311 31.3857 33.689 31.2605 33.7793 31.1602C33.8726 31.0594 33.9941 30.9893 34.128 30.959C34.2618 30.9286 34.4017 30.9393 34.5293 30.99L39.3693 32.9202L42.7093 30.1602C42.8299 30.0593 42.9821 30.0039 43.1393 30.0039C43.2965 30.0039 43.4487 30.0593 43.5693 30.1602L46.9093 32.9202L51.7393 30.99C51.8664 30.9364 52.0071 30.9241 52.1416 30.9546C52.2761 30.9851 52.3977 31.057 52.4893 31.1602C52.5812 31.2594 52.6409 31.3842 52.6606 31.5181C52.6802 31.6519 52.6588 31.7887 52.5993 31.9102L48.7393 39.73C48.7064 39.7944 48.6661 39.855 48.6193 39.9102C48.4893 40.0302 47.2593 41.1501 43.1393 41.1501ZM38.6693 38.99C38.9393 39.17 40.1093 39.8 43.1393 39.8C46.1693 39.8 47.3093 39.18 47.5993 38.99L50.5993 32.8901L47.0193 34.3301C46.9066 34.375 46.7838 34.3885 46.6641 34.3691C46.5443 34.3498 46.4321 34.2982 46.3393 34.22L43.1393 31.5701L39.9193 34.24C39.8266 34.3185 39.7138 34.3695 39.5936 34.3872C39.4734 34.4049 39.3507 34.3886 39.2393 34.3401L35.6593 32.9102L38.6693 38.99Z" fill="#333333"/>
<path d="M43.1396 44.641C40.9616 44.5764 38.8245 44.0335 36.8796 43.051C36.7416 42.9753 36.6336 42.8547 36.5736 42.7092C36.5136 42.5636 36.5051 42.4019 36.5496 42.2509L37.4896 39.2509C37.5158 39.1657 37.5586 39.0867 37.6157 39.0182C37.6728 38.9498 37.743 38.8934 37.8222 38.8525C37.9013 38.8115 37.9879 38.7866 38.0767 38.7795C38.1656 38.7724 38.255 38.7831 38.3396 38.811C38.4237 38.8372 38.5018 38.8798 38.5694 38.9362C38.6371 38.9926 38.6929 39.0618 38.7338 39.1398C38.7747 39.2178 38.7997 39.3031 38.8076 39.3908C38.8155 39.4785 38.806 39.567 38.7796 39.6511L38.0096 42.111C39.6227 42.8486 41.3668 43.2565 43.1396 43.311C44.9081 43.2557 46.6481 42.8513 48.2596 42.121L47.4896 39.6511C47.4635 39.5664 47.4544 39.4773 47.4629 39.3891C47.4715 39.3009 47.4974 39.2153 47.5392 39.1371C47.5811 39.059 47.638 38.9897 47.7068 38.9338C47.7755 38.8778 47.8546 38.8361 47.9396 38.811C48.0236 38.7832 48.1123 38.7727 48.2005 38.78C48.2887 38.7872 48.3745 38.8119 48.4528 38.853C48.5312 38.894 48.6005 38.9504 48.6566 39.0187C48.7128 39.0871 48.7546 39.1661 48.7796 39.2509L49.7196 42.2509C49.7669 42.4007 49.7608 42.5624 49.7025 42.7082C49.6442 42.854 49.5371 42.9751 49.3996 43.051C47.4541 44.0317 45.3174 44.5745 43.1396 44.641Z" fill="#333333"/>
<path d="M53.589 50.5699C53.4584 50.5688 53.3308 50.5306 53.2211 50.4598C53.1113 50.389 53.0239 50.2885 52.969 50.17C51.7882 47.5743 50.3046 45.1272 48.549 42.88C48.4375 42.7403 48.3854 42.5622 48.4041 42.3844C48.4228 42.2066 48.5108 42.0434 48.649 41.93C48.7875 41.8173 48.9647 41.7635 49.1425 41.7804C49.3202 41.7972 49.4842 41.8832 49.599 42.0199C51.4239 44.3668 52.9709 46.9172 54.209 49.62C54.2456 49.7007 54.2659 49.7878 54.2686 49.8763C54.2713 49.9649 54.2564 50.0531 54.2248 50.1358C54.1932 50.2186 54.1455 50.2943 54.0844 50.3585C54.0233 50.4227 53.9501 50.4741 53.869 50.5099C53.7807 50.5487 53.6855 50.5692 53.589 50.5699Z" fill="#333333"/>
<path d="M42.9007 70.5701C41.9607 70.5701 38.9007 70.3201 34.9007 67.5701C33.5941 66.7028 32.4881 65.5661 31.6568 64.2364C30.8255 62.9066 30.2881 61.4146 30.0807 59.8602C28.9707 51.6302 36.3307 42.4902 36.6407 42.1002C36.6979 42.025 36.7702 41.9625 36.8528 41.9168C36.9355 41.8711 37.0268 41.8432 37.1209 41.8348C37.215 41.8263 37.3098 41.8375 37.3993 41.8677C37.4888 41.8979 37.571 41.9463 37.6407 42.0101C37.7103 42.0654 37.7681 42.1343 37.8109 42.2122C37.8536 42.2902 37.8804 42.3757 37.8897 42.4642C37.8991 42.5526 37.8907 42.642 37.8651 42.7271C37.8395 42.8123 37.7972 42.8914 37.7407 42.96C37.6707 43.05 30.4307 52.0402 31.4707 59.6802C31.6584 61.0495 32.1354 62.363 32.8698 63.5337C33.6043 64.7044 34.5796 65.7053 35.7307 66.47C39.9707 69.47 43.0707 69.2701 43.1007 69.2601H43.2207C43.2207 69.2601 46.3407 69.47 50.5807 66.47C51.7937 65.6211 52.8156 64.5277 53.5807 63.2601C53.6251 63.1837 53.6842 63.117 53.7546 63.0635C53.825 63.0101 53.9053 62.9708 53.9908 62.9485C54.0763 62.9262 54.1654 62.9211 54.2529 62.9334C54.3404 62.9457 54.4246 62.9751 54.5007 63.0201C54.6557 63.1117 54.768 63.2613 54.813 63.4356C54.858 63.6099 54.832 63.7948 54.7407 63.95C53.8664 65.3825 52.7013 66.6159 51.3207 67.5701C46.9207 70.6901 43.6207 70.6401 43.1207 70.5701H42.9007Z" fill="#333333"/>
<path d="M44.6996 62.3406H41.5696C41.2019 62.3406 40.8378 62.2682 40.4981 62.1275C40.1584 61.9867 39.8497 61.7805 39.5897 61.5205C39.3297 61.2605 39.1235 60.9518 38.9827 60.6121C38.842 60.2724 38.7696 59.9082 38.7696 59.5405C38.7683 59.4517 38.7846 59.3635 38.8177 59.281C38.8508 59.1986 38.8999 59.1236 38.9623 59.0603C39.0246 58.997 39.0989 58.9469 39.1809 58.9126C39.2628 58.8783 39.3508 58.8606 39.4396 58.8606C39.5293 58.8593 39.6183 58.876 39.7014 58.9097C39.7845 58.9434 39.86 58.9932 39.9234 59.0567C39.9869 59.1201 40.0369 59.1957 40.0706 59.2788C40.1043 59.3619 40.121 59.4509 40.1196 59.5405C40.1196 59.731 40.1571 59.9196 40.23 60.0955C40.3028 60.2714 40.4097 60.4313 40.5443 60.5659C40.6789 60.7006 40.8388 60.8073 41.0147 60.8801C41.1906 60.953 41.3792 60.9905 41.5696 60.9905H44.6996C44.8909 60.9918 45.0805 60.9554 45.2576 60.8831C45.4346 60.8108 45.5957 60.7041 45.7314 60.5694C45.8671 60.4346 45.9748 60.2743 46.0483 60.0977C46.1218 59.9211 46.1596 59.7318 46.1596 59.5405V58.2805C46.1596 58.0893 46.1218 57.9 46.0483 57.7234C45.9748 57.5468 45.8671 57.3865 45.7314 57.2517C45.5957 57.117 45.4346 57.0103 45.2576 56.938C45.0805 56.8657 44.8909 56.8293 44.6996 56.8306H41.5696C40.827 56.8306 40.1148 56.5356 39.5897 56.0105C39.0646 55.4854 38.7696 54.7731 38.7696 54.0305V52.7805C38.7696 52.4128 38.842 52.0487 38.9827 51.709C39.1235 51.3693 39.3297 51.0606 39.5897 50.8006C39.8497 50.5406 40.1584 50.3343 40.4981 50.1936C40.8378 50.0529 41.2019 49.9805 41.5696 49.9805H44.6996C45.0681 49.9792 45.4333 50.0508 45.7742 50.1909C46.1151 50.3311 46.4249 50.537 46.686 50.7971C46.947 51.0573 47.1542 51.3664 47.2955 51.7068C47.4369 52.0472 47.5096 52.412 47.5096 52.7805C47.507 52.9591 47.4342 53.1295 47.3069 53.2549C47.1797 53.3803 47.0082 53.4505 46.8296 53.4505C46.6519 53.4505 46.4815 53.3801 46.3558 53.2544C46.2302 53.1288 46.1596 52.9582 46.1596 52.7805C46.1596 52.5893 46.1218 52.4 46.0483 52.2234C45.9748 52.0468 45.8671 51.8865 45.7314 51.7517C45.5957 51.617 45.4346 51.5103 45.2576 51.438C45.0805 51.3657 44.8909 51.3293 44.6996 51.3306H41.5696C41.3792 51.3306 41.1906 51.3681 41.0147 51.4409C40.8388 51.5138 40.6789 51.6207 40.5443 51.7554C40.4097 51.89 40.3028 52.0497 40.23 52.2256C40.1571 52.4015 40.1196 52.5901 40.1196 52.7805V54.0305C40.1196 54.221 40.1571 54.4095 40.23 54.5855C40.3028 54.7614 40.4097 54.9213 40.5443 55.0559C40.6789 55.1906 40.8388 55.2973 41.0147 55.3701C41.1906 55.443 41.3792 55.4805 41.5696 55.4805H44.6996C45.4431 55.4805 46.1564 55.7752 46.683 56.3001C47.2097 56.8249 47.507 57.537 47.5096 58.2805V59.5706C47.4991 60.3089 47.1984 61.0134 46.6726 61.5318C46.1467 62.0501 45.438 62.3407 44.6996 62.3406Z" fill="#333333"/>
<path d="M43.1409 51.3287C42.9606 51.3287 42.7876 51.257 42.6601 51.1295C42.5326 51.0019 42.4609 50.8291 42.4609 50.6488V48.4786C42.4609 48.3898 42.4786 48.302 42.5129 48.22C42.5472 48.1381 42.5974 48.0636 42.6607 48.0013C42.724 47.9389 42.799 47.8898 42.8815 47.8568C42.9639 47.8237 43.0521 47.8073 43.1409 47.8087C43.3186 47.8087 43.4891 47.8793 43.6147 48.005C43.7403 48.1306 43.8109 48.3009 43.8109 48.4786V50.6488C43.811 50.8274 43.7407 50.9988 43.6153 51.1261C43.4899 51.2533 43.3195 51.3261 43.1409 51.3287Z" fill="#333333"/>
<path d="M43.1409 64.4984C43.0521 64.4997 42.9639 64.4833 42.8815 64.4503C42.799 64.4172 42.724 64.3681 42.6607 64.3057C42.5974 64.2434 42.5472 64.1692 42.5129 64.0872C42.4786 64.0053 42.4609 63.9173 42.4609 63.8284V61.6585C42.4609 61.5697 42.4786 61.4817 42.5129 61.3997C42.5472 61.3178 42.5974 61.2433 42.6607 61.181C42.724 61.1186 42.799 61.0695 42.8815 61.0365C42.9639 61.0034 43.0521 60.987 43.1409 60.9884C43.3186 60.9884 43.4891 61.059 43.6147 61.1846C43.7403 61.3103 43.8109 61.4808 43.8109 61.6585V63.8284C43.8109 64.0061 43.7403 64.1764 43.6147 64.3021C43.4891 64.4277 43.3186 64.4984 43.1409 64.4984Z" fill="#333333"/>
<path d="M58.1309 63.2296C57.9702 63.2283 57.8149 63.1719 57.6909 63.0697L50.5309 56.9398C50.4576 56.8768 50.399 56.7984 50.3592 56.7103C50.3195 56.6222 50.2996 56.5264 50.3009 56.4298C50.2989 56.333 50.3185 56.237 50.3583 56.1488C50.398 56.0605 50.457 55.9823 50.5309 55.9198L57.6909 49.7896C57.7892 49.7066 57.909 49.653 58.0364 49.6353C58.1639 49.6176 58.2937 49.6366 58.4109 49.6898C58.5275 49.7434 58.6263 49.8292 58.6954 49.9373C58.7646 50.0455 58.8012 50.1713 58.8009 50.2997V52.3497H68.4409C68.6213 52.3497 68.7942 52.4214 68.9218 52.5489C69.0493 52.6764 69.1209 52.8493 69.1209 53.0296C69.1209 53.1185 69.1033 53.2065 69.069 53.2884C69.0347 53.3704 68.9844 53.4446 68.9212 53.5069C68.8579 53.5693 68.7828 53.6184 68.7004 53.6515C68.618 53.6845 68.5298 53.7009 68.4409 53.6996H58.1309C58.0421 53.7009 57.9539 53.6845 57.8715 53.6515C57.789 53.6184 57.714 53.5693 57.6507 53.5069C57.5874 53.4446 57.5372 53.3704 57.5029 53.2884C57.4686 53.2065 57.4509 53.1185 57.4509 53.0296V51.7696L52.0109 56.4298L57.4509 61.0897V59.8297C57.4496 59.74 57.4662 59.6511 57.4999 59.568C57.5336 59.4849 57.5837 59.4092 57.6471 59.3458C57.7105 59.2824 57.786 59.2323 57.8691 59.1986C57.9522 59.1649 58.0413 59.1484 58.1309 59.1498H68.7109C68.7998 59.1497 68.8877 59.1672 68.9697 59.2015C69.0516 59.2358 69.1259 59.2862 69.1883 59.3495C69.2506 59.4127 69.2997 59.4877 69.3328 59.5702C69.3659 59.6526 69.3823 59.7409 69.3809 59.8297C69.3809 60.0074 69.3103 60.1777 69.1847 60.3033C69.059 60.429 68.8886 60.4996 68.7109 60.4996H58.8009V62.5697C58.8012 62.698 58.7646 62.8238 58.6954 62.932C58.6263 63.0401 58.5275 63.1261 58.4109 63.1798C58.3219 63.2152 58.2267 63.232 58.1309 63.2296Z" fill="#333333"/>
</g>
<defs>
<clipPath id="clip0_1075_171956">
<rect width="39.39" height="40.53" fill="white" transform="translate(30 30)"/>
</clipPath>
</defs>
</svg>
