<svg width="100" height="100" viewBox="0 0 100 100" fill="none" xmlns="http://www.w3.org/2000/svg">
<circle cx="50" cy="50" r="50" fill="#F2F6FB"/>
<g clip-path="url(#clip0_940_164374)">
<path d="M33.1318 57.5831L38.3934 55.9497L39.6301 54.7714V47.7014L41.3218 45.5197L46.5834 41.9731L45.9068 39.8031L45.4051 35.9531L47.0851 31.7997L49.9318 29.8164L53.0934 29.9797L55.4501 31.7997L56.7684 34.4014L57.1301 38.3564L56.4184 40.3514L55.4501 41.9731L61.2134 45.5197L62.8934 47.4214L63.1968 49.2181V56.3931L64.7484 55.8447L67.1401 56.1481L68.6334 57.3847V58.5164L60.1751 66.3914L54.6684 68.4447L47.9018 68.1997L39.6301 67.9781L32.8984 69.1097L33.1318 57.5831Z" fill="white"/>
<path d="M56.6614 62.7385L62.4947 57.0686C63.2604 56.3351 64.2854 55.9341 65.3456 55.9538C66.4058 55.9735 67.4151 56.412 68.1531 57.1735V57.1735C68.2734 57.2828 68.3695 57.4161 68.4353 57.5648C68.501 57.7135 68.535 57.8742 68.535 58.0368C68.535 58.1994 68.501 58.3601 68.4353 58.5087C68.3695 58.6574 68.2734 58.7908 68.1531 58.9001L60.9781 65.7369C58.9472 67.4562 56.3928 68.435 53.7331 68.5134C51.2031 68.4901 48.6759 68.3384 46.1614 68.0586C41.5567 67.8434 36.9437 68.2357 32.4414 69.2252" stroke="#333333" stroke-width="1.06" stroke-linecap="round" stroke-linejoin="round"/>
<path d="M43.4574 61.6086L48.0074 62.5887C49.4456 62.8957 50.9118 63.0519 52.3824 63.0552H54.8441C55.4629 63.0552 56.0564 62.8095 56.494 62.3719C56.9316 61.9344 57.1774 61.3408 57.1774 60.7219C57.1774 60.1031 56.9316 59.5095 56.494 59.0719C56.0564 58.6343 55.4629 58.3886 54.8441 58.3886H52.6741C50.6704 58.402 48.6851 58.0049 46.8407 57.2219C45.5707 56.6202 44.2514 56.1284 42.8974 55.7519C41.0064 55.299 39.0317 55.3298 37.1558 55.8416C35.2798 56.3534 33.5631 57.3298 32.1641 58.6802" stroke="#333333" stroke-width="1.06" stroke-linecap="round" stroke-linejoin="round"/>
<path d="M62.9042 56.6495V49.1946C62.9132 48.2781 62.6668 47.377 62.1926 46.5927C61.9269 46.1734 61.5961 45.7994 61.2126 45.4844C59.3636 44.2029 57.439 43.0341 55.4492 41.9844" stroke="#333333" stroke-width="1.06" stroke-miterlimit="10" stroke-linecap="round"/>
<path d="M47.0846 41.9727C45.0948 43.0224 43.1702 44.1911 41.3212 45.4727C40.9384 45.7849 40.611 46.1599 40.3529 46.5812C39.8734 47.3633 39.6266 48.2657 39.6412 49.1829V55.4827" stroke="#333333" stroke-width="1.06" stroke-miterlimit="10" stroke-linecap="round"/>
<path d="M57.1315 36.8855C57.1315 40.8988 54.5065 44.1538 51.2982 44.1538C48.0898 44.1538 45.4648 40.8988 45.4648 36.8855C45.4648 32.8721 48.0782 29.6055 51.2982 29.6055C54.5182 29.6055 57.1315 32.8721 57.1315 36.8855Z" stroke="#333333" stroke-width="1.06" stroke-miterlimit="10" stroke-linecap="round"/>
<path d="M33.5617 55.4727H31.4967C31.0843 55.4727 30.75 55.8069 30.75 56.2193V69.741C30.75 70.1534 31.0843 70.4877 31.4967 70.4877H33.5617C33.974 70.4877 34.3083 70.1534 34.3083 69.741V56.2193C34.3083 55.8069 33.974 55.4727 33.5617 55.4727Z" fill="#235AB0" stroke="#333333" stroke-miterlimit="10"/>
</g>
<defs>
<clipPath id="clip0_940_164374">
<rect width="38.9667" height="42.0817" fill="white" transform="translate(30.168 29)"/>
</clipPath>
</defs>
</svg>
