<svg width="91" height="90" viewBox="0 0 91 90" fill="none" xmlns="http://www.w3.org/2000/svg">
<circle cx="46" cy="45" r="45" fill="#FAFAFA"/>
<g clip-path="url(#clip0_1988_378951)">
<path d="M20.5299 32.1602H69.9899L70.2099 56.8302L73.9499 58.1302L63.9099 68.1102L62.1899 62.1802H23.9399L21.0699 61.1402L20.4199 59.0902L20.5299 32.1602Z" fill="white"/>
<path d="M20.5303 32.1598V23.4298L22.8803 21.5098H67.7503L70.1903 23.2398L70.2103 32.6898L20.5303 32.1598Z" fill="#235AB0"/>
<path d="M63.9403 68.8599H63.8003C63.7119 68.8356 63.6313 68.7886 63.5664 68.7237C63.5016 68.6589 63.4546 68.5782 63.4302 68.4898L59.6503 54.38C59.6246 54.2911 59.6231 54.1972 59.646 54.1075C59.6689 54.0179 59.7152 53.936 59.7803 53.8702C59.845 53.8034 59.9264 53.7552 60.0161 53.7305C60.1058 53.7059 60.2005 53.7056 60.2903 53.7301L74.4003 57.5098C74.4901 57.5336 74.5722 57.5803 74.6388 57.6451C74.7054 57.7099 74.7541 57.7908 74.7803 57.88C74.8036 57.9698 74.803 58.0644 74.7784 58.1539C74.7539 58.2434 74.7062 58.3249 74.6403 58.3902L64.3102 68.7198C64.2102 68.8134 64.0772 68.8638 63.9403 68.8599ZM60.9403 54.9698L64.2402 67.3101L73.2402 58.3101L60.9403 54.9698Z" fill="#333333"/>
<path d="M74.1 68.6899C73.9668 68.6893 73.8386 68.6393 73.7399 68.5498L68.61 63.6802C68.5595 63.6317 68.5193 63.5732 68.4918 63.5088C68.4644 63.4443 68.4502 63.3752 68.4502 63.3052C68.4502 63.2351 68.4644 63.1655 68.4918 63.1011C68.5193 63.0366 68.5595 62.9787 68.61 62.9302C68.6584 62.8812 68.716 62.842 68.7795 62.8154C68.843 62.7889 68.9111 62.7754 68.98 62.7754C69.0488 62.7754 69.117 62.7889 69.1805 62.8154C69.244 62.842 69.3016 62.8812 69.35 62.9302L74.48 67.7998C74.5305 67.8483 74.5706 67.9068 74.5981 67.9712C74.6255 68.0356 74.6397 68.1048 74.6397 68.1748C74.6397 68.2448 74.6255 68.3145 74.5981 68.3789C74.5706 68.4433 74.5305 68.5013 74.48 68.5498C74.4296 68.5979 74.3698 68.6351 74.3044 68.6592C74.2391 68.6833 74.1695 68.6938 74.1 68.6899Z" fill="#333333"/>
<path d="M70.2103 32.6899H20.5203C20.3797 32.6899 20.2449 32.6341 20.1455 32.5347C20.0461 32.4353 19.9902 32.3007 19.9902 32.1602C19.9902 32.0196 20.0461 31.8846 20.1455 31.7852C20.2449 31.6858 20.3797 31.6299 20.5203 31.6299H70.2003C70.3408 31.6299 70.4756 31.6858 70.575 31.7852C70.6744 31.8846 70.7303 32.0196 70.7303 32.1602C70.7303 32.3007 70.6744 32.4353 70.575 32.5347C70.4756 32.6341 70.3408 32.6899 70.2003 32.6899H70.2103Z" fill="#333333"/>
<path d="M67.52 21H23.2C22.3513 21 21.5374 21.3369 20.9373 21.937C20.3371 22.5371 20 23.3515 20 24.2002V58.7397C20.0155 59.7799 20.4356 60.7732 21.1711 61.5088C21.9067 62.2444 22.8999 62.6647 23.94 62.6802H62.28C62.4206 62.6802 62.5554 62.6243 62.6548 62.5249C62.7542 62.4255 62.81 62.2905 62.81 62.1499C62.81 62.0093 62.7542 61.8748 62.6548 61.7754C62.5554 61.676 62.4206 61.6201 62.28 61.6201H23.94C23.1762 61.6201 22.4437 61.3165 21.9036 60.7764C21.3635 60.2363 21.06 59.5036 21.06 58.7397V24.21C21.06 23.9289 21.1154 23.6508 21.2229 23.3911C21.3304 23.1315 21.4881 22.8955 21.6868 22.6968C21.8855 22.4981 22.1215 22.3405 22.3811 22.2329C22.6407 22.1254 22.919 22.0698 23.2 22.0698H67.52C68.0885 22.0698 68.6339 22.2952 69.0368 22.6963C69.4397 23.0973 69.6674 23.6415 69.67 24.21V56.8599C69.6597 56.9349 69.6654 57.0114 69.6871 57.084C69.7087 57.1566 69.7457 57.2237 69.7954 57.2808C69.8452 57.3379 69.9065 57.3837 69.9755 57.415C70.0444 57.4464 70.1193 57.4624 70.195 57.4624C70.2707 57.4624 70.3456 57.4464 70.4146 57.415C70.4835 57.3837 70.5449 57.3379 70.5947 57.2808C70.6444 57.2237 70.6813 57.1566 70.7029 57.084C70.7246 57.0114 70.7304 56.9349 70.72 56.8599V24.21C70.7213 23.7889 70.6395 23.3718 70.4793 22.9824C70.3191 22.593 70.0836 22.2391 69.7863 21.9409C69.489 21.6427 69.1358 21.4061 68.7469 21.2446C68.3581 21.0832 67.9411 21 67.52 21Z" fill="#333333"/>
<path d="M25.7402 26.8999C25.7402 27.0977 25.7989 27.2911 25.9088 27.4556C26.0187 27.62 26.1749 27.748 26.3576 27.8237C26.5403 27.8994 26.7414 27.9194 26.9354 27.8809C27.1293 27.8423 27.3075 27.7468 27.4474 27.6069C27.5872 27.4671 27.6825 27.2892 27.7211 27.0952C27.7597 26.9012 27.7398 26.6998 27.6641 26.5171C27.5884 26.3344 27.4603 26.1782 27.2958 26.0684C27.1314 25.9585 26.938 25.8999 26.7402 25.8999C26.475 25.8999 26.2207 26.0053 26.0331 26.1929C25.8456 26.3804 25.7402 26.6347 25.7402 26.8999Z" fill="white"/>
<path d="M32.0703 27.8999C32.6226 27.8999 33.0703 27.4522 33.0703 26.8999C33.0703 26.3476 32.6226 25.8999 32.0703 25.8999C31.518 25.8999 31.0703 26.3476 31.0703 26.8999C31.0703 27.4522 31.518 27.8999 32.0703 27.8999Z" fill="white"/>
<path d="M37.4004 27.8999C37.9527 27.8999 38.4004 27.4522 38.4004 26.8999C38.4004 26.3476 37.9527 25.8999 37.4004 25.8999C36.8481 25.8999 36.4004 26.3476 36.4004 26.8999C36.4004 27.4522 36.8481 27.8999 37.4004 27.8999Z" fill="white"/>
<path d="M45.1797 40.9399L42.5098 41.6001V40.71L45.8198 39.1602H46.6098V53.6899H45.1797V40.9399Z" fill="#333333"/>
</g>
<defs>
<clipPath id="clip0_1988_378951">
<rect width="54.79" height="47.86" fill="white" transform="translate(20 21)"/>
</clipPath>
</defs>
</svg>
