<svg width="12" height="12" viewBox="0 0 12 12" fill="none" xmlns="http://www.w3.org/2000/svg">
<path fill-rule="evenodd" clip-rule="evenodd" d="M7.54287 2.02602C7.64618 2.25583 8.03246 3.1938 8.2256 3.33919C8.41874 3.48457 9.38893 3.57837 9.63147 3.6112C10.0402 3.66279 10.4579 3.705 10.8667 3.76597C11.3293 3.841 11.7919 3.98639 11.9536 4.51166C12.1153 5.03223 11.8279 5.44025 11.4955 5.78261C11.2035 6.08276 10.8846 6.37354 10.5837 6.669C10.4085 6.84252 9.6719 7.51786 9.60003 7.75236C9.52817 7.98685 9.73927 8.98579 9.78419 9.23436C9.86055 9.65645 9.95487 10.0832 10.0222 10.51C10.0986 10.9931 10.1076 11.4949 9.67639 11.8185C9.24969 12.1421 8.79154 11.9779 8.37831 11.7528C8.01 11.5558 7.65067 11.3307 7.29134 11.1197C7.08023 10.9977 6.23581 10.4772 5.99775 10.4772C5.7597 10.4772 4.91977 10.9977 4.70866 11.1197C4.34484 11.326 3.98551 11.5558 3.62169 11.7528C3.20846 11.9779 2.75031 12.1374 2.32361 11.8185C1.89691 11.4949 1.9014 10.9884 1.97776 10.51C2.04513 10.0832 2.13945 9.65645 2.21581 9.23436C2.26073 8.98579 2.47633 7.98685 2.39997 7.75236C2.3281 7.51786 1.59148 6.84252 1.4163 6.669C1.11537 6.37354 0.79646 6.08745 0.504505 5.78261C0.172125 5.44025 -0.115338 5.03692 0.0463601 4.51166C0.208058 3.98639 0.670695 3.83631 1.13333 3.76597C1.54207 3.70031 1.95979 3.66279 2.36853 3.6112C2.61107 3.57837 3.58126 3.48457 3.7744 3.33919C3.96754 3.1938 4.35382 2.25583 4.45713 2.02602C4.6323 1.63677 4.79849 1.23344 4.98265 0.848867C5.19375 0.412709 5.46774 0 5.99775 0C6.52777 0 6.80625 0.412709 7.01286 0.848867C7.19702 1.23344 7.36321 1.63677 7.53838 2.02602H7.54287Z" fill="#FFD600"/>
</svg>
