<svg width="100" height="100" viewBox="0 0 100 100" fill="none" xmlns="http://www.w3.org/2000/svg">
<circle cx="50" cy="50" r="50" fill="#F2F6FB"/>
<g clip-path="url(#clip0_1283_202862)">
<path d="M43.29 24.7109L41.49 26.7509V34.2709L43.29 35.8409L53.85 36.0509L56.55 38.5509V26.8809L54.92 24.7109H43.29Z" fill="#235AB0"/>
<path d="M30.78 45.5887L29.53 41.7587L32.29 37.4487L35.49 36.9688L38.34 37.7087L40.6 40.7888V44.0787L39.55 45.6287L39.88 46.6687L43.53 49.9587V52.2688L43.77 58.1587L41.99 60.2287H40.6V73.1387L38.68 75.2487L36.02 74.7987L35.19 73.7087L33.75 74.6287L31.66 75.2487L29.73 73.1387L29.53 60.2687L27.91 59.9487L26.56 57.9187V50.4087L31.03 46.1487L30.78 45.5887Z" fill="white"/>
<path d="M60.76 46.3683L59.51 42.5283L62.27 38.2183L65.47 37.7383L68.31 38.4783L70.58 41.5583V44.8483L69.53 46.3983L69.86 47.4483L73.51 50.7283V53.0483L73.75 58.9283L71.98 60.9983H70.58V73.9083L68.66 76.0183L66 75.5683L65.17 74.4783L63.73 75.3983L61.64 76.0183L59.71 73.9083L59.51 61.0383L57.89 60.7183L56.55 58.6883V51.1783L61.01 46.9183L60.76 46.3683Z" fill="white"/>
<path d="M56.49 39.1001C56.3549 39.0998 56.2254 39.0459 56.13 38.9502L53.6 36.5H44.24C43.3639 36.4974 42.5245 36.1476 41.9059 35.5271C41.2874 34.9066 40.94 34.0663 40.94 33.1902V27.3101C40.94 26.4339 41.2874 25.5936 41.9059 24.9731C42.5245 24.3527 43.3639 24.0026 44.24 24H53.72C54.5961 24.0026 55.4355 24.3527 56.0541 24.9731C56.6727 25.5936 57.02 26.4339 57.02 27.3101V38.5701C57.0207 38.6741 56.9907 38.7761 56.9338 38.8633C56.8769 38.9504 56.7956 39.0188 56.7 39.0601C56.6335 39.0878 56.562 39.1015 56.49 39.1001ZM44.24 25.1001C43.945 25.1001 43.6529 25.1583 43.3805 25.2715C43.1081 25.3847 42.8607 25.5507 42.6525 25.7598C42.4444 25.9688 42.2796 26.2168 42.1676 26.4897C42.0557 26.7627 41.9987 27.0551 42 27.3501V33.23C41.9987 33.525 42.0557 33.8174 42.1676 34.0903C42.2796 34.3633 42.4444 34.6115 42.6525 34.8206C42.8607 35.0296 43.1081 35.1954 43.3805 35.3086C43.6529 35.4218 43.945 35.48 44.24 35.48H53.82C53.9582 35.4798 54.0909 35.5338 54.19 35.6301L55.97 37.3601V27.3601C55.97 26.7634 55.733 26.191 55.311 25.769C54.889 25.3471 54.3167 25.1101 53.72 25.1101L44.24 25.1001Z" fill="#333333"/>
<path d="M29.64 60.8411C28.6746 60.8411 27.7488 60.4575 27.0661 59.7749C26.3835 59.0923 26 58.1666 26 57.2012V51.571C26.0015 50.9818 26.1331 50.4001 26.3855 49.8677C26.6379 49.3352 27.0048 48.8651 27.46 48.491L30.79 45.6311C30.8384 45.5821 30.896 45.5431 30.9595 45.5166C31.023 45.4901 31.0912 45.4766 31.16 45.4766C31.2288 45.4766 31.297 45.4901 31.3605 45.5166C31.424 45.5431 31.4816 45.5821 31.53 45.6311C31.5756 45.6842 31.6102 45.7458 31.6318 45.8123C31.6535 45.8788 31.6618 45.9488 31.6562 46.0186C31.6506 46.0883 31.6313 46.1563 31.5993 46.2185C31.5674 46.2807 31.5234 46.336 31.47 46.3811L28.14 49.251C27.7984 49.5266 27.5231 49.8756 27.3344 50.272C27.1457 50.6683 27.0485 51.102 27.05 51.541V57.1711C27.05 57.8554 27.3218 58.5115 27.8057 58.9954C28.2895 59.4792 28.9457 59.751 29.63 59.751C29.7706 59.751 29.9054 59.8069 30.0048 59.9062C30.1042 60.0056 30.16 60.1404 30.16 60.281C30.1641 60.3523 30.1537 60.4236 30.1295 60.4907C30.1053 60.5579 30.0678 60.6196 30.0192 60.6719C29.9707 60.7242 29.9121 60.7661 29.8469 60.7952C29.7817 60.8243 29.7114 60.8398 29.64 60.8411Z" fill="#333333"/>
<path d="M40.67 60.8384C40.6004 60.8384 40.5315 60.8247 40.4672 60.7981C40.4029 60.7715 40.3445 60.7323 40.2953 60.6831C40.246 60.6339 40.207 60.5755 40.1804 60.5112C40.1537 60.4469 40.14 60.3779 40.14 60.3083C40.14 60.1678 40.1959 60.033 40.2953 59.9336C40.3946 59.8342 40.5295 59.7783 40.67 59.7783C41.3543 59.7783 42.0105 59.5065 42.4944 59.0227C42.9782 58.5389 43.25 57.8827 43.25 57.1985V51.5683C43.2461 51.1352 43.1485 50.708 42.9638 50.3162C42.7791 49.9243 42.5117 49.577 42.18 49.2983L38.86 46.4585C38.8076 46.4135 38.7647 46.3583 38.7338 46.2966C38.7029 46.2349 38.6845 46.1677 38.6799 46.0989C38.6752 46.03 38.6843 45.9608 38.7067 45.8955C38.729 45.8302 38.7642 45.7699 38.81 45.7183C38.8543 45.6652 38.9087 45.6214 38.9701 45.5896C39.0314 45.5578 39.0985 45.5385 39.1674 45.5329C39.2363 45.5274 39.3057 45.5356 39.3713 45.5571C39.437 45.5786 39.4978 45.6132 39.55 45.6584L42.86 48.4883C43.3134 48.8634 43.6784 49.3341 43.929 49.8664C44.1797 50.3988 44.3098 50.9799 44.31 51.5683V57.1985C44.3074 58.1631 43.923 59.0872 43.241 59.7693C42.5589 60.4513 41.6346 60.8357 40.67 60.8384Z" fill="#333333"/>
<path d="M40.6 73.1416C40.5304 73.1416 40.4615 73.128 40.3972 73.1013C40.3329 73.0747 40.2745 73.0355 40.2252 72.9863C40.176 72.9371 40.137 72.8788 40.1104 72.8145C40.0837 72.7502 40.07 72.6812 40.07 72.6116V52.3816C40.07 52.241 40.1258 52.1062 40.2252 52.0068C40.3246 51.9074 40.4594 51.8516 40.6 51.8516C40.7406 51.8516 40.8754 51.9074 40.9748 52.0068C41.0742 52.1062 41.13 52.241 41.13 52.3816V72.6116C41.13 72.6812 41.1163 72.7502 41.0897 72.8145C41.063 72.8788 41.024 72.9371 40.9748 72.9863C40.9256 73.0355 40.8671 73.0747 40.8028 73.1013C40.7385 73.128 40.6696 73.1416 40.6 73.1416Z" fill="#333333"/>
<path d="M32.48 75.8398C31.6215 75.8372 30.7989 75.495 30.1919 74.8879C29.5848 74.2809 29.2426 73.4583 29.24 72.5999V52.3699C29.24 52.3003 29.2537 52.2313 29.2803 52.167C29.307 52.1027 29.346 52.0443 29.3952 51.9951C29.4444 51.9459 29.5029 51.9068 29.5672 51.8801C29.6315 51.8535 29.7004 51.8398 29.77 51.8398C29.9115 51.8425 30.0463 51.9005 30.1454 52.0015C30.2445 52.1025 30.3 52.2384 30.3 52.3799V54.2197V72.5999C30.3026 73.1772 30.5331 73.7302 30.9414 74.1384C31.3497 74.5467 31.9026 74.7772 32.48 74.7798C33.0573 74.7772 33.6103 74.5467 34.0186 74.1384C34.4268 73.7302 34.6574 73.1772 34.66 72.5999V61.8799C34.66 61.8103 34.6737 61.7413 34.7003 61.677C34.727 61.6127 34.766 61.5543 34.8152 61.5051C34.8644 61.4559 34.9229 61.4168 34.9872 61.3901C35.0515 61.3635 35.1204 61.3499 35.19 61.3499C35.2596 61.3499 35.3285 61.3635 35.3928 61.3901C35.4571 61.4168 35.5155 61.4559 35.5648 61.5051C35.614 61.5543 35.653 61.6127 35.6796 61.677C35.7063 61.7413 35.72 61.8103 35.72 61.8799V72.5999C35.7173 73.4583 35.3751 74.2809 34.7681 74.8879C34.1611 75.495 33.3385 75.8372 32.48 75.8398Z" fill="#333333"/>
<path d="M35.19 48.3281C33.5987 48.3281 32.0726 47.696 30.9474 46.5708C29.8221 45.4456 29.19 43.9194 29.19 42.3281C29.19 40.7368 29.8221 39.2107 30.9474 38.0854C32.0726 36.9602 33.5987 36.3281 35.19 36.3281C36.7813 36.3281 38.3074 36.9602 39.4326 38.0854C40.5579 39.2107 41.19 40.7368 41.19 42.3281C41.19 43.9194 40.5579 45.4456 39.4326 46.5708C38.3074 47.696 36.7813 48.3281 35.19 48.3281ZM35.19 37.4482C33.8869 37.4482 32.637 37.9652 31.7146 38.8857C30.7922 39.8063 30.2727 41.055 30.27 42.3582C30.2727 43.6613 30.7922 44.91 31.7146 45.8306C32.637 46.7511 33.8869 47.2681 35.19 47.2681C36.4922 47.2681 37.7411 46.7509 38.6619 45.8301C39.5827 44.9093 40.1 43.6604 40.1 42.3582C40.1 41.0559 39.5827 39.807 38.6619 38.8862C37.7411 37.9654 36.4922 37.4482 35.19 37.4482Z" fill="#333333"/>
<path d="M37.9 75.8391C37.0415 75.8365 36.2189 75.4943 35.6119 74.8872C35.0048 74.2802 34.6626 73.4576 34.66 72.5991V70.3191C34.66 70.1785 34.7158 70.0437 34.8152 69.9443C34.9146 69.8449 35.0494 69.7891 35.19 69.7891C35.3305 69.7891 35.4653 69.8449 35.5647 69.9443C35.6641 70.0437 35.72 70.1785 35.72 70.3191V72.5991C35.72 73.1773 35.9496 73.7318 36.3585 74.1406C36.7673 74.5495 37.3218 74.7791 37.9 74.7791C38.4773 74.7764 39.0303 74.546 39.4386 74.1377C39.8468 73.7294 40.0773 73.1765 40.08 72.5991C40.08 72.5295 40.0937 72.4605 40.1203 72.3962C40.147 72.3319 40.186 72.2736 40.2352 72.2244C40.2844 72.1752 40.3428 72.136 40.4072 72.1094C40.4715 72.0827 40.5404 72.0691 40.61 72.0691C40.6791 72.0691 40.7476 72.0829 40.8113 72.1096C40.8751 72.1364 40.9328 72.1755 40.9813 72.2249C41.0297 72.2742 41.0678 72.3327 41.0933 72.397C41.1188 72.4612 41.1313 72.53 41.13 72.5991C41.13 73.4567 40.79 74.2794 40.1845 74.8867C39.5791 75.4941 38.7575 75.8365 37.9 75.8391Z" fill="#333333"/>
<path d="M59.6 61.7007C58.6363 61.698 57.713 61.3132 57.0326 60.6309C56.3521 59.9485 55.97 59.0242 55.97 58.0605V52.4307C55.9702 51.8422 56.1003 51.2609 56.351 50.7285C56.6016 50.1961 56.9666 49.7257 57.42 49.3506L60.75 46.4905C60.7983 46.4415 60.856 46.4028 60.9195 46.3762C60.983 46.3497 61.0511 46.3359 61.12 46.3359C61.1888 46.3359 61.257 46.3497 61.3205 46.3762C61.384 46.4028 61.4416 46.4415 61.49 46.4905C61.5871 46.5911 61.6414 46.7256 61.6414 46.8655C61.6414 47.0054 61.5871 47.1398 61.49 47.2405L58.15 50.1106C57.8117 50.3842 57.5391 50.7302 57.3522 51.123C57.1653 51.5159 57.0689 51.9456 57.07 52.3806V58.0105C57.07 58.6948 57.3418 59.3511 57.8256 59.835C58.3095 60.3188 58.9657 60.5906 59.65 60.5906C59.7905 60.5906 59.9253 60.6465 60.0247 60.7458C60.1241 60.8452 60.18 60.98 60.18 61.1206C60.1878 61.1987 60.1781 61.2774 60.1517 61.3513C60.1253 61.4252 60.0829 61.4924 60.0274 61.5479C59.9719 61.6033 59.9047 61.646 59.8308 61.6724C59.7569 61.6988 59.6781 61.7085 59.6 61.7007Z" fill="#333333"/>
<path d="M70.63 61.6987C70.4894 61.6987 70.3546 61.6428 70.2552 61.5434C70.1558 61.444 70.1 61.3092 70.1 61.1687C70.1 61.0281 70.1558 60.8933 70.2552 60.7939C70.3546 60.6945 70.4894 60.6386 70.63 60.6386C71.3143 60.6386 71.9705 60.3669 72.4543 59.883C72.9382 59.3992 73.21 58.7428 73.21 58.0586V52.4287C73.2109 51.9947 73.1154 51.5659 72.9303 51.1733C72.7453 50.7807 72.4753 50.4342 72.14 50.1587L68.83 47.3186C68.7769 47.2743 68.7332 47.22 68.7013 47.1587C68.6695 47.0973 68.6502 47.0301 68.6446 46.9612C68.6391 46.8923 68.6473 46.823 68.6688 46.7573C68.6903 46.6916 68.7247 46.6308 68.77 46.5786C68.8151 46.5252 68.8704 46.4811 68.9326 46.4492C68.9949 46.4172 69.0628 46.3979 69.1325 46.3923C69.2022 46.3867 69.2724 46.3951 69.3389 46.4167C69.4054 46.4384 69.4669 46.473 69.52 46.5185L72.82 49.3486C73.2734 49.7237 73.6384 50.1941 73.889 50.7265C74.1396 51.2589 74.2697 51.8402 74.27 52.4287V58.0586C74.27 59.024 73.8865 59.9499 73.2039 60.6325C72.5212 61.3152 71.5954 61.6987 70.63 61.6987Z" fill="#333333"/>
<path d="M70.57 74.0283C70.4294 74.0283 70.2946 73.9724 70.1952 73.873C70.0958 73.7737 70.04 73.6389 70.04 73.4983V53.2683C70.04 53.1277 70.0958 52.9929 70.1952 52.8936C70.2946 52.7942 70.4294 52.7383 70.57 52.7383C70.6391 52.7383 70.7076 52.7521 70.7713 52.7788C70.8351 52.8056 70.8929 52.8449 70.9413 52.8943C70.9897 52.9436 71.0278 53.0022 71.0533 53.0664C71.0789 53.1307 71.0913 53.1992 71.09 53.2683V73.4983C71.0913 73.5674 71.0789 73.6362 71.0533 73.7004C71.0278 73.7647 70.9897 73.8232 70.9413 73.8726C70.8929 73.9219 70.8351 73.961 70.7713 73.9878C70.7076 74.0145 70.6391 74.0283 70.57 74.0283Z" fill="#333333"/>
<path d="M62.44 76.7383C61.5824 76.7356 60.7609 76.3932 60.1554 75.7859C59.55 75.1786 59.21 74.3559 59.21 73.4983V53.2683C59.215 53.1293 59.2724 52.9975 59.3707 52.8992C59.4691 52.8008 59.601 52.7432 59.74 52.7383C59.8806 52.7383 60.0154 52.7942 60.1148 52.8936C60.2142 52.9929 60.27 53.1277 60.27 53.2683V73.4983C60.27 74.0747 60.4983 74.6278 60.905 75.0364C61.3116 75.4449 61.8636 75.6758 62.44 75.6785C63.0182 75.6785 63.5727 75.4486 63.9815 75.0398C64.3903 74.631 64.62 74.0765 64.62 73.4983V62.7783C64.62 62.6378 64.6758 62.503 64.7752 62.4036C64.8746 62.3042 65.0094 62.2483 65.15 62.2483C65.2906 62.2483 65.4254 62.3042 65.5248 62.4036C65.6242 62.503 65.68 62.6378 65.68 62.7783V73.4983C65.6774 74.3568 65.3352 75.1793 64.7281 75.7864C64.1211 76.3934 63.2985 76.7356 62.44 76.7383Z" fill="#333333"/>
<path d="M65.15 49.2188C63.5587 49.2188 62.0326 48.5866 60.9074 47.4614C59.7821 46.3362 59.15 44.81 59.15 43.2188C59.15 41.6275 59.7821 40.1015 60.9074 38.9763C62.0326 37.8511 63.5587 37.2188 65.15 37.2188C66.7413 37.2188 68.2674 37.8511 69.3926 38.9763C70.5179 40.1015 71.15 41.6275 71.15 43.2188C71.15 44.81 70.5179 46.3362 69.3926 47.4614C68.2674 48.5866 66.7413 49.2188 65.15 49.2188ZM65.15 38.3389C63.8478 38.3389 62.5989 38.8561 61.6781 39.7769C60.7573 40.6977 60.24 41.9466 60.24 43.2488C60.24 44.551 60.7573 45.7999 61.6781 46.7207C62.5989 47.6415 63.8478 48.1589 65.15 48.1589C66.4522 48.1589 67.7011 47.6415 68.6219 46.7207C69.5427 45.7999 70.06 44.551 70.06 43.2488C70.06 41.9466 69.5427 40.6977 68.6219 39.7769C67.7011 38.8561 66.4522 38.3389 65.15 38.3389Z" fill="#333333"/>
<path d="M67.86 76.7412C67.0015 76.7386 66.1789 76.3964 65.5719 75.7893C64.9648 75.1823 64.6226 74.3597 64.62 73.5012V71.2212C64.62 71.1516 64.6337 71.0829 64.6603 71.0186C64.687 70.9543 64.726 70.8957 64.7752 70.8464C64.8244 70.7972 64.8829 70.7583 64.9472 70.7317C65.0115 70.7051 65.0804 70.6914 65.15 70.6914C65.2196 70.6914 65.2885 70.7051 65.3528 70.7317C65.4171 70.7583 65.4755 70.7972 65.5248 70.8464C65.574 70.8957 65.613 70.9543 65.6397 71.0186C65.6663 71.0829 65.68 71.1516 65.68 71.2212V73.5012C65.6826 74.0786 65.9131 74.6315 66.3214 75.0398C66.7297 75.4481 67.2826 75.6788 67.86 75.6814C68.4374 75.6788 68.9903 75.4481 69.3986 75.0398C69.8068 74.6315 70.0374 74.0786 70.04 73.5012C70.04 73.3607 70.0958 73.2259 70.1952 73.1265C70.2946 73.0271 70.4294 72.9712 70.57 72.9712C70.7106 72.9712 70.8454 73.0271 70.9448 73.1265C71.0442 73.2259 71.1 73.3607 71.1 73.5012C71.0974 74.3597 70.7552 75.1823 70.1481 75.7893C69.5411 76.3964 68.7185 76.7386 67.86 76.7412Z" fill="#333333"/>
</g>
<defs>
<clipPath id="clip0_1283_202862">
<rect width="48.27" height="52.73" fill="white" transform="translate(26 24)"/>
</clipPath>
</defs>
</svg>
