<svg width="16" height="16" viewBox="0 0 16 16" fill="none" xmlns="http://www.w3.org/2000/svg">
<circle cx="8" cy="8" r="8" fill="#2F436B"/>
<g clip-path="url(#clip0_961_169233)">
<path d="M7.3442 11.3774H8.7918C8.89853 11.3774 8.98391 11.4541 8.98391 11.55V12.8274C8.98391 12.9233 8.89659 13.0017 8.78986 13.0017H7.34226C7.23553 13.0017 7.15015 12.9233 7.15015 12.8292V11.5517C7.15015 11.4559 7.23553 11.3792 7.34226 11.3792L7.3442 11.3774Z" fill="white"/>
<path d="M8.14166 3C6.14489 3 5 4.10491 5 6.02893C5 6.12478 5.08538 6.20321 5.19211 6.20321H6.2749C6.38163 6.20321 6.46701 6.12652 6.46701 6.02893C6.46701 4.81248 7.01035 4.22168 8.12613 4.22168C9.03234 4.22168 9.52911 4.66434 9.52911 5.47124C9.52911 5.95051 9.28072 6.42105 8.77038 6.90728C7.7458 7.88498 7.36546 8.81387 7.36546 10.3318C7.36546 10.4277 7.45278 10.5044 7.55951 10.5044H8.57439C8.68111 10.5044 8.76843 10.4277 8.76843 10.3318C8.76843 9.24782 8.90815 8.66051 9.77167 7.82398C10.5091 7.10945 11 6.43499 11 5.47124C11 3.99338 9.85123 3 8.14166 3Z" fill="white"/>
</g>
<defs>
<clipPath id="clip0_961_169233">
<rect width="6" height="10" fill="white" transform="translate(5 3)"/>
</clipPath>
</defs>
</svg>
