<svg width="90" height="90" viewBox="0 0 90 90" fill="none" xmlns="http://www.w3.org/2000/svg">
<circle cx="45" cy="45" r="45" fill="#FAFAFA"/>
<g clip-path="url(#clip0_1081_173246)">
<path d="M30.1791 45.5811L26.8891 42.3611L29.4491 40.4511L30.9091 41.0711L32.1391 42.0011L34.5191 41.0611L36.9791 41.9211L39.4591 40.4511L42.0591 42.5711L38.4591 45.9211L45.5591 56.2811V33.3611L46.3891 32.3511H48.7691L49.0891 29.1811L50.5991 28.3711H63.0591L63.9091 30.1811L63.8891 32.3511L66.5491 32.6411L67.1191 34.3511V68.1511H28.7191L25.3791 66.3611L22.3691 62.0911L22.6591 57.9411L24.8491 53.6711L30.1791 45.5811Z" fill="white"/>
<path d="M46.5406 58.5714H52.4306V55.6914L57.9906 60.4014L52.4306 65.1114V62.2314H46.3906" fill="#235AB0"/>
<path d="M51.9306 66.1894V62.7294H46.3906V61.7294H52.9306V64.0294L57.2106 60.3994L52.9306 56.7694V59.0694H46.5406V58.0694H51.9306V54.6094L58.7606 60.3994L51.9306 66.1894Z" fill="#333333"/>
<path d="M39.3495 68.4395H29.5595C27.583 68.4424 25.6846 67.6681 24.274 66.2837C22.8634 64.8993 22.0537 63.0157 22.0195 61.0396C22.0346 58.3481 22.9145 55.7328 24.5295 53.5796L29.9195 45.0195H39.1495L44.4595 53.6096C46.0515 55.7355 46.9238 58.3137 46.9495 60.9695C46.897 62.1132 46.6075 63.2335 46.0995 64.2595C45.4811 65.5203 44.5197 66.5812 43.3258 67.3206C42.1319 68.0599 40.7538 68.4476 39.3495 68.4395ZM30.5095 46.0796L25.3995 54.1694C23.916 56.1281 23.1025 58.5125 23.0795 60.9695C23.0953 62.6777 23.785 64.3106 24.9985 65.5129C26.2121 66.7152 27.8513 67.3897 29.5595 67.3896H39.3495C40.5537 67.3981 41.7358 67.0664 42.76 66.4331C43.7842 65.7998 44.609 64.8906 45.1395 63.8096C45.5842 62.9253 45.8396 61.958 45.8895 60.9695C45.8651 58.5282 45.059 56.159 43.5895 54.2095L38.5895 46.0796H30.5095Z" fill="#333333"/>
<path d="M38.8407 46.0786C38.7697 46.0799 38.6993 46.0661 38.6338 46.0386C38.5684 46.011 38.5094 45.9701 38.4607 45.9185C38.4114 45.8692 38.3723 45.8109 38.3456 45.7466C38.319 45.6822 38.3052 45.6131 38.3052 45.5435C38.3052 45.4738 38.319 45.4049 38.3456 45.3406C38.3723 45.2762 38.4114 45.2177 38.4607 45.1685L41.2707 42.4485L40.5007 41.6785C40.1827 41.3752 39.7601 41.2063 39.3207 41.2063C38.8813 41.2063 38.4587 41.3752 38.1407 41.6785L36.8407 42.9785L36.0607 42.1985C35.6486 41.7893 35.0914 41.5598 34.5107 41.5598C33.93 41.5598 33.3728 41.7893 32.9607 42.1985L32.1807 42.9785L30.8807 41.6785C30.561 41.3746 30.1368 41.2053 29.6957 41.2053C29.2546 41.2053 28.8304 41.3746 28.5107 41.6785L27.7407 42.4485L30.5507 45.1685C30.6 45.2177 30.6391 45.2762 30.6658 45.3406C30.6924 45.4049 30.7062 45.4738 30.7062 45.5435C30.7062 45.6131 30.6924 45.6822 30.6658 45.7466C30.6391 45.8109 30.6 45.8692 30.5507 45.9185C30.5015 45.9677 30.443 46.007 30.3787 46.0337C30.3143 46.0604 30.2454 46.074 30.1757 46.074C30.1061 46.074 30.0371 46.0604 29.9727 46.0337C29.9084 46.007 29.8499 45.9677 29.8007 45.9185L26.2207 42.4485L27.7407 40.9285C28.2606 40.428 28.9541 40.1484 29.6757 40.1484C30.3973 40.1484 31.0909 40.428 31.6107 40.9285L32.1607 41.4785C32.7712 40.8733 33.5961 40.5339 34.4557 40.5339C35.3154 40.5339 36.1402 40.8733 36.7507 41.4785L37.3007 40.9285C37.8201 40.4309 38.5115 40.1533 39.2307 40.1533C39.9499 40.1533 40.6413 40.4309 41.1607 40.9285L42.6907 42.4485L39.1107 45.9185C39.0382 45.9969 38.9443 46.0526 38.8407 46.0786Z" fill="#333333"/>
<path d="M59.4902 52.7383H58.4902V53.9683H59.4902V52.7383Z" fill="#235AB0"/>
<path d="M64.0703 52.7383H63.0703V53.9683H64.0703V52.7383Z" fill="#235AB0"/>
<path d="M59.4902 49.0312H58.4902V50.2612H59.4902V49.0312Z" fill="#235AB0"/>
<path d="M54.4902 52.7383H53.4902V53.9683H54.4902V52.7383Z" fill="#235AB0"/>
<path d="M54.4902 49.0312H53.4902V50.2612H54.4902V49.0312Z" fill="#235AB0"/>
<path d="M64.0703 49.0312H63.0703V50.2612H64.0703V49.0312Z" fill="#235AB0"/>
<path d="M59.4902 45.8789H58.4902V47.1089H59.4902V45.8789Z" fill="#235AB0"/>
<path d="M64.0703 45.8789H63.0703V47.1089H64.0703V45.8789Z" fill="#235AB0"/>
<path d="M59.4902 42.1719H58.4902V43.4019H59.4902V42.1719Z" fill="#235AB0"/>
<path d="M54.4902 45.8789H53.4902V47.1089H54.4902V45.8789Z" fill="#235AB0"/>
<path d="M54.4902 42.1719H53.4902V43.4019H54.4902V42.1719Z" fill="#235AB0"/>
<path d="M64.0703 42.1719H63.0703V43.4019H64.0703V42.1719Z" fill="#235AB0"/>
<path d="M49.5898 45.8789H48.5898V47.1089H49.5898V45.8789Z" fill="#235AB0"/>
<path d="M49.5898 42.1719H48.5898V43.4019H49.5898V42.1719Z" fill="#235AB0"/>
<path d="M64.0703 60.3984H63.0703V61.6284H64.0703V60.3984Z" fill="#235AB0"/>
<path d="M59.4902 56.6992H58.4902V57.9292H59.4902V56.6992Z" fill="#235AB0"/>
<path d="M49.5898 52.7383H48.5898V53.9683H49.5898V52.7383Z" fill="#235AB0"/>
<path d="M49.5898 49.0312H48.5898V50.2612H49.5898V49.0312Z" fill="#235AB0"/>
<path d="M64.0703 56.6992H63.0703V57.9292H64.0703V56.6992Z" fill="#235AB0"/>
<path d="M67.6103 68.4409H39.3503C39.2812 68.4422 39.2125 68.4298 39.1483 68.4043C39.084 68.3788 39.0255 68.3407 38.9761 68.2922C38.9268 68.2438 38.8876 68.1861 38.8608 68.1223C38.8341 68.0586 38.8203 67.99 38.8203 67.9209C38.8203 67.7803 38.8762 67.6455 38.9756 67.5461C39.0749 67.4467 39.2097 67.3911 39.3503 67.3911H66.5703V34.301C66.5703 33.511 66.2003 32.9309 65.8703 32.9309H46.8703C46.5403 32.9309 46.1603 33.511 46.1603 34.301V56.5911C46.1603 56.6602 46.1465 56.7285 46.1198 56.7922C46.093 56.856 46.0538 56.914 46.0045 56.9624C45.9551 57.0108 45.8966 57.0487 45.8324 57.0742C45.7681 57.0998 45.6994 57.1124 45.6303 57.1111C45.4924 57.1111 45.3601 57.0563 45.2626 56.9587C45.1651 56.8612 45.1103 56.729 45.1103 56.5911V34.301C45.1103 32.931 45.8803 31.8711 46.8703 31.8711H65.8703C66.8703 31.8711 67.6303 32.931 67.6303 34.301L67.6103 68.4409Z" fill="#333333"/>
<path d="M63.8891 32.3601C63.7485 32.3601 63.6137 32.3042 63.5143 32.2048C63.4149 32.1054 63.3591 31.9706 63.3591 31.8301V30.0701C63.3591 29.8049 63.2537 29.5506 63.0662 29.363C62.8786 29.1755 62.6243 29.0701 62.3591 29.0701H50.3491C50.0838 29.0701 49.8295 29.1755 49.642 29.363C49.4544 29.5506 49.3491 29.8049 49.3491 30.0701V31.8301C49.3491 31.9706 49.2932 32.1054 49.1938 32.2048C49.0944 32.3042 48.9596 32.3601 48.8191 32.3601C48.6785 32.3601 48.5437 32.3042 48.4443 32.2048C48.3449 32.1054 48.2891 31.9706 48.2891 31.8301V30.0701C48.2891 29.5228 48.5058 28.9978 48.8918 28.6099C49.2779 28.2219 49.8018 28.0026 50.3491 28H62.3491C62.8963 28.0026 63.4203 28.2219 63.8063 28.6099C64.1923 28.9978 64.4091 29.5228 64.4091 30.0701V31.8301C64.4091 31.9689 64.3546 32.1023 64.2574 32.2014C64.1601 32.3005 64.0279 32.3575 63.8891 32.3601Z" fill="#333333"/>
<path d="M34.6102 62.5681C33.8597 62.5681 33.1398 62.27 32.6091 61.7393C32.0784 61.2085 31.7802 60.4886 31.7802 59.738C31.7802 59.5975 31.8361 59.4627 31.9355 59.3633C32.0348 59.2639 32.1696 59.208 32.3102 59.208C32.4508 59.208 32.5856 59.2639 32.685 59.3633C32.7844 59.4627 32.8402 59.5975 32.8402 59.738C32.8402 60.2084 33.0264 60.6596 33.358 60.9932C33.6897 61.3267 34.1399 61.5154 34.6102 61.5181C35.0685 61.5079 35.5052 61.3212 35.8293 60.9971C36.1534 60.6729 36.34 60.2364 36.3502 59.7781C36.3502 58.9281 35.8302 58.438 34.4102 57.978C33.7502 57.758 31.7402 57.108 31.7402 55.168C31.7402 54.4165 32.0381 53.6956 32.5685 53.1633C33.099 52.631 33.8187 52.3308 34.5702 52.3281C35.3234 52.3281 36.0458 52.6273 36.5784 53.1599C37.111 53.6925 37.4102 54.4148 37.4102 55.168C37.4102 55.3085 37.3544 55.4433 37.255 55.5427C37.1556 55.6421 37.0208 55.698 36.8802 55.698C36.7397 55.698 36.6049 55.6421 36.5055 55.5427C36.4061 55.4433 36.3502 55.3085 36.3502 55.168C36.3502 54.6959 36.1627 54.2432 35.8289 53.9094C35.495 53.5756 35.0423 53.3882 34.5702 53.3882C34.0999 53.3908 33.6497 53.5793 33.318 53.9128C32.9864 54.2464 32.8002 54.6976 32.8002 55.168C32.8002 55.708 33.0202 56.408 34.7402 56.968C35.9802 57.378 37.4102 58.0581 37.4102 59.7781C37.3973 60.5157 37.0979 61.2195 36.5753 61.7402C36.0527 62.261 35.3479 62.5578 34.6102 62.5681Z" fill="#333333"/>
<path d="M34.61 53.3719C34.5408 53.3719 34.4724 53.3582 34.4086 53.3314C34.3449 53.3046 34.2871 53.2653 34.2387 53.2159C34.1903 53.1666 34.1522 53.108 34.1266 53.0438C34.1011 52.9796 34.0886 52.911 34.0899 52.8419V51.5418C34.0886 51.4727 34.1011 51.4039 34.1266 51.3397C34.1522 51.2754 34.1903 51.2169 34.2387 51.1676C34.2871 51.1182 34.3449 51.0791 34.4086 51.0523C34.4724 51.0256 34.5408 51.0118 34.61 51.0118C34.6799 51.0105 34.7494 51.0233 34.8144 51.0494C34.8793 51.0756 34.9382 51.1147 34.9877 51.1642C35.0372 51.2136 35.0762 51.2726 35.1024 51.3375C35.1285 51.4024 35.1413 51.4719 35.14 51.5418V52.8419C35.14 52.9825 35.0841 53.1173 34.9847 53.2167C34.8853 53.316 34.7505 53.3719 34.61 53.3719Z" fill="#333333"/>
<path d="M34.6099 63.8697C34.472 63.8697 34.3397 63.8149 34.2422 63.7174C34.1446 63.6199 34.0898 63.4876 34.0898 63.3497V62.0396C34.0898 61.9017 34.1446 61.7695 34.2422 61.672C34.3397 61.5745 34.472 61.5196 34.6099 61.5196C34.679 61.5183 34.7477 61.5307 34.8119 61.5562C34.8762 61.5818 34.9347 61.6199 34.984 61.6683C35.0334 61.7167 35.0726 61.7745 35.0993 61.8382C35.1261 61.902 35.1399 61.9705 35.1399 62.0396V63.3497C35.1399 63.4188 35.1261 63.4871 35.0993 63.5509C35.0726 63.6146 35.0334 63.6724 34.984 63.7208C34.9347 63.7692 34.8762 63.8073 34.8119 63.8329C34.7477 63.8584 34.679 63.8711 34.6099 63.8697Z" fill="#333333"/>
</g>
<defs>
<clipPath id="clip0_1081_173246">
<rect width="45.61" height="40.44" fill="white" transform="translate(22 28)"/>
</clipPath>
</defs>
</svg>
