<svg width="100" height="100" viewBox="0 0 100 100" fill="none" xmlns="http://www.w3.org/2000/svg">
<circle cx="50" cy="50" r="50" fill="#F2F6FB"/>
<g clip-path="url(#clip0_1087_175279)">
<path d="M31.261 74.3301C31.2023 69.0926 33.2233 64.0455 36.8808 60.2961C40.5383 56.5468 45.5337 54.4012 50.771 54.3301C56.0084 54.4012 61.0037 56.5468 64.6612 60.2961C68.3187 64.0455 70.3397 69.0926 70.281 74.3301" fill="#235AB0"/>
<path d="M41.9202 40.7706L41.6602 30.4006L50.7702 26.1406L59.3502 29.8706L59.6102 40.7706L50.3102 45.5206L41.9202 40.7706Z" fill="white"/>
<path d="M50.7702 45.7908C50.6749 45.7875 50.5819 45.7602 50.5002 45.7109L41.9202 40.7607C41.8404 40.7135 41.7744 40.6461 41.7288 40.5654C41.6832 40.4847 41.6595 40.3935 41.6602 40.3008V30.4009C41.6594 30.307 41.6842 30.2145 41.7317 30.1335C41.7792 30.0526 41.8478 29.9861 41.9302 29.9409L50.5102 25.0708C50.5882 25.022 50.6783 24.9961 50.7702 24.9961C50.8622 24.9961 50.9522 25.022 51.0302 25.0708L59.6102 29.9409C59.6897 29.9868 59.7563 30.0521 59.8035 30.1309C59.8508 30.2096 59.8772 30.2991 59.8802 30.3909C59.8809 30.4848 59.8562 30.5772 59.8087 30.6582C59.7611 30.7392 59.6925 30.8057 59.6102 30.8508L51.0302 35.8508C50.9081 35.9194 50.7638 35.9369 50.6289 35.8994C50.494 35.8619 50.3795 35.7726 50.3102 35.6509C50.2408 35.53 50.2219 35.3867 50.2575 35.252C50.293 35.1172 50.3802 35.0018 50.5002 34.9309L58.2802 30.4409L50.7702 26.1709L42.7202 30.7407V40.0408L51.0302 44.8408C51.0906 44.875 51.1435 44.9209 51.1859 44.9758C51.2283 45.0308 51.2593 45.0938 51.277 45.1609C51.2947 45.228 51.2988 45.2977 51.289 45.3665C51.2793 45.4352 51.2559 45.5013 51.2202 45.5608C51.1716 45.6349 51.1046 45.6953 51.0257 45.7356C50.9468 45.7759 50.8587 45.7948 50.7702 45.7908Z" fill="#333333"/>
<path d="M50.7704 45.7892C50.6767 45.7888 50.5847 45.7638 50.5039 45.7164C50.4231 45.669 50.3563 45.6008 50.3103 45.5191C50.2747 45.4596 50.2513 45.3938 50.2415 45.325C50.2317 45.2563 50.2358 45.1863 50.2535 45.1192C50.2712 45.0521 50.3022 44.9891 50.3446 44.9342C50.387 44.8792 50.4399 44.8333 50.5003 44.7992L58.8204 39.9991V30.3993C58.819 30.3293 58.8317 30.2598 58.8579 30.1949C58.884 30.13 58.9231 30.0708 58.9726 30.0213C59.0221 29.9718 59.081 29.933 59.1459 29.9068C59.2108 29.8807 59.2803 29.8679 59.3503 29.8692C59.4199 29.8692 59.4888 29.8829 59.5531 29.9095C59.6174 29.9362 59.6759 29.9753 59.7251 30.0245C59.7743 30.0737 59.8134 30.1321 59.84 30.1964C59.8666 30.2607 59.8804 30.3297 59.8804 30.3993V40.2992C59.879 40.3927 59.8534 40.4842 59.8061 40.5648C59.7587 40.6454 59.6913 40.7124 59.6103 40.7591L51.0303 45.7093C50.9527 45.7595 50.8628 45.787 50.7704 45.7892Z" fill="#333333"/>
<path d="M50.7703 42.4604C50.6297 42.4604 50.4948 42.4046 50.3954 42.3052C50.2961 42.2058 50.2402 42.071 50.2402 41.9304V35.3503C50.2402 35.2098 50.2961 35.075 50.3954 34.9756C50.4948 34.8762 50.6297 34.8203 50.7703 34.8203C50.9108 34.8203 51.0456 34.8762 51.145 34.9756C51.2444 35.075 51.3002 35.2098 51.3002 35.3503V41.9304C51.3002 42.071 51.2444 42.2058 51.145 42.3052C51.0456 42.4046 50.9108 42.4604 50.7703 42.4604Z" fill="#333333"/>
<path d="M72.6598 54.7996C72.6002 54.8091 72.5395 54.8091 72.4798 54.7996C72.4141 54.7761 72.3536 54.7398 72.3019 54.6929C72.2501 54.6459 72.2082 54.5893 72.1785 54.5261C72.1488 54.4629 72.1318 54.3945 72.1286 54.3247C72.1254 54.2549 72.136 54.1853 72.1598 54.1196C72.9969 51.7824 73.2075 49.2669 72.7707 46.823C72.3338 44.3791 71.2648 42.0922 69.6698 40.1897C67.8968 38.1463 65.5751 36.654 62.9798 35.8896C62.8477 35.846 62.7375 35.7529 62.6723 35.6299C62.6071 35.5069 62.5919 35.3637 62.6299 35.2297C62.6494 35.1626 62.682 35.0999 62.7257 35.0454C62.7695 34.991 62.8237 34.9458 62.885 34.9124C62.9463 34.8789 63.0137 34.8579 63.0832 34.8506C63.1527 34.8433 63.2229 34.8497 63.2898 34.8696C66.0781 35.703 68.5718 37.3122 70.4798 39.5095C72.1981 41.5577 73.3498 44.0205 73.82 46.6523C74.2902 49.2842 74.0626 51.9931 73.1598 54.5095C73.1135 54.6011 73.0416 54.6773 72.9529 54.7288C72.8641 54.7802 72.7623 54.8048 72.6598 54.7996Z" fill="#333333"/>
<path d="M71.4302 58.0094C71.3303 58.0087 71.2325 57.9803 71.1478 57.9273C71.063 57.8744 70.9947 57.7991 70.9502 57.7096L69.1702 53.9994C69.1397 53.9364 69.122 53.8681 69.118 53.7982C69.1141 53.7283 69.124 53.6584 69.1473 53.5924C69.1705 53.5264 69.2066 53.4657 69.2535 53.4137C69.3003 53.3617 69.357 53.3194 69.4202 53.2894C69.5464 53.2309 69.6905 53.2243 69.8214 53.2711C69.9523 53.3179 70.0597 53.4142 70.1202 53.5394L71.6802 56.7694L74.7702 55.2794C74.8964 55.2209 75.0404 55.2143 75.1714 55.2611C75.3023 55.3079 75.4096 55.4042 75.4702 55.5294C75.5325 55.6554 75.5422 55.801 75.4972 55.9342C75.4522 56.0673 75.3562 56.177 75.2302 56.2394L71.6602 57.9496C71.5901 57.9894 71.5108 58.0099 71.4302 58.0094Z" fill="#333333"/>
<path d="M28.8709 54.7991C28.7627 54.8003 28.6568 54.767 28.5687 54.7041C28.4806 54.6412 28.4149 54.552 28.3809 54.4492C27.4748 51.9339 27.2445 49.2247 27.713 46.5925C28.1816 43.9604 29.3325 41.4974 31.0509 39.4492C32.9515 37.2433 35.4479 35.6322 38.2409 34.8091C38.3079 34.7892 38.3782 34.7827 38.4476 34.79C38.5171 34.7974 38.5845 34.8183 38.6458 34.8518C38.7072 34.8853 38.7613 34.9307 38.8051 34.9851C38.8489 35.0396 38.8814 35.1021 38.9009 35.1692C38.9415 35.3031 38.9275 35.4476 38.862 35.5713C38.7964 35.6949 38.6846 35.7876 38.5509 35.8291C35.9557 36.5934 33.634 38.0857 31.8609 40.1292C30.2678 42.0326 29.1999 44.3195 28.7631 46.7629C28.3264 49.2064 28.5359 51.7216 29.3709 54.0591C29.3948 54.1247 29.4054 54.1944 29.4022 54.2642C29.399 54.3339 29.382 54.4024 29.3523 54.4656C29.3226 54.5288 29.2806 54.5856 29.2289 54.6326C29.1772 54.6795 29.1167 54.7155 29.0509 54.739C28.9947 54.7689 28.9339 54.7893 28.8709 54.7991Z" fill="#333333"/>
<path d="M30.0891 58.0099C30.0085 58.0104 29.9292 57.9899 29.8591 57.9501L26.2991 56.2399C26.2359 56.2099 26.1792 56.1679 26.1324 56.1159C26.0855 56.0639 26.0494 56.0032 26.0262 55.9372C26.0029 55.8712 25.993 55.8012 25.9969 55.7314C26.0009 55.6615 26.0186 55.5929 26.0491 55.5299C26.1117 55.4041 26.2208 55.3076 26.3534 55.2609C26.486 55.2142 26.6315 55.221 26.7591 55.2799L29.8391 56.7699L31.3991 53.54C31.4616 53.4141 31.5708 53.3176 31.7034 53.2709C31.836 53.2242 31.9815 53.231 32.1091 53.29C32.2351 53.3523 32.3311 53.4622 32.3761 53.5954C32.4212 53.7285 32.4114 53.8739 32.3491 53.9999L30.5691 57.7101C30.5054 57.8337 30.3987 57.9297 30.2692 57.9801C30.2101 57.995 30.1498 58.0048 30.0891 58.0099Z" fill="#333333"/>
<path d="M40.3093 74.2791C40.1688 74.2791 40.034 74.2232 39.9346 74.1238C39.8352 74.0244 39.7793 73.8896 39.7793 73.7491C39.7793 65.7991 42.6093 60.8491 44.9793 58.0891C45.0702 57.9842 45.1987 57.9192 45.337 57.908C45.4754 57.8968 45.6127 57.9402 45.7193 58.0291C45.7727 58.0742 45.8167 58.1297 45.8486 58.1919C45.8806 58.2541 45.8999 58.3219 45.9055 58.3916C45.9111 58.4614 45.9028 58.5314 45.8812 58.5979C45.8595 58.6644 45.8249 58.726 45.7793 58.7791C42.4993 62.5891 40.8393 67.6291 40.8393 73.7791C40.8316 73.9144 40.7725 74.0418 40.6739 74.1348C40.5753 74.2278 40.4448 74.2793 40.3093 74.2791Z" fill="#333333"/>
<path d="M50.76 65.9201C39.76 65.9201 36.85 60.2101 36.76 59.9701C36.6977 59.8441 36.688 59.6985 36.733 59.5653C36.778 59.4322 36.874 59.3222 37 59.2599C37.126 59.1976 37.2715 59.188 37.4047 59.2331C37.5378 59.2781 37.6477 59.3739 37.71 59.4999C37.71 59.5499 40.53 64.86 50.79 64.86C50.9306 64.86 51.0654 64.9159 51.1647 65.0153C51.2641 65.1147 51.32 65.2495 51.32 65.39C51.3201 65.4622 51.3055 65.5337 51.277 65.6C51.2485 65.6663 51.2067 65.7261 51.1543 65.7758C51.1019 65.8254 51.0399 65.8638 50.9721 65.8886C50.9043 65.9134 50.8321 65.9242 50.76 65.9201Z" fill="#333333"/>
<path d="M50.7703 65.9201C50.6297 65.9201 50.4948 65.8642 50.3954 65.7648C50.2961 65.6654 50.2402 65.5306 50.2402 65.39C50.2402 65.2495 50.2961 65.1147 50.3954 65.0153C50.4948 64.9159 50.6297 64.86 50.7703 64.86C61.0403 64.86 63.8302 59.5499 63.8602 59.4999C63.9226 59.3739 64.0324 59.2781 64.1655 59.2331C64.2987 59.188 64.4443 59.1976 64.5703 59.2599C64.6945 59.324 64.7883 59.4348 64.8314 59.5678C64.8745 59.7007 64.8633 59.8454 64.8002 59.9701C64.6802 60.2101 61.7403 65.9201 50.7703 65.9201Z" fill="#333333"/>
<path d="M70.2705 74.3301H30.7305V73.8101C30.7331 68.501 32.8391 63.4093 36.5876 59.6497C40.336 55.89 45.4214 53.7685 50.7305 53.75C56.0283 53.7711 61.1032 55.8852 64.8494 59.6313C68.5955 63.3775 70.7094 68.4522 70.7305 73.75C70.7446 73.8876 70.7045 74.0254 70.6185 74.1338C70.5326 74.2422 70.4077 74.3125 70.2705 74.3301ZM31.8005 73.25H69.7405C69.6101 68.298 67.5509 63.593 64.0018 60.1372C60.4526 56.6814 55.6941 54.7483 50.7405 54.75C45.7972 54.7639 41.054 56.7038 37.5177 60.158C33.9814 63.6121 31.9305 68.3084 31.8005 73.25Z" fill="#333333"/>
<path d="M61.2209 74.2893C61.1526 74.2906 61.0847 74.2786 61.0211 74.2537C60.9575 74.2287 60.8995 74.1916 60.8503 74.1443C60.801 74.0969 60.7616 74.0401 60.7343 73.9775C60.707 73.9149 60.6922 73.8476 60.6909 73.7793C60.6909 67.6593 59.0309 62.6193 55.7509 58.7793C55.7053 58.7262 55.6707 58.6646 55.6491 58.5981C55.6274 58.5316 55.6192 58.4616 55.6247 58.3918C55.6303 58.3221 55.6496 58.2543 55.6816 58.1921C55.7135 58.1299 55.7575 58.0744 55.8109 58.0293C55.8631 57.984 55.9238 57.9497 55.9895 57.9282C56.0552 57.9067 56.1246 57.8985 56.1935 57.904C56.2624 57.9096 56.3295 57.9289 56.3908 57.9607C56.4522 57.9925 56.5066 58.0362 56.5509 58.0893C58.9209 60.8393 61.7509 65.7993 61.7509 73.7493C61.7509 73.8908 61.6954 74.0267 61.5963 74.1277C61.4972 74.2287 61.3623 74.2867 61.2209 74.2893Z" fill="#333333"/>
<path d="M50.7703 74.3303C50.6297 74.3303 50.4948 74.2744 50.3954 74.175C50.2961 74.0757 50.2402 73.9409 50.2402 73.8003V58.4304C50.2402 58.3608 50.2539 58.2918 50.2806 58.2275C50.3072 58.1632 50.3462 58.1049 50.3954 58.0557C50.4447 58.0064 50.5031 57.9673 50.5674 57.9407C50.6317 57.914 50.7007 57.9004 50.7703 57.9004C50.8399 57.9004 50.9088 57.914 50.9731 57.9407C51.0374 57.9673 51.0958 58.0064 51.145 58.0557C51.1942 58.1049 51.2333 58.1632 51.2599 58.2275C51.2865 58.2918 51.3002 58.3608 51.3002 58.4304V73.8003C51.3002 73.9409 51.2444 74.0757 51.145 74.175C51.0456 74.2744 50.9108 74.3303 50.7703 74.3303Z" fill="#333333"/>
<path d="M44.4902 31.7399V38.9799L47.7702 40.8699V32.8899L53.4302 29.6799L50.7702 28.1699L44.4902 31.7399Z" fill="#235AB0"/>
</g>
<defs>
<clipPath id="clip0_1087_175279">
<rect width="49.54" height="49.34" fill="white" transform="translate(26 25)"/>
</clipPath>
</defs>
</svg>
