<svg width="90" height="90" viewBox="0 0 90 90" fill="none" xmlns="http://www.w3.org/2000/svg">
<circle cx="45" cy="45" r="45" fill="#0CBFD2"/>
<path d="M62.27 25.66C62.27 24.33 61.19 23.25 59.86 23.25H29.66C28.33 23.25 27.25 24.33 27.25 25.66V64.43C27.25 65.76 28.33 66.84 29.66 66.84H51.95L62.27 56.52V25.66Z" fill="#0CBFD2" stroke="white" stroke-linecap="round" stroke-linejoin="round"/>
<path d="M62.27 56.5195H54.36C53.03 56.5195 51.95 57.5995 51.95 58.9295V66.8395L62.27 56.5195Z" fill="#0CBFD2" stroke="white" stroke-linecap="round" stroke-linejoin="round"/>
<path d="M37.8099 41.5H33.1299V48.8H37.8099V41.5Z" fill="white"/>
<path d="M47.0999 32.6914H42.4199V48.8014H47.0999V32.6914Z" fill="white"/>
<path d="M56.39 36.7227H51.71V48.8027H56.39V36.7227Z" fill="white"/>
</svg>
