<svg width="100" height="100" viewBox="0 0 100 100" fill="none" xmlns="http://www.w3.org/2000/svg">
<circle cx="50" cy="50" r="50" fill="#F2F6FB"/>
<g clip-path="url(#clip0_1102_180981)">
<path d="M34.3242 27.5039H63.6591V30.9717H66.72V64.7386C66.72 64.7386 66.26 73.3905 60.5275 73.3905H36.8985V69.9228L34.395 69.6308L34.3242 27.5039Z" fill="white"/>
<path d="M59.7925 73.9038H36.8712C36.7468 73.9038 36.6276 73.8544 36.5397 73.7664C36.4517 73.6785 36.4023 73.5592 36.4023 73.4349V69.7635C36.4023 69.7019 36.4145 69.6411 36.438 69.5842C36.4616 69.5273 36.4961 69.4755 36.5397 69.4319C36.5832 69.3884 36.6349 69.354 36.6918 69.3304C36.7486 69.3069 36.8096 69.2948 36.8712 69.2948C36.9328 69.2948 36.9938 69.3069 37.0507 69.3304C37.1075 69.354 37.1592 69.3884 37.2028 69.4319C37.2463 69.4755 37.2808 69.5273 37.3044 69.5842C37.3279 69.6411 37.3401 69.7019 37.3401 69.7635V72.966H59.7925C63.3311 72.966 66.2504 69.4273 66.2504 65.1368V31.4495H63.6584C63.5972 31.4495 63.5367 31.4373 63.4803 31.4136C63.4239 31.39 63.3728 31.3551 63.3299 31.3115C63.2871 31.2678 63.2534 31.2163 63.2308 31.1594C63.2082 31.1026 63.1972 31.0418 63.1984 30.9806C63.1972 30.9195 63.2082 30.8586 63.2308 30.8018C63.2534 30.7449 63.2871 30.6932 63.3299 30.6495C63.3728 30.6059 63.4239 30.5712 63.4803 30.5476C63.5367 30.5239 63.5972 30.5117 63.6584 30.5117H66.7192C66.8436 30.5117 66.9629 30.5612 67.0508 30.6491C67.1387 30.737 67.1881 30.8563 67.1881 30.9806V65.1368C67.197 69.967 63.8707 73.9038 59.7925 73.9038Z" fill="#333333"/>
<path d="M57.4033 70.2327H34.4024C34.2781 70.2327 34.1588 70.1835 34.0709 70.0955C33.983 70.0076 33.9336 69.8881 33.9336 69.7638V27.4689C33.9336 27.3445 33.983 27.2253 34.0709 27.1374C34.1588 27.0494 34.2781 27 34.4024 27H63.6578C63.7821 27 63.9014 27.0494 63.9893 27.1374C64.0772 27.2253 64.1266 27.3445 64.1266 27.4689V62.2797C64.1595 62.9595 63.9299 63.6259 63.4854 64.1412C63.0408 64.6565 62.4153 64.9815 61.7381 65.0488H59.8007V67.4638C59.847 68.1482 59.6211 68.8232 59.1721 69.3418C58.723 69.8604 58.0873 70.1806 57.4033 70.2327ZM34.8359 69.2951H57.4033C57.8363 69.2397 58.2305 69.017 58.5016 68.6748C58.7727 68.3326 58.8992 67.8981 58.8541 67.4638V64.5799C58.8541 64.4555 58.9035 64.3363 58.9914 64.2483C59.0794 64.1604 59.1986 64.111 59.323 64.111H61.7292C62.1629 64.0555 62.5579 63.8332 62.8305 63.4913C63.103 63.1494 63.2316 62.7148 63.1889 62.2797V27.9378H34.8359V69.2951Z" fill="#333333"/>
<path d="M29.5131 36.5811L34.6087 37.9611L30.9728 52.0978L25.3906 50.6912L29.5131 36.5811Z" fill="#235AB0"/>
<path d="M65.7734 38.7391L70.9309 36.9609L75.54 50.9826L75.0711 51.6107L70.2763 52.9465L65.7734 38.7391Z" fill="#235AB0"/>
<path d="M34.4408 39.1729L46.357 42.3134L49.3648 41.4552L58.9367 43.5342L66.4297 41.3579L69.4552 51.0006L58.4413 55.6362L59.6533 57.2993L59.2287 58.7678L57.4151 59.2455L56.3801 61.1387L53.5846 61.3156L53.6554 62.4657L51.6915 63.5272L50.0726 63.1734L49.2764 64.2969L47.8698 64.3853L45.7112 62.7399L43.7562 64.5269L42.615 64.3853L41.6242 63.0584L39.8637 62.7841L38.7579 60.9352L36.794 60.6787L35.9801 59.2013L36.2455 58.3432L35.1839 58.2459L34.6001 56.6004L37.1036 53.6634L35.1839 51.7349L31.3711 50.3902L34.4408 39.1729Z" fill="white"/>
<path d="M57.5806 52.1952C53.1574 52.1952 50.1053 47.825 50.0611 47.7719C49.663 47.2234 49.026 46.5511 48.3714 46.613C47.7168 46.6749 47.0976 47.4978 46.9295 47.8339C46.7551 48.391 46.468 48.9061 46.086 49.3475C45.704 49.7888 45.2353 50.1469 44.709 50.3993C44.3202 50.5321 43.9083 50.5833 43.4989 50.5498C43.0894 50.5164 42.6913 50.3989 42.3293 50.2047C41.9809 50.0282 41.7058 49.7347 41.5521 49.3756C41.3984 49.0165 41.376 48.6148 41.4889 48.2408L42.2674 45.5869C42.4542 44.9453 42.779 44.3523 43.2191 43.8495C43.6592 43.3468 44.204 42.9464 44.8152 42.6763L47.7433 41.3936C48.8938 40.9556 50.1571 40.9119 51.335 41.2697L58.8633 43.039L66.1617 40.8982C66.2204 40.8807 66.2819 40.875 66.3428 40.8816C66.4037 40.8882 66.4626 40.907 66.5161 40.9366C66.5697 40.9663 66.6168 41.0063 66.6547 41.0543C66.6925 41.1024 66.7205 41.1577 66.7367 41.2168C66.7556 41.276 66.7623 41.3383 66.7564 41.4001C66.7505 41.462 66.7321 41.522 66.7023 41.5766C66.6725 41.6312 66.632 41.6791 66.5832 41.7176C66.5344 41.7561 66.4783 41.7844 66.4183 41.8006L58.8899 44.0122L51.1315 42.172C50.1499 41.8577 49.0916 41.8796 48.1237 42.234L45.1955 43.5256C44.7072 43.7392 44.2719 44.0574 43.9202 44.458C43.5686 44.8585 43.3094 45.3316 43.1609 45.8435L42.3912 48.4974C42.3354 48.6629 42.3403 48.8426 42.4052 49.0047C42.47 49.1669 42.5905 49.3008 42.745 49.3821C42.9898 49.5218 43.2614 49.6082 43.5419 49.6356C43.8224 49.6631 44.1056 49.6309 44.3728 49.5412C44.7824 49.3271 45.1447 49.0328 45.4381 48.6756C45.7314 48.3184 45.9498 47.9056 46.0802 47.4622C46.2896 47.0182 46.5977 46.6281 46.981 46.3214C47.3644 46.0148 47.8127 45.7998 48.2918 45.6929C49.1765 45.6221 50.0611 46.1441 50.8308 47.2499C51.0254 47.5418 55.5017 53.9998 61.5262 49.957C61.6285 49.8888 61.7536 49.8636 61.8744 49.8868C61.9952 49.91 62.1021 49.9795 62.172 50.0807C62.2071 50.1318 62.2318 50.1892 62.2446 50.2499C62.2574 50.3105 62.258 50.3732 62.2465 50.4341C62.235 50.495 62.2115 50.5527 62.1775 50.6045C62.1434 50.6562 62.0994 50.7009 62.0481 50.7356C60.7397 51.6606 59.1827 52.1692 57.5806 52.1952Z" fill="#333333"/>
<path d="M58.35 56.1577C58.2591 56.1577 58.1703 56.1308 58.0948 56.0804C58.0192 56.03 57.9602 55.9584 57.9253 55.8746C57.9007 55.8183 57.8876 55.7578 57.8868 55.6964C57.8859 55.635 57.8974 55.574 57.9205 55.5171C57.9436 55.4602 57.9778 55.4085 58.0212 55.3651C58.0646 55.3216 58.1162 55.2874 58.173 55.2642L69.3019 50.5844C69.3581 50.5598 69.4187 50.5468 69.4801 50.5459C69.5415 50.5451 69.6024 50.5565 69.6593 50.5796C69.7162 50.6027 69.7679 50.6369 69.8113 50.6803C69.8548 50.7237 69.8891 50.7753 69.9123 50.8321C69.9596 50.946 69.9601 51.074 69.9137 51.1883C69.8674 51.3025 69.7779 51.3937 69.6646 51.4425L58.5357 56.1223C58.4769 56.1468 58.4137 56.1589 58.35 56.1577Z" fill="#333333"/>
<path d="M57.768 59.8385C57.4638 59.8392 57.1628 59.7767 56.8841 59.6549C56.6054 59.5331 56.3551 59.3547 56.1491 59.1309L50.1954 52.8144C50.1521 52.7716 50.1177 52.7207 50.0942 52.6645C50.0707 52.6084 50.0586 52.5481 50.0586 52.4872C50.0586 52.4263 50.0707 52.3659 50.0942 52.3097C50.1177 52.2535 50.1521 52.2026 50.1954 52.1598C50.2383 52.1151 50.2898 52.0796 50.3468 52.0553C50.4039 52.031 50.4652 52.0186 50.5271 52.0186C50.5891 52.0186 50.6504 52.031 50.7074 52.0553C50.7644 52.0796 50.8159 52.1151 50.8589 52.1598L56.8126 58.4763C56.9657 58.6374 57.1573 58.7566 57.3693 58.8232C57.5814 58.8897 57.8068 58.9013 58.0245 58.8567C58.2464 58.8037 58.4509 58.6946 58.6182 58.5396C58.7856 58.3846 58.9101 58.1891 58.9799 57.972C59.0402 57.8 59.0556 57.6155 59.0247 57.4359C58.9937 57.2564 58.9174 57.0875 58.803 56.9457L56.0606 54.1148C56.017 54.0713 55.9824 54.0197 55.9588 53.9628C55.9352 53.9059 55.9231 53.8447 55.9231 53.7831C55.9231 53.7215 55.9352 53.6605 55.9588 53.6036C55.9824 53.5467 56.017 53.4949 56.0606 53.4514C56.1042 53.4078 56.1559 53.3732 56.2128 53.3496C56.2697 53.326 56.3307 53.3138 56.3924 53.3138C56.454 53.3138 56.515 53.326 56.5719 53.3496C56.6288 53.3732 56.6806 53.4078 56.7241 53.4514L59.4931 56.3176C59.7189 56.5835 59.8706 56.9043 59.9327 57.2476C59.9948 57.5909 59.9652 57.9445 59.8469 58.2726C59.7243 58.6353 59.5086 58.9595 59.2214 59.2126C58.9342 59.4657 58.5855 59.6388 58.2103 59.7147C58.0676 59.7715 57.9194 59.8129 57.768 59.8385Z" fill="#333333"/>
<path d="M54.8143 61.9793C54.3996 61.9787 53.9892 61.8946 53.6077 61.732C53.2262 61.5694 52.8814 61.3315 52.5938 61.0327L47.5867 55.7867C47.5431 55.7432 47.5086 55.6914 47.485 55.6345C47.4614 55.5776 47.4492 55.5166 47.4492 55.455C47.4492 55.3934 47.4614 55.3322 47.485 55.2753C47.5086 55.2184 47.5431 55.1668 47.5867 55.1233C47.6295 55.0799 47.6805 55.0454 47.7367 55.022C47.7929 54.9985 47.8532 54.9863 47.9141 54.9863C47.975 54.9863 48.0352 54.9985 48.0914 55.022C48.1476 55.0454 48.1986 55.0799 48.2414 55.1233L53.2573 60.3692C53.5144 60.6383 53.8376 60.8355 54.1945 60.9411C54.5515 61.0466 54.9299 61.0567 55.292 60.9707C55.6441 60.8905 55.9694 60.7204 56.2361 60.4769C56.5028 60.2335 56.7018 59.9252 56.8136 59.5819C56.8508 59.4579 56.9334 59.3525 57.045 59.2869C57.1565 59.2213 57.2888 59.2002 57.4152 59.2279C57.4725 59.2423 57.5264 59.268 57.5737 59.3035C57.6209 59.3391 57.6606 59.3837 57.6903 59.4348C57.7199 59.486 57.7391 59.5427 57.7465 59.6014C57.754 59.66 57.7496 59.7196 57.7336 59.7765V59.8649C57.5755 60.3646 57.2888 60.8141 56.9021 61.1681C56.5155 61.5221 56.0426 61.7683 55.5309 61.8819C55.2963 61.9407 55.056 61.9734 54.8143 61.9793Z" fill="#333333"/>
<path d="M51.5753 63.8982H51.4072C51.0042 63.8699 50.6108 63.7622 50.2495 63.5816C49.8882 63.4009 49.5662 63.1509 49.3017 62.8455L45.1527 58.2365C45.0674 58.149 45.0195 58.0314 45.0195 57.9091C45.0195 57.7868 45.0674 57.6695 45.1527 57.5819C45.1963 57.5383 45.248 57.5036 45.3049 57.48C45.3618 57.4564 45.4229 57.4443 45.4845 57.4443C45.5461 57.4443 45.6071 57.4564 45.664 57.48C45.7209 57.5036 45.7727 57.5383 45.8162 57.5819L49.9564 62.182C50.3288 62.6089 50.8518 62.875 51.416 62.925C51.8757 62.9303 52.327 62.8018 52.7149 62.5553C53.1029 62.3087 53.4108 61.9547 53.6011 61.5363C53.6321 61.4836 53.6732 61.4375 53.7222 61.4008C53.7711 61.3642 53.8269 61.3377 53.8862 61.3229C53.9455 61.3081 54.0071 61.3052 54.0676 61.3145C54.128 61.3237 54.1859 61.3449 54.2381 61.3769C54.2911 61.4087 54.3373 61.4507 54.374 61.5004C54.4107 61.5501 54.4372 61.6067 54.452 61.6667C54.4668 61.7267 54.4696 61.7892 54.4602 61.8503C54.4508 61.9114 54.4294 61.9698 54.3973 62.0227C54.1389 62.56 53.7404 63.0179 53.2438 63.3479C52.7472 63.6779 52.1708 63.8681 51.5753 63.8982Z" fill="#333333"/>
<path d="M48.3971 64.9068C47.8331 64.9053 47.2914 64.6867 46.8843 64.2964L34.8354 52.1413L31.2968 50.9735C31.1798 50.9333 31.0834 50.8485 31.0287 50.7375C30.974 50.6264 30.9655 50.4982 31.0049 50.3809C31.0239 50.3221 31.0544 50.2678 31.0945 50.2208C31.1347 50.1739 31.1837 50.1354 31.2387 50.1075C31.2938 50.0795 31.3538 50.0627 31.4154 50.058C31.477 50.0533 31.5389 50.0607 31.5976 50.08L35.3485 51.3187L35.4281 51.3984L47.5566 63.6329C47.7233 63.7883 47.9288 63.8959 48.1514 63.9441C48.3741 63.9924 48.6057 63.9796 48.8217 63.9072C49.0208 63.845 49.1993 63.7298 49.338 63.5739C49.4767 63.4181 49.5704 63.2276 49.609 63.0226C49.6286 62.8983 49.6939 62.786 49.7921 62.7074C49.8903 62.6289 50.0143 62.5898 50.1398 62.5979C50.1992 62.6035 50.2569 62.6207 50.3095 62.6487C50.3622 62.6766 50.4088 62.7147 50.4466 62.7608C50.4844 62.8069 50.5128 62.8599 50.53 62.9169C50.5472 62.974 50.5529 63.0341 50.5468 63.0934V63.1463C50.4907 63.5318 50.3274 63.8938 50.0756 64.191C49.8238 64.4882 49.4935 64.7087 49.1225 64.8273C48.887 64.8948 48.6416 64.9216 48.3971 64.9068Z" fill="#333333"/>
<path d="M35.9614 58.8121C35.5169 58.8113 35.0861 58.6583 34.7406 58.3787C34.5535 58.2259 34.3997 58.0364 34.2886 57.8219C34.1775 57.6074 34.1116 57.3724 34.0948 57.1314C34.0769 56.8926 34.1076 56.6526 34.1852 56.426C34.2627 56.1994 34.3855 55.991 34.546 55.8133L36.7133 53.4423C36.7569 53.3987 36.8086 53.3641 36.8655 53.3405C36.9225 53.3169 36.9835 53.3047 37.0451 53.3047C37.1067 53.3047 37.1677 53.3169 37.2247 53.3405C37.2816 53.3641 37.3333 53.3987 37.3768 53.4423C37.4204 53.4858 37.455 53.5376 37.4786 53.5945C37.5022 53.6515 37.5144 53.7124 37.5144 53.774C37.5144 53.8356 37.5022 53.8968 37.4786 53.9537C37.455 54.0106 37.4204 54.0622 37.3768 54.1058L35.2095 56.4679C35.1352 56.5518 35.0787 56.65 35.0438 56.7565C35.0088 56.8629 34.9959 56.9755 35.006 57.0871C35.0254 57.3163 35.1333 57.5288 35.3068 57.6798C35.5048 57.8441 35.7594 57.9242 36.0159 57.9027C36.2723 57.8811 36.5101 57.7599 36.678 57.5649C36.767 57.4789 36.8859 57.4307 37.0097 57.4307C37.1335 57.4307 37.2524 57.4789 37.3414 57.5649C37.385 57.6084 37.4196 57.66 37.4432 57.7169C37.4668 57.7738 37.479 57.835 37.479 57.8966C37.479 57.9582 37.4668 58.0192 37.4432 58.0761C37.4196 58.133 37.385 58.1848 37.3414 58.2284C37.1623 58.4132 36.9478 58.5602 36.7107 58.6605C36.4737 58.7608 36.2188 58.8123 35.9614 58.8121Z" fill="#333333"/>
<path d="M37.7813 61.5365C37.2772 61.5374 36.7899 61.355 36.4101 61.0233C35.9872 60.6575 35.7263 60.1391 35.6847 59.5815C35.6656 59.3065 35.7011 59.0303 35.7892 58.7692C35.8772 58.508 36.0161 58.2669 36.1978 58.0597L38.259 55.7951C38.3018 55.7518 38.3528 55.7173 38.409 55.6938C38.4652 55.6704 38.5254 55.6582 38.5863 55.6582C38.6472 55.6582 38.7076 55.6704 38.7638 55.6938C38.82 55.7173 38.8709 55.7518 38.9137 55.7951C38.9997 55.8842 39.0477 56.0031 39.0477 56.1269C39.0477 56.2506 38.9997 56.3696 38.9137 56.4586L36.8613 58.7143C36.7549 58.8335 36.6753 58.9742 36.628 59.1268C36.5806 59.2795 36.5667 59.4405 36.5871 59.599C36.5957 59.7518 36.6354 59.9013 36.7039 60.0383C36.7723 60.1752 36.868 60.2967 36.9851 60.3953C37.2141 60.594 37.5118 60.6951 37.8145 60.6769C38.1171 60.6587 38.4006 60.5226 38.6041 60.2979L39.7187 59.0771C39.8078 58.9912 39.9267 58.943 40.0505 58.943C40.1742 58.943 40.2932 58.9912 40.3822 59.0771C40.4258 59.1207 40.4604 59.1723 40.484 59.2292C40.5076 59.2861 40.5197 59.3473 40.5197 59.4089C40.5197 59.4705 40.5076 59.5314 40.484 59.5884C40.4604 59.6453 40.4258 59.6971 40.3822 59.7406L39.2675 60.9613C38.8666 61.3403 38.3329 61.5469 37.7813 61.5365Z" fill="#333333"/>
<path d="M40.5682 63.2887C40.0429 63.2884 39.5371 63.0892 39.1527 62.7313C38.749 62.3569 38.5094 61.8384 38.4862 61.2883C38.463 60.7382 38.658 60.2014 39.0288 59.7944L40.7981 57.9188C40.8417 57.8752 40.8934 57.8407 40.9503 57.8171C41.0073 57.7935 41.0682 57.7812 41.1299 57.7812C41.1915 57.7812 41.2525 57.7935 41.3094 57.8171C41.3664 57.8407 41.4181 57.8752 41.4616 57.9188C41.5049 57.9616 41.5394 58.0125 41.5628 58.0687C41.5863 58.1249 41.5984 58.1854 41.5984 58.2463C41.5984 58.3071 41.5863 58.3674 41.5628 58.4236C41.5394 58.4798 41.5049 58.5307 41.4616 58.5735L39.7366 60.449C39.5323 60.6736 39.4251 60.9697 39.4384 61.273C39.4516 61.5762 39.5843 61.8619 39.8073 62.0678C40.0296 62.2743 40.3245 62.3846 40.6277 62.3747C40.9309 62.3647 41.218 62.2355 41.4262 62.0149L42.187 61.2186C42.2292 61.1741 42.2799 61.1388 42.3362 61.1147C42.3925 61.0905 42.4531 61.0779 42.5143 61.0779C42.5756 61.0779 42.6362 61.0905 42.6925 61.1147C42.7487 61.1388 42.7995 61.1741 42.8417 61.2186C42.8853 61.2621 42.9199 61.3139 42.9435 61.3708C42.9671 61.4277 42.9792 61.4887 42.9792 61.5503C42.9792 61.6119 42.9671 61.6731 42.9435 61.73C42.9199 61.7869 42.8853 61.8385 42.8417 61.882L42.0809 62.687C41.8819 62.8835 41.6454 63.0381 41.3856 63.1414C41.1257 63.2447 40.8477 63.2949 40.5682 63.2887Z" fill="#333333"/>
<path d="M43.2339 65.0041C42.7201 65.007 42.2253 64.8103 41.8538 64.4555C41.4731 64.089 41.2522 63.5874 41.2389 63.0592C41.2257 62.5309 41.4212 62.0186 41.7831 61.6335L43.1896 60.1473C43.2332 60.1037 43.2849 60.0692 43.3418 60.0456C43.3988 60.022 43.4598 60.0098 43.5214 60.0098C43.583 60.0098 43.644 60.022 43.701 60.0456C43.7579 60.0692 43.8096 60.1037 43.8531 60.1473C43.8967 60.1909 43.9313 60.2427 43.9549 60.2996C43.9785 60.3565 43.9906 60.4175 43.9906 60.4791C43.9906 60.5407 43.9785 60.6016 43.9549 60.6586C43.9313 60.7155 43.8967 60.7673 43.8531 60.8108L42.4377 62.3058C42.2463 62.5104 42.1435 62.7826 42.1518 63.0626C42.1601 63.3427 42.2787 63.6079 42.4819 63.8008C42.6819 63.9959 42.9502 64.1052 43.2295 64.1052C43.5088 64.1052 43.7771 63.9959 43.977 63.8008L45.4632 62.3501C45.5067 62.3065 45.5585 62.272 45.6154 62.2484C45.6723 62.2248 45.7333 62.2125 45.7949 62.2125C45.8566 62.2125 45.9176 62.2248 45.9745 62.2484C46.0314 62.272 46.0831 62.3065 46.1267 62.3501C46.17 62.3929 46.2044 62.4438 46.2279 62.5C46.2514 62.5562 46.2634 62.6166 46.2634 62.6775C46.2634 62.7384 46.2514 62.7987 46.2279 62.8549C46.2044 62.911 46.17 62.962 46.1267 63.0047L44.6493 64.438C44.4627 64.6215 44.2415 64.766 43.9985 64.8632C43.7555 64.9604 43.4955 65.0083 43.2339 65.0041Z" fill="#333333"/>
<path d="M46.399 42.8264H46.284L34.3501 39.7744C34.2898 39.7611 34.2329 39.7356 34.1829 39.6994C34.1329 39.6633 34.0908 39.6173 34.0593 39.5642C34.0278 39.5112 34.0075 39.452 33.9997 39.3908C33.9919 39.3296 33.9967 39.2676 34.0139 39.2083C34.0283 39.1487 34.0546 39.0924 34.091 39.0431C34.1275 38.9937 34.1734 38.9522 34.2262 38.9208C34.2789 38.8895 34.3374 38.8692 34.3982 38.8608C34.459 38.8524 34.5208 38.8561 34.5801 38.872L46.514 41.924C46.5743 41.9373 46.6312 41.9628 46.6812 41.999C46.7312 42.0351 46.7733 42.0813 46.8048 42.1344C46.8363 42.1875 46.8566 42.2464 46.8644 42.3076C46.8722 42.3688 46.8674 42.431 46.8502 42.4903C46.8228 42.5884 46.7636 42.6746 46.682 42.7355C46.6003 42.7963 46.5008 42.8282 46.399 42.8264Z" fill="#333333"/>
<path d="M30.5275 52.6632C30.4365 52.6756 30.3443 52.6756 30.2533 52.6632L25.83 51.46C25.6947 51.4249 25.5678 51.3631 25.4569 51.278C25.346 51.1929 25.2533 51.0862 25.1843 50.9646C25.1125 50.8431 25.0661 50.7086 25.0478 50.5687C25.0296 50.4288 25.0399 50.2866 25.0781 50.1508L28.6167 36.881C28.6913 36.6081 28.8708 36.3757 29.1162 36.2348C29.3615 36.0939 29.6527 36.0561 29.926 36.1292L34.3492 37.3411C34.484 37.377 34.6104 37.4392 34.7212 37.524C34.832 37.6088 34.9249 37.7147 34.9948 37.8354C35.0646 37.9562 35.1099 38.0896 35.1282 38.2279C35.1465 38.3662 35.1372 38.5067 35.1011 38.6415L31.5626 51.9112C31.4928 52.1305 31.3547 52.3219 31.1685 52.4572C30.9823 52.5925 30.7577 52.6646 30.5275 52.6632ZM30.5275 51.7255C30.5592 51.7335 30.5928 51.7289 30.6209 51.7123C30.6491 51.6957 30.6696 51.6685 30.6779 51.6369L34.2696 38.3672C34.2776 38.3332 34.2719 38.2974 34.2536 38.2676C34.2354 38.2378 34.2062 38.2164 34.1723 38.208L29.749 37.005C29.7328 36.9996 29.7156 36.9976 29.6985 36.9992C29.6815 37.0008 29.665 37.006 29.6501 37.0143C29.6351 37.0226 29.622 37.0339 29.6116 37.0475C29.6013 37.0612 29.5938 37.0767 29.5898 37.0933L26.0512 50.3631C26.0465 50.3956 26.0526 50.4289 26.0686 50.4577C26.0846 50.4864 26.1096 50.509 26.1397 50.5222L30.5275 51.7255Z" fill="#333333"/>
<path d="M70.5402 53.3186C70.3169 53.3203 70.0988 53.2509 69.9176 53.1205C69.7363 52.9901 69.6012 52.8054 69.5317 52.5931L65.1881 39.5091C65.1024 39.2401 65.1245 38.9483 65.25 38.6953C65.3115 38.5692 65.3981 38.457 65.5046 38.3657C65.6112 38.2744 65.7353 38.2059 65.8693 38.1644L70.2925 36.7049C70.4261 36.6606 70.5671 36.643 70.7075 36.6532C70.8479 36.6635 70.9848 36.7014 71.1105 36.7647C71.2363 36.828 71.3483 36.9155 71.4401 37.0221C71.532 37.1287 71.602 37.2524 71.646 37.3861L75.9808 50.4612C76.0675 50.7299 76.0446 51.0219 75.917 51.2737C75.7895 51.5255 75.5676 51.7169 75.2996 51.8059L70.8764 53.2655C70.7676 53.2996 70.6543 53.3175 70.5402 53.3186ZM70.5933 37.5895L66.1701 39.0402C66.1362 39.054 66.1081 39.079 66.0904 39.1111C66.0833 39.1263 66.0796 39.1429 66.0796 39.1597C66.0796 39.1765 66.0833 39.1932 66.0904 39.2085L70.4252 52.2836C70.4355 52.3159 70.4576 52.343 70.4873 52.3594C70.5169 52.3759 70.5516 52.3803 70.5844 52.372L75.0077 50.9124C75.0246 50.9075 75.0403 50.8991 75.0537 50.8877C75.0671 50.8764 75.078 50.8622 75.0855 50.8463C75.0931 50.8304 75.0971 50.8131 75.0974 50.7955C75.0977 50.7779 75.0943 50.7603 75.0873 50.7441L70.7525 37.6692C70.7423 37.6369 70.7201 37.6096 70.6905 37.5932C70.6609 37.5767 70.6261 37.5723 70.5933 37.5807V37.5895Z" fill="#333333"/>
</g>
<defs>
<clipPath id="clip0_1102_180981">
<rect width="51" height="46.9041" fill="white" transform="translate(25 27)"/>
</clipPath>
</defs>
</svg>
