<svg width="20" height="20" viewBox="0 0 20 20" fill="none" xmlns="http://www.w3.org/2000/svg">
<g clip-path="url(#clip0_1038_171330)">
<path d="M17.256 5.54062C18.7716 5.54062 20.0002 4.31198 20.0002 2.79637C20.0002 1.28077 18.7716 0.052124 17.256 0.052124C15.7404 0.052124 14.5117 1.28077 14.5117 2.79637C14.5117 4.31198 15.7404 5.54062 17.256 5.54062Z" fill="#333333"/>
<path d="M17.256 19.9479C18.7716 19.9479 20.0002 18.7193 20.0002 17.2037C20.0002 15.6881 18.7716 14.4594 17.256 14.4594C15.7404 14.4594 14.5117 15.6881 14.5117 17.2037C14.5117 18.7193 15.7404 19.9479 17.256 19.9479Z" fill="#333333"/>
<path d="M2.74425 13.0526C4.25985 13.0526 5.48849 11.8239 5.48849 10.3083C5.48849 8.79273 4.25985 7.56409 2.74425 7.56409C1.22864 7.56409 0 8.79273 0 10.3083C0 11.8239 1.22864 13.0526 2.74425 13.0526Z" fill="#333333"/>
<path d="M17.0741 17.6031L1.76367 10.3257L17.0568 2.40558L17.4562 3.17848L3.71765 10.2909L17.4389 16.8129L17.0741 17.6031Z" fill="#333333"/>
</g>
<defs>
<clipPath id="clip0_1038_171330">
<rect width="20" height="19.8958" fill="white" transform="translate(0 0.052124)"/>
</clipPath>
</defs>
</svg>
