<svg width="90" height="90" viewBox="0 0 90 90" fill="none" xmlns="http://www.w3.org/2000/svg">
<circle cx="45" cy="45" r="45" fill="#FAFAFA"/>
<g clip-path="url(#clip0_1086_174419)">
<path d="M34.3699 40.7097L33.4399 35.3497L41.0699 21.8597L38.0699 19.2397L40.5399 17.5297H41.8899L43.2099 18.9697L45.7799 17.6497L47.9399 18.9197L50.6799 17.1797L52.9499 19.2197L50.0599 22.5097L56.4399 32.6297L57.6099 38.8097L55.5399 42.7697L50.9499 44.7397H40.7599L36.3499 43.6397L34.3699 40.7097Z" fill="white"/>
<path d="M42.6602 69.0702L43.2102 61.8302L43.1802 58.3202L40.3802 52.7202L34.3802 50.8402L32.1902 48.6002L31.6102 42.0802L31.3502 40.8402L29.1002 40.6902L26.2702 40.1602L24.1202 41.1702L25.2202 50.5702L23.6602 51.3802V53.1702L26.5502 58.6002L28.2602 60.0102L34.3702 61.4302L36.4302 63.4102L35.8502 68.8102L42.6602 69.0702Z" fill="white"/>
<path d="M47.9802 69.0702L47.4302 61.8302L47.4502 58.3202L50.2602 52.7202L56.2502 50.8402L58.4502 48.6002L59.0302 42.0802L59.2802 40.8402L61.5402 40.6902L64.3702 40.1602L66.5202 41.1702L65.4102 50.5702L66.9702 51.3802V53.1702L64.0902 58.6002L62.3802 60.0102L56.2702 61.4302L54.2002 63.4102L54.7902 68.8102L47.9802 69.0702Z" fill="white"/>
<path d="M31.6702 51.3398C31.5913 51.3391 31.5135 51.3207 31.4425 51.2861C31.3716 51.2515 31.3093 51.2016 31.2602 51.1398L30.1202 49.6799V49.5498C29.9702 48.7398 29.7302 47.3298 29.4802 45.8598L28.7402 41.6398C28.7224 41.5239 28.6813 41.4126 28.6194 41.3129C28.5576 41.2133 28.4762 41.1272 28.3802 41.0598C28.172 40.9286 27.9228 40.8788 27.6802 40.9199L26.2802 41.1999C26.1423 41.2263 25.9996 41.1969 25.8833 41.1181C25.7671 41.0394 25.6868 40.9176 25.6602 40.7797C25.6365 40.6421 25.667 40.5008 25.7453 40.3852C25.8236 40.2696 25.9436 40.1889 26.0802 40.1599L27.4802 39.8898C27.7359 39.8352 28 39.8336 28.2563 39.8852C28.5126 39.9368 28.7556 40.0406 28.9702 40.1899C29.1835 40.3341 29.3654 40.5199 29.5046 40.7365C29.6439 40.9531 29.7376 41.196 29.7802 41.4499C29.9602 42.4499 30.2402 44.0799 30.5202 45.6799C30.7602 47.0699 30.9902 48.4097 31.1402 49.2397L32.1402 50.4797C32.2262 50.5917 32.265 50.7331 32.2482 50.8732C32.2313 51.0134 32.1603 51.1413 32.0502 51.2297C31.9407 51.3105 31.8059 51.3497 31.6702 51.3398Z" fill="#333333"/>
<path d="M34.9 51.4415C34.8258 51.4416 34.7525 51.4254 34.6852 51.3943C34.6178 51.3632 34.558 51.3178 34.51 51.2613L32.22 48.6915V48.5413C32.03 47.5413 31.85 46.4513 31.67 45.3113C31.49 44.1713 31.34 43.3115 31.15 42.2215C31.1322 42.1044 31.09 41.9923 31.0263 41.8924C30.9626 41.7925 30.8787 41.707 30.78 41.6414C30.5777 41.5051 30.3295 41.4546 30.09 41.5013L29.33 41.6514C29.1935 41.6781 29.0521 41.65 28.9361 41.5733C28.8201 41.4966 28.7389 41.3773 28.71 41.2413C28.6955 41.1729 28.695 41.1023 28.7084 41.0337C28.7219 40.9651 28.749 40.9 28.7883 40.8421C28.8275 40.7842 28.8779 40.7347 28.9366 40.6968C28.9954 40.6589 29.0611 40.6333 29.13 40.6214L29.88 40.4715C30.1373 40.4172 30.403 40.4158 30.6608 40.4673C30.9187 40.5189 31.1633 40.6222 31.38 40.7713C31.5933 40.9155 31.7752 41.1016 31.9144 41.3182C32.0537 41.5348 32.1474 41.7773 32.19 42.0313C32.38 43.1113 32.55 44.1514 32.71 45.1414C32.87 46.1314 33.05 47.2515 33.23 48.2115L35.32 50.5613C35.4171 50.662 35.4715 50.7964 35.4715 50.9363C35.4715 51.0762 35.4171 51.2107 35.32 51.3113C35.2641 51.3629 35.1974 51.4014 35.1247 51.4239C35.0521 51.4464 34.9753 51.4525 34.9 51.4415Z" fill="#333333"/>
<path d="M36.38 69.3413C36.2394 69.3413 36.1046 69.2854 36.0053 69.186C35.9059 69.0866 35.85 68.9518 35.85 68.8113V64.0412C35.8502 63.7615 35.7627 63.4887 35.6 63.2612C34.6261 62.2064 33.3062 61.536 31.88 61.3713L31.23 61.2312C29.5808 61.0566 28.0108 60.4343 26.69 59.4314C25.9952 58.7369 25.4297 57.9241 25.02 57.0312C24.2688 55.5338 23.6206 53.987 23.08 52.4013C22.9805 52.1154 22.9692 51.8061 23.0477 51.5137C23.1261 51.2212 23.2907 50.9589 23.52 50.7612C23.7476 50.557 24.0308 50.425 24.3335 50.3823C24.6363 50.3396 24.9449 50.3879 25.22 50.5212C26.3554 51.0191 27.2892 51.886 27.87 52.9812C27.94 53.1212 28 53.2714 28.07 53.4314C28.51 54.4314 28.79 55.0013 29.77 54.8113C29.9663 54.7639 30.1572 54.697 30.34 54.6113C31.658 54.046 33.1093 53.8662 34.5254 54.0928C35.9415 54.3193 37.2642 54.9431 38.34 55.8913C38.3893 55.9406 38.4284 55.9989 38.4551 56.0632C38.4818 56.1276 38.4955 56.1967 38.4955 56.2663C38.4955 56.336 38.4818 56.4049 38.4551 56.4692C38.4284 56.5336 38.3893 56.5921 38.34 56.6413C38.2908 56.6906 38.2323 56.7297 38.168 56.7563C38.1036 56.783 38.0347 56.7969 37.965 56.7969C37.8954 56.7969 37.8264 56.783 37.762 56.7563C37.6977 56.7297 37.6393 56.6906 37.59 56.6413C36.6671 55.8218 35.5293 55.2827 34.3104 55.0879C33.0916 54.893 31.8425 55.0503 30.71 55.5412C30.4506 55.6628 30.1791 55.7567 29.9 55.8213C28.03 56.1813 27.42 54.7613 27.02 53.8213C26.96 53.6813 26.91 53.5413 26.84 53.4013C26.3653 52.5286 25.6068 51.8442 24.69 51.4614C24.6043 51.4141 24.5057 51.3951 24.4086 51.4077C24.3115 51.4203 24.2209 51.4636 24.15 51.5312C24.0771 51.5915 24.0244 51.6729 23.9994 51.7641C23.9743 51.8554 23.978 51.9522 24.01 52.0412C24.5321 53.5811 25.1638 55.0816 25.9 56.5312C26.2469 57.3113 26.7313 58.0227 27.33 58.6313C28.5054 59.4879 29.8843 60.0223 31.33 60.1814L31.9901 60.3113C34.1001 60.7613 35.53 61.5113 36.34 62.6213C36.6353 63.0281 36.793 63.5185 36.79 64.0212V68.8513C36.786 68.967 36.7434 69.078 36.6691 69.1667C36.5949 69.2555 36.4931 69.3169 36.38 69.3413Z" fill="#333333"/>
<path d="M43.1902 69.6016C43.0496 69.6016 42.9148 69.5457 42.8154 69.4463C42.716 69.3469 42.6602 69.2121 42.6602 69.0716V59.3116C42.4854 57.7273 41.9556 56.2028 41.1102 54.8516C39.6602 52.5316 37.5302 52.0516 35.4802 51.5916L34.7702 51.4317C34.635 51.3962 34.5188 51.3096 34.4461 51.1902C34.3733 51.0709 34.3497 50.928 34.3802 50.7915C34.4133 50.655 34.4994 50.5373 34.6194 50.4642C34.7394 50.391 34.8836 50.3685 35.0202 50.4017L35.7102 50.5616C37.7602 51.0216 40.3202 51.5615 42.0102 54.2915C42.9521 55.8061 43.5337 57.5167 43.7102 59.2915V69.1016C43.7026 69.2352 43.6448 69.3609 43.5484 69.4537C43.4519 69.5464 43.3239 69.5993 43.1902 69.6016Z" fill="#333333"/>
<path d="M29.2002 52.3382C29.1224 52.3367 29.0458 52.3191 28.9752 52.2864C28.9046 52.2537 28.8416 52.2066 28.7902 52.1482L27.4302 50.5181L25.9502 41.4183C25.9368 41.3242 25.9042 41.2338 25.8543 41.1529C25.8044 41.072 25.7383 41.0024 25.6602 40.9483C25.4955 40.8387 25.2953 40.7957 25.1002 40.8282C24.8972 40.8692 24.7165 40.9838 24.5929 41.1499C24.4692 41.3161 24.4113 41.5218 24.4302 41.7281L25.6302 50.8582C25.6447 50.9981 25.6052 51.1382 25.5196 51.2498C25.4341 51.3614 25.309 51.436 25.1702 51.4583C25.1011 51.4681 25.0307 51.4638 24.9632 51.4458C24.8958 51.4278 24.8326 51.3962 24.7776 51.3533C24.7225 51.3104 24.6766 51.2569 24.6427 51.1958C24.6088 51.1348 24.5875 51.0675 24.5802 50.9981L23.3802 41.8582C23.3289 41.3841 23.4578 40.9082 23.7412 40.5247C24.0247 40.1412 24.4419 39.8782 24.9102 39.7881C25.1454 39.7442 25.3871 39.7481 25.6208 39.7996C25.8544 39.8511 26.0753 39.9493 26.2702 40.0882C26.464 40.222 26.6287 40.3939 26.7542 40.5933C26.8797 40.7927 26.9633 41.0154 27.0001 41.2481L28.4202 50.0581L29.6002 51.4683C29.6455 51.5205 29.6799 51.5811 29.7014 51.6468C29.7229 51.7125 29.7311 51.782 29.7255 51.8509C29.7199 51.9198 29.7007 51.9868 29.6688 52.0481C29.637 52.1095 29.5933 52.164 29.5402 52.2083C29.4449 52.289 29.325 52.3347 29.2002 52.3382Z" fill="#333333"/>
<path d="M58.9 51.3391C58.7814 51.3364 58.6664 51.298 58.5699 51.229C58.4599 51.1405 58.3888 51.0127 58.372 50.8725C58.3552 50.7323 58.394 50.5909 58.48 50.479L59.48 49.239C59.62 48.409 59.85 47.0692 60.09 45.6792L60.83 41.4492C60.8725 41.1952 60.9663 40.9524 61.1055 40.7358C61.2448 40.5192 61.4266 40.3333 61.64 40.1892C61.8548 40.0404 62.0978 39.937 62.354 39.8855C62.6102 39.8339 62.8742 39.8351 63.1299 39.8891L64.53 40.1591C64.6678 40.1858 64.7895 40.266 64.8682 40.3823C64.947 40.4985 64.9763 40.6411 64.95 40.779C64.938 40.8479 64.9123 40.9136 64.8744 40.9724C64.8365 41.0311 64.7871 41.0816 64.7293 41.1208C64.6714 41.16 64.6061 41.1872 64.5375 41.2006C64.4689 41.2141 64.3984 41.2136 64.33 41.1992L62.93 40.9191C62.6905 40.8725 62.4423 40.9227 62.24 41.059C62.1413 41.1246 62.0574 41.2101 61.9937 41.31C61.9299 41.4099 61.8878 41.522 61.8699 41.6391L61.1299 45.8591C60.8799 47.3291 60.64 48.739 60.49 49.549V49.6792L59.36 51.1391C59.3047 51.2065 59.2341 51.2599 59.1541 51.2946C59.0741 51.3294 58.987 51.3446 58.9 51.3391Z" fill="#333333"/>
<path d="M55.7098 51.4415C55.5808 51.4439 55.4558 51.3973 55.3598 51.3113C55.2556 51.2173 55.1922 51.0866 55.1828 50.9466C55.1735 50.8066 55.219 50.6683 55.3097 50.5613L57.3998 48.2115C57.5798 47.2115 57.7498 46.2114 57.9198 45.1314C58.0898 44.0514 58.2497 43.1313 58.4397 42.0313C58.4823 41.7773 58.5761 41.5348 58.7154 41.3182C58.8546 41.1016 59.0364 40.9155 59.2497 40.7713C59.4664 40.6222 59.7111 40.5189 59.9689 40.4673C60.2268 40.4158 60.4924 40.4172 60.7497 40.4715L61.4997 40.6214C61.5686 40.6333 61.6344 40.6589 61.6932 40.6968C61.7519 40.7347 61.8023 40.7842 61.8415 40.8421C61.8807 40.9 61.9079 40.9651 61.9213 41.0337C61.9347 41.1023 61.9342 41.1729 61.9198 41.2413C61.8909 41.3773 61.8097 41.4966 61.6937 41.5733C61.5777 41.65 61.4362 41.6781 61.2998 41.6514L60.5398 41.5013C60.3003 41.4557 60.0525 41.5061 59.8498 41.6414C59.7511 41.707 59.6671 41.7925 59.6034 41.8924C59.5397 41.9923 59.4976 42.1044 59.4798 42.2215C59.2898 43.2815 59.1298 44.3213 58.9698 45.3013C58.7798 46.4513 58.5998 47.5313 58.4098 48.5413V48.6915L56.1197 51.2613C56.0696 51.3205 56.0066 51.3675 55.9356 51.3987C55.8645 51.4299 55.7873 51.4446 55.7098 51.4415Z" fill="#333333"/>
<path d="M54.2301 69.3408C54.0895 69.3408 53.9547 69.2849 53.8553 69.1855C53.756 69.0861 53.7001 68.9513 53.7001 68.8108V64.0408C53.6971 63.5381 53.8548 63.0477 54.1501 62.6408C54.9601 61.5308 56.3901 60.7808 58.5001 60.3308L59.1601 60.2009C60.6062 60.0437 61.9856 59.5091 63.1601 58.6509C63.7588 58.0423 64.2432 57.3308 64.5901 56.5508C65.3264 55.1011 65.958 53.6006 66.4801 52.0608C66.5136 51.9719 66.5181 51.8748 66.4929 51.7832C66.4678 51.6916 66.4143 51.6101 66.3401 51.5508C66.2693 51.4831 66.1787 51.4398 66.0815 51.4272C65.9844 51.4146 65.8858 51.4334 65.8001 51.4807C64.8833 51.8635 64.1248 52.5481 63.6501 53.4209L63.4701 53.8408C63.0701 54.8408 62.4701 56.2308 60.5901 55.8408C60.3137 55.7778 60.0454 55.6839 59.7901 55.5608C58.6564 55.0678 57.4052 54.9093 56.1844 55.1042C54.9636 55.2991 53.824 55.8394 52.9001 56.6609C52.8509 56.7102 52.7924 56.7492 52.7281 56.7759C52.6637 56.8025 52.5947 56.8164 52.5251 56.8164C52.4554 56.8164 52.3864 56.8025 52.3221 56.7759C52.2577 56.7492 52.1993 56.7102 52.1501 56.6609C52.1008 56.6116 52.0617 56.5531 52.035 56.4887C52.0084 56.4244 51.9946 56.3555 51.9946 56.2859C51.9946 56.2162 52.0084 56.1471 52.035 56.0827C52.0617 56.0184 52.1008 55.9601 52.1501 55.9109C53.2247 54.9604 54.5476 54.3353 55.9642 54.1086C57.3808 53.882 58.8326 54.0632 60.1501 54.6308C60.3357 54.718 60.5302 54.785 60.7301 54.8308C61.7301 55.0308 61.9801 54.4909 62.4201 53.4509C62.4901 53.2909 62.5501 53.1407 62.6201 53.0007C63.2009 51.9055 64.1347 51.0387 65.2701 50.5408C65.5453 50.4075 65.8539 50.3591 66.1566 50.4018C66.4594 50.4446 66.7426 50.5765 66.9701 50.7807C67.1994 50.9785 67.364 51.2407 67.4424 51.5332C67.5209 51.8256 67.5096 52.1349 67.4101 52.4209C66.8695 54.0066 66.2214 55.5534 65.4701 57.0508C65.0604 57.9436 64.4949 58.7564 63.8001 59.4509C62.4803 60.4556 60.9098 61.0781 59.2601 61.2507L58.6101 61.3908C57.1839 61.5555 55.864 62.226 54.8901 63.2807C54.7274 63.5083 54.64 63.7811 54.6401 64.0608V68.8508C54.636 68.9665 54.5935 69.0775 54.5192 69.1662C54.445 69.255 54.3432 69.3164 54.2301 69.3408Z" fill="#333333"/>
<path d="M47.4202 69.6009C47.2796 69.6009 47.1448 69.5451 47.0454 69.4457C46.946 69.3463 46.8901 69.2115 46.8901 69.0709V59.3109C47.0676 57.5363 47.6492 55.8259 48.5901 54.3109C50.2801 51.6109 52.8401 51.0409 54.8901 50.5809L55.5901 50.421C55.6571 50.4047 55.7267 50.4019 55.7948 50.4127C55.8629 50.4235 55.9281 50.4477 55.9868 50.484C56.0454 50.5203 56.0962 50.568 56.1363 50.6241C56.1764 50.6802 56.2049 50.7437 56.2202 50.8109C56.2533 50.9475 56.2308 51.0918 56.1577 51.2118C56.0845 51.3318 55.9667 51.4179 55.8301 51.451L55.1301 51.6109C53.0701 52.0709 50.9402 52.551 49.4902 54.871C48.6408 56.2385 48.1109 57.7802 47.9401 59.381V69.0909C47.9375 69.2271 47.8816 69.3569 47.7844 69.4523C47.6871 69.5476 47.5564 69.601 47.4202 69.6009Z" fill="#333333"/>
<path d="M61.4001 52.3382C61.2753 52.3347 61.1553 52.289 61.0601 52.2083C61.007 52.164 60.9632 52.1095 60.9314 52.0481C60.8996 51.9868 60.8803 51.9198 60.8748 51.8509C60.8692 51.782 60.8773 51.7125 60.8989 51.6468C60.9204 51.5811 60.9548 51.5205 61.0001 51.4683L62.1801 50.0581L63.6001 41.2481C63.6369 41.0154 63.7206 40.7927 63.8461 40.5933C63.9715 40.3939 64.1362 40.222 64.3301 40.0882C64.525 39.9493 64.7459 39.8511 64.9795 39.7996C65.2132 39.7481 65.4548 39.7442 65.6901 39.7881C66.1594 39.8761 66.5781 40.1385 66.8619 40.5225C67.1458 40.9065 67.2737 41.3837 67.2201 41.8582L66.0301 50.9981C66.0102 51.138 65.9362 51.2646 65.824 51.3506C65.7118 51.4366 65.5704 51.4754 65.4301 51.4583C65.3611 51.4485 65.2947 51.4252 65.2348 51.3897C65.1748 51.3542 65.1225 51.3072 65.0807 51.2515C65.0389 51.1958 65.0085 51.1322 64.9913 51.0647C64.974 50.9973 64.9702 50.9271 64.9801 50.8582L66.1701 41.7281C66.189 41.5218 66.131 41.3161 66.0074 41.1499C65.8837 40.9838 65.703 40.8692 65.5001 40.8282C65.3049 40.7957 65.1048 40.8387 64.9401 40.9483C64.862 41.0024 64.7959 41.072 64.746 41.1529C64.6961 41.2338 64.6634 41.3242 64.6501 41.4183L63.1701 50.5181L61.8101 52.1482C61.7587 52.2066 61.6957 52.2537 61.6251 52.2864C61.5545 52.3191 61.4779 52.3367 61.4001 52.3382Z" fill="#333333"/>
<path d="M43.7101 68.9883H35.3101V71.8883H43.7101V68.9883Z" fill="#235AB0"/>
<path d="M44.2098 72.3884H34.7998V68.4883H44.2098V72.3884ZM35.7998 71.3884H43.2098V69.4883H35.7998V71.3884Z" fill="#333333"/>
<path d="M55.2701 68.9883H46.8701V71.8883H55.2701V68.9883Z" fill="#235AB0"/>
<path d="M55.7701 72.3884H46.3701V68.4883H55.7701V72.3884ZM47.3701 71.3884H54.7701V69.4883H47.3701V71.3884Z" fill="#333333"/>
<path d="M50.4899 45.2793H40.6999C38.7243 45.2822 36.8271 44.5075 35.418 43.1228C34.009 41.7381 33.2014 39.8547 33.1699 37.8794C33.175 35.1862 34.056 32.5679 35.6799 30.4194L41.0699 21.8594H50.2999L55.6099 30.4495C57.2047 32.5733 58.0741 35.1535 58.0899 37.8093C58.0461 38.9531 57.7598 40.0746 57.2499 41.0994C56.6297 42.3609 55.6666 43.4223 54.471 44.1616C53.2754 44.9009 51.8956 45.2882 50.4899 45.2793ZM41.6499 22.9194L36.5499 31.0093C35.0684 32.9652 34.2551 35.3457 34.2299 37.7993C34.2405 39.5083 34.9268 41.1437 36.139 42.3484C37.3512 43.5531 38.9908 44.2293 40.6999 44.2292H50.4899C51.6955 44.2384 52.8792 43.9074 53.9052 43.2742C54.9311 42.6409 55.7577 41.7312 56.2899 40.6494C56.7333 39.7617 56.9854 38.7906 57.0299 37.7993C57.0077 35.3624 56.2051 32.9967 54.7399 31.0493L49.7399 22.9194H41.6499Z" fill="#333333"/>
<path d="M50.0101 22.9214C49.9391 22.9226 49.8687 22.9089 49.8033 22.8813C49.7378 22.8538 49.6788 22.8129 49.6301 22.7612C49.5808 22.712 49.5418 22.6537 49.5151 22.5894C49.4884 22.525 49.4747 22.4559 49.4747 22.3862C49.4747 22.3166 49.4884 22.2477 49.5151 22.1833C49.5418 22.119 49.5808 22.0605 49.6301 22.0112L52.4401 19.2913L51.6702 18.5212C51.3505 18.2174 50.9262 18.0481 50.4852 18.0481C50.0441 18.0481 49.6199 18.2174 49.3002 18.5212L48.0001 19.8213L47.2202 19.0413C46.808 18.6321 46.2509 18.4026 45.6702 18.4026C45.0894 18.4026 44.5322 18.6321 44.1201 19.0413L43.3401 19.8213L42.0402 18.5212C41.7221 18.218 41.2996 18.0488 40.8602 18.0488C40.4208 18.0488 39.9982 18.218 39.6802 18.5212L38.9102 19.2913L41.7202 22.0112C41.7694 22.0605 41.8085 22.119 41.8352 22.1833C41.8619 22.2477 41.8756 22.3166 41.8756 22.3862C41.8756 22.4559 41.8619 22.525 41.8352 22.5894C41.8085 22.6537 41.7694 22.712 41.7202 22.7612C41.6709 22.8105 41.6124 22.8498 41.5481 22.8765C41.4838 22.9031 41.4148 22.9167 41.3452 22.9167C41.2755 22.9167 41.2065 22.9031 41.1422 22.8765C41.0778 22.8498 41.0194 22.8105 40.9702 22.7612L37.3901 19.2913L38.9202 17.7712C39.4383 17.2714 40.1302 16.9922 40.8502 16.9922C41.5701 16.9922 42.262 17.2714 42.7802 17.7712L43.3301 18.3213C43.9407 17.7161 44.7655 17.3767 45.6251 17.3767C46.4848 17.3767 47.3096 17.7161 47.9202 18.3213L48.4802 17.7712C48.9995 17.2737 49.6909 16.9961 50.4102 16.9961C51.1294 16.9961 51.8208 17.2737 52.3401 17.7712L53.8701 19.2913L50.2802 22.7612C50.2092 22.8416 50.1147 22.8978 50.0101 22.9214Z" fill="#333333"/>
<path d="M45.7802 39.4089C45.0296 39.4089 44.3098 39.1108 43.7791 38.5801C43.2484 38.0493 42.9502 37.3294 42.9502 36.5789C42.9502 36.4383 43.0061 36.3035 43.1055 36.2041C43.2049 36.1047 43.3397 36.0488 43.4802 36.0488C43.5494 36.0488 43.6178 36.0626 43.6815 36.0894C43.7453 36.1161 43.8031 36.1552 43.8515 36.2046C43.8999 36.2539 43.938 36.3125 43.9636 36.3767C43.9891 36.441 44.0015 36.5097 44.0002 36.5789C44.0028 37.0492 44.1916 37.4994 44.5251 37.8311C44.8586 38.1627 45.3099 38.3489 45.7802 38.3489C46.2506 38.3489 46.7018 38.1627 47.0353 37.8311C47.3689 37.4994 47.5575 37.0492 47.5602 36.5789C47.5602 35.7289 47.0302 35.2388 45.6202 34.7688C44.9602 34.5588 42.9502 33.899 42.9502 31.969C42.9502 31.2175 43.2481 30.4964 43.7785 29.9641C44.3089 29.4318 45.0287 29.1316 45.7802 29.1289C46.5334 29.1289 47.2558 29.4281 47.7884 29.9607C48.321 30.4933 48.6202 31.2158 48.6202 31.969C48.6202 32.1096 48.5644 32.2444 48.465 32.3438C48.3656 32.4431 48.2308 32.4988 48.0902 32.4988C47.9496 32.4988 47.8148 32.4431 47.7155 32.3438C47.6161 32.2444 47.5602 32.1096 47.5602 31.969C47.5602 31.4969 47.3727 31.044 47.0389 30.7102C46.7051 30.3764 46.2523 30.189 45.7802 30.189C45.3081 30.189 44.8554 30.3764 44.5215 30.7102C44.1877 31.044 44.0002 31.4969 44.0002 31.969C44.0002 32.509 44.2202 33.2088 45.9402 33.7688C47.1902 34.1688 48.6202 34.8589 48.6202 36.5789C48.6175 37.3303 48.3172 38.0501 47.7849 38.5806C47.2525 39.111 46.5317 39.4089 45.7802 39.4089Z" fill="#333333"/>
<path d="M45.78 30.2117C45.6395 30.2117 45.5047 30.1558 45.4053 30.0564C45.3059 29.957 45.25 29.8222 45.25 29.6816V28.3816C45.25 28.312 45.2637 28.243 45.2903 28.1787C45.317 28.1144 45.3561 28.0561 45.4053 28.0068C45.4545 27.9576 45.5129 27.9185 45.5772 27.8918C45.6415 27.8652 45.7104 27.8516 45.78 27.8516C45.8496 27.8516 45.9185 27.8652 45.9828 27.8918C46.0472 27.9185 46.1056 27.9576 46.1548 28.0068C46.204 28.0561 46.243 28.1144 46.2697 28.1787C46.2963 28.243 46.31 28.312 46.31 28.3816V29.6816C46.31 29.8222 46.2542 29.957 46.1548 30.0564C46.0554 30.1558 45.9206 30.2117 45.78 30.2117Z" fill="#333333"/>
<path d="M45.78 40.7104C45.7104 40.7104 45.6415 40.6966 45.5772 40.6699C45.5129 40.6433 45.4545 40.6044 45.4053 40.5552C45.3561 40.506 45.317 40.4474 45.2903 40.3831C45.2637 40.3188 45.25 40.25 45.25 40.1804V38.8503C45.25 38.7098 45.3059 38.575 45.4053 38.4756C45.5047 38.3762 45.6395 38.3203 45.78 38.3203C45.9206 38.3203 46.0554 38.3762 46.1548 38.4756C46.2542 38.575 46.31 38.7098 46.31 38.8503V40.1504C46.3141 40.2225 46.3034 40.2945 46.2786 40.3623C46.2538 40.4301 46.2155 40.4922 46.1658 40.5447C46.1162 40.5971 46.0564 40.6387 45.9901 40.6672C45.9237 40.6957 45.8522 40.7106 45.78 40.7104Z" fill="#333333"/>
</g>
<defs>
<clipPath id="clip0_1086_174419">
<rect width="44.61" height="55.39" fill="white" transform="translate(23 17)"/>
</clipPath>
</defs>
</svg>
