<svg width="40" height="25" viewBox="0 0 40 25" fill="none" xmlns="http://www.w3.org/2000/svg">
<path d="M39.9419 1.92578H18.2402V3.86582H39.9419V1.92578Z" fill="white"/>
<path d="M39.9419 9.6123H18.2402V11.5082H39.9419V9.6123Z" fill="white"/>
<path d="M39.9411 13.4336H18.2394V13.463H0V15.3295H39.9411V13.4336Z" fill="white"/>
<path d="M39.9411 17.2549H0V19.1508H39.9411V17.2549Z" fill="white"/>
<path d="M39.9419 5.79102H18.2402V7.68696H39.9419V5.79102Z" fill="white"/>
<path d="M39.9411 21.0762H0V22.9721H39.9411V21.0762Z" fill="white"/>
<path d="M39.9411 22.9717V24.9558H0V24.9999H40V22.9717H39.9411Z" fill="#CB072F"/>
<path d="M39.9411 22.9717H0V24.9558H39.9411V22.9717Z" fill="#CB072F"/>
<path d="M39.9561 19.1504H39.9414V21.0757H39.9561V19.1504Z" fill="#CB072F"/>
<path d="M39.9411 19.1504H0V21.0757H39.9411V19.1504Z" fill="#CB072F"/>
<path d="M39.9561 15.3291H39.9414V17.2544H39.9561V15.3291Z" fill="#CB072F"/>
<path d="M39.9411 15.3291H0V17.2544H39.9411V15.3291Z" fill="#CB072F"/>
<path d="M39.9561 11.5078H39.9414V13.4332H39.9561V11.5078Z" fill="#CB072F"/>
<path d="M39.9419 11.5078H18.2402V13.4332H39.9419V11.5078Z" fill="#CB072F"/>
<path d="M39.9561 7.68652H39.9414V9.61186H39.9561V7.68652Z" fill="#CB072F"/>
<path d="M39.9419 7.68652H18.2402V9.61186H39.9419V7.68652Z" fill="#CB072F"/>
<path d="M39.9561 3.86523H39.9414V5.79057H39.9561V3.86523Z" fill="#CB072F"/>
<path d="M39.9419 3.86523H18.2402V5.79057H39.9419V3.86523Z" fill="#CB072F"/>
<path d="M39.9419 0.0146972V1.92534H39.9566V0H18.2402V0.0146972H39.9419Z" fill="#CB072F"/>
<path d="M39.9419 0.0146484H18.2402V1.92529H39.9419V0.0146484Z" fill="#CB072F"/>
<path d="M1.2523 3.79233L1.50276 3.29262L1.75322 3.79233L2.28361 3.86582H3.77164L4.30203 3.79233L4.55249 3.29262L4.80295 3.79233L5.33333 3.86582H6.82136L7.35175 3.79233L7.60221 3.29262L7.85267 3.79233L8.38306 3.86582H9.87109L10.4015 3.79233L10.6519 3.29262L10.9024 3.79233L11.4328 3.86582H12.9208L13.4659 3.79233L13.7017 3.29262L13.9521 3.79233L14.4825 3.86582H15.9853L16.5157 3.79233L16.7514 3.29262L17.0018 3.79233L17.5322 3.86582H18.2394V1.92578H17.2228L17.2523 2.13154L16.8692 1.92578H16.6483L16.2652 2.13154L16.2947 1.92578H15.3517L15.4991 2.21973L16.0589 2.29321L15.6464 2.69004L15.7495 3.23384L15.2486 2.98398L14.7477 3.23384L14.8508 2.69004L14.4383 2.29321L14.9982 2.21973L15.1455 1.92578H14.1731L14.2026 2.13154L13.8195 1.92578H13.5985L13.2007 2.13154L13.2449 1.92578H12.2726L12.4052 2.17563L12.965 2.26382L12.5672 2.64595L12.6556 3.20444L12.1547 2.93989L11.6685 3.20444L11.7569 2.64595L11.3591 2.26382L11.9042 2.17563L12.0368 1.92578H11.1234L11.1529 2.13154L10.7551 1.92578H10.5488L10.151 2.13154L10.1952 1.92578H9.22284L9.39963 2.27851L9.95949 2.352L9.56169 2.74883L9.65009 3.29262L9.14917 3.04277L8.64825 3.29262L8.75138 2.74883L8.33886 2.352L8.89871 2.27851L9.07551 1.92578H8.05893L8.10313 2.13154L7.70534 1.92578H7.49908L7.10129 2.13154L7.14549 1.92578H6.26151L6.42357 2.26382L6.98343 2.3373L6.5709 2.73413L6.67403 3.27793L6.17311 3.01338L5.67219 3.27793L5.77532 2.73413L5.37753 2.3373L5.92265 2.26382L6.08471 1.92578H5.02394L5.05341 2.13154L4.65562 1.92578H4.44936L4.05157 2.13154L4.09576 1.92578H3.09392L3.30018 2.3373L3.8453 2.42549L3.44751 2.80762L3.55064 3.35141L3.03499 3.10156L2.5488 3.35141L2.6372 2.80762L2.23941 2.42549L2.79926 2.3373L3.00552 1.92578H1.95948L2.00368 2.13154L1.60589 1.92578H1.39963L1.00184 2.13154L1.04604 1.92578H0V3.86582H0.721915L1.2523 3.79233Z" fill="#032A70"/>
<path d="M1.50276 11.0673L1.72376 11.5082H4.33149L4.55249 11.0673L4.77348 11.5082H7.38122L7.60221 11.0673L7.8232 11.5082H10.4309L10.6519 11.0673L10.8729 11.5082H13.4954L13.7164 11.0673L13.9374 11.5082H16.5451L16.7661 11.0673L16.9871 11.5082H18.2394V9.6123H17.2081L17.267 9.95034L16.7661 9.68579L16.2652 9.95034L16.3241 9.6123H14.1584L14.2173 9.95034L13.7164 9.68579L13.2155 9.95034L13.2744 9.6123H12.1694L12.4199 10.112L12.9797 10.2002L12.582 10.5823L12.6704 11.1408L12.1694 10.8763L11.6685 11.1408L11.7569 10.5823L11.3591 10.2002L11.919 10.112L12.1694 9.6123H11.1087L11.1676 9.95034L10.6667 9.68579L10.1657 9.95034L10.2247 9.6123H8.05893L8.11786 9.95034L7.61694 9.68579L7.11602 9.95034L7.17495 9.6123H5.00921L5.06814 9.95034L4.56722 9.68579L4.0663 9.95034L4.12523 9.6123H1.94475L2.00368 9.95034L1.50276 9.68579L1.00184 9.95034L1.06077 9.6123H0V11.5082H1.28177L1.50276 11.0673ZM14.9982 10.1414L15.2486 9.6417L15.4991 10.1414L16.0589 10.2149L15.6611 10.597L15.7643 11.1555L15.2634 10.891L14.7624 11.1555L14.8656 10.597L14.4678 10.2149L15.0276 10.1414H14.9982ZM8.89871 10.2002L9.14917 9.70049L9.39963 10.2002L9.95949 10.2737L9.56169 10.6558L9.65009 11.1996L9.14917 10.9351L8.64825 11.1996L8.73665 10.6558L8.33886 10.2737L8.89871 10.2002ZM5.92265 10.1855L6.17311 9.68579L6.42357 10.1855L6.98343 10.2737L6.5709 10.6558L6.67403 11.1996L6.17311 10.9351L5.67219 11.1996L5.77532 10.6558L5.37753 10.2737L5.93739 10.1855H5.92265ZM2.79926 10.259L3.03499 9.75928L3.28545 10.259L3.8453 10.3472L3.44751 10.7293L3.53591 11.2878L3.03499 11.0379L2.53407 11.2878L2.6372 10.7293L2.23941 10.3472L2.79926 10.259Z" fill="#032A70"/>
<path d="M18.2394 13.4336H0V13.463H18.2394V13.4336Z" fill="#032A70"/>
<path d="M2.79926 7.62812L3.03499 7.12842L3.28545 7.62812L3.74217 7.70161H5.42173L5.34807 7.64282L5.90792 7.56933L6.15838 7.06963L6.40884 7.56933L6.96869 7.64282L6.89503 7.70161H8.38306L8.32413 7.65752L8.88398 7.58403L9.13444 7.08432L9.3849 7.58403L9.94475 7.65752L9.90055 7.70161H11.4917L11.3444 7.55463L11.9042 7.48115L12.1547 6.98144L12.4052 7.48115L12.965 7.55463L12.8177 7.70161H14.5562L14.453 7.59873L15.0129 7.51054L15.2634 7.01084L15.5138 7.51054L16.0737 7.59873L15.9705 7.70161H18.2541V5.80566H15.7495V5.89385L15.6022 5.80566H14.9392L14.7624 5.89385V5.80566H12.6704V5.84976L12.582 5.80566H11.7716L11.6832 5.84976V5.80566H9.65009L9.67956 5.95264L9.39963 5.80566H8.95764L8.67772 5.95264L8.70718 5.80566H6.67403L6.7035 5.93794L6.45304 5.80566H5.93739L5.68692 5.93794L5.71639 5.80566H3.53591L3.56538 6.01143L3.16759 5.80566H2.96133L2.56354 6.01143L2.593 5.80566H0V7.70161H2.34254L2.79926 7.62812ZM16.5157 6.36416L16.7661 5.86445L17.0166 6.36416L17.5764 6.43765L17.1786 6.83447L17.267 7.39297L16.7661 7.12842L16.2652 7.39297L16.3536 6.83447L15.9558 6.43765L16.5157 6.36416ZM13.4659 6.36416L13.7164 5.86445L13.9669 6.36416L14.5267 6.43765L14.1142 6.83447L14.2173 7.39297L13.7164 7.12842L13.2155 7.39297L13.3186 6.83447L12.9061 6.43765L13.4659 6.36416ZM10.4162 6.36416L10.6667 5.86445L10.9171 6.36416L11.477 6.43765L11.0792 6.83447L11.1823 7.39297L10.6814 7.12842L10.1805 7.39297L10.2836 6.83447L9.87109 6.43765L10.4309 6.36416H10.4162ZM7.36648 6.36416L7.61694 5.86445L7.8674 6.36416L8.42726 6.43765L8.02947 6.83447L8.11786 7.39297L7.61694 7.12842L7.11602 7.39297L7.21915 6.83447L6.82136 6.43765L7.38122 6.36416H7.36648ZM4.31676 6.36416L4.56722 5.86445L4.80295 6.36416L5.3628 6.43765L4.96501 6.83447L5.05341 7.39297L4.55249 7.12842L4.05157 7.39297L4.13996 6.83447L3.74217 6.43765L4.30203 6.36416H4.31676ZM1.5175 7.12842L1.01657 7.39297L1.10497 6.83447L0.707182 6.43765L1.26704 6.36416L1.5175 5.86445L1.76796 6.36416L2.32781 6.43765L1.93002 6.83447L2.03315 7.39297L1.53223 7.12842H1.5175Z" fill="#032A70"/>
<path d="M18.2394 11.5078H16.9724L17.0018 11.5666L17.5617 11.6548L17.1639 12.0369L17.2523 12.5954L16.7514 12.3309L16.2652 12.5954L16.3536 12.0369L15.9558 11.6548L16.5157 11.5666L16.5451 11.5078H13.9227L13.9521 11.5666L14.512 11.6548L14.0994 12.0369L14.2026 12.5954L13.7017 12.3309L13.2007 12.5954L13.3039 12.0369L12.8913 11.6548L13.4659 11.5666L13.4954 11.5078H10.8729L10.9024 11.5666L11.4622 11.6548L11.0645 12.0369L11.1529 12.5954L10.6519 12.3309L10.151 12.5954L10.2541 12.0369L9.84162 11.6548L10.4015 11.5666L10.4309 11.5078H7.8232L7.85267 11.5666L8.41252 11.6548L8.01473 12.0369L8.10313 12.5954L7.60221 12.3309L7.10129 12.5954L7.20442 12.0369L6.7919 11.6548L7.35175 11.5666L7.38122 11.5078H4.77348L4.80295 11.5666L5.3628 11.6548L4.96501 12.0369L5.05341 12.5954L4.55249 12.3309L4.05157 12.5954L4.1547 12.0369L3.74217 11.6548L4.30203 11.5666L4.33149 11.5078H1.72376L1.75322 11.5666L2.31308 11.6548L1.90055 12.0369L2.00368 12.5954L1.50276 12.3309L1.00184 12.5954L1.10497 12.0369L0.692449 11.6548L1.2523 11.5666L1.28177 11.5078H0V13.4332H18.2394V11.5078Z" fill="#032A70"/>
<path d="M1.10497 9.3914L0.692449 9.00927L1.2523 8.92109L1.50276 8.42139L1.75322 8.92109L2.31308 9.00927L1.90055 9.3914L1.94475 9.61186H4.1105L4.1547 9.3914L3.74217 9.00927L4.30203 8.92109L4.55249 8.42139L4.80295 8.92109L5.3628 9.00927L4.96501 9.3914L4.99448 9.61186H7.16022L7.20442 9.3914L6.7919 9.00927L7.35175 8.92109L7.60221 8.42139L7.85267 8.92109L8.41252 9.00927L8.01473 9.3914L8.0442 9.61186H10.2099L10.2541 9.3914L9.84162 9.00927L10.4015 8.92109L10.6519 8.42139L10.9024 8.92109L11.4622 9.00927L11.0645 9.3914L11.0939 9.61186H12.1547H13.2597L13.3039 9.3914L12.8913 9.00927L13.4659 8.92109L13.7017 8.42139L13.9521 8.92109L14.512 9.00927L14.0994 9.3914L14.1436 9.61186H16.3094L16.3536 9.3914L15.9558 9.00927L16.5157 8.92109L16.7514 8.42139L17.0018 8.92109L17.5617 9.00927L17.1639 9.3914L17.1934 9.61186H18.2394V7.68652H15.9411L15.6464 7.98047L15.7495 8.52427L15.2486 8.25972L14.7477 8.52427L14.8508 7.98047L14.5562 7.68652H12.8177L12.5672 7.93638L12.6556 8.49487L12.1547 8.23032L11.6685 8.49487L11.7569 7.93638L11.4917 7.68652H9.90055L9.56169 8.02456L9.65009 8.58306L9.14917 8.3185L8.64825 8.58306L8.75138 8.02456L8.39779 7.68652H6.90976L6.5709 8.00986L6.67403 8.56836L6.17311 8.30381L5.67219 8.56836L5.77532 8.00986L5.43646 7.68652H3.75691L3.8453 7.70122L3.44751 8.09805L3.55064 8.64184L3.03499 8.37729L2.5488 8.64184L2.6372 8.09805L2.23941 7.70122L2.34254 7.68652H0V9.61186H1.06077L1.10497 9.3914Z" fill="#032A70"/>
<path d="M11.7578 5.79072H12.5681L12.1556 5.58496L11.7578 5.79072Z" fill="#032A70"/>
<path d="M14.9102 5.79058H15.5879L15.249 5.62891L14.9102 5.79058Z" fill="#032A70"/>
<path d="M2.94727 5.79116H3.15353L3.03566 5.74707L2.94727 5.79116Z" fill="#032A70"/>
<path d="M5.92188 5.79048H6.4228L6.17234 5.6582L5.92188 5.79048Z" fill="#032A70"/>
<path d="M2.6372 5.45254L2.23941 5.05571L2.79926 4.98222L3.03499 4.48252L3.30018 4.98222L3.8453 5.05571L3.44751 5.45254L3.50645 5.79057H5.70166L5.77532 5.37905L5.37753 4.98222L5.92265 4.90874L6.17311 4.40903L6.42357 4.90874L6.98343 4.98222L6.5709 5.37905L6.64457 5.79057H8.67772L8.75138 5.39375L8.33886 4.99692L8.89871 4.92344L9.14917 4.42373L9.39963 4.92344L9.95949 4.99692L9.56169 5.39375L9.62063 5.79057H11.6685L11.7569 5.29087L11.3591 4.90874L11.9042 4.82055L12.1547 4.32085L12.4052 4.82055L12.965 4.90874L12.5672 5.29087L12.6409 5.79057H14.7624L14.8508 5.33496L14.4383 4.93813L14.9982 4.86465L15.2486 4.36494L15.4991 4.86465L16.0589 4.93813L15.6464 5.33496L15.7348 5.79057H18.2394V3.86523H17.5322H17.5617L17.1639 4.26206L17.2523 4.80586L16.7514 4.556L16.2652 4.80586L16.3536 4.26206L15.9558 3.86523H15.9853H14.4825H14.512L14.0994 4.26206L14.2026 4.80586L13.7017 4.556L13.2007 4.80586L13.3039 4.26206L12.8913 3.86523H12.9208H11.4328H11.4622L11.0645 4.26206L11.1529 4.80586L10.6519 4.556L10.151 4.80586L10.2541 4.26206L9.84162 3.86523H9.87109H8.38306H8.41252L8.01473 4.26206L8.10313 4.80586L7.60221 4.556L7.10129 4.80586L7.20442 4.26206L6.7919 3.86523H6.82136H5.33333H5.3628L4.96501 4.26206L5.05341 4.80586L4.55249 4.556L4.05157 4.80586L4.1547 4.26206L3.74217 3.86523H3.77164H2.28361H2.31308L1.90055 4.26206L2.00368 4.80586L1.50276 4.556L1.00184 4.80586L1.10497 4.26206L0.692449 3.86523H0.721915H0V5.79057H2.57827L2.6372 5.45254Z" fill="#032A70"/>
<path d="M8.92773 5.79043H9.36972L9.14873 5.67285L8.92773 5.79043Z" fill="#032A70"/>
<path d="M18.2394 0H0V0.0146972H18.2394V0Z" fill="#032A70"/>
<path d="M4.44922 1.925H4.65548L4.55235 1.86621L4.44922 1.925Z" fill="#032A70"/>
<path d="M10.5488 1.925H10.7551L10.652 1.86621L10.5488 1.925Z" fill="#032A70"/>
<path d="M1.40039 1.925H1.60665L1.50352 1.86621L1.40039 1.925Z" fill="#032A70"/>
<path d="M16.6484 1.925H16.8694L16.7516 1.86621L16.6484 1.925Z" fill="#032A70"/>
<path d="M7.5 1.925H7.70626L7.60313 1.86621L7.5 1.925Z" fill="#032A70"/>
<path d="M13.5977 1.925H13.8187L13.7008 1.86621L13.5977 1.925Z" fill="#032A70"/>
<path d="M1.10497 1.58725L0.692449 1.19043L1.2523 1.11694L1.50276 0.617235L1.75322 1.11694L2.31308 1.19043L1.90055 1.58725L1.95948 1.92529H3.00552L3.03499 1.83711L3.09392 1.92529H4.09576L4.1547 1.58725L3.74217 1.19043L4.30203 1.11694L4.55249 0.617235L4.80295 1.11694L5.3628 1.19043L4.96501 1.58725L5.02394 1.92529H6.08471L6.17311 1.76362L6.26151 1.92529H7.14549L7.20442 1.58725L6.7919 1.19043L7.35175 1.11694L7.60221 0.617235L7.85267 1.11694L8.41252 1.19043L8.01473 1.58725L8.05893 1.92529H9.07551L9.14917 1.77832L9.22284 1.92529H10.1952L10.2541 1.58725L9.84162 1.19043L10.4015 1.11694L10.6519 0.617235L10.9024 1.11694L11.4622 1.19043L11.0645 1.58725L11.1234 1.92529H12.0368L12.1547 1.67544L12.2726 1.92529H13.2449L13.3039 1.58725L12.8913 1.19043L13.4659 1.11694L13.7017 0.617235L13.9521 1.11694L14.512 1.19043L14.0994 1.58725L14.1731 1.92529H15.1455L15.2486 1.71953L15.3517 1.92529H16.2947L16.3536 1.58725L15.9558 1.19043L16.5157 1.11694L16.7514 0.617235L17.0018 1.11694L17.5617 1.19043L17.1639 1.58725L17.2228 1.92529H18.2394V0.0146484H0V1.92529H1.04604L1.10497 1.58725Z" fill="#032A70"/>
<path d="M2.00326 2.13154L1.95906 1.92578H1.60547L2.00326 2.13154Z" fill="#FCFCFC"/>
<path d="M1.00195 2.13154L1.39974 1.92578H1.04615L1.00195 2.13154Z" fill="#FCFCFC"/>
<path d="M2.31399 1.19038L1.75413 1.11689L1.50367 0.617188L1.25321 1.11689L0.693359 1.19038L1.10588 1.58721L1.04695 1.92524H1.40054L1.50367 1.86645L1.6068 1.92524H1.96039L1.90146 1.58721L2.31399 1.19038Z" fill="#FCFCFC"/>
<path d="M2.80009 2.3373L2.24023 2.42549L2.63802 2.80762L2.54963 3.35141L3.03581 3.10156L3.55147 3.35141L3.44834 2.80762L3.84613 2.42549L3.30101 2.3373L3.09475 1.92578H3.00635L2.80009 2.3373Z" fill="#FCFCFC"/>
<path d="M3.00586 1.9251H3.09426L3.03533 1.83691L3.00586 1.9251Z" fill="#FCFCFC"/>
<path d="M3.55013 5.99678L3.50593 5.79102H3.15234L3.55013 5.99678Z" fill="#FCFCFC"/>
<path d="M2.54883 5.99678L2.94662 5.79102H2.57829L2.54883 5.99678Z" fill="#FCFCFC"/>
<path d="M3.84613 5.05561L3.30101 4.98213L3.03581 4.48242L2.80009 4.98213L2.24023 5.05561L2.63802 5.45244L2.57909 5.79048H2.94742L3.03581 5.74638L3.15368 5.79048H3.50727L3.44834 5.45244L3.84613 5.05561Z" fill="#FCFCFC"/>
<path d="M3.03425 7.12793L2.79852 7.62764L2.3418 7.68642H3.75616L3.29944 7.62764L3.03425 7.12793Z" fill="#FCFCFC"/>
<path d="M2.24023 7.70122L2.63802 8.09805L2.54963 8.64184L3.03581 8.37729L3.55147 8.64184L3.44834 8.09805L3.84613 7.70122L3.75773 7.68652H2.34337L2.24023 7.70122Z" fill="#FCFCFC"/>
<path d="M2.54963 11.2873L3.03581 11.0228L3.55147 11.2873L3.44834 10.7288L3.84613 10.3467L3.30101 10.2732L3.03581 9.75879L2.80009 10.2732L2.24023 10.3467L2.63802 10.7288L2.54963 11.2873Z" fill="#FCFCFC"/>
<path d="M5.92207 2.26382L5.37695 2.3373L5.77474 2.73413L5.67161 3.27793L6.17253 3.01338L6.67345 3.27793L6.57032 2.73413L6.98285 2.3373L6.42299 2.26382L6.26093 1.92578H6.08414L5.92207 2.26382Z" fill="#FCFCFC"/>
<path d="M6.08398 1.92534H6.26078L6.17238 1.76367L6.08398 1.92534Z" fill="#FCFCFC"/>
<path d="M6.67429 5.92329L6.64482 5.79102H6.42383L6.67429 5.92329Z" fill="#FCFCFC"/>
<path d="M5.67188 5.92329L5.92234 5.79102H5.70134L5.67188 5.92329Z" fill="#FCFCFC"/>
<path d="M6.98285 4.98237L6.42299 4.90889L6.17253 4.40918L5.92207 4.90889L5.37695 4.98237L5.77474 5.3792L5.70108 5.79072H5.92207L6.17253 5.65844L6.42299 5.79072H6.64399L6.57032 5.3792L6.98285 4.98237Z" fill="#FCFCFC"/>
<path d="M6.42299 7.53975L6.17253 7.04004L5.92207 7.53975L5.37695 7.62793L5.43588 7.68672H6.90918L6.98285 7.62793L6.42299 7.53975Z" fill="#FCFCFC"/>
<path d="M5.77441 8.00986L5.67127 8.56836L6.1722 8.30381L6.67312 8.56836L6.56999 8.00986L6.90884 7.68652H5.43555L5.77441 8.00986Z" fill="#FCFCFC"/>
<path d="M5.67161 11.1994L6.17253 10.9495L6.67345 11.1994L6.57032 10.6556L6.98285 10.2734L6.42299 10.1853L6.17253 9.68555L5.92207 10.1853L5.37695 10.2734L5.77474 10.6556L5.67161 11.1994Z" fill="#FCFCFC"/>
<path d="M8.89774 2.27851L8.33789 2.352L8.75041 2.74883L8.64728 3.29262L9.1482 3.04277L9.64912 3.29262L9.56073 2.74883L9.95852 2.352L9.39866 2.27851L9.22187 1.92578H9.07454L8.89774 2.27851Z" fill="#FCFCFC"/>
<path d="M9.07617 1.92529H9.2235L9.14984 1.77832L9.07617 1.92529Z" fill="#FCFCFC"/>
<path d="M9.65102 5.93799L9.62155 5.79102H9.37109L9.65102 5.93799Z" fill="#FCFCFC"/>
<path d="M8.64844 5.93799L8.92836 5.79102H8.6779L8.64844 5.93799Z" fill="#FCFCFC"/>
<path d="M9.95852 4.99702L9.39866 4.92353L9.1482 4.42383L8.89774 4.92353L8.33789 4.99702L8.75041 5.39385L8.67675 5.79067H8.92721L9.1482 5.67309L9.3692 5.79067H9.61966L9.56073 5.39385L9.95852 4.99702Z" fill="#FCFCFC"/>
<path d="M9.39866 7.56909L9.1482 7.05469L8.89774 7.56909L8.33789 7.64258L8.39682 7.68667H9.89958L9.95852 7.64258L9.39866 7.56909Z" fill="#FCFCFC"/>
<path d="M8.75203 8.02456L8.6489 8.58306L9.14982 8.3185L9.65074 8.58306L9.56234 8.02456L9.9012 7.68652H8.39844L8.75203 8.02456Z" fill="#FCFCFC"/>
<path d="M8.64728 11.2287L9.1482 10.9642L9.64912 11.2287L9.56073 10.6702L9.95852 10.2881L9.39866 10.1999L9.1482 9.7002L8.89774 10.1999L8.33789 10.2881L8.75041 10.6702L8.64728 11.2287Z" fill="#FCFCFC"/>
<path d="M11.9045 2.17563L11.3594 2.26382L11.7572 2.64595L11.6688 3.20444L12.155 2.93989L12.6559 3.20444L12.5675 2.64595L12.9653 2.26382L12.4054 2.17563L12.2728 1.92578H12.0371L11.9045 2.17563Z" fill="#FCFCFC"/>
<path d="M12.0371 1.92563H12.2728L12.155 1.67578L12.0371 1.92563Z" fill="#FCFCFC"/>
<path d="M12.6548 5.8498L12.6401 5.79102H12.5664L12.6548 5.8498Z" fill="#FCFCFC"/>
<path d="M11.668 5.8498L11.7564 5.79102H11.668V5.8498Z" fill="#FCFCFC"/>
<path d="M12.9653 4.90918L12.4054 4.821L12.155 4.32129L11.9045 4.821L11.3594 4.90918L11.7572 5.29131L11.6688 5.79101H11.7572L12.155 5.58525L12.5675 5.79101H12.6411L12.5675 5.29131L12.9653 4.90918Z" fill="#FCFCFC"/>
<path d="M12.4054 7.4665L12.155 6.9668L11.9045 7.4665L11.3594 7.53999L11.492 7.68696H12.8179L12.9653 7.53999L12.4054 7.4665Z" fill="#FCFCFC"/>
<path d="M11.7574 7.93638L11.669 8.49487L12.1552 8.23032L12.6561 8.49487L12.5677 7.93638L12.8182 7.68652H11.4922L11.7574 7.93638Z" fill="#FCFCFC"/>
<path d="M11.9045 10.112L11.3594 10.2002L11.7572 10.5823L11.6688 11.1261L12.155 10.8763L12.6559 11.1261L12.5675 10.5823L12.9653 10.2002L12.4054 10.112L12.155 9.6123L11.9045 10.112Z" fill="#FCFCFC"/>
<path d="M14.9974 2.21973L14.4375 2.29321L14.85 2.69004L14.7469 3.23384L15.2478 2.98398L15.7487 3.23384L15.6456 2.69004L16.0581 2.29321L15.4983 2.21973L15.3509 1.92578H15.1447L14.9974 2.21973Z" fill="#FCFCFC"/>
<path d="M15.1445 1.92549H15.3508L15.2477 1.71973L15.1445 1.92549Z" fill="#FCFCFC"/>
<path d="M15.75 5.8792L15.7352 5.79102H15.5879L15.75 5.8792Z" fill="#FCFCFC"/>
<path d="M14.748 5.8792L14.9101 5.79102H14.7628L14.748 5.8792Z" fill="#FCFCFC"/>
<path d="M16.0581 4.93843L15.4983 4.86494L15.2478 4.36523L14.9974 4.86494L14.4375 4.93843L14.85 5.33525L14.7616 5.79087H14.909L15.2478 5.6292L15.5867 5.79087H15.734L15.6456 5.33525L16.0581 4.93843Z" fill="#FCFCFC"/>
<path d="M15.4983 7.51045L15.2478 7.01074L14.9974 7.51045L14.4375 7.58393L14.5554 7.68682H15.9403L16.0581 7.58393L15.4983 7.51045Z" fill="#FCFCFC"/>
<path d="M14.8513 7.98047L14.7482 8.52427L15.2491 8.25972L15.75 8.52427L15.6469 7.98047L15.9415 7.68652H14.5566L14.8513 7.98047Z" fill="#FCFCFC"/>
<path d="M14.7469 11.1701L15.2478 10.9056L15.7487 11.1701L15.6456 10.6116L16.0581 10.2295L15.4983 10.156L15.2478 9.6416L14.9974 10.156L14.4375 10.2295L14.85 10.6116L14.7469 11.1701Z" fill="#FCFCFC"/>
<path d="M1.5035 3.29199L1.25304 3.7917L0.722656 3.86518H2.28435L1.75396 3.7917L1.5035 3.29199Z" fill="#FCFCFC"/>
<path d="M0.693359 3.86523L1.10588 4.26206L1.00275 4.80586L1.50367 4.556L2.00459 4.80586L1.90146 4.26206L2.31399 3.86523H2.28452H0.722825H0.693359Z" fill="#FCFCFC"/>
<path d="M2.31399 6.43745L1.75413 6.36396L1.50367 5.86426L1.25321 6.36396L0.693359 6.43745L1.10588 6.83428L1.00275 7.37807L1.50367 7.11352L2.00459 7.37807L1.90146 6.83428L2.31399 6.43745Z" fill="#FCFCFC"/>
<path d="M1.00195 9.95034L1.50287 9.68579L2.00379 9.95034L1.94486 9.6123H1.06089L1.00195 9.95034Z" fill="#FCFCFC"/>
<path d="M2.31399 9.00976L1.75413 8.92158L1.50367 8.42188L1.25321 8.92158L0.693359 9.00976L1.10588 9.39189L1.06168 9.61235H1.94566L1.90146 9.39189L2.31399 9.00976Z" fill="#FCFCFC"/>
<path d="M1.28125 11.5083H1.72324L1.50224 11.0674L1.28125 11.5083Z" fill="#FCFCFC"/>
<path d="M1.25321 11.5666L0.693359 11.6548L1.10588 12.0369L1.00275 12.5954L1.50367 12.3309L2.00459 12.5954L1.90146 12.0369L2.31399 11.6548L1.75413 11.5666L1.72467 11.5078H1.28268L1.25321 11.5666Z" fill="#FCFCFC"/>
<path d="M5.05404 2.13154L5.02457 1.92578H4.65625L5.05404 2.13154Z" fill="#FCFCFC"/>
<path d="M4.05078 2.13154L4.44857 1.92578H4.09498L4.05078 2.13154Z" fill="#FCFCFC"/>
<path d="M5.36281 1.19038L4.80296 1.11689L4.5525 0.617188L4.30204 1.11689L3.74219 1.19038L4.15471 1.58721L4.09578 1.92524H4.44937L4.5525 1.86645L4.65563 1.92524H5.02396L4.96502 1.58721L5.36281 1.19038Z" fill="#FCFCFC"/>
<path d="M4.55233 3.29199L4.30187 3.7917L3.77148 3.86518H5.33318L4.80279 3.7917L4.55233 3.29199Z" fill="#FCFCFC"/>
<path d="M3.74219 3.86523L4.15471 4.26206L4.05158 4.80586L4.5525 4.556L5.05342 4.80586L4.96502 4.26206L5.36281 3.86523H5.33335H3.77165H3.74219Z" fill="#FCFCFC"/>
<path d="M4.05158 7.37807L4.5525 7.11352L5.05342 7.37807L4.96502 6.83428L5.36281 6.43745L4.80296 6.36396L4.5525 5.86426L4.30204 6.36396L3.74219 6.43745L4.15471 6.83428L4.05158 7.37807Z" fill="#FCFCFC"/>
<path d="M4.05078 9.95034L4.5517 9.68579L5.05262 9.95034L4.99369 9.6123H4.10971L4.05078 9.95034Z" fill="#FCFCFC"/>
<path d="M5.36281 9.00976L4.80296 8.92158L4.5525 8.42188L4.30204 8.92158L3.74219 9.00976L4.15471 9.39189L4.11051 9.61235H4.99449L4.96502 9.39189L5.36281 9.00976Z" fill="#FCFCFC"/>
<path d="M4.33203 11.5083H4.77402L4.55303 11.0674L4.33203 11.5083Z" fill="#FCFCFC"/>
<path d="M4.30204 11.5666L3.74219 11.6548L4.15471 12.0369L4.05158 12.5954L4.5525 12.3309L5.05342 12.5954L4.96502 12.0369L5.36281 11.6548L4.80296 11.5666L4.7735 11.5078H4.33151L4.30204 11.5666Z" fill="#FCFCFC"/>
<path d="M8.10287 2.13154L8.05867 1.92578H7.70508L8.10287 2.13154Z" fill="#FCFCFC"/>
<path d="M7.10156 2.13154L7.49935 1.92578H7.14576L7.10156 2.13154Z" fill="#FCFCFC"/>
<path d="M8.41164 1.19038L7.85179 1.11689L7.60133 0.617188L7.35087 1.11689L6.79102 1.19038L7.20354 1.58721L7.14461 1.92524H7.4982L7.60133 1.86645L7.70446 1.92524H8.05805L8.01385 1.58721L8.41164 1.19038Z" fill="#FCFCFC"/>
<path d="M7.60311 3.29199L7.35265 3.7917L6.82227 3.86518H8.38396L7.85357 3.7917L7.60311 3.29199Z" fill="#FCFCFC"/>
<path d="M6.79102 3.86523L7.20354 4.26206L7.10041 4.80586L7.60133 4.556L8.10225 4.80586L8.01385 4.26206L8.41164 3.86523H8.38218H6.82048H6.79102Z" fill="#FCFCFC"/>
<path d="M7.10041 7.37807L7.60133 7.11352L8.10225 7.37807L8.01385 6.83428L8.41164 6.43745L7.85179 6.36396L7.60133 5.86426L7.35087 6.36396L6.79102 6.43745L7.20354 6.83428L7.10041 7.37807Z" fill="#FCFCFC"/>
<path d="M7.10156 9.95034L7.60248 9.68579L8.1034 9.95034L8.04447 9.6123H7.16049L7.10156 9.95034Z" fill="#FCFCFC"/>
<path d="M8.41164 9.00976L7.85179 8.92158L7.60133 8.42188L7.35087 8.92158L6.79102 9.00976L7.20354 9.39189L7.15934 9.61235H8.04332L8.01385 9.39189L8.41164 9.00976Z" fill="#FCFCFC"/>
<path d="M7.38086 11.5083H7.82285L7.60185 11.0674L7.38086 11.5083Z" fill="#FCFCFC"/>
<path d="M7.35087 11.5666L6.79102 11.6548L7.20354 12.0369L7.10041 12.5954L7.60133 12.3309L8.10225 12.5954L8.01385 12.0369L8.41164 11.6548L7.85179 11.5666L7.82232 11.5078H7.38033L7.35087 11.5666Z" fill="#FCFCFC"/>
<path d="M10.1504 2.13154L10.5482 1.92578H10.1946L10.1504 2.13154Z" fill="#FCFCFC"/>
<path d="M11.1536 2.13154L11.1242 1.92578H10.7559L11.1536 2.13154Z" fill="#FCFCFC"/>
<path d="M11.4624 1.19038L10.9026 1.11689L10.6521 0.617188L10.4016 1.11689L9.8418 1.19038L10.2543 1.58721L10.1954 1.92524H10.549L10.6521 1.86645L10.7552 1.92524H11.1236L11.0646 1.58721L11.4624 1.19038Z" fill="#FCFCFC"/>
<path d="M10.6519 3.29199L10.4015 3.7917L9.87109 3.86518H11.4328L10.9024 3.7917L10.6519 3.29199Z" fill="#FCFCFC"/>
<path d="M9.8418 3.86523L10.2543 4.26206L10.1512 4.80586L10.6521 4.556L11.153 4.80586L11.0646 4.26206L11.4624 3.86523H11.433H9.87126H9.8418Z" fill="#FCFCFC"/>
<path d="M10.1512 7.37807L10.6521 7.11352L11.153 7.37807L11.0646 6.83428L11.4624 6.43745L10.9026 6.36396L10.6521 5.86426L10.4016 6.36396L9.8418 6.43745L10.2543 6.83428L10.1512 7.37807Z" fill="#FCFCFC"/>
<path d="M10.1504 9.95034L10.6513 9.68579L11.1522 9.95034L11.0933 9.6123H10.2093L10.1504 9.95034Z" fill="#FCFCFC"/>
<path d="M11.4624 9.00976L10.9026 8.92158L10.6521 8.42188L10.4016 8.92158L9.8418 9.00976L10.2543 9.39189L10.2101 9.61235H11.0941L11.0646 9.39189L11.4624 9.00976Z" fill="#FCFCFC"/>
<path d="M10.4316 11.5083H10.8736L10.6526 11.0674L10.4316 11.5083Z" fill="#FCFCFC"/>
<path d="M10.4016 11.5666L9.8418 11.6548L10.2543 12.0369L10.1512 12.5954L10.6521 12.3309L11.153 12.5954L11.0646 12.0369L11.4624 11.6548L10.9026 11.5666L10.8731 11.5078H10.4311L10.4016 11.5666Z" fill="#FCFCFC"/>
<path d="M14.2034 2.13154L14.1739 1.92578H13.8203L14.2034 2.13154Z" fill="#FCFCFC"/>
<path d="M13.2012 2.13154L13.599 1.92578H13.2454L13.2012 2.13154Z" fill="#FCFCFC"/>
<path d="M14.5113 1.19038L13.9514 1.11689L13.7009 0.617188L13.4652 1.11689L12.8906 1.19038L13.3031 1.58721L13.2442 1.92524H13.5978L13.7009 1.86645L13.8188 1.92524H14.1724L14.0987 1.58721L14.5113 1.19038Z" fill="#FCFCFC"/>
<path d="M13.7008 3.29199L13.465 3.7917L12.9199 3.86518H14.4816L13.9512 3.7917L13.7008 3.29199Z" fill="#FCFCFC"/>
<path d="M12.8906 3.86523L13.3031 4.26206L13.2 4.80586L13.7009 4.556L14.2019 4.80586L14.0987 4.26206L14.5113 3.86523H14.4818H12.9201H12.8906Z" fill="#FCFCFC"/>
<path d="M13.2 7.37807L13.7009 7.11352L14.2019 7.37807L14.0987 6.83428L14.5113 6.43745L13.9514 6.36396L13.7009 5.86426L13.4652 6.36396L12.8906 6.43745L13.3031 6.83428L13.2 7.37807Z" fill="#FCFCFC"/>
<path d="M13.2012 9.95034L13.7021 9.68579L14.203 9.95034L14.1441 9.6123H13.2601L13.2012 9.95034Z" fill="#FCFCFC"/>
<path d="M14.5113 9.00976L13.9514 8.92158L13.7009 8.42188L13.4652 8.92158L12.8906 9.00976L13.3031 9.39189L13.2589 9.61235H14.1429L14.0987 9.39189L14.5113 9.00976Z" fill="#FCFCFC"/>
<path d="M13.4961 11.5083H13.9233L13.7024 11.0674L13.4961 11.5083Z" fill="#FCFCFC"/>
<path d="M13.4652 11.5666L12.8906 11.6548L13.3031 12.0369L13.2 12.5954L13.7009 12.3309L14.2019 12.5954L14.0987 12.0369L14.5113 11.6548L13.9514 11.5666L13.9219 11.5078H13.4947L13.4652 11.5666Z" fill="#FCFCFC"/>
<path d="M17.2522 2.13154L17.2227 1.92578H16.8691L17.2522 2.13154Z" fill="#FCFCFC"/>
<path d="M16.2656 2.13154L16.6487 1.92578H16.2951L16.2656 2.13154Z" fill="#FCFCFC"/>
<path d="M17.561 1.19038L17.0011 1.11689L16.7507 0.617188L16.5149 1.11689L15.9551 1.19038L16.3529 1.58721L16.2939 1.92524H16.6475L16.7507 1.86645L16.8685 1.92524H17.2221L17.1632 1.58721L17.561 1.19038Z" fill="#FCFCFC"/>
<path d="M16.7505 3.29199L16.5148 3.7917L15.9844 3.86518H17.5313L17.0009 3.7917L16.7505 3.29199Z" fill="#FCFCFC"/>
<path d="M15.9551 3.86523L16.3529 4.26206L16.2645 4.80586L16.7507 4.556L17.2516 4.80586L17.1632 4.26206L17.561 3.86523H17.5315H15.9845H15.9551Z" fill="#FCFCFC"/>
<path d="M16.2645 7.37807L16.7507 7.11352L17.2516 7.37807L17.1632 6.83428L17.561 6.43745L17.0011 6.36396L16.7507 5.86426L16.5149 6.36396L15.9551 6.43745L16.3529 6.83428L16.2645 7.37807Z" fill="#FCFCFC"/>
<path d="M16.2656 9.95034L16.7518 9.68579L17.2527 9.95034L17.1938 9.6123H16.3098L16.2656 9.95034Z" fill="#FCFCFC"/>
<path d="M17.561 9.00976L17.0011 8.92158L16.7507 8.42188L16.5149 8.92158L15.9551 9.00976L16.3529 9.39189L16.3087 9.61235H17.1926L17.1632 9.39189L17.561 9.00976Z" fill="#FCFCFC"/>
<path d="M16.5449 11.5083H16.9722L16.7512 11.0674L16.5449 11.5083Z" fill="#FCFCFC"/>
<path d="M16.5149 11.5666L15.9551 11.6548L16.3529 12.0369L16.2645 12.5954L16.7507 12.3309L17.2516 12.5954L17.1632 12.0369L17.561 11.6548L17.0011 11.5666L16.9717 11.5078H16.5444L16.5149 11.5666Z" fill="#FCFCFC"/>
</svg>
