<svg width="90" height="90" viewBox="0 0 90 90" fill="none" xmlns="http://www.w3.org/2000/svg">
<circle cx="45" cy="45" r="45" fill="#FAFAFA"/>
<g clip-path="url(#clip0_1080_171991)">
<path d="M39.5092 44.5404L38.1992 40.0404L39.5092 36.1604L40.5292 35.3204L39.8692 30.8604L41.4392 24.4804L45.2792 18.9404L46.1492 19.7804L49.0892 24.4304L50.5592 29.4804L50.0192 35.3204L51.5392 36.7904L52.4192 40.0404L50.7992 44.7904L48.2192 42.7104L46.1492 42.1604H44.1792L39.5092 44.5404Z" fill="white"/>
<path d="M41.9481 40.9602C41.8404 40.9599 41.7352 40.9273 41.6461 40.8667C41.557 40.8061 41.488 40.7202 41.4481 40.6201L40.8881 39.1401C36.3281 27.0501 44.8881 18.4501 44.9381 18.3601L45.3181 18L45.6881 18.3601C45.7581 18.4401 52.9581 25.6802 50.6281 36.1902C50.4043 37.2104 50.1068 38.213 49.7381 39.1902L49.1781 40.6602C49.1532 40.7258 49.1155 40.7858 49.0674 40.8369C49.0192 40.888 48.9614 40.9292 48.8973 40.958C48.8333 40.9868 48.7641 41.0026 48.6939 41.0046C48.6237 41.0067 48.5538 40.9952 48.4881 40.9702C48.4225 40.9453 48.3624 40.9076 48.3112 40.8594C48.2601 40.8112 48.219 40.7533 48.1902 40.6892C48.1614 40.6251 48.1456 40.5561 48.1435 40.4858C48.1414 40.4156 48.1532 40.3457 48.1781 40.28L48.7481 38.8101C49.0915 37.8978 49.3689 36.962 49.5781 36.01C50.1735 33.1257 50.0981 30.1432 49.3577 27.2927C48.6174 24.4422 47.2318 21.8 45.3081 19.5701C43.0524 22.1704 41.5417 25.3324 40.9361 28.7212C40.3306 32.11 40.6526 35.5994 41.8681 38.8201L42.4281 40.29C42.4538 40.3543 42.4665 40.4232 42.4653 40.4924C42.464 40.5616 42.449 40.6298 42.4211 40.6931C42.3932 40.7565 42.3528 40.8135 42.3025 40.8611C42.2522 40.9086 42.1929 40.9459 42.1281 40.9702C42.0679 40.9744 42.0075 40.9711 41.9481 40.9602Z" fill="#333333"/>
<path d="M50.89 45.4895L50.01 44.6096C49.3941 43.9919 48.6624 43.5019 47.8567 43.1675C47.0511 42.8331 46.1873 42.6609 45.315 42.6609C44.4427 42.6609 43.579 42.8331 42.7734 43.1675C41.9677 43.5019 41.2359 43.9919 40.62 44.6096L39.74 45.4895L39.38 44.9497C39.38 44.8897 35.77 39.3696 39.82 35.3196C39.8693 35.2703 39.9277 35.2312 39.9921 35.2046C40.0564 35.1779 40.1254 35.1643 40.195 35.1643C40.2647 35.1643 40.3336 35.1779 40.398 35.2046C40.4623 35.2312 40.5208 35.2703 40.57 35.3196C40.6193 35.3688 40.6584 35.4274 40.685 35.4917C40.7117 35.556 40.7254 35.6249 40.7254 35.6946C40.7254 35.7642 40.7117 35.8331 40.685 35.8975C40.6584 35.9618 40.6193 36.0203 40.57 36.0696C37.79 38.8396 39.22 42.4196 39.94 43.7896C41.3805 42.3924 43.3083 41.6111 45.315 41.6111C47.3218 41.6111 49.2496 42.3924 50.69 43.7896C51.41 42.4196 52.84 38.8396 50.06 36.0696C49.9629 35.9689 49.9086 35.8345 49.9086 35.6946C49.9086 35.5547 49.9629 35.4202 50.06 35.3196C50.1093 35.2703 50.1677 35.2313 50.2321 35.2046C50.2964 35.1779 50.3654 35.1641 50.435 35.1641C50.5047 35.1641 50.5737 35.1779 50.638 35.2046C50.7024 35.2313 50.7608 35.2703 50.81 35.3196C54.86 39.3696 51.28 44.8897 51.25 44.9497L50.89 45.4895Z" fill="#333333"/>
<path d="M45.3214 24.7104C44.1074 24.7131 42.9277 24.3079 41.9713 23.5603C41.8613 23.4718 41.7902 23.3438 41.7734 23.2036C41.7566 23.0634 41.7953 22.9222 41.8814 22.8103C41.968 22.7009 42.0943 22.6301 42.2329 22.6132C42.3714 22.5964 42.511 22.635 42.6213 22.7204C43.3947 23.3132 44.3419 23.6345 45.3163 23.6345C46.2908 23.6345 47.238 23.3132 48.0113 22.7204C48.1217 22.635 48.2613 22.5964 48.3998 22.6132C48.5384 22.6301 48.6647 22.7009 48.7513 22.8103C48.8374 22.9222 48.8761 23.0634 48.8593 23.2036C48.8425 23.3438 48.7714 23.4718 48.6613 23.5603C47.708 24.3065 46.532 24.7116 45.3214 24.7104Z" fill="#333333"/>
<path d="M45.3191 49.2302C45.2495 49.2302 45.1805 49.2163 45.1162 49.1897C45.0519 49.1631 44.9935 49.1242 44.9443 49.075C44.8951 49.0257 44.856 48.9671 44.8294 48.9028C44.8028 48.8385 44.7891 48.7698 44.7891 48.7002V44.6501C44.8255 44.5466 44.8931 44.4568 44.9827 44.3933C45.0722 44.3299 45.1793 44.2959 45.2891 44.2959C45.3988 44.2959 45.5059 44.3299 45.5954 44.3933C45.685 44.4568 45.7527 44.5466 45.7891 44.6501V48.7002C45.7922 48.8316 45.7455 48.9593 45.6583 49.0576C45.5711 49.1559 45.4499 49.2176 45.3191 49.2302Z" fill="#333333"/>
<path d="M48.2492 49.23C48.1801 49.23 48.1116 49.2162 48.0479 49.1895C47.9841 49.1627 47.9264 49.1233 47.8779 49.074C47.8295 49.0246 47.7914 48.9661 47.7659 48.9019C47.7404 48.8376 47.7279 48.7691 47.7292 48.7V46.7C47.7011 46.62 47.6926 46.5346 47.7043 46.4507C47.7161 46.3668 47.7478 46.2869 47.7967 46.2178C47.8457 46.1487 47.9105 46.0921 47.9858 46.0532C48.061 46.0143 48.1445 45.9941 48.2292 45.9941C48.3139 45.9941 48.3974 46.0143 48.4727 46.0532C48.5479 46.0921 48.6127 46.1487 48.6617 46.2178C48.7107 46.2869 48.7424 46.3668 48.7541 46.4507C48.7659 46.5346 48.7573 46.62 48.7292 46.7V48.7C48.7298 48.8323 48.6809 48.96 48.5921 49.0581C48.5032 49.1562 48.3809 49.2175 48.2492 49.23Z" fill="#333333"/>
<path d="M42.3816 49.23C42.312 49.23 42.243 49.2161 42.1787 49.1895C42.1144 49.1628 42.056 49.1239 42.0068 49.0747C41.9576 49.0255 41.9185 48.9669 41.8919 48.9026C41.8653 48.8383 41.8516 48.7696 41.8516 48.7V46.7C41.8516 46.5594 41.9074 46.4246 42.0068 46.3252C42.1062 46.2258 42.241 46.1699 42.3816 46.1699C42.5221 46.1699 42.6569 46.2258 42.7563 46.3252C42.8557 46.4246 42.9116 46.5594 42.9116 46.7V48.7C42.9116 48.7696 42.8979 48.8383 42.8712 48.9026C42.8446 48.9669 42.8055 49.0255 42.7563 49.0747C42.7071 49.1239 42.6487 49.1628 42.5844 49.1895C42.5201 49.2161 42.4512 49.23 42.3816 49.23Z" fill="#333333"/>
<path d="M42.6602 69.3504L43.2102 62.1104L43.1802 58.6004L40.3802 52.9904L34.3802 51.1104L32.1902 48.8704L31.6102 42.3504L31.3502 41.1204L29.1002 40.9704L26.2702 40.4404L24.1202 41.4504L25.2202 50.8504L23.6602 51.6604V53.4504L26.5502 58.8804L28.2602 60.2904L34.3702 61.7104L36.4302 63.6904L35.8502 69.0804L42.6602 69.3504Z" fill="white"/>
<path d="M47.9797 69.3504L47.4297 62.1104L47.4497 58.6004L50.2597 52.9904L56.2497 51.1104L58.4497 48.8704L59.0297 42.3504L59.2797 41.1204L61.5397 40.9704L64.3697 40.4404L66.5197 41.4504L65.4097 50.8504L66.9697 51.6604V53.4504L64.0897 58.8804L62.3797 60.2904L56.2697 61.7104L54.1997 63.6904L54.7897 69.0804L47.9797 69.3504Z" fill="white"/>
<path d="M31.6796 51.6099C31.5992 51.6093 31.52 51.591 31.4474 51.5565C31.3749 51.5219 31.3107 51.472 31.2596 51.41L30.1296 49.95V49.8199C29.9896 49.0199 29.7496 47.6 29.4896 46.14C29.2196 44.53 28.9296 42.88 28.7596 41.91C28.7416 41.7942 28.6994 41.6835 28.6356 41.5853C28.5718 41.487 28.488 41.4034 28.3896 41.3399C28.2904 41.2703 28.1779 41.2219 28.0592 41.1978C27.9405 41.1737 27.818 41.1746 27.6996 41.2L26.2996 41.4801C26.1617 41.5064 26.019 41.477 25.9027 41.3983C25.7865 41.3195 25.7062 41.1977 25.6796 41.0599C25.665 40.9922 25.6641 40.9224 25.677 40.8543C25.6898 40.7863 25.716 40.7214 25.7542 40.6636C25.7924 40.6059 25.8418 40.5563 25.8993 40.5179C25.9569 40.4795 26.0216 40.4531 26.0896 40.44L27.4896 40.16C28.0096 40.0573 28.5491 40.1652 28.9896 40.46C29.2025 40.607 29.3838 40.7949 29.5229 41.013C29.662 41.2311 29.7561 41.4751 29.7996 41.7301C29.9696 42.7301 30.2596 44.35 30.5396 45.96C30.7696 47.34 31.0096 48.6898 31.1496 49.5098L32.1496 50.7598C32.2315 50.8723 32.2667 51.0121 32.2481 51.15C32.2295 51.2878 32.1584 51.4131 32.0496 51.4998C31.9989 51.5428 31.9398 51.5749 31.8761 51.5938C31.8125 51.6128 31.7455 51.6182 31.6796 51.6099Z" fill="#333333"/>
<path d="M34.9008 51.7198C34.8251 51.72 34.7503 51.7039 34.6813 51.6729C34.6123 51.6418 34.5507 51.5964 34.5008 51.5396L32.2208 48.9597V48.8196C32.0308 47.8196 31.8608 46.7296 31.6708 45.5796C31.5108 44.5796 31.3508 43.5795 31.1608 42.4895C31.1381 42.3721 31.0923 42.2606 31.026 42.1612C30.9597 42.0617 30.8743 41.9763 30.7747 41.9102C30.6751 41.8441 30.5633 41.7986 30.4459 41.7761C30.3285 41.7537 30.2077 41.7548 30.0908 41.7796L29.3408 41.9297C29.225 41.9225 29.1148 41.8774 29.0271 41.8015C28.9393 41.7257 28.8789 41.6231 28.8551 41.5095C28.8312 41.396 28.8453 41.2779 28.8951 41.1731C28.9449 41.0684 29.0277 40.9829 29.1308 40.9297L29.8908 40.7796C30.4076 40.6796 30.943 40.7874 31.3808 41.0796C31.5963 41.2248 31.7801 41.4123 31.921 41.6306C32.062 41.8489 32.1572 42.0935 32.2008 42.3496C32.3908 43.4196 32.5608 44.4597 32.7208 45.4497C32.8808 46.4397 33.0608 47.5596 33.2408 48.5196L35.3208 50.8797C35.371 50.9273 35.411 50.9848 35.4384 51.0484C35.4657 51.112 35.4798 51.1803 35.4798 51.2495C35.4798 51.3188 35.4657 51.3873 35.4384 51.451C35.411 51.5146 35.371 51.572 35.3208 51.6197C35.2614 51.6643 35.1935 51.6962 35.1212 51.7134C35.049 51.7306 34.9739 51.7329 34.9008 51.7198Z" fill="#333333"/>
<path d="M36.3785 69.6105C36.2379 69.6105 36.1031 69.5546 36.0037 69.4552C35.9043 69.3558 35.8485 69.221 35.8485 69.0804V64.3204C35.8514 64.0403 35.7637 63.7667 35.5985 63.5404C34.6342 62.4768 33.3151 61.8013 31.8885 61.6405L31.2385 61.5104C29.5849 61.3341 28.0113 60.7083 26.6885 59.7006C25.9944 59.0077 25.432 58.1943 25.0285 57.3004C24.2695 55.8066 23.6211 54.2592 23.0885 52.6705C22.9887 52.3831 22.9769 52.0724 23.0546 51.7782C23.1323 51.484 23.2958 51.2196 23.5245 51.0189C23.7531 50.8182 24.0364 50.6902 24.3382 50.6512C24.6399 50.6123 24.9464 50.6643 25.2185 50.8004C26.356 51.2939 27.2933 52.1572 27.8785 53.2504C27.9485 53.4004 28.0085 53.5506 28.0685 53.7006C28.5185 54.7006 28.7885 55.2805 29.7685 55.0905C29.9658 55.0423 30.1571 54.9719 30.3385 54.8805C31.6562 54.314 33.1078 54.1336 34.5242 54.3602C35.9405 54.5868 37.2633 55.2112 38.3385 56.1605C38.4356 56.2612 38.4899 56.3956 38.4899 56.5355C38.4899 56.6754 38.4356 56.8099 38.3385 56.9105C38.2893 56.9598 38.2308 56.9988 38.1665 57.0255C38.1021 57.0522 38.0332 57.066 37.9635 57.066C37.8938 57.066 37.8249 57.0522 37.7605 57.0255C37.6962 56.9988 37.6377 56.9598 37.5885 56.9105C36.6622 56.0933 35.5228 55.5559 34.303 55.3612C33.0832 55.1665 31.8332 55.3223 30.6985 55.8104C30.445 55.9379 30.1761 56.032 29.8985 56.0905C28.0285 56.4605 27.4185 55.0305 27.0185 54.0905L26.8385 53.6705C26.3613 52.7998 25.6035 52.1161 24.6885 51.7306C24.6005 51.6853 24.5008 51.6678 24.4026 51.6803C24.3045 51.6928 24.2124 51.7346 24.1385 51.8004C24.0684 51.8627 24.0186 51.9446 23.9954 52.0355C23.9723 52.1264 23.9768 52.2221 24.0085 52.3104C24.529 53.8526 25.1572 55.3563 25.8885 56.8104C26.2393 57.5878 26.727 58.2958 27.3285 58.9005C28.5007 59.763 29.8813 60.298 31.3285 60.4506L31.9985 60.5905C33.6813 60.7983 35.2293 61.6168 36.3485 62.8905C36.6421 63.302 36.7994 63.795 36.7985 64.3004V69.0604C36.806 69.1872 36.7677 69.3125 36.6907 69.4134C36.6136 69.5144 36.5028 69.5843 36.3785 69.6105Z" fill="#333333"/>
<path d="M43.191 69.8598C43.0504 69.8598 42.9156 69.8039 42.8162 69.7045C42.7168 69.6051 42.661 69.4703 42.661 69.3298V59.5698C42.4885 57.9896 41.9621 56.4686 41.121 55.1198C39.661 52.7898 37.541 52.3098 35.481 51.8498L34.781 51.6899C34.7005 51.6906 34.6208 51.673 34.5481 51.6384C34.4754 51.6037 34.4116 51.5529 34.3614 51.4899C34.3113 51.4269 34.2761 51.3532 34.2587 51.2746C34.2412 51.196 34.2419 51.1144 34.2607 51.0361C34.2795 50.9578 34.3159 50.8848 34.3671 50.8227C34.4184 50.7606 34.4831 50.7108 34.5564 50.6774C34.6297 50.644 34.7096 50.6279 34.7901 50.6301C34.8706 50.6322 34.9496 50.6527 35.021 50.6899L35.711 50.8498C37.771 51.3098 40.331 51.8498 42.021 54.5898C42.9553 56.1079 43.5363 57.8168 43.721 59.5898V69.3998C43.7039 69.528 43.6406 69.6455 43.543 69.7302C43.4454 69.8149 43.3202 69.8609 43.191 69.8598Z" fill="#333333"/>
<path d="M29.2093 52.6098C29.1311 52.6103 29.0539 52.5936 28.983 52.5607C28.9121 52.5279 28.8494 52.4798 28.7993 52.4199L27.4293 50.7998L25.9593 41.6999C25.9448 41.6062 25.9116 41.5162 25.8618 41.4355C25.812 41.3548 25.7465 41.2849 25.6693 41.2299C25.5899 41.171 25.4989 41.1298 25.4023 41.1091C25.3057 41.0884 25.2057 41.0886 25.1093 41.1098C24.9052 41.1488 24.7232 41.2628 24.5992 41.4294C24.4751 41.596 24.418 41.8031 24.4393 42.0097L25.6293 51.1398C25.6464 51.2775 25.6089 51.4165 25.5247 51.5268C25.4406 51.6371 25.3166 51.7101 25.1793 51.7299C25.0389 51.747 24.8975 51.7083 24.7853 51.6223C24.6731 51.5363 24.5992 51.4097 24.5793 51.2697L23.3893 42.1398C23.3304 41.666 23.4551 41.1876 23.7377 40.8027C24.0204 40.4178 24.4395 40.1555 24.9093 40.0698C25.1438 40.0232 25.3853 40.025 25.6191 40.0749C25.8529 40.1248 26.0741 40.2216 26.2693 40.3598C26.4651 40.4939 26.631 40.667 26.7567 40.8684C26.8823 41.0697 26.9649 41.2949 26.9993 41.5297L28.4293 50.3398L29.6093 51.7397C29.6545 51.7919 29.6889 51.8527 29.7105 51.9184C29.732 51.9841 29.7402 52.0536 29.7346 52.1225C29.729 52.1914 29.7097 52.2584 29.6779 52.3198C29.6461 52.3811 29.6024 52.4357 29.5493 52.4799C29.4563 52.5644 29.3349 52.6107 29.2093 52.6098Z" fill="#333333"/>
<path d="M58.9311 51.6104C58.8149 51.612 58.7018 51.573 58.6111 51.5003C58.5017 51.4136 58.4309 51.2875 58.414 51.149C58.3972 51.0104 58.4357 50.8706 58.5211 50.7603L59.5211 49.5103C59.6711 48.6903 59.9011 47.3405 60.1411 45.9605C60.4211 44.3505 60.7011 42.6905 60.8711 41.7305C60.9147 41.4743 61.0099 41.2296 61.1509 41.0113C61.2918 40.793 61.4756 40.6057 61.6911 40.4605C62.129 40.1683 62.6643 40.0605 63.1811 40.1604L64.5811 40.4405C64.6491 40.4536 64.7138 40.4799 64.7714 40.5183C64.829 40.5568 64.8783 40.6063 64.9165 40.6641C64.9547 40.7218 64.9809 40.7867 64.9938 40.8548C65.0066 40.9228 65.0057 40.9926 64.9911 41.0603C64.9645 41.1982 64.8842 41.32 64.768 41.3987C64.6518 41.4775 64.509 41.5069 64.3711 41.4805L62.9811 41.2005C62.8642 41.1757 62.7434 41.1744 62.626 41.1968C62.5086 41.2192 62.3968 41.265 62.2972 41.3311C62.1976 41.3972 62.1121 41.4823 62.0459 41.5818C61.9796 41.6813 61.9338 41.793 61.9111 41.9104C61.7411 42.9104 61.4611 44.5304 61.1811 46.1404C60.9311 47.6004 60.6811 49.0203 60.5411 49.8203V49.9505L59.4011 51.4104C59.346 51.4807 59.274 51.5359 59.1918 51.5708C59.1096 51.6058 59.02 51.6193 58.9311 51.6104Z" fill="#333333"/>
<path d="M55.7082 51.7196C55.5785 51.7165 55.4543 51.6667 55.3582 51.5795C55.308 51.5318 55.268 51.4744 55.2406 51.4108C55.2133 51.3472 55.1992 51.2788 55.1992 51.2096C55.1992 51.1404 55.2133 51.0718 55.2406 51.0082C55.268 50.9446 55.308 50.8871 55.3582 50.8395L57.4482 48.4796C57.6182 47.4796 57.7882 46.4795 57.9682 45.3995C58.1482 44.3195 58.2982 43.3994 58.4882 42.3094C58.5312 42.0529 58.6256 41.8079 58.7657 41.5887C58.9058 41.3696 59.0888 41.1809 59.3036 41.0343C59.5184 40.8877 59.7607 40.7859 60.0158 40.7352C60.2709 40.6846 60.5337 40.6859 60.7882 40.7394L61.5482 40.8895C61.6509 40.9421 61.7336 41.0269 61.7837 41.1307C61.8339 41.2346 61.8488 41.3518 61.8262 41.465C61.8035 41.5781 61.7446 41.6809 61.6584 41.7574C61.5721 41.834 61.4632 41.8804 61.3482 41.8895L60.5882 41.7394C60.4698 41.714 60.3473 41.7133 60.2286 41.7374C60.1099 41.7615 59.9974 41.8099 59.8982 41.8795C59.7998 41.943 59.716 42.0266 59.6522 42.1249C59.5884 42.2231 59.5462 42.3338 59.5282 42.4496C59.3382 43.5196 59.1682 44.5494 59.0082 45.5294C58.8282 46.6794 58.6482 47.7694 58.4582 48.7794V48.9196L56.1782 51.4994C56.126 51.574 56.0551 51.6336 55.9726 51.6722C55.8901 51.7109 55.799 51.7273 55.7082 51.7196Z" fill="#333333"/>
<path d="M54.2294 69.6101C54.0888 69.6101 53.954 69.5542 53.8546 69.4548C53.7552 69.3554 53.6994 69.2206 53.6994 69.08V64.32C53.6972 63.8128 53.8585 63.3185 54.1594 62.9101C55.2732 61.6348 56.8187 60.8157 58.4994 60.6101L59.1694 60.4702C60.6157 60.3139 61.9954 59.7792 63.1694 58.9201C63.7646 58.3125 64.2487 57.605 64.5994 56.83C65.3307 55.3759 65.9589 53.8722 66.4794 52.33C66.514 52.2421 66.52 52.1457 66.4967 52.0541C66.4734 51.9626 66.4218 51.8806 66.3494 51.82C66.2778 51.7537 66.1873 51.7115 66.0905 51.6989C65.9938 51.6864 65.8955 51.7041 65.8094 51.7499C64.8919 52.1356 64.131 52.8192 63.6494 53.6901L63.4694 54.1101C63.0694 55.0601 62.4694 56.5001 60.5894 56.1101C60.3122 56.0501 60.0435 55.956 59.7894 55.83C58.6547 55.3419 57.4047 55.1861 56.1849 55.3808C54.9651 55.5756 53.8257 56.1129 52.8994 56.9301C52.8517 56.9804 52.7943 57.0202 52.7307 57.0476C52.6671 57.0749 52.5986 57.0891 52.5294 57.0891C52.4601 57.0891 52.3916 57.0749 52.328 57.0476C52.2644 57.0202 52.207 56.9804 52.1594 56.9301C52.1101 56.8809 52.071 56.8224 52.0443 56.758C52.0176 56.6937 52.0039 56.6248 52.0039 56.5551C52.0039 56.4855 52.0176 56.4163 52.0443 56.352C52.071 56.2877 52.1101 56.2293 52.1594 56.1801C53.2358 55.2329 54.5585 54.61 55.9743 54.3835C57.3901 54.157 58.8412 54.336 60.1594 54.9001C60.3421 54.9884 60.533 55.0586 60.7294 55.1101C61.7294 55.3001 61.9894 54.7602 62.4294 53.7202L62.6194 53.27C63.2045 52.1768 64.1419 51.3135 65.2794 50.82C65.552 50.686 65.8582 50.6357 66.1594 50.6752C66.4606 50.7148 66.7433 50.8425 66.972 51.0424C67.2008 51.2423 67.3653 51.5054 67.4449 51.7985C67.5245 52.0917 67.5156 52.402 67.4194 52.6901C66.8834 54.279 66.2316 55.8264 65.4694 57.32C65.0695 58.2159 64.5066 59.0299 63.8094 59.7202C62.4894 60.7262 60.9195 61.3519 59.2694 61.53L58.6094 61.6601C57.1835 61.8236 55.8654 62.4986 54.8994 63.56C54.7342 63.7863 54.6465 64.0599 54.6494 64.34V69.1C54.6475 69.2201 54.6049 69.3358 54.5286 69.4284C54.4523 69.5211 54.3468 69.5852 54.2294 69.6101Z" fill="#333333"/>
<path d="M47.4206 69.8601C47.2801 69.8601 47.1453 69.8043 47.0459 69.7049C46.9465 69.6055 46.8906 69.4707 46.8906 69.3301V59.5701C47.0733 57.7951 47.6581 56.0852 48.6006 54.5701C50.2906 51.8701 52.8406 51.2901 54.9006 50.8301L55.5906 50.6702C55.727 50.6397 55.8699 50.6634 55.9893 50.7361C56.1087 50.8089 56.1952 50.9249 56.2306 51.0601C56.2638 51.1967 56.2413 51.341 56.1682 51.461C56.095 51.581 55.9772 51.6671 55.8406 51.7002L55.1306 51.8601C53.0806 52.3201 50.9506 52.8002 49.4906 55.1302C48.6459 56.4955 48.1195 58.0335 47.9506 59.6302V69.3401C47.948 69.4789 47.891 69.6113 47.7919 69.7085C47.6928 69.8058 47.5595 69.8602 47.4206 69.8601Z" fill="#333333"/>
<path d="M61.4118 52.6098C61.2862 52.6107 61.1648 52.5644 61.0718 52.4799C61.018 52.4364 60.9734 52.3825 60.9407 52.3215C60.9079 52.2605 60.8877 52.1934 60.8812 52.1245C60.8747 52.0555 60.882 51.9862 60.9027 51.9201C60.9234 51.8541 60.9571 51.7926 61.0018 51.7397L62.1818 50.3398L63.6118 41.5297C63.6501 41.2961 63.7343 41.0726 63.8596 40.8718C63.9849 40.6709 64.1488 40.4969 64.3418 40.3598C64.5369 40.2216 64.7581 40.1248 64.992 40.0749C65.2258 40.025 65.4673 40.0232 65.7018 40.0698C66.1693 40.1576 66.5864 40.4187 66.87 40.8005C67.1536 41.1823 67.2828 41.6569 67.2318 42.1298L66.0318 51.2697C66.0471 51.3519 66.0427 51.4366 66.0191 51.5168C65.9954 51.597 65.9531 51.6704 65.8957 51.7312C65.8382 51.7919 65.7672 51.8381 65.6884 51.8662C65.6096 51.8942 65.5254 51.9031 65.4425 51.8923C65.3595 51.8815 65.2804 51.8514 65.2114 51.8042C65.1424 51.7569 65.0856 51.6939 65.0455 51.6206C65.0055 51.5472 64.9834 51.4654 64.981 51.3818C64.9786 51.2982 64.996 51.2154 65.0318 51.1398L66.2318 41.9997C66.2504 41.7947 66.1921 41.5902 66.0683 41.4257C65.9445 41.2613 65.764 41.1487 65.5618 41.1098C65.4653 41.0886 65.3654 41.0884 65.2688 41.1091C65.1722 41.1298 65.0811 41.171 65.0018 41.2299C64.9231 41.2844 64.856 41.3538 64.8045 41.4345C64.753 41.5152 64.7181 41.6056 64.7018 41.6999L63.2318 50.7998L61.8618 52.4199C61.8093 52.4874 61.7404 52.5402 61.6616 52.5734C61.5828 52.6067 61.4968 52.6193 61.4118 52.6098Z" fill="#333333"/>
<path d="M43.7086 69.2695H35.3086V72.1695H43.7086V69.2695Z" fill="#235AB0"/>
<path d="M44.2086 72.6697H34.8086V68.7695H44.2086V72.6697ZM35.8086 71.6697H43.2086V69.7695H35.8086V71.6697Z" fill="#333333"/>
<path d="M55.2711 69.2695H46.8711V72.1695H55.2711V69.2695Z" fill="#235AB0"/>
<path d="M55.7789 72.6697H46.3789V68.7695H55.7789V72.6697ZM47.3789 71.6697H54.7789V69.7695H47.3789V71.6697Z" fill="#333333"/>
<path d="M45.3089 33.3502C46.9271 33.3502 48.2389 32.0384 48.2389 30.4202C48.2389 28.802 46.9271 27.4902 45.3089 27.4902C43.6907 27.4902 42.3789 28.802 42.3789 30.4202C42.3789 32.0384 43.6907 33.3502 45.3089 33.3502Z" fill="#235AB0"/>
</g>
<defs>
<clipPath id="clip0_1080_171991">
<rect width="44.61" height="54.67" fill="white" transform="translate(23 18)"/>
</clipPath>
</defs>
</svg>
