<svg width="32" height="32" viewBox="0 0 32 32" fill="none" xmlns="http://www.w3.org/2000/svg">
<path d="M21.4037 21.9598L20.8175 18.3901C20.8175 18.3901 23.1206 16.0102 23.2256 15.9032C24.4248 14.6853 24.1952 13.4826 22.786 13.0597L18.9784 12.4813L17.3225 8.98034C16.5556 7.67322 15.4468 7.67322 14.6799 8.98034L13.024 12.4813L9.21399 13.0597C7.80477 13.4826 7.57519 14.6853 8.77437 15.9032C8.87939 16.0102 11.1825 18.3901 11.1825 18.3901L10.5963 21.9598C10.3643 23.7536 11.4292 24.5103 13.024 23.6364C13.1681 23.5574 16.0012 22.0388 16.0012 22.0388C16.0012 22.0388 18.8343 23.5574 18.9784 23.6364C20.5708 24.5103 21.6357 23.7536 21.4061 21.9598H21.4037Z" stroke="white" stroke-linecap="round"/>
</svg>
