<svg width="45" height="44" viewBox="0 0 45 44" fill="none" xmlns="http://www.w3.org/2000/svg">
<g clip-path="url(#clip0_253_24602)">
<path d="M10.2143 42.5607L8.77148 41.1213V31.4779L10.2143 30.0386H34.7991L36.2418 31.4779V41.1213L34.7991 42.5607H10.2143Z" fill="white"/>
<path d="M34.7994 31.4778V41.1212H10.2146V31.4778H34.7994ZM34.7994 28.5991H10.2146L7.3291 31.4778V41.1212L10.2146 43.9998H34.7994L37.685 41.1212V31.4778L34.7994 28.5991Z" fill="#003994"/>
<path d="M43.5568 11.5288H1.44238V34.0542H43.5568V11.5288Z" fill="#003994" stroke="white" stroke-width="2" stroke-linejoin="bevel"/>
<path d="M10.2143 29.5925L8.77148 28.1532V2.87877L10.2143 1.43945H34.7991L36.2418 2.87877V28.1532L34.7991 29.5925H10.2143Z" fill="white"/>
<path d="M34.7994 2.87864V28.1387H10.2146V2.87864H34.7994ZM34.7994 0H10.2146L7.3291 2.87864V28.1387L10.2146 31.0173H34.7994L37.685 28.1387V2.87864L34.7994 0Z" fill="#003994"/>
<path d="M15.3369 8.65039H29.6636" stroke="#003994" stroke-width="2" stroke-miterlimit="10" stroke-linecap="square"/>
<path d="M15.3369 15.5156H29.6636" stroke="#003994" stroke-width="2" stroke-miterlimit="10" stroke-linecap="square"/>
<path d="M15.3369 22.3672H29.6636" stroke="#003994" stroke-width="2" stroke-miterlimit="10" stroke-linecap="square"/>
<path d="M38.4355 16.4517V18.8553" stroke="white" stroke-width="2" stroke-linejoin="bevel"/>
<path d="M38.4355 21.3306V23.7486" stroke="white" stroke-width="2" stroke-linejoin="bevel"/>
</g>
<defs>
<clipPath id="clip0_253_24602">
<rect width="45" height="44" fill="white"/>
</clipPath>
</defs>
</svg>
