<svg width="100" height="100" viewBox="0 0 100 100" fill="none" xmlns="http://www.w3.org/2000/svg">
<circle cx="50" cy="50" r="50" fill="#F2F6FB"/>
<g clip-path="url(#clip0_1880_384058)">
<path d="M63.4819 42.929V36.4189L65.5919 35.479L66.9419 33.1389L64.8619 29.4089L62.9519 28.7891L60.1319 30.239L54.3819 27.239L54.3119 24.2891L53.2219 22.449L49.2219 22.2891L47.7319 23.4189V26.989L41.9419 30.3091L39.3419 28.8191H37.8619L35.4219 32.0991L35.4819 34.499L38.5419 36.429L37.9519 38.429L38.6319 43.0391L35.7819 44.5791L35.1719 46.3391L37.2919 50.259L38.5219 50.8091L42.1019 49.1589L47.8719 52.1589L47.6519 55.3091L48.4019 56.6389L51.6319 56.929L53.8919 56.3191L54.1719 52.3792L59.8319 49.199L62.3719 50.7991L64.0119 50.709L66.3919 47.6292L66.3419 45.0391L63.4819 42.929ZM58.3819 43.7891L53.1419 47.8792L48.5419 47.6389L43.9219 44.269L42.4719 38.8989L45.4719 33.0891L46.6519 32.959L50.3219 31.259L56.5519 33.489L59.1019 37.6589L58.3819 43.7891Z" fill="#235AB0"/>
<path d="M33.7398 62.3301H27.8398V78.0001H33.7398V62.3301Z" fill="#235AB0"/>
<path d="M34.1 64.5508L40.37 61.0508L45.34 61.2808L52.53 64.0808L60.44 64.5508L61.71 66.0508V67.9608L68.6 62.0108L72.02 61.6408L74.7 63.7708L73.54 65.0508L64.29 73.9108L58.18 75.6908L51.91 75.2108L43.82 75.1008L36.78 75.6908L33.75 76.4908L34.1 64.5508Z" fill="white"/>
<path d="M34.2504 76.8796C34.1335 76.8771 34.0206 76.8367 33.9287 76.7646C33.8367 76.6924 33.7706 76.5923 33.7404 76.4794C33.7224 76.4124 33.7181 76.3426 33.7275 76.2738C33.737 76.2051 33.7601 76.1389 33.7955 76.0793C33.8309 76.0196 33.8779 75.9679 33.9337 75.9267C33.9895 75.8855 34.053 75.8558 34.1204 75.8395C39.1683 74.7125 44.3436 74.2618 49.5104 74.4994C50.5104 74.5594 51.4304 74.6494 52.3904 74.7394C54.206 74.946 56.0333 75.0328 57.8604 74.9994C60.6903 74.9267 63.4105 73.8895 65.5704 72.0595L73.5704 64.4794C73.7255 64.3222 73.8125 64.1102 73.8125 63.8893C73.8125 63.6685 73.7255 63.4567 73.5704 63.2995C72.8474 62.5545 71.859 62.1258 70.821 62.1071C69.783 62.0884 68.7798 62.4809 68.0304 63.1994L61.6204 68.6994C61.5119 68.7787 61.3773 68.8137 61.2439 68.7975C61.1105 68.7813 60.9882 68.7151 60.9018 68.6122C60.8154 68.5093 60.7713 68.3775 60.7785 68.2433C60.7856 68.1091 60.8435 67.9825 60.9404 67.8893L67.3204 62.4194C68.2695 61.52 69.533 61.0283 70.8404 61.0495C71.4941 61.0572 72.1396 61.1957 72.739 61.4567C73.3384 61.7178 73.8795 62.0961 74.3304 62.5695C74.6774 62.9304 74.867 63.4141 74.8576 63.9147C74.8483 64.4153 74.6407 64.8918 74.2804 65.2394L66.2804 72.8195C63.9379 74.8295 60.9758 75.9734 57.8904 76.0595C56.0131 76.0955 54.1355 76.0053 52.2704 75.7895C51.3304 75.6995 50.3804 75.6095 49.4304 75.5595C44.3752 75.334 39.3122 75.7711 34.3704 76.8595L34.2504 76.8796Z" fill="#333333"/>
<path d="M59.1395 69.9894H56.3995C54.7188 69.9905 53.0427 69.8128 51.3995 69.4594L46.3395 68.3796C46.2586 68.3818 46.1783 68.3653 46.1047 68.3317C46.0311 68.2981 45.9662 68.2481 45.9149 68.1855C45.8636 68.1229 45.8274 68.0492 45.8089 67.9704C45.7905 67.8916 45.7903 67.8097 45.8085 67.7309C45.8266 67.652 45.8626 67.5784 45.9136 67.5155C45.9646 67.4527 46.0293 67.4025 46.1028 67.3686C46.1763 67.3347 46.2565 67.3178 46.3374 67.3197C46.4183 67.3217 46.4977 67.3422 46.5695 67.3796L51.6295 68.4594C53.1878 68.7908 54.7764 68.9584 56.3695 68.9594H59.1095C59.64 68.9594 60.1487 68.7488 60.5237 68.3737C60.8988 67.9986 61.1095 67.4898 61.1095 66.9594C61.1095 66.429 60.8988 65.9204 60.5237 65.5453C60.1487 65.1703 59.64 64.9594 59.1095 64.9594H56.6995C54.4085 64.9594 52.1419 64.4899 50.0395 63.5795L49.6695 63.4194C48.4005 62.8314 47.0863 62.3465 45.7395 61.9694C43.7256 61.4879 41.6228 61.5213 39.6252 62.0666C37.6276 62.6119 35.7995 63.6515 34.3095 65.0895C34.2619 65.1398 34.2045 65.1796 34.1409 65.207C34.0773 65.2343 34.0088 65.2485 33.9395 65.2485C33.8703 65.2485 33.8018 65.2343 33.7382 65.207C33.6746 65.1796 33.6172 65.1398 33.5695 65.0895C33.5202 65.0403 33.4811 64.9818 33.4545 64.9174C33.4278 64.8531 33.4141 64.7842 33.4141 64.7145C33.4141 64.6449 33.4278 64.5757 33.4545 64.5114C33.4811 64.4471 33.5202 64.3887 33.5695 64.3395C35.1887 62.777 37.1748 61.6465 39.3451 61.0524C41.5154 60.4583 43.8003 60.4194 45.9895 60.9394C47.3942 61.3328 48.7652 61.8377 50.0895 62.4494L50.4495 62.6095C52.4236 63.4596 54.5502 63.8984 56.6995 63.8993H59.1095C59.8921 63.9441 60.628 64.2865 61.1663 64.8564C61.7045 65.4263 62.0044 66.1806 62.0044 66.9645C62.0044 67.7484 61.7045 68.5025 61.1663 69.0724C60.628 69.6423 59.8921 69.9847 59.1095 70.0295L59.1395 69.9894Z" fill="#333333"/>
<path d="M33.43 78.5095H28.06C27.778 78.5069 27.5084 78.393 27.3099 78.1926C27.1113 77.9922 27 77.7215 27 77.4395V62.8396C27 62.5575 27.1113 62.2868 27.3099 62.0864C27.5084 61.886 27.778 61.7722 28.06 61.7695H33.43C33.7138 61.7695 33.9859 61.8823 34.1866 62.083C34.3873 62.2837 34.5 62.5558 34.5 62.8396V77.5095C34.4822 77.781 34.3617 78.0354 34.1629 78.2212C33.9641 78.407 33.7021 78.5101 33.43 78.5095ZM28.06 62.8296V77.5095H33.45V62.9094L28.06 62.8296Z" fill="#333333"/>
<path d="M49.7102 57.5108C49.0665 57.5109 48.4489 57.2566 47.9919 56.8033C47.5348 56.35 47.2754 55.7346 47.2702 55.0909V52.7408C45.2861 52.1647 43.462 51.138 41.9402 49.7408L39.9402 50.9208C39.3801 51.2449 38.7145 51.3344 38.0887 51.1695C37.4629 51.0047 36.9278 50.5989 36.6002 50.0409L35.0702 47.4308C34.9083 47.1538 34.8027 46.8475 34.7593 46.5296C34.716 46.2118 34.7357 45.8885 34.8175 45.5782C34.8992 45.268 35.0413 44.977 35.2357 44.7218C35.43 44.4665 35.6728 44.2522 35.9502 44.0909L37.9502 42.9007C37.4852 40.8872 37.4852 38.7944 37.9502 36.7809L35.9502 35.6209C35.388 35.3 34.9757 34.7695 34.8033 34.1456C34.6309 33.5217 34.7125 32.8549 35.0302 32.2909L36.5302 29.6607C36.6889 29.381 36.9013 29.1354 37.1553 28.9381C37.4093 28.7407 37.6998 28.5955 38.0102 28.5108C38.3189 28.4253 38.6417 28.4025 38.9594 28.4437C39.2772 28.4849 39.5834 28.5894 39.8602 28.7508L41.8602 29.9007C43.364 28.4798 45.1738 27.4229 47.1502 26.8109V24.5108C47.1448 24.1903 47.2041 23.872 47.3243 23.5748C47.4446 23.2776 47.6234 23.0075 47.8502 22.7809C48.0745 22.5517 48.342 22.3693 48.6372 22.244C48.9324 22.1187 49.2495 22.053 49.5702 22.0509H52.2402C52.3093 22.0495 52.378 22.062 52.4422 22.0875C52.5065 22.113 52.565 22.1511 52.6143 22.1996C52.6637 22.248 52.7029 22.3057 52.7296 22.3695C52.7564 22.4332 52.7702 22.5018 52.7702 22.5709C52.7702 22.7115 52.7143 22.8463 52.6149 22.9457C52.5155 23.045 52.3807 23.1009 52.2402 23.1009H49.5802C49.3943 23.0973 49.2097 23.1317 49.0377 23.2022C48.8657 23.2728 48.71 23.3778 48.5802 23.5108C48.4479 23.6408 48.3441 23.7967 48.2753 23.9688C48.2064 24.141 48.174 24.3256 48.1802 24.5108V27.2508C48.1811 27.3668 48.1446 27.4799 48.0762 27.5736C48.0077 27.6672 47.9109 27.7365 47.8002 27.7708C45.7142 28.34 43.8141 29.4469 42.2902 30.9808C42.2066 31.0614 42.0997 31.1136 41.9848 31.1297C41.8698 31.1459 41.7527 31.1254 41.6502 31.0709L39.2802 29.7208C39.1238 29.6273 38.9501 29.5666 38.7696 29.5426C38.589 29.5185 38.4055 29.5317 38.2302 29.5809C38.0542 29.6284 37.8893 29.7103 37.7451 29.8219C37.6009 29.9334 37.4803 30.0724 37.3902 30.2308L35.8902 32.8609C35.7095 33.1808 35.6628 33.559 35.7603 33.9132C35.8577 34.2673 36.0914 34.5684 36.4102 34.7508L38.7902 36.1109C38.8917 36.1672 38.9715 36.2557 39.0168 36.3626C39.0621 36.4696 39.0704 36.5886 39.0402 36.7008C38.495 38.7891 38.495 40.9826 39.0402 43.0709C39.0686 43.1834 39.0607 43.302 39.0176 43.4098C38.9745 43.5175 38.8984 43.6089 38.8002 43.6708L36.4302 45.0509C36.2738 45.1427 36.1371 45.2646 36.0279 45.4093C35.9186 45.554 35.839 45.7189 35.7935 45.8944C35.748 46.0699 35.7375 46.2527 35.7627 46.4322C35.7878 46.6118 35.8482 46.7845 35.9402 46.9408L37.4702 49.5609C37.5611 49.7182 37.6824 49.8559 37.827 49.9659C37.9716 50.0759 38.1367 50.1559 38.3126 50.2015C38.4884 50.2471 38.6717 50.2574 38.8515 50.2315C39.0314 50.2057 39.2043 50.1442 39.3602 50.0509L41.7202 48.6708C41.8193 48.6126 41.9348 48.5891 42.0488 48.6036C42.1628 48.6181 42.2687 48.6698 42.3502 48.7508C43.8959 50.2641 45.8084 51.3495 47.9002 51.9007C48.012 51.9314 48.1107 51.9981 48.1812 52.0902C48.2516 52.1823 48.2899 52.2948 48.2901 52.4107V55.1507C48.2883 55.3363 48.3236 55.5205 48.394 55.6922C48.4644 55.864 48.5685 56.0199 48.7002 56.1507C48.8295 56.2832 48.9856 56.3867 49.158 56.454C49.3305 56.5212 49.5153 56.5508 49.7002 56.5409H51.0401C51.1669 56.5584 51.2831 56.6211 51.3671 56.7176C51.4512 56.8141 51.4975 56.9378 51.4975 57.0658C51.4975 57.1938 51.4512 57.3174 51.3671 57.4139C51.2831 57.5104 51.1669 57.5734 51.0401 57.5909H49.6902L49.7102 57.5108Z" fill="#333333"/>
<path d="M50.9511 48.5101C48.6799 48.4401 46.5248 47.4904 44.9407 45.8614C43.3566 44.2324 42.4675 42.0516 42.461 39.7794C42.4545 37.5072 43.3312 35.3212 44.9059 33.6832C46.4807 32.0452 48.6303 31.0831 50.9011 31.0001C50.9702 30.9988 51.0389 31.0112 51.1031 31.0367C51.1674 31.0623 51.2259 31.1004 51.2753 31.1488C51.3246 31.1972 51.3638 31.2549 51.3905 31.3187C51.4173 31.3825 51.4311 31.451 51.4311 31.5201C51.4324 31.5897 51.42 31.6589 51.3946 31.7237C51.3692 31.7885 51.3312 31.8477 51.2829 31.8978C51.2346 31.9479 51.1769 31.9881 51.1131 32.016C51.0493 32.0438 50.9807 32.0589 50.9111 32.0602C48.9182 32.132 47.031 32.974 45.6466 34.4093C44.2621 35.8445 43.4885 37.7611 43.4885 39.7552C43.4885 41.7494 44.2621 43.6657 45.6466 45.1009C47.031 46.5362 48.9182 47.3782 50.9111 47.45C51.0516 47.45 51.1864 47.5059 51.2858 47.6053C51.3852 47.7047 51.4411 47.8395 51.4411 47.9801C51.4424 48.0492 51.4299 48.118 51.4044 48.1822C51.3788 48.2465 51.3408 48.305 51.2923 48.3543C51.2439 48.4037 51.1862 48.4428 51.1224 48.4696C51.0587 48.4963 50.9902 48.5101 50.9211 48.5101H50.9511Z" fill="#333333"/>
<path d="M52.1302 57.5098H50.7902C50.7206 57.5098 50.6517 57.4961 50.5874 57.4695C50.5231 57.4428 50.4646 57.4037 50.4154 57.3545C50.3662 57.3053 50.3272 57.2469 50.3005 57.1826C50.2739 57.1183 50.2602 57.0493 50.2602 56.9797C50.2602 56.9106 50.2739 56.8421 50.3007 56.7783C50.3275 56.7146 50.3666 56.6568 50.416 56.6084C50.4654 56.56 50.5239 56.5219 50.5881 56.4963C50.6524 56.4708 50.7211 56.4584 50.7902 56.4597H52.1302C52.3118 56.4624 52.4921 56.429 52.6606 56.3613C52.8291 56.2937 52.9825 56.1932 53.1119 56.0657C53.2412 55.9382 53.3439 55.7862 53.414 55.6187C53.4841 55.4511 53.5202 55.2715 53.5202 55.0898V52.3499C53.521 52.2326 53.5607 52.1189 53.6331 52.0266C53.7055 51.9343 53.8065 51.8686 53.9202 51.8398C56.009 51.2887 57.9184 50.2029 59.4602 48.6897C59.5432 48.6078 59.6509 48.5557 59.7666 48.5413C59.8823 48.5268 59.9996 48.5509 60.1002 48.6099L62.4602 49.9897C62.6164 50.0818 62.7893 50.1421 62.9689 50.1672C63.1484 50.1924 63.3312 50.182 63.5067 50.1365C63.6823 50.091 63.8471 50.0113 63.9918 49.9021C64.1365 49.7929 64.2583 49.6561 64.3502 49.4998L65.8802 46.8799C66.0633 46.5637 66.1146 46.1879 66.0229 45.8342C65.9312 45.4805 65.7039 45.1771 65.3902 44.9897L63.0202 43.6099C62.919 43.5506 62.8399 43.4598 62.7948 43.3516C62.7497 43.2433 62.7411 43.1234 62.7702 43.0098C63.3203 40.9221 63.3203 38.7274 62.7702 36.6396C62.7434 36.5275 62.7532 36.4099 62.7982 36.3037C62.8432 36.1975 62.921 36.1086 63.0202 36.0498L65.4102 34.6897C65.727 34.5054 65.9589 34.2045 66.0562 33.8511C66.1534 33.4977 66.1082 33.1202 65.9302 32.7998L64.4302 30.1697C64.2464 29.8511 63.9447 29.6177 63.5902 29.5198C63.4149 29.4699 63.2313 29.4566 63.0506 29.4807C62.87 29.5048 62.6963 29.5656 62.5402 29.6597L60.1702 31.0098C60.0677 31.0642 59.9505 31.0848 59.8356 31.0686C59.7206 31.0524 59.6137 31.0003 59.5302 30.9197C58.0019 29.3913 56.1035 28.2854 54.0202 27.7097C53.9084 27.6757 53.8103 27.6069 53.7401 27.5134C53.67 27.4199 53.6315 27.3066 53.6302 27.1897V24.4497C53.6315 24.2685 53.5971 24.0888 53.529 23.9209C53.4608 23.753 53.3603 23.6 53.2331 23.4709C53.1059 23.3419 52.9545 23.2393 52.7875 23.1687C52.6206 23.0981 52.4414 23.0611 52.2602 23.0598H49.5902C49.4634 23.0423 49.3473 22.9793 49.2632 22.8828C49.1791 22.7863 49.1328 22.6627 49.1328 22.5347C49.1328 22.4067 49.1791 22.283 49.2632 22.1865C49.3473 22.09 49.4634 22.0273 49.5902 22.0098H52.2502C52.8974 22.0177 53.5154 22.2802 53.9703 22.7407C54.4252 23.2012 54.6802 23.8225 54.6802 24.4697V26.8098C56.6606 27.4194 58.4741 28.4766 59.9802 29.8997L61.9802 28.7498C62.2567 28.5878 62.563 28.4831 62.8808 28.4419C63.1986 28.4007 63.5215 28.4237 63.8302 28.5098C64.4554 28.6838 64.9871 29.0968 65.3102 29.6597L66.8002 32.2898C66.9592 32.5682 67.0618 32.8751 67.1022 33.1931C67.1425 33.5112 67.1198 33.8341 67.0352 34.1433C66.9507 34.4526 66.8061 34.7423 66.6096 34.9956C66.4132 35.2489 66.1687 35.4611 65.8902 35.6199L63.8902 36.7798C64.3503 38.7938 64.3503 40.8856 63.8902 42.8997L65.8902 44.0898C66.1667 44.252 66.4085 44.4668 66.6019 44.7224C66.7952 44.978 66.9363 45.2694 67.0171 45.5796C67.0979 45.8898 67.1168 46.2128 67.0727 46.5303C67.0287 46.8477 66.9224 47.1533 66.7602 47.4297L65.2302 50.0398C65.0689 50.3171 64.8545 50.5598 64.5992 50.7542C64.344 50.9485 64.0529 51.0906 63.7427 51.1724C63.4325 51.2541 63.1091 51.2738 62.7913 51.2305C62.4734 51.1871 62.1672 51.0815 61.8902 50.9197L59.8902 49.7397C58.3668 51.1349 56.5432 52.1613 54.5602 52.7397V55.0898C54.5602 55.4093 54.4969 55.7256 54.3741 56.0205C54.2512 56.3154 54.0712 56.5831 53.8443 56.8081C53.6175 57.0331 53.3483 57.2109 53.0524 57.3313C52.7565 57.4517 52.4397 57.5124 52.1202 57.5098H52.1302Z" fill="#333333"/>
<path d="M50.8599 48.51C50.7908 48.51 50.7224 48.4962 50.6586 48.4695C50.5949 48.4427 50.5371 48.4036 50.4887 48.3542C50.4402 48.3049 50.4022 48.2464 50.3766 48.1821C50.3511 48.1179 50.3386 48.0491 50.3399 47.98C50.3399 47.8394 50.3958 47.7046 50.4952 47.6052C50.5946 47.5058 50.7294 47.45 50.8699 47.45C52.8628 47.3781 54.75 46.5361 56.1344 45.1008C57.5189 43.6656 58.2925 41.7493 58.2925 39.7551C58.2925 37.761 57.5189 35.8444 56.1344 34.4092C54.75 32.9739 52.8628 32.1319 50.8699 32.0601C50.8003 32.0588 50.7317 32.0437 50.6679 32.0159C50.6041 31.988 50.5464 31.9479 50.4981 31.8977C50.4498 31.8476 50.4119 31.7884 50.3864 31.7236C50.361 31.6588 50.3486 31.5896 50.3499 31.52C50.3499 31.3821 50.4047 31.2499 50.5022 31.1523C50.5998 31.0548 50.732 31 50.8699 31C53.1915 31.0159 55.4118 31.9526 57.0431 33.6045C58.6744 35.2564 59.5833 37.4885 59.57 39.8101C59.5542 42.1143 58.6312 44.3195 57.0008 45.948C55.3705 47.5765 53.1642 48.4969 50.8599 48.51Z" fill="#333333"/>
</g>
<defs>
<clipPath id="clip0_1880_384058">
<rect width="47.85" height="56.54" fill="white" transform="translate(27 22)"/>
</clipPath>
</defs>
</svg>
