<svg width="100" height="100" viewBox="0 0 100 100" fill="none" xmlns="http://www.w3.org/2000/svg">
<circle cx="50" cy="50" r="50" fill="#F2F6FB"/>
<g clip-path="url(#clip0_1867_378062)">
<path d="M31.5293 23.9395H64.6293V27.8596H68.0893V66.0396C68.0893 66.0396 67.5793 75.8196 61.0893 75.8196H34.3993V71.8997L31.5693 71.5696L31.5293 23.9395Z" fill="white"/>
<path d="M64.6304 27.5H68.0904V66.1101C68.0904 71.2901 64.5904 75.49 60.2704 75.49H34.4004V71.3401" stroke="#333333" stroke-width="1.06" stroke-linecap="round" stroke-linejoin="round"/>
<path d="M56.0693 23.5195H31.5293V71.3396H57.5293C58.1602 71.2787 58.7418 70.9715 59.1479 70.4849C59.5541 69.9982 59.7522 69.3712 59.6993 68.7395V65.4695H62.4193C63.0502 65.4086 63.6318 65.1016 64.0379 64.615C64.4441 64.1283 64.6422 63.5013 64.5893 62.8696V23.5195H56.0293" stroke="#333333" stroke-width="1.06" stroke-linecap="round" stroke-linejoin="round"/>
<path d="M48.0791 57.4296C53.4859 57.4296 57.8691 53.0465 57.8691 47.6396C57.8691 42.2327 53.4859 37.8496 48.0791 37.8496C42.6722 37.8496 38.2891 42.2327 38.2891 47.6396C38.2891 53.0465 42.6722 57.4296 48.0791 57.4296Z" fill="#235AB0"/>
<path d="M45.2405 53.1696L42.3105 47.0396L44.1205 46.1696L45.8105 49.7196L52.2305 43.1396L53.6605 44.5396L45.2405 53.1696Z" fill="white"/>
</g>
<defs>
<clipPath id="clip0_1867_378062">
<rect width="37.62" height="53.02" fill="white" transform="translate(31 23)"/>
</clipPath>
</defs>
</svg>
