<svg width="90" height="90" viewBox="0 0 90 90" fill="none" xmlns="http://www.w3.org/2000/svg">
<circle cx="45" cy="45" r="45" fill="#3A76C9"/>
<g clip-path="url(#clip0_344_56218)">
<path d="M25.6401 30.9414H59.1901C59.6101 30.9414 59.9601 31.2814 59.9601 31.7114V57.6914C59.9601 58.1114 59.6201 58.4614 59.1901 58.4614H25.6401C25.2201 58.4614 24.8701 58.1214 24.8701 57.6914V31.7114C24.8701 31.2914 25.2101 30.9414 25.6401 30.9414V30.9414Z" stroke="white" stroke-linecap="round" stroke-linejoin="round"/>
<path d="M22.4 58.4922H62.43C63.07 58.4922 63.58 59.0122 63.58 59.6422V60.9222C63.58 61.5622 63.06 62.0722 62.43 62.0722H22.4C21.76 62.0722 21.25 61.5522 21.25 60.9222V59.6422C21.25 59.0022 21.77 58.4922 22.4 58.4922Z" stroke="white" stroke-linecap="round" stroke-linejoin="round"/>
<path d="M41.23 35.3711H44.42" stroke="white" stroke-linecap="round" stroke-linejoin="round"/>
<path d="M73.3901 45.1186C74.2901 46.0186 74.2901 47.4786 73.3901 48.3686C72.4901 49.2686 71.0301 49.2686 70.1301 48.3686L60.1201 38.3586C59.2201 37.4586 59.2201 35.9986 60.1201 35.1086C61.0201 34.2086 62.4701 34.2086 63.3801 35.1086L73.3901 45.1186V45.1186Z" stroke="white" stroke-linecap="round" stroke-linejoin="round"/>
<path d="M62.6557 26.338C65.7817 29.4662 65.7814 34.5265 62.6549 37.6543C59.5287 40.7819 54.4713 40.7819 51.3451 37.6543C48.2183 34.5262 48.2183 29.4653 51.3451 26.3372C54.4585 23.2225 59.5278 23.2191 62.6557 26.338Z" fill="#3A76C9" stroke="white" stroke-width="4" stroke-linecap="round" stroke-linejoin="round"/>
</g>
<defs>
<clipPath id="clip0_344_56218">
<rect width="55.31" height="41.32" fill="white" transform="translate(20 22)"/>
</clipPath>
</defs>
</svg>
