<svg width="100" height="100" viewBox="0 0 100 100" fill="none" xmlns="http://www.w3.org/2000/svg">
<circle cx="50" cy="50" r="50" fill="#F2F6FB"/>
<g clip-path="url(#clip0_1928_379606)">
<path d="M33.54 34.4491V25.4791L35.4 23.2891L61.49 23.5091L63.37 25.4291V35.8291L61.19 37.5391H49.47L47.37 41.8191L44.76 37.3591L38.48 37.5791L35.83 35.4291L33.54 34.4491Z" fill="#235AB0"/>
<path d="M29.9101 45.0291L27.9101 41.5691L28.4101 38.0991L31.6501 35.1791L35.3501 35.0391L38.4801 37.5791L39.4301 40.7991L38.2501 44.2691L36.6401 45.6591L42.4501 50.5991L44.6501 47.1591L46.6701 46.8391L48.0101 48.7891L44.3101 55.7291L42.2501 56.0291L39.1601 54.0091L39.1801 74.7491L38.1601 76.7591L35.3501 77.0591L33.6501 75.1491L32.4401 76.5391L30.1101 77.0591L27.7901 75.1291V61.3991L25.1601 60.3091L24.3701 58.0191L24.5301 50.8291L30.2701 45.3891L29.9101 45.0291Z" fill="white"/>
<path d="M50.5195 59.8907L48.1995 63.1507L49.2595 68.0907L49.9495 68.9607L46.3595 72.2807L45.0195 75.0307V77.0607H76.1295V73.5507L71.6795 68.5007L73.5895 63.9907L70.8095 59.6507L67.6495 59.2207L65.1595 60.7607L64.1495 62.4107L63.6295 65.1007L64.9795 68.1407L65.3095 68.5007L63.3695 70.6107L61.3995 72.7607L60.6595 74.4607L59.6095 72.2007L55.9395 68.8707L57.3395 65.6807L57.2495 62.3607L54.4895 59.2207L50.5195 59.8907Z" fill="white"/>
<path d="M27.77 61.9305C26.7701 61.9305 25.8112 61.5333 25.1042 60.8263C24.3972 60.1193 24 59.1604 24 58.1605V52.2907C23.999 51.6802 24.134 51.0771 24.3951 50.5253C24.6563 49.9735 25.0371 49.4867 25.51 49.1005L30.39 45.1605C30.5007 45.0734 30.6411 45.033 30.7813 45.048C30.9214 45.0629 31.0501 45.132 31.14 45.2406C31.2265 45.3497 31.2667 45.4883 31.2517 45.6268C31.2367 45.7653 31.1679 45.8925 31.06 45.9806L26.18 49.9205C25.8294 50.2079 25.547 50.5697 25.3533 50.9796C25.1596 51.3895 25.0595 51.8373 25.06 52.2907V58.1605C25.0626 58.8784 25.349 59.5662 25.8566 60.0739C26.3643 60.5815 27.052 60.8678 27.77 60.8705C27.9105 60.8705 28.0453 60.9264 28.1447 61.0258C28.2441 61.1252 28.3 61.2599 28.3 61.4005C28.3 61.4701 28.2863 61.5391 28.2596 61.6034C28.233 61.6677 28.1939 61.7261 28.1447 61.7753C28.0955 61.8245 28.0371 61.8636 27.9728 61.8903C27.9085 61.9169 27.8396 61.9305 27.77 61.9305Z" fill="#333333"/>
<path d="M39.1803 74.751C39.0397 74.751 38.9049 74.6951 38.8055 74.5957C38.7061 74.4963 38.6503 74.3615 38.6503 74.221V52.8609L42.0403 55.1509C42.2198 55.2771 42.424 55.3637 42.6395 55.405C42.855 55.4464 43.0768 55.4416 43.2903 55.3909C43.5005 55.337 43.6975 55.241 43.8694 55.1087C44.0413 54.9763 44.1845 54.8103 44.2903 54.6209L47.1803 49.531C47.2842 49.3529 47.3502 49.1552 47.3743 48.9505C47.3984 48.7457 47.3799 48.5382 47.3202 48.3408C47.2645 48.1418 47.1682 47.9567 47.0374 47.7966C46.9066 47.6366 46.7442 47.5052 46.5603 47.4109C46.2172 47.2379 45.8217 47.1994 45.4517 47.303C45.0816 47.4066 44.7637 47.6449 44.5603 47.971L42.5603 51.481L36.0102 45.961C35.9571 45.9167 35.9134 45.8622 35.8816 45.8008C35.8498 45.7394 35.8305 45.6724 35.8249 45.6035C35.8194 45.5346 35.8275 45.4654 35.8491 45.3997C35.8706 45.334 35.905 45.2732 35.9503 45.221C36.0429 45.1154 36.1731 45.05 36.3131 45.0388C36.4531 45.0276 36.592 45.0714 36.7003 45.1609L42.2703 49.8508L43.6403 47.4309C43.9838 46.8687 44.5281 46.4579 45.163 46.2815C45.7978 46.1052 46.476 46.1765 47.0603 46.481C47.3697 46.6401 47.6436 46.8605 47.8654 47.1287C48.0871 47.3968 48.2521 47.7072 48.3503 48.041C48.4459 48.3735 48.4739 48.7217 48.4327 49.0652C48.3915 49.4087 48.2818 49.7406 48.1103 50.041L45.2203 55.1309C45.0397 55.4483 44.7955 55.7251 44.5029 55.9436C44.2104 56.1622 43.8758 56.3178 43.5203 56.4009C43.1652 56.4805 42.7977 56.487 42.4401 56.4199C42.0825 56.3529 41.7423 56.2138 41.4402 56.011L39.7003 54.8408V74.2009C39.7029 74.2714 39.6916 74.3415 39.6667 74.4075C39.6419 74.4735 39.6042 74.534 39.5558 74.5852C39.5074 74.6364 39.4492 74.6774 39.3847 74.7058C39.3202 74.7343 39.2508 74.7497 39.1803 74.751Z" fill="#333333"/>
<path d="M30.7299 77.5708C29.8414 77.5708 28.9893 77.2178 28.3611 76.5896C27.7328 75.9614 27.3799 75.1094 27.3799 74.2209V53.1509C27.3825 53.0121 27.4395 52.8797 27.5386 52.7825C27.6377 52.6852 27.7711 52.6308 27.9099 52.6309C27.979 52.6308 28.0475 52.6446 28.1113 52.6714C28.175 52.6981 28.2328 52.7373 28.2812 52.7866C28.3296 52.836 28.3677 52.8945 28.3932 52.9587C28.4188 53.023 28.4313 53.0918 28.4299 53.1609V74.2209C28.4299 74.8283 28.6712 75.4106 29.1006 75.8401C29.5301 76.2695 30.1126 76.511 30.7199 76.511C31.3264 76.5084 31.9074 76.266 32.3363 75.8372C32.7652 75.4083 33.0073 74.8275 33.0099 74.2209V63.0608C33.0086 62.9917 33.021 62.9231 33.0466 62.8589C33.0721 62.7946 33.1102 62.7361 33.1586 62.6868C33.207 62.6374 33.2648 62.5983 33.3286 62.5715C33.3923 62.5448 33.4608 62.531 33.5299 62.531C33.5999 62.5296 33.6694 62.5424 33.7343 62.5686C33.7992 62.5948 33.8582 62.6336 33.9077 62.6831C33.9572 62.7326 33.9962 62.7915 34.0223 62.8564C34.0485 62.9214 34.0613 62.9908 34.0599 63.0608V74.2209C34.06 75.106 33.7097 75.9551 33.0858 76.5828C32.4619 77.2104 31.6149 77.5655 30.7299 77.5708Z" fill="#333333"/>
<path d="M33.5396 46.8391C31.8987 46.8365 30.3258 46.1835 29.1655 45.0232C28.0052 43.8629 27.3523 42.29 27.3496 40.6492C27.3496 39.0066 28.0014 37.431 29.162 36.2686C30.3226 35.1061 31.897 34.4519 33.5396 34.4492C35.1831 34.4519 36.7586 35.1059 37.9207 36.2681C39.0829 37.4302 39.737 39.0056 39.7396 40.6492C39.737 42.2918 39.0825 43.8663 37.9201 45.0269C36.7577 46.1874 35.1822 46.8391 33.5396 46.8391ZM33.5396 35.5093C32.1781 35.5119 30.8733 36.0547 29.9116 37.0183C28.9498 37.982 28.4096 39.2877 28.4096 40.6492C28.4096 42.0097 28.9501 43.3145 29.9122 44.2766C30.8742 45.2387 32.1791 45.7793 33.5396 45.7793C34.9011 45.7793 36.2069 45.2391 37.1706 44.2773C38.1342 43.3156 38.677 42.0106 38.6796 40.6492C38.6796 39.286 38.1381 37.9786 37.1741 37.0146C36.2102 36.0507 34.9028 35.5093 33.5396 35.5093Z" fill="#333333"/>
<path d="M60.6702 77.5698C60.5297 77.5698 60.3949 77.5142 60.2955 77.4148C60.1961 77.3154 60.1402 77.1806 60.1402 77.0401V75.0401C60.1402 74.487 60.0204 73.9403 59.7891 73.438C59.5578 72.9357 59.2204 72.4894 58.8002 72.1299L55.4302 69.25C55.3771 69.2058 55.3334 69.1512 55.3016 69.0899C55.2697 69.0285 55.2505 68.9615 55.2449 68.8926C55.2393 68.8237 55.2475 68.7544 55.269 68.6887C55.2905 68.623 55.325 68.5623 55.3702 68.51C55.4629 68.4044 55.593 68.3391 55.733 68.3279C55.8731 68.3167 56.012 68.3604 56.1202 68.45L59.4902 71.3298C60.0254 71.7888 60.4552 72.358 60.7503 72.9983C61.0454 73.6386 61.1988 74.335 61.2002 75.0401V77.0401C61.2002 77.1097 61.1865 77.1784 61.1598 77.2427C61.1332 77.307 61.0942 77.3656 61.045 77.4148C60.9958 77.464 60.9373 77.5029 60.873 77.5296C60.8087 77.5562 60.7398 77.5698 60.6702 77.5698Z" fill="#333333"/>
<path d="M76.2302 77.5697H45.1002C45.0311 77.5698 44.9626 77.556 44.8988 77.5292C44.8351 77.5025 44.7773 77.4633 44.7289 77.414C44.6805 77.3646 44.6424 77.3061 44.6169 77.2419C44.5913 77.1776 44.5788 77.1091 44.5802 77.04V75.1198C44.5788 74.4056 44.7338 73.6998 45.0344 73.0519C45.335 72.4041 45.7739 71.8299 46.3202 71.3698L49.7502 68.4899C49.8581 68.4022 49.9961 68.3604 50.1345 68.3735C50.2729 68.3865 50.4007 68.4533 50.4902 68.5597C50.5797 68.668 50.6235 68.8069 50.6123 68.9469C50.6011 69.087 50.5358 69.2171 50.4302 69.3097L47.0002 72.1899C46.5698 72.5469 46.2238 72.9948 45.9869 73.5014C45.7501 74.008 45.6282 74.5606 45.6302 75.1198V76.5099H76.2302C76.2998 76.5099 76.3687 76.5236 76.433 76.5502C76.4973 76.5768 76.5557 76.616 76.605 76.6652C76.6542 76.7144 76.6932 76.7728 76.7198 76.8371C76.7465 76.9014 76.7602 76.9704 76.7602 77.04C76.7602 77.1805 76.7043 77.3153 76.605 77.4147C76.5056 77.5141 76.3708 77.5697 76.2302 77.5697Z" fill="#333333"/>
<path d="M52.9696 70.6094C50.1496 70.6094 47.8496 67.9094 47.8496 64.6094C47.8496 61.3094 50.1496 58.6094 52.9696 58.6094C55.7896 58.6094 58.0996 61.2994 58.0996 64.6094C58.0996 67.9194 55.7596 70.6094 52.9696 70.6094ZM52.9696 59.6094C50.7296 59.6094 48.9096 61.8294 48.9096 64.6094C48.9096 67.3894 50.7296 69.5593 52.9696 69.5593C55.2096 69.5593 57.0396 67.3394 57.0396 64.6094C57.0396 61.8794 55.1796 59.6494 52.9696 59.6494V59.6094Z" fill="#333333"/>
<path d="M76.2295 77.5693C76.089 77.5693 75.9542 77.5137 75.8548 77.4143C75.7554 77.3149 75.6995 77.1801 75.6995 77.0395V75.0395C75.6995 74.4865 75.5798 73.9398 75.3484 73.4375C75.1171 72.9352 74.7798 72.4889 74.3596 72.1294L70.9996 69.2495C70.9465 69.2052 70.9027 69.1507 70.8708 69.0893C70.839 69.028 70.8198 68.961 70.8142 68.8921C70.8086 68.8232 70.8168 68.7539 70.8383 68.6882C70.8598 68.6225 70.8942 68.5617 70.9395 68.5095C70.9838 68.4564 71.0382 68.4127 71.0996 68.3808C71.161 68.349 71.228 68.3296 71.2969 68.324C71.3658 68.3184 71.4352 68.3266 71.5009 68.3481C71.5665 68.3697 71.6273 68.4042 71.6796 68.4495L75.0496 71.3293C75.5868 71.7866 76.018 72.3554 76.3133 72.9961C76.6086 73.6368 76.7608 74.3341 76.7595 75.0395V77.0395C76.7595 77.1801 76.7037 77.3149 76.6043 77.4143C76.5049 77.5137 76.3701 77.5693 76.2295 77.5693Z" fill="#333333"/>
<path d="M60.6697 75.6508C60.5291 75.6508 60.3943 75.5949 60.2949 75.4955C60.1955 75.3962 60.1397 75.2614 60.1397 75.1208C60.1382 74.4066 60.2933 73.7008 60.5939 73.0529C60.8945 72.4051 61.3334 71.8309 61.8796 71.3708L65.3097 68.4909C65.4202 68.405 65.5592 68.3644 65.6986 68.3774C65.8379 68.3904 65.9671 68.4558 66.0597 68.5607C66.148 68.6702 66.1901 68.8101 66.177 68.9501C66.1639 69.0902 66.0968 69.2195 65.9897 69.3107L62.5597 72.1909C62.1306 72.5484 61.7861 72.9967 61.5509 73.5034C61.3158 74.01 61.1958 74.5623 61.1997 75.1208C61.1997 75.2614 61.1438 75.3962 61.0444 75.4955C60.945 75.5949 60.8103 75.6508 60.6697 75.6508Z" fill="#333333"/>
<path d="M68.5001 70.6094C65.6701 70.6094 63.3701 67.9094 63.3701 64.6094C63.3701 61.3094 65.6701 58.6094 68.5001 58.6094C71.3301 58.6094 73.6201 61.2994 73.6201 64.6094C73.6201 67.9194 71.3201 70.6094 68.5001 70.6094ZM68.5001 59.6094C66.2501 59.6094 64.4301 61.8294 64.4301 64.6094C64.4301 67.3894 66.2501 69.5593 68.5001 69.5593C70.7501 69.5593 72.5601 67.3394 72.5601 64.6094C72.5601 61.8794 70.7401 59.6494 68.5001 59.6494V59.6094Z" fill="#333333"/>
<path d="M47.2197 43.1296L44.8297 38.1296H38.2997C38.2301 38.1296 38.1612 38.116 38.0969 38.0894C38.0326 38.0627 37.9741 38.0236 37.9249 37.9744C37.8757 37.9251 37.8366 37.8668 37.81 37.8025C37.7834 37.7382 37.7697 37.6692 37.7697 37.5996C37.7697 37.459 37.8255 37.3242 37.9249 37.2249C38.0243 37.1255 38.1591 37.0696 38.2997 37.0696H45.4897L47.2197 40.6897L48.9396 37.0696H60.9396C61.4321 37.067 61.9037 36.8702 62.252 36.522C62.6002 36.1737 62.7971 35.7022 62.7997 35.2097V25.9297C62.7997 25.4364 62.6037 24.9633 62.2549 24.6145C61.9061 24.2657 61.4329 24.0696 60.9396 24.0696H36.0597C35.5664 24.0696 35.0933 24.2657 34.7444 24.6145C34.3956 24.9633 34.1996 25.4364 34.1996 25.9297V34.9897C34.1996 35.1303 34.1438 35.2651 34.0444 35.3645C33.945 35.4639 33.8102 35.5198 33.6697 35.5198C33.5291 35.5198 33.3943 35.4639 33.2949 35.3645C33.1955 35.2651 33.1396 35.1303 33.1396 34.9897V25.9297C33.1396 25.1553 33.4473 24.4126 33.9949 23.865C34.5425 23.3174 35.2853 23.0098 36.0597 23.0098H60.9396C61.7141 23.0098 62.4568 23.3174 63.0044 23.865C63.552 24.4126 63.8597 25.1553 63.8597 25.9297V35.1897C63.8597 35.9641 63.552 36.7068 63.0044 37.2544C62.4568 37.802 61.7141 38.1096 60.9396 38.1096H49.6396L47.2197 43.1296Z" fill="#333333"/>
<path d="M36.3603 77.5698C35.4762 77.5672 34.6292 77.2142 34.005 76.5881C33.3808 75.962 33.0303 75.1141 33.0303 74.23V71.8699C33.0303 71.7293 33.0861 71.5945 33.1855 71.4951C33.2849 71.3957 33.4197 71.3398 33.5603 71.3398C33.7009 71.3398 33.8357 71.3957 33.9351 71.4951C34.0345 71.5945 34.0903 71.7293 34.0903 71.8699V74.23C34.0903 74.8329 34.3291 75.4113 34.7545 75.8386C35.1799 76.2659 35.7573 76.5074 36.3603 76.51C36.965 76.51 37.5449 76.2696 37.9725 75.842C38.4001 75.4145 38.6403 74.8347 38.6403 74.23C38.6403 74.1604 38.654 74.0914 38.6806 74.0271C38.7072 73.9628 38.7463 73.9044 38.7955 73.8552C38.8447 73.806 38.9032 73.7669 38.9675 73.7402C39.0318 73.7136 39.1007 73.7 39.1703 73.7C39.2399 73.7 39.3088 73.7136 39.3731 73.7402C39.4374 73.7669 39.4958 73.806 39.545 73.8552C39.5943 73.9044 39.6333 73.9628 39.6599 74.0271C39.6865 74.0914 39.7003 74.1604 39.7003 74.23C39.6976 75.115 39.3449 75.9631 38.7191 76.5889C38.0933 77.2147 37.2453 77.5672 36.3603 77.5698Z" fill="#333333"/>
<path d="M42.3996 31.5198C42.8635 31.5198 43.2396 31.1438 43.2396 30.6798C43.2396 30.2159 42.8635 29.8398 42.3996 29.8398C41.9357 29.8398 41.5596 30.2159 41.5596 30.6798C41.5596 31.1438 41.9357 31.5198 42.3996 31.5198Z" fill="white"/>
<path d="M47.8205 31.5198C48.2844 31.5198 48.6605 31.1438 48.6605 30.6798C48.6605 30.2159 48.2844 29.8398 47.8205 29.8398C47.3565 29.8398 46.9805 30.2159 46.9805 30.6798C46.9805 31.1438 47.3565 31.5198 47.8205 31.5198Z" fill="white"/>
<path d="M53.2404 31.5198C53.7043 31.5198 54.0804 31.1438 54.0804 30.6798C54.0804 30.2159 53.7043 29.8398 53.2404 29.8398C52.7765 29.8398 52.4004 30.2159 52.4004 30.6798C52.4004 31.1438 52.7765 31.5198 53.2404 31.5198Z" fill="white"/>
</g>
<defs>
<clipPath id="clip0_1928_379606">
<rect width="52.76" height="54.57" fill="white" transform="translate(24 23)"/>
</clipPath>
</defs>
</svg>
