<svg width="90" height="90" viewBox="0 0 90 90" fill="none" xmlns="http://www.w3.org/2000/svg">
<circle cx="45" cy="45" r="45" fill="#FAFAFA"/>
<g clip-path="url(#clip0_1800_398829)">
<path d="M18.5299 34.1602H67.9899L68.2099 58.8302L71.9499 60.1302L61.9099 70.1102L60.1899 64.1802H21.9399L19.0699 63.1402L18.4199 61.0902L18.5299 34.1602Z" fill="white"/>
<path d="M18.5293 34.1598V25.4298L20.8793 23.5098H65.7493L68.1893 25.2398L68.2093 34.6898L18.5293 34.1598Z" fill="#235AB0"/>
<path d="M61.9301 70.8599H61.8002C61.7092 70.8352 61.6262 70.7874 61.5595 70.7207C61.4928 70.6541 61.4448 70.571 61.4201 70.48L57.6401 56.3799C57.6168 56.2901 57.6174 56.196 57.6419 56.1065C57.6665 56.017 57.7142 55.9355 57.7801 55.8702C57.8442 55.8024 57.9256 55.7532 58.0155 55.7285C58.1055 55.7039 58.2005 55.7045 58.2901 55.73L72.4001 59.5098C72.4885 59.5342 72.5691 59.5812 72.634 59.646C72.6988 59.7109 72.7457 59.7915 72.7701 59.8799C72.7958 59.9688 72.7972 60.0632 72.7744 60.1529C72.7515 60.2425 72.7052 60.3244 72.6401 60.3902L62.3101 70.7198C62.2058 70.8131 62.07 70.8633 61.9301 70.8599ZM58.9301 56.9698L62.2401 69.3101L71.2401 60.3101L58.9301 56.9698Z" fill="#333333"/>
<path d="M72.0991 70.6901C71.9634 70.6874 71.8327 70.6378 71.7291 70.55L66.5991 65.6804C66.497 65.5836 66.4375 65.4499 66.4338 65.3093C66.43 65.1686 66.4823 65.0325 66.5791 64.9304C66.6759 64.8283 66.8093 64.7686 66.95 64.7648C67.0906 64.7611 67.227 64.8135 67.3291 64.9103L72.4591 69.78C72.5084 69.8292 72.5475 69.888 72.5742 69.9523C72.6008 70.0167 72.6146 70.0853 72.6146 70.155C72.6146 70.2246 72.6008 70.2938 72.5742 70.3581C72.5475 70.4224 72.5084 70.4808 72.4591 70.53C72.4127 70.5792 72.357 70.6187 72.2952 70.6462C72.2334 70.6737 72.1667 70.6887 72.0991 70.6901Z" fill="#333333"/>
<path d="M68.2103 34.6899H18.5203C18.3797 34.6899 18.2449 34.6341 18.1455 34.5347C18.0461 34.4353 17.9902 34.3007 17.9902 34.1602C17.9902 34.0196 18.0461 33.8846 18.1455 33.7852C18.2449 33.6858 18.3797 33.6299 18.5203 33.6299H68.2003C68.3408 33.6299 68.4756 33.6858 68.575 33.7852C68.6744 33.8846 68.7303 34.0196 68.7303 34.1602C68.7303 34.3007 68.6744 34.4353 68.575 34.5347C68.4756 34.6341 68.3408 34.6899 68.2003 34.6899H68.2103Z" fill="#333333"/>
<path d="M65.52 23H21.19C20.7703 23 20.3546 23.0827 19.9669 23.2437C19.5793 23.4046 19.2272 23.6407 18.9308 23.938C18.6345 24.2353 18.3997 24.5879 18.24 24.9761C18.0803 25.3643 17.9987 25.7799 18 26.1997V60.7397C18 61.783 18.4137 62.7839 19.1505 63.5225C19.8872 64.2611 20.8868 64.6775 21.93 64.6802H60.28C60.4206 64.6802 60.5554 64.6243 60.6548 64.5249C60.7542 64.4255 60.81 64.2905 60.81 64.1499C60.81 64.0093 60.7542 63.8748 60.6548 63.7754C60.5554 63.676 60.4206 63.6201 60.28 63.6201H21.93C21.167 63.6175 20.436 63.313 19.8965 62.7734C19.357 62.2339 19.0527 61.5028 19.0501 60.7397V26.1997C19.0501 25.9187 19.1054 25.6405 19.2129 25.3809C19.3205 25.1212 19.4781 24.8852 19.6768 24.6865C19.8756 24.4878 20.1115 24.3302 20.3711 24.2227C20.6307 24.1151 20.909 24.0601 21.19 24.0601H65.52C65.8011 24.0601 66.0794 24.1151 66.339 24.2227C66.5986 24.3302 66.8345 24.4878 67.0332 24.6865C67.2319 24.8852 67.3896 25.1212 67.4971 25.3809C67.6047 25.6405 67.66 25.9187 67.66 26.1997V58.8501C67.66 58.9907 67.7159 59.1252 67.8153 59.2246C67.9147 59.324 68.0495 59.3799 68.19 59.3799C68.3306 59.3799 68.4654 59.324 68.5648 59.2246C68.6642 59.1252 68.72 58.9907 68.72 58.8501V26.1997C68.72 25.351 68.3829 24.5371 67.7828 23.937C67.1827 23.3369 66.3687 23 65.52 23Z" fill="#333333"/>
<path d="M23.7402 28.9399C23.7402 29.1377 23.7989 29.3312 23.9088 29.4956C24.0187 29.6601 24.1749 29.7881 24.3576 29.8638C24.5403 29.9395 24.7414 29.9595 24.9354 29.9209C25.1293 29.8823 25.3075 29.7868 25.4474 29.647C25.5872 29.5071 25.6825 29.3292 25.7211 29.1353C25.7597 28.9413 25.7398 28.7399 25.6641 28.5571C25.5884 28.3744 25.4603 28.2183 25.2958 28.1084C25.1314 27.9985 24.938 27.9399 24.7402 27.9399C24.475 27.9399 24.2207 28.0454 24.0331 28.2329C23.8456 28.4204 23.7402 28.6747 23.7402 28.9399Z" fill="white"/>
<path d="M30.0703 29.8999C30.6226 29.8999 31.0703 29.4522 31.0703 28.8999C31.0703 28.3476 30.6226 27.8999 30.0703 27.8999C29.518 27.8999 29.0703 28.3476 29.0703 28.8999C29.0703 29.4522 29.518 29.8999 30.0703 29.8999Z" fill="white"/>
<path d="M35.4004 29.8999C35.9527 29.8999 36.4004 29.4522 36.4004 28.8999C36.4004 28.3476 35.9527 27.8999 35.4004 27.8999C34.8481 27.8999 34.4004 28.3476 34.4004 28.8999C34.4004 29.4522 34.8481 29.8999 35.4004 29.8999Z" fill="white"/>
<path d="M43.3694 58.3102C48.6216 58.3102 52.8794 53.9718 52.8794 48.6202C52.8794 43.2685 48.6216 38.9302 43.3694 38.9302C38.1171 38.9302 33.8594 43.2685 33.8594 48.6202C33.8594 53.9718 38.1171 58.3102 43.3694 58.3102Z" fill="#235AB0"/>
<path d="M43.3702 58.8103C41.3472 58.848 39.3587 58.2823 37.6582 57.1858C35.9576 56.0893 34.622 54.5114 33.8215 52.6531C33.021 50.7947 32.792 48.7402 33.1634 46.7512C33.5349 44.7622 34.4901 42.9288 35.9073 41.4846C37.3246 40.0404 39.1397 39.0511 41.1214 38.6423C43.1031 38.2335 45.1616 38.4238 47.0346 39.1892C48.9077 39.9545 50.5105 41.2601 51.6388 42.9397C52.7672 44.6193 53.3699 46.5969 53.3702 48.6203C53.3916 51.2966 52.3509 53.8718 50.4764 55.782C48.6018 57.6921 46.0464 58.7812 43.3702 58.8103ZM43.3702 39.4304C41.545 39.3927 39.7499 39.8994 38.2138 40.886C36.6778 41.8726 35.4703 43.2939 34.7455 44.9695C34.0207 46.645 33.8114 48.4987 34.1443 50.2937C34.4771 52.0887 35.3371 53.7438 36.6144 55.0481C37.8918 56.3524 39.5287 57.2471 41.3163 57.6174C43.104 57.9877 44.9615 57.8168 46.6518 57.1272C48.3422 56.4375 49.7888 55.26 50.8073 53.7449C51.8258 52.2297 52.3698 50.446 52.3702 48.6203C52.3916 46.2093 51.4563 43.8879 49.7693 42.1653C48.0823 40.4426 45.7811 39.4594 43.3702 39.4304Z" fill="#333333"/>
<path d="M47.5202 49.0696L46.8602 52.7698L46.7702 53.0296C46.7238 53.1163 46.6667 53.1972 46.6002 53.2698C46.5179 53.348 46.4186 53.406 46.3102 53.4397C46.1615 53.4872 46.0063 53.5106 45.8502 53.5095C45.6941 53.5113 45.5387 53.4878 45.3902 53.4397C45.2839 53.3968 45.1859 53.3357 45.1002 53.2595C45.0348 53.192 44.9807 53.1144 44.9402 53.0296C44.9025 52.9446 44.8692 52.8581 44.8402 52.7698L44.0702 49.0696H42.7302L41.9802 52.7698C41.9513 52.8581 41.9179 52.9446 41.8802 53.0296C41.8431 53.1164 41.7887 53.1946 41.7202 53.2595C41.6359 53.3375 41.5374 53.3988 41.4302 53.4397C41.2851 53.488 41.1331 53.5115 40.9802 53.5095C40.8208 53.512 40.662 53.4886 40.5102 53.4397C40.4018 53.406 40.3026 53.348 40.2202 53.2698C40.1567 53.1971 40.1028 53.1162 40.0602 53.0296C40.0225 52.9446 39.9892 52.8581 39.9602 52.7698L39.2902 49.0696H38.2102C38.1158 49.0704 38.0239 49.0388 37.9502 48.9798C37.8852 48.9009 37.8496 48.8017 37.8496 48.6995C37.8496 48.5973 37.8852 48.4985 37.9502 48.4197C38.023 48.3578 38.1147 48.3224 38.2102 48.3196H39.1502L38.4402 44.3196C38.3702 44.1096 38.3802 43.9597 38.4402 43.8797C38.5019 43.803 38.5857 43.747 38.6802 43.7195C38.7942 43.6841 38.9162 43.6841 39.0302 43.7195C39.0844 43.7483 39.1319 43.7885 39.1698 43.8367C39.2077 43.8849 39.235 43.9403 39.2502 43.9998L39.9802 48.2698H42.0402L42.9302 43.9998C42.9555 43.899 43.0158 43.8104 43.1002 43.7498C43.1848 43.7104 43.2769 43.6902 43.3702 43.6902C43.4635 43.6902 43.5556 43.7104 43.6402 43.7498C43.7246 43.8104 43.7848 43.899 43.8102 43.9998L44.7102 48.2698H46.7702L47.5202 43.9998C47.5335 43.9396 47.5601 43.8832 47.5982 43.8347C47.6363 43.7863 47.6848 43.7466 47.7402 43.7195C47.842 43.6808 47.9533 43.6746 48.0589 43.7014C48.1645 43.7283 48.2592 43.7873 48.3302 43.8699C48.4102 43.9499 48.4202 44.0998 48.3302 44.3098L47.6102 48.3098H48.6102C48.7061 48.3109 48.7983 48.3465 48.8702 48.4099C48.9412 48.4859 48.9807 48.5857 48.9807 48.6897C48.9807 48.7937 48.9412 48.8936 48.8702 48.9695C48.7973 49.0301 48.705 49.0624 48.6102 49.0598L47.5202 49.0696ZM40.9802 52.7298C41.0254 52.7466 41.075 52.7466 41.1202 52.7298L41.1802 52.6199L41.9002 49.1096H40.1502L40.7602 52.6199C40.7762 52.6517 40.8004 52.6787 40.8303 52.698C40.8601 52.7174 40.8946 52.7282 40.9302 52.7298H40.9802ZM42.8802 48.3196H43.8802L43.3602 45.8299L42.8802 48.3196ZM45.8802 52.7298C45.9276 52.7358 45.9757 52.7239 46.0146 52.6961C46.0535 52.6683 46.0805 52.6267 46.0902 52.5799L46.7002 49.0696H44.9302L45.6702 52.5799C45.6875 52.62 45.7111 52.657 45.7402 52.6897C45.7402 52.6897 45.7302 52.7298 45.8002 52.7298H45.8802Z" fill="white"/>
<path d="M45.801 53.63C45.6276 53.6337 45.4549 53.6065 45.291 53.55C45.1716 53.5061 45.0626 53.4383 44.9709 53.3503C44.887 53.2767 44.8218 53.1841 44.7809 53.0802C44.734 52.9913 44.6972 52.8971 44.671 52.8L43.921 49.1999H42.7809L42.051 52.7902C42.0251 52.8893 41.9916 52.9863 41.9509 53.0802C41.903 53.1801 41.8388 53.2714 41.7609 53.3503C41.665 53.4377 41.5528 53.5054 41.4309 53.55C41.2704 53.6066 41.101 53.6338 40.9309 53.63C40.7581 53.6371 40.5855 53.6136 40.421 53.5602C40.2932 53.5169 40.1769 53.4451 40.0809 53.3503C40.0031 53.2714 39.9389 53.1801 39.8909 53.0802C39.8909 52.9902 39.821 52.9002 39.791 52.8102L39.1409 49.1999H38.1409C38.0149 49.2029 37.8928 49.1563 37.801 49.07C37.7045 48.971 37.6504 48.8381 37.6504 48.6999C37.6504 48.5616 37.7045 48.4292 37.801 48.3302C37.8928 48.2439 38.0149 48.1969 38.1409 48.1999H38.9309L38.2509 44.38C38.2069 44.2923 38.1892 44.1939 38.1999 44.0963C38.2105 43.9988 38.2491 43.9064 38.3109 43.8302C38.3935 43.7428 38.4967 43.6776 38.611 43.6403C38.748 43.5997 38.8939 43.5997 39.0309 43.6403C39.1022 43.6776 39.1654 43.7284 39.2169 43.7902C39.2683 43.852 39.3071 43.9233 39.3309 44.0002L40.051 48.1901H41.9009L42.7609 44.0099C42.8014 43.876 42.886 43.7601 43.0009 43.6803C43.1023 43.6167 43.2219 43.5885 43.3409 43.6003C43.4529 43.597 43.5637 43.6248 43.6609 43.6803C43.7708 43.7544 43.8519 43.8633 43.8909 43.9899L44.7709 48.1901H46.6209L47.351 44.0202C47.3718 43.9395 47.4092 43.8639 47.4609 43.7985C47.5125 43.7331 47.5773 43.6793 47.6509 43.6403C47.7914 43.5995 47.9405 43.5995 48.0809 43.6403C48.1942 43.6797 48.2969 43.7447 48.3809 43.8302C48.5009 43.9502 48.5109 44.1401 48.3809 44.4001L47.6909 48.1999H48.5009C48.6302 48.1953 48.756 48.2424 48.851 48.3302C48.9475 48.4292 49.0015 48.5616 49.0015 48.6999C49.0015 48.8381 48.9475 48.971 48.851 49.07C48.756 49.1578 48.6302 49.2044 48.5009 49.1999H47.5009L46.861 52.7902C46.8351 52.8893 46.8016 52.9863 46.7609 53.0802C46.7163 53.1821 46.6517 53.2739 46.5709 53.3503C46.475 53.4451 46.3587 53.5169 46.231 53.5602C46.0918 53.6042 45.9469 53.6276 45.801 53.63ZM42.5709 48.9499H44.1209L44.921 52.7399C44.9431 52.8213 44.9698 52.9017 45.0009 52.9801C45.0385 53.0497 45.0857 53.1136 45.1409 53.1701C45.212 53.2381 45.2975 53.2892 45.3909 53.32C45.5228 53.3646 45.6618 53.385 45.801 53.38C45.9434 53.3841 46.0854 53.3638 46.2209 53.32C46.3113 53.2938 46.3937 53.2461 46.4609 53.1803C46.5196 53.123 46.5671 53.0549 46.601 52.9801C46.6413 52.9009 46.6715 52.8169 46.6909 52.7301L47.3709 48.9499H48.5709C48.6041 48.9513 48.6373 48.9463 48.6683 48.9342C48.6993 48.9222 48.7274 48.9035 48.7509 48.88C48.7768 48.8584 48.7968 48.8305 48.8091 48.799C48.8213 48.7675 48.8254 48.7333 48.8209 48.6999C48.8226 48.6651 48.8172 48.6305 48.8052 48.5978C48.7932 48.5652 48.7747 48.5353 48.7509 48.5099C48.6997 48.4696 48.6361 48.4483 48.5709 48.4499H47.4609L48.2109 44.3302C48.2109 44.2302 48.2809 44.0699 48.2109 44.0099C48.1631 43.9542 48.1008 43.913 48.0309 43.8903C47.9401 43.8598 47.8418 43.8598 47.7509 43.8903C47.6909 43.8903 47.641 43.98 47.601 44.09L46.8409 48.4499H44.5809L43.6609 44.07C43.638 44.003 43.5964 43.9441 43.541 43.9001C43.4793 43.8795 43.4126 43.8795 43.351 43.9001C43.2823 43.8809 43.2096 43.8809 43.1409 43.9001C43.0807 43.95 43.0357 44.0158 43.0109 44.09L42.111 48.4499H39.851L39.101 44.07C39.0764 43.9927 39.0226 43.9284 38.9509 43.8903C38.8628 43.8645 38.7691 43.8645 38.6809 43.8903C38.6101 43.9162 38.5478 43.9611 38.5009 44.0202C38.4309 44.0802 38.5009 44.2402 38.5009 44.3302L39.2409 48.4601H38.1509C38.0888 48.4583 38.0282 48.4797 37.981 48.5202C37.9549 48.5439 37.935 48.5735 37.9228 48.6066C37.9106 48.6397 37.9065 48.6752 37.9109 48.7101C37.9065 48.7436 37.9106 48.7778 37.9228 48.8092C37.935 48.8407 37.955 48.8686 37.981 48.8903C38.0026 48.9135 38.0289 48.9314 38.0583 48.9435C38.0876 48.9556 38.1192 48.9614 38.1509 48.9601H39.3409L40.0309 52.7599L40.111 52.9899C40.1448 53.0647 40.1922 53.1327 40.2509 53.1901C40.3181 53.2558 40.4006 53.3041 40.4909 53.3302C40.6295 53.3756 40.7752 53.396 40.921 53.3903C41.0601 53.3946 41.1989 53.3743 41.3309 53.3302C41.4203 53.2971 41.502 53.2462 41.5709 53.1803C41.6293 53.1265 41.6769 53.0616 41.7109 52.9899C41.7513 52.9107 41.7816 52.8267 41.801 52.7399L42.5709 48.9499ZM45.801 52.86C45.7568 52.8637 45.7123 52.8575 45.6708 52.842C45.6293 52.8264 45.5918 52.802 45.5609 52.7702C45.5263 52.7248 45.4994 52.6743 45.481 52.6203L44.6909 48.9499H46.7709L46.1309 52.6003C46.1165 52.6761 46.0752 52.7439 46.0146 52.7917C45.9539 52.8394 45.8781 52.8638 45.801 52.86ZM45.801 52.6003C45.871 52.6003 45.8809 52.6002 45.8909 52.5402L46.4709 49.1901H45.0009L45.7209 52.5402C45.7162 52.5565 45.7162 52.5737 45.7209 52.59L45.801 52.6003ZM40.981 52.86C40.9026 52.8642 40.8254 52.8403 40.7631 52.7926C40.7008 52.745 40.6575 52.6769 40.6409 52.6003L40.0009 48.9499H42.0609L41.301 52.6003C41.2836 52.6627 41.2528 52.7207 41.2109 52.7702C41.1765 52.8088 41.1324 52.8374 41.0832 52.8532C41.034 52.869 40.9814 52.8713 40.9309 52.86H40.981ZM40.301 49.1999L40.8809 52.55C40.8809 52.55 40.881 52.61 40.981 52.61H41.0309C41.0344 52.5868 41.0344 52.5634 41.0309 52.5402L41.7209 49.2101L40.301 49.1999ZM44.0709 48.4499H42.731L43.4009 45.2199L44.0709 48.4499ZM43.0709 48.1999H43.801L43.4409 46.4401L43.0709 48.1999Z" fill="white"/>
</g>
<defs>
<clipPath id="clip0_1800_398829">
<rect width="54.79" height="47.86" fill="white" transform="translate(18 23)"/>
</clipPath>
</defs>
</svg>
