<svg width="100" height="100" viewBox="0 0 100 100" fill="none" xmlns="http://www.w3.org/2000/svg">
<circle cx="50" cy="50" r="50" fill="#F2F6FB"/>
<g clip-path="url(#clip0_1928_379610)">
<path d="M43.8203 51.7597V40.4197L50.0303 36.9297L56.0403 40.6097V66.5497L45.7103 72.2597L45.7803 52.8897L43.8203 51.7597Z" fill="#235AB0"/>
<path d="M33.5195 72.3208L33.7195 52.8608L39.5895 49.3008L45.7795 52.8908L45.6495 72.9208L39.5895 75.8608L33.5195 72.3208Z" fill="white"/>
<path d="M54.1201 39.3986V28.1786L60.1801 24.5586L66.3001 28.1286L66.1001 60.7886L56.0701 66.2386L56.0901 40.2986L54.1201 39.3986Z" fill="white"/>
<path d="M43.82 52.2717C43.6795 52.2717 43.5447 52.2161 43.4453 52.1167C43.3459 52.0173 43.29 51.8825 43.29 51.7419V40.4519C43.29 40.3113 43.3459 40.1765 43.4453 40.0771C43.5447 39.9778 43.6795 39.9219 43.82 39.9219C43.9606 39.9219 44.0954 39.9778 44.1948 40.0771C44.2942 40.1765 44.35 40.3113 44.35 40.4519V51.7419C44.35 51.8825 44.2942 52.0173 44.1948 52.1167C44.0954 52.2161 43.9606 52.2717 43.82 52.2717Z" fill="#333333"/>
<path d="M49.9198 70.4303C49.7793 70.4303 49.6445 70.3744 49.5451 70.275C49.4457 70.1757 49.3898 70.0409 49.3898 69.9003V44.2501L43.5998 40.9103C43.4782 40.841 43.3888 40.7264 43.3514 40.5915C43.3139 40.4566 43.3313 40.3124 43.3999 40.1903C43.471 40.068 43.5874 39.9785 43.724 39.9411C43.8605 39.9037 44.0062 39.9214 44.1298 39.9904L50.4498 43.6403V69.9003C50.4512 69.9703 50.4384 70.0397 50.4123 70.1046C50.3861 70.1696 50.3471 70.2285 50.2977 70.278C50.2482 70.3275 50.1892 70.3666 50.1243 70.3927C50.0593 70.4189 49.9898 70.4317 49.9198 70.4303Z" fill="#333333"/>
<path d="M49.9195 70.4297C49.8279 70.4317 49.7374 70.4086 49.6581 70.3628C49.5787 70.3169 49.5135 70.2501 49.4695 70.1697C49.4338 70.1101 49.4104 70.044 49.4007 69.9753C49.3909 69.9066 49.395 69.8366 49.4127 69.7695C49.4304 69.7024 49.4614 69.6396 49.5038 69.5847C49.5462 69.5297 49.5991 69.4838 49.6595 69.4497L55.4595 66.0996V40.7595L49.6595 37.4096C49.5395 37.3387 49.4523 37.2234 49.4168 37.0886C49.3812 36.9538 49.4002 36.8106 49.4695 36.6897C49.5028 36.6284 49.5481 36.5744 49.6027 36.531C49.6573 36.4876 49.72 36.4556 49.7871 36.437C49.8543 36.4183 49.9246 36.4133 49.9937 36.4223C50.0628 36.4314 50.1294 36.4544 50.1895 36.4897L56.5095 40.1396V66.7097L50.1895 70.3596C50.1072 70.4062 50.0141 70.4304 49.9195 70.4297Z" fill="#333333"/>
<path d="M54.1198 39.9182C54.0507 39.9195 53.982 39.9071 53.9178 39.8816C53.8535 39.8561 53.795 39.818 53.7457 39.7695C53.6963 39.7211 53.6571 39.6634 53.6303 39.5996C53.6036 39.5359 53.5898 39.4673 53.5898 39.3982V28.1082C53.5898 28.0386 53.6036 27.9696 53.6302 27.9053C53.6568 27.841 53.6958 27.7826 53.7451 27.7334C53.7943 27.6842 53.8527 27.645 53.917 27.6184C53.9813 27.5918 54.0502 27.5781 54.1198 27.5781C54.1894 27.5781 54.2584 27.5918 54.3227 27.6184C54.387 27.645 54.4454 27.6842 54.4946 27.7334C54.5438 27.7826 54.5829 27.841 54.6095 27.9053C54.6361 27.9696 54.6498 28.0386 54.6498 28.1082V39.3682C54.654 39.4398 54.6433 39.5116 54.6184 39.5789C54.5935 39.6461 54.5549 39.7074 54.5052 39.759C54.4554 39.8107 54.3954 39.8515 54.3291 39.8789C54.2628 39.9063 54.1916 39.9197 54.1198 39.9182Z" fill="#333333"/>
<path d="M60.18 64.5483C60.1108 64.5496 60.0421 64.5372 59.9779 64.5117C59.9136 64.4862 59.8551 64.448 59.8058 64.3996C59.7564 64.3512 59.7172 64.2935 59.6905 64.2297C59.6637 64.166 59.65 64.0974 59.65 64.0283V31.9084L53.8499 28.5583C53.7895 28.5242 53.7366 28.4783 53.6942 28.4233C53.6518 28.3684 53.6209 28.3056 53.6032 28.2385C53.5854 28.1714 53.5813 28.1014 53.5911 28.0327C53.6009 27.964 53.6243 27.8979 53.6599 27.8383C53.7309 27.7184 53.8462 27.6312 53.981 27.5957C54.1157 27.5601 54.2591 27.579 54.3799 27.6484L60.71 31.2983V64.0283C60.71 64.0974 60.6962 64.166 60.6694 64.2297C60.6427 64.2935 60.6035 64.3512 60.5541 64.3996C60.5048 64.448 60.4463 64.4862 60.382 64.5117C60.3178 64.5372 60.2491 64.5496 60.18 64.5483Z" fill="#333333"/>
<path d="M39.5898 76.4216C39.4952 76.4223 39.4021 76.3981 39.3198 76.3516L33.2598 72.8516C33.1807 72.8036 33.1152 72.7361 33.0697 72.6555C33.0242 72.575 33.0001 72.4841 32.9998 72.3916V52.8015C32.9949 52.7684 32.9949 52.7348 32.9998 52.7017C32.9953 52.6752 32.9953 52.6481 32.9998 52.6216C33.0394 52.5061 33.1169 52.4073 33.2198 52.3416L39.2798 48.8516C39.3596 48.803 39.4513 48.7773 39.5448 48.7773C39.6383 48.7773 39.73 48.803 39.8098 48.8516L45.8698 52.3516C45.9514 52.3951 46.0196 52.46 46.0671 52.5393C46.1147 52.6186 46.1398 52.7091 46.1398 52.8015V72.3716C46.1395 72.4653 46.1143 72.5571 46.0669 72.6379C46.0195 72.7187 45.9515 72.7856 45.8698 72.8315L39.8098 76.3315C39.7452 76.3795 39.6695 76.4105 39.5898 76.4216ZM34.0598 72.0916L39.5898 75.2815L45.1198 72.0916V53.0916L39.5898 49.9016L34.5898 52.7915L39.8798 55.9216C39.9575 55.9687 40.0221 56.0346 40.0675 56.1133C40.113 56.1919 40.1378 56.2808 40.1398 56.3716V69.8916C40.1398 70.0322 40.084 70.167 39.9846 70.2664C39.8852 70.3658 39.7504 70.4216 39.6098 70.4216C39.4692 70.4216 39.3344 70.3658 39.2351 70.2664C39.1357 70.167 39.0798 70.0322 39.0798 69.8916V56.6816L34.0798 53.6816L34.0598 72.0916Z" fill="#333333"/>
<path d="M43.8198 40.9798C43.7263 40.9784 43.6348 40.9526 43.5542 40.9053C43.4735 40.858 43.4066 40.7907 43.3598 40.7097C43.2913 40.5876 43.2739 40.4433 43.3113 40.3084C43.3488 40.1735 43.4382 40.059 43.5598 39.9898L49.6198 36.4898C49.7419 36.4212 49.8862 36.4037 50.0211 36.4412C50.156 36.4787 50.2706 36.568 50.3398 36.6897C50.4092 36.8106 50.4281 36.9539 50.3926 37.0886C50.357 37.2234 50.2698 37.3388 50.1498 37.4097L44.0898 40.9097C44.0075 40.9563 43.9144 40.9805 43.8198 40.9798Z" fill="#333333"/>
<path d="M60.18 64.5508C60.0872 64.5515 59.996 64.5278 59.9153 64.4822C59.8345 64.4366 59.7672 64.3706 59.7199 64.2908C59.6843 64.2313 59.6609 64.1654 59.6511 64.0967C59.6413 64.028 59.6454 63.958 59.6632 63.8909C59.6809 63.8238 59.7118 63.7608 59.7542 63.7058C59.7966 63.6509 59.8495 63.605 59.9099 63.5708L65.71 60.2209V28.3708L60.18 25.1809L54.3799 28.5208C54.2591 28.5901 54.1157 28.609 53.981 28.5735C53.8462 28.5379 53.7309 28.4508 53.6599 28.3308C53.6243 28.2713 53.6009 28.2052 53.5911 28.1365C53.5813 28.0678 53.5854 27.998 53.6032 27.9309C53.6209 27.8638 53.6518 27.8008 53.6942 27.7458C53.7366 27.6909 53.7895 27.645 53.8499 27.6108L60.18 23.9609L66.77 27.7607V60.7607L60.4399 64.4109C60.3701 64.4837 60.2792 64.5326 60.18 64.5508Z" fill="#333333"/>
<path d="M45.6502 72.9214C45.5575 72.9221 45.4663 72.8985 45.3855 72.8528C45.3048 72.8072 45.2375 72.7412 45.1902 72.6614C45.1545 72.6019 45.1311 72.5358 45.1214 72.4671C45.1116 72.3984 45.1157 72.3284 45.1334 72.2613C45.1511 72.1942 45.1821 72.1314 45.2245 72.0765C45.2669 72.0215 45.3198 71.9756 45.3802 71.9415L50.4702 68.9415L60.2602 63.3514C60.3197 63.3157 60.3858 63.2923 60.4545 63.2825C60.5232 63.2728 60.5932 63.2768 60.6603 63.2945C60.7274 63.3122 60.7903 63.3432 60.8452 63.3856C60.9002 63.4279 60.9461 63.4809 60.9802 63.5413C61.0157 63.6022 61.0387 63.6697 61.0479 63.7396C61.057 63.8094 61.0522 63.8803 61.0335 63.9483C61.0149 64.0163 60.9829 64.0799 60.9394 64.1353C60.8959 64.1908 60.8418 64.237 60.7802 64.2713L51.0002 69.8514L45.9202 72.8514C45.8379 72.898 45.7448 72.9222 45.6502 72.9214Z" fill="#333333"/>
</g>
<defs>
<clipPath id="clip0_1928_379610">
<rect width="33.77" height="52.42" fill="white" transform="translate(33 24)"/>
</clipPath>
</defs>
</svg>
