<svg width="100" height="100" viewBox="0 0 100 100" fill="none" xmlns="http://www.w3.org/2000/svg">
<circle cx="50" cy="50" r="50" fill="#F2F6FB"/>
<g clip-path="url(#clip0_1787_394035)">
<path d="M30.6138 67.7863H53.9517L57.2724 74.7691L60.6138 67.7863H70.5862C71.0924 67.7877 71.594 67.6891 72.062 67.4964C72.5301 67.3036 72.9556 67.0204 73.314 66.6629C73.6725 66.3054 73.9569 65.8806 74.1509 65.413C74.3449 64.9454 74.4448 64.4443 74.4448 63.9381V35.4484C74.4448 34.9421 74.3449 34.441 74.1509 33.9734C73.9569 33.5058 73.6725 33.081 73.314 32.7235C72.9556 32.366 72.5301 32.0828 72.062 31.89C71.594 31.6973 71.0924 31.5988 70.5862 31.6001H30.4069C29.9006 31.5988 29.3991 31.6973 28.931 31.89C28.463 32.0828 28.0375 32.366 27.679 32.7235C27.3206 33.081 27.0362 33.5058 26.8422 33.9734C26.6482 34.441 26.5483 34.9421 26.5483 35.4484V63.7623C26.5496 64.2938 26.656 64.8199 26.8613 65.3102C27.0666 65.8005 27.3668 66.2453 27.7446 66.6192C28.1224 66.9932 28.5703 67.2888 29.0627 67.489C29.5551 67.6893 30.0822 67.7904 30.6138 67.7863Z" fill="white"/>
<path d="M57.2414 76L53.5793 68.2828H30.6138C29.4002 68.2828 28.2361 67.8014 27.3769 66.9442C26.5178 66.087 26.0338 64.9241 26.031 63.7105V35.3966C26.0338 34.2296 26.4992 33.1113 27.3254 32.287C28.1516 31.4628 29.271 31 30.4379 31H70.5655C71.7307 31.0027 72.8474 31.4669 73.6714 32.2908C74.4953 33.1148 74.9593 34.2314 74.9621 35.3966V63.8862C74.9593 65.0514 74.4953 66.168 73.6714 66.992C72.8474 67.8159 71.7307 68.2801 70.5655 68.2828H60.9448L57.2414 76ZM30.4069 32.0863C29.5298 32.089 28.6893 32.4386 28.0691 33.0589C27.4489 33.6791 27.0992 34.5194 27.0965 35.3966V63.7105C27.0965 64.6351 27.4638 65.5217 28.1176 66.1754C28.7714 66.8292 29.6581 67.1965 30.5827 67.1965H54.2724L57.2414 73.4034L60.2207 67.1965H70.5655C71.4426 67.1938 72.283 66.8442 72.9033 66.2239C73.5235 65.6037 73.8731 64.7634 73.8759 63.8862V35.3966C73.8731 34.5194 73.5235 33.6791 72.9033 33.0589C72.283 32.4386 71.4426 32.089 70.5655 32.0863H30.4069Z" fill="#333333"/>
<path d="M60.2 52.1038V46.9314L61.8655 46.1967L62.9 44.3348L61.2655 41.3864L59.7552 40.8899L57.5207 42.0383L52.9689 39.6589L52.9069 37.321L52.038 35.8622L48.9345 35.7485L47.7552 36.638V39.4624L43.1724 42.0898L41.1035 40.9106H39.9241L37.9793 43.5175V45.4107L40.4 46.9417L39.9448 48.5553L40.4724 52.2071L38.2172 53.4279L37.7414 54.814L39.4173 57.9174L40.3897 58.3417L43.2241 57.0383L47.7965 59.3967L47.6207 61.8899L48.2207 62.9244L50.7759 63.1623L52.5655 62.6762L52.7931 59.5727L57.2724 57.0486L59.2793 58.321L60.5827 58.2485L62.4758 55.8174V53.7484L60.2 52.1038ZM56.1655 52.7864L52.0276 56.0242L48.3862 55.8278L44.7242 53.1693L43.5759 48.9071L45.9552 44.3037L46.8965 44.2105L49.8034 42.8553L54.7379 44.6245L56.8069 47.9244L56.1655 52.7864Z" fill="#235AB0"/>
<path d="M49.5759 63.7C49.0272 63.7 48.5009 63.4819 48.1129 63.0939C47.7249 62.7059 47.5069 62.1798 47.5069 61.6311V59.8621C45.9703 59.4017 44.5564 58.6028 43.369 57.5242L41.8483 58.4137C41.376 58.6893 40.8139 58.7668 40.2847 58.6291C39.7555 58.4915 39.3023 58.15 39.0242 57.6793L37.8138 55.6103C37.5382 55.138 37.4608 54.5759 37.5984 54.0467C37.736 53.5175 38.0775 53.0643 38.5483 52.7862L40.0794 51.8964C39.7278 50.3402 39.7278 48.7253 40.0794 47.169L38.5379 46.2896C38.0647 46.0167 37.7186 45.5676 37.5752 45.0404C37.4318 44.5133 37.5027 43.9509 37.7724 43.4758L38.9621 41.4069C39.2313 40.9316 39.6776 40.5821 40.2035 40.4345C40.4656 40.3624 40.7394 40.3425 41.0092 40.3762C41.279 40.4099 41.5395 40.4965 41.7759 40.631L43.3069 41.5001C44.4974 40.4139 45.9091 39.5986 47.4449 39.1104V37.3518C47.4444 36.8054 47.6601 36.2809 48.0448 35.893C48.4268 35.5032 48.9474 35.2802 49.4931 35.2725H51.6138C51.7592 35.2725 51.8987 35.3303 52.0015 35.4331C52.1043 35.5359 52.1621 35.6754 52.1621 35.8208C52.1621 35.9662 52.1043 36.1056 52.0015 36.2084C51.8987 36.3113 51.7592 36.3688 51.6138 36.3688H49.5448C49.2887 36.3715 49.0441 36.4754 48.8639 36.6575C48.6838 36.8396 48.5828 37.0853 48.5828 37.3414V39.524C48.5808 39.6436 48.5406 39.7594 48.468 39.8544C48.3954 39.9494 48.2942 40.0184 48.1793 40.0516C46.5511 40.5094 45.0665 41.3747 43.8655 42.5656C43.7826 42.6511 43.6735 42.7066 43.5556 42.7235C43.4376 42.7403 43.3174 42.7174 43.2138 42.6586L41.331 41.6241C41.1032 41.5009 40.8374 41.4678 40.5862 41.5311C40.3438 41.6066 40.1376 41.7686 40.0069 41.9862L38.8173 44.0552C38.7517 44.1645 38.7097 44.2862 38.6936 44.4126C38.6776 44.539 38.688 44.6674 38.7242 44.7897C38.7542 44.9145 38.8102 45.0315 38.8887 45.1331C38.9671 45.2348 39.0662 45.3187 39.1794 45.3794L41.0724 46.4139C41.175 46.4747 41.2555 46.5667 41.3021 46.6765C41.3486 46.7863 41.3587 46.908 41.331 47.024C40.8968 48.6613 40.8968 50.3835 41.331 52.0207C41.3623 52.1367 41.3538 52.2599 41.3069 52.3705C41.2601 52.4811 41.1775 52.5729 41.0724 52.6311L39.2 53.7275C38.9874 53.8676 38.834 54.0813 38.7691 54.3276C38.7042 54.5738 38.7324 54.8353 38.8483 55.062L40.0586 57.131C40.1988 57.3435 40.4124 57.4969 40.6587 57.5618C40.9049 57.6267 41.1664 57.5987 41.3931 57.4828L43.2655 56.3862C43.368 56.326 43.4876 56.3015 43.6055 56.3165C43.7234 56.3314 43.833 56.3852 43.9172 56.469C45.1302 57.649 46.6265 58.4968 48.2621 58.931C48.3797 58.9607 48.4842 59.0287 48.559 59.1242C48.6339 59.2196 48.675 59.3372 48.6759 59.4585V61.6311C48.6754 61.7586 48.7009 61.8847 48.7507 62.0021C48.8005 62.1194 48.8735 62.2255 48.9655 62.3137C49.0543 62.4043 49.1607 62.4758 49.2781 62.5239C49.3955 62.5719 49.5215 62.5955 49.6483 62.5931H50.6828C50.8264 62.593 50.9644 62.6493 51.0669 62.7499C51.1694 62.8505 51.2283 62.9874 51.231 63.131C51.2311 63.2774 51.1736 63.418 51.0711 63.5225C50.9686 63.6269 50.8292 63.687 50.6828 63.6897H49.6483L49.5759 63.7Z" fill="#333333"/>
<path d="M50.5483 56.5516C48.6717 56.5516 46.8719 55.8063 45.5449 54.4793C44.2179 53.1523 43.4724 51.3525 43.4724 49.4759C43.4724 47.5992 44.2179 45.7994 45.5449 44.4724C46.8719 43.1454 48.6717 42.3999 50.5483 42.3999C50.6937 42.3999 50.8332 42.4577 50.936 42.5605C51.0388 42.6634 51.0965 42.8028 51.0965 42.9482C51.0965 43.0936 51.0388 43.2331 50.936 43.3359C50.8332 43.4387 50.6937 43.4965 50.5483 43.4965C49.7631 43.5019 48.9866 43.662 48.2632 43.9675C47.5398 44.273 46.8837 44.718 46.3323 45.2771C45.7809 45.8361 45.3451 46.4983 45.0496 47.2258C44.7542 47.9533 44.6049 48.7321 44.6104 49.5173C44.6186 51.095 45.2511 52.6051 46.3696 53.7178C47.4881 54.8305 49.0016 55.4552 50.5793 55.4552C50.7247 55.4552 50.8642 55.513 50.967 55.6158C51.0698 55.7186 51.1276 55.8581 51.1276 56.0035C51.129 56.075 51.1161 56.1459 51.0897 56.2124C51.0632 56.2788 51.0238 56.3394 50.9737 56.3904C50.9236 56.4415 50.8639 56.482 50.798 56.5096C50.732 56.5373 50.6612 56.5516 50.5897 56.5516H50.5483Z" fill="#333333"/>
<path d="M51.4896 63.7H50.4552C50.3088 63.6973 50.1694 63.6373 50.0669 63.5328C49.9643 63.4283 49.9069 63.2877 49.9069 63.1414C49.9096 62.9977 49.9686 62.8608 50.0711 62.7602C50.1736 62.6596 50.3115 62.6034 50.4552 62.6034H51.4896C51.7458 62.6034 51.9916 62.5024 52.1736 62.3223C52.3557 62.1422 52.4593 61.8975 52.4621 61.6414V59.5103C52.4629 59.389 52.5041 59.2714 52.5789 59.1759C52.6538 59.0804 52.7583 59.0125 52.8759 58.9827C54.5115 58.5485 56.0077 57.7007 57.2207 56.5208C57.3049 56.4369 57.4145 56.3832 57.5324 56.3682C57.6503 56.3532 57.7699 56.3778 57.8724 56.4379L59.7448 57.5345C59.9715 57.6504 60.2331 57.6785 60.4793 57.6136C60.7255 57.5487 60.9392 57.3953 61.0793 57.1827L62.2896 55.1138C62.4055 54.887 62.4337 54.6255 62.3688 54.3793C62.3039 54.1331 62.1505 53.9194 61.938 53.7792L60.0655 52.6826C59.9604 52.6244 59.8779 52.5328 59.831 52.4222C59.7842 52.3116 59.7756 52.1884 59.8069 52.0724C60.2411 50.4352 60.2411 48.713 59.8069 47.0758C59.7792 46.9598 59.7894 46.8379 59.8359 46.728C59.8824 46.6182 59.9629 46.5262 60.0655 46.4654L61.9586 45.4309C62.0718 45.3702 62.1709 45.2865 62.2493 45.1849C62.3277 45.0833 62.3838 44.9662 62.4138 44.8414C62.4499 44.7192 62.4604 44.5908 62.4443 44.4643C62.4283 44.3379 62.3862 44.2163 62.3207 44.107L61.131 42.038C61.0031 41.8147 60.792 41.6513 60.5438 41.5834C60.2956 41.5155 60.0306 41.5487 59.8069 41.6758L57.9242 42.7103C57.8206 42.7692 57.7003 42.7918 57.5824 42.775C57.4644 42.7581 57.3554 42.7026 57.2724 42.6171C56.0715 41.4262 54.5868 40.5611 52.9586 40.1034C52.8437 40.0702 52.7426 40.0011 52.67 39.9061C52.5974 39.8112 52.5571 39.6953 52.5552 39.5758V37.3932C52.557 37.2664 52.5332 37.1405 52.4852 37.0232C52.4372 36.9059 52.366 36.7994 52.2759 36.7103C52.1872 36.6187 52.0811 36.5461 51.9638 36.4963C51.8465 36.4466 51.7205 36.4207 51.5931 36.4206H49.5242C49.4522 36.4206 49.3808 36.4065 49.3143 36.3789C49.2478 36.3514 49.1873 36.3109 49.1364 36.26C49.0855 36.209 49.0451 36.1487 49.0176 36.0821C48.99 36.0156 48.9759 35.9443 48.9759 35.8723C48.9759 35.8003 48.99 35.7292 49.0176 35.6626C49.0451 35.5961 49.0855 35.5355 49.1364 35.4846C49.1873 35.4337 49.2478 35.3934 49.3143 35.3659C49.3808 35.3383 49.4522 35.3242 49.5242 35.3242H51.6448C52.1906 35.332 52.7111 35.5549 53.0931 35.9448C53.4778 36.3327 53.6935 36.8569 53.6931 37.4033V39.1621C55.2289 39.6503 56.6406 40.4654 57.831 41.5516L59.362 40.6828C59.8384 40.4139 60.4018 40.3444 60.9291 40.4898C61.4564 40.6352 61.9047 40.9836 62.1759 41.4586L63.3655 43.5276C63.6344 44.0039 63.7037 44.5672 63.5583 45.0945C63.4129 45.6218 63.0646 46.0702 62.5896 46.3414L61.0586 47.2208C61.4 48.7781 61.4 50.3908 61.0586 51.9482L62.5896 52.8379C63.0604 53.1161 63.4019 53.5693 63.5396 54.0985C63.6772 54.6277 63.5997 55.1898 63.3241 55.6621L62.1138 57.731C61.8357 58.2018 61.3825 58.5433 60.8533 58.6809C60.3241 58.8185 59.7619 58.7411 59.2896 58.4655L57.769 57.5757C56.5816 58.6543 55.1677 59.4532 53.631 59.9136V61.6828C53.6285 61.9548 53.5724 62.2236 53.4659 62.4738C53.3594 62.7241 53.2046 62.951 53.0104 63.1414C52.8075 63.332 52.5682 63.4798 52.3069 63.5758C52.0456 63.6717 51.7677 63.714 51.4896 63.7Z" fill="#333333"/>
<path d="M50.5069 56.5516C50.4353 56.5516 50.3646 56.5373 50.2986 56.5096C50.2327 56.482 50.1729 56.4415 50.1228 56.3904C50.0727 56.3394 50.0333 56.2788 50.0069 56.2124C49.9805 56.1459 49.9676 56.075 49.969 56.0035C49.9676 55.932 49.9805 55.8608 50.0069 55.7944C50.0333 55.7279 50.0727 55.6674 50.1228 55.6163C50.1729 55.5653 50.2327 55.5248 50.2986 55.4971C50.3646 55.4694 50.4353 55.4552 50.5069 55.4552C52.0927 55.4552 53.6136 54.825 54.7349 53.7037C55.8562 52.5824 56.4862 51.0617 56.4862 49.4759C56.4862 47.89 55.8562 46.3691 54.7349 45.2478C53.6136 44.1264 52.0927 43.4965 50.5069 43.4965C50.3614 43.4965 50.222 43.4387 50.1192 43.3359C50.0164 43.2331 49.9586 43.0936 49.9586 42.9482C49.9586 42.8028 50.0164 42.6634 50.1192 42.5605C50.222 42.4577 50.3614 42.3999 50.5069 42.3999C52.3835 42.3999 54.1833 43.1454 55.5103 44.4724C56.8372 45.7994 57.5828 47.5992 57.5828 49.4759C57.5828 51.3525 56.8372 53.1523 55.5103 54.4793C54.1833 55.8063 52.3835 56.5516 50.5069 56.5516Z" fill="#333333"/>
</g>
<defs>
<clipPath id="clip0_1787_394035">
<rect width="48.931" height="45" fill="white" transform="translate(26 31)"/>
</clipPath>
</defs>
</svg>
