<svg width="32" height="32" viewBox="0 0 32 32" fill="none" xmlns="http://www.w3.org/2000/svg">
<path d="M20.6495 5H11.3505C7.83849 5 5 7.84536 5 11.3505V20.6495C5 24.1546 7.83849 26.9931 11.3505 26.9931H20.6495C24.1546 26.9931 27 24.1546 27 20.6495V11.3505C26.9931 7.84536 24.1546 5 20.6495 5ZM24.9725 20.8076C24.9725 23.1375 23.0825 25.0206 20.7595 25.0206H11.2406C8.91753 25.0206 7.02749 23.1306 7.02749 20.8076V11.2955C7.02749 8.96564 8.91753 7.08247 11.2406 7.08247H20.7595C23.0893 7.08247 24.9725 8.97251 24.9725 11.2955V20.8076Z" fill="#ECECEC"/>
<path d="M15.9969 10.3478C12.8423 10.3478 10.2925 12.9045 10.2925 16.0522C10.2925 19.2 12.8423 21.7567 15.9969 21.7567C19.1516 21.7567 21.7083 19.2 21.7083 16.0522C21.7083 12.9045 19.1516 10.3478 15.9969 10.3478ZM15.9969 19.7498C13.9557 19.7498 12.2994 18.0935 12.2994 16.0522C12.2994 14.011 13.9557 12.3478 15.9969 12.3478C18.0382 12.3478 19.6945 14.0041 19.6945 16.0522C19.6945 18.0935 18.0382 19.7498 15.9969 19.7498Z" fill="#ECECEC"/>
<path d="M21.8934 8.80176C21.158 8.80176 20.5601 9.3997 20.5601 10.1282C20.5601 10.8636 21.158 11.4547 21.8934 11.4547C22.6288 11.4547 23.2199 10.8636 23.2199 10.1282C23.2267 9.39282 22.6288 8.80176 21.8934 8.80176Z" fill="#ECECEC"/>
</svg>
