<svg width="104" height="100" viewBox="0 0 104 100" fill="none" xmlns="http://www.w3.org/2000/svg">
<ellipse cx="51.625" cy="50" rx="51.625" ry="50" fill="#F2F6FB"/>
<g clip-path="url(#clip0_940_164375)">
<path d="M44.9784 51.0265L42.2368 44.7614V39.5581C42.2368 39.5581 45.2468 31.3914 50.6601 30.7848C50.6601 30.7848 59.9001 29.1047 61.4168 42.6964C61.4168 42.6964 61.8018 48.3782 58.6751 51.0265L68.1134 56.8599L70.4468 59.1932L71.2401 62.0748V69.0164L71.1001 69.7747L69.6768 69.9265H33.0434L32.2734 69.3315V62.0748L33.8134 58.1314L38.8184 54.1648" fill="white"/>
<path d="M55.5483 63.3477H64.1583L65.22 64.036V66.661L63.26 67.3727L54.86 66.8943L54.125 65.9143V64.036L55.5483 63.3477Z" fill="#235AB0"/>
<path d="M45.0703 34.9878L48.0336 37.0761L50.9853 37.3094L52.572 37.0761L54.8936 39.2461L58.487 39.1878L60.727 38.4994L58.2653 33.9961L54.8936 31.5344L51.8253 30.4961L48.3136 31.7328L45.6303 33.7394L45.0703 34.9878Z" fill="#235AB0"/>
<path d="M58.6758 51.0273C61.9373 52.7785 65.0893 54.7265 68.1141 56.8607C68.7416 57.3647 69.2782 57.9724 69.7008 58.6574C70.4863 59.9415 70.8909 61.4222 70.8674 62.9273V69.4838" stroke="#333333" stroke-width="1.06" stroke-miterlimit="10" stroke-linecap="round"/>
<path d="M44.9773 51.0273C41.7158 52.7785 38.5638 54.7265 35.539 56.8607C34.911 57.3676 34.371 57.9747 33.9407 58.6574C33.1604 59.9437 32.7562 61.4229 32.774 62.9273V69.4838" stroke="#333333" stroke-width="1.06" stroke-miterlimit="10" stroke-linecap="round"/>
<path d="M51.8244 54.6085C57.1208 54.6085 61.4144 49.2755 61.4144 42.6968C61.4144 36.1182 57.1208 30.7852 51.8244 30.7852C46.528 30.7852 42.2344 36.1182 42.2344 42.6968C42.2344 49.2755 46.528 54.6085 51.8244 54.6085Z" stroke="#333333" stroke-width="1.06" stroke-miterlimit="10" stroke-linecap="round"/>
<path d="M51.779 58.4231C49.6508 58.4195 47.5559 57.895 45.6773 56.895C45.5202 56.8108 45.4027 56.6678 45.3502 56.4974C45.2978 56.327 45.3147 56.1429 45.3974 55.985C45.4818 55.828 45.6238 55.7098 45.7935 55.6554C45.9632 55.601 46.1474 55.6146 46.3074 55.6933C47.9911 56.593 49.87 57.0656 51.779 57.0699C53.7772 57.0689 55.7416 56.5546 57.484 55.5765C57.6423 55.4924 57.8272 55.4734 57.9993 55.5235C58.1715 55.5737 58.3172 55.6889 58.4057 55.8448C58.4898 56.0032 58.5088 56.188 58.4587 56.3601C58.4086 56.5322 58.2933 56.6781 58.1374 56.7665C56.1927 57.8489 54.0046 58.4189 51.779 58.4231Z" fill="#333333"/>
<path d="M64.1678 63.3477H55.5578C54.9714 63.3477 54.4961 63.823 54.4961 64.4093V66.0893C54.4961 66.6757 54.9714 67.151 55.5578 67.151H64.1678C64.7541 67.151 65.2294 66.6757 65.2294 66.0893V64.4093C65.2294 63.823 64.7541 63.3477 64.1678 63.3477Z" stroke="#333333" stroke-width="1.06" stroke-miterlimit="10" stroke-linecap="round"/>
<path d="M59.8516 63.3497V61.1914" stroke="#333333" stroke-width="1.06" stroke-miterlimit="10" stroke-linecap="round"/>
<path d="M45.0703 34.8711C46.3045 36.2232 48.0055 37.057 49.8303 37.2044C51.6583 37.3372 53.4684 36.7702 54.8937 35.6179" stroke="#333333" stroke-width="1.06" stroke-miterlimit="10" stroke-linecap="round"/>
<path d="M52.5742 36.9453C53.5978 38.0292 54.944 38.7535 56.4125 39.0103C57.883 39.2619 59.3955 39.037 60.7292 38.3686" stroke="#333333" stroke-width="1.06" stroke-miterlimit="10" stroke-linecap="round"/>
<path d="M70.8768 69.4844H32.7852" stroke="#333333" stroke-miterlimit="10"/>
</g>
<defs>
<clipPath id="clip0_940_164375">
<rect width="39.3283" height="39.9117" fill="white" transform="translate(32.168 30.168)"/>
</clipPath>
</defs>
</svg>
