<svg width="100" height="100" viewBox="0 0 100 100" fill="none" xmlns="http://www.w3.org/2000/svg">
<circle cx="50" cy="50" r="50" fill="#F2F6FB"/>
<g clip-path="url(#clip0_1388_246864)">
<path d="M34.35 65.0616V39.9516L50.9 27.6016L67.46 40.2916V48.0116L70.03 49.9416L71.81 54.4816L70.73 59.3016L69.28 61.4216L74.69 66.0116L76.06 70.0816V72.8616H53.86L54.09 68.2916L56.18 65.0616H34.35Z" fill="white"/>
<path d="M75.9 73.3816H53.9C53.8309 73.3816 53.7624 73.3679 53.6986 73.3411C53.6349 73.3144 53.5771 73.2752 53.5287 73.2259C53.4803 73.1765 53.4422 73.118 53.4167 73.0538C53.3911 72.9895 53.3786 72.9207 53.38 72.8516V70.1316C53.3793 69.1538 53.5929 68.1879 54.0058 67.3016C54.4188 66.4152 55.0209 65.6302 55.77 65.0017L60.62 60.9217C60.6723 60.8713 60.7345 60.8322 60.8025 60.8069C60.8706 60.7816 60.9431 60.7706 61.0156 60.7745C61.0881 60.7783 61.159 60.797 61.224 60.8294C61.2889 60.8618 61.3466 60.9073 61.3933 60.9629C61.44 61.0185 61.4747 61.0833 61.4954 61.1529C61.5161 61.2225 61.5222 61.2954 61.5135 61.3675C61.5047 61.4396 61.4813 61.5092 61.4446 61.5718C61.4078 61.6345 61.3586 61.6889 61.3 61.7317L56.45 65.8116C55.8218 66.3423 55.3173 67.004 54.9718 67.7503C54.6264 68.4965 54.4483 69.3093 54.45 70.1316V72.3316H75.45V70.1016C75.4467 69.2844 75.2662 68.4777 74.9209 67.7371C74.5756 66.9965 74.0738 66.3395 73.45 65.8116L68.68 61.7317C68.6208 61.6886 68.5712 61.6336 68.5343 61.5704C68.4974 61.5071 68.474 61.4368 68.4657 61.3641C68.4573 61.2913 68.4641 61.2175 68.4856 61.1475C68.5072 61.0775 68.543 61.0128 68.5909 60.9573C68.6387 60.9018 68.6975 60.8568 68.7636 60.8252C68.8297 60.7936 68.9016 60.7761 68.9748 60.7737C69.048 60.7713 69.1209 60.7841 69.1889 60.8113C69.257 60.8385 69.3186 60.8795 69.37 60.9317L74.14 65.0118C74.8753 65.6402 75.4653 66.4208 75.8694 67.2996C76.2734 68.1784 76.4817 69.1344 76.48 70.1016V72.8516C76.4803 72.9256 76.4652 72.9989 76.4355 73.0667C76.4058 73.1345 76.3622 73.1955 76.3075 73.2454C76.2529 73.2953 76.1884 73.3332 76.1182 73.3567C76.048 73.3802 75.9737 73.3886 75.9 73.3816Z" fill="#333333"/>
<path d="M64.95 63.5193C61.07 63.5193 57.95 59.8093 57.95 55.2393C57.95 50.6693 61.11 46.9492 64.95 46.9492C68.79 46.9492 71.95 50.6693 71.95 55.2393C71.95 59.8093 68.83 63.5193 64.95 63.5193ZM64.95 48.0093C61.65 48.0093 58.95 51.2493 58.95 55.2393C58.95 59.2293 61.63 62.4692 64.95 62.4692C68.27 62.4692 70.95 59.2193 70.95 55.2393C70.95 51.2593 68.25 48.0093 64.95 48.0093Z" fill="#333333"/>
<path d="M30.53 43.3883C30.4091 43.3972 30.2887 43.3651 30.1883 43.2972C30.0878 43.2294 30.0131 43.1297 29.9762 43.0143C29.9392 42.8988 29.9422 42.7743 29.9846 42.6608C30.027 42.5472 30.1064 42.4513 30.21 42.3883L50.59 27.0582C50.7031 26.9846 50.8401 26.9572 50.9729 26.9811C51.1057 27.005 51.2244 27.0787 51.3047 27.1871C51.3851 27.2955 51.4211 27.4305 51.4053 27.5646C51.3896 27.6986 51.3233 27.8215 51.22 27.9083L30.85 43.2784C30.7573 43.3472 30.6455 43.3855 30.53 43.3883Z" fill="#333333"/>
<path d="M34.35 65.5891C34.2095 65.5891 34.0746 65.5335 33.9752 65.4341C33.8758 65.3347 33.82 65.1996 33.82 65.0591V39.9792C33.82 39.9096 33.8337 39.8407 33.8603 39.7764C33.887 39.7121 33.926 39.6537 33.9752 39.6045C34.0244 39.5553 34.0829 39.5161 34.1472 39.4895C34.2115 39.4629 34.2804 39.4492 34.35 39.4492C34.4196 39.4492 34.4885 39.4629 34.5528 39.4895C34.6171 39.5161 34.6756 39.5553 34.7248 39.6045C34.774 39.6537 34.813 39.7121 34.8396 39.7764C34.8663 39.8407 34.88 39.9096 34.88 39.9792V65.0591C34.88 65.1996 34.8242 65.3347 34.7248 65.4341C34.6254 65.5335 34.4906 65.5891 34.35 65.5891Z" fill="#333333"/>
<path d="M57.13 57.2705H44.68V44.8203H57.13V57.2705ZM45.74 56.2104H56.07V45.8804H45.74V56.2104Z" fill="#333333"/>
<path d="M56.45 65.5911H34.35C34.2095 65.5911 34.0746 65.5354 33.9752 65.436C33.8758 65.3366 33.82 65.2016 33.82 65.061C33.82 64.9205 33.8758 64.7857 33.9752 64.6863C34.0746 64.5869 34.2095 64.5313 34.35 64.5312H56.45C56.5906 64.5313 56.7254 64.5869 56.8248 64.6863C56.9241 64.7857 56.98 64.9205 56.98 65.061C56.98 65.2016 56.9241 65.3366 56.8248 65.436C56.7254 65.5354 56.5906 65.5911 56.45 65.5911Z" fill="#333333"/>
<path d="M43.12 39.0587C42.9991 39.0676 42.8787 39.0357 42.7783 38.9679C42.6778 38.9001 42.6031 38.8004 42.5661 38.6849C42.5292 38.5695 42.5322 38.445 42.5746 38.3314C42.617 38.2179 42.6964 38.1217 42.8 38.0587L50.59 32.2089C50.7016 32.1245 50.8419 32.0876 50.9806 32.1063C51.1192 32.1251 51.2448 32.1978 51.33 32.3087C51.4107 32.4224 51.4444 32.5631 51.4239 32.7011C51.4034 32.839 51.3303 32.9637 51.22 33.049L43.44 38.9088C43.3523 38.9921 43.24 39.0446 43.12 39.0587Z" fill="#333333"/>
<path d="M71.2801 43.3897C71.1646 43.3869 71.0528 43.3486 70.96 43.2798L50.59 27.9497C50.4776 27.866 50.4028 27.741 50.3822 27.6023C50.3615 27.4636 50.3968 27.3226 50.4801 27.2097C50.5653 27.0994 50.69 27.0264 50.8279 27.0059C50.9658 26.9854 51.1064 27.0189 51.2201 27.0996L71.6001 42.4297C71.7036 42.4927 71.783 42.5886 71.8254 42.7022C71.8678 42.8157 71.8708 42.9402 71.8339 43.0557C71.7969 43.1711 71.7222 43.2708 71.6217 43.3386C71.5213 43.4065 71.4009 43.4386 71.2801 43.4297V43.3897Z" fill="#333333"/>
<path d="M67.45 48.5093C67.3095 48.5093 67.1747 48.4534 67.0753 48.354C66.9759 48.2546 66.92 48.1198 66.92 47.9792V39.9792C66.8919 39.8993 66.8834 39.8139 66.8951 39.73C66.9069 39.6461 66.9386 39.5662 66.9876 39.4971C67.0365 39.4279 67.1013 39.3714 67.1766 39.3325C67.2518 39.2936 67.3353 39.2734 67.42 39.2734C67.5047 39.2734 67.5882 39.2936 67.6635 39.3325C67.7387 39.3714 67.8035 39.4279 67.8525 39.4971C67.9014 39.5662 67.9331 39.6461 67.9449 39.73C67.9566 39.8139 67.9481 39.8993 67.92 39.9792V47.9792C67.9231 48.1106 67.8764 48.2383 67.7892 48.3367C67.7021 48.435 67.5808 48.4967 67.45 48.5093Z" fill="#333333"/>
<path d="M58.69 39.0612C58.5745 39.0584 58.4628 39.0202 58.37 38.9514L50.59 33.0913C50.5238 33.0545 50.4662 33.0042 50.4211 32.9433C50.376 32.8825 50.3444 32.8125 50.3286 32.7385C50.3128 32.6644 50.313 32.5878 50.3293 32.5139C50.3455 32.4399 50.3775 32.3704 50.4229 32.3098C50.4683 32.2492 50.5262 32.1991 50.5927 32.1628C50.6592 32.1265 50.7326 32.1046 50.8082 32.0991C50.8837 32.0935 50.9595 32.1043 51.0306 32.1306C51.1016 32.1568 51.1662 32.1981 51.22 32.2514L59.01 38.1013C59.1136 38.1642 59.193 38.2602 59.2354 38.3737C59.2778 38.4873 59.2808 38.612 59.2438 38.7275C59.2069 38.8429 59.1322 38.9424 59.0317 39.0102C58.9313 39.078 58.8109 39.1101 58.69 39.1013V39.0612Z" fill="#333333"/>
<path d="M53.56 48.3906H48.24V53.7106H53.56V48.3906Z" fill="#235AB0"/>
</g>
<defs>
<clipPath id="clip0_1388_246864">
<rect width="46.43" height="46.39" fill="white" transform="translate(30 27)"/>
</clipPath>
</defs>
</svg>
