<svg width="100" height="100" viewBox="0 0 100 100" fill="none" xmlns="http://www.w3.org/2000/svg">
<circle cx="50" cy="50" r="50" fill="#F2F6FB"/>
<g clip-path="url(#clip0_1989_378905)">
<path d="M56.1401 38.5586H28.0801V72.1986H56.1401V38.5586Z" fill="white"/>
<path d="M51.3304 28.8594H32.6504V38.2494H51.3304V28.8594Z" fill="white"/>
<path d="M36.9199 52.0312H35.9199V53.5512H36.9199V52.0312Z" fill="#235AB0"/>
<path d="M36.9199 47.2812H35.9199V48.7913H36.9199V47.2812Z" fill="#235AB0"/>
<path d="M36.9199 42.7305H35.9199V44.2505H36.9199V42.7305Z" fill="#235AB0"/>
<path d="M42.5391 52.0312H41.5391V53.5512H42.5391V52.0312Z" fill="#235AB0"/>
<path d="M42.5391 47.2812H41.5391V48.7913H42.5391V47.2812Z" fill="#235AB0"/>
<path d="M42.5391 42.7305H41.5391V44.2505H42.5391V42.7305Z" fill="#235AB0"/>
<path d="M48.0996 52.0312H47.0996V53.5512H48.0996V52.0312Z" fill="#235AB0"/>
<path d="M48.0996 47.2812H47.0996V48.7913H48.0996V47.2812Z" fill="#235AB0"/>
<path d="M48.0996 42.7305H47.0996V44.2505H48.0996V42.7305Z" fill="#235AB0"/>
<path d="M36.9199 66.0703H35.9199V67.5903H36.9199V66.0703Z" fill="#235AB0"/>
<path d="M36.9199 61.3203H35.9199V62.8303H36.9199V61.3203Z" fill="#235AB0"/>
<path d="M36.9199 56.7695H35.9199V58.2895H36.9199V56.7695Z" fill="#235AB0"/>
<path d="M42.5391 66.0703H41.5391V67.5903H42.5391V66.0703Z" fill="#235AB0"/>
<path d="M42.5391 61.3203H41.5391V62.8303H42.5391V61.3203Z" fill="#235AB0"/>
<path d="M42.5391 56.7695H41.5391V58.2895H42.5391V56.7695Z" fill="#235AB0"/>
<path d="M48.1303 66.0703H47.0703V67.5903H48.1303V66.0703Z" fill="#344154"/>
<path d="M48.1303 61.3203H47.0703V62.8303H48.1303V61.3203Z" fill="#344154"/>
<path d="M48.1303 56.7695H47.0703V58.2895H48.1303V56.7695Z" fill="#344154"/>
<path d="M50.9705 73.2795H29.3904C28.7513 73.2795 28.1383 73.0257 27.6863 72.5737C27.2344 72.1218 26.9805 71.5088 26.9805 70.8696V39.6797C26.9805 39.1493 27.1912 38.6405 27.5662 38.2654C27.9413 37.8903 28.45 37.6797 28.9805 37.6797H55.0905C55.6122 37.6927 56.1081 37.909 56.4725 38.2827C56.8368 38.6564 57.0406 39.1578 57.0405 39.6797V56.7695C57.0418 56.8387 57.0293 56.9074 57.0038 56.9717C56.9782 57.0359 56.9401 57.0944 56.8917 57.1438C56.8433 57.1931 56.7856 57.2323 56.7218 57.259C56.6581 57.2858 56.5896 57.2996 56.5204 57.2996C56.4505 57.3009 56.381 57.2881 56.316 57.262C56.2511 57.2358 56.1921 57.1969 56.1426 57.1475C56.0932 57.098 56.0542 57.039 56.028 56.9741C56.0019 56.9092 55.9891 56.8395 55.9905 56.7695V39.6797C55.9879 39.4418 55.8922 39.2144 55.724 39.0461C55.5558 38.8779 55.3283 38.7821 55.0905 38.7795H28.9705C28.7318 38.7795 28.5028 38.8744 28.334 39.0432C28.1653 39.212 28.0704 39.441 28.0704 39.6797V70.8696C28.0691 71.0473 28.1032 71.2233 28.1705 71.3877C28.2379 71.5521 28.3373 71.7015 28.4629 71.8271C28.5885 71.9528 28.7379 72.0523 28.9023 72.1196C29.0667 72.187 29.2428 72.2208 29.4205 72.2195H50.9705C51.111 72.2195 51.2458 72.2754 51.3452 72.3748C51.4446 72.4742 51.5005 72.6089 51.5005 72.7495C51.5005 72.8901 51.4446 73.0249 51.3452 73.1243C51.2458 73.2237 51.111 73.2795 50.9705 73.2795Z" fill="#333333"/>
<path d="M51.6599 38.78C51.5193 38.78 51.3845 38.7241 51.2851 38.6248C51.1857 38.5254 51.1298 38.3906 51.1298 38.25V29.8701C51.1272 29.6544 51.0397 29.4483 50.8862 29.2966C50.7327 29.145 50.5256 29.06 50.3099 29.0601H33.7098C33.495 29.0601 33.289 29.1455 33.1371 29.2974C32.9852 29.4493 32.8998 29.6553 32.8998 29.8701V38.25C32.8998 38.3906 32.844 38.5254 32.7446 38.6248C32.6452 38.7241 32.5104 38.78 32.3699 38.78C32.2293 38.78 32.0945 38.7241 31.9951 38.6248C31.8957 38.5254 31.8398 38.3906 31.8398 38.25V29.8701C31.8398 29.3742 32.0369 28.8985 32.3876 28.5479C32.7383 28.1972 33.2139 28 33.7098 28H50.3099C50.8068 28 51.2834 28.1967 51.6357 28.5471C51.988 28.8975 52.1872 29.3732 52.1898 29.8701V38.25C52.1898 38.3196 52.1761 38.3886 52.1495 38.4529C52.1228 38.5172 52.0838 38.5755 52.0346 38.6248C51.9854 38.674 51.927 38.7131 51.8627 38.7397C51.7984 38.7664 51.7295 38.78 51.6599 38.78Z" fill="#333333"/>
<path d="M48.4993 31.6992H35.5293V35.0692H48.4993V31.6992Z" fill="#235AB0"/>
<path d="M71.6698 57.2617H44.2598V72.6517H71.6698V57.2617Z" fill="white"/>
<path d="M72.1702 73.2595H43.7402V56.5195H72.1702V73.2595ZM44.8002 72.1997H71.1102V57.5796H44.8002V72.1997Z" fill="#333333"/>
<path d="M53.8793 69.5005C53.738 69.5011 53.602 69.4475 53.4993 69.3506C52.3226 68.1665 51.6621 66.5649 51.6621 64.8955C51.6621 63.2261 52.3226 61.6248 53.4993 60.4407C53.5486 60.3914 53.607 60.3521 53.6713 60.3254C53.7357 60.2988 53.8047 60.2852 53.8743 60.2852C53.944 60.2852 54.0129 60.2988 54.0773 60.3254C54.1416 60.3521 54.2001 60.3914 54.2493 60.4407C54.2986 60.4899 54.3377 60.5482 54.3644 60.6125C54.3911 60.6769 54.4048 60.746 54.4048 60.8157C54.4048 60.8853 54.3911 60.9542 54.3644 61.0186C54.3377 61.0829 54.2986 61.1415 54.2493 61.1907C53.2692 62.1746 52.7189 63.5067 52.7189 64.8955C52.7189 66.2843 53.2692 67.6166 54.2493 68.6006C54.2986 68.6498 54.3377 68.7084 54.3644 68.7727C54.3911 68.8371 54.4048 68.9059 54.4048 68.9756C54.4048 69.0452 54.3911 69.1141 54.3644 69.1785C54.3377 69.2428 54.2986 69.3014 54.2493 69.3506C54.1503 69.4469 54.0174 69.5006 53.8793 69.5005Z" fill="#333333"/>
<path d="M62.0392 69.5005C61.898 69.5011 61.762 69.4475 61.6592 69.3506C61.5621 69.2499 61.5078 69.1155 61.5078 68.9756C61.5078 68.8357 61.5621 68.7012 61.6592 68.6006C62.1469 68.1147 62.5339 67.5372 62.7979 66.9014C63.062 66.2656 63.1979 65.5839 63.1979 64.8955C63.1979 64.2071 63.062 63.5254 62.7979 62.8896C62.5339 62.2539 62.1469 61.6766 61.6592 61.1907C61.5621 61.09 61.5078 60.9556 61.5078 60.8157C61.5078 60.6758 61.5621 60.5413 61.6592 60.4407C61.7085 60.3914 61.7669 60.3521 61.8312 60.3254C61.8956 60.2988 61.9646 60.2852 62.0342 60.2852C62.1039 60.2852 62.1729 60.2988 62.2372 60.3254C62.3016 60.3521 62.36 60.3914 62.4092 60.4407C62.9943 61.0257 63.4584 61.7202 63.7751 62.4846C64.0917 63.249 64.2547 64.0681 64.2547 64.8955C64.2547 65.7229 64.0917 66.5422 63.7751 67.3066C63.4584 68.071 62.9943 68.7656 62.4092 69.3506C62.3102 69.4469 62.1774 69.5006 62.0392 69.5005Z" fill="#333333"/>
<path d="M67.2701 66.1396C67.0421 66.1396 66.8233 66.049 66.662 65.8877C66.5008 65.7264 66.4102 65.5076 66.4102 65.2795C66.4128 65.0532 66.5046 64.8371 66.6656 64.678C66.8266 64.5189 67.0438 64.4297 67.2701 64.4297C67.4965 64.4297 67.7138 64.5189 67.8748 64.678C68.0358 64.8371 68.1275 65.0532 68.1302 65.2795C68.1302 65.3925 68.1079 65.5043 68.0647 65.6086C68.0215 65.713 67.9581 65.8078 67.8783 65.8877C67.7984 65.9676 67.7036 66.031 67.5993 66.0742C67.4949 66.1174 67.3831 66.1396 67.2701 66.1396ZM67.2701 65.0796C67.2171 65.0796 67.1662 65.1007 67.1287 65.1382C67.0912 65.1757 67.0702 65.2265 67.0702 65.2795C67.0702 65.4995 67.4702 65.4995 67.4702 65.2795C67.4702 65.2265 67.4491 65.1757 67.4116 65.1382C67.3741 65.1007 67.3232 65.0796 67.2701 65.0796Z" fill="#333333"/>
<path d="M48.6491 66.1397C48.5358 66.141 48.4234 66.1197 48.3184 66.077C48.2135 66.0342 48.1182 65.9708 48.038 65.8907C47.9579 65.8106 47.8946 65.7154 47.8519 65.6104C47.8091 65.5055 47.7878 65.3929 47.7891 65.2796C47.7891 65.1671 47.8114 65.0557 47.8547 64.952C47.8981 64.8482 47.9616 64.7542 48.0416 64.6751C48.1216 64.596 48.2165 64.5336 48.3207 64.4915C48.425 64.4494 48.5366 64.4284 48.6491 64.4297C48.8745 64.4297 49.0908 64.5191 49.2502 64.6785C49.4096 64.8379 49.4991 65.0542 49.4991 65.2796C49.5005 65.3921 49.4794 65.5037 49.4373 65.608C49.3952 65.7123 49.3328 65.8073 49.2537 65.8873C49.1747 65.9673 49.0805 66.0307 48.9767 66.074C48.873 66.1174 48.7616 66.1397 48.6491 66.1397ZM48.6491 65.0796C48.622 65.0783 48.5949 65.0824 48.5695 65.0919C48.5441 65.1013 48.5208 65.1159 48.5012 65.1346C48.4815 65.1533 48.4659 65.1758 48.4553 65.2007C48.4446 65.2257 48.4391 65.2525 48.4391 65.2796C48.4391 65.4996 48.8491 65.4996 48.8491 65.2796C48.8491 65.2266 48.828 65.1757 48.7905 65.1382C48.753 65.1007 48.7022 65.0796 48.6491 65.0796Z" fill="#333333"/>
<path d="M57.9708 68.6018C57.4076 68.6018 56.8673 68.3787 56.4681 67.9814C56.069 67.5842 55.8434 67.0449 55.8408 66.4817C55.8408 66.3411 55.8966 66.2063 55.996 66.1069C56.0954 66.0075 56.2302 65.9519 56.3708 65.9519C56.5114 65.9519 56.6462 66.0075 56.7455 66.1069C56.8449 66.2063 56.9008 66.3411 56.9008 66.4817C56.9008 66.6222 56.9285 66.7615 56.9822 66.8914C57.036 67.0212 57.1148 67.1389 57.2142 67.2383C57.3135 67.3376 57.4315 67.4167 57.5613 67.4705C57.6911 67.5242 57.8302 67.5518 57.9708 67.5518C58.2528 67.5491 58.5224 67.4352 58.7209 67.2349C58.9194 67.0345 59.0308 66.7637 59.0308 66.4817C59.0308 66.0517 58.8308 65.7318 57.8008 65.3918C56.5008 64.9718 55.8008 64.2617 55.8008 63.2917C55.8034 62.7286 56.029 62.1893 56.4282 61.792C56.8273 61.3947 57.3676 61.1719 57.9308 61.1719C58.493 61.1719 59.0322 61.3951 59.4298 61.7927C59.8274 62.1903 60.0508 62.7295 60.0508 63.2917C60.0508 63.4323 59.9949 63.5671 59.8955 63.6665C59.7961 63.7659 59.6613 63.8218 59.5208 63.8218C59.3802 63.8218 59.2454 63.7659 59.146 63.6665C59.0466 63.5671 58.9908 63.4323 58.9908 63.2917C58.9882 63.0114 58.8757 62.7434 58.6774 62.5452C58.4792 62.3469 58.2111 62.2343 57.9308 62.2317C57.6487 62.2317 57.3781 62.3432 57.1777 62.5417C56.9773 62.7403 56.8634 63.0097 56.8608 63.2917C56.8608 63.6217 57.0008 64.0318 58.0908 64.3918C58.6808 64.5818 60.0908 65.0317 60.0908 66.4817C60.0908 67.0439 59.8674 67.5834 59.4698 67.981C59.0723 68.3785 58.533 68.6018 57.9708 68.6018Z" fill="#333333"/>
<path d="M57.9695 62.2412C57.8999 62.2412 57.831 62.2276 57.7667 62.2009C57.7024 62.1743 57.6439 62.1354 57.5947 62.0862C57.5455 62.037 57.5064 61.9784 57.4798 61.9141C57.4532 61.8498 57.4395 61.7808 57.4395 61.7112V60.8113C57.4395 60.7417 57.4532 60.6727 57.4798 60.6084C57.5064 60.5441 57.5455 60.4857 57.5947 60.4365C57.6439 60.3873 57.7024 60.3482 57.7667 60.3215C57.831 60.2949 57.8999 60.2812 57.9695 60.2813C58.0391 60.2812 58.108 60.2949 58.1723 60.3215C58.2366 60.3482 58.295 60.3873 58.3442 60.4365C58.3935 60.4857 58.4325 60.5441 58.4592 60.6084C58.4858 60.6727 58.4995 60.7417 58.4995 60.8113V61.7112C58.4995 61.7808 58.4858 61.8498 58.4592 61.9141C58.4325 61.9784 58.3935 62.037 58.3442 62.0862C58.295 62.1354 58.2366 62.1743 58.1723 62.2009C58.108 62.2276 58.0391 62.2412 57.9695 62.2412Z" fill="#333333"/>
<path d="M57.9695 69.5007C57.8289 69.5007 57.6941 69.4449 57.5947 69.3455C57.4953 69.2461 57.4395 69.1113 57.4395 68.9707V68.0808C57.4395 68.0112 57.4532 67.9422 57.4798 67.8779C57.5064 67.8136 57.5455 67.7553 57.5947 67.7061C57.6439 67.6568 57.7024 67.6177 57.7667 67.5911C57.831 67.5644 57.8999 67.5508 57.9695 67.5508C58.0391 67.5508 58.108 67.5644 58.1723 67.5911C58.2366 67.6177 58.295 67.6568 58.3442 67.7061C58.3935 67.7553 58.4325 67.8136 58.4592 67.8779C58.4858 67.9422 58.4995 68.0112 58.4995 68.0808V68.9707C58.4995 69.1113 58.4436 69.2461 58.3442 69.3455C58.2448 69.4449 58.11 69.5007 57.9695 69.5007Z" fill="#333333"/>
</g>
<defs>
<clipPath id="clip0_1989_378905">
<rect width="45.17" height="45.28" fill="white" transform="translate(27 28)"/>
</clipPath>
</defs>
</svg>
