<svg width="104" height="100" viewBox="0 0 104 100" fill="none" xmlns="http://www.w3.org/2000/svg">
<ellipse cx="51.625" cy="50" rx="51.625" ry="50" fill="#F2F6FB"/>
<g clip-path="url(#clip0_1119_179955)">
<path d="M32.4863 66.2485V54.865L34.4646 52.6906L37.0483 52.5371H68.4872L71.2926 54.1658L71.7701 57.9262L71.3522 66.4958H65.3919L64.7524 62.9571L62.4586 61.2346L58.6982 61.1749H41.6102L39.5978 63.085L38.549 66.4958L32.4863 66.2485Z" fill="#235AB0"/>
<path d="M52.0974 41.7494C54.3484 41.7494 56.1733 39.9246 56.1733 37.6735C56.1733 35.4225 54.3484 33.5977 52.0974 33.5977C49.8463 33.5977 48.0215 35.4225 48.0215 37.6735C48.0215 39.9246 49.8463 41.7494 52.0974 41.7494Z" fill="white"/>
<path d="M62.0665 38.6975C64.3458 38.6975 66.1936 36.8497 66.1936 34.5704C66.1936 32.2911 64.3458 30.4434 62.0665 30.4434C59.7872 30.4434 57.9395 32.2911 57.9395 34.5704C57.9395 36.8497 59.7872 38.6975 62.0665 38.6975Z" fill="white"/>
<path d="M42.1378 38.4846C44.3465 38.4846 46.137 36.6941 46.137 34.4855C46.137 32.2768 44.3465 30.4863 42.1378 30.4863C39.9292 30.4863 38.1387 32.2768 38.1387 34.4855C38.1387 36.6941 39.9292 38.4846 42.1378 38.4846Z" fill="white"/>
<path d="M35.5391 52.9205V41.554L41.218 36.7533L43.3412 36.6169L48.7729 41.7501L52.5759 39.03L55.1937 42.1594L60.9579 36.4805H63.823L64.8207 38.4843L68.1291 41.5284L68.4873 52.5367L35.5391 52.9205Z" fill="white"/>
<path d="M58.4679 53.0476C58.4082 53.0487 58.3489 53.038 58.2936 53.0157C58.2382 52.9934 58.1879 52.9601 58.1457 52.9179C58.1035 52.8757 58.0703 52.8254 58.048 52.7701C58.0257 52.7147 58.0148 52.6555 58.016 52.5958V46.0726C58.0157 45.756 57.9452 45.4435 57.8095 45.1574C57.6739 44.8714 57.4764 44.6189 57.2315 44.4184L53.9912 41.5276C53.9495 41.4864 53.9163 41.4373 53.8937 41.3832C53.871 41.329 53.8594 41.2709 53.8594 41.2122C53.8594 41.1535 53.871 41.0955 53.8937 41.0413C53.9163 40.9872 53.9495 40.9379 53.9912 40.8966C54.0771 40.8138 54.1917 40.7676 54.311 40.7676C54.4303 40.7676 54.5449 40.8138 54.6307 40.8966L57.8539 43.7789C58.1987 44.0627 58.4762 44.4195 58.6664 44.8235C58.8566 45.2275 58.9548 45.6687 58.9539 46.1153V52.6383C58.9431 52.7568 58.886 52.8662 58.795 52.9429C58.704 53.0195 58.5865 53.057 58.4679 53.0476Z" fill="#333333"/>
<path d="M45.532 53.0475C45.4121 53.0475 45.2972 53.0001 45.2124 52.9153C45.1277 52.8306 45.0801 52.7156 45.0801 52.5958V46.0725C45.0796 45.624 45.1787 45.1809 45.3705 44.7754C45.5622 44.3698 45.8416 44.0119 46.1886 43.7276L49.4118 40.8456C49.503 40.7682 49.6208 40.7294 49.7402 40.7373C49.8595 40.7453 49.9711 40.7993 50.0513 40.8881C50.1336 40.9725 50.1797 41.0858 50.1797 41.2037C50.1797 41.3215 50.1336 41.4349 50.0513 41.5193L46.8111 44.4098C46.5625 44.6096 46.3621 44.8629 46.2248 45.1507C46.0875 45.4386 46.0169 45.7536 46.018 46.0725V52.5958C46.0182 52.6581 46.0055 52.7197 45.9807 52.7769C45.9559 52.8341 45.9195 52.8856 45.8739 52.928C45.8282 52.9705 45.7743 53.003 45.7154 53.0236C45.6566 53.0442 45.5942 53.0522 45.532 53.0475Z" fill="#333333"/>
<path d="M56.0458 52.5371C55.9864 52.5371 55.9276 52.5255 55.8728 52.5028C55.818 52.4801 55.7682 52.4467 55.7262 52.4047C55.6842 52.3628 55.6509 52.313 55.6282 52.2582C55.6055 52.2034 55.5938 52.1445 55.5938 52.0852V46.7046C55.5927 46.6453 55.6033 46.5863 55.6249 46.531C55.6466 46.4757 55.679 46.4253 55.7201 46.3826C55.7613 46.3398 55.8105 46.3056 55.8649 46.2818C55.9193 46.2581 55.9779 46.2452 56.0372 46.2441C56.1571 46.2441 56.272 46.2918 56.3568 46.3765C56.4415 46.4613 56.4892 46.5762 56.4892 46.6961V52.0852C56.4892 52.2036 56.4427 52.3173 56.3598 52.4018C56.2769 52.4863 56.1641 52.5349 56.0458 52.5371Z" fill="#333333"/>
<path d="M47.9539 52.5371C47.8945 52.5371 47.8358 52.5255 47.7809 52.5028C47.7261 52.4801 47.6763 52.4467 47.6343 52.4047C47.5924 52.3628 47.5591 52.313 47.5364 52.2582C47.5136 52.2034 47.502 52.1445 47.502 52.0852V46.6961C47.5062 46.5776 47.5552 46.4652 47.639 46.3813C47.7229 46.2975 47.8354 46.2484 47.9539 46.2441C48.0132 46.2452 48.0718 46.2581 48.1262 46.2818C48.1806 46.3056 48.2298 46.3398 48.271 46.3826C48.3122 46.4253 48.3445 46.4757 48.3662 46.531C48.3878 46.5863 48.3984 46.6453 48.3973 46.7046V52.0852C48.3973 52.2036 48.3509 52.3173 48.268 52.4018C48.185 52.4863 48.0723 52.5349 47.9539 52.5371Z" fill="#333333"/>
<path d="M51.9951 42.237C50.7995 42.2347 49.6535 41.7588 48.808 40.9134C47.9626 40.0679 47.4866 38.9218 47.4844 37.7262C47.4844 36.529 47.9593 35.3808 48.805 34.5335C49.6507 33.6863 50.798 33.2093 51.9951 33.207C53.193 33.2093 54.3412 33.6861 55.1883 34.5331C56.0353 35.3802 56.5122 36.5283 56.5144 37.7262C56.5099 38.9226 56.0321 40.0686 55.1853 40.9138C54.3385 41.759 53.1916 42.2347 51.9951 42.237ZM51.9951 34.1107C51.0377 34.113 50.1203 34.4949 49.4442 35.1726C48.768 35.8504 48.3882 36.7688 48.3882 37.7262C48.3905 38.6821 48.7712 39.5983 49.4472 40.2743C50.1231 40.9502 51.0392 41.3308 51.9951 41.333C52.9525 41.333 53.8708 40.9534 54.5486 40.2772C55.2264 39.601 55.6083 38.6836 55.6106 37.7262C55.6106 36.7673 55.2297 35.8478 54.5516 35.1697C53.8736 34.4917 52.954 34.1107 51.9951 34.1107Z" fill="#333333"/>
<path d="M35.5379 52.9196C35.418 52.9196 35.3031 52.8719 35.2183 52.7872C35.1335 52.7024 35.0859 52.5875 35.0859 52.4676V42.9089C35.0865 42.4593 35.1862 42.0154 35.3778 41.6087C35.5693 41.2019 35.8482 40.8423 36.1944 40.5555L39.4176 37.682C39.5035 37.5992 39.6181 37.5527 39.7374 37.5527C39.8567 37.5527 39.9713 37.5992 40.0571 37.682C40.1394 37.7664 40.1855 37.8795 40.1855 37.9974C40.1855 38.1153 40.1394 38.2286 40.0571 38.313L36.8169 41.2035C36.5683 41.4034 36.368 41.6566 36.2307 41.9445C36.0934 42.2323 36.0227 42.5473 36.0239 42.8663V52.4676C36.0241 52.53 36.0114 52.5918 35.9865 52.649C35.9617 52.7061 35.9254 52.7574 35.8797 52.7999C35.8341 52.8423 35.7801 52.8748 35.7213 52.8954C35.6625 52.916 35.6 52.9243 35.5379 52.9196Z" fill="#333333"/>
<path d="M37.9606 52.9208C37.8407 52.9208 37.7257 52.8731 37.641 52.7884C37.5562 52.7036 37.5086 52.5887 37.5086 52.4688V43.4899C37.5049 43.4296 37.514 43.3692 37.5354 43.3127C37.5568 43.2562 37.5899 43.2047 37.6327 43.162C37.6754 43.1193 37.7268 43.0862 37.7833 43.0648C37.8398 43.0434 37.9002 43.0342 37.9606 43.0379C38.0199 43.039 38.0785 43.0519 38.1329 43.0756C38.1873 43.0993 38.2365 43.1336 38.2776 43.1764C38.3188 43.2191 38.3512 43.2695 38.3728 43.3248C38.3945 43.3801 38.4051 43.4391 38.404 43.4984V52.4688C38.404 52.5872 38.3575 52.7009 38.2746 52.7854C38.1917 52.8699 38.0789 52.9185 37.9606 52.9208Z" fill="#333333"/>
<path d="M42.0115 39.0299C40.8136 39.0277 39.6654 38.5509 38.8183 37.7038C37.9713 36.8568 37.4944 35.7085 37.4922 34.5106C37.4944 33.3135 37.9716 32.1662 38.8189 31.3205C39.6662 30.4748 40.8144 30 42.0115 30C43.2071 30.0023 44.3531 30.4782 45.1986 31.3236C46.044 32.169 46.52 33.315 46.5222 34.5106C46.52 35.707 46.0443 36.8539 45.1991 37.7007C44.3539 38.5475 43.2079 39.0254 42.0115 39.0299ZM42.0115 30.9037C41.0541 30.9037 40.1358 31.2836 39.458 31.9598C38.7802 32.636 38.3983 33.5532 38.396 34.5106C38.396 34.9854 38.4896 35.4555 38.6713 35.8941C38.8529 36.3328 39.1193 36.7315 39.455 37.0672C39.7907 37.4029 40.1893 37.6691 40.6279 37.8508C41.0666 38.0325 41.5367 38.126 42.0115 38.126C42.9689 38.1238 43.8863 37.7419 44.5625 37.0641C45.2387 36.3863 45.6184 35.468 45.6184 34.5106C45.6161 33.5547 45.2354 32.6386 44.5595 31.9627C43.8835 31.2868 42.9674 30.906 42.0115 30.9037Z" fill="#333333"/>
<path d="M68.4952 52.92C68.3753 52.92 68.2604 52.8724 68.1756 52.7876C68.0909 52.7029 68.0433 52.5879 68.0433 52.4681V42.9094C68.043 42.5928 67.9725 42.2803 67.8368 41.9942C67.7012 41.7082 67.5037 41.4558 67.2588 41.2552L64.01 38.3559C63.9272 38.2701 63.8809 38.1554 63.8809 38.0361C63.8809 37.9169 63.9272 37.8022 64.01 37.7164C64.052 37.6744 64.1018 37.6411 64.1567 37.6183C64.2115 37.5956 64.2704 37.584 64.3298 37.584C64.3892 37.584 64.448 37.5956 64.5028 37.6183C64.5577 37.6411 64.6075 37.6744 64.6495 37.7164L67.8898 40.6071C68.2334 40.8914 68.5096 41.2483 68.6984 41.6524C68.8871 42.0565 68.9837 42.4976 68.9812 42.9435V52.5449C68.9643 52.6581 68.9042 52.7602 68.8136 52.8301C68.7231 52.9 68.609 52.9323 68.4952 52.92Z" fill="#333333"/>
<path d="M66.0399 52.9199C65.92 52.9199 65.8051 52.8723 65.7203 52.7875C65.6356 52.7028 65.588 52.5878 65.588 52.468V43.4976C65.5868 43.4382 65.5974 43.3792 65.6191 43.324C65.6408 43.2687 65.6731 43.2183 65.7143 43.1755C65.7555 43.1328 65.8047 43.0985 65.8591 43.0748C65.9135 43.051 65.972 43.0382 66.0314 43.0371C66.1512 43.0371 66.2662 43.0848 66.3509 43.1695C66.4357 43.2543 66.4833 43.3692 66.4833 43.4891V52.468C66.4844 52.5269 66.4738 52.5856 66.452 52.6404C66.4303 52.6951 66.3978 52.745 66.3565 52.7871C66.3152 52.8292 66.2659 52.8626 66.2116 52.8854C66.1572 52.9082 66.0989 52.9199 66.0399 52.9199Z" fill="#333333"/>
<path d="M61.9893 39.0299C60.7922 39.0277 59.6449 38.5505 58.7992 37.7032C57.9535 36.8559 57.4785 35.7077 57.4785 34.5106C57.4785 33.9182 57.5952 33.3317 57.8219 32.7844C58.0486 32.2371 58.3808 31.74 58.7997 31.3211C59.2185 30.9022 59.7158 30.57 60.2631 30.3433C60.8104 30.1166 61.3969 30 61.9893 30C63.1864 30 64.3346 30.4748 65.1819 31.3205C66.0292 32.1662 66.5063 33.3135 66.5086 34.5106C66.5063 35.7085 66.0295 36.8568 65.1824 37.7038C64.3354 38.5509 63.1872 39.0277 61.9893 39.0299ZM61.9893 30.9037C61.0334 30.906 60.1172 31.2868 59.4413 31.9627C58.7654 32.6386 58.3846 33.5547 58.3824 34.5106C58.3824 35.468 58.7621 36.3863 59.4383 37.0641C60.1145 37.7419 61.0319 38.1238 61.9893 38.126C62.9482 38.126 63.8678 37.7452 64.5458 37.0672C65.2238 36.3892 65.6047 35.4695 65.6047 34.5106C65.6025 33.5532 65.2205 32.636 64.5428 31.9598C63.865 31.2836 62.9467 30.9037 61.9893 30.9037Z" fill="#333333"/>
<path d="M37.7989 66.9472H32.4695C32.3496 66.9472 32.2347 66.8996 32.1499 66.8148C32.0652 66.7301 32.0176 66.6151 32.0176 66.4953V55.8963C32.0198 54.9019 32.4158 53.9489 33.119 53.2458C33.8221 52.5427 34.7751 52.1468 35.7694 52.1445H59.7387C59.8586 52.1445 59.9736 52.1922 60.0583 52.2769C60.1431 52.3617 60.1907 52.4766 60.1907 52.5965C60.1918 52.6562 60.1809 52.7154 60.1586 52.7707C60.1363 52.8261 60.1031 52.8763 60.0609 52.9185C60.0187 52.9607 59.9684 52.9941 59.913 53.0164C59.8577 53.0387 59.7984 53.0494 59.7387 53.0482H35.7524C34.9971 53.0482 34.2727 53.3483 33.7385 53.8824C33.2044 54.4165 32.9044 55.141 32.9044 55.8963V66.0433H37.7989C38.0575 66.0433 38.3056 65.9412 38.4893 65.7592C38.6729 65.5771 38.7772 65.3299 38.7795 65.0713V64.9606C38.7883 63.8657 39.2266 62.818 40.0001 62.043C40.7735 61.268 41.8202 60.8275 42.915 60.8164H59.969C60.0283 60.8164 60.0871 60.828 60.1419 60.8507C60.1967 60.8735 60.2466 60.9068 60.2885 60.9488C60.3305 60.9908 60.3638 61.0405 60.3865 61.0953C60.4092 61.1502 60.4209 61.209 60.4209 61.2683C60.4209 61.3882 60.3733 61.5031 60.2885 61.5879C60.2038 61.6727 60.0888 61.7203 59.969 61.7203H42.915C42.0473 61.7225 41.2158 62.0683 40.6022 62.6819C39.9886 63.2954 39.6429 64.1268 39.6407 64.9945V65.1055C39.6319 65.5912 39.4351 66.0545 39.0915 66.3981C38.748 66.7416 38.2846 66.9385 37.7989 66.9472Z" fill="#333333"/>
<path d="M71.5484 66.9472H66.2105C65.7136 66.945 65.2378 66.7467 64.8865 66.3953C64.5352 66.044 64.3368 65.5682 64.3346 65.0713V64.9606C64.3346 64.0936 63.9907 63.262 63.3785 62.6481C62.7663 62.0343 61.9357 61.6884 61.0687 61.6862H60.0114C59.8915 61.6862 59.7766 61.6385 59.6918 61.5538C59.6071 61.469 59.5594 61.3541 59.5594 61.2342C59.5594 61.1143 59.6071 60.9994 59.6918 60.9146C59.7766 60.8299 59.8915 60.7822 60.0114 60.7822H61.0687C62.1754 60.7845 63.2359 61.2257 64.0177 62.009C64.7994 62.7924 65.2384 63.8539 65.2384 64.9606V65.0713C65.2384 65.3291 65.3408 65.5764 65.5231 65.7587C65.7054 65.941 65.9527 66.0433 66.2105 66.0433H71.0964V55.8963C71.0942 55.1417 70.7934 54.4185 70.2598 53.8849C69.7262 53.3513 69.0031 53.0505 68.2484 53.0482H59.7215C59.6016 53.0482 59.4867 53.0008 59.4019 52.916C59.3171 52.8313 59.2695 52.7163 59.2695 52.5965C59.2695 52.4766 59.3171 52.3617 59.4019 52.2769C59.4867 52.1922 59.6016 52.1445 59.7215 52.1445H68.2484C69.2428 52.1468 70.1958 52.5427 70.8989 53.2458C71.602 53.9489 71.998 54.9019 72.0003 55.8963V66.4953C72.0003 66.5546 71.9886 66.6134 71.9659 66.6683C71.9432 66.7231 71.9099 66.7729 71.8679 66.8148C71.826 66.8568 71.7761 66.8902 71.7213 66.9129C71.6665 66.9356 71.6077 66.9472 71.5484 66.9472Z" fill="#333333"/>
<path d="M48.7981 42.2353C48.6803 42.2355 48.5671 42.1896 48.4826 42.1075L44.3641 37.9804C44.3213 37.9398 44.2872 37.8908 44.2638 37.8365C44.2405 37.7823 44.2285 37.724 44.2285 37.665C44.2285 37.606 44.2405 37.5475 44.2638 37.4933C44.2872 37.439 44.3213 37.39 44.3641 37.3494C44.4061 37.3074 44.4559 37.2741 44.5108 37.2514C44.5656 37.2286 44.6245 37.2168 44.6839 37.2168C44.7432 37.2168 44.8021 37.2286 44.8569 37.2514C44.9118 37.2741 44.9616 37.3074 45.0036 37.3494L49.1221 41.468C49.205 41.5538 49.2513 41.6685 49.2513 41.7878C49.2513 41.907 49.205 42.0217 49.1221 42.1075C49.0346 42.1902 48.9185 42.2359 48.7981 42.2353Z" fill="#333333"/>
<path d="M55.5086 42.2867C55.3908 42.2868 55.2776 42.241 55.1931 42.1589C55.1511 42.1169 55.1178 42.067 55.095 42.0121C55.0723 41.9573 55.0605 41.8985 55.0605 41.8391C55.0605 41.7797 55.0723 41.7208 55.095 41.6659C55.1178 41.6111 55.1511 41.5613 55.1931 41.5194L59.0558 37.6566C59.1417 37.5738 59.2563 37.5273 59.3756 37.5273C59.4949 37.5273 59.6095 37.5738 59.6954 37.6566C59.7782 37.7425 59.8245 37.8571 59.8245 37.9764C59.8245 38.0957 59.7782 38.2103 59.6954 38.2961L55.8326 42.1589C55.7451 42.2415 55.629 42.2873 55.5086 42.2867Z" fill="#333333"/>
</g>
<defs>
<clipPath id="clip0_1119_179955">
<rect width="40" height="36.9473" fill="white" transform="translate(32 30)"/>
</clipPath>
</defs>
</svg>
