<svg width="56" height="56" viewBox="0 0 56 56" fill="none" xmlns="http://www.w3.org/2000/svg">
<g clip-path="url(#clip0_622_105611)">
<path d="M54.6276 49.0157V39.1631C54.6276 37.4496 53.2198 36.0589 51.4854 36.0589H42.5461C40.9661 36.0589 39.6356 34.9028 39.4337 33.3537C39.2317 31.8045 37.8953 30.6484 36.3212 30.6484H30.4468C28.7124 30.6484 27.3047 32.0392 27.3047 33.7527V49.0216C27.3047 50.7351 28.7124 52.1258 30.4468 52.1258H51.4914C53.2258 52.1258 54.6335 50.7351 54.6335 49.0216L54.6276 49.0157Z" fill="#5A88D1"/>
<path d="M29.2194 21.2501V11.3975C29.2194 9.68399 27.8117 8.29324 26.0773 8.29324H17.138C15.558 8.29324 14.2275 7.13721 14.0255 5.58802C13.8236 4.03884 12.4871 2.88281 10.9131 2.88281H5.03275C3.29835 2.88281 1.89062 4.27356 1.89062 5.98706V21.256C1.89062 22.9695 3.29835 24.3602 5.03275 24.3602H26.0773C27.8117 24.3602 29.2194 22.9695 29.2194 21.256V21.2501Z" fill="#30BFC9"/>
<path d="M9.26833 34.4424H13.0044L7.56956 28.5156L2.14062 34.4424H5.87673V47.4873C5.87673 49.1245 7.21911 50.4507 8.87631 50.4507H21.8428C22.7813 50.4507 23.5356 49.6996 23.5356 48.7783C23.5356 47.8511 22.7753 47.1059 21.8428 47.1059H10.2306C9.70193 47.1059 9.26833 46.6775 9.26833 46.1553V34.4483V34.4424Z" fill="white"/>
<path d="M52.3732 20.7977V7.51219C52.3732 5.89259 51.0427 4.57812 49.4033 4.57812H36.413C35.4746 4.57812 34.7202 5.32925 34.7202 6.25054C34.7202 7.17771 35.4805 7.92296 36.413 7.92296H47.8352C48.4707 7.92296 48.9875 8.43349 48.9875 9.06138V20.7977H45.2514L50.6863 26.7245L56.1212 20.7977H52.385H52.3732Z" fill="white"/>
</g>
<defs>
<clipPath id="clip0_622_105611">
<rect width="56" height="56" fill="white"/>
</clipPath>
</defs>
</svg>
