<svg width="56" height="56" viewBox="0 0 56 56" fill="none" xmlns="http://www.w3.org/2000/svg">
<path d="M26.0585 46.0949V38.4922H52.4286V46.0949C52.4286 49.5839 49.6313 52.4111 46.1792 52.4111H19.8091C23.2612 52.4111 26.0585 49.5839 26.0585 46.0949Z" fill="#5A88D1" stroke="#5A88D1" stroke-width="2" stroke-linecap="round" stroke-linejoin="round"/>
<path d="M46.2891 52.4117H11.2494C7.79731 52.4117 5 49.5845 5 46.0955V4H40.0397V46.0955C40.0397 49.5845 42.837 52.4117 46.2891 52.4117Z" fill="white" stroke="white" stroke-width="2" stroke-linecap="round" stroke-linejoin="round"/>
<path d="M12.2695 15.2422H32.0131" stroke="#003994" stroke-width="2" stroke-linecap="round" stroke-linejoin="round"/>
<path d="M12.2695 23.3672H32.0131" stroke="#003994" stroke-width="2" stroke-linecap="round" stroke-linejoin="round"/>
<path d="M12.2695 31.4922H32.0131" stroke="#003994" stroke-width="2" stroke-linecap="round" stroke-linejoin="round"/>
<path d="M43.2317 24.1758L28.6338 38.9297L32.0453 42.3776L46.6432 27.6238L43.2317 24.1758Z" fill="#31BFC9"/>
<path d="M28.6342 38.9299L26.3154 41.2734L29.7269 44.7214L32.0457 42.3778L28.6342 38.9299Z" fill="#31BFC9"/>
<path d="M46.3719 22.2437L43.8457 24.7969L46.0274 27.0019L48.5536 24.4487L46.3719 22.2437Z" fill="white"/>
<path d="M29.6777 44.741L25.2407 47.2135C24.3188 47.727 23.3078 46.7052 23.8159 45.7734L26.2622 41.2891L29.6724 44.7357L29.6777 44.741Z" fill="#003994"/>
</svg>
