<svg width="100" height="100" viewBox="0 0 100 100" fill="none" xmlns="http://www.w3.org/2000/svg">
<circle cx="50" cy="50" r="50" fill="#F2F6FB"/>
<g clip-path="url(#clip0_1320_213438)">
<path d="M71.4877 68.1816H29.5137V71.4986H71.4877V68.1816Z" fill="white" stroke="#333333" stroke-miterlimit="10"/>
<path d="M69.5591 34.8018H31.4531V68.1816H69.5591V34.8018Z" fill="white" stroke="#333333" stroke-miterlimit="10"/>
<path d="M71.4877 33.6895H29.5137V43.3898H71.4877V33.6895Z" fill="white" stroke="#333333" stroke-miterlimit="10"/>
<path d="M50.5056 53.7822H42.8516V67.992H50.5056V53.7822Z" fill="white" stroke="#333333" stroke-miterlimit="10"/>
<path d="M58.1599 53.7822H50.5059V67.992H58.1599V53.7822Z" fill="white" stroke="#333333" stroke-miterlimit="10"/>
<path d="M61.5969 29.501H39.4043V40.1032H61.5969V29.501Z" fill="white" stroke="#333333" stroke-miterlimit="10"/>
<path d="M55.3785 31.8655C55.2 31.8698 55.0275 31.9297 54.886 32.0361C54.886 31.8048 54.792 31.583 54.6246 31.4195C54.4572 31.256 54.2301 31.1641 53.9934 31.1641C53.7557 31.1641 53.5276 31.2556 53.3585 31.4188C53.1895 31.582 53.0932 31.8039 53.0905 32.0361V33.96H47.9091V32.0361C47.9092 31.9207 47.8857 31.8063 47.8402 31.6999C47.7947 31.5935 47.7281 31.497 47.6441 31.4159C47.5601 31.3348 47.4605 31.2709 47.351 31.2277C47.2415 31.1845 47.1243 31.1628 47.0063 31.1641C46.7695 31.1641 46.5425 31.256 46.3751 31.4195C46.2077 31.583 46.1136 31.8048 46.1136 32.0361C45.9721 31.9297 45.7997 31.8698 45.6212 31.8655C45.3844 31.8655 45.1574 31.9575 44.99 32.121C44.8226 32.2845 44.7285 32.5063 44.7285 32.7375V36.866C44.7285 37.0972 44.8226 37.319 44.99 37.4825C45.1574 37.646 45.3844 37.7379 45.6212 37.7379C45.7997 37.7336 45.9721 37.6741 46.1136 37.5677C46.1136 37.7989 46.2077 38.0204 46.3751 38.1839C46.5425 38.3474 46.7695 38.4394 47.0063 38.4394C47.1243 38.4407 47.2415 38.4192 47.351 38.376C47.4605 38.3328 47.5601 38.2687 47.6441 38.1876C47.7281 38.1065 47.7947 38.01 47.8402 37.9036C47.8857 37.7971 47.9092 37.683 47.9091 37.5677V35.6435H53.0905V37.5677C53.0932 37.7998 53.1895 38.0215 53.3585 38.1847C53.5276 38.3479 53.7557 38.4394 53.9934 38.4394C54.2301 38.4394 54.4572 38.3474 54.6246 38.1839C54.792 38.0204 54.886 37.7989 54.886 37.5677C55.0275 37.6741 55.2 37.7336 55.3785 37.7379C55.6152 37.7379 55.8423 37.646 56.0097 37.4825C56.1771 37.319 56.2711 37.0972 56.2711 36.866V32.7375C56.2711 32.5063 56.1771 32.2845 56.0097 32.121C55.8423 31.9575 55.6152 31.8655 55.3785 31.8655Z" fill="#333333"/>
<path d="M39.5877 45.7646H37.0227C36.3597 45.7646 35.8223 46.2896 35.8223 46.9371V50.224C35.8223 50.8715 36.3597 51.3964 37.0227 51.3964H39.5877C40.2507 51.3964 40.7881 50.8715 40.7881 50.224V46.9371C40.7881 46.2896 40.2507 45.7646 39.5877 45.7646Z" fill="#235AB0"/>
<path d="M52.0858 45.7646H49.5207C48.8578 45.7646 48.3203 46.2896 48.3203 46.9371V50.224C48.3203 50.8715 48.8578 51.3964 49.5207 51.3964H52.0858C52.7487 51.3964 53.2862 50.8715 53.2862 50.224V46.9371C53.2862 46.2896 52.7487 45.7646 52.0858 45.7646Z" fill="#235AB0"/>
<path d="M64.5819 45.7646H62.0168C61.3539 45.7646 60.8164 46.2896 60.8164 46.9371V50.224C60.8164 50.8715 61.3539 51.3964 62.0168 51.3964H64.5819C65.2448 51.3964 65.7823 50.8715 65.7823 50.224V46.9371C65.7823 46.2896 65.2448 45.7646 64.5819 45.7646Z" fill="#235AB0"/>
</g>
<defs>
<clipPath id="clip0_1320_213438">
<rect width="43" height="43" fill="white" transform="translate(29 29)"/>
</clipPath>
</defs>
</svg>
