<svg width="100" height="97" viewBox="0 0 100 97" fill="none" xmlns="http://www.w3.org/2000/svg">
<ellipse cx="50" cy="48.4262" rx="50" ry="48.4262" fill="#F2F6FB"/>
<g clip-path="url(#clip0_1081_174649)">
<path d="M58.5331 29.0781H32.0771V66.9359H58.5331V29.0781Z" fill="white"/>
<path d="M59.0597 67.9999H31.5385C31.3957 67.9999 31.2587 67.9431 31.1577 67.8422C31.0567 67.7412 31 67.6043 31 67.4615V28.5384C31.003 28.3966 31.0607 28.2612 31.161 28.1609C31.2614 28.0606 31.3966 28.003 31.5385 28H59.0597C59.2025 28 59.3395 28.0565 59.4405 28.1575C59.5415 28.2585 59.5982 28.3956 59.5982 28.5384V46.9991C59.5982 47.0693 59.5842 47.1388 59.557 47.2034C59.5298 47.2681 59.49 47.3267 59.4398 47.3758C59.3896 47.4249 59.3302 47.4635 59.2649 47.4892C59.1996 47.515 59.1299 47.5274 59.0597 47.5258C58.9189 47.5259 58.7837 47.4708 58.683 47.3723C58.5824 47.2739 58.5243 47.1399 58.5212 46.9991V29.0769H32.077V66.923H58.5212V58.2837C58.5212 58.213 58.5351 58.143 58.5622 58.0777C58.5893 58.0123 58.6289 57.9531 58.6789 57.903C58.7289 57.853 58.7883 57.8132 58.8536 57.7862C58.919 57.7591 58.989 57.7453 59.0597 57.7453C59.1309 57.7437 59.2016 57.7565 59.2677 57.783C59.3337 57.8095 59.3937 57.849 59.444 57.8993C59.4944 57.9497 59.534 58.0099 59.5605 58.076C59.5869 58.142 59.5998 58.2126 59.5982 58.2837V67.4615C59.5998 67.5326 59.5869 67.6032 59.5605 67.6692C59.534 67.7353 59.4944 67.7955 59.444 67.8459C59.3937 67.8962 59.3337 67.9357 59.2677 67.9622C59.2016 67.9887 59.1309 68.0015 59.0597 67.9999Z" fill="#333333"/>
<path d="M40.4816 35.3856H35.6118C35.5417 35.3872 35.4719 35.3748 35.4067 35.349C35.3414 35.3232 35.2819 35.2846 35.2318 35.2356C35.1816 35.1865 35.1417 35.1279 35.1145 35.0632C35.0873 34.9985 35.0734 34.9291 35.0734 34.8589C35.0718 34.7877 35.0846 34.7172 35.1111 34.6511C35.1376 34.5851 35.1772 34.5248 35.2275 34.4745C35.2779 34.4242 35.3378 34.3847 35.4039 34.3582C35.47 34.3317 35.5407 34.3188 35.6118 34.3204H40.4816C40.5518 34.3204 40.6213 34.3344 40.6859 34.3616C40.7506 34.3888 40.8092 34.4286 40.8583 34.4788C40.9074 34.5289 40.9459 34.5884 40.9717 34.6537C40.9975 34.719 41.01 34.7887 41.0084 34.8589C41.0084 34.9986 40.9529 35.1328 40.8541 35.2316C40.7553 35.3304 40.6213 35.3856 40.4816 35.3856Z" fill="#333333"/>
<path d="M54.7866 45.0575H35.6118C35.5411 45.0575 35.4711 45.0437 35.4058 45.0166C35.3405 44.9895 35.2811 44.95 35.2311 44.9C35.1811 44.85 35.1414 44.7904 35.1144 44.7251C35.0873 44.6598 35.0734 44.5898 35.0734 44.519C35.0718 44.4479 35.0846 44.3773 35.1111 44.3113C35.1376 44.2452 35.1772 44.185 35.2275 44.1346C35.2779 44.0843 35.3378 44.0448 35.4039 44.0183C35.47 43.9918 35.5407 43.979 35.6118 43.9806H54.7866C54.8577 43.979 54.9284 43.9918 54.9945 44.0183C55.0606 44.0448 55.1206 44.0843 55.1709 44.1346C55.2212 44.185 55.2608 44.2452 55.2873 44.3113C55.3138 44.3773 55.3266 44.4479 55.325 44.519C55.325 44.6619 55.2683 44.799 55.1673 44.9C55.0664 45.001 54.9294 45.0575 54.7866 45.0575Z" fill="#333333"/>
<path d="M54.7866 49.8425H35.6118C35.5407 49.8441 35.47 49.8313 35.4039 49.8048C35.3378 49.7783 35.2779 49.7388 35.2275 49.6885C35.1772 49.6381 35.1376 49.5779 35.1111 49.5118C35.0846 49.4458 35.0718 49.3752 35.0734 49.3041C35.0734 49.2333 35.0873 49.1633 35.1144 49.098C35.1414 49.0327 35.1811 48.9734 35.2311 48.9234C35.2811 48.8734 35.3405 48.8336 35.4058 48.8065C35.4711 48.7794 35.5411 48.7656 35.6118 48.7656H54.7866C54.9294 48.7656 55.0664 48.8224 55.1673 48.9234C55.2683 49.0244 55.325 49.1612 55.325 49.3041C55.3266 49.3752 55.3138 49.4458 55.2873 49.5118C55.2608 49.5779 55.2212 49.6381 55.1709 49.6885C55.1206 49.7388 55.0606 49.7783 54.9945 49.8048C54.9284 49.8313 54.8577 49.8441 54.7866 49.8425Z" fill="#333333"/>
<path d="M51.8023 54.7136H35.5776C35.4347 54.7136 35.2978 54.6571 35.1968 54.5561C35.0958 54.4551 35.0391 54.318 35.0391 54.1752C35.0391 54.0323 35.0958 53.8955 35.1968 53.7945C35.2978 53.6935 35.4347 53.6367 35.5776 53.6367H51.8023C51.9431 53.6398 52.0771 53.6978 52.1755 53.7985C52.274 53.8991 52.3291 54.0343 52.3291 54.1752C52.3291 54.316 52.274 54.4512 52.1755 54.5518C52.0771 54.6525 51.9431 54.7105 51.8023 54.7136Z" fill="#333333"/>
<path d="M54.9977 61.6904H50.6313C50.4894 61.6875 50.3541 61.6296 50.2538 61.5293C50.1535 61.4289 50.0958 61.2936 50.0928 61.1517C50.0958 61.0098 50.1535 60.8748 50.2538 60.7745C50.3541 60.6741 50.4894 60.6163 50.6313 60.6133H54.9977C55.1395 60.6163 55.2748 60.6741 55.3751 60.7745C55.4755 60.8748 55.5332 61.0098 55.5362 61.1517C55.5332 61.2936 55.4755 61.4289 55.3751 61.5293C55.2748 61.6296 55.1395 61.6875 54.9977 61.6904Z" fill="#333333"/>
<path d="M59.5982 61.0949C64.3307 61.0949 68.1671 57.2584 68.1671 52.526C68.1671 47.7935 64.3307 43.957 59.5982 43.957C54.8657 43.957 51.0293 47.7935 51.0293 52.526C51.0293 57.2584 54.8657 61.0949 59.5982 61.0949Z" fill="#235AB0"/>
<path d="M59.5986 61.6914C57.1717 61.6883 54.8451 60.7227 53.129 59.0067C51.4129 57.2906 50.4474 54.964 50.4443 52.5371C50.4443 50.1093 51.4088 47.7809 53.1256 46.0641C54.8423 44.3474 57.1707 43.3828 59.5986 43.3828C62.0264 43.3828 64.3548 44.3474 66.0716 46.0641C67.7883 47.7809 68.7528 50.1093 68.7528 52.5371C68.7497 54.964 67.7842 57.2906 66.0682 59.0067C64.3521 60.7227 62.0255 61.6883 59.5986 61.6914ZM59.5986 44.5534C57.4821 44.5565 55.4533 45.3987 53.9567 46.8952C52.4602 48.3918 51.618 50.4207 51.615 52.5371C51.618 54.6536 52.4602 56.6825 53.9567 58.179C55.4533 59.6756 57.4821 60.5177 59.5986 60.5208C61.715 60.5177 63.7439 59.6756 65.2404 58.179C66.737 56.6825 67.5791 54.6536 67.5822 52.5371C67.5791 50.4207 66.737 48.3918 65.2404 46.8952C63.7439 45.3987 61.715 44.5565 59.5986 44.5534Z" fill="#333333"/>
<path d="M56.8593 57.1703L54.9746 51.9376L56.0867 51.5396L57.3276 55.0397L64.0001 48.3906L64.8195 49.2218L56.8593 57.1703Z" fill="white"/>
</g>
<defs>
<clipPath id="clip0_1081_174649">
<rect width="37.7524" height="40" fill="white" transform="translate(31 28)"/>
</clipPath>
</defs>
</svg>
