<svg width="100" height="101" viewBox="0 0 100 101" fill="none" xmlns="http://www.w3.org/2000/svg">
<circle cx="50" cy="50.125" r="50" fill="#F2F6FB"/>
<g clip-path="url(#clip0_1928_379609)">
<path d="M31.5654 28.5664H65.7872V69.6026L63.537 70.3811H60.7216V73.9217L59.2606 75.436H31.5654V28.5664Z" fill="white"/>
<path d="M63.2812 43.2605L69.1679 37.4805H69.6052L72.4845 40.4665L72.3779 40.9997L66.7258 46.8011L63.2812 43.2605Z" fill="#235AB0"/>
<path d="M42.7097 73.2819L33.7197 64.2812V73.2819H42.7097Z" fill="#235AB0"/>
<path d="M55.6883 58.7977C55.541 58.7978 55.3994 58.7403 55.2937 58.6375L51.3373 54.6918C51.2337 54.5844 51.1758 54.4411 51.1758 54.2919C51.1758 54.1427 51.2337 53.9993 51.3373 53.892L68.2295 36.9996C68.5254 36.7046 68.9261 36.5391 69.3439 36.5391C69.7617 36.5391 70.1625 36.7046 70.4583 36.9996L72.9752 39.5165C73.1225 39.6623 73.2395 39.8358 73.3193 40.0271C73.3991 40.2184 73.4402 40.4236 73.4402 40.6309C73.4402 40.8381 73.3991 41.0433 73.3193 41.2346C73.2395 41.4259 73.1225 41.5997 72.9752 41.7455L56.0829 58.6375C56.0313 58.6894 55.9697 58.7303 55.9019 58.7578C55.8341 58.7853 55.7615 58.7989 55.6883 58.7977ZM52.489 54.2867L55.6883 57.486L72.1753 40.9881C72.2176 40.9473 72.2512 40.8987 72.2742 40.8446C72.2971 40.7906 72.3089 40.7323 72.3089 40.6736C72.3089 40.6148 72.2971 40.5568 72.2742 40.5028C72.2512 40.4487 72.2176 40.3998 72.1753 40.359L69.6692 37.8422C69.6275 37.7996 69.5777 37.7658 69.5228 37.7427C69.4679 37.7196 69.4089 37.7078 69.3493 37.7078C69.2897 37.7078 69.2307 37.7196 69.1758 37.7427C69.1208 37.7658 69.0711 37.7996 69.0294 37.8422L52.489 54.2867Z" fill="#333333"/>
<path d="M50.6227 61.7201C50.4706 61.7179 50.3253 61.6566 50.2175 61.5493L48.4259 59.7578C48.3475 59.68 48.2937 59.581 48.2709 59.4729C48.2482 59.3649 48.2576 59.2526 48.2979 59.1498L49.7909 55.5027C49.8209 55.4312 49.8643 55.3661 49.9189 55.3108L51.3372 53.8924C51.3897 53.8399 51.4521 53.7982 51.5207 53.7698C51.5893 53.7413 51.6629 53.7266 51.7371 53.7266C51.8114 53.7266 51.885 53.7413 51.9536 53.7698C52.0222 53.7982 52.0846 53.8399 52.137 53.8924C52.1896 53.9449 52.2313 54.0073 52.2597 54.076C52.2882 54.1446 52.3028 54.218 52.3028 54.2923C52.3028 54.3666 52.2882 54.4401 52.2597 54.5087C52.2313 54.5773 52.1896 54.6397 52.137 54.6922L50.7933 56.0359L49.4923 59.2352L50.7507 60.5042L53.95 59.1925L55.2937 57.8488C55.3445 57.7953 55.4057 57.7527 55.4735 57.7236C55.5414 57.6944 55.6144 57.6793 55.6883 57.6793C55.7621 57.6793 55.8352 57.6944 55.903 57.7236C55.9708 57.7527 56.032 57.7953 56.0828 57.8488C56.1354 57.9013 56.1771 57.9638 56.2055 58.0324C56.234 58.101 56.2486 58.1745 56.2486 58.2487C56.2486 58.323 56.234 58.3967 56.2055 58.4654C56.1771 58.534 56.1354 58.5962 56.0828 58.6486L54.6645 60.0671C54.6092 60.1216 54.5441 60.1649 54.4725 60.1949L50.836 61.6881C50.7666 61.7078 50.6949 61.7186 50.6227 61.7201Z" fill="#333333"/>
<path d="M47.8393 62.7004C47.6887 62.7011 47.5435 62.6439 47.434 62.5405C47.3304 62.4332 47.2725 62.2898 47.2725 62.1406C47.2725 61.9914 47.3304 61.848 47.434 61.7407L49.3215 59.8531C49.4289 59.7495 49.5723 59.6914 49.7215 59.6914C49.8707 59.6914 50.014 59.7495 50.1214 59.8531C50.1739 59.9056 50.2157 59.9678 50.2441 60.0364C50.2726 60.105 50.2872 60.1787 50.2872 60.253C50.2872 60.3273 50.2726 60.4007 50.2441 60.4694C50.2157 60.538 50.1739 60.6004 50.1214 60.6529L48.2338 62.5405C48.1282 62.6432 47.9866 62.7005 47.8393 62.7004Z" fill="#333333"/>
<path d="M64.0163 55.6095C63.9423 55.61 63.869 55.5949 63.801 55.5655C63.7331 55.5361 63.672 55.493 63.6217 55.4387C63.5681 55.3879 63.5255 55.3269 63.4963 55.2591C63.4672 55.1912 63.4521 55.1181 63.4521 55.0443C63.4521 54.9704 63.4672 54.8973 63.4963 54.8295C63.5255 54.7616 63.5681 54.7004 63.6217 54.6496L70.5961 47.6644C70.759 47.5023 70.8881 47.3097 70.9759 47.0973C71.0638 46.885 71.1087 46.6572 71.1081 46.4274C71.1087 46.1976 71.0638 45.9701 70.9759 45.7578C70.8881 45.5454 70.759 45.3526 70.5961 45.1905L69.6683 44.2625C69.6158 44.2101 69.5741 44.1479 69.5457 44.0793C69.5172 44.0106 69.5026 43.9369 69.5026 43.8626C69.5026 43.7884 69.5172 43.7149 69.5457 43.6463C69.5741 43.5777 69.6158 43.5152 69.6683 43.4627C69.7208 43.4102 69.7832 43.3685 69.8518 43.3401C69.9205 43.3116 69.994 43.2969 70.0683 43.2969C70.1425 43.2969 70.2161 43.3116 70.2847 43.3401C70.3534 43.3685 70.4157 43.4102 70.4682 43.4627L71.396 44.3906C71.6637 44.6578 71.876 44.9752 72.0206 45.3248C72.1652 45.6744 72.2393 46.0491 72.2385 46.4274C72.2393 46.8057 72.1652 47.1805 72.0206 47.53C71.876 47.8796 71.6637 48.197 71.396 48.4642L64.4215 55.4387C64.3692 55.4933 64.3062 55.5367 64.2365 55.566C64.1669 55.5954 64.0919 55.6102 64.0163 55.6095Z" fill="#333333"/>
<path d="M66.6183 47.8681C66.471 47.8683 66.3294 47.8107 66.2238 47.708L62.278 43.7516C62.2244 43.7008 62.1817 43.6395 62.1526 43.5717C62.1234 43.5039 62.1084 43.431 62.1084 43.3572C62.1084 43.2833 62.1234 43.2102 62.1526 43.1424C62.1817 43.0745 62.2244 43.0133 62.278 42.9625C62.3288 42.9089 62.39 42.8664 62.4578 42.8372C62.5256 42.8081 62.5987 42.793 62.6725 42.793C62.7464 42.793 62.8194 42.8081 62.8873 42.8372C62.9551 42.8664 63.0163 42.9089 63.0671 42.9625L67.0236 46.9082C67.1272 47.0156 67.1851 47.1589 67.1851 47.3081C67.1851 47.4573 67.1272 47.6007 67.0236 47.708C66.914 47.8114 66.7689 47.8688 66.6183 47.8681Z" fill="#333333"/>
<path d="M52.7016 35.7227C52.2582 35.7222 51.825 35.589 51.4582 35.3399C51.0913 35.0909 50.8075 34.7375 50.6434 34.3256C50.4794 33.9384 50.2046 33.6083 49.8536 33.3768C49.5025 33.1453 49.0909 33.0228 48.6704 33.0246C48.2518 33.0249 47.8425 33.1486 47.4935 33.38C47.1446 33.6113 46.8715 33.9401 46.7082 34.3256C46.5424 34.7342 46.2596 35.0849 45.8953 35.3334C45.5311 35.582 45.1016 35.7172 44.6606 35.7227C44.3721 35.7241 44.0862 35.6688 43.8192 35.5597C43.5521 35.4506 43.3091 35.2899 43.1042 35.0869C42.8992 34.8839 42.7361 34.6423 42.6244 34.3763C42.5127 34.1104 42.4545 33.8249 42.4531 33.5364V29.3348C42.467 28.9849 42.618 28.6546 42.8734 28.4152C43.1288 28.1757 43.4682 28.0464 43.8182 28.0551H53.5867C53.9402 28.0551 54.2793 28.1956 54.5293 28.4456C54.7793 28.6956 54.9197 29.0346 54.9197 29.3881V33.5898C54.9057 34.1659 54.6649 34.7132 54.2495 35.1126C53.8341 35.5121 53.2778 35.7313 52.7016 35.7227ZM48.6704 31.8943C49.3126 31.8928 49.9408 32.0813 50.476 32.4362C51.0112 32.791 51.4293 33.2963 51.6778 33.8884C51.7523 34.0945 51.8885 34.2728 52.0679 34.3987C52.2472 34.5247 52.461 34.5921 52.6802 34.5922C52.963 34.5922 53.2343 34.48 53.4343 34.28C53.6343 34.08 53.7466 33.8086 53.7466 33.5258V29.3241C53.7466 29.2703 53.7253 29.2189 53.6873 29.1809C53.6493 29.1429 53.5978 29.1215 53.544 29.1215H43.8182C43.7644 29.1215 43.7129 29.1429 43.6749 29.1809C43.6369 29.2189 43.6156 29.2703 43.6156 29.3241V33.5258C43.6156 33.8086 43.7279 34.08 43.9279 34.28C44.1279 34.48 44.3992 34.5922 44.682 34.5922C44.9119 34.6058 45.1401 34.5446 45.3323 34.4177C45.5245 34.2909 45.6705 34.1052 45.7484 33.8884C45.9911 33.3095 46.3961 32.8132 46.9146 32.4593C47.4331 32.1055 48.0429 31.9093 48.6704 31.8943Z" fill="#333333"/>
<path d="M65.7768 37.5861C65.7031 37.5862 65.63 37.5715 65.562 37.5429C65.4941 37.5144 65.4325 37.4727 65.3808 37.42C65.3292 37.3674 65.2886 37.305 65.2613 37.2365C65.2341 37.168 65.2208 37.0946 65.2222 37.0209V29.1188H53.5555C53.4056 29.1188 53.2618 29.0592 53.1558 28.9532C53.0498 28.8472 52.9902 28.7034 52.9902 28.5535C52.9902 28.4036 53.0498 28.2599 53.1558 28.1539C53.2618 28.0479 53.4056 27.9883 53.5555 27.9883H65.7768C65.9267 27.9883 66.0704 28.0479 66.1764 28.1539C66.2824 28.2599 66.342 28.4036 66.342 28.5535V37.0102C66.3434 37.0854 66.3298 37.1602 66.3021 37.23C66.2743 37.2998 66.2328 37.3633 66.1802 37.4169C66.1276 37.4705 66.0648 37.5131 65.9955 37.5421C65.9263 37.5712 65.8519 37.5862 65.7768 37.5861Z" fill="#333333"/>
<path d="M58.4819 76.043H31.5652C31.491 76.043 31.4175 76.0284 31.3489 76C31.2804 75.9716 31.2181 75.9299 31.1656 75.8774C31.1131 75.8249 31.0714 75.7627 31.043 75.6941C31.0146 75.6255 31 75.552 31 75.4777V28.6082C31 28.4583 31.0596 28.3146 31.1656 28.2086C31.2716 28.1026 31.4153 28.043 31.5652 28.043H43.8185C43.9684 28.043 44.1122 28.1026 44.2182 28.2086C44.3242 28.3146 44.3837 28.4583 44.3837 28.6082C44.3837 28.6824 44.3691 28.756 44.3407 28.8246C44.3123 28.8931 44.2706 28.9554 44.2182 29.0079C44.1657 29.0603 44.1034 29.1021 44.0348 29.1305C43.9662 29.1589 43.8927 29.1734 43.8185 29.1734H32.0878V74.9125H58.4393C58.8833 74.9125 59.3091 74.7362 59.6231 74.4222C59.9371 74.1083 60.1136 73.6824 60.1136 73.2384V70.4229C60.1136 70.273 60.1731 70.1292 60.2791 70.0232C60.3851 69.9172 60.5289 69.8576 60.6788 69.8576H63.4941C63.7149 69.859 63.9338 69.8167 64.1381 69.7332C64.3425 69.6497 64.5284 69.5266 64.685 69.371C64.8416 69.2154 64.9658 69.0304 65.0506 68.8266C65.1354 68.6228 65.1791 68.404 65.1791 68.1833V56.314C65.1777 56.2403 65.1909 56.167 65.2182 56.0985C65.2454 56.0299 65.286 55.9675 65.3377 55.9149C65.3893 55.8623 65.451 55.8205 65.519 55.792C65.5869 55.7635 65.6599 55.7488 65.7336 55.7488C65.8835 55.7488 66.0273 55.8084 66.1333 55.9144C66.2393 56.0204 66.2989 56.1641 66.2989 56.314V68.1408C66.2989 68.8847 66.0034 69.598 65.4774 70.124C64.9514 70.65 64.238 70.9454 63.4941 70.9454H61.244V73.1957C61.2496 73.564 61.1827 73.9298 61.0469 74.2723C60.9111 74.6147 60.7093 74.9269 60.4528 75.1913C60.1963 75.4558 59.8902 75.6672 59.5521 75.8133C59.2139 75.9595 58.8502 76.0374 58.4819 76.043Z" fill="#333333"/>
<path d="M42.2938 62.8814H37.0897C36.9398 62.8814 36.796 62.8221 36.69 62.7161C36.584 62.6101 36.5244 62.4661 36.5244 62.3162V57.1121C36.5244 56.9622 36.584 56.8185 36.69 56.7125C36.796 56.6065 36.9398 56.5469 37.0897 56.5469H42.2938C42.4437 56.5469 42.5875 56.6065 42.6935 56.7125C42.7995 56.8185 42.859 56.9622 42.859 57.1121V62.3162C42.859 62.4661 42.7995 62.6101 42.6935 62.7161C42.5875 62.8221 42.4437 62.8814 42.2938 62.8814ZM37.6548 61.7512H41.686V57.6774H37.6122L37.6548 61.7512Z" fill="#333333"/>
<path d="M42.2938 53.7422H37.0897C36.9398 53.7422 36.796 53.6826 36.69 53.5766C36.584 53.4706 36.5244 53.3268 36.5244 53.1769V47.9726C36.5244 47.8989 36.5391 47.8261 36.5676 47.7581C36.5962 47.6901 36.638 47.6285 36.6906 47.5769C36.7432 47.5253 36.8056 47.4846 36.8741 47.4574C36.9427 47.4302 37.0159 47.4167 37.0897 47.4181H42.2938C42.3676 47.4167 42.4408 47.4302 42.5093 47.4574C42.5779 47.4846 42.6402 47.5253 42.6928 47.5769C42.7455 47.6285 42.7873 47.6901 42.8159 47.7581C42.8444 47.8261 42.859 47.8989 42.859 47.9726V53.1769C42.859 53.3268 42.7995 53.4706 42.6935 53.5766C42.5875 53.6826 42.4437 53.7422 42.2938 53.7422ZM37.6548 52.6117H41.686V48.5379H37.6122L37.6548 52.6117Z" fill="#333333"/>
<path d="M42.2938 44.6158H37.0897C36.9398 44.6158 36.796 44.5562 36.69 44.4502C36.584 44.3442 36.5244 44.2004 36.5244 44.0505V38.8465C36.5244 38.6966 36.584 38.5526 36.69 38.4466C36.796 38.3406 36.9398 38.2813 37.0897 38.2812H42.2938C42.4437 38.2813 42.5875 38.3406 42.6935 38.4466C42.7995 38.5526 42.859 38.6966 42.859 38.8465V44.0505C42.859 44.2004 42.7995 44.3442 42.6935 44.4502C42.5875 44.5562 42.4437 44.6158 42.2938 44.6158ZM37.6548 43.4853H41.686V39.4115H37.6122L37.6548 43.4853Z" fill="#333333"/>
</g>
<defs>
<clipPath id="clip0_1928_379609">
<rect width="42.4439" height="48" fill="white" transform="translate(31 28)"/>
</clipPath>
</defs>
</svg>
