<svg width="100" height="100" viewBox="0 0 100 100" fill="none" xmlns="http://www.w3.org/2000/svg">
<circle cx="50" cy="50" r="50" fill="#F2F6FB"/>
<g clip-path="url(#clip0_1856_378782)">
<path d="M60.9077 30.1309H33.1289V69.8815H60.9077V30.1309Z" fill="white"/>
<path d="M58.1304 60.6384L55.918 57.6392L66.9434 46.8965L69.414 49.2073L58.1304 60.6384Z" fill="#235AB0"/>
<path d="M69.6875 43.9707L68.2617 45.3596L70.6463 47.8671L72.2933 46.343L69.6875 43.9707Z" fill="#235AB0"/>
<path d="M54.8991 61.7693C54.7527 61.7667 54.6125 61.7099 54.5058 61.6096C54.4392 61.5457 54.3897 61.466 54.3618 61.378C54.3339 61.29 54.3285 61.1962 54.346 61.1055L54.9729 57.873C54.9958 57.761 55.0514 57.6584 55.1327 57.578L66.5146 46.1961C66.62 46.0937 66.761 46.0363 66.9079 46.0361C67.0548 46.0363 67.1959 46.0937 67.3012 46.1961L69.907 48.8017C70.0129 48.9077 70.0723 49.0513 70.0723 49.2011C70.0723 49.3509 70.0129 49.4948 69.907 49.6008L58.5374 60.9828C58.4559 61.0602 58.3532 61.1114 58.2424 61.1301L55.0098 61.757L54.8991 61.7693ZM56.0545 58.2172L55.612 60.454L57.8614 60.024L68.7148 49.1705L66.9079 47.3637L56.0545 58.2172Z" fill="#333333"/>
<path d="M70.8167 48.5189C70.6641 48.5174 70.5183 48.4556 70.4111 48.3469L67.8176 45.741C67.7118 45.635 67.6523 45.4914 67.6523 45.3416C67.6523 45.1918 67.7118 45.0482 67.8176 44.9422L69.3541 43.4057C69.463 43.3055 69.6055 43.25 69.7535 43.25C69.9015 43.25 70.0441 43.3055 70.153 43.4057L72.7588 46.0114C72.8646 46.1174 72.9241 46.261 72.9241 46.4108C72.9241 46.5606 72.8646 46.7045 72.7588 46.8105L71.2101 48.3469C71.1602 48.4015 71.0994 48.4448 71.0317 48.4745C70.9639 48.5041 70.8907 48.5193 70.8167 48.5189ZM69.0099 45.3476L70.8167 47.1547L71.5542 46.4048L69.7474 44.598L69.0099 45.3476Z" fill="#333333"/>
<path d="M63.5152 53.1646C63.3625 53.1631 63.2167 53.1014 63.1095 52.9927C63.0575 52.9412 63.0162 52.8799 62.988 52.8123C62.9598 52.7448 62.9453 52.6724 62.9453 52.5993C62.9453 52.5261 62.9598 52.4537 62.988 52.3862C63.0162 52.3187 63.0575 52.2573 63.1095 52.2059L67.8172 47.4981C67.8686 47.4461 67.9299 47.4048 67.9974 47.3766C68.0649 47.3484 68.1373 47.334 68.2105 47.334C68.2837 47.334 68.3561 47.3484 68.4236 47.3766C68.4911 47.4048 68.5524 47.4461 68.6038 47.4981C68.7097 47.6041 68.7691 47.7481 68.7691 47.8978C68.7691 48.0476 68.7097 48.1912 68.6038 48.2973L63.9085 52.9927C63.8044 53.0984 63.6635 53.1599 63.5152 53.1646Z" fill="#333333"/>
<path d="M58.1331 61.1917C58.0602 61.1929 57.9877 61.1795 57.9201 61.1521C57.8525 61.1246 57.7912 61.0835 57.7398 61.0317L55.134 58.4261C55.0282 58.3201 54.9688 58.1765 54.9688 58.0267C54.9687 57.8769 55.0282 57.733 55.134 57.627C55.24 57.5211 55.3837 57.4619 55.5335 57.4619C55.6833 57.4619 55.827 57.5211 55.933 57.627L58.5387 60.2329C58.6389 60.3418 58.6946 60.4843 58.6946 60.6323C58.6946 60.7803 58.6389 60.9228 58.5387 61.0317C58.4851 61.0839 58.4216 61.1249 58.352 61.1524C58.2823 61.1798 58.208 61.1932 58.1331 61.1917Z" fill="#333333"/>
<path d="M61.4627 70.9876H32.5654C32.4176 70.9876 32.2756 70.9298 32.1699 70.8265C32.0642 70.7231 32.0032 70.5824 32 70.4345V29.5531C32.0032 29.4052 32.0642 29.2645 32.1699 29.1611C32.2756 29.0578 32.4176 29 32.5654 29H61.4627C61.6105 29 61.7525 29.0578 61.8582 29.1611C61.9639 29.2645 62.0249 29.4052 62.0281 29.5531V48.9368C62.025 49.0857 61.9644 49.2275 61.859 49.3329C61.7537 49.4382 61.6117 49.499 61.4627 49.5021C61.3137 49.499 61.1717 49.4382 61.0664 49.3329C60.961 49.2275 60.9004 49.0857 60.8973 48.9368V30.1184H33.1308V69.8692H60.8973V60.7856C60.9004 60.6366 60.961 60.4946 61.0664 60.3892C61.1717 60.2838 61.3137 60.2234 61.4627 60.2202C61.6117 60.2234 61.7537 60.2838 61.859 60.3892C61.9644 60.4946 62.025 60.6366 62.0281 60.7856V70.4345C62.0249 70.5824 61.9639 70.7231 61.8582 70.8265C61.7525 70.9298 61.6105 70.9876 61.4627 70.9876Z" fill="#333333"/>
<path d="M41.8929 36.7557H36.7797C36.6319 36.7525 36.4912 36.6916 36.3878 36.5859C36.2844 36.4802 36.2265 36.3382 36.2266 36.1904C36.2265 36.0425 36.2844 35.9005 36.3878 35.7948C36.4912 35.6892 36.6319 35.6282 36.7797 35.625H41.8929C42.0429 35.625 42.1867 35.6846 42.2927 35.7906C42.3988 35.8967 42.4584 36.0404 42.4584 36.1904C42.4584 36.3403 42.3988 36.4843 42.2927 36.5904C42.1867 36.6964 42.0429 36.7557 41.8929 36.7557Z" fill="#333333"/>
<path d="M56.9762 46.8963H36.8305C36.6827 46.8931 36.542 46.8322 36.4386 46.7265C36.3352 46.6208 36.2773 46.4788 36.2773 46.331C36.2773 46.1831 36.3352 46.0412 36.4386 45.9355C36.542 45.8298 36.6827 45.7688 36.8305 45.7656H56.9762C57.1262 45.7656 57.27 45.8252 57.376 45.9313C57.4821 46.0373 57.5416 46.181 57.5416 46.331C57.5416 46.4809 57.4821 46.625 57.376 46.731C57.27 46.837 57.1262 46.8963 56.9762 46.8963Z" fill="#333333"/>
<path d="M56.9764 51.9359H36.8306C36.6839 51.9359 36.5432 51.8776 36.4395 51.7739C36.3358 51.6702 36.2775 51.5296 36.2775 51.3829C36.2758 51.3092 36.2889 51.236 36.316 51.1674C36.3431 51.0989 36.3836 51.0364 36.4351 50.9838C36.4866 50.9311 36.5481 50.8893 36.6161 50.8607C36.684 50.8322 36.7569 50.8175 36.8306 50.8175H56.9764C57.0511 50.8158 57.1253 50.8293 57.1947 50.8571C57.264 50.885 57.3271 50.9264 57.3799 50.9793C57.4327 51.0321 57.4743 51.0951 57.5021 51.1644C57.53 51.2338 57.5434 51.3082 57.5418 51.3829C57.5418 51.4566 57.5271 51.5295 57.4985 51.5974C57.4699 51.6654 57.4281 51.7269 57.3754 51.7784C57.3228 51.8299 57.2603 51.8705 57.1918 51.8975C57.1233 51.9246 57.05 51.9376 56.9764 51.9359Z" fill="#333333"/>
<path d="M53.8666 57.037H36.8306C36.7569 57.037 36.684 57.0223 36.6161 56.9938C36.5481 56.9652 36.4866 56.9234 36.4351 56.8707C36.3836 56.8181 36.3431 56.7556 36.316 56.6871C36.2889 56.6185 36.2758 56.5453 36.2775 56.4716C36.2774 56.3238 36.3353 56.1818 36.4387 56.0761C36.5421 55.9704 36.6828 55.9095 36.8306 55.9062H53.8666C54.0166 55.9062 54.1604 55.9659 54.2664 56.0719C54.3724 56.1779 54.432 56.3217 54.432 56.4716C54.4337 56.5463 54.4202 56.6207 54.3924 56.6901C54.3646 56.7594 54.323 56.8224 54.2702 56.8752C54.2173 56.9281 54.1543 56.9695 54.0849 56.9974C54.0156 57.0252 53.9413 57.0387 53.8666 57.037Z" fill="#333333"/>
<path d="M57.197 64.3625H52.6123C52.4633 64.3593 52.3213 64.2986 52.216 64.1932C52.1106 64.0879 52.05 63.9458 52.0469 63.7968C52.05 63.6478 52.1106 63.5061 52.216 63.4007C52.3213 63.2953 52.4633 63.2346 52.6123 63.2314H57.197C57.346 63.2346 57.488 63.2953 57.5933 63.4007C57.6987 63.5061 57.7593 63.6478 57.7624 63.7968C57.7593 63.9458 57.6987 64.0879 57.5933 64.1932C57.488 64.2986 57.346 64.3593 57.197 64.3625Z" fill="#333333"/>
</g>
<defs>
<clipPath id="clip0_1856_378782">
<rect width="40.9184" height="42" fill="white" transform="translate(32 29)"/>
</clipPath>
</defs>
</svg>
