<svg width="90" height="90" viewBox="0 0 90 90" fill="none" xmlns="http://www.w3.org/2000/svg">
<circle cx="45" cy="45" r="45" fill="#FAFAFA"/>
<g clip-path="url(#clip0_1988_378924)">
<path d="M25.53 17.98H61.16V22.1899H64.88V63.28C64.88 63.28 64.33 73.8101 57.32 73.8101H28.58V69.5901L25.53 69.23V17.98Z" fill="white"/>
<path d="M56.46 73.9897H28.58C28.4394 73.9897 28.3046 73.9339 28.2052 73.8345C28.1058 73.7351 28.05 73.6003 28.05 73.4597V68.9998C28.0219 68.9198 28.0134 68.8344 28.0251 68.7505C28.0369 68.6666 28.0685 68.5867 28.1175 68.5176C28.1665 68.4485 28.2313 68.3922 28.3065 68.3533C28.3818 68.3144 28.4653 68.2939 28.55 68.2939C28.6347 68.2939 28.7182 68.3144 28.7934 68.3533C28.8687 68.3922 28.9335 68.4485 28.9824 68.5176C29.0314 68.5867 29.0631 68.6666 29.0749 68.7505C29.0866 68.8344 29.0781 68.9198 29.05 68.9998V72.9297H56.41C60.76 72.9297 64.3 68.6399 64.3 63.3599V22.3599H61.11C60.9694 22.3599 60.8346 22.304 60.7353 22.2046C60.6359 22.1052 60.58 21.9704 60.58 21.8298C60.58 21.6893 60.6359 21.5545 60.7353 21.4551C60.8346 21.3557 60.9694 21.2998 61.11 21.2998H64.83C64.9705 21.2998 65.1053 21.3557 65.2047 21.4551C65.3041 21.5545 65.36 21.6893 65.36 21.8298V63.3799C65.41 69.2199 61.39 73.9897 56.46 73.9897Z" fill="#333333"/>
<path d="M53.55 69.53H25.55C25.4095 69.53 25.2747 69.4742 25.1753 69.3748C25.0759 69.2754 25.02 69.1406 25.02 69V17.53C25.02 17.3895 25.0759 17.2547 25.1753 17.1553C25.2747 17.0559 25.4095 17 25.55 17H61.18C61.3206 17 61.4554 17.0559 61.5548 17.1553C61.6542 17.2547 61.71 17.3895 61.71 17.53V59.8801C61.7653 60.701 61.4951 61.5106 60.958 62.1338C60.4209 62.757 59.66 63.1435 58.84 63.21H56.44V66.21C56.4897 67.0317 56.2146 67.8402 55.6741 68.4612C55.1336 69.0821 54.3708 69.466 53.55 69.53ZM26.05 68.47H53.55C54.0881 68.4022 54.5784 68.1272 54.9165 67.7031C55.2546 67.2791 55.4138 66.7396 55.36 66.2V62.6799C55.36 62.5394 55.4158 62.4046 55.5152 62.3052C55.6146 62.2058 55.7494 62.1501 55.89 62.1501H58.82C59.3581 62.0824 59.8484 61.8071 60.1866 61.3831C60.5247 60.959 60.6838 60.4198 60.63 59.8801V18.0601H26.1L26.05 68.47Z" fill="#333333"/>
<path d="M38.57 60.0199L45.01 38.4499L39.05 36.6299L32.61 58.1899L36.33 56.6399L38.57 60.0199Z" fill="#235AB0"/>
<path d="M38.74 61.1797L36.1 57.2798L31.79 59.0798L38.68 36.0298L45.59 38.1399L38.74 61.1797ZM36.51 56.0198L38.39 58.8499L44.39 38.7898L39.39 37.2598L33.39 57.3198L36.51 56.0198Z" fill="#333333"/>
<path d="M49.05 60.0199L42.61 38.4499L48.57 36.6299L55.01 58.1899L51.3 56.6399L49.05 60.0199Z" fill="#235AB0"/>
<path d="M48.88 61.1797L41.99 38.1199L48.9 36.0098L55.79 59.0598L51.48 57.2598L48.88 61.1797ZM43.23 38.7898L49.23 58.8499L51.11 56.0198L54.24 57.3198L48.24 37.2598L43.23 38.7898Z" fill="#333333"/>
<path d="M45.22 27.28C45.4303 26.979 45.7315 26.7531 46.0794 26.6355C46.4273 26.5179 46.8037 26.5147 47.1535 26.6265C47.5034 26.7382 47.8082 26.9591 48.0235 27.2566C48.2388 27.5541 48.3532 27.9128 48.35 28.28C48.3398 28.5584 48.3981 28.8349 48.5199 29.0855C48.6416 29.336 48.8231 29.5529 49.0482 29.7168C49.2734 29.8808 49.5354 29.987 49.8112 30.0259C50.0871 30.0648 50.3683 30.0352 50.63 29.9399C50.9789 29.8137 51.3593 29.8044 51.7139 29.9133C52.0685 30.0222 52.3782 30.2434 52.596 30.5437C52.8139 30.844 52.9282 31.207 52.9217 31.5779C52.9152 31.9488 52.7883 32.3076 52.56 32.6001C52.3916 32.8217 52.2794 33.0808 52.2331 33.3552C52.1869 33.6297 52.2079 33.9112 52.2945 34.1758C52.381 34.4403 52.5304 34.68 52.7299 34.874C52.9295 35.0681 53.1732 35.2109 53.44 35.29C53.7924 35.3977 54.1009 35.6155 54.3201 35.9116C54.5393 36.2078 54.6576 36.5666 54.6576 36.9351C54.6576 37.3035 54.5393 37.6621 54.3201 37.9583C54.1009 38.2544 53.7924 38.4725 53.44 38.5801C53.1734 38.6578 52.9296 38.7994 52.7299 38.9924C52.5303 39.1855 52.3806 39.4243 52.294 39.6882C52.2073 39.9521 52.1863 40.2332 52.2326 40.5071C52.279 40.781 52.3914 41.0393 52.56 41.26C52.7883 41.5525 52.9152 41.9113 52.9217 42.2822C52.9282 42.6532 52.8139 43.0161 52.596 43.3164C52.3782 43.6167 52.0685 43.8379 51.7139 43.9468C51.3593 44.0557 50.9789 44.0462 50.63 43.9199C50.3683 43.8273 50.0878 43.7999 49.813 43.8399C49.5382 43.8798 49.2773 43.9862 49.0528 44.1497C48.8283 44.3131 48.647 44.5286 48.5246 44.7778C48.4021 45.0271 48.3422 45.3025 48.35 45.5801C48.3532 45.9473 48.2388 46.306 48.0235 46.6035C47.8082 46.901 47.5034 47.1216 47.1535 47.2334C46.8037 47.3452 46.4273 47.3422 46.0794 47.2246C45.7315 47.107 45.4303 46.8812 45.22 46.5801C45.0629 46.3511 44.8524 46.1638 44.6068 46.0344C44.3611 45.9051 44.0877 45.8374 43.81 45.8374C43.5324 45.8374 43.2589 45.9051 43.0132 46.0344C42.7675 46.1638 42.5571 46.3511 42.4 46.5801C42.1897 46.8812 41.8885 47.107 41.5406 47.2246C41.1927 47.3422 40.8163 47.3452 40.4665 47.2334C40.1166 47.1216 39.8118 46.901 39.5965 46.6035C39.3812 46.306 39.2668 45.9473 39.27 45.5801C39.276 45.3021 39.2146 45.0266 39.0909 44.7776C38.9672 44.5286 38.785 44.3134 38.5599 44.1502C38.3348 43.987 38.0734 43.8807 37.7982 43.8406C37.5231 43.8005 37.2423 43.8277 36.98 43.9199C36.6374 44.0236 36.2709 44.0173 35.9322 43.9016C35.5934 43.7859 35.2995 43.5667 35.0918 43.2752C34.8842 42.9836 34.7733 42.6343 34.7747 42.2764C34.7762 41.9184 34.89 41.5699 35.1 41.28C35.2712 41.0608 35.3859 40.803 35.4342 40.5291C35.4825 40.2551 35.4629 39.9736 35.377 39.709C35.2912 39.4444 35.1417 39.2048 34.9417 39.0115C34.7417 38.8182 34.4973 38.677 34.23 38.6001C33.8776 38.4925 33.5691 38.2744 33.3499 37.9783C33.1307 37.6821 33.0124 37.3235 33.0124 36.9551C33.0124 36.5866 33.1307 36.2278 33.3499 35.9316C33.5691 35.6355 33.8776 35.4177 34.23 35.3101C34.4975 35.2317 34.7418 35.0891 34.9416 34.8948C35.1414 34.7005 35.2907 34.4603 35.3765 34.1951C35.4623 33.9299 35.4819 33.6478 35.4337 33.3733C35.3856 33.0988 35.271 32.8403 35.1 32.6201C34.8718 32.3277 34.7448 31.9688 34.7383 31.5979C34.7318 31.227 34.8461 30.864 35.064 30.5637C35.2819 30.2635 35.5914 30.0423 35.9461 29.9334C36.3007 29.8245 36.6812 29.8337 37.03 29.96C37.2923 30.0547 37.5738 30.0839 37.85 30.0449C38.1262 30.0059 38.3886 29.8998 38.6144 29.7361C38.8402 29.5724 39.0226 29.356 39.1455 29.1057C39.2685 28.8554 39.3284 28.5788 39.32 28.3001C39.3168 27.9328 39.4312 27.5741 39.6465 27.2766C39.8618 26.9791 40.1667 26.7583 40.5165 26.6465C40.8663 26.5347 41.2428 26.5379 41.5907 26.6555C41.9386 26.7731 42.2397 26.999 42.45 27.3001C42.6101 27.5179 42.8196 27.6945 43.0612 27.8157C43.3029 27.9369 43.5698 27.999 43.8401 27.9971C44.1104 27.9951 44.3764 27.9291 44.6163 27.8045C44.8562 27.6798 45.063 27.5001 45.22 27.28Z" fill="#235AB0"/>
<path d="M46.61 47.8402C46.2505 47.8365 45.8975 47.7431 45.5832 47.5684C45.2688 47.3938 45.0031 47.1435 44.81 46.8402C44.6986 46.6776 44.5493 46.5445 44.3752 46.4522C44.201 46.3599 44.0071 46.3111 43.81 46.3101C43.6128 46.3103 43.4185 46.3586 43.2442 46.451C43.0699 46.5434 42.9209 46.677 42.81 46.8402C42.5354 47.2194 42.1475 47.5016 41.7022 47.6461C41.2568 47.7906 40.7771 47.7901 40.3321 47.6444C39.8872 47.4986 39.5 47.2153 39.2265 46.8353C38.9529 46.4553 38.8071 45.9983 38.81 45.5301C38.8168 45.3349 38.7745 45.1413 38.6872 44.9666C38.5998 44.792 38.4702 44.6418 38.31 44.5301C38.151 44.4133 37.966 44.3368 37.7709 44.3072C37.5758 44.2776 37.3766 44.2958 37.19 44.3602C36.7406 44.5193 36.2518 44.5287 35.7965 44.3873C35.3412 44.2458 34.9439 43.9611 34.6638 43.5753C34.3837 43.1895 34.2359 42.7234 34.2424 42.2467C34.2489 41.77 34.4094 41.308 34.7 40.93C34.8186 40.772 34.8978 40.588 34.9308 40.3931C34.9639 40.1983 34.9498 39.9985 34.89 39.8101C34.8297 39.6234 34.7243 39.4545 34.583 39.3184C34.4417 39.1824 34.2688 39.0833 34.08 39.0301C33.6238 38.8922 33.2241 38.611 32.94 38.2284C32.6559 37.8457 32.5025 37.3817 32.5025 36.9051C32.5025 36.4285 32.6559 35.9646 32.94 35.5819C33.2241 35.1992 33.6238 34.918 34.08 34.7801C34.27 34.726 34.4435 34.6255 34.5849 34.4876C34.7263 34.3497 34.8311 34.1786 34.89 33.9901C34.949 33.8033 34.9625 33.6053 34.9295 33.4122C34.8964 33.2191 34.8177 33.0367 34.7 32.8802C34.4049 32.5026 34.2407 32.0393 34.2319 31.5601C34.2231 31.081 34.3703 30.6119 34.6513 30.2237C34.9323 29.8355 35.3319 29.5491 35.7898 29.4078C36.2477 29.2665 36.7391 29.2777 37.19 29.44C37.3753 29.5084 37.5747 29.5297 37.7702 29.5018C37.9658 29.4739 38.1513 29.3976 38.31 29.2801C38.4683 29.1665 38.5965 29.0161 38.6836 28.8419C38.7707 28.6677 38.8141 28.4749 38.81 28.2801C38.8071 27.8119 38.9529 27.3549 39.2265 26.9749C39.5 26.595 39.8872 26.3116 40.3321 26.1659C40.7771 26.0201 41.2568 26.0196 41.7022 26.1641C42.1475 26.3087 42.5354 26.5908 42.81 26.9701C42.9265 27.1253 43.0774 27.2514 43.251 27.3382C43.4246 27.425 43.616 27.4701 43.81 27.4701C44.0041 27.4701 44.1955 27.425 44.369 27.3382C44.5426 27.2514 44.6936 27.1253 44.81 26.9701C45.0846 26.5908 45.4725 26.3087 45.9179 26.1641C46.3632 26.0196 46.8429 26.0201 47.2879 26.1659C47.7328 26.3116 48.12 26.595 48.3936 26.9749C48.6672 27.3549 48.813 27.8119 48.81 28.2801C48.8059 28.4749 48.8493 28.6677 48.9364 28.8419C49.0235 29.0161 49.1518 29.1665 49.31 29.2801C49.4684 29.3985 49.6539 29.4751 49.8496 29.503C50.0453 29.531 50.2449 29.5093 50.43 29.44C50.8809 29.2777 51.3724 29.2665 51.8303 29.4078C52.2882 29.5491 52.6877 29.8355 52.9687 30.2237C53.2497 30.6119 53.3969 31.081 53.3882 31.5601C53.3794 32.0393 53.2151 32.5026 52.92 32.8802C52.7998 33.0362 52.7195 33.2191 52.6861 33.4132C52.6527 33.6072 52.6672 33.8065 52.7283 33.9937C52.7894 34.181 52.8953 34.3506 53.0367 34.4876C53.1782 34.6247 53.3509 34.725 53.54 34.7801C53.9962 34.918 54.3959 35.1992 54.68 35.5819C54.9641 35.9646 55.1175 36.4285 55.1175 36.9051C55.1175 37.3817 54.9641 37.8457 54.68 38.2284C54.3959 38.611 53.9962 38.8922 53.54 39.0301C53.3509 39.0852 53.1782 39.1856 53.0367 39.3226C52.8953 39.4596 52.7894 39.6293 52.7283 39.8165C52.6672 40.0037 52.6527 40.203 52.6861 40.3971C52.7195 40.5911 52.7998 40.774 52.92 40.93C53.2106 41.308 53.3711 41.77 53.3776 42.2467C53.3841 42.7234 53.2363 43.1895 52.9562 43.5753C52.6761 43.9611 52.2788 44.2458 51.8235 44.3873C51.3682 44.5287 50.8794 44.5193 50.43 44.3602C50.2436 44.295 50.0441 44.2764 49.8489 44.306C49.6537 44.3356 49.4687 44.4125 49.31 44.5301C49.1499 44.6418 49.0202 44.792 48.9328 44.9666C48.8455 45.1413 48.8033 45.3349 48.81 45.5301C48.8278 46.0095 48.6878 46.4813 48.4113 46.8734C48.1349 47.2654 47.7375 47.5558 47.28 47.7C47.0639 47.7765 46.8386 47.8237 46.61 47.8402ZM43.81 45.3402C44.1725 45.3432 44.5285 45.4361 44.8461 45.6107C45.1637 45.7852 45.4331 46.0359 45.63 46.3402C45.7754 46.5604 45.9898 46.726 46.2396 46.8111C46.4894 46.8962 46.7604 46.8959 47.01 46.8101C47.263 46.7344 47.4832 46.5759 47.6355 46.3602C47.7878 46.1444 47.8633 45.8839 47.85 45.6202C47.8382 45.2554 47.9165 44.8933 48.0779 44.566C48.2394 44.2387 48.479 43.9563 48.7757 43.7437C49.0723 43.5311 49.4168 43.395 49.7786 43.3472C50.1404 43.2995 50.5084 43.3416 50.85 43.4701C51.0968 43.5603 51.3662 43.5678 51.6176 43.4913C51.8689 43.4148 52.0886 43.2586 52.2433 43.0462C52.3981 42.8339 52.4795 42.577 52.4753 42.3143C52.471 42.0516 52.3815 41.7974 52.22 41.5902C52.0005 41.3054 51.8539 40.9713 51.7928 40.617C51.7316 40.2627 51.7578 39.8988 51.8692 39.557C51.9805 39.2151 52.1736 38.9055 52.4316 38.6551C52.6897 38.4047 53.0049 38.2212 53.35 38.1202C53.5986 38.0429 53.8159 37.8882 53.9702 37.6785C54.1246 37.4689 54.2079 37.2155 54.2079 36.9552C54.2079 36.6949 54.1246 36.4414 53.9702 36.2318C53.8159 36.0222 53.5986 35.8674 53.35 35.7901C53.0049 35.6892 52.6897 35.5056 52.4316 35.2552C52.1736 35.0048 51.9805 34.6952 51.8692 34.3534C51.7578 34.0115 51.7316 33.6476 51.7928 33.2933C51.8539 32.939 52.0005 32.605 52.22 32.3201C52.383 32.1137 52.4717 31.8581 52.4717 31.5951C52.4717 31.332 52.383 31.0767 52.22 30.8702C52.0711 30.6517 51.8532 30.4895 51.6011 30.4097C51.3491 30.33 51.0775 30.337 50.83 30.43C50.4978 30.5459 50.1427 30.5801 49.7945 30.5296C49.4464 30.4791 49.1156 30.3456 48.83 30.1402C48.5394 29.929 48.3047 29.6501 48.1461 29.3277C47.9875 29.0054 47.9099 28.6492 47.92 28.2901C47.9333 28.0264 47.8578 27.7659 47.7055 27.5501C47.5532 27.3344 47.333 27.1759 47.08 27.1002C46.8304 27.0144 46.5594 27.0139 46.3096 27.099C46.0598 27.184 45.8453 27.3499 45.7 27.5701C45.5024 27.8738 45.2329 28.124 44.9154 28.2984C44.5979 28.4729 44.2423 28.5662 43.88 28.5701C43.5166 28.5652 43.1599 28.4715 42.8409 28.2972C42.522 28.1229 42.2505 27.8733 42.05 27.5701C41.9026 27.3534 41.6888 27.1903 41.4408 27.1055C41.1927 27.0208 40.9238 27.0187 40.6745 27.0999C40.4253 27.1811 40.2091 27.3411 40.0586 27.5557C39.9081 27.7704 39.8314 28.0281 39.84 28.2901C39.8494 28.6488 39.7713 29.0045 39.6125 29.3263C39.4537 29.648 39.2189 29.9261 38.9284 30.1368C38.638 30.3475 38.3006 30.4844 37.9455 30.5355C37.5903 30.5866 37.228 30.5503 36.89 30.43C36.6425 30.337 36.371 30.33 36.1189 30.4097C35.8669 30.4895 35.6489 30.6517 35.5 30.8702C35.337 31.0767 35.2483 31.332 35.2483 31.5951C35.2483 31.8581 35.337 32.1137 35.5 32.3201C35.7195 32.605 35.8661 32.939 35.9273 33.2933C35.9884 33.6476 35.9621 34.0115 35.8508 34.3534C35.7395 34.6952 35.5464 35.0048 35.2884 35.2552C35.0303 35.5056 34.7151 35.6892 34.37 35.7901C34.1215 35.8674 33.9041 36.0222 33.7498 36.2318C33.5954 36.4414 33.5122 36.6949 33.5122 36.9552C33.5122 37.2155 33.5954 37.4689 33.7498 37.6785C33.9041 37.8882 34.1215 38.0429 34.37 38.1202C34.7151 38.2212 35.0303 38.4047 35.2884 38.6551C35.5464 38.9055 35.7395 39.2151 35.8508 39.557C35.9621 39.8988 35.9884 40.2627 35.9273 40.617C35.8661 40.9713 35.7195 41.3054 35.5 41.5902C35.3386 41.7974 35.249 42.0516 35.2448 42.3143C35.2406 42.577 35.322 42.8339 35.4767 43.0462C35.6315 43.2586 35.8511 43.4148 36.1024 43.4913C36.3538 43.5678 36.6233 43.5603 36.87 43.4701C37.2089 43.3519 37.5713 43.3178 37.9263 43.3704C38.2813 43.4231 38.6182 43.5609 38.9082 43.7723C39.1982 43.9837 39.4327 44.2623 39.5915 44.5841C39.7503 44.9059 39.8287 45.2614 39.82 45.6202C39.8114 45.8822 39.8881 46.1399 40.0386 46.3546C40.1891 46.5692 40.4053 46.7292 40.6545 46.8104C40.9038 46.8916 41.1727 46.8896 41.4207 46.8048C41.6688 46.72 41.8826 46.557 42.03 46.3402C42.225 46.0432 42.4885 45.7974 42.7982 45.6234C43.108 45.4494 43.455 45.3523 43.81 45.3402Z" fill="#333333"/>
<path d="M41.27 41.5698L38.55 35.8898L40.22 35.0898L41.8 38.3698L47.75 32.2798L49.07 33.5698L41.27 41.5698Z" fill="white"/>
</g>
<defs>
<clipPath id="clip0_1988_378924">
<rect width="40.41" height="56.99" fill="white" transform="translate(25 17)"/>
</clipPath>
</defs>
</svg>
