<svg width="90" height="91" viewBox="0 0 90 91" fill="none" xmlns="http://www.w3.org/2000/svg">
<ellipse cx="45" cy="45.1732" rx="45" ry="45.062" fill="#FAFAFA"/>
<g clip-path="url(#clip0_1756_335946)">
<path d="M39.1403 55.78C49.3962 55.78 57.7103 47.4659 57.7103 37.21C57.7103 26.9541 49.3962 18.64 39.1403 18.64C28.8844 18.64 20.5703 26.9541 20.5703 37.21C20.5703 47.4659 28.8844 55.78 39.1403 55.78Z" fill="white"/>
<path d="M29.1615 37.6701C29.0209 37.6701 28.8862 37.6142 28.7868 37.5148C28.6874 37.4154 28.6315 37.2806 28.6315 37.1401C28.5828 33.8182 29.223 30.5223 30.5115 27.4601C30.5377 27.3959 30.5765 27.3375 30.6256 27.2885C30.6747 27.2395 30.7332 27.2006 30.7975 27.1745C30.8618 27.1484 30.9307 27.1355 31.0001 27.1364C31.0695 27.1373 31.1379 27.1523 31.2015 27.1801C31.2658 27.2063 31.3242 27.245 31.3732 27.2941C31.4222 27.3432 31.4609 27.4017 31.487 27.466C31.513 27.5303 31.526 27.5992 31.5251 27.6686C31.5242 27.738 31.5093 27.8065 31.4815 27.87C30.2525 30.8037 29.643 33.9597 29.6915 37.1401C29.6915 37.2097 29.6778 37.2786 29.6511 37.3429C29.6245 37.4072 29.5855 37.4656 29.5363 37.5148C29.4871 37.564 29.4286 37.6032 29.3643 37.6298C29.3 37.6564 29.2311 37.6701 29.1615 37.6701Z" fill="#333333"/>
<path d="M39.139 29.69C28.649 29.69 25.839 24.23 25.719 24C25.6567 23.874 25.647 23.7284 25.692 23.5952C25.737 23.4621 25.833 23.3522 25.959 23.2898C26.085 23.2275 26.2306 23.218 26.3637 23.263C26.4969 23.308 26.6067 23.4038 26.669 23.5298C26.669 23.5798 29.359 28.6299 39.139 28.6299C39.2796 28.6299 39.4144 28.6858 39.5137 28.7852C39.6131 28.8846 39.669 29.0194 39.669 29.1599C39.669 29.2295 39.6553 29.2985 39.6287 29.3628C39.602 29.4271 39.563 29.4855 39.5137 29.5347C39.4645 29.5839 39.4061 29.623 39.3418 29.6497C39.2775 29.6763 39.2086 29.69 39.139 29.69Z" fill="#333333"/>
<path d="M39.1393 29.69C38.9988 29.69 38.864 29.6341 38.7646 29.5347C38.6652 29.4353 38.6094 29.3005 38.6094 29.1599C38.6094 29.0194 38.6652 28.8846 38.7646 28.7852C38.864 28.6858 38.9988 28.6299 39.1393 28.6299C48.9793 28.6299 51.5794 23.6298 51.6094 23.5298C51.6717 23.4038 51.7815 23.308 51.9147 23.263C52.0478 23.218 52.1934 23.2275 52.3193 23.2898C52.4453 23.3522 52.5414 23.4621 52.5864 23.5952C52.6314 23.7284 52.6217 23.874 52.5594 24C52.4694 24.23 49.6293 29.69 39.1393 29.69Z" fill="#333333"/>
<path d="M39.1393 51.9702C38.9988 51.9702 38.864 51.9143 38.7646 51.8149C38.6652 51.7155 38.6094 51.5807 38.6094 51.4402V29.1601C38.6094 29.0905 38.6231 29.0216 38.6497 28.9573C38.6764 28.8929 38.7154 28.8346 38.7646 28.7854C38.8138 28.7362 38.8722 28.697 38.9365 28.6704C39.0008 28.6438 39.0697 28.6301 39.1393 28.6301C39.2093 28.6287 39.2788 28.6415 39.3438 28.6677C39.4087 28.6939 39.4677 28.7327 39.5172 28.7822C39.5666 28.8317 39.6056 28.8909 39.6318 28.9558C39.6579 29.0207 39.6707 29.0902 39.6694 29.1601V51.4402C39.6694 51.5807 39.6135 51.7155 39.5141 51.8149C39.4147 51.9143 39.2799 51.9702 39.1393 51.9702Z" fill="#333333"/>
<path d="M39.14 56.2999C34.0653 56.2946 29.2001 54.2764 25.6118 50.6881C22.0235 47.0998 20.0053 42.2347 20 37.16C20.0053 32.0836 22.0229 27.2161 25.6106 23.6246C29.1983 20.0332 34.0635 18.0107 39.14 18.0001C44.2139 18.0133 49.0761 20.0354 52.663 23.6241C56.2498 27.2129 58.2694 32.0761 58.28 37.15C58.2814 39.5134 57.844 41.8563 56.99 44.0599C56.9646 44.1251 56.9265 44.1846 56.8781 44.235C56.8296 44.2854 56.7716 44.3258 56.7075 44.3536C56.6433 44.3815 56.5743 44.3965 56.5043 44.3976C56.4344 44.3987 56.365 44.3859 56.3 44.36C56.2352 44.3357 56.1759 44.2987 56.1255 44.2511C56.0752 44.2035 56.035 44.1465 56.007 44.0831C55.9791 44.0198 55.964 43.9514 55.9628 43.8822C55.9616 43.813 55.9743 43.7443 56 43.6801C56.8083 41.5907 57.2253 39.3703 57.23 37.13C57.2247 32.332 55.3177 27.7318 51.9269 24.3373C48.5361 20.9427 43.9379 19.0305 39.14 19.0199C34.3438 19.0278 29.7467 20.9382 26.3572 24.3314C22.9677 27.7247 21.0626 32.3239 21.06 37.12C21.0653 41.9135 22.9718 46.509 26.3613 49.8986C29.7508 53.2881 34.3465 55.1948 39.14 55.2001C43.1883 55.2157 47.1224 53.8584 50.3 51.35C50.4113 51.267 50.5502 51.2302 50.688 51.2469C50.8258 51.2637 50.9518 51.3328 51.04 51.4401C51.126 51.552 51.1648 51.6932 51.1479 51.8334C51.1311 51.9736 51.06 52.1016 50.95 52.1901C47.5898 54.8534 43.4276 56.3017 39.14 56.2999Z" fill="#333333"/>
<path d="M48.9213 41.1401H48.8613C48.7222 41.1226 48.5956 41.0507 48.5094 40.9401C48.4232 40.8295 48.3843 40.6892 48.4013 40.55C48.5263 39.4243 48.5898 38.2927 48.5913 37.1601C48.6494 33.9763 48.0538 30.8144 46.8413 27.87C46.7878 27.7413 46.7873 27.5968 46.8397 27.4677C46.8921 27.3386 46.9933 27.2352 47.1213 27.1801C47.1849 27.1523 47.2533 27.1373 47.3227 27.1364C47.3921 27.1355 47.461 27.1484 47.5253 27.1745C47.5896 27.2006 47.648 27.2395 47.6972 27.2885C47.7463 27.3375 47.7851 27.3959 47.8113 27.4601C49.0817 30.5266 49.708 33.8214 49.6513 37.1401C49.6526 38.3196 49.5858 39.4983 49.4513 40.6701C49.4344 40.7992 49.3715 40.9177 49.2741 41.0041C49.1767 41.0904 49.0514 41.1387 48.9213 41.1401Z" fill="#333333"/>
<path d="M33.7189 51.9701C33.6408 51.9706 33.5636 51.9539 33.4927 51.921C33.4218 51.8882 33.3591 51.8398 33.309 51.7799C30.209 47.9799 28.6289 43.07 28.6289 37.16C28.6289 37.0195 28.6848 36.8847 28.7842 36.7853C28.8836 36.6859 29.0184 36.63 29.1589 36.63C29.2995 36.63 29.4343 36.6859 29.5337 36.7853C29.6331 36.8847 29.6889 37.0195 29.6889 37.16C29.6889 42.82 31.1789 47.51 34.1289 51.11C34.2155 51.2191 34.2556 51.358 34.2407 51.4965C34.2257 51.6349 34.1568 51.7619 34.049 51.85C33.9562 51.927 33.8395 51.9696 33.7189 51.9701Z" fill="#333333"/>
<path d="M26.199 51.07C26.1154 51.0693 26.0331 51.0489 25.959 51.0102C25.833 50.9479 25.737 50.838 25.692 50.7048C25.647 50.5717 25.6567 50.426 25.719 50.3C25.839 50.07 28.649 44.6201 39.139 44.6201C39.2081 44.6188 39.2768 44.6312 39.3411 44.6567C39.4053 44.6822 39.4638 44.7204 39.5132 44.7688C39.5625 44.8172 39.6017 44.8749 39.6285 44.9387C39.6552 45.0024 39.669 45.071 39.669 45.1401C39.669 45.2807 39.6131 45.4155 39.5137 45.5149C39.4144 45.6143 39.2796 45.6701 39.139 45.6701C29.299 45.6701 26.699 50.67 26.669 50.77C26.6272 50.8595 26.5608 50.9354 26.4776 50.9885C26.3944 51.0416 26.2977 51.0698 26.199 51.07Z" fill="#333333"/>
<path d="M55.3006 52.52L44.4106 43.82L46.8006 42.87L60.1606 48.07L65.2306 43.08L68.8206 42.29L70.0206 43.08L69.8106 44.93L68.3706 47.88L63.9606 51.77L64.7406 53.27L68.2006 60.93L69.2306 64.6L69.0206 66.95L68.2806 67.7L59.5006 56.56L57.7106 58.49L49.2406 65.13L48.8206 65.87L47.2506 69.21L43.1406 65.13L45.0306 63.77L46.4806 63.56L55.3006 52.52Z" fill="white"/>
<path d="M57.5383 50.16L44.9883 43.75L52.0383 49.8L55.5983 52.63L57.5383 50.16Z" fill="#235AB0"/>
<path d="M62.14 54.58L68.48 67.22L59.5 56.56L62.14 54.58Z" fill="#235AB0"/>
<path d="M47.0992 69.7302C46.9611 69.7303 46.8283 69.6763 46.7292 69.58L42.7292 65.58C42.6415 65.4935 42.5873 65.3787 42.5763 65.256C42.5653 65.1333 42.5983 65.0108 42.6692 64.9101C43.1223 64.3071 43.7121 63.8203 44.3902 63.4899C45.0683 63.1596 45.8151 62.9953 46.5692 63.0102L47.9293 61.07C49.9205 58.2124 52.1591 55.5355 54.6193 53.07L64.1292 43.56C64.9475 42.7416 65.9926 42.1879 67.1292 41.9702C67.5775 41.8806 68.0324 41.827 68.4893 41.81C68.7539 41.8024 69.0173 41.8492 69.2632 41.9472C69.5091 42.0452 69.7324 42.1925 69.9192 42.3801C70.104 42.569 70.2495 42.7926 70.3473 43.038C70.4452 43.2835 70.4934 43.5458 70.4893 43.81C70.463 44.2628 70.4095 44.7137 70.3292 45.1601C70.1105 46.2985 69.5528 47.3442 68.7292 48.1601L59.2292 57.6601C56.7611 60.1203 54.0844 62.362 51.2292 64.36L49.2892 65.7202C49.3045 66.4733 49.1412 67.2193 48.8127 67.8972C48.4842 68.575 47.9998 69.1654 47.3992 69.6201C47.312 69.6851 47.2078 69.7234 47.0992 69.7302ZM43.8093 65.1601L47.1392 68.4902C47.5189 68.0926 47.8126 67.6208 48.0018 67.1047C48.1911 66.5885 48.2719 66.039 48.2393 65.4902C48.2297 65.3978 48.2451 65.3046 48.2837 65.2202C48.3224 65.1357 48.383 65.0633 48.4592 65.0102L50.6392 63.4802C53.439 61.519 56.0623 59.3173 58.4792 56.9001L67.9893 47.4001C68.6599 46.7293 69.1129 45.8721 69.2892 44.9401C69.3634 44.5405 69.4102 44.1362 69.4293 43.7302C69.4328 43.6142 69.4114 43.4988 69.3666 43.3918C69.3217 43.2848 69.2544 43.1888 69.1692 43.11C69.0899 43.0223 68.9925 42.9528 68.8838 42.9062C68.775 42.8596 68.6575 42.8369 68.5392 42.84C68.1326 42.8586 67.7281 42.9089 67.3292 42.9902C66.401 43.169 65.5476 43.6216 64.8792 44.29L55.3693 53.79C52.9519 56.2104 50.7503 58.8371 48.7892 61.6401L47.2692 63.81C47.2174 63.888 47.1454 63.9507 47.0609 63.9912C46.9764 64.0316 46.8825 64.0484 46.7892 64.04C46.2423 64.0127 45.6956 64.0983 45.183 64.291C44.6704 64.4836 44.2029 64.7794 43.8093 65.1601Z" fill="#333333"/>
<path d="M68.3991 68.4601C68.3244 68.4546 68.2517 68.4329 68.1861 68.3967C68.1205 68.3604 68.0635 68.3105 68.0191 68.2502L59.1891 56.9201C59.1036 56.8097 59.0652 56.6702 59.082 56.5317C59.0989 56.3931 59.1697 56.2667 59.2791 56.1801C59.3332 56.1365 59.3955 56.1042 59.4623 56.0851C59.5291 56.066 59.5991 56.0604 59.6681 56.0688C59.737 56.0772 59.8037 56.0994 59.864 56.134C59.9243 56.1685 59.977 56.2146 60.0191 56.2699L68.4391 67.07C69.5191 65.21 67.9791 61.85 65.5791 56.59C64.9991 55.32 64.3791 53.9501 63.7191 52.4601C63.6657 52.3314 63.6651 52.1867 63.7175 52.0575C63.7699 51.9284 63.8711 51.825 63.9991 51.7699C64.0619 51.7404 64.1299 51.7242 64.1993 51.7218C64.2686 51.7195 64.3376 51.7312 64.4022 51.7565C64.4668 51.7818 64.5255 51.8201 64.5749 51.8688C64.6242 51.9176 64.663 51.9757 64.6891 52.04C65.3391 53.52 65.9691 54.8901 66.5391 56.1501C69.3591 62.3201 71.0591 66.05 68.8091 68.3C68.7566 68.355 68.6927 68.3978 68.6219 68.4255C68.551 68.4531 68.475 68.4651 68.3991 68.4601Z" fill="#333333"/>
<path d="M55.7083 53.2699C55.588 53.2678 55.4719 53.2257 55.3783 53.15L44.0484 44.32C43.9894 44.275 43.9409 44.2176 43.9064 44.152C43.8719 44.0864 43.852 44.0142 43.8483 43.9401C43.8446 43.8652 43.856 43.7903 43.8817 43.7199C43.9075 43.6494 43.9472 43.5847 43.9984 43.5299C46.2484 41.2799 49.9983 42.9799 56.1483 45.7999C57.4083 46.3799 58.7783 47 60.2683 47.65C60.3953 47.709 60.4944 47.8149 60.5448 47.9455C60.5951 48.076 60.5928 48.2211 60.5384 48.35C60.5102 48.4137 60.4697 48.4713 60.4193 48.5194C60.3688 48.5675 60.3094 48.6052 60.2443 48.6303C60.1793 48.6553 60.11 48.6674 60.0403 48.6657C59.9706 48.6639 59.902 48.6483 59.8383 48.62C58.3483 47.97 56.9783 47.3401 55.7083 46.7601C50.4483 44.3601 47.0984 42.8301 45.2384 43.9101L56.0283 52.32C56.1393 52.4052 56.2121 52.5307 56.2308 52.6693C56.2495 52.8079 56.2127 52.9484 56.1283 53.06C56.0791 53.1249 56.0157 53.1776 55.9429 53.214C55.8701 53.2504 55.7898 53.2695 55.7083 53.2699Z" fill="#333333"/>
<path d="M45.2012 67.7001C45.0631 67.7002 44.9303 67.6462 44.8312 67.5499C44.782 67.5007 44.7429 67.4424 44.7162 67.3781C44.6895 67.3137 44.6758 67.2446 44.6758 67.1749C44.6758 67.1053 44.6895 67.0364 44.7162 66.972C44.7429 66.9077 44.782 66.8492 44.8312 66.7999L46.3513 65.2799C46.4519 65.1828 46.5864 65.1285 46.7263 65.1285C46.8662 65.1285 47.0006 65.1828 47.1013 65.2799C47.1984 65.3806 47.2527 65.515 47.2527 65.6549C47.2527 65.7948 47.1984 65.9292 47.1013 66.0299L45.5812 67.5499C45.4785 67.6469 45.3425 67.7007 45.2012 67.7001Z" fill="#333333"/>
<path d="M30.7383 23.2799C33.3323 24.6244 36.2167 25.3112 39.1382 25.2799C42.0598 25.3112 44.9443 24.6244 47.5383 23.2799C45.011 21.7303 42.1028 20.9134 39.1382 20.9201C36.1737 20.9134 33.2656 21.7303 30.7383 23.2799Z" fill="#235AB0"/>
</g>
<defs>
<clipPath id="clip0_1756_335946">
<rect width="50.49" height="51.73" fill="white" transform="translate(20 18)"/>
</clipPath>
</defs>
</svg>
