<svg width="90" height="90" viewBox="0 0 90 90" fill="none" xmlns="http://www.w3.org/2000/svg">
<circle cx="45" cy="45" r="45" fill="#FAFAFA"/>
<g clip-path="url(#clip0_1080_171949)">
<path d="M69.4851 61.109V30.6095C69.4851 30.053 69.2648 29.5192 68.8723 29.1246C68.4798 28.7301 67.9471 28.5069 67.3905 28.5039H40.7776C40.2191 28.5039 39.6836 28.7256 39.2887 29.1205C38.8938 29.5154 38.6719 30.051 38.6719 30.6095V61.109H69.4851Z" fill="white"/>
<path d="M69.4851 61.6134H38.6271C38.4934 61.6134 38.3652 61.5602 38.2707 61.4657C38.1762 61.3712 38.123 61.2428 38.123 61.1091V30.6096C38.123 29.9174 38.398 29.2537 38.8874 28.7643C39.3768 28.2749 40.0407 28 40.7328 28H67.3457C67.6885 28 68.0278 28.0674 68.3445 28.1985C68.6611 28.3297 68.9487 28.522 69.1911 28.7643C69.4334 29.0066 69.6257 29.2943 69.7569 29.6109C69.888 29.9276 69.9555 30.2669 69.9555 30.6096V61.1091C69.9532 61.2364 69.9039 61.3584 69.817 61.4515C69.7302 61.5446 69.6119 61.6023 69.4851 61.6134ZM39.1759 60.5939H68.981V30.6096C68.981 30.1867 68.8138 29.7811 68.5159 29.481C68.2179 29.181 67.8134 29.0109 67.3905 29.008H40.7776C40.3528 29.008 39.9454 29.1768 39.645 29.4772C39.3447 29.7776 39.1759 30.1848 39.1759 30.6096V60.5939Z" fill="#333333"/>
<path d="M47.7443 32.6484H44.933C44.5989 32.6484 44.3281 32.9192 44.3281 33.2533V36.0647C44.3281 36.3987 44.5989 36.6695 44.933 36.6695H47.7443C48.0784 36.6695 48.3492 36.3987 48.3492 36.0647V33.2533C48.3492 32.9192 48.0784 32.6484 47.7443 32.6484Z" fill="#235AB0"/>
<path d="M55.4943 32.6484H52.683C52.3489 32.6484 52.0781 32.9192 52.0781 33.2533V36.0647C52.0781 36.3987 52.3489 36.6695 52.683 36.6695H55.4943C55.8284 36.6695 56.0992 36.3987 56.0992 36.0647V33.2533C56.0992 32.9192 55.8284 32.6484 55.4943 32.6484Z" fill="#235AB0"/>
<path d="M63.2463 32.6484H60.4349C60.1009 32.6484 59.8301 32.9192 59.8301 33.2533V36.0647C59.8301 36.3987 60.1009 36.6695 60.4349 36.6695H63.2463C63.5803 36.6695 63.8511 36.3987 63.8511 36.0647V33.2533C63.8511 32.9192 63.5803 32.6484 63.2463 32.6484Z" fill="#235AB0"/>
<path d="M47.7443 39.8047H44.933C44.5989 39.8047 44.3281 40.0755 44.3281 40.4095V43.2209C44.3281 43.5549 44.5989 43.8257 44.933 43.8257H47.7443C48.0784 43.8257 48.3492 43.5549 48.3492 43.2209V40.4095C48.3492 40.0755 48.0784 39.8047 47.7443 39.8047Z" fill="#235AB0"/>
<path d="M55.4943 39.8047H52.683C52.3489 39.8047 52.0781 40.0755 52.0781 40.4095V43.2209C52.0781 43.5549 52.3489 43.8257 52.683 43.8257H55.4943C55.8284 43.8257 56.0992 43.5549 56.0992 43.2209V40.4095C56.0992 40.0755 55.8284 39.8047 55.4943 39.8047Z" fill="#235AB0"/>
<path d="M63.2463 39.8047H60.4349C60.1009 39.8047 59.8301 40.0755 59.8301 40.4095V43.2209C59.8301 43.5549 60.1009 43.8257 60.4349 43.8257H63.2463C63.5803 43.8257 63.8511 43.5549 63.8511 43.2209V40.4095C63.8511 40.0755 63.5803 39.8047 63.2463 39.8047Z" fill="#235AB0"/>
<path d="M55.4943 46.9629H52.683C52.3489 46.9629 52.0781 47.2337 52.0781 47.5677V50.3791C52.0781 50.7132 52.3489 50.9839 52.683 50.9839H55.4943C55.8284 50.9839 56.0992 50.7132 56.0992 50.3791V47.5677C56.0992 47.2337 55.8284 46.9629 55.4943 46.9629Z" fill="#235AB0"/>
<path d="M63.2463 46.9629H60.4349C60.1009 46.9629 59.8301 47.2337 59.8301 47.5677V50.3791C59.8301 50.7132 60.1009 50.9839 60.4349 50.9839H63.2463C63.5803 50.9839 63.8511 50.7132 63.8511 50.3791V47.5677C63.8511 47.2337 63.5803 46.9629 63.2463 46.9629Z" fill="#235AB0"/>
<path d="M20.437 61.6128C20.3801 57.2775 22.0473 53.0969 25.0718 49.9904C28.0964 46.8839 32.2307 45.1059 36.5659 45.0469C40.9012 45.1059 45.0356 46.8839 48.0601 49.9904C51.0847 53.0969 52.7518 57.2775 52.695 61.6128" fill="#235AB0"/>
<path d="M27.9194 61.5681C27.8616 61.5696 27.8041 61.5594 27.7504 61.538C27.6967 61.5166 27.648 61.4843 27.6071 61.4434C27.5663 61.4025 27.5341 61.3538 27.5127 61.3001C27.4913 61.2464 27.481 61.1889 27.4826 61.1311C27.4826 54.5563 29.8124 50.457 31.7837 48.1721C31.8655 48.0907 31.9762 48.0449 32.0917 48.0449C32.2071 48.0449 32.3179 48.0907 32.3997 48.1721C32.4811 48.2539 32.5268 48.3646 32.5268 48.48C32.5268 48.5954 32.4811 48.706 32.3997 48.7879C29.6891 51.9465 28.3114 56.1132 28.3114 61.176C28.3015 61.2766 28.257 61.3708 28.1856 61.4423C28.1141 61.5138 28.02 61.5582 27.9194 61.5681Z" fill="#333333"/>
<path d="M36.5652 54.6467C27.4814 54.6467 25.0509 49.931 24.9501 49.7294C24.9028 49.6249 24.8973 49.5063 24.9348 49.398C24.9723 49.2896 25.0499 49.1998 25.1517 49.1469C25.2029 49.1205 25.2589 49.1048 25.3164 49.1007C25.3739 49.0966 25.4316 49.104 25.4861 49.1229C25.5406 49.1417 25.5906 49.1716 25.6333 49.2104C25.6759 49.2491 25.7102 49.296 25.7341 49.3485C25.7341 49.3485 28.075 53.8288 36.5652 53.8288C36.6802 53.8316 36.7897 53.8787 36.871 53.96C36.9523 54.0413 36.9992 54.1508 37.002 54.2657C36.9884 54.3716 36.9364 54.4687 36.8559 54.5389C36.7754 54.6091 36.672 54.6475 36.5652 54.6467Z" fill="#333333"/>
<path d="M36.5657 54.6467C36.4498 54.6467 36.3387 54.6007 36.2568 54.5188C36.1749 54.4368 36.1289 54.3256 36.1289 54.2097C36.1317 54.0948 36.1786 53.9853 36.26 53.904C36.3413 53.8227 36.4507 53.7759 36.5657 53.773C45.0558 53.773 47.3632 49.3936 47.3856 49.2928C47.4385 49.1882 47.5303 49.1084 47.6413 49.0707C47.7523 49.033 47.8736 49.0402 47.9792 49.0909C48.081 49.1436 48.1581 49.2344 48.1937 49.3433C48.2293 49.4523 48.2207 49.5708 48.1697 49.6734C48.0801 49.931 45.6383 54.6467 36.5657 54.6467Z" fill="#333333"/>
<path d="M52.6949 61.6132H20V61.1762C20 56.7806 21.7446 52.5648 24.8507 49.4546C27.9567 46.3443 32.1702 44.5938 36.5658 44.5879C40.9586 44.5968 45.1687 46.3466 48.2738 49.4537C51.3789 52.5609 53.1258 56.7723 53.1317 61.165C53.1332 61.2233 53.123 61.2813 53.1017 61.3356C53.0804 61.3899 53.0485 61.4394 53.0078 61.4811C52.9671 61.5229 52.9185 61.5561 52.8647 61.5787C52.811 61.6014 52.7532 61.6132 52.6949 61.6132ZM20.8737 60.7171H52.2357C52.1363 56.6246 50.4404 52.7332 47.5103 49.8743C44.5803 47.0154 40.6484 45.4155 36.5547 45.4167C32.461 45.4155 28.529 47.0154 25.599 49.8743C22.6689 52.7332 20.9731 56.6246 20.8737 60.7171Z" fill="#333333"/>
<path d="M45.2127 61.5802C45.1559 61.5817 45.0993 61.5717 45.0464 61.551C44.9934 61.5303 44.9452 61.4993 44.9044 61.4597C44.8637 61.42 44.8314 61.3726 44.8093 61.3202C44.7872 61.2678 44.7758 61.2113 44.7759 61.1545C44.7759 56.0918 43.3982 51.9253 40.6876 48.7667C40.6062 48.6848 40.5605 48.5739 40.5605 48.4585C40.5605 48.3431 40.6062 48.2324 40.6876 48.1506C40.7695 48.0692 40.8802 48.0234 40.9956 48.0234C41.111 48.0234 41.2218 48.0692 41.3037 48.1506C43.2638 50.3907 45.6047 54.5348 45.6047 61.1096C45.6113 61.2231 45.5744 61.3351 45.5016 61.4225C45.4288 61.5098 45.3255 61.5662 45.2127 61.5802Z" fill="#333333"/>
<path d="M36.5657 61.6141C36.4507 61.6113 36.3413 61.5642 36.26 61.4829C36.1786 61.4015 36.1317 61.2921 36.1289 61.1771V48.4645C36.1289 48.3486 36.1749 48.2374 36.2568 48.1555C36.3387 48.0736 36.4498 48.0275 36.5657 48.0275C36.6235 48.026 36.681 48.0362 36.7347 48.0576C36.7884 48.079 36.8372 48.111 36.878 48.1519C36.9189 48.1928 36.951 48.2418 36.9724 48.2955C36.9939 48.3492 37.0041 48.4067 37.0025 48.4645V61.1771C37.0025 61.293 36.9565 61.4042 36.8746 61.4861C36.7927 61.5681 36.6815 61.6141 36.5657 61.6141Z" fill="#333333"/>
</g>
<defs>
<clipPath id="clip0_1080_171949">
<rect width="50" height="33.6134" fill="white" transform="translate(20 28)"/>
</clipPath>
</defs>
</svg>
