<svg width="100" height="100" viewBox="0 0 100 100" fill="none" xmlns="http://www.w3.org/2000/svg">
<circle cx="50" cy="50" r="50" fill="#F2F6FB"/>
<g clip-path="url(#clip0_1856_378783)">
<path d="M37.4023 25.8867H68.6264V29.5836H71.8893V65.5699C71.8893 65.5699 71.4084 74.7929 65.288 74.7929H40.0806V71.096L37.4023 70.785V25.8867Z" fill="white"/>
<path d="M68.624 29.2441H71.8869V65.655C71.8869 70.54 68.5768 74.5006 64.5029 74.5006H40.0781V70.5871" stroke="#333333" stroke-width="1.06" stroke-linecap="round" stroke-linejoin="round"/>
<path d="M60.554 25.4902H37.4023V70.5865H61.9214C62.5146 70.529 63.0615 70.2407 63.4443 69.7839C63.8271 69.327 64.0151 68.7381 63.9678 68.1439V65.0602H66.5423C67.1373 65.0027 67.6857 64.7133 68.0688 64.2543C68.4518 63.7954 68.6386 63.2039 68.5887 62.6082V25.4997H60.5163" stroke="#333333" stroke-width="1.06" stroke-linecap="round" stroke-linejoin="round"/>
<path d="M53.0175 57.4686C58.1164 57.4686 62.2499 53.3352 62.2499 48.2363C62.2499 43.1374 58.1164 39.0039 53.0175 39.0039C47.9186 39.0039 43.7852 43.1374 43.7852 48.2363C43.7852 53.3352 47.9186 57.4686 53.0175 57.4686Z" fill="#235AB0"/>
<path d="M50.3412 53.4519L47.5781 47.671L49.2756 46.8506L50.8788 50.1984L56.9331 43.9932L58.2816 45.3134L50.3412 53.4519Z" fill="white"/>
<path d="M46.4166 70.6436H25.5V74.7458H46.4166V70.6436Z" fill="#235AB0"/>
<path d="M26.4062 70.9447L27.1418 67.8044L29.5749 66.1541L33.0358 66.0598L33.3282 63.4758H34.4787V59.4019L32.9792 56.2616L31.1309 53.291L31.4987 49.698L34.6956 47.5762H37.0343L39.5239 49.0945L40.8065 51.999L40.1841 54.8847L37.553 58.4306L37.0532 62.0047L37.4681 63.655H38.7884L38.8355 66.2106L43.1924 66.3238L44.9087 68.2759L45.3614 70.9447H26.4062Z" fill="white"/>
<path d="M46.7559 74.9807H25V70.4258H46.7559V74.9807ZM25.943 74.0377H45.8129V71.3688H25.943V74.0377Z" fill="#333333"/>
<path d="M38.3147 66.569H33.4391C33.189 66.569 32.9492 66.4695 32.7723 66.2927C32.5954 66.1158 32.4961 65.876 32.4961 65.6259V63.985C32.4961 63.7349 32.5954 63.4949 32.7723 63.318C32.9492 63.1412 33.189 63.042 33.4391 63.042H38.3147C38.5648 63.042 38.8046 63.1412 38.9815 63.318C39.1583 63.4949 39.2577 63.7349 39.2577 63.985V65.6259C39.2577 65.876 39.1583 66.1158 38.9815 66.2927C38.8046 66.4695 38.5648 66.569 38.3147 66.569ZM38.3147 64.0039H33.458V65.6259H38.2958L38.3147 64.0039Z" fill="#333333"/>
<path d="M45.7086 70.6428H44.7656C44.7656 68.3983 43.5019 66.569 41.9364 66.569H29.7995C28.2435 66.569 26.9704 68.3983 26.9704 70.6428H26.0273C26.0273 67.8797 27.7154 65.626 29.7995 65.626H41.9459C44.0205 65.626 45.7086 67.8797 45.7086 70.6428Z" fill="#333333"/>
<path d="M34.7336 63.9476L33.7905 63.7307C34.941 58.7986 32.1874 56.2429 32.0742 56.1392C31.5788 55.6438 31.1859 55.0557 30.9178 54.4085C30.6497 53.7612 30.5117 53.0675 30.5117 52.367C30.5117 51.6664 30.6497 50.9727 30.9178 50.3255C31.1859 49.6783 31.5788 49.0902 32.0742 48.5948C32.5696 48.0995 33.1576 47.7065 33.8049 47.4384C34.4521 47.1703 35.1458 47.0322 35.8464 47.0322C36.5469 47.0322 37.2406 47.1703 37.8878 47.4384C38.5351 47.7065 39.1231 48.0995 39.6185 48.5948L38.949 49.2549C38.1274 48.4345 37.0135 47.9742 35.8525 47.975C34.6914 47.9759 33.5783 48.4381 32.7579 49.2597C31.9375 50.0814 31.4772 51.1951 31.4781 52.3562C31.4789 53.5172 31.941 54.6304 32.7626 55.4507C32.8946 55.5545 36.0444 58.4402 34.7336 63.9476Z" fill="#333333"/>
<path d="M36.9872 63.9476C35.7141 58.4402 38.8733 55.5545 38.9959 55.4602C39.7576 54.625 40.1674 53.5277 40.1397 52.3976C40.1119 51.2675 39.6489 50.192 38.8471 49.3951C38.0454 48.5982 36.9669 48.1416 35.8366 48.1208C34.7064 48.0999 33.6118 48.5164 32.7812 49.2832L32.1211 48.6231C33.1215 47.6227 34.4784 47.0605 35.8933 47.0605C37.3081 47.0605 38.665 47.6227 39.6654 48.6231C40.6659 49.6236 41.2279 50.9805 41.2279 52.3953C41.2279 53.8101 40.6659 55.167 39.6654 56.1675C39.5334 56.2901 36.8363 58.8458 37.9302 63.7779L36.9872 63.9476Z" fill="#333333"/>
</g>
<defs>
<clipPath id="clip0_1856_378783">
<rect width="47.3878" height="50" fill="white" transform="translate(25 25)"/>
</clipPath>
</defs>
</svg>
