<svg width="104" height="100" viewBox="0 0 104 100" fill="none" xmlns="http://www.w3.org/2000/svg">
<ellipse cx="51.625" cy="50" rx="51.625" ry="50" fill="#F2F6FB"/>
<g clip-path="url(#clip0_1081_175860)">
<path d="M59.5331 29.0781H33.0771V66.9359H59.5331V29.0781Z" fill="white"/>
<path d="M56.8874 58.1305L54.7803 55.2742L65.2807 45.043L67.6337 47.2437L56.8874 58.1305Z" fill="#235AB0"/>
<path d="M67.8911 42.2578L66.5332 43.5806L68.8042 45.9687L70.3728 44.5171L67.8911 42.2578Z" fill="#235AB0"/>
<path d="M53.8088 59.2105C53.6694 59.208 53.5359 59.1539 53.4342 59.0585C53.3708 58.9975 53.3237 58.9217 53.2971 58.8378C53.2705 58.754 53.2654 58.6647 53.2821 58.5783L53.8791 55.4998C53.9009 55.3931 53.9539 55.2954 54.0313 55.2188L64.8712 44.3789C64.9715 44.2814 65.1059 44.2267 65.2458 44.2266C65.3857 44.2267 65.52 44.2814 65.6204 44.3789L68.1021 46.8605C68.2029 46.9614 68.2595 47.0982 68.2595 47.2408C68.2595 47.3835 68.2029 47.5206 68.1021 47.6215L57.2739 58.4615C57.1963 58.5352 57.0985 58.5839 56.9929 58.6018L53.9142 59.1988L53.8088 59.2105ZM54.9092 55.8276L54.4878 57.9579L56.63 57.5483L66.9666 47.2117L65.2458 45.4909L54.9092 55.8276Z" fill="#333333"/>
<path d="M68.9678 46.5883C68.8225 46.5869 68.6836 46.5281 68.5815 46.4245L66.1115 43.9427C66.0107 43.8417 65.9541 43.705 65.9541 43.5623C65.9541 43.4196 66.0107 43.2829 66.1115 43.1819L67.5748 41.7186C67.6785 41.6232 67.8143 41.5703 67.9552 41.5703C68.0962 41.5703 68.232 41.6232 68.3357 41.7186L70.8174 44.2002C70.9182 44.3012 70.9748 44.4379 70.9748 44.5806C70.9748 44.7233 70.9182 44.8603 70.8174 44.9613L69.3424 46.4245C69.2949 46.4765 69.237 46.5178 69.1725 46.546C69.108 46.5742 69.0382 46.5887 68.9678 46.5883ZM67.247 43.568L68.9678 45.2891L69.6702 44.5749L67.9494 42.8541L67.247 43.568Z" fill="#333333"/>
<path d="M62.0144 51.0139C61.869 51.0125 61.7301 50.9537 61.6281 50.8502C61.5785 50.8012 61.5392 50.7427 61.5124 50.6784C61.4855 50.6141 61.4717 50.5452 61.4717 50.4755C61.4717 50.4058 61.4855 50.3369 61.5124 50.2726C61.5392 50.2083 61.5785 50.1498 61.6281 50.1008L66.1115 45.6173C66.1605 45.5677 66.2189 45.5284 66.2832 45.5015C66.3475 45.4747 66.4165 45.4609 66.4862 45.4609C66.5558 45.4609 66.6248 45.4747 66.6891 45.5015C66.7534 45.5284 66.8118 45.5677 66.8607 45.6173C66.9615 45.7182 67.0181 45.8553 67.0181 45.9979C67.0181 46.1406 66.9615 46.2774 66.8607 46.3783L62.389 50.8502C62.2898 50.9509 62.1557 51.0095 62.0144 51.0139Z" fill="#333333"/>
<path d="M56.8877 58.6576C56.8183 58.6588 56.7493 58.646 56.6849 58.6199C56.6205 58.5937 56.5621 58.5546 56.5131 58.5053L54.0314 56.0237C53.9306 55.9228 53.874 55.786 53.874 55.6433C53.874 55.5007 53.9306 55.3636 54.0314 55.2627C54.1324 55.1619 54.2692 55.1055 54.4119 55.1055C54.5545 55.1055 54.6914 55.1619 54.7923 55.2627L57.274 57.7445C57.3695 57.8482 57.4224 57.984 57.4224 58.1249C57.4224 58.2658 57.3695 58.4016 57.274 58.5053C57.2229 58.555 57.1624 58.5941 57.0961 58.6202C57.0298 58.6463 56.959 58.6591 56.8877 58.6576Z" fill="#333333"/>
<path d="M60.0597 67.9882H32.5385C32.3977 67.9882 32.2625 67.9332 32.1618 67.8347C32.0611 67.7363 32.0031 67.6022 32 67.4615V28.5267C32.0031 28.3859 32.0611 28.2519 32.1618 28.1535C32.2625 28.055 32.3977 28 32.5385 28H60.0597C60.2005 28 60.3357 28.055 60.4364 28.1535C60.5371 28.2519 60.5951 28.3859 60.5982 28.5267V46.9874C60.5952 47.1293 60.5375 47.2643 60.4372 47.3646C60.3368 47.465 60.2016 47.5228 60.0597 47.5258C59.9178 47.5228 59.7826 47.465 59.6822 47.3646C59.5819 47.2643 59.5242 47.1293 59.5212 46.9874V29.0652H33.077V66.923H59.5212V58.272C59.5242 58.1301 59.5819 57.9948 59.6822 57.8945C59.7826 57.7941 59.9178 57.7366 60.0597 57.7336C60.2016 57.7366 60.3368 57.7941 60.4372 57.8945C60.5375 57.9948 60.5952 58.1301 60.5982 58.272V67.4615C60.5951 67.6022 60.5371 67.7363 60.4364 67.8347C60.3357 67.9332 60.2005 67.9882 60.0597 67.9882Z" fill="#333333"/>
<path d="M41.4239 35.3855H36.5541C36.4133 35.3824 36.2794 35.3244 36.1809 35.2237C36.0824 35.1231 36.0273 34.9878 36.0273 34.847C36.0273 34.7062 36.0824 34.571 36.1809 34.4704C36.2794 34.3697 36.4133 34.3117 36.5541 34.3086H41.4239C41.5667 34.3086 41.7037 34.3654 41.8047 34.4664C41.9056 34.5673 41.9624 34.7042 41.9624 34.847C41.9624 34.9898 41.9056 35.127 41.8047 35.228C41.7037 35.329 41.5667 35.3855 41.4239 35.3855Z" fill="#333333"/>
<path d="M55.7874 45.0456H36.601C36.4602 45.0426 36.3262 44.9845 36.2278 44.8839C36.1293 44.7832 36.0742 44.648 36.0742 44.5072C36.0742 44.3664 36.1293 44.2312 36.2278 44.1305C36.3262 44.0299 36.4602 43.9718 36.601 43.9688H55.7874C55.9302 43.9688 56.0672 44.0255 56.1682 44.1265C56.2692 44.2275 56.3259 44.3644 56.3259 44.5072C56.3259 44.65 56.2692 44.7872 56.1682 44.8882C56.0672 44.9891 55.9302 45.0456 55.7874 45.0456Z" fill="#333333"/>
<path d="M55.7866 49.8426H36.6002C36.4605 49.8426 36.3265 49.7871 36.2277 49.6883C36.1289 49.5895 36.0734 49.4556 36.0734 49.3159C36.0718 49.2458 36.0843 49.176 36.1101 49.1107C36.1358 49.0454 36.1744 48.986 36.2235 48.9358C36.2725 48.8856 36.3311 48.8458 36.3958 48.8186C36.4605 48.7914 36.53 48.7775 36.6002 48.7775H55.7866C55.8577 48.7759 55.9285 48.7887 55.9945 48.8152C56.0606 48.8417 56.1206 48.8812 56.1709 48.9315C56.2212 48.9818 56.2608 49.0418 56.2873 49.1079C56.3138 49.1739 56.3267 49.2448 56.3251 49.3159C56.3251 49.3861 56.3111 49.4556 56.2839 49.5203C56.2567 49.5849 56.2168 49.6435 56.1667 49.6926C56.1165 49.7417 56.057 49.7803 55.9918 49.8061C55.9265 49.8318 55.8567 49.8442 55.7866 49.8426Z" fill="#333333"/>
<path d="M52.8249 54.7019H36.6002C36.53 54.7019 36.4605 54.6879 36.3958 54.6607C36.3311 54.6335 36.2725 54.5937 36.2235 54.5435C36.1744 54.4934 36.1358 54.4339 36.1101 54.3686C36.0843 54.3034 36.0718 54.2336 36.0734 54.1634C36.0733 54.0226 36.1285 53.8874 36.2269 53.7868C36.3254 53.6861 36.4594 53.6281 36.6002 53.625H52.8249C52.9677 53.625 53.1047 53.6818 53.2057 53.7828C53.3067 53.8837 53.3634 54.0206 53.3634 54.1634C53.365 54.2346 53.3522 54.3054 53.3257 54.3715C53.2992 54.4376 53.2596 54.4975 53.2092 54.5478C53.1589 54.5982 53.0989 54.6377 53.0329 54.6642C52.9668 54.6906 52.8961 54.7035 52.8249 54.7019Z" fill="#333333"/>
<path d="M55.9977 61.6787H51.6313C51.4894 61.6757 51.3541 61.6179 51.2538 61.5175C51.1535 61.4172 51.0958 61.2819 51.0928 61.14C51.0958 60.9981 51.1535 60.8631 51.2538 60.7628C51.3541 60.6624 51.4894 60.6046 51.6313 60.6016H55.9977C56.1395 60.6046 56.2748 60.6624 56.3751 60.7628C56.4755 60.8631 56.5332 60.9981 56.5362 61.14C56.5332 61.2819 56.4755 61.4172 56.3751 61.5175C56.2748 61.6179 56.1395 61.6757 55.9977 61.6787Z" fill="#333333"/>
</g>
<defs>
<clipPath id="clip0_1081_175860">
<rect width="38.9699" height="40" fill="white" transform="translate(32 28)"/>
</clipPath>
</defs>
</svg>
