<svg width="90" height="90" viewBox="0 0 90 90" fill="none" xmlns="http://www.w3.org/2000/svg">
<circle cx="45" cy="45" r="45" fill="#FAFAFA"/>
<g clip-path="url(#clip0_1414_251679)">
<path d="M18.5299 32.1602H67.9899L68.2099 56.8302L71.9499 58.1302L61.9099 68.1102L60.1899 62.1802H21.9399L19.0699 61.1402L18.4199 59.0902L18.5299 32.1602Z" fill="white"/>
<path d="M57.5101 40.0391H30.3101V41.0391H57.5101V40.0391Z" fill="#333333"/>
<path d="M57.5101 44.5195H30.3101V45.5195H57.5101V44.5195Z" fill="#333333"/>
<path d="M57.5101 48.9883H30.3101V49.9883H57.5101V48.9883Z" fill="#333333"/>
<path d="M51.85 53.4688H35.98V54.4688H51.85V53.4688Z" fill="#333333"/>
<path d="M18.53 32.1617V23.4317L20.88 21.5117H65.75L68.19 23.2417L68.21 32.6917L18.53 32.1617Z" fill="#235AB0"/>
<path d="M61.9299 68.8603H61.7999C61.7089 68.8356 61.6259 68.7878 61.5592 68.7211C61.4926 68.6544 61.4446 68.5714 61.4199 68.4804L57.6399 54.3803C57.6165 54.2905 57.6171 54.1961 57.6417 54.1066C57.6663 54.0171 57.7139 53.9356 57.7799 53.8703C57.844 53.8025 57.9254 53.7538 58.0153 53.7292C58.1052 53.7045 58.2002 53.7049 58.2899 53.7304L72.3999 57.5104C72.4883 57.5348 72.5689 57.5815 72.6337 57.6464C72.6986 57.7112 72.7455 57.7919 72.7699 57.8803C72.7955 57.9692 72.797 58.0633 72.7742 58.153C72.7513 58.2426 72.705 58.3245 72.6399 58.3903L62.3099 68.7204C62.2057 68.8137 62.0698 68.8636 61.9299 68.8603ZM58.9299 54.9704L62.2399 67.3105L71.2399 58.3105L58.9299 54.9704Z" fill="#333333"/>
<path d="M72.1001 68.6911C71.9643 68.6884 71.8337 68.6391 71.7301 68.5512L66.6001 63.6811C66.498 63.5843 66.4385 63.4509 66.4348 63.3102C66.431 63.1696 66.4833 63.0332 66.5801 62.9311C66.6769 62.829 66.8103 62.7696 66.9509 62.7658C67.0916 62.7621 67.228 62.8143 67.3301 62.9111L72.4601 67.7812C72.5094 67.8304 72.5485 67.8887 72.5751 67.9531C72.6018 68.0174 72.6155 68.0865 72.6155 68.1562C72.6155 68.2259 72.6018 68.2947 72.5751 68.3591C72.5485 68.4234 72.5094 68.482 72.4601 68.5312C72.4137 68.5804 72.358 68.6199 72.2961 68.6474C72.2343 68.6749 72.1677 68.6896 72.1001 68.6911Z" fill="#333333"/>
<path d="M68.21 32.689H18.53C18.3895 32.689 18.2547 32.6331 18.1553 32.5337C18.0559 32.4343 18 32.2995 18 32.1589C18 32.0184 18.0559 31.8836 18.1553 31.7842C18.2547 31.6848 18.3895 31.6289 18.53 31.6289H68.21C68.3506 31.6289 68.4854 31.6848 68.5848 31.7842C68.6842 31.8836 68.7401 32.0184 68.7401 32.1589C68.7401 32.2995 68.6842 32.4343 68.5848 32.5337C68.4854 32.6331 68.3506 32.689 68.21 32.689Z" fill="#333333"/>
<path d="M65.53 21H21.19C20.7703 21 20.3547 21.0827 19.967 21.2437C19.5793 21.4046 19.2272 21.6405 18.9308 21.9377C18.6345 22.235 18.3997 22.5879 18.24 22.9761C18.0803 23.3643 17.9987 23.7802 18 24.2V58.74C18 59.7832 18.4138 60.7839 19.1505 61.5225C19.8873 62.2611 20.8869 62.6773 21.9301 62.6799H60.28C60.4206 62.6799 60.5554 62.6241 60.6548 62.5247C60.7542 62.4253 60.8101 62.2905 60.8101 62.1499C60.8101 62.0093 60.7542 61.8745 60.6548 61.7751C60.5554 61.6758 60.4206 61.6199 60.28 61.6199H21.9301C21.1671 61.6172 20.436 61.313 19.8965 60.7734C19.357 60.2339 19.0527 59.503 19.0501 58.74V24.2C19.0501 23.6324 19.2755 23.0881 19.6768 22.6868C20.0782 22.2854 20.6225 22.0601 21.19 22.0601H65.53C66.0976 22.0601 66.6419 22.2854 67.0432 22.6868C67.4446 23.0881 67.6701 23.6324 67.6701 24.2V56.8499C67.6701 56.9904 67.7259 57.1252 67.8253 57.2246C67.9247 57.324 68.0595 57.3799 68.2 57.3799C68.3406 57.3799 68.4754 57.324 68.5748 57.2246C68.6742 57.1252 68.7301 56.9904 68.7301 56.8499V24.2C68.7301 23.3513 68.3929 22.5374 67.7928 21.9373C67.1927 21.3371 66.3787 21 65.53 21Z" fill="#333333"/>
<path d="M23.74 26.8906C23.74 27.1558 23.8453 27.4104 24.0328 27.5979C24.2204 27.7854 24.4748 27.8906 24.74 27.8906C25.0052 27.8906 25.2595 27.7854 25.4471 27.5979C25.6346 27.4104 25.74 27.1558 25.74 26.8906C25.74 26.6254 25.6346 26.3711 25.4471 26.1836C25.2595 25.9961 25.0052 25.8906 24.74 25.8906C24.4748 25.8906 24.2204 25.9961 24.0328 26.1836C23.8453 26.3711 23.74 26.6254 23.74 26.8906Z" fill="white"/>
<path d="M30.0701 27.8984C30.6224 27.8984 31.0701 27.4507 31.0701 26.8984C31.0701 26.3462 30.6224 25.8984 30.0701 25.8984C29.5178 25.8984 29.0701 26.3462 29.0701 26.8984C29.0701 27.4507 29.5178 27.8984 30.0701 27.8984Z" fill="white"/>
<path d="M35.3999 27.8984C35.9522 27.8984 36.3999 27.4507 36.3999 26.8984C36.3999 26.3462 35.9522 25.8984 35.3999 25.8984C34.8476 25.8984 34.3999 26.3462 34.3999 26.8984C34.3999 27.4507 34.8476 27.8984 35.3999 27.8984Z" fill="white"/>
</g>
<defs>
<clipPath id="clip0_1414_251679">
<rect width="54.79" height="47.86" fill="white" transform="translate(18 21)"/>
</clipPath>
</defs>
</svg>
