<svg width="16" height="16" viewBox="0 0 16 16" fill="none" xmlns="http://www.w3.org/2000/svg">
<circle cx="8" cy="8" r="8" fill="#235AB0"/>
<g clip-path="url(#clip0_481_30201)">
<path d="M7.99384 10.8942C7.43624 10.8942 7 11.3585 7 11.9535C7 12.5486 7.43624 13 7.99384 13C8.55145 13 9 12.5412 9 11.9535C9 11.3659 8.55849 10.8942 7.99384 10.8942V10.8942Z" fill="white"/>
<path d="M7.22161 9.72439C7.22161 9.86072 7.2392 9.95284 7.2779 10.0136C7.30428 10.0707 7.36409 10.115 7.45204 10.115H8.40894C8.62882 10.115 8.6728 10.0726 8.6939 10.0523C8.73612 10.0136 8.74667 9.97126 8.75899 9.92336C8.76251 9.90862 8.76602 9.89388 8.76602 9.87915L8.9472 3.52321C8.956 3.2874 8.95952 3.16949 8.8786 3.08106C8.80296 3 8.69742 3 8.57605 3H7.42565C7.30604 3 7.19171 3 7.11431 3.08475C7.02812 3.1787 7.03164 3.31503 7.03867 3.52321L7.22161 9.72439Z" fill="white"/>
</g>
<defs>
<clipPath id="clip0_481_30201">
<rect width="2" height="10" fill="white" transform="translate(7 3)"/>
</clipPath>
</defs>
</svg>
