<svg width="90" height="90" viewBox="0 0 90 90" fill="none" xmlns="http://www.w3.org/2000/svg">
<circle cx="45" cy="45" r="45" fill="#FAFAFA"/>
<g clip-path="url(#clip0_891_226364)">
<path d="M44.71 48.55C44.71 48.55 42.71 26.5 22.66 26.5C22.66 26.5 19.24 48.55 44.71 48.55Z" fill="#235AB0"/>
<path d="M45.2601 49.05H44.71C36.46 49.05 30.32 46.77 26.46 42.26C20.81 35.66 22.11 26.7999 22.17 26.4199L22.2301 26H22.6601C42.9401 26 45.19 48.28 45.21 48.51L45.2601 49.05ZM23.09 26.96C22.92 28.79 22.5401 36.1301 27.2201 41.5801C30.7901 45.7401 36.48 47.91 44.14 48.01C43.6017 44.4062 42.4554 40.92 40.75 37.7C36.93 30.74 30.99 27.13 23.09 26.96Z" fill="#333333"/>
<path d="M44.95 48.55C44.95 48.55 46.95 26.5 67 26.5C67 26.5 70.42 48.55 44.95 48.55Z" fill="#235AB0"/>
<path d="M44.95 49.05H44.4L44.45 48.51C44.45 48.28 46.71 26 67 26H67.43L67.49 26.4199C67.55 26.7999 68.85 35.66 63.2 42.26C59.34 46.77 53.19 49.05 44.95 49.05ZM66.56 27C58.66 27.13 52.73 30.74 48.9 37.74C47.19 40.958 46.0434 44.4451 45.51 48.05C53.17 47.95 58.86 45.7799 62.43 41.6199C67.09 36.1699 66.73 28.83 66.56 26.96V27Z" fill="#333333"/>
<path d="M45.22 47.8281H44.22V63.2681H45.22V47.8281Z" fill="#333333"/>
<path d="M44.7 49.2505L36.41 40.9605L37.12 40.2505L44.73 47.8605L53.07 40.2305L53.75 40.9705L44.7 49.2505Z" fill="#333333"/>
</g>
<defs>
<clipPath id="clip0_891_226364">
<rect width="45.66" height="37.28" fill="white" transform="translate(22 26)"/>
</clipPath>
</defs>
</svg>
