<svg width="90" height="90" viewBox="0 0 90 90" fill="none" xmlns="http://www.w3.org/2000/svg">
<g clip-path="url(#clip0_679_107363)">
<path d="M37.2602 26.4449L35.8952 28.7999L35.2052 32.6099L35.8502 36.1349L34.2602 36.6299V39.4199L35.7602 41.3399H36.7952L37.6352 44.5649L39.8102 47.0249V48.3899L37.9802 51.1049L28.2152 54.3899L26.3252 56.4749V66.5549L62.8202 66.6749V57.0599L60.9452 54.0899L55.9352 52.8899L51.1352 50.1899L48.7502 47.1599L49.7402 46.3949L51.5252 44.5199L52.4552 41.1449L54.4502 40.3949L55.0952 37.9199L54.7652 36.6899L53.2952 35.8949L53.7302 32.8199L53.0252 28.7399L51.2252 25.6499L46.1402 23.0699L41.4902 23.4749L37.2602 26.4449Z" fill="white"/>
<path d="M44.5796 52.545L42.7646 54.48L42.1496 55.185L43.3646 57.735L41.4746 66.42L47.7896 66.27L45.6296 57.27L46.9646 54.63L44.5796 52.545Z" fill="#235AB0"/>
<path d="M44.5645 32.4749L36.1045 30.5249L35.8945 28.7999L38.9995 24.9149L44.9095 23.0699L50.3695 25.2599L53.1445 29.1899L53.3095 31.0799L44.5645 32.4749Z" fill="#235AB0"/>
<path d="M44.5798 52.8898C44.454 52.8918 44.3299 52.861 44.2198 52.8001L41.2198 51.0449C40.6366 50.7099 40.152 50.2272 39.8149 49.6452C39.4778 49.0632 39.3001 48.4025 39.2998 47.7299V47.2348C35.9848 45.0748 36.1348 40.3048 36.1348 40.0948C36.1387 40.0022 36.1608 39.9115 36.1998 39.8274C36.2388 39.7434 36.2941 39.6678 36.3623 39.6052C36.4306 39.5425 36.5106 39.4937 36.5977 39.462C36.6847 39.4302 36.7772 39.4158 36.8698 39.4199C36.9624 39.4237 37.0534 39.446 37.1374 39.485C37.2215 39.5241 37.297 39.5794 37.3597 39.6476C37.4224 39.7159 37.4711 39.7957 37.5028 39.8827C37.5346 39.9698 37.5488 40.0622 37.5448 40.1548C37.5448 40.1548 37.4098 44.6549 40.3348 46.2299C40.4457 46.2868 40.5391 46.3726 40.6051 46.4782C40.6711 46.5838 40.7073 46.7052 40.7098 46.8298V47.7299C40.7106 48.1557 40.8232 48.5739 41.0365 48.9424C41.2497 49.311 41.5561 49.6169 41.9248 49.8298L44.6098 51.3298L47.2798 49.8298C47.6494 49.6165 47.9571 49.311 48.1727 48.9428C48.3884 48.5746 48.5045 48.1566 48.5098 47.7299V46.8298C48.5093 46.7064 48.5425 46.5854 48.606 46.4797C48.6695 46.3739 48.7607 46.2875 48.8698 46.2299C51.8698 44.5949 51.6598 40.2298 51.6598 40.1548C51.6558 40.0622 51.6701 39.9698 51.7018 39.8827C51.7336 39.7957 51.7822 39.7159 51.8449 39.6476C51.9076 39.5794 51.9831 39.5241 52.0672 39.485C52.1513 39.446 52.2422 39.4237 52.3348 39.4199C52.5208 39.4156 52.7012 39.4837 52.8382 39.6095C52.9752 39.7354 53.0582 39.9091 53.0698 40.0948C53.0698 40.3048 53.2198 45.0748 49.9048 47.2348V47.7299C49.9045 48.4025 49.7268 49.0632 49.3897 49.6452C49.0526 50.2272 48.5681 50.7099 47.9848 51.0449L44.9848 52.8001C44.8623 52.8709 44.7209 52.9021 44.5798 52.8898Z" fill="#333333"/>
<path d="M41.0846 56.4752C40.9918 56.4779 40.8996 56.4606 40.8142 56.4243C40.7287 56.3881 40.6521 56.3336 40.5896 56.265L37.2746 52.875C37.1885 52.7878 37.1267 52.6799 37.0951 52.5615C37.0635 52.4432 37.0634 52.3185 37.0946 52.2001C37.6065 50.4438 38.4185 48.7894 39.4946 47.3101C39.5479 47.2348 39.6161 47.1712 39.6949 47.1233C39.7737 47.0754 39.8615 47.0444 39.9529 47.0318C40.0442 47.0191 40.1372 47.025 40.2261 47.0497C40.315 47.0744 40.3978 47.1173 40.4696 47.1753C40.5449 47.2286 40.6084 47.2964 40.6563 47.3753C40.7042 47.4541 40.7354 47.5421 40.7481 47.6334C40.7608 47.7248 40.7545 47.8178 40.7299 47.9066C40.7052 47.9955 40.6625 48.0784 40.6046 48.1502C39.7233 49.389 39.0354 50.7545 38.5646 52.2001L41.1296 54.8251L44.1296 52.155C44.2542 52.0401 44.4175 51.9763 44.5871 51.9763C44.7566 51.9763 44.9199 52.0401 45.0446 52.155L48.0446 54.8251L50.6096 52.2001C50.1448 50.7502 49.462 49.3795 48.5846 48.1351C48.5266 48.0634 48.484 47.9805 48.4593 47.8916C48.4346 47.8027 48.4284 47.7098 48.4411 47.6184C48.4537 47.5271 48.485 47.4394 48.5329 47.3606C48.5808 47.2818 48.6443 47.2136 48.7196 47.1603C48.7913 47.1023 48.8742 47.0597 48.9631 47.035C49.0519 47.0104 49.1449 47.0041 49.2363 47.0167C49.3277 47.0294 49.4155 47.0604 49.4943 47.1083C49.5731 47.1562 49.6413 47.2198 49.6946 47.2951C50.7707 48.7744 51.5827 50.4288 52.0946 52.1851C52.1258 52.3035 52.1256 52.4282 52.0941 52.5465C52.0625 52.6649 52.0006 52.7728 51.9146 52.86L48.5996 56.25C48.4691 56.3713 48.2977 56.4386 48.1196 56.4386C47.9415 56.4386 47.77 56.3713 47.6396 56.25L44.5496 53.5503L41.4446 56.25C41.3519 56.3618 41.2257 56.4409 41.0846 56.4752Z" fill="#333333"/>
<path d="M26.205 67.2001C26.018 67.2001 25.8387 67.1258 25.7065 66.9935C25.5743 66.8613 25.5 66.6821 25.5 66.4951V58.11C25.5005 57.036 25.8381 55.9896 26.4651 55.1177C27.0922 54.2458 27.977 53.5923 28.995 53.25L37.995 50.25C38.1701 50.1924 38.3608 50.2057 38.5262 50.287C38.6916 50.3683 38.8186 50.5113 38.88 50.6851C38.9376 50.8602 38.9243 51.051 38.843 51.2164C38.7617 51.3819 38.6188 51.5088 38.445 51.5702L29.445 54.5702C28.7053 54.8164 28.0622 55.2894 27.607 55.9223C27.1519 56.5551 26.908 57.3154 26.91 58.095V66.4801C26.912 66.574 26.8952 66.6671 26.8607 66.7544C26.8262 66.8417 26.7746 66.9214 26.7089 66.9884C26.6432 67.0555 26.5648 67.1088 26.4783 67.1452C26.3918 67.1815 26.2989 67.2001 26.205 67.2001Z" fill="#333333"/>
<path d="M62.9398 67.2001C62.8472 67.2001 62.7555 67.1821 62.67 67.1466C62.5844 67.1112 62.5067 67.059 62.4413 66.9935C62.3758 66.9281 62.3239 66.8506 62.2884 66.765C62.253 66.6795 62.2348 66.5877 62.2348 66.4951V58.11C62.2368 57.3305 61.9929 56.5702 61.5377 55.9373C61.0826 55.3044 60.4394 54.8314 59.6998 54.5852L50.6998 51.5852C50.526 51.5238 50.3831 51.3969 50.3018 51.2315C50.2205 51.066 50.2072 50.8752 50.2648 50.7001C50.3261 50.5263 50.4531 50.3833 50.6186 50.302C50.784 50.2207 50.9747 50.2074 51.1498 50.265L60.1498 53.265C61.1541 53.6166 62.0243 54.272 62.6397 55.14C63.2551 56.0081 63.5854 57.0459 63.5848 58.11V66.4951C63.5854 66.6722 63.5194 66.8432 63.3999 66.9738C63.2804 67.1044 63.1162 67.185 62.9398 67.2001Z" fill="#333333"/>
<path d="M41.5504 67.005H41.3854C41.2964 66.984 41.2125 66.9453 41.1386 66.8915C41.0647 66.8377 41.0021 66.7697 40.9547 66.6916C40.9072 66.6134 40.8758 66.5267 40.8622 66.4363C40.8486 66.3459 40.8531 66.2536 40.8754 66.165L42.8554 57.8399L41.5054 55.1248C41.4271 54.9552 41.4178 54.7621 41.4793 54.5857C41.5409 54.4094 41.6686 54.2639 41.8354 54.18C42.0028 54.1023 42.1939 54.0934 42.3678 54.1551C42.5416 54.2168 42.6844 54.3442 42.7654 54.5099L44.2654 57.5099C44.318 57.6656 44.318 57.8343 44.2654 57.99L42.2254 66.54C42.1754 66.6781 42.0835 66.7972 41.9624 66.8805C41.8414 66.9639 41.6973 67.0076 41.5504 67.005Z" fill="#333333"/>
<path d="M47.5946 67.005C47.4356 67.0061 47.2808 66.9533 47.1556 66.8553C47.0303 66.7572 46.9419 66.6195 46.9046 66.4649L44.8646 57.915C44.812 57.7593 44.812 57.5905 44.8646 57.4348L46.3646 54.4349C46.4456 54.2691 46.5884 54.1417 46.7623 54.08C46.9361 54.0183 47.1273 54.0273 47.2946 54.1049C47.3786 54.145 47.4538 54.2015 47.5159 54.2708C47.578 54.3401 47.6258 54.421 47.6564 54.5088C47.6871 54.5967 47.7001 54.6895 47.6946 54.7824C47.6892 54.8753 47.6654 54.9664 47.6246 55.0501L46.2746 57.7648L48.2546 66.0899C48.277 66.1785 48.2815 66.2708 48.2679 66.3612C48.2542 66.4517 48.2228 66.5383 48.1753 66.6165C48.1279 66.6946 48.0654 66.7627 47.9914 66.8164C47.9175 66.8702 47.8336 66.9089 47.7446 66.93L47.5946 67.005Z" fill="#333333"/>
<path d="M52.335 42.135C52.1589 42.1323 51.99 42.0653 51.8601 41.9464C51.7301 41.8276 51.6483 41.6652 51.63 41.4901C51.6173 41.3039 51.6775 41.1198 51.7979 40.9771C51.9182 40.8343 52.0893 40.7441 52.275 40.7251C52.8341 40.6511 53.346 40.3723 53.7117 39.9429C54.0774 39.5135 54.271 38.9638 54.255 38.4C54.255 37.71 54.255 37.365 54.06 37.26C53.939 37.2084 53.8089 37.182 53.6775 37.182C53.546 37.182 53.4159 37.2084 53.295 37.26C53.1646 37.3143 53.0211 37.3288 52.8824 37.3021C52.7437 37.2755 52.6159 37.2086 52.515 37.1099C52.4158 37.0123 52.3484 36.8871 52.3216 36.7506C52.2948 36.6141 52.3099 36.4726 52.365 36.3448C52.7877 35.2822 52.9819 34.1425 52.935 32.9999C52.935 32.7599 52.935 32.5049 52.935 32.2349C52.927 30.0188 52.0422 27.896 50.4738 26.3304C48.9054 24.7649 46.781 23.8841 44.565 23.8801C42.3411 23.8801 40.2084 24.7634 38.6359 26.3359C37.0634 27.9084 36.18 30.0411 36.18 32.2649C36.026 33.6525 36.2273 35.0564 36.765 36.3448C36.8234 36.4745 36.8403 36.619 36.8135 36.7587C36.7866 36.8983 36.7173 37.0262 36.615 37.1249C36.5124 37.2211 36.3838 37.2855 36.2452 37.3094C36.1066 37.3334 35.964 37.3162 35.835 37.26C35.714 37.2084 35.5839 37.182 35.4525 37.182C35.321 37.182 35.1909 37.2084 35.07 37.26C34.935 37.365 34.815 37.71 34.875 38.4C34.859 38.9638 35.0525 39.5135 35.4182 39.9429C35.7839 40.3723 36.2958 40.6511 36.855 40.7251C36.9477 40.7326 37.038 40.7583 37.1207 40.8009C37.2033 40.8435 37.2768 40.9023 37.3367 40.9734C37.3967 41.0445 37.442 41.1268 37.47 41.2155C37.498 41.3041 37.5082 41.3975 37.5 41.4901C37.4925 41.5822 37.4666 41.6718 37.4238 41.7538C37.381 41.8357 37.3222 41.9082 37.2509 41.9669C37.1795 42.0257 37.0971 42.0695 37.0085 42.0958C36.9198 42.1221 36.8268 42.1303 36.735 42.12C35.8488 42.0149 35.0308 41.5924 34.4323 40.9305C33.8339 40.2686 33.4955 39.4123 33.48 38.5201C33.3828 38.0869 33.4039 37.6354 33.5411 37.2131C33.6783 36.7909 33.9266 36.4133 34.26 36.12C34.5013 35.9552 34.7795 35.8522 35.07 35.8201C34.7819 34.6687 34.6806 33.4784 34.77 32.2949C34.7779 29.7023 35.8134 27.2186 37.6494 25.3882C39.4855 23.5577 41.9724 22.5299 44.565 22.5299C47.1589 22.5378 49.6442 23.5731 51.477 25.4087C53.3098 27.2443 54.341 29.731 54.345 32.325C54.345 32.61 54.345 32.865 54.345 33.09C54.3581 34.008 54.2624 34.9245 54.06 35.8201C54.3567 35.8452 54.6414 35.9486 54.885 36.12C55.2183 36.4133 55.4666 36.7909 55.6038 37.2131C55.7411 37.6354 55.7622 38.0869 55.665 38.5201C55.6558 39.4142 55.3197 40.2739 54.72 40.9371C54.1203 41.6004 53.2986 42.0211 52.41 42.12L52.335 42.135Z" fill="#333333"/>
<path d="M53.2802 31.4849C42.7802 36.6449 35.8052 30.7502 35.7302 30.6902C35.6421 30.6075 35.5719 30.5075 35.5239 30.3965C35.4759 30.2856 35.4512 30.1658 35.4512 30.045C35.4512 29.9241 35.4759 29.8047 35.5239 29.6938C35.5719 29.5828 35.6421 29.4828 35.7302 29.4001C35.9023 29.2133 36.1388 29.0987 36.3921 29.0793C36.6453 29.0598 36.8965 29.1367 37.0952 29.295C37.3502 29.505 43.2902 34.4101 52.5002 29.8651C52.6082 29.8047 52.7272 29.7665 52.8502 29.7527C52.9733 29.7389 53.0978 29.7497 53.2165 29.7846C53.3353 29.8195 53.4459 29.8778 53.5418 29.956C53.6377 30.0342 53.7171 30.1309 53.7752 30.2401C53.8269 30.3541 53.855 30.4773 53.858 30.6023C53.861 30.7274 53.8387 30.8516 53.7925 30.9678C53.7462 31.084 53.6771 31.1899 53.589 31.2787C53.501 31.3676 53.396 31.4376 53.2802 31.4849Z" fill="#333333"/>
<path d="M63.63 65.88H25.5V67.23H63.63V65.88Z" fill="#333333"/>
</g>
<defs>
<clipPath id="clip0_679_107363">
<rect width="38.13" height="44.73" fill="white" transform="translate(25.5 22.5)"/>
</clipPath>
</defs>
</svg>
