<svg width="103" height="100" viewBox="0 0 103 100" fill="none" xmlns="http://www.w3.org/2000/svg">
<ellipse cx="51.5" cy="50" rx="51.5" ry="50" fill="#F2F6FB"/>
<g clip-path="url(#clip0_1096_175289)">
<path d="M34.6973 73.048L34.8667 61.0504C34.8667 61.0504 39.3447 57.2905 44.5488 57.6536C47.539 57.8101 50.4307 58.7749 52.9158 60.4452L58.2167 61.0746L61.3392 61.2925L62.2832 62.4381L62.614 64.2939L69.3431 58.5491L72.3445 58.3232L75.2169 59.8967L75.0394 61.1069L65.204 70.321L59.9434 72.201L53.1901 71.9912L49.7368 71.3538L46.461 71.4989L42.8867 71.7168L34.6973 73.048Z" fill="white"/>
<path d="M35.1074 73.3707C35.0131 73.3686 34.9221 73.3361 34.8479 73.2779C34.7737 73.2197 34.7203 73.1389 34.6959 73.0478C34.6814 72.9937 34.6779 72.9374 34.6856 72.8819C34.6932 72.8265 34.7119 72.7733 34.7404 72.7251C34.769 72.677 34.8069 72.6351 34.8519 72.6018C34.8969 72.5686 34.9481 72.5447 35.0025 72.5315C40.0304 71.4067 45.186 70.9589 50.3325 71.2001C51.2927 71.2566 52.2528 71.3454 53.213 71.4341C55.0258 71.6439 56.8506 71.7329 58.6753 71.7004C61.5263 71.6289 64.2663 70.5808 66.4371 68.7313L74.3845 61.1711C74.4711 61.0849 74.5398 60.9824 74.5867 60.8695C74.6336 60.7567 74.6577 60.6358 74.6577 60.5136C74.6577 60.3914 74.6336 60.2703 74.5867 60.1574C74.5398 60.0446 74.4711 59.9423 74.3845 59.856C73.6462 59.0939 72.6375 58.6533 71.5767 58.6296C70.5156 58.6212 69.4923 59.0229 68.7205 59.7511L62.3303 65.2295C62.2429 65.3018 62.1309 65.3371 62.0179 65.328C61.9049 65.319 61.7999 65.2663 61.7251 65.1811C61.6886 65.1389 61.6608 65.0899 61.6435 65.0369C61.6261 64.9839 61.6195 64.928 61.624 64.8724C61.6285 64.8168 61.644 64.7628 61.6697 64.7133C61.6954 64.6637 61.7307 64.6197 61.7735 64.584L68.1476 59.1217C69.0723 58.2342 70.3113 57.7497 71.5928 57.7743C72.2307 57.7865 72.8599 57.9245 73.4443 58.1807C74.0286 58.4369 74.5565 58.8062 74.9977 59.2671C75.3254 59.6066 75.5053 60.0622 75.4977 60.5341C75.4902 61.0059 75.2958 61.4555 74.9574 61.7843L67.0019 69.3526C64.6836 71.3492 61.7497 72.4886 58.6914 72.58C56.8263 72.6105 54.9612 72.5188 53.1081 72.3056C52.1641 72.2168 51.212 72.128 50.2599 72.0796C46.2257 71.8456 39.3191 72.2734 35.2042 73.3787L35.1074 73.3707Z" fill="#333333"/>
<path d="M59.9438 66.4965H57.2086C55.5515 66.4958 53.899 66.3199 52.2788 65.9719L47.228 64.8909C47.1728 64.8794 47.1205 64.8571 47.0739 64.8253C47.0274 64.7935 46.9876 64.7528 46.9569 64.7055C46.9261 64.6583 46.905 64.6053 46.8948 64.5499C46.8845 64.4945 46.8853 64.4376 46.8972 64.3825C46.9222 64.2725 46.9897 64.177 47.0849 64.1165C47.1801 64.0561 47.2953 64.0357 47.4055 64.0598L52.4563 65.141C54.0186 65.473 55.6114 65.6406 57.2086 65.6412H59.9438C60.5017 65.6391 61.0361 65.4165 61.4305 65.0221C61.825 64.6276 62.0475 64.0931 62.0497 63.5352C62.0475 62.9774 61.825 62.4431 61.4305 62.0486C61.0361 61.6541 60.5017 61.4316 59.9438 61.4295H57.5233C55.2502 61.4355 53.0004 60.9713 50.9153 60.066L50.5683 59.9206C49.2899 59.3265 47.9649 58.8382 46.6067 58.4604C44.5821 57.9765 42.4683 58.0103 40.4602 58.5589C38.4522 59.1074 36.6147 60.1529 35.1173 61.5989C35.0776 61.6387 35.0304 61.6702 34.9785 61.6917C34.9266 61.7132 34.8709 61.7244 34.8147 61.7244C34.7585 61.7244 34.7029 61.7132 34.651 61.6917C34.5991 61.6702 34.5519 61.6387 34.5121 61.5989C34.4724 61.5592 34.4408 61.5119 34.4193 61.46C34.3978 61.4081 34.3867 61.3525 34.3867 61.2963C34.3867 61.2401 34.3978 61.1846 34.4193 61.1326C34.4408 61.0807 34.4724 61.0335 34.5121 60.9938C36.1151 59.4441 38.0827 58.3233 40.2333 57.7353C42.3839 57.1472 44.6481 57.1108 46.8165 57.6293C48.2183 58.0217 49.5863 58.5261 50.9072 59.138L51.2541 59.2834C53.2327 60.1407 55.367 60.5801 57.5233 60.5742H59.9438C60.7278 60.5763 61.4789 60.8892 62.0324 61.4443C62.586 61.9994 62.8968 62.7513 62.8968 63.5352C62.8968 64.3192 62.586 65.0711 62.0324 65.6262C61.4789 66.1813 60.7278 66.4944 59.9438 66.4965Z" fill="#333333"/>
<path d="M34.3991 58.9609H28.84C28.5994 58.9609 28.4043 59.156 28.4043 59.3966V74.1699C28.4043 74.4105 28.5994 74.6056 28.84 74.6056H34.3991C34.6398 74.6056 34.8348 74.4105 34.8348 74.1699V59.3966C34.8348 59.156 34.6398 58.9609 34.3991 58.9609Z" fill="#235AB0"/>
<path d="M34.3975 75.0003H28.8303C28.6163 75.0003 28.411 74.9152 28.2597 74.7639C28.1084 74.6126 28.0234 74.4074 28.0234 74.1934V59.4201C28.0234 59.2061 28.1084 59.001 28.2597 58.8497C28.411 58.6983 28.6163 58.6133 28.8303 58.6133H34.3975C34.6114 58.6133 34.8167 58.6983 34.968 58.8497C35.1193 59.001 35.2043 59.2061 35.2043 59.4201V74.1934C35.2043 74.4074 35.1193 74.6126 34.968 74.7639C34.8167 74.9152 34.6114 75.0003 34.3975 75.0003ZM28.8303 59.3555V74.1611H34.4217V59.3878L28.8303 59.3555Z" fill="#333333"/>
<path d="M65.2125 52.901V27.1951C65.2125 26.7258 65.0266 26.2754 64.6954 25.9427C64.3643 25.6101 63.9149 25.4221 63.4455 25.4199H41.0072C40.5378 25.4221 40.0885 25.6101 39.7573 25.9427C39.4262 26.2754 39.2402 26.7258 39.2402 27.1951V52.901H65.2125Z" fill="white"/>
<path d="M65.2123 53.3281H39.2401C39.1267 53.3281 39.0179 53.283 38.9377 53.2028C38.8575 53.1226 38.8125 53.0139 38.8125 52.9005V27.1946C38.8125 26.6125 39.0437 26.0543 39.4553 25.6428C39.8668 25.2312 40.425 25 41.0071 25H63.4454C64.0274 25 64.5856 25.2312 64.9972 25.6428C65.4088 26.0543 65.64 26.6125 65.64 27.1946V52.9005C65.6411 52.9569 65.6308 53.0132 65.6097 53.0655C65.5886 53.1179 65.5571 53.1655 65.5172 53.2054C65.4772 53.2453 65.4296 53.2767 65.3773 53.2978C65.3249 53.3189 65.2688 53.3292 65.2123 53.3281ZM39.6678 52.4728H64.7847V27.1946C64.7858 27.018 64.752 26.8429 64.6851 26.6795C64.6183 26.516 64.5198 26.3674 64.3953 26.2422C64.2708 26.1169 64.1228 26.0177 63.9598 25.9499C63.7968 25.882 63.6219 25.847 63.4454 25.847H41.0071C40.8305 25.847 40.6557 25.882 40.4927 25.9499C40.3296 26.0177 40.1817 26.1169 40.0572 26.2422C39.9327 26.3674 39.8342 26.516 39.7674 26.6795C39.7005 26.8429 39.6667 27.018 39.6678 27.1946V52.4728Z" fill="#333333"/>
<path d="M46.953 28.9141H44.4357C44.1951 28.9141 44 29.1091 44 29.3498V31.8671C44 32.1077 44.1951 32.3028 44.4357 32.3028H46.953C47.1937 32.3028 47.3887 32.1077 47.3887 31.8671V29.3498C47.3887 29.1091 47.1937 28.9141 46.953 28.9141Z" fill="#235AB0"/>
<path d="M53.4882 28.9141H50.9709C50.7302 28.9141 50.5352 29.1091 50.5352 29.3498V31.8671C50.5352 32.1077 50.7302 32.3028 50.9709 32.3028H53.4882C53.7288 32.3028 53.9239 32.1077 53.9239 31.8671V29.3498C53.9239 29.1091 53.7288 28.9141 53.4882 28.9141Z" fill="#235AB0"/>
<path d="M60.0234 28.9141H57.506C57.2654 28.9141 57.0703 29.1091 57.0703 29.3498V31.8671C57.0703 32.1077 57.2654 32.3028 57.506 32.3028H60.0234C60.264 32.3028 60.459 32.1077 60.459 31.8671V29.3498C60.459 29.1091 60.264 28.9141 60.0234 28.9141Z" fill="#235AB0"/>
<path d="M46.953 34.9492H44.4357C44.1951 34.9492 44 35.1443 44 35.3849V37.9023C44 38.1429 44.1951 38.338 44.4357 38.338H46.953C47.1937 38.338 47.3887 38.1429 47.3887 37.9023V35.3849C47.3887 35.1443 47.1937 34.9492 46.953 34.9492Z" fill="#235AB0"/>
<path d="M53.4882 34.9492H50.9709C50.7302 34.9492 50.5352 35.1443 50.5352 35.3849V37.9023C50.5352 38.1429 50.7302 38.338 50.9709 38.338H53.4882C53.7288 38.338 53.9239 38.1429 53.9239 37.9023V35.3849C53.9239 35.1443 53.7288 34.9492 53.4882 34.9492Z" fill="#235AB0"/>
<path d="M60.0234 34.9492H57.506C57.2654 34.9492 57.0703 35.1443 57.0703 35.3849V37.9023C57.0703 38.1429 57.2654 38.338 57.506 38.338H60.0234C60.264 38.338 60.459 38.1429 60.459 37.9023V35.3849C60.459 35.1443 60.264 34.9492 60.0234 34.9492Z" fill="#235AB0"/>
<path d="M46.953 40.9844H44.4357C44.1951 40.9844 44 41.1794 44 41.4201V43.9374C44 44.178 44.1951 44.3731 44.4357 44.3731H46.953C47.1937 44.3731 47.3887 44.178 47.3887 43.9374V41.4201C47.3887 41.1794 47.1937 40.9844 46.953 40.9844Z" fill="#235AB0"/>
<path d="M53.4882 40.9844H50.9709C50.7302 40.9844 50.5352 41.1794 50.5352 41.4201V43.9374C50.5352 44.178 50.7302 44.3731 50.9709 44.3731H53.4882C53.7288 44.3731 53.9239 44.178 53.9239 43.9374V41.4201C53.9239 41.1794 53.7288 40.9844 53.4882 40.9844Z" fill="#235AB0"/>
<path d="M60.0234 40.9844H57.506C57.2654 40.9844 57.0703 41.1794 57.0703 41.4201V43.9374C57.0703 44.178 57.2654 44.3731 57.506 44.3731H60.0234C60.264 44.3731 60.459 44.178 60.459 43.9374V41.4201C60.459 41.1794 60.264 40.9844 60.0234 40.9844Z" fill="#235AB0"/>
</g>
<defs>
<clipPath id="clip0_1096_175289">
<rect width="47.5149" height="50" fill="white" transform="translate(28 25)"/>
</clipPath>
</defs>
</svg>
