<svg width="100" height="100" viewBox="0 0 100 100" fill="none" xmlns="http://www.w3.org/2000/svg">
<circle cx="50" cy="50" r="50" fill="#F2F6FB"/>
<g clip-path="url(#clip0_1856_378786)">
<path d="M68.8009 25.2002H33.9609V74.8502H68.8009V25.2002Z" fill="white"/>
<path d="M68.5809 75.5298H34.1809C34.0864 75.5298 33.9927 75.5113 33.9054 75.4751C33.818 75.4389 33.7387 75.3857 33.6718 75.3188C33.605 75.252 33.5519 75.1726 33.5157 75.0852C33.4796 74.9979 33.4609 74.9044 33.4609 74.8098V25.6897C33.4609 25.5951 33.4796 25.5017 33.5157 25.4143C33.5519 25.327 33.605 25.2475 33.6718 25.1807C33.7387 25.1138 33.818 25.0608 33.9054 25.0247C33.9927 24.9885 34.0864 24.9697 34.1809 24.9697H68.5809C68.6755 24.9697 68.7691 24.9885 68.8565 25.0247C68.9438 25.0608 69.0232 25.1138 69.0901 25.1807C69.1569 25.2475 69.2099 25.327 69.2461 25.4143C69.2823 25.5017 69.3009 25.5951 69.3009 25.6897V74.8098C69.3009 74.9044 69.2823 74.9979 69.2461 75.0852C69.2099 75.1726 69.1569 75.252 69.0901 75.3188C69.0232 75.3857 68.9438 75.4389 68.8565 75.4751C68.7691 75.5113 68.6755 75.5298 68.5809 75.5298ZM34.4309 74.5298H68.2709V25.9697H34.4309V74.5298Z" fill="#333333"/>
<path d="M48.3111 31.9502H38.8711V32.9502H48.3111V31.9502Z" fill="#333333"/>
<path d="M63.7213 68.3496H54.2812V69.3496H63.7213V68.3496Z" fill="#333333"/>
<path d="M63.7992 39.3799H38.9492V40.3799H63.7992V39.3799Z" fill="#333333"/>
<path d="M63.7992 46.7998H38.9492V47.7998H63.7992V46.7998Z" fill="#333333"/>
<path d="M63.7992 54.2305H38.9492V55.2305H63.7992V54.2305Z" fill="#333333"/>
<path d="M38.07 79.4203C43.9076 79.4203 48.64 74.6879 48.64 68.8503C48.64 63.0126 43.9076 58.2803 38.07 58.2803C32.2323 58.2803 27.5 63.0126 27.5 68.8503C27.5 74.6879 32.2323 79.4203 38.07 79.4203Z" fill="#235AB0"/>
<path d="M38.07 79.9202C35.8806 79.9202 33.7403 79.2711 31.9198 78.0547C30.0994 76.8383 28.6805 75.1095 27.8427 73.0867C27.0048 71.0639 26.7856 68.8381 27.2127 66.6907C27.6399 64.5433 28.6941 62.5709 30.2423 61.0227C31.7905 59.4746 33.763 58.4201 35.9103 57.9929C38.0577 57.5658 40.2835 57.7852 42.3063 58.6231C44.3291 59.4609 46.058 60.8798 47.2744 62.7002C48.4907 64.5207 49.14 66.6609 49.14 68.8504C49.1373 71.7855 47.9702 74.5996 45.8948 76.6751C43.8193 78.7505 41.0051 79.9175 38.07 79.9202ZM38.07 58.7803C36.0784 58.7803 34.1314 59.3708 32.4754 60.4773C30.8194 61.5838 29.5287 63.1565 28.7665 64.9966C28.0044 66.8367 27.8049 68.8616 28.1935 70.815C28.582 72.7683 29.5411 74.5627 30.9494 75.971C32.3578 77.3793 34.1521 78.3383 36.1054 78.7268C38.0588 79.1154 40.0836 78.916 41.9236 78.1538C43.7637 77.3917 45.3364 76.1008 46.4429 74.4448C47.5494 72.7888 48.14 70.842 48.14 68.8504C48.1373 66.1804 47.0755 63.6206 45.1876 61.7327C43.2997 59.8448 40.7399 58.7829 38.07 58.7803Z" fill="#333333"/>
<path d="M34.6402 75.2801L31.6602 67.9001L33.0502 67.3301L35.1302 72.4801L43.2202 63.3301L44.3502 64.3201L34.6402 75.2801Z" fill="white"/>
</g>
<defs>
<clipPath id="clip0_1856_378786">
<rect width="42.3" height="54.92" fill="white" transform="translate(27 25)"/>
</clipPath>
</defs>
</svg>
