<svg width="40" height="31" viewBox="0 0 40 31" fill="none" xmlns="http://www.w3.org/2000/svg">
<g clip-path="url(#clip0_891_226351)">
<path d="M31.19 16.0219C26.07 16.0219 22.62 11.0218 22.57 10.9518C22.13 10.3418 21.45 9.62176 20.74 9.67176C20.03 9.72176 19.36 10.6718 19.18 11.0018C18.9816 11.6535 18.6497 12.2566 18.2055 12.7731C17.7614 13.2896 17.2146 13.7081 16.6 14.0018C16.1483 14.1598 15.6687 14.2218 15.1918 14.184C14.7148 14.1461 14.251 14.0089 13.83 13.7816C13.4154 13.5679 13.0886 13.2163 12.906 12.7872C12.7234 12.3581 12.6965 11.8786 12.83 11.4318L13.71 8.43177C13.9253 7.68846 14.301 7.00135 14.8107 6.41907C15.3204 5.83679 15.9517 5.37341 16.66 5.06165L19.99 3.60169C21.3116 3.09333 22.765 3.04064 24.12 3.45178L32.63 5.45178L38.63 3.21179C38.7067 3.18131 38.7887 3.16644 38.8713 3.16809C38.9538 3.16975 39.0352 3.18778 39.1107 3.22132C39.1861 3.25485 39.2541 3.30324 39.3107 3.36341C39.3672 3.42357 39.4112 3.49427 39.44 3.57166C39.4982 3.72814 39.492 3.90147 39.4226 4.05335C39.3532 4.20523 39.2264 4.3233 39.07 4.38172L32.74 6.76184L23.88 4.66175C22.7832 4.31177 21.6012 4.33647 20.52 4.73181L17.2 6.19177C16.6585 6.42748 16.1759 6.78014 15.7868 7.22449C15.3978 7.66884 15.112 8.19393 14.95 8.76184L14.07 11.7618C14.0188 11.925 14.0258 12.1006 14.0896 12.2592C14.1534 12.4178 14.2701 12.5494 14.42 12.6317C14.6875 12.7847 14.9842 12.8798 15.2908 12.9108C15.5975 12.9418 15.9072 12.908 16.2 12.8116C16.6514 12.5687 17.05 12.2387 17.3727 11.8405C17.6955 11.4422 17.9359 10.9838 18.08 10.4918C18.14 10.3718 19.08 8.57177 20.67 8.44177C21.67 8.34177 22.67 8.96182 23.67 10.2418C23.89 10.5718 28.93 17.8416 35.67 13.3016C35.7379 13.2548 35.8146 13.222 35.8955 13.2052C35.9763 13.1884 36.0597 13.1879 36.1407 13.2037C36.2218 13.2196 36.2988 13.2515 36.3674 13.2975C36.4359 13.3435 36.4946 13.4028 36.54 13.4718C36.5868 13.5398 36.6196 13.6163 36.6365 13.6971C36.6533 13.778 36.6538 13.8615 36.638 13.9425C36.6221 14.0235 36.5903 14.1005 36.5443 14.1691C36.4982 14.2376 36.439 14.2963 36.37 14.3417C34.8553 15.4173 33.0476 16.0037 31.19 16.0219Z" fill="#333333"/>
<path d="M32.09 20.5315C31.9769 20.5318 31.8659 20.5015 31.769 20.4433C31.672 20.3852 31.5929 20.3016 31.54 20.2016C31.4609 20.0541 31.4428 19.8815 31.4895 19.7207C31.5362 19.5599 31.6441 19.4237 31.79 19.3415L38.51 15.7117C38.582 15.6714 38.6613 15.6459 38.7433 15.6367C38.8253 15.6275 38.9084 15.6347 38.9875 15.6579C39.0667 15.6812 39.1404 15.7201 39.2044 15.7722C39.2683 15.8243 39.3212 15.8888 39.36 15.9617C39.4005 16.0344 39.4261 16.1145 39.4355 16.1973C39.4448 16.28 39.4377 16.3639 39.4144 16.4438C39.3912 16.5238 39.3523 16.5982 39.3 16.6631C39.2478 16.7279 39.1832 16.7818 39.11 16.8215L32.39 20.4516C32.2976 20.5014 32.1949 20.5287 32.09 20.5315Z" fill="#333333"/>
<path d="M31.4 24.699C31.0417 24.6991 30.6872 24.6255 30.3586 24.4827C30.03 24.3399 29.7343 24.1309 29.49 23.8689L22.73 16.689C22.6707 16.632 22.6235 16.5636 22.5913 16.488C22.5591 16.4124 22.5425 16.3312 22.5425 16.249C22.5425 16.1668 22.5591 16.0854 22.5913 16.0098C22.6235 15.9342 22.6707 15.8658 22.73 15.8088C22.8481 15.691 23.0081 15.625 23.175 15.625C23.3418 15.625 23.5019 15.691 23.62 15.8088L30.38 22.989C30.5406 23.1606 30.7429 23.2876 30.9673 23.3577C31.1916 23.4278 31.4303 23.4385 31.66 23.3889C31.8893 23.3394 32.1018 23.2314 32.2771 23.0754C32.4523 22.9195 32.5842 22.721 32.66 22.499C32.723 22.3184 32.7396 22.1245 32.7081 21.9358C32.6767 21.747 32.5982 21.5694 32.48 21.4189L27.95 16.749C27.8321 16.6309 27.7659 16.4708 27.7659 16.304C27.7659 16.1371 27.8321 15.977 27.95 15.8589C28.0681 15.741 28.2281 15.6748 28.395 15.6748C28.5618 15.6748 28.7219 15.741 28.84 15.8589L33.4 20.5789C33.6672 20.8948 33.8473 21.275 33.9227 21.6819C33.9981 22.0887 33.9662 22.5082 33.83 22.8989C33.6807 23.3256 33.4236 23.7063 33.0837 24.0042C32.7438 24.302 32.3325 24.5069 31.89 24.5989C31.7303 24.6481 31.5662 24.6817 31.4 24.699Z" fill="#333333"/>
<path d="M28.02 27.1401C27.5348 27.1398 27.0547 27.0403 26.6093 26.8477C26.1639 26.6551 25.7626 26.3736 25.43 26.0203L19.74 20.0701C19.6222 19.952 19.556 19.7921 19.556 19.6252C19.556 19.4584 19.6222 19.2983 19.74 19.1802C19.8581 19.0623 20.0182 18.9961 20.185 18.9961C20.3519 18.9961 20.5119 19.0623 20.63 19.1802L26.32 25.1802C26.6019 25.475 26.956 25.6911 27.3472 25.8069C27.7384 25.9227 28.153 25.934 28.55 25.8401C28.934 25.7532 29.2884 25.5673 29.578 25.3005C29.8675 25.0338 30.082 24.6956 30.2 24.3201C30.2511 24.1552 30.3638 24.0165 30.5147 23.9326C30.6656 23.8488 30.843 23.8263 31.01 23.8701C31.0874 23.8872 31.1604 23.9204 31.2243 23.9673C31.2882 24.0142 31.3416 24.0739 31.3811 24.1426C31.4206 24.2113 31.4454 24.2874 31.4538 24.3662C31.4622 24.445 31.4541 24.5246 31.43 24.6001C31.2562 25.2052 30.9233 25.7526 30.466 26.1853C30.0087 26.618 29.4438 26.92 28.83 27.0601C28.5635 27.1148 28.2921 27.1416 28.02 27.1401Z" fill="#333333"/>
<path d="M24.36 29.3213H24.17C23.6987 29.2902 23.2384 29.1656 22.816 28.9543C22.3936 28.7431 22.0176 28.4497 21.71 28.0913L17 22.8713C16.9448 22.8096 16.9023 22.7378 16.8749 22.6597C16.8476 22.5815 16.8359 22.4987 16.8405 22.416C16.8452 22.3334 16.8661 22.2523 16.902 22.1777C16.9379 22.1032 16.9882 22.0366 17.05 21.9814C17.1078 21.9219 17.1769 21.8744 17.2534 21.842C17.3298 21.8097 17.412 21.793 17.495 21.793C17.578 21.793 17.6601 21.8097 17.7366 21.842C17.813 21.8744 17.8822 21.9219 17.94 21.9814L22.64 27.2014C23.0442 27.6752 23.6194 27.97 24.24 28.0215C24.7426 28.0201 25.2343 27.8741 25.6562 27.6011C26.0782 27.328 26.4128 26.9394 26.62 26.4814C26.663 26.4102 26.7198 26.3482 26.787 26.2991C26.8541 26.2499 26.9303 26.2146 27.0112 26.1951C27.0921 26.1755 27.1761 26.1722 27.2582 26.1853C27.3404 26.1984 27.4192 26.2278 27.49 26.2715C27.6311 26.3584 27.7322 26.4972 27.7715 26.6582C27.8108 26.8192 27.7851 26.9892 27.7 27.1313C27.3959 27.7663 26.924 28.3059 26.3353 28.6919C25.7465 29.0779 25.0635 29.2955 24.36 29.3213Z" fill="#333333"/>
<path d="M20.76 30.4588C20.0959 30.4578 19.458 30.1998 18.98 29.7389L5.30998 15.9588L0.459985 14.6488C0.299957 14.6043 0.163936 14.4985 0.0815362 14.3543C-0.000863932 14.2101 -0.0229798 14.0392 0.0199822 13.8787C0.0645657 13.7183 0.169916 13.5817 0.313683 13.4976C0.457451 13.4136 0.628319 13.3889 0.789986 13.4288L5.96998 14.8287L19.86 28.8287C20.0364 28.9934 20.2546 29.1067 20.4909 29.1561C20.7271 29.2055 20.9724 29.189 21.2 29.1087C21.4197 29.0393 21.6149 28.9081 21.7621 28.7308C21.9092 28.5535 22.0023 28.3375 22.03 28.1087C22.0592 27.9454 22.148 27.7987 22.2792 27.6971C22.4103 27.5955 22.5745 27.5462 22.74 27.5587C22.9002 27.5739 23.0479 27.6519 23.1509 27.7755C23.2539 27.8991 23.3039 28.0585 23.29 28.2188C23.2844 28.2519 23.2844 28.2856 23.29 28.3187C23.2314 28.7766 23.043 29.2082 22.7471 29.5626C22.4512 29.917 22.0601 30.1793 21.62 30.3187C21.3439 30.4159 21.0527 30.4635 20.76 30.4588Z" fill="#333333"/>
<path d="M6.63 23.4893C6.10098 23.4894 5.58837 23.3055 5.18 22.9692C4.9591 22.7867 4.7771 22.5616 4.64483 22.3074C4.51256 22.0531 4.43271 21.7749 4.41 21.4893C4.38953 21.2031 4.42678 20.9157 4.51954 20.6443C4.61231 20.3729 4.75869 20.1229 4.94999 19.9092L7.41 17.2192C7.52811 17.1014 7.68814 17.0352 7.85499 17.0352C8.02184 17.0352 8.18189 17.1014 8.3 17.2192C8.35805 17.2769 8.40412 17.3454 8.43556 17.4209C8.467 17.4964 8.4832 17.5774 8.4832 17.6592C8.4832 17.741 8.467 17.8219 8.43556 17.8975C8.40412 17.973 8.35805 18.0415 8.3 18.0991L5.83999 20.7891C5.7645 20.8746 5.707 20.9745 5.67093 21.0828C5.63485 21.191 5.62093 21.3055 5.63 21.4192C5.65004 21.6551 5.76124 21.8738 5.94 22.0291C6.04068 22.1154 6.15751 22.1809 6.28372 22.2217C6.40992 22.2624 6.54297 22.2775 6.67512 22.2664C6.80727 22.2552 6.93587 22.2181 7.05345 22.1567C7.17103 22.0954 7.27523 22.0112 7.36 21.9092C7.41513 21.8474 7.48189 21.7972 7.55647 21.7612C7.63105 21.7253 7.71197 21.7044 7.79463 21.6997C7.87728 21.6951 7.96005 21.7068 8.03819 21.7341C8.11632 21.7615 8.18829 21.8039 8.25 21.8591C8.31214 21.9127 8.36305 21.9781 8.39975 22.0515C8.43645 22.1249 8.45822 22.2048 8.4638 22.2866C8.46938 22.3685 8.45866 22.4506 8.43226 22.5283C8.40586 22.606 8.3643 22.6778 8.30999 22.7393C8.09782 22.9746 7.83873 23.1628 7.54939 23.292C7.26005 23.4212 6.94687 23.4884 6.63 23.4893Z" fill="#333333"/>
<path d="M8.69998 26.6504C8.10096 26.6497 7.52226 26.4331 7.06999 26.0403C6.82264 25.8275 6.62009 25.5677 6.47416 25.2759C6.32824 24.984 6.24184 24.6659 6.21998 24.3403C6.19641 24.0156 6.23728 23.6893 6.34025 23.3804C6.44322 23.0715 6.60627 22.786 6.81999 22.5403L9.16998 19.9604C9.28765 19.8456 9.44556 19.7812 9.60998 19.7812C9.7744 19.7812 9.93231 19.8456 10.05 19.9604C10.1117 20.0156 10.162 20.0824 10.198 20.157C10.2339 20.2316 10.2548 20.3124 10.2594 20.395C10.2641 20.4777 10.2524 20.5605 10.225 20.6387C10.1977 20.7168 10.1552 20.7886 10.1 20.8503L7.75998 23.4104C7.55398 23.6552 7.4533 23.9715 7.47998 24.2903C7.48876 24.4516 7.53057 24.6094 7.60281 24.7539C7.67506 24.8984 7.77621 25.0266 7.89999 25.1304C8.01793 25.2359 8.15558 25.3172 8.30504 25.3694C8.45449 25.4215 8.61278 25.4434 8.77079 25.4341C8.92881 25.4248 9.08343 25.3845 9.22574 25.3152C9.36804 25.2459 9.49524 25.1489 9.59999 25.0303L10.87 23.6504C10.9881 23.5325 11.1481 23.4663 11.315 23.4663C11.4818 23.4663 11.6419 23.5325 11.76 23.6504C11.8778 23.7685 11.944 23.9286 11.944 24.0955C11.944 24.2623 11.8778 24.4222 11.76 24.5403L10.49 25.9204C10.2564 26.1567 9.97733 26.343 9.66969 26.4685C9.36205 26.594 9.03218 26.6559 8.69998 26.6504Z" fill="#333333"/>
<path d="M11.87 28.6506C11.2466 28.6514 10.6461 28.4156 10.19 27.9907C9.71469 27.5472 9.43343 26.934 9.40722 26.2844C9.38101 25.6348 9.61197 25.0012 10.05 24.5208L12.05 22.3906C12.1069 22.3313 12.1752 22.2842 12.2509 22.252C12.3265 22.2197 12.4078 22.2031 12.49 22.2031C12.5722 22.2031 12.6535 22.2197 12.7291 22.252C12.8047 22.2842 12.8731 22.3313 12.93 22.3906C12.9896 22.4484 13.0369 22.5176 13.0693 22.594C13.1016 22.6704 13.1183 22.7527 13.1183 22.8357C13.1183 22.9187 13.1016 23.0007 13.0693 23.0771C13.0369 23.1536 12.9896 23.2227 12.93 23.2805L10.98 25.4106C10.7643 25.6449 10.6496 25.9547 10.6609 26.2729C10.6721 26.5912 10.8083 26.8921 11.04 27.1106C11.2747 27.3294 11.5867 27.4461 11.9074 27.4348C12.2281 27.4236 12.5312 27.2852 12.75 27.0505L13.61 26.1406C13.7281 26.0228 13.8882 25.9565 14.055 25.9565C14.2219 25.9565 14.3819 26.0228 14.5 26.1406C14.6148 26.2583 14.6791 26.4161 14.6791 26.5806C14.6791 26.745 14.6148 26.9031 14.5 27.0208L13.64 27.9407C13.4064 28.17 13.1298 28.3508 12.826 28.4727C12.5222 28.5945 12.1973 28.6549 11.87 28.6506Z" fill="#333333"/>
<path d="M14.89 30.5283C14.2823 30.5345 13.6966 30.3011 13.26 29.8784C12.8093 29.4451 12.5472 28.8518 12.5303 28.2268C12.5135 27.6018 12.7433 26.9953 13.17 26.5383L14.77 24.8484C14.8278 24.7888 14.8969 24.7416 14.9734 24.7092C15.0498 24.6769 15.132 24.6602 15.215 24.6602C15.298 24.6602 15.3801 24.6769 15.4566 24.7092C15.533 24.7416 15.6022 24.7888 15.66 24.8484C15.7778 24.9665 15.844 25.1266 15.844 25.2935C15.844 25.4603 15.7778 25.6204 15.66 25.7385L14.06 27.4385C13.9572 27.5407 13.8756 27.6623 13.8199 27.7961C13.7643 27.93 13.7356 28.0735 13.7356 28.2185C13.7356 28.3635 13.7643 28.507 13.8199 28.6409C13.8756 28.7747 13.9572 28.8963 14.06 28.9985C14.1622 29.1013 14.2837 29.1829 14.4176 29.2385C14.5514 29.2942 14.695 29.3228 14.84 29.3228C14.9849 29.3228 15.1285 29.2942 15.2623 29.2385C15.3962 29.1829 15.5177 29.1013 15.62 28.9985L17.32 27.3584C17.4381 27.2405 17.5981 27.1743 17.765 27.1743C17.9318 27.1743 18.0919 27.2405 18.21 27.3584C18.3278 27.4765 18.394 27.6366 18.394 27.8035C18.394 27.9703 18.3278 28.1304 18.21 28.2485L16.53 29.8684C16.0924 30.2972 15.5025 30.5345 14.89 30.5283Z" fill="#333333"/>
<path d="M18.49 5.37131C18.4371 5.38045 18.383 5.38045 18.33 5.37131L2.24001 1.26145C2.16025 1.24163 2.08522 1.20602 2.01929 1.15695C1.95336 1.10788 1.89784 1.04628 1.85596 0.975557C1.81409 0.904838 1.78671 0.826491 1.77538 0.745089C1.76406 0.663686 1.76903 0.580899 1.79002 0.501436C1.83023 0.339913 1.93273 0.200664 2.07513 0.114473C2.21753 0.0282831 2.38826 0.00195253 2.55001 0.0412312L18.65 4.16135C18.8097 4.20373 18.9463 4.30704 19.0305 4.44919C19.1147 4.59134 19.1396 4.76098 19.1 4.92136C19.0624 5.05328 18.9822 5.16903 18.8718 5.25046C18.7614 5.33189 18.6271 5.37434 18.49 5.37131Z" fill="#333333"/>
</g>
<defs>
<clipPath id="clip0_891_226351">
<rect width="39.44" height="30.53" fill="white"/>
</clipPath>
</defs>
</svg>
