<svg width="100" height="100" viewBox="0 0 100 100" fill="none" xmlns="http://www.w3.org/2000/svg">
<circle cx="50" cy="50" r="50" fill="#F2F6FB"/>
<g clip-path="url(#clip0_1102_180983)">
<path d="M25.7812 48.5496L30.6112 53.4296L44.9012 39.3996L52.0912 46.6896L61.2812 41.9396L69.1712 33.8796L72.4613 37.2996V25.3896H60.3512L64.2812 29.3096L54.2512 38.6496L44.8212 29.3096L25.7812 48.5496Z" fill="#235AB0"/>
<path d="M30.73 54.2397L25 48.5098L44.74 28.7698L54.25 38.2798L63.51 29.0098L59.51 25.0098H72.99V38.4998L69.24 34.7397L62.03 41.9597C61.9293 42.0569 61.7949 42.1113 61.655 42.1113C61.5151 42.1113 61.3807 42.0569 61.28 41.9597C61.2307 41.9105 61.1916 41.8522 61.1649 41.7878C61.1383 41.7235 61.1245 41.6544 61.1245 41.5847C61.1245 41.5151 61.1383 41.4462 61.1649 41.3818C61.1916 41.3175 61.2307 41.2589 61.28 41.2097L69.28 33.2097L71.97 35.8999V26.0298H62.1L65.05 28.9797L54.29 39.7397L44.78 30.2397L26.48 48.5098L30.71 52.7397L44.71 38.7397L51.09 45.1199C51.1402 45.1675 51.1802 45.2247 51.2076 45.2883C51.2349 45.3519 51.249 45.4205 51.249 45.4897C51.249 45.559 51.2349 45.6276 51.2076 45.6912C51.1802 45.7548 51.1402 45.8122 51.09 45.8599C51.0408 45.9091 50.9823 45.9482 50.918 45.9749C50.8537 46.0015 50.7847 46.0154 50.715 46.0154C50.6453 46.0154 50.5764 46.0015 50.512 45.9749C50.4477 45.9482 50.3892 45.9091 50.34 45.8599L44.71 40.2297L30.73 54.2397Z" fill="#333333"/>
<path d="M64.9588 58.5265L62.5859 59.8965L63.9559 62.2694L66.3288 60.8994L64.9588 58.5265Z" fill="white"/>
<path d="M63.8795 62.9097L62.0195 59.6697L65.2495 57.8096L67.1195 61.0396L63.8795 62.9097ZM63.3795 60.0396L64.2495 61.5396L65.7495 60.6794L64.8795 59.1697L63.3795 60.0396Z" fill="#333333"/>
<path d="M67.3916 46.2094C66.1301 44.0231 64.052 42.4273 61.6142 41.7729C59.1764 41.1184 56.5784 41.4589 54.3916 42.7194C52.209 43.9844 50.6171 46.0633 49.9648 48.5002C49.3125 50.937 49.6529 53.5331 50.9116 55.7194C52.1767 57.9019 54.2555 59.4941 56.6924 60.1464C59.1292 60.7987 61.7253 60.458 63.9116 59.1994C66.0935 57.9362 67.6852 55.8592 68.3376 53.424C68.99 50.9887 68.6498 48.3941 67.3916 46.2094ZM62.3916 56.6396C61.6464 57.0699 60.8238 57.349 59.9706 57.4613C59.1174 57.5736 58.2505 57.5167 57.4193 57.2939C56.5882 57.071 55.809 56.6866 55.1265 56.1625C54.444 55.6384 53.8715 54.9849 53.4416 54.2394C53.0034 53.4921 52.7178 52.6655 52.6013 51.807C52.4848 50.9486 52.5397 50.0755 52.7629 49.2384C52.9862 48.4014 53.3732 47.617 53.9016 46.9306C54.4301 46.2441 55.0895 45.6693 55.8416 45.2394C57.3472 44.3729 59.135 44.1391 60.8128 44.589C62.4906 45.0389 63.9215 46.136 64.7916 47.6396C65.231 48.385 65.5184 49.2101 65.6371 50.0673C65.7558 50.9245 65.7034 51.7969 65.483 52.6337C65.2627 53.4705 64.8787 54.2552 64.3532 54.9428C63.8277 55.6303 63.1712 56.2072 62.4216 56.6396H62.3916Z" fill="white"/>
<path d="M59.1596 60.9901C58.2785 60.991 57.4011 60.8768 56.5496 60.6502C55.277 60.3112 54.0839 59.7241 53.0388 58.9227C51.9937 58.1213 51.1172 57.1212 50.4596 55.9801C49.7988 54.841 49.3694 53.5825 49.1962 52.277C49.023 50.9714 49.1094 49.6447 49.4504 48.3727C49.7914 47.1006 50.3804 45.9084 51.1833 44.8646C51.9863 43.8208 52.9876 42.9459 54.1296 42.2901C55.2691 41.6277 56.5284 41.1971 57.835 41.023C59.1415 40.849 60.4696 40.9352 61.7428 41.2762C63.016 41.6173 64.2092 42.2067 65.2538 43.0106C66.2984 43.8145 67.1738 44.8167 67.8296 45.9601C68.4879 47.0988 68.9152 48.3564 69.0868 49.6605C69.2583 50.9646 69.171 52.2898 68.8296 53.5602C68.4906 54.8328 67.9035 56.0258 67.1021 57.0709C66.3007 58.116 65.3007 58.9927 64.1596 59.6502C62.6394 60.528 60.915 60.99 59.1596 60.9901ZM59.1596 41.9901C57.5807 41.9911 56.0294 42.4048 54.6596 43.19C53.6308 43.7805 52.7289 44.5686 52.0058 45.5089C51.2826 46.4491 50.7524 47.5232 50.4457 48.669C50.1391 49.8149 50.0619 51.0101 50.2187 52.1859C50.3756 53.3617 50.7633 54.4947 51.3596 55.5201C51.949 56.5485 52.737 57.4495 53.6778 58.1705C54.6186 58.8916 55.6933 59.4182 56.8396 59.7201C57.9839 60.0331 59.1791 60.1148 60.3553 59.9603C61.5315 59.8058 62.665 59.4181 63.6896 58.8202C64.7159 58.2282 65.6152 57.4393 66.336 56.4989C67.0567 55.5585 67.5847 54.4851 67.8896 53.3402C68.1968 52.1969 68.2755 51.0041 68.121 49.8304C67.9666 48.6567 67.5821 47.525 66.9896 46.5001C66.2005 45.1129 65.0568 43.9605 63.6756 43.161C62.2944 42.3615 60.7255 41.9435 59.1296 41.9501L59.1596 41.9901ZM59.1596 58.0602C57.9193 58.0612 56.7006 57.7355 55.6263 57.1158C54.5519 56.4961 53.6597 55.6042 53.0396 54.5301C52.5701 53.7301 52.2642 52.8449 52.1399 51.9256C52.0155 51.0064 52.075 50.0714 52.3151 49.1754C52.5551 48.2794 52.9709 47.4401 53.5382 46.7062C54.1055 45.9722 54.813 45.3584 55.6196 44.9002C57.2394 43.9682 59.1627 43.7162 60.9678 44.1998C62.773 44.6834 64.3127 45.863 65.2496 47.4801C65.7161 48.2805 66.019 49.1657 66.1409 50.0841C66.2628 51.0025 66.2012 51.9358 65.9596 52.8302C65.7218 53.7258 65.3086 54.5654 64.7438 55.3001C64.179 56.0349 63.474 56.6501 62.6696 57.1102C61.5998 57.7166 60.3892 58.0303 59.1596 58.0201V58.0602ZM59.1596 44.9601C58.1073 44.9631 57.0737 45.2387 56.1596 45.7601C54.7696 46.5634 53.7551 47.8854 53.3389 49.4359C52.9227 50.9864 53.1387 52.6387 53.9396 54.0301C54.7429 55.4201 56.0649 56.4347 57.6154 56.8509C59.1659 57.2672 60.8182 57.051 62.2096 56.2501C62.9003 55.8544 63.5053 55.3252 63.9894 54.6935C64.4735 54.0617 64.8271 53.34 65.0296 52.5702C65.2385 51.8035 65.2931 51.0029 65.1901 50.2149C65.0871 49.427 64.8286 48.6673 64.4296 47.9801C63.8972 47.0456 63.1257 46.2698 62.1943 45.732C61.2628 45.1943 60.2051 44.9141 59.1296 44.9203L59.1596 44.9601Z" fill="#333333"/>
<path d="M67.0338 60.4875L63.2406 62.6775C63.0732 62.7742 63.0158 62.9881 63.1124 63.1555L69.8574 74.8382C69.9541 75.0056 70.1682 75.063 70.3356 74.9664L74.1288 72.7764C74.2962 72.6797 74.3535 72.4656 74.2568 72.2982L67.5118 60.6155C67.4152 60.4481 67.2012 60.3909 67.0338 60.4875Z" fill="#235AB0"/>
<path d="M70.2816 75.4696C70.2087 75.48 70.1346 75.48 70.0616 75.4696C69.9525 75.4412 69.8503 75.3914 69.761 75.3226C69.6716 75.2539 69.597 75.1679 69.5416 75.0697L62.8016 63.3998C62.7444 63.3028 62.707 63.1954 62.6916 63.0839C62.6762 62.9723 62.6831 62.8587 62.712 62.7499C62.7408 62.641 62.791 62.5389 62.8596 62.4496C62.9282 62.3603 63.0139 62.2855 63.1116 62.2296L66.8916 60.0497C66.9886 59.9924 67.096 59.955 67.2076 59.9396C67.3191 59.9242 67.4326 59.9313 67.5415 59.9601C67.6503 59.9889 67.7524 60.0389 67.8417 60.1076C67.931 60.1762 68.0057 60.262 68.0616 60.3598L74.8016 72.0297C74.8589 72.1266 74.8963 72.234 74.9117 72.3456C74.9271 72.4571 74.9202 72.5707 74.8913 72.6796C74.8625 72.7884 74.8123 72.8903 74.7437 72.9796C74.6751 73.0689 74.5894 73.1437 74.4917 73.1996L70.7016 75.3798C70.5726 75.448 70.4273 75.479 70.2816 75.4696ZM63.7316 62.9896L70.3316 74.4198L73.8616 72.4198L67.2716 60.9996L63.7316 62.9896Z" fill="#333333"/>
</g>
<defs>
<clipPath id="clip0_1102_180983">
<rect width="49.91" height="50.47" fill="white" transform="translate(25 25)"/>
</clipPath>
</defs>
</svg>
