<svg width="100" height="100" viewBox="0 0 100 100" fill="none" xmlns="http://www.w3.org/2000/svg">
<circle cx="50" cy="50" r="50" fill="#F2F6FB"/>
<g clip-path="url(#clip0_1075_171959)">
<path d="M37.0625 61.0117V32.4805H62.5V66.4805H43.8333L37.0625 61.0117Z" fill="white"/>
<path d="M33.5827 45.9583L32.4473 44.6354L34.6348 42.875L35.916 43.8229L33.5827 45.9583Z" fill="#235AB0"/>
<path d="M34.9473 47.1667L37.0827 45.0625L46.3952 54.4062L46.666 55.0833L44.5827 56.875L34.9473 47.1667Z" fill="#235AB0"/>
<path d="M61.7194 47.2617L59.834 49.1367L65.4381 54.8346H66.6986L67.5215 54.2721V52.9805L61.7194 47.2617Z" fill="#235AB0"/>
<path d="M37.5417 42.3648C37.4154 42.3621 37.2951 42.3106 37.2058 42.2213C37.1165 42.132 37.0652 42.0119 37.0625 41.8856V32.5106C37.0625 32.3835 37.113 32.2615 37.2028 32.1716C37.2927 32.0818 37.4146 32.0312 37.5417 32.0312H62.0312C62.1583 32.0312 62.2802 32.0818 62.3701 32.1716C62.4599 32.2615 62.5104 32.3835 62.5104 32.5106V37.4481C62.5077 37.5734 62.456 37.6926 62.3664 37.7803C62.2769 37.8679 62.1565 37.9168 62.0312 37.9168C61.906 37.9168 61.7856 37.8679 61.6961 37.7803C61.6065 37.6926 61.5548 37.5734 61.5521 37.4481V32.9898H38.0208V41.9167C38.0129 42.0382 37.9589 42.1524 37.8699 42.2356C37.7809 42.3188 37.6635 42.365 37.5417 42.3648Z" fill="#333333"/>
<path d="M62.0312 67.5848H43.6354C43.5113 67.5826 43.3925 67.5342 43.3021 67.4492L37.2083 61.3556C37.1162 61.2648 37.0638 61.1411 37.0625 61.0118V53.0848C37.0652 52.9586 37.1165 52.8382 37.2058 52.7489C37.2951 52.6596 37.4154 52.6081 37.5417 52.6055C37.6687 52.6055 37.7906 52.656 37.8805 52.7458C37.9704 52.8357 38.0208 52.9578 38.0208 53.0848V60.8139L43.8333 66.6369H61.5417V53.5535C61.5443 53.4273 61.5956 53.3069 61.6849 53.2176C61.7742 53.1283 61.8946 53.0771 62.0208 53.0744C62.1471 53.0771 62.2674 53.1283 62.3567 53.2176C62.446 53.3069 62.4973 53.4273 62.5 53.5535V67.0952C62.5014 67.1581 62.4903 67.2207 62.4675 67.2793C62.4447 67.338 62.4106 67.3915 62.367 67.437C62.3235 67.4825 62.2715 67.519 62.2138 67.5443C62.1562 67.5697 62.0942 67.5834 62.0312 67.5848Z" fill="#333333"/>
<path d="M43.6356 67.5834C43.5738 67.5844 43.5124 67.5731 43.4551 67.5498C43.3978 67.5265 43.3458 67.4917 43.3023 67.4478L37.2085 61.3542C37.1417 61.2873 37.0962 61.2022 37.0777 61.1096C37.0591 61.0169 37.0684 60.9208 37.1044 60.8334C37.1404 60.7462 37.2009 60.6713 37.2785 60.6177C37.3561 60.5641 37.4476 60.5341 37.5418 60.5312H43.6981C43.8274 60.5325 43.951 60.5849 44.0418 60.677C44.1286 60.7663 44.1771 60.8859 44.1773 61.0104V67.1042C44.1786 67.1994 44.1516 67.2928 44.0997 67.3725C44.0477 67.4523 43.9732 67.5148 43.8856 67.5521C43.8055 67.5803 43.7202 67.5909 43.6356 67.5834ZM38.6981 61.4895L43.1668 65.9583V61.4895H38.6981Z" fill="#333333"/>
<path d="M66.1766 55.416C65.9368 55.4173 65.6992 55.3709 65.4775 55.2797C65.2558 55.1885 65.0544 55.0543 64.8849 54.8848L59.6766 49.6764C59.606 49.6093 59.5498 49.5284 59.5114 49.4389C59.473 49.3494 59.4531 49.253 59.4531 49.1556C59.4531 49.0582 59.473 48.9616 59.5114 48.872C59.5498 48.7825 59.606 48.7019 59.6766 48.6348L61.2078 47.0931C61.3476 46.9582 61.5344 46.8828 61.7287 46.8828C61.923 46.8828 62.1097 46.9582 62.2495 47.0931L67.4578 52.3015C67.6274 52.4709 67.7617 52.6723 67.8529 52.894C67.9441 53.1157 67.9904 53.3534 67.9891 53.5931C67.9904 53.8329 67.9441 54.0703 67.8529 54.292C67.7617 54.5137 67.6274 54.7153 67.4578 54.8848C67.1181 55.2247 66.6572 55.4158 66.1766 55.416ZM60.4995 49.166L65.562 54.2284C65.727 54.3875 65.9473 54.4766 66.1766 54.4766C66.4058 54.4766 66.6261 54.3875 66.7912 54.2284C66.8722 54.1482 66.9361 54.0525 66.9791 53.9469C67.0221 53.8412 67.0432 53.728 67.0412 53.614C67.0426 53.5 67.0212 53.3869 66.9783 53.2813C66.9353 53.1758 66.8717 53.0799 66.7912 52.9993L61.7287 47.9367L60.4995 49.166Z" fill="#333333"/>
<path d="M60.1763 49.2806C60.1136 49.2809 60.0516 49.2683 59.9941 49.2432C59.9367 49.2181 59.8852 49.1811 59.8429 49.1348L58.6763 47.968C58.6322 47.9245 58.5972 47.8727 58.5733 47.8155C58.5494 47.7582 58.5371 47.6969 58.5371 47.6349C58.5371 47.5729 58.5494 47.5113 58.5733 47.4541C58.5972 47.3969 58.6322 47.3451 58.6763 47.3015C58.7661 47.2118 58.8879 47.1614 59.0148 47.1614C59.1418 47.1614 59.2635 47.2118 59.3534 47.3015L60.1763 48.1245L60.7075 47.5932L59.8742 46.7702C59.7845 46.6804 59.7341 46.5587 59.7341 46.4317C59.7341 46.3048 59.7845 46.1828 59.8742 46.093C59.964 46.0033 60.0858 45.9531 60.2127 45.9531C60.3397 45.9531 60.4614 46.0033 60.5513 46.093L61.7179 47.2598C61.7628 47.3026 61.7982 47.3544 61.8215 47.4119C61.8448 47.4693 61.8557 47.5312 61.8534 47.5932C61.8547 47.6566 61.8433 47.7196 61.8201 47.7786C61.7969 47.8376 61.7621 47.8913 61.7179 47.9368L60.5096 49.1348C60.4674 49.1811 60.4158 49.2181 60.3584 49.2432C60.301 49.2683 60.239 49.2809 60.1763 49.2806Z" fill="#333333"/>
<path d="M55.1569 49.4181C54.2607 49.4205 53.3729 49.2449 52.545 48.9016C51.7171 48.5583 50.9655 48.0539 50.334 47.4179C49.698 46.7864 49.1938 46.0351 48.8505 45.2072C48.5071 44.3793 48.3316 43.4914 48.334 42.5951C48.3302 41.6971 48.5051 40.8073 48.8484 39.9775C49.1918 39.1477 49.6968 38.3944 50.334 37.7617C50.9655 37.1257 51.7171 36.6216 52.545 36.2783C53.3729 35.9349 54.2607 35.7593 55.1569 35.7617C56.0548 35.7591 56.9443 35.9345 57.7739 36.2777C58.6035 36.621 59.3569 37.1254 59.9903 37.7617C60.6257 38.3958 61.1294 39.1493 61.4727 39.9788C61.8159 40.8082 61.9918 41.6975 61.9903 42.5951C61.9904 43.4911 61.8138 44.3781 61.4707 45.2057C61.1275 46.0333 60.6244 46.785 59.9903 47.4179C59.3569 48.0542 58.6035 48.5588 57.7739 48.9021C56.9443 49.2454 56.0548 49.4208 55.1569 49.4181ZM55.1569 36.72C54.3829 36.7141 53.6155 36.8633 52.8999 37.1584C52.1843 37.4536 51.535 37.889 50.9903 38.4389C50.4403 38.9837 50.005 39.633 49.7098 40.3485C49.4146 41.0641 49.2656 41.8315 49.2715 42.6056C49.2656 43.3796 49.4146 44.147 49.7098 44.8626C50.005 45.5782 50.4403 46.2275 50.9903 46.7722C51.535 47.3222 52.1843 47.7575 52.8999 48.0527C53.6155 48.3479 54.3829 48.4968 55.1569 48.4909C55.9308 48.4957 56.6979 48.3463 57.4133 48.0512C58.1287 47.7561 58.7782 47.3212 59.3236 46.7722C59.8717 46.2261 60.3058 45.5766 60.6009 44.8613C60.8959 44.1461 61.046 43.3793 61.0424 42.6056C61.046 41.8319 60.8959 41.0651 60.6009 40.3498C60.3058 39.6346 59.8717 38.9851 59.3236 38.4389C58.7782 37.8899 58.1287 37.4551 57.4133 37.16C56.6979 36.8649 55.9308 36.7152 55.1569 36.72Z" fill="#333333"/>
<path d="M47.541 39.5327H41.291C41.1658 39.53 41.0465 39.4784 40.9589 39.3888C40.8713 39.2992 40.8222 39.1786 40.8223 39.0533C40.8222 38.928 40.8713 38.8077 40.9589 38.7182C41.0465 38.6286 41.1658 38.5769 41.291 38.5742H47.541C47.6681 38.5742 47.79 38.6247 47.8798 38.7146C47.9697 38.8045 48.0202 38.9263 48.0202 39.0533C48.0202 39.1804 47.9697 39.3025 47.8798 39.3923C47.79 39.4822 47.6681 39.5327 47.541 39.5327Z" fill="#333333"/>
<path d="M46.6772 43.8645H41.2501C41.1877 43.8645 41.1259 43.8521 41.0683 43.8279C41.0107 43.8037 40.9586 43.7682 40.9149 43.7236C40.8712 43.679 40.8369 43.6261 40.814 43.568C40.7911 43.5099 40.78 43.4478 40.7814 43.3854C40.7813 43.2601 40.8304 43.1398 40.918 43.0502C41.0056 42.9606 41.1248 42.909 41.2501 42.9062H46.6772C46.8034 42.9089 46.9238 42.9601 47.0131 43.0494C47.1023 43.1387 47.1537 43.2591 47.1564 43.3854C47.1564 43.5125 47.1059 43.6343 47.016 43.7241C46.9262 43.814 46.8043 43.8645 46.6772 43.8645Z" fill="#333333"/>
<path d="M47.541 48.1265H41.291C41.1658 48.1238 41.0465 48.0721 40.9589 47.9825C40.8713 47.893 40.8222 47.7724 40.8223 47.6471C40.8222 47.5218 40.8713 47.4015 40.9589 47.3119C41.0465 47.2223 41.1658 47.1707 41.291 47.168H47.541C47.6681 47.168 47.79 47.2185 47.8798 47.3083C47.9697 47.3982 48.0202 47.52 48.0202 47.6471C48.0202 47.7742 47.9697 47.8962 47.8798 47.9861C47.79 48.076 47.6681 48.1265 47.541 48.1265Z" fill="#333333"/>
<path d="M58.2814 52.4167H46.6356C46.5722 52.4181 46.5093 52.4067 46.4505 52.3831C46.3917 52.3595 46.3384 52.3244 46.2936 52.2796C46.2488 52.2348 46.2135 52.1815 46.19 52.1227C46.1664 52.0639 46.1549 52.0009 46.1564 51.9376C46.1564 51.8751 46.1688 51.8133 46.193 51.7557C46.2172 51.6982 46.2527 51.646 46.2974 51.6024C46.342 51.5587 46.3949 51.5244 46.453 51.5014C46.511 51.4785 46.5731 51.4675 46.6356 51.4689H58.2814C58.4067 51.4688 58.527 51.5178 58.6166 51.6054C58.7061 51.6931 58.7578 51.8123 58.7605 51.9376C58.7605 52.0646 58.7101 52.1864 58.6202 52.2763C58.5303 52.3662 58.4085 52.4167 58.2814 52.4167Z" fill="#333333"/>
<path d="M58.2806 56.7202H49.3222C49.197 56.7175 49.0778 56.6659 48.9901 56.5763C48.9025 56.4867 48.8535 56.3661 48.8535 56.2408C48.8535 56.1155 48.9025 55.9952 48.9901 55.9057C49.0778 55.8161 49.197 55.7644 49.3222 55.7617H58.2806C58.4068 55.7644 58.5272 55.8159 58.6165 55.9052C58.7058 55.9944 58.7571 56.1146 58.7597 56.2408C58.7571 56.3671 58.7058 56.4875 58.6165 56.5768C58.5272 56.6661 58.4068 56.7176 58.2806 56.7202Z" fill="#333333"/>
<path d="M58.2806 61.0103H47.8639C47.7368 61.0103 47.615 60.9598 47.5251 60.8699C47.4353 60.7801 47.3848 60.6583 47.3848 60.5312C47.3875 60.4059 47.4392 60.2867 47.5287 60.1991C47.6183 60.1114 47.7386 60.0625 47.8639 60.0625H58.2806C58.4059 60.0625 58.5262 60.1114 58.6158 60.1991C58.7053 60.2867 58.757 60.4059 58.7597 60.5312C58.7597 60.6583 58.7093 60.7801 58.6194 60.8699C58.5295 60.9598 58.4077 61.0103 58.2806 61.0103Z" fill="#333333"/>
<path d="M47.2709 57.9577H47.1772L44.4376 57.4265C44.3468 57.4105 44.2631 57.3667 44.198 57.3014L34.5522 47.6555C34.4625 47.5657 34.4121 47.444 34.4121 47.317C34.4121 47.1901 34.4625 47.0684 34.5522 46.9785L36.7605 44.7805C36.8503 44.6908 36.9721 44.6406 37.0991 44.6406C37.226 44.6406 37.3477 44.6908 37.4376 44.7805L47.073 54.4159C47.1419 54.484 47.189 54.5713 47.2084 54.6662L47.7397 57.4056C47.7536 57.4825 47.7486 57.5616 47.725 57.636C47.7014 57.7105 47.6599 57.7778 47.6043 57.8326C47.5133 57.9155 47.394 57.9604 47.2709 57.9577ZM44.7709 56.5097L46.6668 56.8744L46.3022 54.9785L37.0938 45.7807L35.5626 47.3119L44.7709 56.5097Z" fill="#333333"/>
<path d="M33.7917 46.6872C33.6623 46.6859 33.5388 46.6336 33.4479 46.5415L32.1459 45.2394C32.0993 45.1951 32.0623 45.1416 32.0372 45.0825C32.0122 45.0233 31.9995 44.9598 32 44.8956C32.0009 44.8331 32.0142 44.7715 32.0393 44.7142C32.0643 44.657 32.1006 44.6052 32.1459 44.5622L34.3542 42.354C34.3978 42.3099 34.4497 42.2748 34.5069 42.251C34.5641 42.2271 34.6255 42.2148 34.6875 42.2148C34.7495 42.2148 34.8109 42.2271 34.8681 42.251C34.9253 42.2748 34.9773 42.3099 35.0209 42.354L36.3334 43.6665C36.3783 43.7092 36.4136 43.7611 36.4369 43.8185C36.4603 43.876 36.4711 43.9376 36.4688 43.9996C36.4701 44.063 36.4588 44.1263 36.4355 44.1853C36.4123 44.2443 36.3776 44.298 36.3334 44.3434L34.125 46.5415C34.082 46.5868 34.0303 46.623 33.9731 46.648C33.9158 46.6731 33.8542 46.6863 33.7917 46.6872ZM33.1563 44.8956L33.7917 45.5311L35.3229 43.9996L34.6875 43.3643L33.1563 44.8956Z" fill="#333333"/>
<path d="M39.9786 50.6686C39.8492 50.6673 39.7257 50.6147 39.6349 50.5226L35.6557 46.5436C35.566 46.4538 35.5156 46.3321 35.5156 46.2051C35.5156 46.0782 35.566 45.9562 35.6557 45.8664C35.748 45.7814 35.8688 45.7344 35.9942 45.7344C36.1197 45.7344 36.2405 45.7814 36.3328 45.8664L40.3119 49.856C40.356 49.8996 40.391 49.9517 40.4149 50.0089C40.4388 50.0661 40.4511 50.1274 40.4511 50.1894C40.4511 50.2514 40.4388 50.3128 40.4149 50.37C40.391 50.4272 40.356 50.479 40.3119 50.5226C40.2237 50.6122 40.1043 50.6646 39.9786 50.6686Z" fill="#333333"/>
<path d="M44.532 57.4062C44.4701 57.4073 44.4088 57.3959 44.3515 57.3726C44.2942 57.3493 44.2422 57.3148 44.1987 57.2709C44.109 57.1811 44.0586 57.0591 44.0586 56.9321C44.0586 56.8052 44.109 56.6835 44.1987 56.5937L46.407 54.3855C46.4506 54.3414 46.5025 54.3064 46.5597 54.2825C46.6169 54.2586 46.6783 54.2461 46.7403 54.2461C46.8023 54.2461 46.8637 54.2586 46.9209 54.2825C46.9781 54.3064 47.03 54.3414 47.0736 54.3855C47.1633 54.4753 47.2137 54.597 47.2137 54.7239C47.2137 54.8509 47.1633 54.9726 47.0736 55.0624L44.8757 57.2709C44.8302 57.3151 44.7764 57.3496 44.7174 57.3729C44.6584 57.3961 44.5954 57.4075 44.532 57.4062Z" fill="#333333"/>
</g>
<defs>
<clipPath id="clip0_1075_171959">
<rect width="36" height="35.5833" fill="white" transform="translate(32 32)"/>
</clipPath>
</defs>
</svg>
