<svg width="100" height="100" viewBox="0 0 100 100" fill="none" xmlns="http://www.w3.org/2000/svg">
<circle cx="50" cy="50" r="50" fill="#F2F6FB"/>
<g clip-path="url(#clip0_1988_380419)">
<path d="M66.9102 33.4316L73.7902 26.8916L75.3302 26.6016L78.8402 30.3016L71.4502 37.9816L66.9102 33.4316Z" fill="#235AB0"/>
<path d="M58.7304 41.3797H30.4704L28.6704 38.1297L25.3804 37.3797L22.6504 40.0697V68.4897L23.4504 70.9397L26.1304 72.5197H63.3004V46.1297L71.4504 37.9797L66.9104 33.4297L58.7304 41.3797Z" fill="white"/>
<path d="M46.9799 64.9403C51.4313 64.9403 55.0399 61.3317 55.0399 56.8803C55.0399 52.4289 51.4313 48.8203 46.9799 48.8203C42.5285 48.8203 38.9199 52.4289 38.9199 56.8803C38.9199 61.3317 42.5285 64.9403 46.9799 64.9403Z" fill="#235AB0"/>
<path d="M44.6405 61.4319L42.2305 56.3819L43.7105 55.6719L45.1105 58.5919L50.3905 53.1719L51.5705 54.3219L44.6405 61.4319Z" fill="white"/>
<path d="M52.8204 47.5195L50.9104 49.3795L49.4004 53.7395L51.1104 55.7295L55.7604 53.7695L57.3004 51.9995L52.8204 47.5195Z" fill="white"/>
<path d="M56.9202 52.8982C56.782 52.8983 56.6492 52.8446 56.5502 52.7483L52.0702 48.2683C52.0202 48.2204 51.9803 48.1629 51.9528 48.0994C51.9254 48.0358 51.9109 47.9674 51.9102 47.8982C51.9122 47.7556 51.9696 47.6194 52.0702 47.5183L72.9702 26.6182C73.3878 26.2236 73.9406 26.0039 74.5152 26.0039C75.0897 26.0039 75.6425 26.2236 76.0602 26.6182L78.2002 28.7583C78.4031 28.9601 78.5642 29.2001 78.674 29.4644C78.7838 29.7287 78.8403 30.0121 78.8402 30.2983C78.8411 30.5862 78.785 30.8712 78.6752 31.1372C78.5653 31.4032 78.4039 31.6448 78.2002 31.8481L57.3002 52.7483C57.1974 52.8452 57.0614 52.8988 56.9202 52.8982ZM53.1902 47.8982L56.9202 51.6282L77.4502 31.0981C77.661 30.8852 77.7796 30.598 77.7802 30.2983C77.7802 30.1514 77.751 30.0057 77.6944 29.8701C77.6377 29.7345 77.5547 29.6116 77.4502 29.5083L75.3102 27.3682C75.0973 27.1611 74.8121 27.0454 74.5152 27.0454C74.2182 27.0454 73.933 27.1611 73.7202 27.3682L53.1902 47.8982Z" fill="#333333"/>
<path d="M51.17 56.21C51.1005 56.2111 51.0315 56.1973 50.9678 56.1697C50.904 56.1421 50.8468 56.1014 50.8 56.05L48.8 54.05C48.7282 53.976 48.6795 53.8825 48.66 53.7812C48.6405 53.68 48.6509 53.5754 48.69 53.48L50.38 49.3401C50.4071 49.2778 50.4442 49.2202 50.49 49.1699L52.11 47.55C52.1592 47.5008 52.2176 47.4615 52.282 47.4348C52.3463 47.4081 52.4153 47.3945 52.485 47.3945C52.5546 47.3945 52.6236 47.4081 52.6879 47.4348C52.7523 47.4615 52.8107 47.5008 52.86 47.55C52.9571 47.6507 53.0114 47.7852 53.0114 47.925C53.0114 48.0649 52.9571 48.1994 52.86 48.3L51.32 49.8401L49.8 53.55L51.34 55.0901L55.05 53.5701L56.59 52.03C56.6392 51.9807 56.6977 51.9415 56.762 51.9148C56.8263 51.8881 56.8953 51.8745 56.965 51.8745C57.0346 51.8745 57.1036 51.8881 57.1679 51.9148C57.2323 51.9415 57.2907 51.9807 57.34 52.03C57.4371 52.1307 57.4914 52.2651 57.4914 52.405C57.4914 52.5449 57.4371 52.6794 57.34 52.78L55.72 54.3899C55.67 54.4386 55.6126 54.4793 55.55 54.51L51.41 56.2C51.3324 56.225 51.2494 56.2284 51.17 56.21Z" fill="#333333"/>
<path d="M48.0208 57.3284C47.9499 57.329 47.8796 57.3151 47.8142 57.2876C47.7489 57.2601 47.6898 57.2194 47.6408 57.1682C47.5442 57.0692 47.4902 56.9366 47.4902 56.7983C47.4902 56.6601 47.5442 56.5272 47.6408 56.4282L49.7808 54.2883C49.83 54.239 49.8884 54.1998 49.9528 54.1731C50.0171 54.1464 50.0861 54.1328 50.1558 54.1328C50.2254 54.1328 50.2944 54.1464 50.3587 54.1731C50.4231 54.1998 50.4815 54.239 50.5308 54.2883C50.6279 54.389 50.6822 54.5234 50.6822 54.6633C50.6822 54.8032 50.6279 54.9377 50.5308 55.0383L48.3908 57.1682C48.3436 57.2191 48.2863 57.2596 48.2226 57.2871C48.1589 57.3147 48.0902 57.3288 48.0208 57.3284Z" fill="#333333"/>
<path d="M72.8106 42.8391C72.7412 42.8396 72.6725 42.8254 72.6088 42.7979C72.5451 42.7703 72.4878 42.7298 72.4406 42.679C72.3913 42.6297 72.3522 42.5714 72.3256 42.5071C72.2989 42.4427 72.2852 42.3736 72.2852 42.304C72.2852 42.2343 72.2989 42.1654 72.3256 42.1011C72.3522 42.0367 72.3913 41.9782 72.4406 41.929L76.0106 38.3589C76.2087 38.1675 76.3652 37.9373 76.4701 37.6826C76.5751 37.4279 76.6263 37.1543 76.6206 36.8789C76.6263 36.6035 76.5751 36.3299 76.4701 36.0752C76.3652 35.8205 76.2087 35.5903 76.0106 35.3989L74.9506 34.3391C74.8535 34.2384 74.7992 34.104 74.7992 33.9641C74.7992 33.8242 74.8535 33.6898 74.9506 33.5891C75.0513 33.492 75.1857 33.4375 75.3256 33.4375C75.4655 33.4375 75.6 33.492 75.7006 33.5891L76.7606 34.6489C77.3505 35.2412 77.6817 36.043 77.6817 36.8789C77.6817 37.7148 77.3505 38.5166 76.7606 39.1089L73.1906 42.679C73.1415 42.7301 73.0825 42.7708 73.0172 42.7983C72.9518 42.8259 72.8815 42.8398 72.8106 42.8391Z" fill="#333333"/>
<path d="M71.4194 38.3987C71.2812 38.3988 71.1485 38.3451 71.0494 38.2488L66.5694 33.7688C66.4723 33.6681 66.418 33.5337 66.418 33.3938C66.418 33.2539 66.4723 33.1195 66.5694 33.0188C66.6186 32.9695 66.6771 32.9305 66.7414 32.9038C66.8058 32.8771 66.8748 32.8633 66.9444 32.8633C67.0141 32.8633 67.083 32.8771 67.1474 32.9038C67.2117 32.9305 67.2702 32.9695 67.3194 33.0188L71.7994 37.4988C71.8966 37.5994 71.9509 37.7339 71.9509 37.8738C71.9509 38.0137 71.8966 38.1481 71.7994 38.2488C71.6967 38.3457 71.5606 38.3993 71.4194 38.3987Z" fill="#333333"/>
<path d="M63.27 73.1082H26.8C26.1696 73.1082 25.5455 72.9841 24.9631 72.7429C24.3808 72.5017 23.8516 72.1481 23.4059 71.7024C22.9602 71.2567 22.6066 70.7276 22.3654 70.1453C22.1241 69.5629 22 68.9387 22 68.3083V41.2283C22 40.1055 22.4453 39.0285 23.2383 38.2336C24.0313 37.4388 25.1072 36.9909 26.23 36.9883C27.3545 36.9883 28.433 37.4351 29.2281 38.2302C30.0233 39.0254 30.47 40.1038 30.47 41.2283V67.6482C30.4708 67.7497 30.4419 67.8493 30.3868 67.9346C30.3317 68.0199 30.2529 68.0872 30.16 68.1282C30.0677 68.1724 29.9643 68.1885 29.8629 68.1743C29.7615 68.1601 29.6666 68.1163 29.59 68.0483C29.49 67.9583 26.98 65.7982 24.22 67.1382C24.157 67.1687 24.0886 67.1865 24.0187 67.1904C23.9489 67.1944 23.8789 67.1844 23.8129 67.1611C23.7469 67.1379 23.6861 67.1018 23.6342 67.0549C23.5822 67.0081 23.54 66.9514 23.51 66.8882C23.4793 66.8265 23.4613 66.7596 23.4567 66.6909C23.4522 66.6222 23.4614 66.5532 23.4837 66.488C23.5061 66.4229 23.5411 66.363 23.5868 66.3115C23.6325 66.26 23.688 66.2181 23.75 66.1882C24.653 65.7741 25.6466 65.5973 26.6371 65.6743C27.6275 65.7513 28.5819 66.0795 29.41 66.6282V41.2283C29.41 40.3849 29.075 39.5761 28.4786 38.9797C27.8822 38.3834 27.0734 38.0483 26.23 38.0483C25.3874 38.051 24.5801 38.3869 23.9843 38.9827C23.3885 39.5785 23.0526 40.3857 23.05 41.2283V68.3083C23.05 69.3029 23.4451 70.2567 24.1483 70.96C24.8516 71.6632 25.8054 72.0583 26.8 72.0583H62.74V46.1282C62.74 45.9876 62.7958 45.8528 62.8952 45.7534C62.9946 45.654 63.1294 45.5981 63.27 45.5981C63.3391 45.5981 63.4076 45.6119 63.4713 45.6387C63.5351 45.6654 63.5929 45.7048 63.6413 45.7542C63.6897 45.8035 63.7278 45.862 63.7533 45.9263C63.7789 45.9905 63.7913 46.059 63.79 46.1282V72.5884C63.79 72.7263 63.7352 72.8585 63.6377 72.9561C63.5402 73.0536 63.4079 73.1082 63.27 73.1082Z" fill="#333333"/>
<path d="M58.9597 41.9116H29.9597C29.8901 41.9116 29.8212 41.898 29.7569 41.8713C29.6926 41.8447 29.6341 41.8056 29.5849 41.7563C29.5357 41.7071 29.4967 41.6488 29.47 41.5845C29.4434 41.5202 29.4297 41.4512 29.4297 41.3816C29.4297 41.312 29.4434 41.2433 29.47 41.179C29.4967 41.1147 29.5357 41.0561 29.5849 41.0068C29.6341 40.9576 29.6926 40.9187 29.7569 40.8921C29.8212 40.8655 29.8901 40.8516 29.9597 40.8516H58.9597C59.1003 40.8516 59.2351 40.9074 59.3345 41.0068C59.4339 41.1062 59.4897 41.241 59.4897 41.3816C59.4897 41.5222 59.4339 41.657 59.3345 41.7563C59.2351 41.8557 59.1003 41.9116 58.9597 41.9116Z" fill="#333333"/>
</g>
<defs>
<clipPath id="clip0_1988_380419">
<rect width="56.84" height="47.11" fill="white" transform="translate(22 26)"/>
</clipPath>
</defs>
</svg>
