<svg width="90" height="91" viewBox="0 0 90 91" fill="none" xmlns="http://www.w3.org/2000/svg">
<ellipse cx="45" cy="45.7457" rx="45" ry="45.2367" fill="#FAFAFA"/>
<g clip-path="url(#clip0_1357_219087)">
<path d="M27.5303 17.9399H60.6403V21.8601H64.0903V60.03C64.0903 60.03 63.5803 69.8 57.0903 69.8H30.3703V65.8901L27.5303 65.55V17.9399Z" fill="white"/>
<path d="M56.2698 70.03H30.3698C30.3002 70.03 30.2313 70.0164 30.167 69.9897C30.1027 69.9631 30.0443 69.924 29.9951 69.8748C29.9459 69.8255 29.9068 69.7672 29.8802 69.7029C29.8536 69.6386 29.8398 69.5696 29.8398 69.5V65.3501C29.8398 65.2805 29.8536 65.2115 29.8802 65.1472C29.9068 65.0829 29.9459 65.0246 29.9951 64.9753C30.0443 64.9261 30.1027 64.887 30.167 64.8604C30.2313 64.8337 30.3002 64.8201 30.3698 64.8201C30.4394 64.8201 30.5084 64.8337 30.5727 64.8604C30.637 64.887 30.6954 64.9261 30.7446 64.9753C30.7938 65.0246 30.8329 65.0829 30.8595 65.1472C30.8861 65.2115 30.8998 65.2805 30.8998 65.3501V68.97H56.2698C60.2698 68.97 63.5699 64.9701 63.5699 60.1201V22.03H60.6398C60.4993 22.03 60.3645 21.9742 60.2651 21.8748C60.1657 21.7754 60.1098 21.6406 60.1098 21.5C60.1098 21.3594 60.1657 21.2246 60.2651 21.1252C60.3645 21.0258 60.4993 20.97 60.6398 20.97H64.0898C64.2304 20.97 64.3652 21.0258 64.4646 21.1252C64.564 21.2246 64.6198 21.3594 64.6198 21.5V60.1101C64.6298 65.5701 60.8798 70.03 56.2698 70.03Z" fill="#333333"/>
<path d="M53.57 65.8701H27.57C27.4295 65.8701 27.2946 65.8142 27.1953 65.7148C27.0959 65.6154 27.04 65.4807 27.04 65.3401V17.53C27.04 17.3895 27.0959 17.2547 27.1953 17.1553C27.2946 17.0559 27.4295 17 27.57 17H60.68C60.8206 17 60.9554 17.0559 61.0548 17.1553C61.1542 17.2547 61.21 17.3895 61.21 17.53V56.8701C61.2498 57.6402 60.9915 58.396 60.4887 58.9807C59.986 59.5654 59.2774 59.9339 58.51 60.01H56.31V62.74C56.3358 63.1255 56.2854 63.5122 56.1617 63.8782C56.0379 64.2441 55.8432 64.5821 55.5887 64.8728C55.3342 65.1635 55.025 65.4012 54.6786 65.5723C54.3322 65.7434 53.9555 65.8447 53.57 65.8701ZM28.09 64.8101H53.6C54.0903 64.7474 54.5368 64.4961 54.8448 64.1096C55.1529 63.7231 55.2982 63.2319 55.25 62.74V59.48C55.2487 59.4109 55.2612 59.3423 55.2867 59.2781C55.3122 59.2138 55.3503 59.1553 55.3987 59.106C55.4472 59.0566 55.5049 59.0172 55.5687 58.9905C55.6324 58.9637 55.7009 58.9499 55.77 58.95H58.5C58.9904 58.8849 59.436 58.6313 59.7422 58.2429C60.0485 57.8545 60.1912 57.3621 60.14 56.8701V18.03H28.09V64.8101Z" fill="#333333"/>
<path d="M54.0896 32.9299C52.3192 33.1669 50.5192 33.0401 48.7997 32.5569C47.0801 32.0737 45.4774 31.2445 44.0896 30.1201C42.7015 31.244 41.0987 32.0727 39.3793 32.5559C37.6598 33.0391 35.8599 33.1663 34.0896 32.9299C34.0896 32.9299 32.1696 49.24 44.0896 52.75C55.9796 49.24 54.0896 32.9299 54.0896 32.9299Z" fill="#235AB0"/>
<path d="M44.0901 53.27H43.9401C31.7801 49.68 33.5901 33.0799 33.6101 32.9099L33.6701 32.4199L34.1701 32.47C35.8649 32.6858 37.5859 32.5599 39.2313 32.0996C40.8767 31.6393 42.4132 30.854 43.7501 29.79L44.0901 29.48L44.4301 29.79C45.7646 30.8547 47.2993 31.6405 48.9432 32.1008C50.5871 32.5612 52.3067 32.6867 54.0001 32.47L54.5001 32.4199L54.5601 32.9099C54.5601 33.0799 56.3901 49.68 44.2301 53.27H44.0901ZM34.5601 33.48C34.3817 36.1602 34.5735 38.8522 35.1301 41.48C36.4101 47.21 39.4301 50.84 44.1301 52.27C48.7901 50.84 51.8001 47.21 53.0801 41.48C53.6471 38.8536 53.8391 36.1602 53.6501 33.48C50.2495 33.7986 46.853 32.8317 44.1301 30.77C41.3918 32.8394 37.9768 33.8064 34.5601 33.48Z" fill="#333333"/>
<path d="M41.6497 46.82L38.7197 40.69L40.5297 39.83L42.2197 43.38L48.6397 36.79L50.0797 38.19L41.6497 46.82Z" fill="white"/>
</g>
<defs>
<clipPath id="clip0_1357_219087">
<rect width="37.62" height="53.02" fill="white" transform="translate(27 17)"/>
</clipPath>
</defs>
</svg>
