<svg width="90" height="90" viewBox="0 0 90 90" fill="none" xmlns="http://www.w3.org/2000/svg">
<g clip-path="url(#clip0_916_150322)">
<path d="M53.4498 20.5H37.1498C36.7963 20.5 36.5098 20.7865 36.5098 21.14V39.87C36.5098 40.2235 36.7963 40.51 37.1498 40.51H53.4498C53.8032 40.51 54.0898 40.2235 54.0898 39.87V21.14C54.0898 20.7865 53.8032 20.5 53.4498 20.5Z" fill="white"/>
<path d="M53.4507 41.01H37.1107C36.8084 41.01 36.5184 40.8898 36.3046 40.676C36.0908 40.4622 35.9707 40.1722 35.9707 39.8699V21.1399C35.9707 20.8375 36.0908 20.5478 36.3046 20.334C36.5184 20.1202 36.8084 20 37.1107 20H53.4107C53.714 20 54.005 20.1197 54.2204 20.3333C54.4357 20.5468 54.5581 20.8366 54.5607 21.1399V39.8699C54.5583 40.1663 54.4415 40.4504 54.2347 40.6628C54.0279 40.8753 53.747 40.9997 53.4507 41.01ZM37.1507 21.01C37.1136 21.01 37.078 21.0248 37.0517 21.051C37.0254 21.0773 37.0107 21.1128 37.0107 21.1499V39.8799C37.0107 39.917 37.0254 39.9527 37.0517 39.979C37.078 40.0053 37.1136 40.02 37.1507 40.02H53.4507C53.4888 40.0201 53.5255 40.0057 53.5534 39.9797C53.5812 39.9537 53.5982 39.9179 53.6007 39.8799V21.1399C53.5982 21.1019 53.5812 21.0663 53.5534 21.0403C53.5255 21.0143 53.4888 20.9999 53.4507 21L37.1507 21.01Z" fill="#333333"/>
<path d="M41.6407 24.1914H39.9707V25.8614H41.6407V24.1914Z" fill="#235AB0"/>
<path d="M46.1407 24.1914H44.4707V25.8614H46.1407V24.1914Z" fill="#235AB0"/>
<path d="M50.6309 24.1914H48.9609V25.8614H50.6309V24.1914Z" fill="#235AB0"/>
<path d="M41.6407 28.8711H39.9707V30.5411H41.6407V28.8711Z" fill="#235AB0"/>
<path d="M46.1407 28.8711H44.4707V30.5411H46.1407V28.8711Z" fill="#235AB0"/>
<path d="M50.6309 28.8711H48.9609V30.5411H50.6309V28.8711Z" fill="#235AB0"/>
<path d="M42.6602 67.1092L43.2102 59.8692L43.1802 56.3592L40.3802 50.7592L34.3802 48.8792L32.1902 46.6392L31.6102 40.1192L31.3502 38.8792L29.1002 38.7292L26.2702 38.1992L24.1202 39.2092L25.2202 48.6092L23.6602 49.4292V51.2092L26.5502 56.6392L28.2602 58.0492L34.3702 59.4692L36.4302 61.4492L35.8502 66.8492L42.6602 67.1092Z" fill="white"/>
<path d="M47.9797 67.1092L47.4297 59.8692L47.4497 56.3592L50.2597 50.7592L56.2497 48.8792L58.4497 46.6392L59.0297 40.1192L59.2797 38.8792L61.5397 38.7292L64.3697 38.1992L66.5197 39.2092L65.4097 48.6092L66.9697 49.4292V51.2092L64.0897 56.6392L62.3797 58.0492L56.2697 59.4692L54.1997 61.4492L54.7897 66.8492L47.9797 67.1092Z" fill="white"/>
<path d="M31.68 49.3783C31.5983 49.3795 31.5175 49.3612 31.4444 49.3246C31.3713 49.2881 31.308 49.2345 31.26 49.1684L30.12 47.7184V47.5885C29.98 46.7785 29.73 45.3584 29.48 43.8984C29.23 42.4384 28.92 40.6384 28.75 39.6784C28.7063 39.4445 28.5737 39.2368 28.38 39.0986C28.1718 38.9674 27.9226 38.9174 27.68 38.9584L26.29 39.2384C26.2216 39.2529 26.151 39.2533 26.0824 39.2399C26.0138 39.2265 25.9486 39.1995 25.8907 39.1603C25.8328 39.1211 25.7835 39.0706 25.7455 39.0119C25.7076 38.9532 25.6819 38.8874 25.67 38.8185C25.6433 38.6821 25.6714 38.5405 25.7481 38.4245C25.8248 38.3085 25.944 38.2273 26.08 38.1984L27.48 37.9284C27.7373 37.8741 28.0029 37.8729 28.2608 37.9245C28.5187 37.9761 28.7633 38.0794 28.98 38.2284C29.1933 38.3726 29.3751 38.5587 29.5144 38.7753C29.6536 38.9919 29.7474 39.2345 29.79 39.4884C29.96 40.4884 30.25 42.1184 30.52 43.7184C30.76 45.1084 30.99 46.4485 31.14 47.2785L32.14 48.5185C32.226 48.6304 32.2648 48.7716 32.2479 48.9118C32.2311 49.052 32.1601 49.18 32.05 49.2685C31.9436 49.3478 31.8125 49.3867 31.68 49.3783Z" fill="#333333"/>
<path d="M34.9006 49.4809C34.825 49.4812 34.7501 49.4653 34.6811 49.4343C34.6121 49.4032 34.5506 49.3578 34.5006 49.301L32.2206 46.7309V46.581C32.0306 45.581 31.8606 44.491 31.6706 43.341C31.5106 42.341 31.3406 41.3409 31.1506 40.2609C31.1328 40.145 31.0917 40.0337 31.0299 39.934C30.968 39.8344 30.8866 39.7483 30.7906 39.6809C30.5824 39.5497 30.3332 39.4999 30.0906 39.541L29.3406 39.6909C29.2029 39.7178 29.0602 39.69 28.9426 39.6135C28.825 39.537 28.7418 39.4178 28.7106 39.281C28.6842 39.1431 28.7136 39.0002 28.7924 38.884C28.8711 38.7677 28.9928 38.6875 29.1306 38.6608L29.8906 38.5109C30.1463 38.4563 30.4104 38.4547 30.6667 38.5063C30.923 38.5579 31.166 38.6617 31.3806 38.811C31.594 38.9552 31.7758 39.141 31.915 39.3576C32.0543 39.5742 32.148 39.8171 32.1906 40.071C32.3906 41.151 32.5506 42.1809 32.7106 43.1709C32.8706 44.1609 33.0606 45.2809 33.2306 46.2409L35.3206 48.601C35.3699 48.6503 35.409 48.7086 35.4357 48.7729C35.4623 48.8373 35.4761 48.9064 35.4761 48.976C35.4761 49.0457 35.4623 49.1146 35.4357 49.1789C35.409 49.2433 35.3699 49.3018 35.3206 49.351C35.264 49.4015 35.1972 49.4392 35.1247 49.4616C35.0523 49.4841 34.9758 49.4906 34.9006 49.4809Z" fill="#333333"/>
<path d="M36.38 67.3701C36.3109 67.3715 36.2422 67.3591 36.178 67.3335C36.1137 67.308 36.0552 67.2699 36.0059 67.2215C35.9565 67.173 35.9173 67.1153 35.8905 67.0515C35.8638 66.9878 35.85 66.9195 35.85 66.8504V62.0803C35.8502 61.8006 35.7627 61.5279 35.6 61.3003C34.6286 60.2477 33.3127 59.5771 31.89 59.4102L31.23 59.2703C29.5808 59.0957 28.0108 58.4732 26.69 57.4702C25.9942 56.7788 25.4315 55.9653 25.03 55.0703C24.2713 53.5751 23.6197 52.0277 23.08 50.4402C22.9805 50.1542 22.9692 49.845 23.0477 49.5525C23.1261 49.2601 23.2907 48.9981 23.52 48.8003C23.7462 48.5936 24.0295 48.4601 24.3329 48.4173C24.6363 48.3744 24.9455 48.4243 25.22 48.5603C26.3604 49.0543 27.2986 49.9219 27.88 51.0203C27.94 51.1603 28.01 51.3102 28.07 51.4702C28.51 52.4702 28.79 53.0404 29.77 52.8504C29.9667 52.8044 30.1578 52.7372 30.34 52.6502C31.6578 52.0837 33.1093 51.9033 34.5257 52.1299C35.942 52.3565 37.2648 52.9809 38.34 53.9302C38.3903 53.9779 38.4303 54.0353 38.4576 54.0989C38.4849 54.1625 38.499 54.2311 38.499 54.3003C38.499 54.3696 38.4849 54.4381 38.4576 54.5017C38.4303 54.5653 38.3903 54.6225 38.34 54.6702C38.2924 54.7204 38.235 54.7605 38.1714 54.7879C38.1078 54.8152 38.0393 54.8294 37.97 54.8294C37.9008 54.8294 37.8323 54.8152 37.7687 54.7879C37.7051 54.7605 37.6477 54.7204 37.6 54.6702C36.6762 53.8487 35.5366 53.3087 34.3157 53.1138C33.0949 52.9189 31.8438 53.0773 30.71 53.5703C30.454 53.6917 30.1859 53.7856 29.91 53.8504C28.03 54.2104 27.43 52.7904 27.03 51.8504L26.85 51.4302C26.3684 50.5593 25.6075 49.8759 24.69 49.4903C24.6039 49.4444 24.5056 49.4264 24.4089 49.439C24.3121 49.4515 24.2216 49.4941 24.15 49.5603C24.0776 49.6209 24.026 49.7027 24.0027 49.7942C23.9794 49.8857 23.9854 49.9824 24.02 50.0703C24.5386 51.61 25.1669 53.1105 25.9 54.5603C26.2484 55.3366 26.7326 56.0443 27.33 56.6502C28.5055 57.5083 29.884 58.046 31.33 58.2102L32 58.3404C33.6796 58.5496 35.2239 59.3679 36.34 60.6402C36.6409 61.0485 36.8022 61.5431 36.8 62.0503V66.8203C36.8097 66.9476 36.7723 67.0739 36.6948 67.1753C36.6174 67.2767 36.5053 67.346 36.38 67.3701Z" fill="#333333"/>
<path d="M43.1902 67.6387C43.1206 67.6387 43.0516 67.6251 42.9873 67.5984C42.923 67.5718 42.8646 67.5329 42.8154 67.4837C42.7662 67.4345 42.7271 67.3759 42.7005 67.3116C42.6739 67.2473 42.6602 67.1785 42.6602 67.1089V57.3489C42.4844 55.7663 41.9584 54.2425 41.1202 52.8887C39.6602 50.5687 37.5302 50.0887 35.4802 49.6287L34.7702 49.4688C34.635 49.4333 34.5188 49.3469 34.4461 49.2276C34.3733 49.1082 34.3497 48.9653 34.3802 48.8289C34.4156 48.6937 34.5021 48.5774 34.6215 48.5047C34.7408 48.4319 34.8838 48.4083 35.0202 48.4388L35.7102 48.5989C37.7702 49.0589 40.3202 49.5989 42.0102 52.3289C42.9521 53.8443 43.5368 55.5541 43.7202 57.3289V67.1387C43.7125 67.274 43.6533 67.4014 43.5547 67.4944C43.4561 67.5874 43.3257 67.6389 43.1902 67.6387Z" fill="#333333"/>
<path d="M29.2001 50.3713C29.1244 50.3722 29.0493 50.3567 28.9802 50.3256C28.9111 50.2945 28.8497 50.2487 28.8002 50.1913L27.4302 48.5614L25.9602 39.4613C25.9243 39.2719 25.8168 39.1037 25.6602 38.9914C25.4955 38.8818 25.2953 38.8388 25.1002 38.8713C24.8972 38.9123 24.7165 39.0269 24.5928 39.193C24.4692 39.3591 24.4113 39.5652 24.4302 39.7714L25.6302 48.9013C25.6473 49.0416 25.6087 49.1831 25.5227 49.2953C25.4367 49.4075 25.3101 49.4815 25.1701 49.5014C25.0314 49.5157 24.8926 49.4758 24.7826 49.3901C24.6726 49.3043 24.6001 49.1794 24.5802 49.0414L23.3802 39.9013C23.3289 39.4272 23.4578 38.9513 23.7412 38.5678C24.0246 38.1843 24.4419 37.9216 24.9102 37.8315C25.1448 37.7878 25.3857 37.7907 25.6191 37.8405C25.8525 37.8903 26.0738 37.9856 26.2702 38.1213C26.4631 38.2583 26.627 38.4324 26.7523 38.6332C26.8777 38.8341 26.9619 39.0578 27.0001 39.2914L28.4302 48.1015L29.6101 49.5014C29.6551 49.5551 29.689 49.6171 29.7099 49.684C29.7307 49.7509 29.7381 49.8213 29.7316 49.891C29.7251 49.9608 29.7048 50.0284 29.6719 50.0903C29.6391 50.1521 29.5943 50.2069 29.5401 50.2514C29.4439 50.3292 29.3239 50.3714 29.2001 50.3713Z" fill="#333333"/>
<path d="M58.93 49.3783C58.8143 49.3769 58.7021 49.3385 58.61 49.2685C58.4999 49.18 58.4289 49.052 58.4121 48.9118C58.3952 48.7716 58.434 48.6304 58.52 48.5185L59.52 47.2785C59.66 46.4485 59.9 45.1084 60.14 43.7184C60.41 42.1184 60.7 40.4584 60.87 39.4884C60.9126 39.2345 61.0064 38.9919 61.1456 38.7753C61.2848 38.5587 61.4667 38.3726 61.68 38.2284C61.8967 38.0794 62.1413 37.9761 62.3992 37.9245C62.6571 37.8729 62.9227 37.8741 63.18 37.9284L64.58 38.1984C64.716 38.2273 64.8352 38.3085 64.9119 38.4245C64.9886 38.5405 65.0167 38.6821 64.99 38.8185C64.9781 38.8874 64.9524 38.9532 64.9145 39.0119C64.8765 39.0706 64.8272 39.1211 64.7693 39.1603C64.7114 39.1995 64.6462 39.2265 64.5776 39.2399C64.509 39.2533 64.4384 39.2529 64.37 39.2384L62.97 38.9584C62.7305 38.9117 62.4823 38.9622 62.28 39.0986C62.1813 39.1641 62.0974 39.2494 62.0337 39.3493C61.97 39.4492 61.9279 39.5613 61.91 39.6784C61.74 40.6784 61.45 42.2984 61.18 43.8984C60.91 45.4984 60.68 46.7785 60.54 47.5885V47.7184L59.4 49.1684C59.346 49.2404 59.2745 49.2976 59.1922 49.3344C59.11 49.3711 59.0197 49.3862 58.93 49.3783Z" fill="#333333"/>
<path d="M55.7105 49.4809C55.582 49.4815 55.4576 49.4354 55.3605 49.351C55.3113 49.3018 55.2722 49.2433 55.2455 49.1789C55.2188 49.1146 55.2051 49.0457 55.2051 48.976C55.2051 48.9064 55.2188 48.8373 55.2455 48.7729C55.2722 48.7086 55.3113 48.6503 55.3605 48.601L57.4405 46.2409C57.6205 45.2409 57.7905 44.2409 57.9605 43.1709C58.1305 42.1009 58.2905 41.171 58.4805 40.071C58.5249 39.8164 58.6204 39.5735 58.7614 39.3569C58.9023 39.1403 59.0857 38.9546 59.3005 38.811C59.5151 38.6617 59.7581 38.5579 60.0144 38.5063C60.2707 38.4547 60.5349 38.4563 60.7905 38.5109L61.5505 38.6608C61.6185 38.6739 61.6832 38.7005 61.7408 38.739C61.7984 38.7774 61.8477 38.827 61.8859 38.8847C61.9241 38.9425 61.9504 39.0074 61.9632 39.0754C61.976 39.1434 61.9751 39.2133 61.9605 39.281C61.9474 39.3489 61.9209 39.4136 61.8825 39.4711C61.844 39.5287 61.7945 39.5782 61.7368 39.6164C61.679 39.6546 61.6142 39.6807 61.5462 39.6936C61.4781 39.7064 61.4082 39.7054 61.3405 39.6909L60.5905 39.541C60.3479 39.4999 60.0987 39.5497 59.8905 39.6809C59.6968 39.8191 59.5642 40.027 59.5205 40.2609C59.3405 41.3209 59.1705 42.351 59.0105 43.341C58.8205 44.491 58.6505 45.571 58.4605 46.581V46.7309L56.1805 49.301C56.1233 49.3676 56.0503 49.4187 55.9683 49.4502C55.8862 49.4816 55.7977 49.4922 55.7105 49.4809Z" fill="#333333"/>
<path d="M54.2307 67.3706C54.1616 67.372 54.0929 67.3596 54.0286 67.334C53.9644 67.3085 53.9059 67.2704 53.8565 67.222C53.8072 67.1735 53.768 67.1158 53.7412 67.052C53.7145 66.9883 53.7007 66.92 53.7007 66.8509V62.0808C53.6978 61.5782 53.8554 61.0875 54.1507 60.6807C55.2689 59.404 56.8168 58.582 58.5007 58.3706L59.1707 58.2408C60.6168 58.0765 61.9953 57.5388 63.1707 56.6807C63.7681 56.0748 64.2524 55.3672 64.6007 54.5909C65.3339 53.141 65.9621 51.6405 66.4807 50.1009C66.5138 50.0128 66.5191 49.9164 66.4959 49.8252C66.4726 49.734 66.422 49.6524 66.3507 49.5909C66.2768 49.525 66.1847 49.483 66.0866 49.4705C65.9884 49.458 65.8887 49.4756 65.8007 49.5208C64.8857 49.9063 64.128 50.59 63.6507 51.4607C63.5907 51.5941 63.5307 51.734 63.4707 51.8807C63.0707 52.8207 62.4707 54.2707 60.5907 53.8807C60.3144 53.8177 60.046 53.724 59.7907 53.6009C58.657 53.1079 57.4059 52.9494 56.185 53.1443C54.9642 53.3392 53.8246 53.8792 52.9007 54.7007C52.8515 54.75 52.793 54.789 52.7287 54.8157C52.6643 54.8424 52.5954 54.8562 52.5257 54.8562C52.4561 54.8562 52.3871 54.8424 52.3227 54.8157C52.2584 54.789 52.1999 54.75 52.1507 54.7007C52.1017 54.6524 52.0629 54.5948 52.0363 54.5313C52.0098 54.4678 51.9961 54.3997 51.9961 54.3309C51.9961 54.262 52.0098 54.1937 52.0363 54.1302C52.0629 54.0667 52.1017 54.0091 52.1507 53.9607C53.2259 53.0114 54.5487 52.3871 55.9651 52.1604C57.3814 51.9338 58.833 52.1142 60.1507 52.6807C60.3323 52.7693 60.5236 52.8364 60.7207 52.8807C61.7207 53.0807 61.9707 52.5408 62.4207 51.4908C62.4807 51.3408 62.5407 51.1908 62.6107 51.0508C63.1916 49.9556 64.1254 49.0888 65.2607 48.5909C65.5371 48.4554 65.8477 48.4057 66.1525 48.4485C66.4573 48.4913 66.7423 48.6245 66.9707 48.8308C67.1983 49.0298 67.361 49.2924 67.4376 49.5848C67.5143 49.8771 67.5014 50.1857 67.4007 50.4707C66.8645 52.0581 66.2162 53.6054 65.4607 55.1009C65.0548 55.9934 64.4926 56.806 63.8007 57.5008C62.4799 58.5037 60.9099 59.1262 59.2607 59.3008L58.6007 59.4407C57.1765 59.6025 55.8588 60.2739 54.8907 61.3308C54.728 61.5584 54.6406 61.8312 54.6407 62.1109V66.8807C54.6366 66.9963 54.5941 67.1073 54.5198 67.1961C54.4456 67.2848 54.3438 67.3462 54.2307 67.3706Z" fill="#333333"/>
<path d="M47.4206 67.6382C47.2801 67.6382 47.1453 67.5826 47.0459 67.4832C46.9465 67.3838 46.8906 67.249 46.8906 67.1084V57.3484C47.079 55.5762 47.6597 53.8682 48.5906 52.3484C50.2906 49.6484 52.8406 49.0782 54.9006 48.6182L55.5906 48.4583C55.727 48.4278 55.8699 48.4515 55.9893 48.5242C56.1087 48.5969 56.1952 48.7132 56.2306 48.8484C56.2607 48.9862 56.2357 49.1302 56.161 49.2498C56.0862 49.3694 55.9677 49.455 55.8306 49.4883L55.1306 49.6482C53.0706 50.1082 50.9506 50.5882 49.4906 52.9082C48.6413 54.2758 48.1114 55.8175 47.9406 57.4182V67.1282C47.9355 67.2636 47.8788 67.392 47.7821 67.4869C47.6854 67.5817 47.5561 67.6358 47.4206 67.6382Z" fill="#333333"/>
<path d="M61.4008 50.3718C61.2771 50.372 61.157 50.3297 61.0608 50.2519C60.9552 50.1593 60.8899 50.0292 60.8787 49.8892C60.8675 49.7491 60.9113 49.6102 61.0008 49.5019L62.1808 48.102L63.6108 39.292C63.6469 39.0577 63.7302 38.8332 63.8557 38.6321C63.9812 38.4309 64.1462 38.2572 64.3408 38.1218C64.5369 37.9857 64.7582 37.8901 64.9917 37.8403C65.2251 37.7905 65.4662 37.7878 65.7008 37.832C66.169 37.9221 66.5863 38.1849 66.8697 38.5684C67.1532 38.9518 67.282 39.4278 67.2308 39.9018L66.0308 49.042C66.0109 49.18 65.9383 49.3049 65.8284 49.3906C65.7184 49.4764 65.5795 49.5163 65.4408 49.5019C65.3008 49.482 65.1743 49.4081 65.0883 49.2959C65.0023 49.1837 64.9637 49.0422 64.9808 48.9018L66.1808 39.772C66.1971 39.5648 66.1369 39.3587 66.0116 39.1929C65.8863 39.027 65.7046 38.9127 65.5008 38.8718C65.3057 38.8404 65.1059 38.8833 64.9408 38.9919C64.7863 39.1046 64.6822 39.2733 64.6508 39.4619L63.1808 48.562L61.8108 50.1919C61.7593 50.2495 61.6961 50.2954 61.6253 50.3264C61.5546 50.3575 61.478 50.3729 61.4008 50.3718Z" fill="#333333"/>
<path d="M43.7105 67.0312H35.3105V69.9313H43.7105V67.0312Z" fill="#235AB0"/>
<path d="M44.2105 70.4312H34.8105V66.5312H44.2105V70.4312ZM35.8105 69.4312H43.2105V67.5312H35.8105V69.4312Z" fill="#333333"/>
<path d="M55.2691 67.0312H46.8691V69.9313H55.2691V67.0312Z" fill="#235AB0"/>
<path d="M55.7791 70.4312H46.3691V66.5312H55.7791V70.4312ZM47.3691 69.4312H54.7791V67.5312H47.3691V69.4312Z" fill="#333333"/>
</g>
<circle cx="45" cy="45" r="45" fill="#FAFAFA"/>
<g clip-path="url(#clip1_916_150322)">
<path d="M42.6602 67.6209L43.2102 60.3809L43.1802 56.8709L40.3802 51.2709L34.3802 49.3909L32.1902 47.1509L31.6102 40.6309L31.3502 39.3909L29.1002 39.2409L26.2702 38.7109L24.1202 39.7309L25.2202 49.1309L23.6602 49.9409V51.7209L26.5502 57.1609L28.2602 58.5709L34.3702 59.9909L36.4302 61.9709L35.8502 67.3609L42.6602 67.6209Z" fill="white"/>
<path d="M47.9797 67.6209L47.4297 60.3809L47.4497 56.8709L50.2597 51.2709L56.2497 49.3909L58.4497 47.1509L59.0297 40.6309L59.2797 39.3909L61.5397 39.2409L64.3697 38.7109L66.5197 39.7309L65.4097 49.1309L66.9697 49.9409V51.7209L64.0897 57.1609L62.3797 58.5709L56.2697 59.9909L54.1997 61.9709L54.7897 67.3609L47.9797 67.6209Z" fill="white"/>
<path d="M59.0194 20.7383H31.6094V36.1283H59.0194V20.7383Z" fill="white"/>
<path d="M31.68 49.8901C31.5983 49.8913 31.5175 49.8729 31.4444 49.8363C31.3713 49.7998 31.308 49.7462 31.26 49.6801L30.12 48.2301V48.1003C29.98 47.2903 29.73 45.8701 29.48 44.4101C29.23 42.9501 28.92 41.1501 28.75 40.1901C28.7063 39.9562 28.5737 39.7485 28.38 39.6103C28.1718 39.4791 27.9226 39.4291 27.68 39.4701L26.29 39.7502C26.2216 39.7646 26.151 39.7651 26.0824 39.7516C26.0138 39.7382 25.9486 39.7112 25.8907 39.672C25.8328 39.6328 25.7835 39.5823 25.7455 39.5236C25.7076 39.4649 25.6819 39.3991 25.67 39.3302C25.6433 39.1938 25.6714 39.0522 25.7481 38.9362C25.8248 38.8202 25.944 38.739 26.08 38.7101L27.48 38.4401C27.7373 38.3858 28.0029 38.3846 28.2608 38.4362C28.5187 38.4878 28.7633 38.5911 28.98 38.7402C29.1933 38.8843 29.3751 39.0704 29.5144 39.287C29.6536 39.5036 29.7474 39.7462 29.79 40.0002C29.96 41.0002 30.25 42.6301 30.52 44.2301C30.76 45.6201 30.99 46.9602 31.14 47.7902L32.14 49.0302C32.226 49.1422 32.2648 49.2833 32.2479 49.4235C32.2311 49.5637 32.1601 49.6918 32.05 49.7802C31.9436 49.8595 31.8125 49.8984 31.68 49.8901Z" fill="#333333"/>
<path d="M34.9006 49.9887C34.825 49.989 34.7501 49.9731 34.6811 49.9421C34.6121 49.911 34.5506 49.8656 34.5006 49.8088L32.2206 47.2387V47.0888C32.0306 46.0888 31.8606 44.9988 31.6706 43.8488C31.5106 42.8488 31.3406 41.8488 31.1506 40.7688C31.1328 40.6528 31.0917 40.5415 31.0299 40.4419C30.968 40.3422 30.8866 40.2561 30.7906 40.1887C30.5824 40.0575 30.3332 40.0077 30.0906 40.0488L29.3406 40.1987C29.2029 40.2256 29.0602 40.1978 28.9426 40.1213C28.825 40.0448 28.7418 39.9256 28.7106 39.7888C28.6842 39.6509 28.7136 39.508 28.7924 39.3918C28.8711 39.2756 28.9928 39.1953 29.1306 39.1687L29.8906 39.0188C30.1463 38.9641 30.4104 38.9625 30.6667 39.0141C30.923 39.0657 31.166 39.1695 31.3806 39.3188C31.594 39.463 31.7758 39.6488 31.915 39.8654C32.0543 40.082 32.148 40.3249 32.1906 40.5788C32.3906 41.6588 32.5506 42.6887 32.7106 43.6787C32.8706 44.6687 33.0606 45.7887 33.2306 46.7487L35.3206 49.1088C35.3699 49.1581 35.409 49.2164 35.4357 49.2807C35.4623 49.3451 35.4761 49.4142 35.4761 49.4838C35.4761 49.5535 35.4623 49.6224 35.4357 49.6867C35.409 49.7511 35.3699 49.8096 35.3206 49.8588C35.264 49.9093 35.1972 49.947 35.1247 49.9694C35.0523 49.9919 34.9758 49.9984 34.9006 49.9887Z" fill="#333333"/>
<path d="M36.38 67.8819C36.3109 67.8832 36.2422 67.8708 36.178 67.8452C36.1137 67.8197 36.0552 67.7816 36.0059 67.7332C35.9565 67.6848 35.9173 67.627 35.8905 67.5633C35.8638 67.4995 35.85 67.4312 35.85 67.3621V62.5921C35.8502 62.3123 35.7627 62.0396 35.6 61.812C34.6286 60.7594 33.3127 60.0889 31.89 59.9219L31.23 59.782C29.5808 59.6074 28.0108 58.9849 26.69 57.982C25.9942 57.2905 25.4315 56.4771 25.03 55.5821C24.2713 54.0868 23.6197 52.5394 23.08 50.9519C22.9805 50.666 22.9692 50.3567 23.0477 50.0642C23.1261 49.7718 23.2907 49.5098 23.52 49.312C23.7462 49.1054 24.0295 48.9718 24.3329 48.929C24.6363 48.8862 24.9455 48.9361 25.22 49.072C26.3604 49.5661 27.2986 50.4336 27.88 51.532C27.94 51.672 28.01 51.822 28.07 51.982C28.51 52.982 28.79 53.5521 29.77 53.3621C29.9667 53.3162 30.1578 53.2489 30.34 53.1619C31.6578 52.5954 33.1093 52.415 34.5257 52.6416C35.942 52.8682 37.2648 53.4926 38.34 54.4419C38.3903 54.4896 38.4303 54.547 38.4576 54.6106C38.4849 54.6742 38.499 54.7428 38.499 54.812C38.499 54.8813 38.4849 54.9498 38.4576 55.0135C38.4303 55.0771 38.3903 55.1343 38.34 55.1819C38.2924 55.2321 38.235 55.2722 38.1714 55.2996C38.1078 55.3269 38.0393 55.3411 37.97 55.3411C37.9008 55.3411 37.8323 55.3269 37.7687 55.2996C37.7051 55.2722 37.6477 55.2321 37.6 55.1819C36.6762 54.3604 35.5366 53.8204 34.3157 53.6255C33.0949 53.4306 31.8438 53.589 30.71 54.0821C30.454 54.2035 30.1859 54.2973 29.91 54.3621C28.03 54.7221 27.43 53.3021 27.03 52.3621L26.85 51.9419C26.3684 51.071 25.6075 50.3877 24.69 50.002C24.6039 49.9561 24.5056 49.9382 24.4089 49.9507C24.3121 49.9633 24.2216 50.0058 24.15 50.072C24.0776 50.1327 24.026 50.2144 24.0027 50.3059C23.9794 50.3975 23.9854 50.4942 24.02 50.5821C24.5386 52.1217 25.1669 53.6222 25.9 55.072C26.2484 55.8484 26.7326 56.556 27.33 57.1619C28.5055 58.02 29.884 58.5577 31.33 58.7219L32 58.8521C33.6796 59.0614 35.2239 59.8796 36.34 61.1519C36.6409 61.5602 36.8022 62.0548 36.8 62.562V67.3321C36.8097 67.4593 36.7723 67.5856 36.6948 67.687C36.6174 67.7885 36.5053 67.8577 36.38 67.8819Z" fill="#333333"/>
<path d="M43.1902 68.1504C43.1206 68.1504 43.0516 68.1368 42.9873 68.1101C42.923 68.0835 42.8646 68.0446 42.8154 67.9954C42.7662 67.9462 42.7271 67.8876 42.7005 67.8233C42.6739 67.759 42.6602 67.6902 42.6602 67.6206V57.8606C42.4844 56.278 41.9584 54.7543 41.1202 53.4004C39.6602 51.0804 37.5302 50.6004 35.4802 50.1404L34.7702 49.9805C34.635 49.945 34.5188 49.8586 34.4461 49.7393C34.3733 49.6199 34.3497 49.477 34.3802 49.3406C34.4156 49.2054 34.5021 49.0891 34.6215 49.0164C34.7408 48.9437 34.8838 48.92 35.0202 48.9505L35.7102 49.1106C37.7702 49.5706 40.3202 50.1106 42.0102 52.8406C42.9521 54.356 43.5368 56.0658 43.7202 57.8406V67.6504C43.7125 67.7857 43.6533 67.9131 43.5547 68.0061C43.4561 68.0991 43.3257 68.1506 43.1902 68.1504Z" fill="#333333"/>
<path d="M29.2001 50.8791C29.1244 50.88 29.0493 50.8645 28.9802 50.8334C28.9111 50.8023 28.8497 50.7565 28.8002 50.6991L27.4302 49.0693L25.9602 39.9692C25.9243 39.7798 25.8168 39.6115 25.6602 39.4992C25.4955 39.3896 25.2953 39.3466 25.1002 39.3791C24.8972 39.4201 24.7165 39.5347 24.5928 39.7008C24.4692 39.867 24.4113 40.073 24.4302 40.2792L25.6302 49.4091C25.6473 49.5494 25.6087 49.691 25.5227 49.8031C25.4367 49.9153 25.3101 49.9893 25.1701 50.0092C25.0314 50.0235 24.8926 49.9836 24.7826 49.8979C24.6726 49.8121 24.6001 49.6873 24.5802 49.5492L23.3802 40.4091C23.3289 39.935 23.4578 39.4591 23.7412 39.0756C24.0246 38.6921 24.4419 38.4294 24.9102 38.3393C25.1448 38.2956 25.3857 38.2985 25.6191 38.3483C25.8525 38.3981 26.0738 38.4935 26.2702 38.6291C26.4631 38.7661 26.627 38.9402 26.7523 39.141C26.8777 39.3419 26.9619 39.5656 27.0001 39.7992L28.4302 48.6093L29.6101 50.0092C29.6551 50.0629 29.689 50.1249 29.7099 50.1918C29.7307 50.2587 29.7381 50.3291 29.7316 50.3988C29.7251 50.4686 29.7048 50.5362 29.6719 50.5981C29.6391 50.6599 29.5943 50.7148 29.5401 50.7592C29.4439 50.837 29.3239 50.8792 29.2001 50.8791Z" fill="#333333"/>
<path d="M58.93 49.8901C58.8143 49.8886 58.7021 49.8502 58.61 49.7802C58.4999 49.6918 58.4289 49.5637 58.4121 49.4235C58.3952 49.2833 58.434 49.1422 58.52 49.0302L59.52 47.7902C59.66 46.9602 59.9 45.6201 60.14 44.2301C60.41 42.6301 60.7 40.9702 60.87 40.0002C60.9126 39.7462 61.0064 39.5036 61.1456 39.287C61.2848 39.0704 61.4667 38.8843 61.68 38.7402C61.8967 38.5911 62.1413 38.4878 62.3992 38.4362C62.6571 38.3846 62.9227 38.3858 63.18 38.4401L64.58 38.7101C64.716 38.739 64.8352 38.8202 64.9119 38.9362C64.9886 39.0522 65.0167 39.1938 64.99 39.3302C64.9781 39.3991 64.9524 39.4649 64.9145 39.5236C64.8765 39.5823 64.8272 39.6328 64.7693 39.672C64.7114 39.7112 64.6462 39.7382 64.5776 39.7516C64.509 39.7651 64.4384 39.7646 64.37 39.7502L62.97 39.4701C62.7305 39.4235 62.4823 39.474 62.28 39.6103C62.1813 39.6758 62.0974 39.7611 62.0337 39.861C61.97 39.9609 61.9279 40.073 61.91 40.1901C61.74 41.1901 61.45 42.8101 61.18 44.4101C60.91 46.0101 60.68 47.2903 60.54 48.1003V48.2301L59.4 49.6801C59.346 49.7522 59.2745 49.8094 59.1922 49.8461C59.11 49.8829 59.0197 49.8979 58.93 49.8901Z" fill="#333333"/>
<path d="M55.7105 49.9887C55.582 49.9893 55.4576 49.9432 55.3605 49.8588C55.3113 49.8096 55.2722 49.7511 55.2455 49.6867C55.2188 49.6224 55.2051 49.5535 55.2051 49.4838C55.2051 49.4142 55.2188 49.3451 55.2455 49.2807C55.2722 49.2164 55.3113 49.1581 55.3605 49.1088L57.4405 46.7487C57.6205 45.7487 57.7905 44.7487 57.9605 43.6787C58.1305 42.6087 58.2905 41.6788 58.4805 40.5788C58.5249 40.3242 58.6204 40.0813 58.7614 39.8647C58.9023 39.6481 59.0857 39.4624 59.3005 39.3188C59.5151 39.1695 59.7581 39.0657 60.0144 39.0141C60.2707 38.9625 60.5349 38.9641 60.7905 39.0188L61.5505 39.1687C61.6185 39.1818 61.6832 39.2084 61.7408 39.2468C61.7984 39.2852 61.8477 39.3348 61.8859 39.3925C61.9241 39.4503 61.9504 39.5152 61.9632 39.5832C61.976 39.6512 61.9751 39.7211 61.9605 39.7888C61.9474 39.8568 61.9209 39.9214 61.8825 39.979C61.844 40.0366 61.7945 40.086 61.7368 40.1242C61.679 40.1624 61.6142 40.1886 61.5462 40.2014C61.4781 40.2142 61.4082 40.2133 61.3405 40.1987L60.5905 40.0488C60.3479 40.0077 60.0987 40.0575 59.8905 40.1887C59.6968 40.3269 59.5642 40.5348 59.5205 40.7688C59.3405 41.8288 59.1705 42.8588 59.0105 43.8488C58.8205 44.9988 58.6505 46.0788 58.4605 47.0888V47.2387L56.1805 49.8088C56.1233 49.8754 56.0503 49.9265 55.9683 49.958C55.8862 49.9894 55.7977 50 55.7105 49.9887Z" fill="#333333"/>
<path d="M54.2307 67.8785C54.1616 67.8798 54.0929 67.8674 54.0286 67.8418C53.9644 67.8163 53.9059 67.7782 53.8565 67.7298C53.8072 67.6814 53.768 67.6236 53.7412 67.5599C53.7145 67.4961 53.7007 67.4278 53.7007 67.3587V62.5887C53.6978 62.086 53.8554 61.5953 54.1507 61.1885C55.2689 59.9118 56.8168 59.0898 58.5007 58.8785L59.1707 58.7486C60.6168 58.5843 61.9953 58.0466 63.1707 57.1885C63.7681 56.5826 64.2524 55.875 64.6007 55.0987C65.3339 53.6488 65.9621 52.1483 66.4807 50.6087C66.5138 50.5206 66.5191 50.4242 66.4959 50.333C66.4726 50.2419 66.422 50.1602 66.3507 50.0987C66.2768 50.0328 66.1847 49.9908 66.0866 49.9783C65.9884 49.9658 65.8887 49.9834 65.8007 50.0286C64.8857 50.4142 64.128 51.0978 63.6507 51.9685C63.5907 52.1019 63.5307 52.2418 63.4707 52.3885C63.0707 53.3285 62.4707 54.7785 60.5907 54.3885C60.3144 54.3255 60.046 54.2318 59.7907 54.1087C58.657 53.6157 57.4059 53.4572 56.185 53.6521C54.9642 53.847 53.8246 54.387 52.9007 55.2085C52.8515 55.2578 52.793 55.2968 52.7287 55.3235C52.6643 55.3502 52.5954 55.3641 52.5257 55.3641C52.4561 55.3641 52.3871 55.3502 52.3227 55.3235C52.2584 55.2968 52.1999 55.2578 52.1507 55.2085C52.1017 55.1602 52.0629 55.1026 52.0363 55.0391C52.0098 54.9756 51.9961 54.9075 51.9961 54.8387C51.9961 54.7698 52.0098 54.7015 52.0363 54.638C52.0629 54.5745 52.1017 54.5169 52.1507 54.4685C53.2259 53.5192 54.5487 52.8949 55.9651 52.6683C57.3814 52.4416 58.833 52.622 60.1507 53.1885C60.3323 53.2771 60.5236 53.3442 60.7207 53.3885C61.7207 53.5885 61.9707 53.0486 62.4207 51.9986C62.4807 51.8486 62.5407 51.6986 62.6107 51.5586C63.1916 50.4634 64.1254 49.5966 65.2607 49.0987C65.5371 48.9632 65.8477 48.9136 66.1525 48.9563C66.4573 48.9991 66.7423 49.1324 66.9707 49.3387C67.1983 49.5376 67.361 49.8002 67.4376 50.0926C67.5143 50.385 67.5014 50.6936 67.4007 50.9786C66.8645 52.5659 66.2162 54.1132 65.4607 55.6087C65.0548 56.5012 64.4926 57.3139 63.8007 58.0086C62.4799 59.0115 60.9099 59.634 59.2607 59.8086L58.6007 59.9485C57.1765 60.1103 55.8588 60.7817 54.8907 61.8387C54.728 62.0662 54.6406 62.339 54.6407 62.6187V67.3885C54.6366 67.5041 54.5941 67.6151 54.5198 67.7039C54.4456 67.7927 54.3438 67.854 54.2307 67.8785Z" fill="#333333"/>
<path d="M47.4206 68.1499C47.2801 68.1499 47.1453 68.0943 47.0459 67.9949C46.9465 67.8955 46.8906 67.7607 46.8906 67.6202V57.8601C47.079 56.0879 47.6597 54.3799 48.5906 52.8601C50.2906 50.1601 52.8406 49.5899 54.9006 49.1299L55.5906 48.97C55.727 48.9395 55.8699 48.9632 55.9893 49.0359C56.1087 49.1087 56.1952 49.2249 56.2306 49.3601C56.2607 49.4979 56.2357 49.6419 56.161 49.7615C56.0862 49.8811 55.9677 49.9667 55.8306 50L55.1306 50.1599C53.0706 50.6199 50.9506 51.1 49.4906 53.42C48.6413 54.7875 48.1114 56.3292 47.9406 57.93V67.6399C47.9355 67.7753 47.8788 67.9037 47.7821 67.9986C47.6854 68.0934 47.5561 68.1475 47.4206 68.1499Z" fill="#333333"/>
<path d="M61.4008 50.8796C61.2771 50.8798 61.157 50.8375 61.0608 50.7598C60.9552 50.6671 60.8899 50.537 60.8787 50.397C60.8675 50.2569 60.9113 50.118 61.0008 50.0098L62.1808 48.6099L63.6108 39.7998C63.6469 39.5655 63.7302 39.341 63.8557 39.1399C63.9812 38.9388 64.1462 38.765 64.3408 38.6296C64.5369 38.4935 64.7582 38.3979 64.9917 38.3481C65.2251 38.2983 65.4662 38.2956 65.7008 38.3398C66.169 38.4299 66.5863 38.6927 66.8697 39.0762C67.1532 39.4596 67.282 39.9356 67.2308 40.4097L66.0308 49.5498C66.0109 49.6878 65.9383 49.8127 65.8284 49.8984C65.7184 49.9842 65.5795 50.0241 65.4408 50.0098C65.3008 49.9899 65.1743 49.9159 65.0883 49.8037C65.0023 49.6915 64.9637 49.55 64.9808 49.4097L66.1808 40.2798C66.1971 40.0726 66.1369 39.8665 66.0116 39.7007C65.8863 39.5348 65.7046 39.4206 65.5008 39.3796C65.3057 39.3482 65.1059 39.3911 64.9408 39.4997C64.7863 39.6124 64.6822 39.7811 64.6508 39.9697L63.1808 49.0698L61.8108 50.6997C61.7593 50.7573 61.6961 50.8032 61.6253 50.8342C61.5546 50.8653 61.478 50.8807 61.4008 50.8796Z" fill="#333333"/>
<path d="M59.5194 36.7517H31.1094V20.0117H59.5394L59.5194 36.7517ZM32.1494 35.6917H58.4594V21.0718H32.1094L32.1494 35.6917Z" fill="#333333"/>
<path d="M41.2194 32.9792C41.08 32.9757 40.9474 32.9184 40.8494 32.8193C40.2643 32.2343 39.8002 31.5398 39.4835 30.7754C39.1669 30.011 39.0039 29.1916 39.0039 28.3643C39.0039 27.5369 39.1669 26.7175 39.4835 25.9531C39.8002 25.1887 40.2643 24.4942 40.8494 23.9092C40.8986 23.8599 40.957 23.8209 41.0214 23.7942C41.0857 23.7675 41.1547 23.7539 41.2244 23.7539C41.294 23.7539 41.363 23.7675 41.4273 23.7942C41.4917 23.8209 41.5501 23.8599 41.5994 23.9092C41.6965 24.0098 41.7508 24.1443 41.7508 24.2842C41.7508 24.4241 41.6965 24.5585 41.5994 24.6592C41.1117 25.1451 40.7247 25.7226 40.4606 26.3584C40.1966 26.9942 40.0607 27.6758 40.0607 28.3643C40.0607 29.0527 40.1966 29.7343 40.4606 30.3701C40.7247 31.0059 41.1117 31.5834 41.5994 32.0693C41.6965 32.17 41.7508 32.3044 41.7508 32.4443C41.7508 32.5842 41.6965 32.7187 41.5994 32.8193C41.4971 32.9182 41.3616 32.9752 41.2194 32.9792Z" fill="#333333"/>
<path d="M49.3909 32.9792C49.2483 32.9772 49.1121 32.9199 49.0109 32.8193C48.9617 32.7701 48.9226 32.7116 48.8959 32.6472C48.8692 32.5829 48.8555 32.514 48.8555 32.4443C48.8555 32.3747 48.8692 32.3056 48.8959 32.2412C48.9226 32.1769 48.9617 32.1186 49.0109 32.0693C49.4986 31.5834 49.8856 31.0059 50.1497 30.3701C50.4137 29.7343 50.5496 29.0527 50.5496 28.3643C50.5496 27.6758 50.4137 26.9942 50.1497 26.3584C49.8856 25.7226 49.4986 25.1451 49.0109 24.6592C48.9617 24.61 48.9226 24.5517 48.8959 24.4873C48.8692 24.423 48.8555 24.3538 48.8555 24.2842C48.8555 24.2145 48.8692 24.1456 48.8959 24.0813C48.9226 24.017 48.9617 23.9584 49.0109 23.9092C49.0602 23.8599 49.1186 23.8209 49.183 23.7942C49.2473 23.7675 49.3163 23.7539 49.3859 23.7539C49.4556 23.7539 49.5246 23.7675 49.5889 23.7942C49.6533 23.8209 49.7117 23.8599 49.7609 23.9092C50.346 24.4942 50.8101 25.1887 51.1268 25.9531C51.4434 26.7175 51.6064 27.5369 51.6064 28.3643C51.6064 29.1916 51.4434 30.011 51.1268 30.7754C50.8101 31.5398 50.346 32.2343 49.7609 32.8193C49.6629 32.9184 49.5303 32.9757 49.3909 32.9792Z" fill="#333333"/>
<path d="M54.6198 29.6087C54.5074 29.61 54.3958 29.5888 54.2915 29.5467C54.1872 29.5046 54.0923 29.4422 54.0123 29.3631C53.9323 29.284 53.8688 29.19 53.8255 29.0862C53.7821 28.9825 53.7598 28.8711 53.7598 28.7586C53.7585 28.6453 53.7798 28.5327 53.8226 28.4278C53.8653 28.3228 53.9286 28.2276 54.0087 28.1475C54.0889 28.0674 54.1842 28.004 54.2891 27.9612C54.3941 27.9185 54.5065 27.8972 54.6198 27.8985C54.7323 27.8985 54.8436 27.9208 54.9474 27.9642C55.0512 28.0075 55.1454 28.0712 55.2244 28.1512C55.3035 28.2312 55.3659 28.326 55.408 28.4302C55.4501 28.5345 55.4711 28.6461 55.4698 28.7586C55.4698 28.984 55.3803 29.2003 55.2209 29.3597C55.0615 29.5191 54.8453 29.6087 54.6198 29.6087ZM54.6198 28.5486C54.5649 28.5511 54.5129 28.574 54.474 28.6129C54.4352 28.6517 54.4123 28.7037 54.4098 28.7586C54.4098 28.9786 54.8198 28.9786 54.8198 28.7586C54.8199 28.7046 54.7991 28.6527 54.7619 28.6136C54.7246 28.5745 54.6738 28.5512 54.6198 28.5486Z" fill="#333333"/>
<path d="M35.9907 29.6086C35.7653 29.6086 35.5491 29.519 35.3896 29.3596C35.2302 29.2002 35.1407 28.984 35.1407 28.7585C35.1394 28.6461 35.1604 28.5345 35.2025 28.4302C35.2446 28.3259 35.307 28.2311 35.3861 28.1511C35.4651 28.0711 35.5593 28.0075 35.6631 27.9641C35.7669 27.9208 35.8782 27.8984 35.9907 27.8984C36.2188 27.8984 36.4375 27.9891 36.5988 28.1504C36.7601 28.3117 36.8507 28.5305 36.8507 28.7585C36.8481 28.9849 36.7563 29.201 36.5953 29.3601C36.4343 29.5192 36.2171 29.6087 35.9907 29.6086ZM35.9907 28.5486C35.9367 28.5512 35.8859 28.5744 35.8486 28.6135C35.8114 28.6526 35.7906 28.7045 35.7907 28.7585C35.7907 28.9785 36.1907 28.9785 36.1907 28.7585C36.1907 28.7045 36.17 28.6526 36.1328 28.6135C36.0955 28.5744 36.0446 28.5512 35.9907 28.5486Z" fill="#333333"/>
<path d="M45.3006 32.0808C44.7375 32.0782 44.1982 31.8525 43.8009 31.4534C43.4037 31.0542 43.1806 30.5139 43.1806 29.9507C43.1806 29.8811 43.1943 29.8121 43.221 29.7478C43.2476 29.6835 43.2866 29.6251 43.3359 29.5759C43.3851 29.5267 43.4435 29.4878 43.5078 29.4612C43.5721 29.4345 43.641 29.4207 43.7106 29.4207C43.7802 29.4207 43.8491 29.4345 43.9135 29.4612C43.9778 29.4878 44.0362 29.5267 44.0854 29.5759C44.1346 29.6251 44.1736 29.6835 44.2003 29.7478C44.2269 29.8121 44.2406 29.8811 44.2406 29.9507C44.2406 30.2327 44.352 30.5035 44.5505 30.7039C44.749 30.9042 45.0186 31.0181 45.3006 31.0208C45.5844 31.0208 45.8566 30.9079 46.0572 30.7073C46.2579 30.5066 46.3706 30.2345 46.3706 29.9507C46.3706 29.5207 46.1706 29.2008 45.1406 28.8608C43.8406 28.4408 43.1406 27.7308 43.1406 26.7708C43.1406 26.2076 43.3637 25.6672 43.7609 25.2681C44.1582 24.8689 44.6975 24.6433 45.2606 24.6406C45.8247 24.6433 46.365 24.8687 46.7639 25.2676C47.1627 25.6665 47.388 26.2067 47.3906 26.7708C47.3906 26.9113 47.3348 27.0461 47.2354 27.1455C47.136 27.2449 47.0012 27.3008 46.8606 27.3008C46.7201 27.3008 46.5853 27.2449 46.4859 27.1455C46.3865 27.0461 46.3306 26.9113 46.3306 26.7708C46.3306 26.487 46.2179 26.2148 46.0172 26.0142C45.8166 25.8135 45.5444 25.7007 45.2606 25.7007C44.9786 25.7033 44.709 25.8172 44.5105 26.0176C44.312 26.218 44.2006 26.4887 44.2006 26.7708C44.2006 27.0908 44.3406 27.5008 45.4306 27.8608C46.0106 28.0508 47.4306 28.5007 47.4306 29.9507C47.428 30.5148 47.2027 31.055 46.8039 31.4539C46.405 31.8527 45.8647 32.0782 45.3006 32.0808Z" fill="#333333"/>
<path d="M45.2994 25.749C45.2303 25.749 45.1618 25.7353 45.0981 25.7085C45.0343 25.6817 44.9765 25.6426 44.9281 25.5933C44.8797 25.5439 44.8416 25.4854 44.8161 25.4211C44.7905 25.3569 44.7781 25.2881 44.7794 25.219V24.3191C44.7781 24.25 44.7905 24.1812 44.8161 24.1169C44.8416 24.0527 44.8797 23.9942 44.9281 23.9448C44.9765 23.8955 45.0343 23.8563 45.0981 23.8296C45.1618 23.8028 45.2303 23.789 45.2994 23.7891C45.44 23.7891 45.5748 23.8449 45.6742 23.9443C45.7736 24.0437 45.8294 24.1785 45.8294 24.3191V25.219C45.8308 25.289 45.818 25.3584 45.7918 25.4233C45.7657 25.4883 45.7267 25.5474 45.6772 25.5969C45.6277 25.6464 45.5687 25.6853 45.5038 25.7114C45.4389 25.7376 45.3694 25.7504 45.2994 25.749Z" fill="#333333"/>
<path d="M45.2994 32.9795C45.2303 32.9795 45.1618 32.9657 45.0981 32.939C45.0343 32.9122 44.9765 32.8731 44.9281 32.8237C44.8797 32.7744 44.8416 32.7159 44.8161 32.6516C44.7905 32.5874 44.7781 32.5186 44.7794 32.4495V31.5496C44.7781 31.4804 44.7905 31.4117 44.8161 31.3474C44.8416 31.2832 44.8797 31.2246 44.9281 31.1753C44.9765 31.1259 45.0343 31.0868 45.0981 31.0601C45.1618 31.0333 45.2303 31.0195 45.2994 31.0195C45.44 31.0195 45.5748 31.0754 45.6742 31.1748C45.7736 31.2742 45.8294 31.409 45.8294 31.5496V32.4495C45.8294 32.59 45.7736 32.7248 45.6742 32.8242C45.5748 32.9236 45.44 32.9795 45.2994 32.9795Z" fill="#333333"/>
<path d="M43.7105 67.5508H35.3105V70.4508H43.7105V67.5508Z" fill="#235AB0"/>
<path d="M44.2105 70.939H34.8105V67.0391H44.2105V70.939ZM35.8105 69.939H43.2105V68.0391H35.8105V69.939Z" fill="#333333"/>
<path d="M55.2691 67.5508H46.8691V70.4508H55.2691V67.5508Z" fill="#235AB0"/>
<path d="M55.7791 70.939H46.3691V67.0391H55.7791V70.939ZM47.3691 69.939H54.7791V68.0391H47.3691V69.939Z" fill="#333333"/>
</g>
<defs>
<clipPath id="clip0_916_150322">
<rect width="44.61" height="50.43" fill="white" transform="translate(23 20)"/>
</clipPath>
<clipPath id="clip1_916_150322">
<rect width="44.61" height="50.94" fill="white" transform="translate(23 20)"/>
</clipPath>
</defs>
</svg>
