<svg width="90" height="90" viewBox="0 0 90 90" fill="none" xmlns="http://www.w3.org/2000/svg">
<circle cx="45" cy="45" r="45" fill="#FAFAFA"/>
<g clip-path="url(#clip0_1988_380642)">
<path d="M28.28 65.9102H61.54L65.42 72.3002L64.84 73.8802L26.07 74.2302L24.29 73.0402L24.85 71.3602L28.28 65.9102Z" fill="white"/>
<path d="M27.43 28.2298L40.06 28.1498L40.59 27.2398L44.95 25.1298L48.18 26.9498L48.33 18.1798L52.8 15.5898L57.46 18.3498V28.3798L63.01 28.2298L65.14 30.7598V54.8198L62.9 57.8698H55.25L56.75 62.3398H33L34.71 57.7698H27.23L24.85 55.4998L25.03 30.4098L27.43 28.2298Z" fill="white"/>
<path d="M39.94 38.1402V51.0402L37.09 52.6802V39.7802L34.25 38.1402L37.09 36.4902L39.94 38.1402Z" fill="#235AB0"/>
<path d="M40.32 36.8401C40.1794 36.8401 40.0446 36.7842 39.9452 36.6848C39.8458 36.5854 39.79 36.4506 39.79 36.3101V27.7C39.79 27.5594 39.8458 27.4246 39.9452 27.3252C40.0446 27.2258 40.1794 27.1699 40.32 27.1699C40.4605 27.1699 40.5953 27.2258 40.6947 27.3252C40.7941 27.4246 40.85 27.5594 40.85 27.7V36.3101C40.85 36.4506 40.7941 36.5854 40.6947 36.6848C40.5953 36.7842 40.4605 36.8401 40.32 36.8401Z" fill="#333333"/>
<path d="M44.94 50.7008C44.8709 50.7008 44.8025 50.687 44.7387 50.6603C44.675 50.6335 44.6171 50.5944 44.5687 50.545C44.5203 50.4957 44.4823 50.4372 44.4567 50.3729C44.4312 50.3087 44.4187 50.2399 44.42 50.1708V30.6708L40.06 28.161C39.9376 28.0898 39.8481 27.9733 39.8107 27.8368C39.7733 27.7002 39.791 27.5544 39.86 27.4308C39.9329 27.3101 40.0499 27.2229 40.1863 27.1874C40.3227 27.1519 40.4676 27.171 40.59 27.2408L45.47 30.0609V50.1708C45.47 50.3113 45.4142 50.4464 45.3148 50.5458C45.2154 50.6452 45.0806 50.7008 44.94 50.7008Z" fill="#333333"/>
<path d="M44.94 50.699C44.8476 50.699 44.7569 50.6741 44.6776 50.6265C44.5983 50.579 44.5335 50.5106 44.49 50.429C44.4207 50.3081 44.4017 50.1648 44.4372 50.0301C44.4728 49.8953 44.5601 49.78 44.68 49.709L49.04 47.189V28.0391L44.68 25.5291C44.5594 25.4563 44.4719 25.3391 44.4364 25.2027C44.4009 25.0663 44.4202 24.9215 44.49 24.7991C44.5242 24.7387 44.5701 24.6858 44.625 24.6434C44.68 24.601 44.7429 24.57 44.81 24.5523C44.8771 24.5346 44.947 24.5306 45.0157 24.5403C45.0844 24.5501 45.1505 24.5735 45.21 24.6092L50.1 27.429V47.8392L45.21 50.6592C45.125 50.6959 45.0319 50.7095 44.94 50.699Z" fill="#333333"/>
<path d="M48.17 27.4199C48.1009 27.4199 48.0324 27.4064 47.9686 27.3796C47.9049 27.3529 47.8471 27.3135 47.7987 27.2642C47.7503 27.2148 47.7122 27.1563 47.6867 27.092C47.6611 27.0278 47.6486 26.9593 47.65 26.8901V18.28C47.6486 18.2109 47.6611 18.1421 47.6867 18.0779C47.7122 18.0136 47.7503 17.9551 47.7987 17.9058C47.8471 17.8564 47.9049 17.8173 47.9686 17.7905C48.0324 17.7638 48.1009 17.75 48.17 17.75C48.2396 17.75 48.3085 17.7636 48.3728 17.7903C48.4371 17.8169 48.4955 17.8561 48.5447 17.9053C48.594 17.9545 48.633 18.0128 48.6596 18.0771C48.6862 18.1415 48.7 18.2104 48.7 18.28V26.8901C48.7 27.0307 48.6441 27.1655 48.5447 27.2649C48.4453 27.3643 48.3106 27.4199 48.17 27.4199Z" fill="#333333"/>
<path d="M52.8 46.2097C52.6594 46.2097 52.5246 46.1539 52.4252 46.0545C52.3258 45.9551 52.27 45.8203 52.27 45.6797V21.2598L47.91 18.7398C47.79 18.6688 47.7028 18.5535 47.6672 18.4187C47.6317 18.284 47.6506 18.1407 47.72 18.0198C47.7892 17.8981 47.9038 17.8087 48.0387 17.7713C48.1736 17.7338 48.3178 17.7513 48.4399 17.8198L53.33 20.6399V45.6399C53.3355 45.7128 53.3259 45.786 53.3017 45.855C53.2775 45.924 53.2394 45.9873 53.1896 46.0408C53.1399 46.0943 53.0795 46.1369 53.0125 46.166C52.9454 46.1951 52.8731 46.2099 52.8 46.2097Z" fill="#333333"/>
<path d="M37.09 55.3394L31.94 52.3394V36.7793L37.09 33.7793L42.24 36.7793V52.3394L37.09 55.3394ZM33 51.7593L37.09 54.1194L41.18 51.7593V37.4192L37.09 35.0493L33 37.4192V51.7593Z" fill="#333333"/>
<path d="M40.32 28.23C40.2265 28.2287 40.135 28.2032 40.0543 28.1558C39.9737 28.1085 39.9067 28.041 39.86 27.96C39.7915 27.8379 39.774 27.6938 39.8115 27.5589C39.8489 27.424 39.9383 27.3093 40.0599 27.2401L44.68 24.5701C44.7395 24.5344 44.8056 24.511 44.8743 24.5013C44.943 24.4915 45.0129 24.4955 45.08 24.5132C45.1471 24.531 45.21 24.5619 45.265 24.6043C45.3199 24.6467 45.3658 24.6997 45.4 24.7601C45.4698 24.8825 45.4891 25.0275 45.4536 25.1639C45.4181 25.3003 45.3306 25.4172 45.21 25.4901L40.59 28.1602C40.5058 28.202 40.4138 28.2256 40.32 28.23Z" fill="#333333"/>
<path d="M52.8 46.21C52.7073 46.2106 52.616 46.187 52.5353 46.1414C52.4546 46.0957 52.3872 46.0297 52.34 45.95C52.2702 45.8275 52.2509 45.6828 52.2864 45.5464C52.3219 45.41 52.4093 45.2928 52.53 45.22L56.89 42.71V18.5901L52.8 16.22L48.44 18.74C48.3191 18.8093 48.1758 18.8283 48.041 18.7927C47.9062 18.7572 47.7909 18.67 47.72 18.55C47.6502 18.4276 47.6309 18.2829 47.6664 18.1465C47.7019 18.0101 47.7894 17.8929 47.91 17.8201L52.8 15L57.95 18V43.3401L53.06 46.1602C52.9797 46.2009 52.8897 46.218 52.8 46.21Z" fill="#333333"/>
<path d="M61.91 58.3201H27.97C27.0417 58.3201 26.1515 57.9513 25.4951 57.2949C24.8388 56.6385 24.47 55.7483 24.47 54.8201V31.1602C24.47 30.2319 24.8388 29.3414 25.4951 28.6851C26.1515 28.0287 27.0417 27.6602 27.97 27.6602H39.79C39.9306 27.6602 40.0654 27.7158 40.1648 27.8152C40.2642 27.9146 40.32 28.0494 40.32 28.1899C40.32 28.3305 40.2642 28.4653 40.1648 28.5647C40.0654 28.6641 39.9306 28.72 39.79 28.72H27.97C27.3229 28.72 26.7022 28.9772 26.2447 29.4348C25.7871 29.8924 25.53 30.513 25.53 31.1602V54.8201C25.53 55.4681 25.7867 56.0897 26.244 56.5488C26.7014 57.008 27.322 57.2674 27.97 57.27H61.91C62.2317 57.27 62.5503 57.2066 62.8476 57.0835C63.1448 56.9604 63.4149 56.78 63.6424 56.5525C63.8699 56.325 64.0504 56.0548 64.1735 55.7576C64.2966 55.4603 64.36 55.1418 64.36 54.8201V31.1602C64.3574 30.5121 64.0981 29.8914 63.6389 29.4341C63.1797 28.9768 62.5581 28.72 61.91 28.72H57.63C57.4894 28.72 57.3546 28.6641 57.2552 28.5647C57.1558 28.4653 57.1 28.3305 57.1 28.1899C57.1 28.0494 57.1558 27.9146 57.2552 27.8152C57.3546 27.7158 57.4894 27.6602 57.63 27.6602H61.91C62.8383 27.6602 63.7285 28.0287 64.3849 28.6851C65.0412 29.3414 65.41 30.2319 65.41 31.1602V54.8201C65.41 55.7483 65.0412 56.6385 64.3849 57.2949C63.7285 57.9513 62.8383 58.3201 61.91 58.3201Z" fill="#333333"/>
<path d="M56.93 62.9105H32.93C32.8424 62.9108 32.7561 62.8887 32.6792 62.8468C32.6022 62.8048 32.5372 62.7441 32.49 62.6702C32.448 62.5954 32.4259 62.5112 32.4259 62.4254C32.4259 62.3396 32.448 62.2551 32.49 62.1803L34.3 57.6004C34.3534 57.4705 34.4553 57.3664 34.5841 57.3104C34.713 57.2544 34.8586 57.2508 34.99 57.3004C35.1198 57.3536 35.2233 57.4562 35.2776 57.5855C35.332 57.7149 35.3328 57.8603 35.28 57.9903L33.76 61.8504H56.17L54.64 57.9903C54.5904 57.8589 54.594 57.7134 54.6501 57.5846C54.7061 57.4557 54.81 57.3538 54.94 57.3004C55.0714 57.2508 55.217 57.2544 55.3459 57.3104C55.4747 57.3664 55.5766 57.4705 55.63 57.6004L57.44 62.1803C57.4771 62.2566 57.4964 62.3405 57.4964 62.4254C57.4964 62.5103 57.4771 62.5939 57.44 62.6702C57.3853 62.7533 57.3088 62.8198 57.2188 62.8621C57.1288 62.9045 57.0289 62.9213 56.93 62.9105Z" fill="#333333"/>
<path d="M63.95 74.7393H25.95C25.6078 74.7365 25.2725 74.6424 24.9789 74.4666C24.6852 74.2907 24.444 74.0397 24.28 73.7393C24.1125 73.4471 24.0243 73.1161 24.0243 72.7793C24.0243 72.4425 24.1125 72.1115 24.28 71.8193L27.75 65.5493C27.7983 65.4676 27.8671 65.3996 27.9494 65.3523C28.0318 65.305 28.125 65.2799 28.22 65.2793H61.75C61.8435 65.2806 61.935 65.3062 62.0157 65.3535C62.0963 65.4008 62.1633 65.4683 62.21 65.5493L65.69 71.8193C65.8575 72.1115 65.9457 72.4425 65.9457 72.7793C65.9457 73.1161 65.8575 73.4471 65.69 73.7393C65.5204 74.0502 65.2681 74.3084 64.961 74.4849C64.6539 74.6614 64.304 74.7493 63.95 74.7393ZM28.49 66.3794L25.17 72.3794C25.0918 72.5128 25.0505 72.6647 25.0505 72.8193C25.0505 72.974 25.0918 73.1258 25.17 73.2593C25.2476 73.3916 25.3587 73.5011 25.4922 73.5767C25.6256 73.6522 25.7767 73.6909 25.93 73.6892H63.93C64.0832 73.6899 64.2338 73.6506 64.3671 73.5752C64.5004 73.4998 64.6117 73.3909 64.69 73.2593C64.7662 73.1252 64.8064 72.9736 64.8064 72.8193C64.8064 72.6651 64.7662 72.5135 64.69 72.3794L61.37 66.3794H28.49Z" fill="#333333"/>
<path d="M62.47 71.9206L60.37 68.1406H29.53L27.43 71.9206H62.47Z" fill="#235AB0"/>
</g>
<defs>
<clipPath id="clip0_1988_380642">
<rect width="41.89" height="59.74" fill="white" transform="translate(24 15)"/>
</clipPath>
</defs>
</svg>
