<svg width="100" height="100" viewBox="0 0 100 100" fill="none" xmlns="http://www.w3.org/2000/svg">
<circle cx="50" cy="50" r="50" fill="#F2F6FB"/>
<g clip-path="url(#clip0_1787_394036)">
<path d="M31.294 67.9546H65.1882L68.8007 75.0303L67.8953 76.5238H28.979L27.196 74.9556L31.294 67.9546Z" fill="white"/>
<path d="M29.4177 29.9436H41.5248L43.149 27.6099L45.0066 27.3952L45.2307 25.8643L46.8362 25.5283H55.8629L66.131 23.6427L69.0808 22.3545L70.397 23.876L70.1169 36.6832L68.2593 37.9248V57.817L66.6911 59.8426H58.1965L60.2502 64.6126L36.204 64.3886L37.6509 59.7399L29.4177 59.8426L27.7281 58.041L27.8588 31.3065L29.4177 29.9436Z" fill="white"/>
<path d="M30.6219 74.0783L32.6101 70.4751H63.676L65.6736 74.0783H30.6219Z" fill="#235AB0"/>
<path d="M66.1777 60.4312H30.1085C29.4111 60.4287 28.7429 60.1506 28.2498 59.6574C27.7567 59.1643 27.4785 58.4961 27.4761 57.7987V32.1283C27.4761 31.7826 27.5442 31.4404 27.6765 31.121C27.8087 30.8016 28.0026 30.5115 28.2471 30.2671C28.4915 30.0226 28.7817 29.8287 29.1011 29.6964C29.4204 29.5641 29.7628 29.4961 30.1085 29.4961H42.0195C42.1507 29.4961 42.2766 29.548 42.3694 29.6408C42.4621 29.7336 42.5142 29.8594 42.5142 29.9906C42.5142 30.1218 42.4621 30.2477 42.3694 30.3405C42.2766 30.4332 42.1507 30.4854 42.0195 30.4854H30.1085C29.8927 30.4854 29.6791 30.5279 29.4798 30.6105C29.2804 30.6931 29.0993 30.8142 28.9468 30.9667C28.7942 31.1193 28.6732 31.3004 28.5906 31.4998C28.508 31.6991 28.4655 31.9126 28.4655 32.1283V57.7987C28.4655 58.2344 28.6387 58.6524 28.9468 58.9605C29.2549 59.2686 29.6727 59.4416 30.1085 59.4416H66.1777C66.6118 59.4392 67.0273 59.265 67.3334 58.9571C67.6395 58.6493 67.8113 58.2328 67.8113 57.7987V37.4306C67.8113 37.2994 67.8634 37.1735 67.9562 37.0808C68.049 36.988 68.1748 36.9358 68.306 36.9358C68.4372 36.9358 68.563 36.988 68.6558 37.0808C68.7486 37.1735 68.8007 37.2994 68.8007 37.4306V57.7987C68.8007 58.4953 68.5247 59.1634 68.033 59.6568C67.5414 60.1502 66.8742 60.4287 66.1777 60.4312Z" fill="#333333"/>
<path d="M60.2875 65.0329H36.0173C35.9374 65.0321 35.8589 65.0122 35.7884 64.9745C35.718 64.9368 35.6577 64.8826 35.6128 64.8166C35.5678 64.7505 35.5395 64.6747 35.5303 64.5953C35.5211 64.5159 35.5313 64.4354 35.5599 64.3608L37.4268 59.6934C37.4508 59.6322 37.4865 59.5762 37.532 59.5287C37.5776 59.4812 37.632 59.4432 37.6923 59.4168C37.7525 59.3903 37.8174 59.376 37.8831 59.3746C37.9489 59.3732 38.0143 59.3849 38.0756 59.4088C38.1369 59.4327 38.1929 59.4683 38.2404 59.5139C38.2878 59.5594 38.3259 59.6141 38.3523 59.6743C38.3787 59.7345 38.3931 59.7993 38.3944 59.8651C38.3958 59.9308 38.3842 59.9963 38.3603 60.0576L36.7921 64.0155H59.5781L58.0192 60.0576C57.9949 59.9982 57.9827 59.9345 57.9832 59.8703C57.9837 59.8061 57.9969 59.7427 58.0221 59.6836C58.0473 59.6246 58.0839 59.5712 58.1298 59.5264C58.1758 59.4816 58.2302 59.4463 58.2899 59.4227C58.4112 59.3734 58.5471 59.3742 58.6679 59.425C58.7886 59.4757 58.8843 59.5723 58.934 59.6934L60.8009 64.3608C60.8393 64.4309 60.8594 64.5097 60.8594 64.5896C60.8594 64.6695 60.8393 64.7481 60.8009 64.8182C60.7458 64.9004 60.6678 64.9646 60.5765 65.0028C60.4852 65.041 60.3847 65.0514 60.2875 65.0329Z" fill="#333333"/>
<path d="M67.3632 77H28.9229C28.5895 76.9989 28.2621 76.9112 27.9729 76.7454C27.6836 76.5796 27.4424 76.3416 27.2729 76.0544C27.1035 75.7673 27.0116 75.4411 27.0063 75.1078C27.001 74.7744 27.0825 74.4452 27.2427 74.1529L30.7525 67.8146C30.7947 67.7377 30.8568 67.6737 30.9324 67.6293C31.008 67.5849 31.0943 67.5618 31.1819 67.5625H65.1042C65.1917 67.5628 65.2775 67.5864 65.3529 67.6307C65.4284 67.6749 65.4907 67.7384 65.5336 67.8146L69.0434 74.1435C69.2059 74.4362 69.2892 74.7662 69.2851 75.1009C69.2809 75.4356 69.1894 75.7634 69.0197 76.0519C68.85 76.3405 68.6079 76.5798 68.3174 76.7461C68.0268 76.9124 67.6979 76.9998 67.3632 77ZM31.4713 68.552L28.1015 74.6289C28.0236 74.7713 27.9842 74.9316 27.9871 75.0939C27.99 75.2561 28.0351 75.4147 28.118 75.5542C28.2009 75.6937 28.3188 75.809 28.46 75.889C28.6011 75.969 28.7607 76.0109 28.9229 76.0105H67.3632C67.5246 76.0093 67.6831 75.9663 67.8229 75.8856C67.9628 75.8049 68.0793 75.6893 68.1612 75.5501C68.243 75.4109 68.2873 75.2528 68.2898 75.0913C68.2923 74.9299 68.2528 74.7706 68.1753 74.6289L64.8055 68.552H31.4713Z" fill="#333333"/>
<path d="M45.2867 32.6229L45.0066 27.3955L42.1875 28.553L42.0289 31.1294L44.0265 32.4829L45.2867 32.6229Z" fill="#235AB0"/>
<path d="M65.7856 24.6695V36.4779L68.502 37.542L70.1169 36.6832L70.397 23.316L68.6981 22.3545L65.7856 24.6695Z" fill="#235AB0"/>
<path d="M73.8042 33.7801C73.72 33.7806 73.6369 33.7613 73.5614 33.7241C73.4481 33.6592 73.3643 33.5532 73.3277 33.4278C73.2911 33.3024 73.3047 33.1676 73.3654 33.052C73.8818 32.0973 74.1522 31.0291 74.1522 29.9437C74.1522 28.8583 73.8818 27.7899 73.3654 26.8352C73.3342 26.7782 73.3144 26.7157 73.3074 26.651C73.3003 26.5864 73.306 26.5209 73.3242 26.4585C73.3424 26.396 73.3728 26.338 73.4135 26.2873C73.4542 26.2366 73.5044 26.1944 73.5614 26.1631C73.6184 26.1318 73.681 26.1121 73.7457 26.105C73.8103 26.0979 73.8757 26.1036 73.9381 26.1218C74.0005 26.1401 74.0587 26.1705 74.1094 26.2112C74.1601 26.2519 74.2023 26.3021 74.2335 26.3591C74.8275 27.4605 75.1385 28.6923 75.1385 29.9437C75.1385 31.1951 74.8275 32.4267 74.2335 33.5281C74.1906 33.6043 74.1283 33.6679 74.0528 33.7122C73.9774 33.7565 73.8916 33.7798 73.8042 33.7801Z" fill="#333333"/>
<path d="M76.8846 36.8331C76.8022 36.8336 76.7213 36.8109 76.6512 36.7677C76.5942 36.7364 76.5439 36.6944 76.5031 36.6437C76.4624 36.593 76.4321 36.5347 76.4139 36.4723C76.3957 36.4099 76.39 36.3446 76.397 36.28C76.4041 36.2153 76.4239 36.1526 76.4552 36.0956C77.4781 34.2065 78.0138 32.0924 78.0138 29.9442C78.0138 27.796 77.4781 25.6816 76.4552 23.7925C76.4239 23.7355 76.4041 23.673 76.397 23.6084C76.39 23.5437 76.3957 23.4782 76.4139 23.4158C76.4321 23.3534 76.4624 23.2951 76.5031 23.2444C76.5439 23.1937 76.5942 23.1517 76.6512 23.1205C76.7668 23.0597 76.9015 23.0461 77.0268 23.0826C77.1522 23.1192 77.2585 23.2031 77.3233 23.3164C78.4182 25.354 78.9912 27.6311 78.9912 29.9442C78.9912 32.2572 78.4182 34.5341 77.3233 36.5717C77.2809 36.651 77.2176 36.7173 77.1403 36.7633C77.063 36.8094 76.9746 36.8335 76.8846 36.8331Z" fill="#333333"/>
<path d="M45.0626 32.8937H44.4745C43.6922 32.8937 42.9419 32.583 42.3887 32.0298C41.8355 31.4766 41.5248 30.7264 41.5248 29.944C41.5248 29.1617 41.8355 28.4113 42.3887 27.8581C42.9419 27.3049 43.6922 26.9941 44.4745 26.9941H45.0626C45.1938 26.9941 45.3197 27.0463 45.4125 27.1391C45.5052 27.2319 45.5574 27.3577 45.5574 27.4889C45.5574 27.6201 45.5052 27.7459 45.4125 27.8387C45.3197 27.9315 45.1938 27.9837 45.0626 27.9837H44.4745C44.2171 27.9837 43.9622 28.0344 43.7244 28.1329C43.4866 28.2315 43.2704 28.3757 43.0884 28.5577C42.9064 28.7398 42.762 28.956 42.6635 29.1938C42.565 29.4316 42.5142 29.6866 42.5142 29.944C42.5142 30.2015 42.565 30.4562 42.6635 30.6941C42.762 30.9319 42.9064 31.1481 43.0884 31.3301C43.2704 31.5122 43.4866 31.6564 43.7244 31.7549C43.9622 31.8534 44.2171 31.9042 44.4745 31.9042H45.0626C45.1938 31.9042 45.3197 31.9564 45.4125 32.0491C45.5052 32.1419 45.5574 32.2678 45.5574 32.399C45.5574 32.5302 45.5052 32.656 45.4125 32.7488C45.3197 32.8416 45.1938 32.8937 45.0626 32.8937Z" fill="#333333"/>
<path d="M52.6331 34.9283H50.4207C50.2895 34.9283 50.1637 34.8761 50.0709 34.7833C49.9781 34.6905 49.926 34.5647 49.926 34.4335C49.926 34.3685 49.9388 34.3044 49.9637 34.2443C49.9885 34.1843 50.025 34.1296 50.0709 34.0837C50.1169 34.0377 50.1714 34.0014 50.2314 33.9766C50.2914 33.9517 50.3558 33.939 50.4207 33.939H52.6331C52.698 33.939 52.7624 33.9517 52.8224 33.9766C52.8824 34.0014 52.937 34.0377 52.9829 34.0837C53.0288 34.1296 53.0653 34.1843 53.0901 34.2443C53.115 34.3044 53.1278 34.3685 53.1278 34.4335C53.1278 34.5647 53.0757 34.6905 52.9829 34.7833C52.8901 34.8761 52.7643 34.9283 52.6331 34.9283Z" fill="#333333"/>
<path d="M54.108 46.6997H51.1395C50.8193 46.6997 50.512 46.5731 50.2847 46.3476C50.0574 46.122 49.9285 45.8157 49.926 45.4955V34.9285H46.0428C45.6516 34.9285 45.2765 34.7733 44.9999 34.4967C44.7233 34.2201 44.5679 33.845 44.5679 33.4538V26.574C44.5679 26.182 44.723 25.8058 44.9993 25.5278C45.2756 25.2497 45.6507 25.0922 46.0428 25.0897H54.9761C58.7815 24.7192 62.5579 24.0955 66.2804 23.2228H66.3271C66.5612 22.9508 66.8552 22.7368 67.1859 22.5975C67.4566 22.4854 67.7179 22.3642 68.026 22.2148C68.3134 22.0719 68.6328 22.0055 68.9533 22.022C69.2739 22.0385 69.5847 22.1374 69.8559 22.3092C70.1271 22.4809 70.3494 22.7195 70.5014 23.0022C70.6534 23.2849 70.73 23.602 70.7237 23.9229V36.1608C70.7265 36.4821 70.6464 36.7986 70.4911 37.0799C70.3357 37.3612 70.1104 37.5976 69.8369 37.7663C69.5709 37.9327 69.2672 38.0294 68.9539 38.0473C68.6407 38.0653 68.3279 38.004 68.0446 37.8691C64.6561 36.2542 59.6434 35.4793 56.9177 35.1619C56.7166 35.14 56.5131 35.1603 56.3202 35.2214C56.1274 35.2825 55.9494 35.3831 55.7975 35.5167C55.6464 35.6495 55.5256 35.8133 55.4435 35.9969C55.3613 36.1806 55.3197 36.3796 55.3214 36.5808V45.4955C55.319 45.8157 55.19 46.122 54.9627 46.3476C54.7354 46.5731 54.4282 46.6997 54.108 46.6997ZM65.8137 24.3525C62.2529 25.135 58.6499 25.7115 55.0227 26.0793H46.0428C45.9778 26.0793 45.9135 26.092 45.8534 26.1169C45.7934 26.1417 45.7389 26.1783 45.6929 26.2242C45.647 26.2702 45.6105 26.3246 45.5857 26.3847C45.5608 26.4447 45.548 26.5091 45.548 26.574V33.4538C45.548 33.5184 45.5609 33.5821 45.5859 33.6416C45.6108 33.7011 45.6474 33.755 45.6935 33.8002C45.7395 33.8454 45.7942 33.881 45.8541 33.9048C45.9141 33.9287 45.9782 33.9405 46.0428 33.9392H50.4207C50.5519 33.9392 50.6778 33.9912 50.7706 34.084C50.8634 34.1767 50.9155 34.3026 50.9155 34.4338V45.4955C50.9155 45.5549 50.9391 45.6119 50.9811 45.6539C51.0231 45.6959 51.0801 45.7195 51.1395 45.7195H54.108C54.1674 45.7195 54.2244 45.6959 54.2664 45.6539C54.3084 45.6119 54.332 45.5549 54.332 45.4955V36.5528C54.3328 36.2122 54.4056 35.8758 54.5456 35.5653C54.6855 35.2548 54.8895 34.9774 55.1441 34.7512C55.3972 34.5283 55.6938 34.3602 56.0151 34.2574C56.3364 34.1546 56.6755 34.1194 57.011 34.1539C59.8114 34.4806 64.9362 35.2741 68.4554 36.9543C68.5882 37.0188 68.7355 37.0476 68.8828 37.0377C69.0302 37.0279 69.1724 36.9798 69.2955 36.8983C69.4243 36.8157 69.5309 36.7027 69.6058 36.5692C69.6806 36.4357 69.7215 36.2858 69.7249 36.1328V23.8951C69.7215 23.7421 69.6806 23.5922 69.6058 23.4587C69.5309 23.3252 69.4243 23.2122 69.2955 23.1296C69.1691 23.047 69.0231 22.9992 68.8724 22.991C68.7216 22.9828 68.5713 23.0145 68.4367 23.0829L67.5499 23.4842C67.3141 23.5796 67.1124 23.7437 66.9709 23.955C66.8295 24.1664 66.7547 24.4154 66.7564 24.6697V34.0044C66.7564 34.1356 66.7043 34.2615 66.6116 34.3542C66.5188 34.447 66.3929 34.4992 66.2617 34.4992C66.1305 34.4992 66.0047 34.447 65.9119 34.3542C65.8191 34.2615 65.767 34.1356 65.767 34.0044V24.6697C65.7734 24.5628 65.789 24.4568 65.8137 24.3525Z" fill="#333333"/>
</g>
<defs>
<clipPath id="clip0_1787_394036">
<rect width="52.0036" height="55" fill="white" transform="translate(27 22)"/>
</clipPath>
</defs>
</svg>
