<svg width="100" height="100" viewBox="0 0 100 100" fill="none" xmlns="http://www.w3.org/2000/svg">
<circle cx="50" cy="50" r="50" fill="#F2F6FB"/>
<g clip-path="url(#clip0_1096_175286)">
<path d="M30.5293 27.5293H62.6193V66.0093L60.5093 66.7393H57.8693V70.0593L56.4993 71.4793H30.5293V27.5293Z" fill="white"/>
<path d="M60.2695 41.3106L65.7895 35.8906H66.1995L68.8995 38.6906L68.7995 39.1906L63.4995 44.6306L60.2695 41.3106Z" fill="#235AB0"/>
<path d="M40.9808 69.4595L32.5508 61.0195V69.4595H40.9808Z" fill="#235AB0"/>
<path d="M53.1494 55.8799C53.0112 55.88 52.8785 55.8261 52.7794 55.7297L49.0694 52.0298C48.9722 51.9291 48.918 51.7947 48.918 51.6548C48.918 51.5149 48.9722 51.3804 49.0694 51.2798L64.9094 35.4397C65.1869 35.1631 65.5626 35.0078 65.9544 35.0078C66.3462 35.0078 66.722 35.1631 66.9994 35.4397L69.3594 37.7998C69.4976 37.9365 69.6073 38.0992 69.6821 38.2786C69.757 38.4579 69.7955 38.6504 69.7955 38.8447C69.7955 39.0391 69.757 39.2315 69.6821 39.4109C69.6073 39.5903 69.4976 39.7532 69.3594 39.8899L53.5194 55.7297C53.471 55.7783 53.4132 55.8168 53.3497 55.8425C53.2861 55.8683 53.218 55.8811 53.1494 55.8799ZM50.1494 51.6499L53.1494 54.6499L68.6094 39.1797C68.6491 39.1414 68.6806 39.0958 68.7021 39.0452C68.7236 38.9945 68.7347 38.9398 68.7347 38.8848C68.7347 38.8297 68.7236 38.7753 68.7021 38.7246C68.6806 38.6739 68.6491 38.6281 68.6094 38.5898L66.2594 36.2297C66.2203 36.1898 66.1736 36.1581 66.1221 36.1365C66.0706 36.1148 66.0153 36.1038 65.9594 36.1038C65.9035 36.1038 65.8482 36.1148 65.7967 36.1365C65.7452 36.1581 65.6985 36.1898 65.6594 36.2297L50.1494 51.6499Z" fill="#333333"/>
<path d="M48.4003 58.6206C48.2577 58.6186 48.1214 58.561 48.0203 58.4604L46.3403 56.7805C46.2668 56.7076 46.2163 56.6147 46.195 56.5134C46.1736 56.4121 46.1824 56.3068 46.2203 56.2104L47.6203 52.7905C47.6484 52.7234 47.6891 52.6624 47.7402 52.6106L49.0703 51.2805C49.1195 51.2312 49.178 51.1922 49.2423 51.1655C49.3067 51.1389 49.3756 51.125 49.4453 51.125C49.5149 51.125 49.5839 51.1389 49.6483 51.1655C49.7126 51.1922 49.771 51.2312 49.8203 51.2805C49.8696 51.3297 49.9086 51.3883 49.9353 51.4526C49.962 51.517 49.9757 51.5859 49.9757 51.6555C49.9757 51.7252 49.962 51.7941 49.9353 51.8584C49.9086 51.9227 49.8696 51.9813 49.8203 52.0305L48.5603 53.2905L47.3403 56.2905L48.5203 57.4805L51.5203 56.2505L52.7803 54.9905C52.8279 54.9402 52.8853 54.9004 52.9489 54.873C53.0125 54.8457 53.081 54.8315 53.1503 54.8315C53.2195 54.8315 53.288 54.8457 53.3516 54.873C53.4153 54.9004 53.4726 54.9402 53.5203 54.9905C53.5696 55.0397 53.6087 55.0983 53.6353 55.1626C53.662 55.2269 53.6757 55.2958 53.6757 55.3655C53.6757 55.4351 53.662 55.5043 53.6353 55.5686C53.6087 55.6329 53.5696 55.6913 53.5203 55.7405L52.1903 57.0706C52.1385 57.1217 52.0774 57.1623 52.0103 57.1904L48.6003 58.5906C48.5352 58.6091 48.468 58.6192 48.4003 58.6206Z" fill="#333333"/>
<path d="M45.7893 59.5403C45.6481 59.5409 45.512 59.4873 45.4093 59.3904C45.3122 59.2897 45.2578 59.1553 45.2578 59.0154C45.2578 58.8755 45.3122 58.741 45.4093 58.6404L47.1793 56.8704C47.2799 56.7732 47.4144 56.7187 47.5543 56.7188C47.6942 56.7187 47.8286 56.7732 47.9293 56.8704C47.9785 56.9196 48.0177 56.9779 48.0444 57.0422C48.071 57.1066 48.0848 57.1757 48.0848 57.2454C48.0848 57.315 48.071 57.3839 48.0444 57.4482C48.0177 57.5126 47.9785 57.5711 47.9293 57.6204L46.1593 59.3904C46.0602 59.4867 45.9275 59.5404 45.7893 59.5403Z" fill="#333333"/>
<path d="M60.9606 52.8894C60.8912 52.8899 60.8225 52.8757 60.7588 52.8481C60.6951 52.8206 60.6378 52.7801 60.5906 52.7292C60.5404 52.6816 60.5004 52.6244 60.4731 52.5608C60.4457 52.4972 60.4316 52.4286 60.4316 52.3594C60.4316 52.2901 60.4457 52.2216 60.4731 52.158C60.5004 52.0943 60.5404 52.0369 60.5906 51.9893L67.1306 45.4392C67.2833 45.2872 67.4044 45.1066 67.4868 44.9075C67.5691 44.7084 67.6113 44.4948 67.6107 44.2793C67.6113 44.0638 67.5691 43.8505 67.4868 43.6514C67.4044 43.4523 67.2833 43.2714 67.1306 43.1194L66.2606 42.2493C66.2113 42.2 66.1722 42.1417 66.1456 42.0774C66.1189 42.013 66.1052 41.9439 66.1052 41.8743C66.1052 41.8046 66.1189 41.7357 66.1456 41.6714C66.1722 41.607 66.2113 41.5485 66.2606 41.4993C66.3098 41.45 66.3683 41.411 66.4327 41.3843C66.497 41.3576 66.566 41.3438 66.6356 41.3438C66.7053 41.3438 66.7743 41.3576 66.8386 41.3843C66.903 41.411 66.9614 41.45 67.0106 41.4993L67.8806 42.3694C68.1317 42.6199 68.3308 42.9176 68.4664 43.2454C68.602 43.5732 68.6714 43.9246 68.6707 44.2793C68.6714 44.634 68.602 44.9854 68.4664 45.3132C68.3308 45.641 68.1317 45.9387 67.8806 46.1892L61.3406 52.7292C61.2916 52.7804 61.2325 52.8211 61.1672 52.8486C61.1018 52.8761 61.0315 52.8901 60.9606 52.8894Z" fill="#333333"/>
<path d="M63.4009 45.6301C63.2627 45.6303 63.1299 45.5763 63.0309 45.48L59.3309 41.77C59.2806 41.7224 59.2407 41.6649 59.2133 41.6013C59.186 41.5377 59.1719 41.4694 59.1719 41.4001C59.1719 41.3309 59.186 41.2623 59.2133 41.1987C59.2407 41.1351 59.2806 41.0777 59.3309 41.03C59.3785 40.9798 59.4359 40.9399 59.4995 40.9126C59.5631 40.8853 59.6316 40.8711 59.7009 40.8711C59.7701 40.8711 59.8386 40.8853 59.9022 40.9126C59.9658 40.9399 60.0232 40.9798 60.0709 41.03L63.7809 44.73C63.878 44.8306 63.9323 44.9651 63.9323 45.105C63.9323 45.2449 63.878 45.3793 63.7809 45.48C63.6782 45.5769 63.5421 45.6308 63.4009 45.6301Z" fill="#333333"/>
<path d="M50.3503 34.2392C49.9345 34.2387 49.5283 34.1138 49.1843 33.8803C48.8403 33.6468 48.5742 33.3153 48.4203 32.9291C48.2665 32.566 48.0088 32.2565 47.6797 32.0394C47.3505 31.8224 46.9645 31.7075 46.5703 31.7091C46.1777 31.7094 45.7939 31.8254 45.4667 32.0424C45.1395 32.2593 44.8834 32.5676 44.7303 32.9291C44.5748 33.3122 44.3096 33.6411 43.968 33.8742C43.6265 34.1072 43.2237 34.2341 42.8102 34.2392C42.5397 34.2405 42.2716 34.1886 42.0212 34.0863C41.7707 33.984 41.5429 33.8333 41.3507 33.643C41.1585 33.4526 41.0056 33.2261 40.9009 32.9767C40.7961 32.7273 40.7415 32.4596 40.7402 32.1891V28.2492C40.7533 27.9211 40.8948 27.6114 41.1343 27.3869C41.3738 27.1623 41.6921 27.0411 42.0203 27.0492H51.1802C51.5118 27.0492 51.8297 27.181 52.0641 27.4154C52.2986 27.6498 52.4302 27.9677 52.4302 28.2992V32.2392C52.4171 32.7794 52.1913 33.2926 51.8018 33.6671C51.4122 34.0417 50.8906 34.2472 50.3503 34.2392ZM46.5703 30.6493C47.1724 30.6478 47.7615 30.8246 48.2634 31.1574C48.7652 31.4901 49.1573 31.9639 49.3903 32.5192C49.4601 32.7125 49.5878 32.8796 49.756 32.9977C49.9242 33.1158 50.1247 33.179 50.3303 33.1791C50.5955 33.1791 50.8498 33.0739 51.0374 32.8864C51.2249 32.6988 51.3303 32.4443 51.3303 32.1791V28.2392C51.3303 28.1888 51.3102 28.1405 51.2746 28.1049C51.239 28.0692 51.1906 28.0492 51.1403 28.0492H42.0203C41.9699 28.0492 41.9216 28.0692 41.8859 28.1049C41.8503 28.1405 41.8303 28.1888 41.8303 28.2392V32.1791C41.8303 32.4443 41.9356 32.6988 42.1232 32.8864C42.3107 33.0739 42.565 33.1791 42.8303 33.1791C43.0459 33.1918 43.2598 33.1345 43.4401 33.0155C43.6203 32.8966 43.7572 32.7224 43.8303 32.5192C44.0578 31.9763 44.4376 31.5109 44.9238 31.1791C45.41 30.8473 45.9818 30.6634 46.5703 30.6493Z" fill="#333333"/>
<path d="M62.6092 35.9902C62.5401 35.9902 62.4716 35.9765 62.4078 35.9497C62.3441 35.923 62.2863 35.8838 62.2379 35.8345C62.1895 35.7851 62.1514 35.7266 62.1259 35.6624C62.1003 35.5981 62.0878 35.5293 62.0892 35.4602V28.0503H51.1492C51.0086 28.0503 50.8738 27.9944 50.7744 27.895C50.675 27.7956 50.6191 27.6608 50.6191 27.5203C50.6191 27.3797 50.675 27.2449 50.7744 27.1455C50.8738 27.0461 51.0086 26.9902 51.1492 26.9902H62.6092C62.7498 26.9902 62.8846 27.0461 62.9839 27.1455C63.0833 27.2449 63.1392 27.3797 63.1392 27.5203V35.4502C63.1405 35.5206 63.1278 35.5908 63.1017 35.6562C63.0757 35.7217 63.0368 35.7813 62.9875 35.8315C62.9381 35.8818 62.8793 35.9217 62.8143 35.949C62.7494 35.9762 62.6796 35.9902 62.6092 35.9902Z" fill="#333333"/>
<path d="M55.77 72.0491H30.53C30.4604 72.0491 30.3915 72.0354 30.3272 72.0088C30.2629 71.9822 30.2045 71.943 30.1553 71.8938C30.1061 71.8446 30.067 71.7862 30.0403 71.7219C30.0137 71.6576 30 71.5886 30 71.519V27.5691C30 27.4285 30.0559 27.2937 30.1553 27.1943C30.2547 27.0949 30.3895 27.0391 30.53 27.0391H42.02C42.1606 27.0391 42.2954 27.0949 42.3948 27.1943C42.4942 27.2937 42.55 27.4285 42.55 27.5691C42.55 27.6387 42.5363 27.7077 42.5097 27.772C42.4831 27.8363 42.444 27.8946 42.3948 27.9438C42.3456 27.9931 42.2871 28.0322 42.2228 28.0588C42.1585 28.0855 42.0896 28.0991 42.02 28.0991H31.02V70.989H55.73C56.1464 70.989 56.5457 70.8237 56.8401 70.5293C57.1346 70.2349 57.3 69.8356 57.3 69.4192V66.7791C57.3 66.6385 57.3559 66.5037 57.4553 66.4043C57.5547 66.3049 57.6895 66.249 57.83 66.249H60.47C60.677 66.2503 60.8823 66.2106 61.0739 66.1323C61.2656 66.054 61.4398 65.9386 61.5867 65.7927C61.7335 65.6468 61.85 65.4734 61.9296 65.2822C62.0091 65.0911 62.0501 64.886 62.05 64.679V53.5491C62.0487 53.4799 62.0611 53.4112 62.0867 53.3469C62.1122 53.2827 62.1503 53.2242 62.1987 53.1748C62.2472 53.1255 62.305 53.0863 62.3687 53.0596C62.4325 53.0328 62.5009 53.019 62.57 53.019C62.7106 53.019 62.8454 53.0749 62.9448 53.1743C63.0442 53.2737 63.1 53.4085 63.1 53.5491V64.6392C63.1 65.3367 62.8229 66.0056 62.3297 66.4988C61.8365 66.992 61.1676 67.269 60.47 67.269H58.36V69.3792C58.3653 69.7245 58.3025 70.0676 58.1752 70.3887C58.0479 70.7098 57.8586 71.0025 57.6181 71.2505C57.3776 71.4984 57.0906 71.6967 56.7735 71.8337C56.4564 71.9707 56.1154 72.0439 55.77 72.0491Z" fill="#333333"/>
<path d="M40.5897 59.7095H35.7097C35.5692 59.7095 35.4344 59.6538 35.335 59.5544C35.2356 59.455 35.1797 59.32 35.1797 59.1794V54.2996C35.1797 54.159 35.2356 54.0242 35.335 53.9248C35.4344 53.8254 35.5692 53.7695 35.7097 53.7695H40.5897C40.7303 53.7695 40.8651 53.8254 40.9645 53.9248C41.0639 54.0242 41.1197 54.159 41.1197 54.2996V59.1794C41.1197 59.32 41.0639 59.455 40.9645 59.5544C40.8651 59.6538 40.7303 59.7095 40.5897 59.7095ZM36.2397 58.6497H40.0197V54.8296H36.1997L36.2397 58.6497Z" fill="#333333"/>
<path d="M40.5897 51.1393H35.7097C35.5692 51.1393 35.4344 51.0834 35.335 50.984C35.2356 50.8846 35.1797 50.7498 35.1797 50.6092V45.7291C35.1797 45.66 35.1935 45.5917 35.2202 45.5279C35.247 45.4642 35.2862 45.4064 35.3355 45.358C35.3849 45.3096 35.4434 45.2715 35.5076 45.2459C35.5719 45.2204 35.6406 45.2077 35.7097 45.2091H40.5897C40.6588 45.2077 40.7276 45.2204 40.7918 45.2459C40.8561 45.2715 40.9145 45.3096 40.9639 45.358C41.0132 45.4064 41.0525 45.4642 41.0792 45.5279C41.106 45.5917 41.1197 45.66 41.1197 45.7291V50.6092C41.1197 50.7498 41.0639 50.8846 40.9645 50.984C40.8651 51.0834 40.7303 51.1393 40.5897 51.1393ZM36.2397 50.0792H40.0197V46.2591H36.1997L36.2397 50.0792Z" fill="#333333"/>
<path d="M40.5897 42.5806H35.7097C35.5692 42.5806 35.4344 42.5247 35.335 42.4253C35.2356 42.3259 35.1797 42.1911 35.1797 42.0505V37.1707C35.1797 37.0301 35.2356 36.895 35.335 36.7957C35.4344 36.6963 35.5692 36.6406 35.7097 36.6406H40.5897C40.7303 36.6406 40.8651 36.6963 40.9645 36.7957C41.0639 36.895 41.1197 37.0301 41.1197 37.1707V42.0505C41.1197 42.1911 41.0639 42.3259 40.9645 42.4253C40.8651 42.5247 40.7303 42.5806 40.5897 42.5806ZM36.2397 41.5205H40.0197V37.7004H36.1997L36.2397 41.5205Z" fill="#333333"/>
</g>
<defs>
<clipPath id="clip0_1096_175286">
<rect width="39.8" height="45.01" fill="white" transform="translate(30 27)"/>
</clipPath>
</defs>
</svg>
