<svg width="100" height="100" viewBox="0 0 100 100" fill="none" xmlns="http://www.w3.org/2000/svg">
<circle cx="50" cy="50" r="50" fill="#F2F6FB"/>
<g clip-path="url(#clip0_1307_206080)">
<path d="M55.1387 67.4668H38.573V71.5155H55.1387V67.4668Z" fill="#235AB0"/>
<path d="M40.2384 67.4684L39.8923 52.3464L45.7314 46.6677L46.2505 29.5371H62.4486V58.6665L56.7825 58.9504L56.5554 63.1568L53.4088 64.8289V67.4684H40.2384Z" fill="white"/>
<path d="M62.3621 59.3809H51.0839C50.9998 59.3823 50.9161 59.3672 50.8381 59.3365C50.76 59.3058 50.6891 59.2601 50.6296 59.2022C50.57 59.1443 50.5231 59.0753 50.4915 58.9994C50.46 58.9235 50.4445 58.8423 50.446 58.7604C50.446 58.6794 50.4625 58.5991 50.4947 58.5244C50.5269 58.4497 50.5741 58.382 50.6335 58.3252C50.6929 58.2684 50.7633 58.2238 50.8406 58.1938C50.918 58.1637 51.0007 58.149 51.0839 58.1504H61.7241V30.2408H46.8236V54.1229C46.8208 54.2866 46.7527 54.4428 46.6336 54.5586C46.5146 54.6744 46.3539 54.7405 46.1856 54.7432C46.1018 54.7432 46.0188 54.7271 45.9414 54.696C45.864 54.6648 45.7937 54.619 45.7345 54.5614C45.6752 54.5038 45.6282 54.4354 45.5962 54.3601C45.5641 54.2849 45.5476 54.2044 45.5476 54.1229V29.6205C45.5476 29.5391 45.5641 29.4583 45.5962 29.3831C45.6282 29.3078 45.6752 29.2394 45.7345 29.1818C45.7937 29.1242 45.864 29.0784 45.9414 29.0472C46.0188 29.0161 46.1018 29 46.1856 29H62.4053C62.5745 29 62.7368 29.0654 62.8564 29.1818C62.9761 29.2981 63.0433 29.456 63.0433 29.6205V58.7604C63.0451 58.846 63.0284 58.931 62.9943 59.0099C62.9601 59.0888 62.9092 59.1599 62.845 59.2184C62.7807 59.2769 62.7045 59.3216 62.6213 59.3496C62.5381 59.3776 62.4498 59.3883 62.3621 59.3809Z" fill="#333333"/>
<path d="M57.0527 57.161H52.7275C52.5583 57.161 52.396 57.0956 52.2764 56.9792C52.1567 56.8629 52.0895 56.705 52.0895 56.5404C52.0923 56.3767 52.1604 56.2205 52.2794 56.1048C52.3985 55.989 52.5591 55.9229 52.7275 55.9202H56.4364C56.5662 55.2286 56.9102 54.5919 57.4223 54.0958C57.9344 53.5996 58.5902 53.2674 59.3019 53.1438V35.2666C58.5887 35.1423 57.9319 34.8087 57.4196 34.3105C56.9073 33.8122 56.5642 33.1734 56.4364 32.4799H52.0787C51.9509 33.1734 51.6078 33.8122 51.0955 34.3105C50.5832 34.8087 49.9263 35.1423 49.2132 35.2666V49.7998C49.2146 49.8807 49.1995 49.9613 49.1686 50.0365C49.1377 50.1117 49.0918 50.18 49.0334 50.2378C48.975 50.2955 48.9054 50.3415 48.8286 50.3728C48.7517 50.4041 48.6693 50.4203 48.586 50.4203C48.5018 50.4217 48.4182 50.4066 48.3402 50.3759C48.2621 50.3452 48.1912 50.2995 48.1317 50.2416C48.0721 50.1837 48.0252 50.1147 47.9936 50.0388C47.9621 49.9629 47.9466 49.8816 47.9481 49.7998V34.7723C47.9376 34.7132 47.9376 34.6528 47.9481 34.5936C47.9862 34.4642 48.0674 34.3506 48.1789 34.2707C48.2904 34.1908 48.4259 34.1492 48.5644 34.1521C49.1641 34.1467 49.738 33.914 50.164 33.5035C50.5901 33.0931 50.8347 32.5372 50.846 31.9541V31.8278C50.8734 31.6847 50.9508 31.5553 51.0651 31.4614C51.1794 31.3675 51.3235 31.3149 51.4731 31.3125H57.0527C57.1955 31.3114 57.3344 31.3577 57.4465 31.4437C57.5585 31.5298 57.6371 31.6506 57.6691 31.7859C57.6798 31.8451 57.6798 31.9055 57.6691 31.9646C57.6804 32.5468 57.9254 33.1015 58.3517 33.5102C58.7781 33.919 59.352 34.1494 59.9506 34.1521C60.0339 34.1507 60.1166 34.1652 60.194 34.1952C60.2713 34.2252 60.3417 34.2701 60.4011 34.3269C60.4605 34.3837 60.5077 34.4514 60.5399 34.5261C60.5721 34.6008 60.5886 34.6808 60.5886 34.7618V53.6906C60.5894 53.7724 60.5736 53.8536 60.5421 53.9294C60.5105 54.0052 60.4639 54.0743 60.4048 54.1325C60.3449 54.1899 60.274 54.2351 60.1961 54.2657C60.1181 54.2964 60.0347 54.312 59.9506 54.3112C59.6512 54.3112 59.3546 54.3687 59.0781 54.4806C58.8016 54.5925 58.5506 54.7564 58.3395 54.963C57.9192 55.3705 57.6787 55.9215 57.6691 56.4986C57.6756 56.5994 57.6563 56.7 57.6129 56.7918C57.5695 56.8836 57.5034 56.9636 57.4204 57.0244C57.3153 57.1059 57.1869 57.1535 57.0527 57.161Z" fill="#333333"/>
<path d="M54.2737 48.5382C54.1895 48.5397 54.1059 48.5245 54.0279 48.4938C53.9498 48.4631 53.8789 48.4174 53.8193 48.3595C53.7598 48.3016 53.7129 48.2326 53.6813 48.1567C53.6498 48.0808 53.6343 47.9996 53.6357 47.9177C53.6357 47.7531 53.703 47.5953 53.8226 47.4789C53.9422 47.3626 54.1045 47.2974 54.2737 47.2974C55.1248 47.2975 55.9418 46.9722 56.5486 46.3919C57.1555 45.8116 57.5035 45.0225 57.5177 44.195C57.5177 43.3583 57.1759 42.5558 56.5675 41.9642C55.9592 41.3725 55.1341 41.0402 54.2737 41.0402C53.4134 41.0402 52.5883 41.3725 51.9799 41.9642C51.3715 42.5558 51.0298 43.3583 51.0298 44.195C51.0347 44.8134 51.2265 45.417 51.5812 45.9303C51.6282 45.9979 51.661 46.0739 51.6777 46.1539C51.6944 46.2339 51.6948 46.3162 51.6787 46.3963C51.6626 46.4764 51.6305 46.5527 51.5841 46.6207C51.5376 46.6886 51.4779 46.7469 51.4082 46.7924C51.2739 46.8741 51.1132 46.9043 50.9573 46.8771C50.8014 46.8499 50.6615 46.7673 50.5648 46.6453C50.0682 45.9275 49.8045 45.0812 49.8079 44.216C49.8079 43.0642 50.2784 41.9594 51.1159 41.1449C51.9534 40.3304 53.0893 39.873 54.2737 39.873C55.4581 39.873 56.594 40.3304 57.4315 41.1449C58.269 41.9594 58.7395 43.0642 58.7395 44.216C58.7338 45.3643 58.2608 46.4636 57.4239 47.2735C56.587 48.0835 55.4544 48.5382 54.2737 48.5382Z" fill="#333333"/>
<path d="M54.2738 38.4957C54.1896 38.4972 54.106 38.482 54.0279 38.4513C53.9499 38.4206 53.879 38.3752 53.8194 38.3173C53.7599 38.2594 53.713 38.1904 53.6814 38.1145C53.6499 38.0386 53.6344 37.9571 53.6358 37.8752V36.1296C53.6358 36.0486 53.6524 35.9684 53.6846 35.8937C53.7168 35.819 53.764 35.7512 53.8233 35.6945C53.8827 35.6377 53.9531 35.593 54.0305 35.563C54.1078 35.533 54.1906 35.5182 54.2738 35.5196C54.4412 35.5196 54.6018 35.5837 54.7212 35.6978C54.8405 35.8119 54.909 35.9669 54.9118 36.1296V37.8647C54.9132 37.947 54.8978 38.029 54.8664 38.1055C54.8349 38.182 54.7882 38.2516 54.7288 38.3104C54.6694 38.3691 54.5986 38.4156 54.5205 38.4475C54.4424 38.4793 54.3585 38.4957 54.2738 38.4957Z" fill="#333333"/>
<path d="M40.3466 68.1827C40.2624 68.1841 40.1788 68.1689 40.1007 68.1382C40.0226 68.1076 39.9517 68.0621 39.8922 68.0042C39.8327 67.9463 39.7857 67.8773 39.7542 67.8014C39.7226 67.7255 39.7071 67.644 39.7086 67.5621V52.8397C39.7078 52.7579 39.7236 52.677 39.7552 52.6012C39.7867 52.5254 39.8334 52.4563 39.8924 52.3981L45.7315 46.7195C45.8528 46.6039 46.0158 46.5391 46.1857 46.5391C46.3555 46.5391 46.5185 46.6039 46.6398 46.7195C46.7555 46.837 46.82 46.9934 46.82 47.156C46.82 47.3186 46.7555 47.4748 46.6398 47.5922L40.9845 53.0921V67.6147C40.971 67.77 40.8978 67.9147 40.7796 68.0199C40.6614 68.1251 40.5068 68.1832 40.3466 68.1827Z" fill="#333333"/>
<path d="M48.6942 63.7023C48.6108 63.7028 48.5282 63.6862 48.4518 63.6535C48.3754 63.6209 48.3069 63.5731 48.2508 63.5131C48.1326 63.3969 48.0663 63.2401 48.0663 63.0767C48.0663 62.9132 48.1326 62.7564 48.2508 62.6402C48.5862 62.3486 48.8555 61.9923 49.0416 61.594C49.2278 61.1957 49.3267 60.7642 49.3321 60.3267C49.2375 59.5538 48.8524 58.8423 48.2508 58.3288C48.1812 58.2765 48.1247 58.2096 48.0853 58.1331C48.046 58.0567 48.025 57.9724 48.0238 57.8869C48.0178 57.7999 48.0311 57.7126 48.0628 57.631C48.0946 57.5493 48.1439 57.4753 48.2076 57.4138L51.6786 54.0382C52.3021 53.4659 52.6858 52.6892 52.7557 51.8582C52.8256 51.0272 52.5767 50.2005 52.0571 49.5373L44.8447 56.5409C44.7252 56.6558 44.564 56.7203 44.3959 56.7203C44.2279 56.7203 44.0666 56.6558 43.9472 56.5409C43.829 56.4247 43.7627 56.2681 43.7627 56.1047C43.7627 55.9412 43.829 55.7844 43.9472 55.6682L51.6786 48.1596C51.7369 48.1002 51.8076 48.0536 51.8859 48.0228C51.9642 47.992 52.0483 47.9776 52.1327 47.9809C52.2186 47.9816 52.3033 47.9997 52.3815 48.0341C52.4597 48.0685 52.5297 48.1184 52.5869 48.1807C53.0463 48.621 53.411 49.1456 53.66 49.7242C53.909 50.3028 54.0372 50.9239 54.0372 51.5511C54.0372 52.1784 53.909 52.7992 53.66 53.3778C53.411 53.9564 53.0463 54.4813 52.5869 54.9216L49.5592 57.8554C50.1814 58.5169 50.5615 59.3598 50.6405 60.253C50.6477 60.8699 50.517 61.4809 50.2575 62.0438C49.998 62.6067 49.6158 63.108 49.1375 63.5131C49.021 63.6304 48.8618 63.6983 48.6942 63.7023Z" fill="#333333"/>
<path d="M53.4628 68.1828C53.3786 68.1842 53.295 68.1691 53.2169 68.1384C53.1388 68.1077 53.0679 68.0623 53.0084 68.0044C52.9489 67.9465 52.9019 67.8775 52.8704 67.8015C52.8388 67.7256 52.8233 67.6441 52.8248 67.5623V64.9125C52.8244 64.7549 52.8857 64.603 52.9961 64.4878C53.1066 64.3726 53.2579 64.3026 53.4195 64.2919C54.1169 64.284 54.7839 64.013 55.28 63.5363C55.7762 63.0597 56.0628 62.4147 56.0796 61.7366V58.7605C56.0824 58.5978 56.1509 58.4427 56.2702 58.3287C56.3895 58.2146 56.5502 58.1505 56.7175 58.1505C56.8008 58.1491 56.8835 58.1638 56.9609 58.1939C57.0382 58.2239 57.1086 58.2685 57.168 58.3253C57.2274 58.3821 57.2746 58.4499 57.3068 58.5245C57.339 58.5992 57.3555 58.6795 57.3555 58.7605V61.7366C57.3637 62.6312 57.0403 63.4986 56.4446 64.1802C55.8489 64.8619 55.0207 65.3121 54.1116 65.4485V67.5517C54.1146 67.6354 54.0999 67.7188 54.0683 67.7967C54.0368 67.8745 53.9891 67.9454 53.9283 68.0046C53.8674 68.0638 53.7947 68.11 53.7146 68.1407C53.6345 68.1714 53.5488 68.1857 53.4628 68.1828Z" fill="#333333"/>
<path d="M55.0847 71.9997C54.9155 71.9997 54.7532 71.9343 54.6335 71.8179C54.5139 71.7015 54.4467 71.5437 54.4467 71.3791V68.2243H39.3083V71.3791C39.3097 71.461 39.2942 71.5422 39.2627 71.6182C39.2312 71.6941 39.1842 71.7631 39.1247 71.821C39.0651 71.8789 38.9942 71.9246 38.9162 71.9553C38.8381 71.9859 38.7545 72.0011 38.6703 71.9997C38.5861 72.0011 38.5025 71.9859 38.4244 71.9553C38.3464 71.9246 38.2754 71.8789 38.2159 71.821C38.1564 71.7631 38.1094 71.6941 38.0779 71.6182C38.0464 71.5422 38.0309 71.461 38.0323 71.3791V67.5617C38.0323 67.3971 38.0995 67.2395 38.2192 67.1232C38.3388 67.0068 38.5011 66.9414 38.6703 66.9414H55.1171C55.2863 66.9414 55.4486 67.0068 55.5682 67.1232C55.6878 67.2395 55.7551 67.3971 55.7551 67.5617V71.3791C55.7568 71.4638 55.7403 71.5477 55.7068 71.6259C55.6733 71.704 55.6234 71.7747 55.5604 71.833C55.4973 71.8914 55.4224 71.9363 55.3405 71.965C55.2586 71.9937 55.1715 72.0055 55.0847 71.9997Z" fill="#333333"/>
<path d="M55.1387 70.9375H38.573V71.9891H55.1387V70.9375Z" fill="#333333"/>
</g>
<defs>
<clipPath id="clip0_1307_206080">
<rect width="25" height="43" fill="white" transform="translate(38 29)"/>
</clipPath>
</defs>
</svg>
