<svg width="100" height="100" viewBox="0 0 100 100" fill="none" xmlns="http://www.w3.org/2000/svg">
<circle cx="50" cy="50" r="50" fill="#F2F6FB"/>
<g clip-path="url(#clip0_1997_378881)">
<path d="M38.2898 41.0703H31.8198L28.0998 44.3803L27.3398 48.2403V72.4303L33.4298 66.4803H56.0498L59.5798 64.4303L60.9098 61.7203L60.9698 51.4603L38.2898 41.0703Z" fill="#235AB0"/>
<path d="M44.2505 26.5293H66.4805L70.5305 28.4793L72.0105 32.5293V57.7593L65.9605 52.0993H43.8205L40.2905 50.3793L38.4805 46.3793V31.7193L40.9605 27.5293L44.2505 26.5293Z" fill="white"/>
<path d="M72.4805 59.0308L65.7505 52.4907H44.6905C42.9117 52.4881 41.2065 51.7803 39.9487 50.5225C38.6909 49.2647 37.9831 47.5596 37.9805 45.7808V32.6807C37.9831 30.9019 38.6909 29.1968 39.9487 27.939C41.2065 26.6812 42.9117 25.9733 44.6905 25.9707H65.7505C67.5293 25.9733 69.2344 26.6812 70.4922 27.939C71.75 29.1968 72.4578 30.9019 72.4605 32.6807L72.4805 59.0308ZM44.6905 27.0308C43.192 27.0308 41.7549 27.626 40.6953 28.6855C39.6357 29.7451 39.0405 31.1822 39.0405 32.6807V45.7808C39.0431 47.2784 39.6392 48.7139 40.6982 49.7729C41.7572 50.832 43.1928 51.428 44.6905 51.4307H66.2105L71.4205 56.4907V32.6807C71.4205 31.9387 71.2743 31.204 70.9904 30.5186C70.7065 29.8331 70.2903 29.2102 69.7656 28.6855C69.241 28.1609 68.6181 27.7446 67.9326 27.4607C67.2471 27.1768 66.5124 27.0308 65.7705 27.0308H44.6905Z" fill="#333333"/>
<path d="M27 73.571V47.251C27.0026 45.4739 27.7091 43.7702 28.9647 42.5127C30.2203 41.2552 31.9229 40.5463 33.7 40.541H38.51C38.6506 40.541 38.7854 40.5969 38.8848 40.6963C38.9842 40.7957 39.04 40.9305 39.04 41.071C39.04 41.2116 38.9842 41.3464 38.8848 41.4458C38.7854 41.5452 38.6506 41.6011 38.51 41.6011H33.75C32.2523 41.6037 30.8168 42.1998 29.7578 43.2588C28.6988 44.3178 28.1026 45.7533 28.1 47.251V71.071L33.32 66.001H54.75C55.492 66.001 56.2267 65.8547 56.9122 65.5708C57.5977 65.2869 58.2205 64.8708 58.7452 64.3462C59.2698 63.8215 59.686 63.1987 59.9699 62.5132C60.2539 61.8277 60.4 61.093 60.4 60.3511V51.991C60.4 51.8504 60.4558 51.7156 60.5552 51.6162C60.6546 51.5168 60.7894 51.4609 60.93 51.4609C61.0706 51.4609 61.2054 51.5168 61.3048 51.6162C61.4042 51.7156 61.46 51.8504 61.46 51.991V60.3511C61.4574 62.1299 60.7496 63.835 59.4918 65.0928C58.234 66.3506 56.5288 67.0584 54.75 67.061H33.75L27 73.571Z" fill="#333333"/>
<path d="M61.0103 36.4906H49.4503C49.3753 36.501 49.2989 36.4951 49.2263 36.4735C49.1537 36.4519 49.0866 36.4149 49.0295 36.3651C48.9724 36.3154 48.9266 36.2541 48.8953 36.1852C48.8639 36.1162 48.8477 36.0414 48.8477 35.9657C48.8477 35.89 48.8639 35.8149 48.8953 35.746C48.9266 35.677 48.9724 35.6158 49.0295 35.566C49.0866 35.5163 49.1537 35.4793 49.2263 35.4576C49.2989 35.436 49.3753 35.4302 49.4503 35.4405H61.0103C61.0853 35.4302 61.1617 35.436 61.2343 35.4576C61.3068 35.4793 61.374 35.5163 61.4311 35.566C61.4882 35.6158 61.5339 35.677 61.5653 35.746C61.5967 35.8149 61.6129 35.89 61.6129 35.9657C61.6129 36.0414 61.5967 36.1162 61.5653 36.1852C61.5339 36.2541 61.4882 36.3154 61.4311 36.3651C61.374 36.4149 61.3068 36.4519 61.2343 36.4735C61.1617 36.4951 61.0853 36.501 61.0103 36.4906Z" fill="#333333"/>
<path d="M61.0099 41.6011H49.4499C49.3094 41.6011 49.1745 41.5452 49.0752 41.4458C48.9758 41.3464 48.9199 41.2116 48.9199 41.071C48.9199 40.9305 48.9758 40.7957 49.0752 40.6963C49.1745 40.5969 49.3094 40.541 49.4499 40.541H61.0099C61.0795 40.541 61.1484 40.5547 61.2127 40.5813C61.277 40.6079 61.3355 40.6471 61.3847 40.6963C61.4339 40.7455 61.4729 40.8039 61.4996 40.8682C61.5262 40.9325 61.5399 41.0014 61.5399 41.071C61.5399 41.1406 61.5262 41.2094 61.4996 41.2737C61.4729 41.338 61.4339 41.3966 61.3847 41.4458C61.3355 41.495 61.277 41.5339 61.2127 41.5605C61.1484 41.5872 61.0795 41.6011 61.0099 41.6011Z" fill="#333333"/>
</g>
<defs>
<clipPath id="clip0_1997_378881">
<rect width="45.49" height="47.57" fill="white" transform="translate(27 26)"/>
</clipPath>
</defs>
</svg>
