<svg width="100" height="100" viewBox="0 0 100 100" fill="none" xmlns="http://www.w3.org/2000/svg">
<circle cx="50" cy="50" r="50" fill="#F2F6FB"/>
<g clip-path="url(#clip0_1724_328210)">
<path d="M60.0303 24.5796H68.3103C69.1696 24.5796 69.9937 24.9209 70.6013 25.5286C71.2089 26.1362 71.5503 26.9603 71.5503 27.8196V53.5796C71.5503 54.4389 71.2089 55.263 70.6013 55.8706C69.9937 56.4782 69.1696 56.8196 68.3103 56.8196H31.3103C30.451 56.8196 29.6269 56.4782 29.0193 55.8706C28.4117 55.263 28.0703 54.4389 28.0703 53.5796V27.7595C28.0703 26.9002 28.4117 26.0761 29.0193 25.4685C29.6269 24.8609 30.451 24.5195 31.3103 24.5195H60.0503L60.0303 24.5796Z" fill="white"/>
<path d="M68.309 57.3601H31.309C30.31 57.3575 29.3526 56.9594 28.6462 56.2529C27.9397 55.5465 27.5417 54.5891 27.5391 53.5901V27.77C27.5391 26.7702 27.9362 25.8113 28.6432 25.1042C29.3503 24.3972 30.3092 24 31.309 24H68.309C69.3089 24 70.2678 24.3972 70.9749 25.1042C71.6819 25.8113 72.079 26.7702 72.079 27.77V53.5801C72.079 54.5809 71.6822 55.5409 70.9755 56.2495C70.2687 56.9581 69.3098 57.3575 68.309 57.3601ZM31.309 25.0601C30.5903 25.0601 29.901 25.3455 29.3928 25.8538C28.8845 26.362 28.5991 27.0513 28.5991 27.77V53.5801C28.5991 54.2988 28.8845 54.9881 29.3928 55.4963C29.901 56.0046 30.5903 56.29 31.309 56.29H68.309C68.6649 56.29 69.0173 56.2199 69.3461 56.0837C69.6749 55.9475 69.9736 55.748 70.2253 55.4963C70.4769 55.2447 70.6766 54.946 70.8127 54.6172C70.9489 54.2884 71.019 53.936 71.019 53.5801V27.76C71.019 27.4041 70.9489 27.0517 70.8127 26.7229C70.6766 26.3941 70.4769 26.0954 70.2253 25.8438C69.9736 25.5921 69.6749 25.3925 69.3461 25.2563C69.0173 25.1202 68.6649 25.05 68.309 25.05L31.309 25.0601Z" fill="#333333"/>
<path d="M38.7105 57.3604L36.7305 62.3604H49.8005H62.8805L60.9005 57.3604" fill="white"/>
<path d="M62.8698 62.8802H36.7298C36.6431 62.8816 36.5574 62.8613 36.4805 62.8211C36.4037 62.7809 36.3382 62.7222 36.2898 62.6502C36.2408 62.5795 36.2097 62.498 36.1992 62.4127C36.1888 62.3273 36.1993 62.2406 36.2298 62.1602L38.2298 57.1602C38.2832 57.0303 38.3851 56.9262 38.5139 56.8702C38.6428 56.8142 38.7883 56.8106 38.9198 56.8602C39.0496 56.9134 39.1531 57.0157 39.2074 57.1451C39.2618 57.2744 39.2626 57.4201 39.2098 57.5501L37.5198 61.8301H62.1098L60.4198 57.5501C60.368 57.4175 60.3712 57.2698 60.4284 57.1395C60.4856 57.0091 60.5922 56.9068 60.7248 56.855C60.8574 56.8033 61.0051 56.8064 61.1355 56.8636C61.2658 56.9208 61.368 57.0276 61.4198 57.1602L63.4198 62.1602C63.4618 62.235 63.4839 62.3193 63.4839 62.4051C63.4839 62.4909 63.4618 62.5754 63.4198 62.6502C63.3627 62.7403 63.2794 62.8107 63.181 62.8519C63.0827 62.893 62.974 62.9029 62.8698 62.8802Z" fill="#333333"/>
<path d="M68.0907 65.5801L71.8807 72.4102C72.0092 72.6446 72.0744 72.9085 72.0699 73.1758C72.0655 73.4431 71.9915 73.7048 71.8553 73.9348C71.7191 74.1649 71.5253 74.3553 71.2931 74.4878C71.0608 74.6202 70.7981 74.6901 70.5307 74.6902H29.0707C28.8033 74.6901 28.5406 74.6202 28.3084 74.4878C28.0761 74.3553 27.8823 74.1649 27.7461 73.9348C27.6099 73.7048 27.5359 73.4431 27.5315 73.1758C27.527 72.9085 27.5923 72.6446 27.7207 72.4102L31.5107 65.5801H68.0907Z" fill="white"/>
<path d="M70.5315 75.2598H29.0715C28.7118 75.2594 28.3583 75.1653 28.046 74.9866C27.7338 74.808 27.4735 74.5512 27.2908 74.2413C27.1081 73.9314 27.0092 73.5793 27.0041 73.2195C26.999 72.8598 27.0877 72.505 27.2615 72.19L31.0415 65.3599C31.0883 65.2768 31.1567 65.2077 31.2394 65.1602C31.3221 65.1127 31.4161 65.0884 31.5115 65.0899H68.0915C68.1854 65.0892 68.2777 65.1139 68.3587 65.1614C68.4397 65.209 68.5063 65.2776 68.5515 65.3599L72.3415 72.19C72.5153 72.505 72.604 72.8598 72.5988 73.2195C72.5937 73.5793 72.4949 73.9314 72.3122 74.2413C72.1295 74.5512 71.8692 74.808 71.557 74.9866C71.2447 75.1653 70.8913 75.2594 70.5315 75.2598ZM31.8215 66.15L28.1815 72.7C28.0937 72.852 28.0475 73.0245 28.0475 73.2C28.0475 73.3756 28.0937 73.548 28.1815 73.7C28.2709 73.8508 28.3983 73.9753 28.551 74.0613C28.7037 74.1473 28.8762 74.1917 29.0515 74.19H70.5115C70.6867 74.1917 70.8594 74.1473 71.0121 74.0613C71.1647 73.9753 71.2921 73.8508 71.3815 73.7C71.4693 73.548 71.5155 73.3756 71.5155 73.2C71.5155 73.0245 71.4693 72.852 71.3815 72.7L67.7515 66.15H31.8215Z" fill="#333333"/>
<path d="M30.3711 72.4299L32.8711 67.9199H66.7411L69.2311 72.4299H30.3711Z" fill="#235AB0"/>
<path d="M63.3992 33.4697H36.1992V34.4697H63.3992V33.4697Z" fill="#333333"/>
<path d="M63.3992 37.9404H36.1992V38.9404H63.3992V37.9404Z" fill="#333333"/>
<path d="M63.3992 42.4199H36.1992V43.4199H63.3992V42.4199Z" fill="#333333"/>
<path d="M57.7411 46.8896H41.8711V47.8896H57.7411V46.8896Z" fill="#333333"/>
</g>
<defs>
<clipPath id="clip0_1724_328210">
<rect width="45.6" height="51.26" fill="white" transform="translate(27 24)"/>
</clipPath>
</defs>
</svg>
