<svg width="100" height="100" viewBox="0 0 100 100" fill="none" xmlns="http://www.w3.org/2000/svg">
<circle cx="50" cy="50" r="50" fill="#F2F6FB"/>
<g clip-path="url(#clip0_1081_175864)">
<path d="M30.5303 70.1411V50.8111L37.2303 44.8811L34.9903 40.0511L35.8903 34.9611L39.7803 31.3711H42.9603L45.7803 33.0611L48.0503 36.5011L47.6403 42.8811L45.4503 45.3511L50.9803 50.0111L52.9303 48.0211H68.4403L61.6003 61.3711L65.8003 60.7311L69.0903 70.1411H30.5303Z" fill="white"/>
<path d="M52.8896 43.4283V32.7083L54.2796 30.6783L57.5696 30.2383L65.2896 30.4683L67.1396 32.0583V39.3883L65.5996 41.4883L57.2196 41.4383H55.5296L52.8896 43.4283Z" fill="white"/>
<path d="M52.3496 45.1799V33.1799C52.3496 32.3383 52.6833 31.5311 53.2775 30.9351C53.8717 30.339 54.678 30.0026 55.5196 30H64.5196C65.3613 30.0026 66.1675 30.339 66.7617 30.9351C67.356 31.5311 67.6896 32.3383 67.6896 33.1799V38.8C67.7003 39.64 67.3782 40.4502 66.7937 41.0535C66.2091 41.6568 65.4095 42.0042 64.5696 42.02H55.6396L52.3496 45.1799ZM55.5196 31.0601C54.9574 31.0601 54.4181 31.2833 54.0205 31.6809C53.623 32.0785 53.3996 32.6177 53.3996 33.1799V42.6799L55.2196 40.9199H64.5696C65.1319 40.9199 65.6711 40.6966 66.0687 40.2991C66.4663 39.9015 66.6896 39.3623 66.6896 38.8V33.1799C66.6949 32.8982 66.644 32.6183 66.5399 32.3564C66.4357 32.0946 66.2804 31.8561 66.083 31.655C65.8856 31.4539 65.6501 31.2941 65.3903 31.1851C65.1304 31.076 64.8514 31.02 64.5696 31.02L55.5196 31.0601Z" fill="#333333"/>
<path d="M61.53 62.1106H33.9C32.8665 62.108 31.876 61.6962 31.1452 60.9653C30.4144 60.2345 30.0026 59.244 30 58.2104V50.8105L37 44.4404C37.0492 44.3911 37.1077 44.3521 37.172 44.3254C37.2364 44.2988 37.3053 44.2852 37.375 44.2852C37.4447 44.2852 37.5136 44.2988 37.578 44.3254C37.6423 44.3521 37.7008 44.3911 37.75 44.4404C37.799 44.4888 37.8379 44.5466 37.8644 44.6101C37.891 44.6736 37.9046 44.7417 37.9046 44.8105C37.9046 44.8794 37.891 44.9475 37.8644 45.011C37.8379 45.0745 37.799 45.1321 37.75 45.1804L31.1 51.2405V58.1704C31.1026 58.9255 31.4038 59.649 31.9377 60.1829C32.4716 60.7168 33.1949 61.0179 33.95 61.0205H44.6L52.37 47.6704H69.14L61.53 62.1106ZM45.77 61.0205H60.89L67.34 48.7305H52.93L45.77 61.0205Z" fill="#333333"/>
<path d="M69.77 70.7585H30.53C30.3894 70.7585 30.2546 70.7027 30.1552 70.6033C30.0558 70.5039 30 70.3691 30 70.2285C30 70.1589 30.0137 70.0899 30.0403 70.0256C30.067 69.9613 30.106 69.903 30.1552 69.8538C30.2045 69.8045 30.2629 69.7656 30.3272 69.739C30.3915 69.7124 30.4604 69.6985 30.53 69.6985H68.28L65.38 61.3687H61.6C61.5304 61.3687 61.4615 61.3548 61.3972 61.3281C61.3329 61.3015 61.2745 61.2626 61.2252 61.2134C61.176 61.1642 61.137 61.1056 61.1103 61.0413C61.0837 60.977 61.07 60.9082 61.07 60.8386C61.07 60.6981 61.1258 60.5633 61.2252 60.4639C61.3246 60.3645 61.4594 60.3086 61.6 60.3086H66.13L69.77 70.7585Z" fill="#333333"/>
<path d="M58.6797 50.0117L63.0197 54.3417L65.2897 50.0117H58.6797Z" fill="#235AB0"/>
<path d="M40.0699 46.8209L38.6299 52.0509L41.6399 56.7109L44.6599 51.7609L43.0099 46.2109L40.0699 46.8209Z" fill="#235AB0"/>
<path d="M30.53 70.7593C30.3894 70.7593 30.2546 70.7034 30.1552 70.604C30.0558 70.5046 30 70.3698 30 70.2292V57.2292C30 57.1596 30.0137 57.0907 30.0403 57.0264C30.067 56.9621 30.106 56.9037 30.1552 56.8545C30.2045 56.8053 30.2629 56.7664 30.3272 56.7397C30.3915 56.7131 30.4604 56.6992 30.53 56.6992C30.5991 56.6992 30.6676 56.713 30.7313 56.7397C30.7951 56.7665 30.8529 56.8059 30.9013 56.8552C30.9497 56.9046 30.9878 56.9629 31.0133 57.0271C31.0389 57.0913 31.0513 57.1601 31.05 57.2292V70.2292C31.0513 70.2984 31.0389 70.3671 31.0133 70.4314C30.9878 70.4956 30.9497 70.5542 30.9013 70.6035C30.8529 70.6529 30.7951 70.692 30.7313 70.7188C30.6676 70.7455 30.5991 70.7593 30.53 70.7593Z" fill="#333333"/>
<path d="M41.6398 57.9217L38.0498 52.1617L39.6198 46.5819C39.6594 46.4483 39.7492 46.3349 39.8704 46.266C39.9915 46.197 40.1347 46.1776 40.2698 46.2118C40.3378 46.2302 40.4014 46.2622 40.457 46.3055C40.5125 46.3489 40.5589 46.4028 40.5933 46.4642C40.6278 46.5257 40.6496 46.5934 40.6576 46.6634C40.6656 46.7334 40.6595 46.8043 40.6398 46.8719L39.1898 52.0018L41.6398 55.9217L44.0898 52.0018L42.6398 46.8719C42.6201 46.8043 42.614 46.7334 42.622 46.6634C42.63 46.5934 42.6518 46.5257 42.6863 46.4642C42.7207 46.4028 42.7671 46.3489 42.8226 46.3055C42.8782 46.2622 42.9418 46.2302 43.0098 46.2118C43.145 46.1776 43.2881 46.197 43.4092 46.266C43.5304 46.3349 43.6202 46.4483 43.6598 46.5819L45.2298 52.1617L41.6398 57.9217Z" fill="#333333"/>
<path d="M51.3903 50.6885C51.2571 50.6878 51.1289 50.638 51.0303 50.5486L45.4503 45.3586C45.3531 45.258 45.2988 45.1235 45.2988 44.9836C45.2988 44.8437 45.3531 44.7093 45.4503 44.6086C45.4995 44.5594 45.558 44.5201 45.6223 44.4934C45.6866 44.4667 45.7556 44.4531 45.8253 44.4531C45.8949 44.4531 45.9639 44.4667 46.0283 44.4934C46.0926 44.5201 46.1511 44.5594 46.2003 44.6086L51.7803 49.7986C51.8296 49.8478 51.8687 49.9061 51.8953 49.9705C51.922 50.0348 51.9357 50.1039 51.9357 50.1736C51.9357 50.2432 51.922 50.3121 51.8953 50.3765C51.8687 50.4408 51.8296 50.4994 51.7803 50.5486C51.673 50.6434 51.5334 50.6934 51.3903 50.6885Z" fill="#333333"/>
<path d="M41.6396 47.3015C37.7496 47.3015 34.6396 43.5815 34.6396 38.9915C34.6396 34.4015 37.7996 30.6914 41.6396 30.6914C45.4796 30.6914 48.6396 34.4115 48.6396 38.9915C48.6396 43.5715 45.5296 47.3015 41.6396 47.3015ZM41.6396 31.7415C38.3296 31.7415 35.6396 35.0015 35.6396 38.9915C35.6396 42.9815 38.3296 46.2515 41.6396 46.2515C44.9496 46.2515 47.6396 42.9915 47.6396 38.9915C47.6396 34.9915 44.9496 31.7415 41.6396 31.7415Z" fill="#333333"/>
</g>
<defs>
<clipPath id="clip0_1081_175864">
<rect width="39.78" height="40.75" fill="white" transform="translate(30 30)"/>
</clipPath>
</defs>
</svg>
