<svg width="100" height="100" viewBox="0 0 100 100" fill="none" xmlns="http://www.w3.org/2000/svg">
<circle cx="50" cy="50" r="50" fill="#F2F6FB"/>
<g clip-path="url(#clip0_1096_175285)">
<path d="M59.1401 37.5605H31.0801V71.2005H59.1401V37.5605Z" fill="white"/>
<path d="M54.3304 27.8594H35.6504V37.2494H54.3304V27.8594Z" fill="white"/>
<path d="M39.9199 51.0293H38.9199V52.5493H39.9199V51.0293Z" fill="#235AB0"/>
<path d="M39.9199 46.2793H38.9199V47.7893H39.9199V46.2793Z" fill="#235AB0"/>
<path d="M39.9199 41.7305H38.9199V43.2505H39.9199V41.7305Z" fill="#235AB0"/>
<path d="M45.5391 51.0293H44.5391V52.5493H45.5391V51.0293Z" fill="#235AB0"/>
<path d="M45.5391 46.2793H44.5391V47.7893H45.5391V46.2793Z" fill="#235AB0"/>
<path d="M45.5391 41.7305H44.5391V43.2505H45.5391V41.7305Z" fill="#235AB0"/>
<path d="M51.0996 51.0293H50.0996V52.5493H51.0996V51.0293Z" fill="#235AB0"/>
<path d="M51.0996 46.2793H50.0996V47.7893H51.0996V46.2793Z" fill="#235AB0"/>
<path d="M51.0996 41.7305H50.0996V43.2505H51.0996V41.7305Z" fill="#235AB0"/>
<path d="M39.9199 65.0703H38.9199V66.5903H39.9199V65.0703Z" fill="#235AB0"/>
<path d="M39.9199 60.3203H38.9199V61.8303H39.9199V60.3203Z" fill="#235AB0"/>
<path d="M39.9199 55.7695H38.9199V57.2895H39.9199V55.7695Z" fill="#235AB0"/>
<path d="M45.5391 65.0703H44.5391V66.5903H45.5391V65.0703Z" fill="#235AB0"/>
<path d="M45.5391 60.3203H44.5391V61.8303H45.5391V60.3203Z" fill="#235AB0"/>
<path d="M45.5391 55.7695H44.5391V57.2895H45.5391V55.7695Z" fill="#235AB0"/>
<path d="M51.1303 65.0703H50.0703V66.5903H51.1303V65.0703Z" fill="#344154"/>
<path d="M51.1303 60.3203H50.0703V61.8303H51.1303V60.3203Z" fill="#344154"/>
<path d="M51.1303 55.7695H50.0703V57.2895H51.1303V55.7695Z" fill="#344154"/>
<path d="M53.99 72.2795H32.41C31.7709 72.2795 31.1578 72.0257 30.7059 71.5737C30.2539 71.1218 30 70.5088 30 69.8696V38.6797C29.9998 38.1578 30.2037 37.6564 30.568 37.2827C30.9323 36.909 31.4283 36.6927 31.95 36.6797H58.06C58.5904 36.6797 59.0992 36.8903 59.4742 37.2654C59.8493 37.6405 60.06 38.1493 60.06 38.6797V55.7795C60.06 55.8487 60.0463 55.9172 60.0195 55.981C59.9928 56.0447 59.9535 56.1025 59.9042 56.1509C59.8548 56.1993 59.7964 56.2374 59.7321 56.2629C59.6679 56.2885 59.5992 56.3009 59.53 56.2996C59.4609 56.3009 59.3922 56.2885 59.3279 56.2629C59.2637 56.2374 59.2052 56.1993 59.1558 56.1509C59.1065 56.1025 59.0673 56.0447 59.0405 55.981C59.0138 55.9172 59 55.8487 59 55.7795V38.6797C59 38.441 58.9052 38.212 58.7364 38.0432C58.5676 37.8744 58.3387 37.7795 58.1 37.7795H31.99C31.7521 37.7821 31.5247 37.8779 31.3565 38.0461C31.1883 38.2144 31.0926 38.4418 31.09 38.6797V69.8696C31.09 70.0478 31.1253 70.2242 31.1937 70.3887C31.2622 70.5531 31.3625 70.7024 31.489 70.8279C31.6154 70.9534 31.7654 71.0524 31.9303 71.1196C32.0952 71.1869 32.2719 71.221 32.45 71.2197H54.03C54.1706 71.2197 54.3054 71.2754 54.4048 71.3748C54.5042 71.4742 54.56 71.6089 54.56 71.7495C54.5602 71.8226 54.5453 71.8951 54.5162 71.9622C54.4871 72.0292 54.4445 72.0894 54.3909 72.1392C54.3374 72.1889 54.2741 72.2273 54.2051 72.2515C54.1361 72.2756 54.0629 72.2851 53.99 72.2795Z" fill="#333333"/>
<path d="M54.6501 37.78C54.5805 37.78 54.5116 37.7664 54.4473 37.7397C54.383 37.7131 54.3245 37.674 54.2753 37.6248C54.2261 37.5755 54.187 37.5172 54.1604 37.4529C54.1338 37.3886 54.1201 37.3196 54.1201 37.25V28.8701C54.1201 28.6553 54.0347 28.4493 53.8828 28.2974C53.7309 28.1455 53.5249 28.0601 53.3101 28.0601H36.7101C36.4943 28.06 36.2873 28.145 36.1338 28.2966C35.9803 28.4483 35.8927 28.6544 35.8901 28.8701V37.25C35.8914 37.32 35.8786 37.3897 35.8525 37.4546C35.8263 37.5195 35.7873 37.5784 35.7379 37.6279C35.6884 37.6774 35.6294 37.7163 35.5645 37.7424C35.4996 37.7686 35.4301 37.7814 35.3601 37.78C35.2905 37.78 35.2216 37.7664 35.1573 37.7397C35.093 37.7131 35.0345 37.674 34.9853 37.6248C34.9361 37.5755 34.8971 37.5172 34.8704 37.4529C34.8438 37.3886 34.8301 37.3196 34.8301 37.25V28.8701C34.8327 28.3732 35.0319 27.8975 35.3842 27.5471C35.7365 27.1967 36.2132 27 36.7101 27H53.2701C53.766 27 54.2417 27.1972 54.5923 27.5479C54.943 27.8985 55.1401 28.3742 55.1401 28.8701V37.25C55.1429 37.3846 55.0934 37.5152 55.002 37.614C54.9106 37.7129 54.7845 37.7723 54.6501 37.78Z" fill="#333333"/>
<path d="M51.4993 30.6992H38.5293V34.0692H51.4993V30.6992Z" fill="#235AB0"/>
<path d="M58.1794 73.3705C64.017 73.3705 68.7494 68.6381 68.7494 62.8005C68.7494 56.9628 64.017 52.2305 58.1794 52.2305C52.3417 52.2305 47.6094 56.9628 47.6094 62.8005C47.6094 68.6381 52.3417 73.3705 58.1794 73.3705Z" fill="#235AB0"/>
<path d="M58.1696 73.8804C55.2353 73.8751 52.4227 72.707 50.3478 70.6321C48.2729 68.5572 47.1049 65.7446 47.0996 62.8103C47.1023 59.8743 48.2691 57.0592 50.3442 54.9822C52.4194 52.9051 55.2336 51.7358 58.1696 51.7305C59.626 51.7292 61.0683 52.0147 62.4143 52.5708C63.7603 53.1269 64.9836 53.9426 66.0143 54.9714C67.0451 56.0003 67.863 57.2221 68.4216 58.5671C68.9801 59.9121 69.2683 61.3539 69.2696 62.8103C69.2643 65.7498 68.0922 68.5671 66.0108 70.6428C63.9294 72.7186 61.1091 73.883 58.1696 73.8804ZM58.1696 52.7305C55.4988 52.7358 52.939 53.7997 51.0513 55.6892C49.1637 57.5787 48.1023 60.1395 48.0996 62.8103C48.1023 65.4802 49.164 68.0401 51.0519 69.928C52.9399 71.8159 55.4997 72.8777 58.1696 72.8804C59.4942 72.883 60.8063 72.6246 62.0309 72.1199C63.2555 71.6151 64.3686 70.8739 65.3066 69.9387C66.2446 69.0035 66.9891 67.8926 67.4975 66.6694C68.0059 65.4463 68.2683 64.1349 68.2696 62.8103C68.2683 61.4853 68.006 60.1736 67.4977 58.95C66.9895 57.7263 66.2451 56.6145 65.3073 55.6785C64.3694 54.7425 63.2563 54.0005 62.0316 53.4946C60.8069 52.9888 59.4947 52.7292 58.1696 52.7305Z" fill="#333333"/>
<path d="M54.7495 69.2293L51.7695 61.8393L53.1595 61.2793L55.2295 66.4293L63.3295 57.2793L64.4495 58.2693L54.7495 69.2293Z" fill="white"/>
</g>
<defs>
<clipPath id="clip0_1096_175285">
<rect width="39.25" height="46.87" fill="white" transform="translate(30 27)"/>
</clipPath>
</defs>
</svg>
