<svg width="100" height="100" viewBox="0 0 100 100" fill="none" xmlns="http://www.w3.org/2000/svg">
<circle cx="50" cy="50" r="50" fill="#F2F6FB"/>
<g clip-path="url(#clip0_1075_171958)">
<path d="M35.5098 38.2387V67.3426H61.2425V32.6602H42.3574L35.5098 38.2387Z" fill="white"/>
<path d="M57.2871 58.1804L59.2265 56.2891L65.0882 62.1438L65.2507 63.1427L63.8747 64.0884L62.8129 63.6846L57.2871 58.1804Z" fill="#235AB0"/>
<path d="M60.7544 67.9999H35.4984C35.3671 67.9972 35.2419 67.9449 35.1491 67.8538C35.0562 67.7627 35.0028 67.6399 35 67.5111V38.6411C35.0009 38.5774 35.0148 38.5143 35.0408 38.4559C35.0669 38.3975 35.1046 38.3449 35.1517 38.301L41.4359 32.138C41.5288 32.0495 41.6531 32.0001 41.7826 32H60.7544C60.8837 32 61.0077 32.0502 61.0991 32.1398C61.1906 32.2295 61.2419 32.3513 61.2419 32.4781V52.8795C61.2434 52.9432 61.2318 53.0065 61.208 53.0657C61.1841 53.125 61.1485 53.179 61.103 53.2245C61.0576 53.27 61.0034 53.3062 60.9435 53.3309C60.8836 53.3555 60.8193 53.3682 60.7544 53.3682C60.6885 53.3697 60.6231 53.358 60.5619 53.334C60.5008 53.3099 60.4452 53.2741 60.3986 53.2284C60.3521 53.1827 60.3154 53.1283 60.2909 53.0683C60.2664 53.0084 60.2545 52.9441 60.256 52.8795V32.9668H41.9885L35.986 38.8429V67.033H60.2993V64.3872C60.2993 64.2576 60.3518 64.1331 60.4453 64.0414C60.5388 63.9498 60.6655 63.8982 60.7977 63.8982C60.928 63.901 61.052 63.954 61.1431 64.0453C61.2343 64.1367 61.2853 64.2594 61.2853 64.3872V67.5111C61.2854 67.5781 61.2715 67.6442 61.2445 67.7057C61.2174 67.7672 61.1778 67.8228 61.128 67.8686C61.0782 67.9144 61.0194 67.9495 60.9551 67.9721C60.8908 67.9947 60.8225 68.0042 60.7544 67.9999Z" fill="#333333"/>
<path d="M35.4982 39.1298C35.3688 39.1297 35.2444 39.08 35.1515 38.9915C35.0583 38.8999 35.0059 38.7758 35.0059 38.6463C35.0059 38.5168 35.0583 38.3926 35.1515 38.301L41.4357 32.138C41.4811 32.093 41.5351 32.0573 41.5946 32.0329C41.6541 32.0086 41.718 31.9961 41.7825 31.9961C41.8469 31.9961 41.9108 32.0086 41.9703 32.0329C42.0298 32.0573 42.0838 32.093 42.1292 32.138C42.175 32.1825 42.2114 32.2355 42.2363 32.2939C42.2611 32.3523 42.2739 32.4148 42.2739 32.4781C42.2739 32.5413 42.2611 32.6039 42.2363 32.6623C42.2114 32.7206 42.175 32.7735 42.1292 32.8179L35.845 38.9915C35.7498 39.0765 35.6269 39.1256 35.4982 39.1298Z" fill="#333333"/>
<path d="M41.7826 39.1405H35.4984C35.3671 39.1378 35.2419 39.0852 35.1491 38.9942C35.0562 38.9031 35.0028 38.7805 35 38.6517C35.0028 38.5239 35.0566 38.4023 35.1498 38.3129C35.2429 38.2235 35.3681 38.1733 35.4984 38.1734H41.2842V32.4781C41.287 32.3503 41.3408 32.2287 41.434 32.1393C41.5271 32.0499 41.6523 32 41.7826 32C41.9119 32 42.0359 32.0502 42.1274 32.1398C42.2188 32.2295 42.2702 32.3513 42.2702 32.4781V38.6517C42.2726 38.715 42.2613 38.7778 42.237 38.8364C42.2127 38.895 42.176 38.9479 42.1293 38.9916C42.0846 39.0378 42.0308 39.0747 41.9713 39.1003C41.9117 39.1258 41.8476 39.1396 41.7826 39.1405Z" fill="#333333"/>
<path d="M56.9289 39.5851H46.3216C46.1923 39.5851 46.0682 39.5347 45.9768 39.445C45.8854 39.3554 45.834 39.2338 45.834 39.107C45.834 38.9802 45.8854 38.8584 45.9768 38.7687C46.0682 38.6791 46.1923 38.6289 46.3216 38.6289H56.9289C57.0582 38.6289 57.1822 38.6791 57.2736 38.7687C57.365 38.8584 57.4164 38.9802 57.4164 39.107C57.4164 39.2338 57.365 39.3554 57.2736 39.445C57.1822 39.5347 57.0582 39.5851 56.9289 39.5851Z" fill="#333333"/>
<path d="M56.9292 43.9632H39.3226C39.1913 43.9605 39.0662 43.908 38.9733 43.8169C38.8804 43.7258 38.827 43.603 38.8242 43.4742C38.8271 43.3464 38.8808 43.2248 38.974 43.1354C39.0671 43.046 39.1923 42.9961 39.3226 42.9961H56.9292C57.0585 42.9961 57.1825 43.0465 57.274 43.1362C57.3654 43.2259 57.4168 43.3474 57.4168 43.4742C57.4168 43.602 57.3658 43.7247 57.2747 43.8161C57.1835 43.9075 57.0595 43.9604 56.9292 43.9632Z" fill="#333333"/>
<path d="M55.3806 48.3106H50.0824C49.9511 48.3079 49.8259 48.2556 49.733 48.1645C49.6402 48.0735 49.5867 47.9506 49.584 47.8219C49.5868 47.6941 49.6406 47.5724 49.7338 47.4831C49.8269 47.3937 49.9521 47.3437 50.0824 47.3438H55.3806C55.5099 47.3438 55.634 47.3942 55.7254 47.4838C55.8168 47.5735 55.8682 47.695 55.8682 47.8219C55.8682 47.9497 55.8172 48.0724 55.7261 48.1638C55.6349 48.2551 55.5109 48.3078 55.3806 48.3106Z" fill="#333333"/>
<path d="M43.7541 48.3106H39.3226C39.1913 48.3079 39.0662 48.2556 38.9733 48.1645C38.8804 48.0735 38.827 47.9506 38.8242 47.8219C38.8271 47.6941 38.8808 47.5724 38.974 47.4831C39.0671 47.3937 39.1923 47.3437 39.3226 47.3438H43.7541C43.8844 47.3437 44.0096 47.3937 44.1027 47.4831C44.1959 47.5724 44.2496 47.6941 44.2525 47.8219C44.2497 47.9506 44.1963 48.0735 44.1034 48.1645C44.0105 48.2556 43.8854 48.3079 43.7541 48.3106Z" fill="#333333"/>
<path d="M56.9291 52.6546H48.1204C47.9901 52.6518 47.8661 52.5991 47.7749 52.5078C47.6838 52.4164 47.6328 52.2937 47.6328 52.1659C47.6328 52.0391 47.6842 51.9173 47.7756 51.8276C47.8671 51.7379 47.9911 51.6875 48.1204 51.6875H56.9291C57.0584 51.6875 57.1824 51.7379 57.2738 51.8276C57.3653 51.9173 57.4167 52.0391 57.4167 52.1659C57.4167 52.2937 57.3657 52.4164 57.2745 52.5078C57.1834 52.5991 57.0594 52.6518 56.9291 52.6546Z" fill="#333333"/>
<path d="M42.6381 52.6546H39.3226C39.1913 52.6519 39.0662 52.5994 38.9733 52.5083C38.8804 52.4172 38.827 52.2946 38.8242 52.1659C38.8271 52.0381 38.8808 51.9164 38.974 51.8271C39.0671 51.7377 39.1923 51.6875 39.3226 51.6875H42.6381C42.7674 51.6875 42.8914 51.7379 42.9828 51.8276C43.0743 51.9173 43.1256 52.0391 43.1256 52.1659C43.1257 52.2937 43.0747 52.4164 42.9835 52.5078C42.8924 52.5991 42.7684 52.6518 42.6381 52.6546Z" fill="#333333"/>
<path d="M53.8532 57.002H51.6321C51.5018 56.9992 51.3778 56.9465 51.2867 56.8552C51.1955 56.7638 51.1445 56.6411 51.1445 56.5133C51.1445 56.3864 51.1959 56.2649 51.2873 56.1752C51.3788 56.0856 51.5028 56.0352 51.6321 56.0352H53.8641C53.9934 56.0352 54.1174 56.0856 54.2089 56.1752C54.3003 56.2649 54.3517 56.3864 54.3517 56.5133C54.3517 56.6429 54.2991 56.7674 54.2057 56.8591C54.1122 56.9507 53.9854 57.002 53.8532 57.002Z" fill="#333333"/>
<path d="M45.4768 57.002H39.3226C39.1913 56.9993 39.0662 56.947 38.9733 56.856C38.8804 56.7649 38.827 56.642 38.8242 56.5133C38.8271 56.3855 38.8808 56.2638 38.974 56.1745C39.0671 56.0851 39.1923 56.0351 39.3226 56.0352H45.4768C45.6061 56.0352 45.7301 56.0856 45.8216 56.1752C45.913 56.2649 45.9644 56.3864 45.9644 56.5133C45.9644 56.6411 45.9134 56.7638 45.8222 56.8552C45.7311 56.9465 45.6071 56.9992 45.4768 57.002Z" fill="#333333"/>
<path d="M56.9292 61.3497H39.3226C39.1913 61.3469 39.0662 61.2947 38.9733 61.2036C38.8804 61.1125 38.827 60.9897 38.8242 60.8609C38.8271 60.7331 38.8808 60.6115 38.974 60.5221C39.0671 60.4327 39.1923 60.3828 39.3226 60.3828H56.9292C57.0585 60.3828 57.1825 60.4332 57.274 60.5229C57.3654 60.6126 57.4168 60.7341 57.4168 60.8609C57.4168 60.9887 57.3658 61.1115 57.2747 61.2028C57.1835 61.2942 57.0595 61.3469 56.9292 61.3497Z" fill="#333333"/>
<path d="M63.8314 64.5375C63.5806 64.547 63.3303 64.5068 63.0957 64.4192C62.8611 64.3315 62.647 64.1982 62.4662 64.0274L57.0488 58.7146C56.9754 58.6461 56.9169 58.5636 56.877 58.4723C56.837 58.3809 56.8164 58.2827 56.8164 58.1833C56.8164 58.0839 56.837 57.9856 56.877 57.8943C56.9169 57.803 56.9754 57.7205 57.0488 57.652L58.6307 56.09C58.7748 55.9499 58.9695 55.8711 59.1724 55.8711C59.3754 55.8711 59.5701 55.9499 59.7142 56.09L65.1316 61.4029C65.4832 61.7508 65.6816 62.22 65.6842 62.7099C65.6823 63.1967 65.4835 63.6629 65.1316 64.0062C64.7851 64.3423 64.3188 64.5329 63.8314 64.5375ZM57.9806 58.162L63.1922 63.2837C63.3633 63.4429 63.5902 63.5317 63.826 63.5317C64.0619 63.5317 64.2887 63.4429 64.4598 63.2837C64.5458 63.2048 64.6142 63.1093 64.6608 63.0033C64.7074 62.8972 64.7312 62.7828 64.7307 62.6673C64.7302 62.5504 64.706 62.4348 64.6595 62.3272C64.6129 62.2196 64.5451 62.122 64.4598 62.0403L59.2483 56.9189L57.9806 58.162Z" fill="#333333"/>
<path d="M57.6453 58.3297C57.5801 58.3301 57.5156 58.3172 57.4559 58.2916C57.3961 58.266 57.3426 58.2283 57.2986 58.1811L56.0959 57.0015C56.0501 56.9571 56.0137 56.9042 55.9888 56.8459C55.964 56.7875 55.9512 56.7249 55.9512 56.6617C55.9512 56.5984 55.964 56.5359 55.9888 56.4775C56.0137 56.4191 56.0501 56.3661 56.0959 56.3216C56.1413 56.2766 56.1953 56.2409 56.2548 56.2165C56.3143 56.1922 56.3782 56.1797 56.4427 56.1797C56.5071 56.1797 56.571 56.1922 56.6305 56.2165C56.69 56.2409 56.744 56.2766 56.7894 56.3216L57.6453 57.1611L58.187 56.6191L57.3311 55.7903C57.2428 55.6962 57.1938 55.573 57.1938 55.445C57.1938 55.3171 57.2428 55.1939 57.3311 55.0997C57.4271 55.0131 57.5528 54.9648 57.6832 54.9648C57.8137 54.9648 57.9394 55.0131 58.0354 55.0997L59.2272 56.2791C59.2743 56.323 59.312 56.3758 59.338 56.4342C59.3641 56.4926 59.378 56.5554 59.3789 56.6191C59.3775 56.7511 59.323 56.8772 59.2272 56.9699L57.992 58.1811C57.9473 58.2273 57.8935 58.2642 57.834 58.2898C57.7745 58.3153 57.7103 58.3289 57.6453 58.3297Z" fill="#333333"/>
<path d="M52.4762 58.4697C51.5513 58.4727 50.6351 58.2947 49.7812 57.9462C48.9273 57.5978 48.1528 57.0859 47.5031 56.4403C46.8458 55.8024 46.3244 55.0427 45.9691 54.2054C45.6138 53.3682 45.4318 52.4699 45.4336 51.563C45.4316 50.6545 45.6134 49.7547 45.9687 48.9157C46.3239 48.0766 46.8455 47.3149 47.5031 46.6751C48.1548 46.0329 48.9299 45.524 49.7835 45.1774C50.6371 44.8309 51.5524 44.6537 52.4762 44.6563C53.4016 44.6546 54.3182 44.832 55.1734 45.1785C56.0287 45.5249 56.8058 46.0335 57.4603 46.6751C58.1145 47.3169 58.633 48.079 58.9863 48.9177C59.3396 49.7565 59.5206 50.6555 59.5189 51.563C59.5203 52.4689 59.3392 53.3661 58.9859 54.2031C58.6326 55.0401 58.1141 55.8005 57.4603 56.4403C56.8078 57.0852 56.0313 57.5965 55.1757 57.9449C54.3202 58.2933 53.4026 58.4717 52.4762 58.4697ZM52.4762 45.6231C51.6806 45.6204 50.8924 45.7732 50.1576 46.0724C49.4228 46.3716 48.7561 46.8113 48.1965 47.3659C47.63 47.914 47.181 48.5676 46.8759 49.2884C46.5707 50.0092 46.4156 50.7826 46.4196 51.563C46.4174 52.3432 46.5734 53.116 46.8784 53.8365C47.1834 54.5571 47.6315 55.2109 48.1965 55.7601C48.7561 56.3147 49.4228 56.7544 50.1576 57.0536C50.8924 57.3528 51.6806 57.5056 52.4762 57.5029C53.2809 57.5127 54.0794 57.3634 54.824 57.064C55.5687 56.7646 56.2441 56.3211 56.8102 55.7601C57.3752 55.2109 57.8232 54.5571 58.1283 53.8365C58.4333 53.116 58.5893 52.3432 58.5871 51.563C58.5911 50.7826 58.436 50.0092 58.1308 49.2884C57.8257 48.5676 57.3766 47.914 56.8102 47.3659C56.2441 46.8049 55.5687 46.3615 54.824 46.0621C54.0794 45.7627 53.2809 45.6133 52.4762 45.6231Z" fill="#333333"/>
</g>
<defs>
<clipPath id="clip0_1075_171958">
<rect width="30.7059" height="36" fill="white" transform="translate(35 32)"/>
</clipPath>
</defs>
</svg>
