<svg width="56" height="56" viewBox="0 0 56 56" fill="none" xmlns="http://www.w3.org/2000/svg">
<path d="M51.1493 14.1016H4.84375V44.142H51.1493V14.1016Z" fill="white" stroke="#404040" stroke-width="2" stroke-linecap="round" stroke-linejoin="round"/>
<path d="M1 44H55V45.3699C55 47.3748 53.4873 49 51.621 49H4.37898C2.51272 49 1 47.3748 1 45.3699V44Z" fill="#99BAEE" stroke="#404040" stroke-width="2" stroke-linecap="round" stroke-linejoin="round"/>
<path d="M44.9708 5.92188H11.0246C9.93905 5.92188 9.04688 6.80072 9.04688 7.87008V27.1001C9.04688 28.1695 9.93905 29.0483 11.0246 29.0483H29.7976L35.5749 33.8358L34.377 29.0483H44.9645C46.0501 29.0483 46.9423 28.1695 46.9423 27.1001V7.87008C46.9423 6.80072 46.0501 5.92188 44.9645 5.92188H44.9708Z" fill="#30BFC9"/>
<path d="M17.3416 22H19.1176V18.4H22.2736V16.924H19.1176V14.596H22.8136V13.12H17.3416V22ZM23.7611 22H25.5371V13.12H23.7611V22ZM27.1221 22H32.5101V20.512H28.8981V13.12H27.1221V22ZM33.4596 22H39.0396V20.512H35.2356V18.148H38.3436V16.648H35.2356V14.596H38.9076V13.12H33.4596V22Z" fill="white"/>
</svg>
