<svg width="56" height="56" viewBox="0 0 56 56" fill="none" xmlns="http://www.w3.org/2000/svg">
<path d="M40.5499 21.6828C41.2787 24.8106 44.43 26.7637 47.5883 26.0419C50.7467 25.3201 52.7189 22.1994 51.9901 19.0716C51.2612 15.9438 48.11 13.9907 44.9516 14.7125C41.7932 15.4343 39.821 18.555 40.5499 21.6828Z" fill="white" stroke="#003994" stroke-width="2" stroke-linecap="round" stroke-linejoin="round"/>
<path d="M46.2478 26.5156C44.5328 26.5156 42.9536 27.0605 41.6674 27.9946C41.6531 28.0088 41.6317 28.0229 41.6174 28.03C40.9028 28.5536 40.2883 29.1976 39.7953 29.9265L25.7469 45.0914C24.7966 46.1174 24.868 47.7097 25.9041 48.6508C26.39 49.0966 27.0046 49.316 27.6191 49.316C28.3051 49.316 28.991 49.04 29.4912 48.5022L38.4805 38.8004L38.4161 52.3377C38.4161 53.7459 39.5594 54.8923 40.9814 54.8993L51.264 54.9418C52.686 54.9418 53.8436 53.8096 53.8507 52.4013L53.9365 34.1936C53.9508 29.976 50.5137 26.5369 46.2549 26.5227L46.2478 26.5156Z" fill="white" stroke="#003994" stroke-width="2" stroke-linecap="round" stroke-linejoin="round"/>
<path d="M41.2523 28.3516L25.7391 45.0945C24.7887 46.1206 24.8602 47.7128 25.8963 48.6539C26.3822 49.0998 26.9967 49.3191 27.6113 49.3191C28.2972 49.3191 28.9832 49.0432 29.4834 48.5053L42.9744 33.942" fill="white"/>
<path d="M41.2523 28.3516L25.7391 45.0945C24.7887 46.1206 24.8602 47.7128 25.8963 48.654C26.3822 49.0998 26.9967 49.3191 27.6113 49.3191C28.2972 49.3191 28.9832 49.0432 29.4834 48.5053L42.9744 33.942" stroke="#003994" stroke-width="2" stroke-linecap="round" stroke-linejoin="round"/>
<path d="M14.451 21.6828C13.7221 24.8106 10.5709 26.7637 7.41255 26.0419C4.25417 25.3201 2.28198 22.1994 3.01083 19.0716C3.73969 15.9438 6.89091 13.9907 10.0493 14.7125C13.2077 15.4343 15.1799 18.555 14.451 21.6828Z" fill="white" stroke="#003994" stroke-width="2" stroke-linecap="round" stroke-linejoin="round"/>
<path d="M29.2535 45.107L15.2123 29.9422C14.7193 29.2062 14.0976 28.5693 13.3902 28.0457C13.3759 28.0315 13.3544 28.0174 13.3401 28.0103C12.0539 27.0762 10.4747 26.5242 8.75979 26.5313C4.50099 26.5455 1.05679 29.9846 1.07822 34.2022L1.16397 52.41C1.16397 53.8182 2.32871 54.9575 3.75069 54.9504L14.0333 54.908C15.4553 54.908 16.6057 53.7545 16.5986 52.3463L16.5342 38.809L25.5235 48.5108C26.0237 49.0557 26.7096 49.3246 27.3956 49.3246C28.0101 49.3246 28.6247 49.1053 29.1106 48.6594C30.1467 47.7183 30.2181 46.1261 29.2678 45.1L29.2535 45.107Z" fill="white" stroke="#003994" stroke-width="2" stroke-linecap="round" stroke-linejoin="round"/>
<path d="M13.7447 28.3516L29.2579 45.0945C30.2082 46.1206 30.1368 47.7128 29.1007 48.6539C28.6148 49.0998 28.0002 49.3191 27.3857 49.3191C26.6997 49.3191 26.0137 49.0432 25.5135 48.5053L11.9297 33.8358" fill="white"/>
<path d="M13.7447 28.3516L29.2579 45.0945C30.2082 46.1206 30.1368 47.7128 29.1007 48.654C28.6148 49.0998 28.0002 49.3191 27.3857 49.3191C26.6997 49.3191 26.0137 49.0432 25.5135 48.5053L11.9297 33.8358" stroke="#003994" stroke-width="2" stroke-linecap="round" stroke-linejoin="round"/>
<path d="M27.997 1C22.4753 1 18 5.35934 18 10.738C18 13.1969 18.94 15.4428 20.483 17.1532L18 21L22.4458 18.8347C24.0361 19.8713 25.9456 20.476 28.003 20.476C33.5247 20.476 38 16.1166 38 10.738C38 5.35934 33.5188 1 27.997 1Z" fill="#5A88D1" stroke="#5A88D1" stroke-linecap="round" stroke-linejoin="round"/>
</svg>
