<svg width="90" height="90" viewBox="0 0 90 90" fill="none" xmlns="http://www.w3.org/2000/svg">
<circle cx="45" cy="45" r="45" fill="#2F436B"/>
<path d="M49.76 56.1992L52.16 64.9092H36.95L39.36 56.1992" fill="#2F436B"/>
<path d="M49.76 56.1992L52.16 64.9092H36.95L39.36 56.1992" stroke="white" stroke-linecap="round" stroke-linejoin="round"/>
<path d="M28.05 24.25H61.06C63.71 24.25 65.87 26.4 65.87 29.06V52C65.87 54.65 63.72 56.8 61.07 56.8H28.05C25.4 56.8 23.25 54.65 23.25 52V29.05C23.25 26.4 25.4 24.25 28.05 24.25Z" fill="#2F436B" stroke="white" stroke-linecap="round" stroke-linejoin="round"/>
<path d="M52.16 35.3711H45.53V32.3011C45.53 31.5111 44.89 30.8711 44.1 30.8711H37.72C36.93 30.8711 36.29 31.5111 36.29 32.3011V47.2111C36.29 48.0011 36.93 48.6411 37.72 48.6411H52.16C52.95 48.6411 53.59 48.0011 53.59 47.2111V36.8011C53.59 36.0111 52.95 35.3711 52.16 35.3711Z" fill="white"/>
</svg>
