<svg width="100" height="100" viewBox="0 0 100 100" fill="none" xmlns="http://www.w3.org/2000/svg">
<circle cx="50" cy="50" r="50" fill="#F2F6FB"/>
<g clip-path="url(#clip0_1102_180989)">
<path d="M43.2883 24.71L41.4883 26.75V34.27L43.2883 35.84L53.8483 36.05L56.5483 38.55V26.88L54.9183 24.71H43.2883Z" fill="#235AB0"/>
<path d="M30.7786 45.5897L29.5286 41.7597L32.2886 37.4497L35.4886 36.9697L38.3386 37.7097L40.5986 40.7897V44.0797L39.5486 45.6297L39.8786 46.6697L43.5286 49.9597V52.2697L43.7686 58.1597L41.9886 60.2297H40.5986V73.1397L38.6786 75.2497L36.0186 74.7997L35.1886 73.7097L33.7486 74.6297L31.6586 75.2497L29.7286 73.1397L29.5286 60.2697L27.9086 59.9497L26.5586 57.9197V50.4097L31.0286 46.1497L30.7786 45.5897Z" fill="white"/>
<path d="M60.7608 46.3702L59.5108 42.5302L62.2708 38.2202L65.4708 37.7402L68.3108 38.4802L70.5808 41.5602V44.8502L69.5308 46.4002L69.8608 47.4502L73.5108 50.7302V53.0502L73.7508 58.9302L71.9808 61.0002H70.5808V73.9102L68.6608 76.0202L66.0008 75.5702L65.1708 74.4802L63.7308 75.4002L61.6408 76.0202L59.7108 73.9102L59.5108 61.0402L57.8908 60.7202L56.5508 58.6902V51.1802L61.0108 46.9202L60.7608 46.3702Z" fill="white"/>
<path d="M56.4914 39.1001C56.3563 39.0998 56.2268 39.0459 56.1314 38.9502L53.6014 36.5H44.2414C43.3653 36.4974 42.5259 36.1476 41.9073 35.5271C41.2888 34.9066 40.9414 34.0663 40.9414 33.1902V27.3101C40.9414 26.4339 41.2888 25.5936 41.9073 24.9731C42.5259 24.3527 43.3653 24.0026 44.2414 24H53.7214C54.5975 24.0026 55.4369 24.3527 56.0555 24.9731C56.6741 25.5936 57.0214 26.4339 57.0214 27.3101V38.5701C57.0221 38.6741 56.9921 38.7761 56.9352 38.8633C56.8783 38.9504 56.797 39.0188 56.7014 39.0601C56.6349 39.0878 56.5634 39.1015 56.4914 39.1001ZM44.2414 25.1001C43.9464 25.1001 43.6543 25.1583 43.3819 25.2715C43.1095 25.3847 42.8621 25.5507 42.6539 25.7598C42.4458 25.9688 42.281 26.2168 42.169 26.4897C42.0571 26.7627 42.0001 27.0551 42.0014 27.3501V33.23C42.0001 33.525 42.0571 33.8174 42.169 34.0903C42.281 34.3633 42.4458 34.6115 42.6539 34.8206C42.8621 35.0296 43.1095 35.1954 43.3819 35.3086C43.6543 35.4218 43.9464 35.48 44.2414 35.48H53.8214C53.9596 35.4798 54.0923 35.5338 54.1914 35.6301L55.9714 37.3601V27.3601C55.9714 26.7634 55.7344 26.191 55.3124 25.769C54.8904 25.3471 54.3181 25.1101 53.7214 25.1101L44.2414 25.1001Z" fill="#333333"/>
<path d="M29.64 60.8401C28.6746 60.8401 27.7488 60.4566 27.0661 59.7739C26.3835 59.0913 26 58.1656 26 57.2002V51.5701C26.0015 50.9808 26.1331 50.3991 26.3855 49.8667C26.6379 49.3343 27.0048 48.8642 27.46 48.49L30.79 45.6301C30.8384 45.5811 30.896 45.5422 30.9595 45.5156C31.023 45.4891 31.0912 45.4756 31.16 45.4756C31.2288 45.4756 31.297 45.4891 31.3605 45.5156C31.424 45.5422 31.4816 45.5811 31.53 45.6301C31.5756 45.6832 31.6102 45.7448 31.6318 45.8113C31.6535 45.8778 31.6618 45.9479 31.6562 46.0176C31.6506 46.0873 31.6313 46.1553 31.5993 46.2175C31.5674 46.2797 31.5234 46.335 31.47 46.3801L28.14 49.25C27.7984 49.5257 27.5231 49.8746 27.3344 50.271C27.1457 50.6674 27.0485 51.1011 27.05 51.54V57.1702C27.05 57.8544 27.3218 58.5105 27.8057 58.9944C28.2895 59.4782 28.9457 59.75 29.63 59.75C29.7706 59.75 29.9054 59.8059 30.0048 59.9053C30.1042 60.0047 30.16 60.1395 30.16 60.28C30.1641 60.3513 30.1537 60.4226 30.1295 60.4897C30.1053 60.5569 30.0678 60.6186 30.0192 60.6709C29.9707 60.7232 29.9121 60.7651 29.8469 60.7942C29.7817 60.8233 29.7114 60.8389 29.64 60.8401Z" fill="#333333"/>
<path d="M40.671 60.8403C40.6014 60.8403 40.5325 60.8267 40.4682 60.8C40.4039 60.7734 40.3454 60.7343 40.2962 60.685C40.247 60.6358 40.208 60.5775 40.1813 60.5132C40.1547 60.4489 40.141 60.3799 40.141 60.3103C40.141 60.1697 40.1968 60.0349 40.2962 59.9355C40.3956 59.8361 40.5304 59.7803 40.671 59.7803C41.3553 59.7803 42.0115 59.5085 42.4953 59.0246C42.9792 58.5408 43.251 57.8847 43.251 57.2004V51.5703C43.2471 51.1371 43.1495 50.71 42.9648 50.3181C42.78 49.9262 42.5127 49.579 42.181 49.3003L38.861 46.4604C38.8086 46.4155 38.7657 46.3603 38.7348 46.2986C38.7038 46.2368 38.6855 46.1697 38.6809 46.1008C38.6762 46.0319 38.6853 45.9628 38.7077 45.8975C38.73 45.8321 38.7651 45.7718 38.811 45.7202C38.8553 45.6671 38.9097 45.6234 38.971 45.5915C39.0324 45.5597 39.0995 45.5405 39.1684 45.5349C39.2373 45.5293 39.3066 45.5375 39.3723 45.5591C39.438 45.5806 39.4988 45.6151 39.551 45.6604L42.861 48.4902C43.3144 48.8654 43.6794 49.336 43.93 49.8684C44.1806 50.4008 44.3107 50.9819 44.311 51.5703V57.2004C44.3084 58.165 43.924 59.0892 43.2419 59.7712C42.5599 60.4533 41.6356 60.8377 40.671 60.8403Z" fill="#333333"/>
<path d="M40.6003 73.1396C40.5307 73.1396 40.4618 73.126 40.3975 73.0994C40.3332 73.0727 40.2748 73.0336 40.2255 72.9844C40.1763 72.9352 40.1373 72.8768 40.1107 72.8125C40.084 72.7482 40.0703 72.6792 40.0703 72.6096V52.3796C40.0703 52.2391 40.1261 52.1043 40.2255 52.0049C40.3249 51.9055 40.4597 51.8496 40.6003 51.8496C40.7409 51.8496 40.8757 51.9055 40.9751 52.0049C41.0745 52.1043 41.1303 52.2391 41.1303 52.3796V72.6096C41.1303 72.6792 41.1166 72.7482 41.09 72.8125C41.0633 72.8768 41.0243 72.9352 40.9751 72.9844C40.9259 73.0336 40.8674 73.0727 40.8031 73.0994C40.7388 73.126 40.6699 73.1396 40.6003 73.1396Z" fill="#333333"/>
<path d="M32.4783 75.8398C31.6198 75.8372 30.7972 75.495 30.1902 74.8879C29.5831 74.2809 29.2409 73.4583 29.2383 72.5999V52.3699C29.2383 52.3003 29.252 52.2313 29.2786 52.167C29.3053 52.1027 29.3443 52.0443 29.3935 51.9951C29.4427 51.9459 29.5012 51.9068 29.5655 51.8801C29.6298 51.8535 29.6987 51.8398 29.7683 51.8398C29.9098 51.8425 30.0446 51.9005 30.1437 52.0015C30.2428 52.1025 30.2983 52.2384 30.2983 52.3799V54.2197V72.5999C30.3009 73.1772 30.5314 73.7302 30.9397 74.1384C31.348 74.5467 31.9009 74.7772 32.4783 74.7798C33.0556 74.7772 33.6086 74.5467 34.0169 74.1384C34.4251 73.7302 34.6556 73.1772 34.6583 72.5999V61.8799C34.6583 61.8103 34.672 61.7413 34.6986 61.677C34.7253 61.6127 34.7643 61.5543 34.8135 61.5051C34.8627 61.4559 34.9212 61.4168 34.9855 61.3901C35.0498 61.3635 35.1187 61.3499 35.1883 61.3499C35.2579 61.3499 35.3268 61.3635 35.3911 61.3901C35.4554 61.4168 35.5138 61.4559 35.563 61.5051C35.6123 61.5543 35.6513 61.6127 35.6779 61.677C35.7046 61.7413 35.7183 61.8103 35.7183 61.8799V72.5999C35.7156 73.4583 35.3734 74.2809 34.7664 74.8879C34.1593 75.495 33.3368 75.8372 32.4783 75.8398Z" fill="#333333"/>
<path d="M35.1914 48.3301C33.6001 48.3301 32.074 47.698 30.9488 46.5728C29.8235 45.4475 29.1914 43.9214 29.1914 42.3301C29.1914 40.7388 29.8235 39.2126 30.9488 38.0874C32.074 36.9622 33.6001 36.3301 35.1914 36.3301C36.7827 36.3301 38.3088 36.9622 39.434 38.0874C40.5593 39.2126 41.1914 40.7388 41.1914 42.3301C41.1914 43.9214 40.5593 45.4475 39.434 46.5728C38.3088 47.698 36.7827 48.3301 35.1914 48.3301ZM35.1914 37.4502C33.8883 37.4502 32.6384 37.9672 31.716 38.8877C30.7936 39.8082 30.2741 41.057 30.2714 42.3601C30.2741 43.6632 30.7936 44.912 31.716 45.8325C32.6384 46.753 33.8883 47.27 35.1914 47.27C36.4936 47.27 37.7425 46.7528 38.6633 45.832C39.5841 44.9112 40.1014 43.6623 40.1014 42.3601C40.1014 41.0579 39.5841 39.809 38.6633 38.8882C37.7425 37.9674 36.4936 37.4502 35.1914 37.4502Z" fill="#333333"/>
<path d="M37.9002 75.8401C37.0417 75.8375 36.2191 75.4952 35.612 74.8882C35.005 74.2811 34.6628 73.4586 34.6602 72.6001V70.3201C34.6602 70.1795 34.716 70.0447 34.8154 69.9453C34.9148 69.8459 35.0496 69.79 35.1902 69.79C35.3307 69.79 35.4655 69.8459 35.5649 69.9453C35.6643 70.0447 35.7202 70.1795 35.7202 70.3201V72.6001C35.7202 73.1783 35.9498 73.7328 36.3587 74.1416C36.7675 74.5504 37.322 74.78 37.9002 74.78C38.4775 74.7774 39.0305 74.5469 39.4387 74.1387C39.847 73.7304 40.0775 73.1775 40.0802 72.6001C40.0802 72.5305 40.0939 72.4615 40.1205 72.3972C40.1471 72.3329 40.1862 72.2746 40.2354 72.2253C40.2846 72.1761 40.343 72.137 40.4073 72.1104C40.4716 72.0837 40.5406 72.0701 40.6102 72.0701C40.6793 72.0701 40.7477 72.0838 40.8115 72.1106C40.8752 72.1374 40.933 72.1765 40.9814 72.2258C41.0299 72.2752 41.0679 72.3337 41.0935 72.3979C41.119 72.4622 41.1315 72.531 41.1302 72.6001C41.1302 73.4577 40.7902 74.2804 40.1847 74.8877C39.5793 75.495 38.7577 75.8374 37.9002 75.8401Z" fill="#333333"/>
<path d="M59.5988 61.6997C58.6351 61.6971 57.7118 61.3122 57.0313 60.6299C56.3509 59.9475 55.9687 59.0232 55.9688 58.0596V52.4297C55.969 51.8413 56.0991 51.2599 56.3497 50.7275C56.6004 50.1952 56.9654 49.7247 57.4188 49.3496L60.7488 46.4895C60.7971 46.4405 60.8547 46.4018 60.9182 46.3752C60.9818 46.3487 61.0499 46.335 61.1188 46.335C61.1876 46.335 61.2557 46.3487 61.3193 46.3752C61.3828 46.4018 61.4404 46.4405 61.4888 46.4895C61.5859 46.5902 61.6402 46.7246 61.6402 46.8645C61.6402 47.0044 61.5859 47.1388 61.4888 47.2395L58.1488 50.1096C57.8105 50.3832 57.5379 50.7292 57.351 51.1221C57.1641 51.5149 57.0676 51.9446 57.0688 52.3796V58.0095C57.0688 58.6938 57.3406 59.3501 57.8244 59.834C58.3083 60.3178 58.9645 60.5896 59.6488 60.5896C59.7893 60.5896 59.9241 60.6455 60.0235 60.7449C60.1229 60.8443 60.1788 60.9791 60.1788 61.1196C60.1865 61.1977 60.1769 61.2764 60.1505 61.3503C60.1241 61.4243 60.0816 61.4914 60.0261 61.5469C59.9706 61.6024 59.9035 61.645 59.8296 61.6714C59.7557 61.6978 59.6768 61.7075 59.5988 61.6997Z" fill="#333333"/>
<path d="M70.6316 61.6997C70.491 61.6997 70.3562 61.6438 70.2568 61.5444C70.1574 61.445 70.1016 61.3102 70.1016 61.1697C70.1016 61.0291 70.1574 60.8943 70.2568 60.7949C70.3562 60.6955 70.491 60.6396 70.6316 60.6396C71.3158 60.6396 71.9721 60.3678 72.4559 59.884C72.9398 59.4002 73.2116 58.7438 73.2116 58.0595V52.4297C73.2125 51.9957 73.117 51.5669 72.9319 51.1743C72.7469 50.7817 72.4769 50.4351 72.1416 50.1596L68.8316 47.3196C68.7785 47.2753 68.7347 47.221 68.7029 47.1596C68.6711 47.0983 68.6518 47.031 68.6462 46.9621C68.6406 46.8932 68.6489 46.824 68.6704 46.7583C68.6919 46.6926 68.7263 46.6318 68.7716 46.5796C68.8167 46.5261 68.872 46.4821 68.9342 46.4502C68.9964 46.4182 69.0644 46.3989 69.1341 46.3933C69.2038 46.3877 69.2739 46.396 69.3404 46.4177C69.4069 46.4394 69.4685 46.4739 69.5216 46.5195L72.8216 49.3496C73.2749 49.7247 73.64 50.1951 73.8906 50.7275C74.1412 51.2599 74.2713 51.8412 74.2716 52.4297V58.0595C74.2716 59.0249 73.8881 59.9509 73.2054 60.6335C72.5228 61.3161 71.597 61.6997 70.6316 61.6997Z" fill="#333333"/>
<path d="M70.5691 74.0303C70.4285 74.0303 70.2937 73.9744 70.1943 73.875C70.0949 73.7756 70.0391 73.6408 70.0391 73.5002V53.2703C70.0391 53.1297 70.0949 52.9949 70.1943 52.8955C70.2937 52.7961 70.4285 52.7402 70.5691 52.7402C70.6382 52.7402 70.7066 52.754 70.7704 52.7808C70.8341 52.8075 70.8919 52.8469 70.9403 52.8962C70.9888 52.9456 71.0269 53.0041 71.0524 53.0684C71.0779 53.1326 71.0904 53.2011 71.0891 53.2703V73.5002C71.0904 73.5694 71.0779 73.6381 71.0524 73.7024C71.0269 73.7666 70.9888 73.8252 70.9403 73.8745C70.8919 73.9239 70.8341 73.963 70.7704 73.9897C70.7066 74.0165 70.6382 74.0303 70.5691 74.0303Z" fill="#333333"/>
<path d="M62.4409 76.7402C61.5834 76.7376 60.7618 76.3952 60.1564 75.7878C59.5509 75.1805 59.2109 74.3578 59.2109 73.5002V53.2703C59.2159 53.1313 59.2733 52.9995 59.3717 52.9011C59.47 52.8028 59.602 52.7452 59.7409 52.7402C59.8815 52.7402 60.0163 52.7961 60.1157 52.8955C60.2151 52.9949 60.2709 53.1297 60.2709 53.2703V73.5002C60.2709 74.0767 60.4992 74.6298 60.9059 75.0383C61.3126 75.4469 61.8645 75.6778 62.4409 75.6804C63.0191 75.6804 63.5736 75.4506 63.9824 75.0417C64.3913 74.6329 64.6209 74.0784 64.6209 73.5002V62.7803C64.6209 62.6397 64.6768 62.5049 64.7762 62.4055C64.8756 62.3061 65.0104 62.2502 65.1509 62.2502C65.2915 62.2502 65.4263 62.3061 65.5257 62.4055C65.6251 62.5049 65.6809 62.6397 65.6809 62.7803V73.5002C65.6783 74.3587 65.3361 75.1813 64.729 75.7883C64.122 76.3954 63.2994 76.7376 62.4409 76.7402Z" fill="#333333"/>
<path d="M65.1484 49.2197C63.5571 49.2197 62.031 48.5876 60.9058 47.4624C59.7806 46.3372 59.1484 44.811 59.1484 43.2197C59.1484 41.6284 59.7806 40.1025 60.9058 38.9773C62.031 37.8521 63.5571 37.2197 65.1484 37.2197C66.7397 37.2197 68.2659 37.8521 69.3911 38.9773C70.5163 40.1025 71.1484 41.6284 71.1484 43.2197C71.1484 44.811 70.5163 46.3372 69.3911 47.4624C68.2659 48.5876 66.7397 49.2197 65.1484 49.2197ZM65.1484 38.3398C63.8462 38.3398 62.5973 38.857 61.6765 39.7778C60.7557 40.6986 60.2384 41.9475 60.2384 43.2498C60.2384 44.552 60.7557 45.8009 61.6765 46.7217C62.5973 47.6425 63.8462 48.1599 65.1484 48.1599C66.4507 48.1599 67.6995 47.6425 68.6203 46.7217C69.5411 45.8009 70.0584 44.552 70.0584 43.2498C70.0584 41.9475 69.5411 40.6986 68.6203 39.7778C67.6995 38.857 66.4507 38.3398 65.1484 38.3398Z" fill="#333333"/>
<path d="M67.8611 76.7402C67.0026 76.7376 66.18 76.3954 65.573 75.7883C64.9659 75.1813 64.6237 74.3587 64.6211 73.5002V71.2202C64.6211 71.1506 64.6348 71.0819 64.6614 71.0176C64.6881 70.9533 64.7271 70.8947 64.7763 70.8455C64.8255 70.7962 64.884 70.7573 64.9483 70.7307C65.0126 70.7041 65.0815 70.6904 65.1511 70.6904C65.2207 70.6904 65.2896 70.7041 65.3539 70.7307C65.4182 70.7573 65.4766 70.7962 65.5259 70.8455C65.5751 70.8947 65.6141 70.9533 65.6408 71.0176C65.6674 71.0819 65.6811 71.1506 65.6811 71.2202V73.5002C65.6837 74.0776 65.9142 74.6306 66.3225 75.0388C66.7308 75.4471 67.2837 75.6778 67.8611 75.6804C68.4385 75.6778 68.9914 75.4471 69.3997 75.0388C69.8079 74.6306 70.0385 74.0776 70.0411 73.5002C70.0411 73.3597 70.0969 73.2249 70.1963 73.1255C70.2957 73.0261 70.4305 72.9702 70.5711 72.9702C70.7117 72.9702 70.8465 73.0261 70.9459 73.1255C71.0453 73.2249 71.1011 73.3597 71.1011 73.5002C71.0985 74.3587 70.7563 75.1813 70.1492 75.7883C69.5422 76.3954 68.7196 76.7376 67.8611 76.7402Z" fill="#333333"/>
</g>
<defs>
<clipPath id="clip0_1102_180989">
<rect width="48.27" height="52.73" fill="white" transform="translate(26 24)"/>
</clipPath>
</defs>
</svg>
