<svg width="16" height="16" viewBox="0 0 16 16" fill="none" xmlns="http://www.w3.org/2000/svg">
<circle cx="8" cy="8" r="8" fill="#E60021"/>
<g clip-path="url(#clip0_1928_15978)">
<path d="M7.99384 10.8945C7.43624 10.8945 7 11.3588 7 11.9539C7 12.5489 7.43624 13.0003 7.99384 13.0003C8.55145 13.0003 9 12.5415 9 11.9539C9 11.3662 8.55849 10.8945 7.99384 10.8945V10.8945Z" fill="white"/>
<path d="M7.22136 9.72439C7.22136 9.86072 7.23895 9.95284 7.27765 10.0136C7.30404 10.0707 7.36385 10.115 7.4518 10.115H8.4087C8.62858 10.115 8.67255 10.0726 8.69366 10.0523C8.73588 10.0136 8.74643 9.97126 8.75874 9.92336C8.76226 9.90862 8.76578 9.89388 8.76578 9.87915L8.94696 3.52321C8.95575 3.2874 8.95927 3.16949 8.87836 3.08106C8.80272 3 8.69718 3 8.57581 3H7.42541C7.3058 3 7.19146 3 7.11406 3.08475C7.02787 3.1787 7.03139 3.31503 7.03843 3.52321L7.22136 9.72439Z" fill="white"/>
</g>
<defs>
<clipPath id="clip0_1928_15978">
<rect width="2" height="10" fill="white" transform="translate(7 3)"/>
</clipPath>
</defs>
</svg>
