<svg width="32" height="32" viewBox="0 0 32 32" fill="none" xmlns="http://www.w3.org/2000/svg">
<path d="M20.7141 12.1304H9.87038L8.88037 18.083H11.3631C13.0956 18.083 14.6503 19.1581 15.2922 20.7945C15.9419 19.1581 17.4965 18.083 19.2213 18.083H21.7041L20.7141 12.1304Z" fill="white" stroke="#333333" stroke-linecap="round" stroke-linejoin="round"/>
<path d="M26.5923 12.1305L15.2923 15.2609L4 12.1305L15.2923 9L26.5923 12.1305Z" fill="white" stroke="#333333" stroke-linecap="round" stroke-linejoin="round"/>
<path d="M26.5923 12.1304V20.1225" stroke="#333333" stroke-linecap="round" stroke-linejoin="round"/>
<path d="M26.5922 23C27.3697 23 27.9999 22.3559 27.9999 21.5613C27.9999 20.7667 27.3697 20.1226 26.5922 20.1226C25.8148 20.1226 25.1846 20.7667 25.1846 21.5613C25.1846 22.3559 25.8148 23 26.5922 23Z" fill="#003994" stroke="#333333" stroke-linecap="round" stroke-linejoin="round"/>
</svg>
