<svg width="100" height="100" viewBox="0 0 100 100" fill="none" xmlns="http://www.w3.org/2000/svg">
<circle cx="50" cy="50" r="50" fill="#F2F6FB"/>
<g clip-path="url(#clip0_1075_171951)">
<path d="M35.8359 62.6581V30.7031H64.3259V68.7831H43.4193L35.8359 62.6581Z" fill="white"/>
<path d="M31.9396 45.801L30.668 44.3193L33.118 42.3477L34.553 43.4093L31.9396 45.801Z" fill="#235AB0"/>
<path d="M33.4668 47.1535L35.8585 44.7969L46.2885 55.2619L46.5918 56.0202L44.2585 58.0269L33.4668 47.1535Z" fill="#235AB0"/>
<path d="M63.4515 47.2578L61.3398 49.3578L67.6165 55.7395H69.0282L69.9498 55.1095V53.6628L63.4515 47.2578Z" fill="#235AB0"/>
<path d="M36.3726 41.7767C36.2312 41.7737 36.0964 41.716 35.9964 41.616C35.8964 41.516 35.8389 41.3814 35.8359 41.24V30.74C35.8359 30.5977 35.8925 30.461 35.9931 30.3604C36.0938 30.2597 36.2303 30.2031 36.3726 30.2031H63.8009C63.9433 30.2031 64.0798 30.2597 64.1804 30.3604C64.281 30.461 64.3376 30.5977 64.3376 30.74V36.27C64.3345 36.4103 64.2767 36.5439 64.1763 36.642C64.076 36.7401 63.9413 36.795 63.8009 36.795C63.6606 36.795 63.5258 36.7401 63.4255 36.642C63.3252 36.5439 63.2673 36.4103 63.2643 36.27V31.2767H36.9093V41.2748C36.9004 41.411 36.8399 41.5388 36.7402 41.632C36.6405 41.7252 36.5091 41.7769 36.3726 41.7767Z" fill="#333333"/>
<path d="M63.8009 70.0229H43.1976C43.0586 70.0204 42.9256 69.9662 42.8243 69.8711L35.9993 63.0463C35.8961 62.9445 35.8374 62.806 35.8359 62.6612V53.783C35.8389 53.6416 35.8964 53.5067 35.9964 53.4067C36.0964 53.3067 36.2312 53.2491 36.3726 53.2461C36.5149 53.2461 36.6515 53.3027 36.7521 53.4033C36.8527 53.504 36.9093 53.6407 36.9093 53.783V62.4396L43.4193 68.9613H63.2526V54.3079C63.2556 54.1665 63.3131 54.0317 63.4131 53.9317C63.5131 53.8317 63.6479 53.7743 63.7893 53.7713C63.9307 53.7743 64.0654 53.8317 64.1654 53.9317C64.2655 54.0317 64.3229 54.1665 64.3259 54.3079V69.4746C64.3275 69.5451 64.3151 69.6151 64.2896 69.6808C64.264 69.7465 64.2258 69.8065 64.177 69.8574C64.1283 69.9083 64.07 69.9492 64.0054 69.9776C63.9409 70.006 63.8714 70.0214 63.8009 70.0229Z" fill="#333333"/>
<path d="M43.1971 70.0195C43.1279 70.0207 43.0591 70.0079 42.9949 69.9819C42.9308 69.9558 42.8725 69.9168 42.8238 69.8676L35.9988 63.0428C35.924 62.9679 35.873 62.8726 35.8522 62.7688C35.8315 62.665 35.8419 62.5574 35.8821 62.4595C35.9225 62.3619 35.9903 62.278 36.0772 62.2179C36.1641 62.1579 36.2665 62.1243 36.3721 62.1211H43.2671C43.412 62.1225 43.5504 62.1811 43.6521 62.2843C43.7492 62.3843 43.8036 62.5183 43.8038 62.6577V69.4828C43.8053 69.5894 43.7751 69.694 43.7169 69.7833C43.6587 69.8727 43.5752 69.9427 43.4771 69.9844C43.3873 70.016 43.2919 70.0279 43.1971 70.0195ZM37.6671 63.1943L42.6721 68.1994V63.1943H37.6671Z" fill="#333333"/>
<path d="M68.4443 56.3931C68.1758 56.3946 67.9097 56.3426 67.6614 56.2405C67.4131 56.1383 67.1875 55.9881 66.9977 55.7981L61.1643 49.9648C61.0853 49.8896 61.0223 49.799 60.9793 49.6988C60.9363 49.5985 60.9141 49.4906 60.9141 49.3815C60.9141 49.2724 60.9363 49.1642 60.9793 49.0639C61.0223 48.9636 61.0853 48.8733 61.1643 48.7981L62.8793 47.0715C63.0359 46.9204 63.245 46.8359 63.4627 46.8359C63.6803 46.8359 63.8894 46.9204 64.046 47.0715L69.8793 52.9048C70.0692 53.0946 70.2196 53.3202 70.3218 53.5685C70.4239 53.8168 70.4758 54.083 70.4743 54.3515C70.4758 54.62 70.4239 54.8859 70.3218 55.1342C70.2196 55.3825 70.0692 55.6083 69.8793 55.7981C69.4988 56.1789 68.9826 56.3929 68.4443 56.3931ZM62.086 49.3931L67.756 55.063C67.9408 55.2412 68.1876 55.341 68.4443 55.341C68.7011 55.341 68.9478 55.2412 69.1327 55.063C69.2234 54.9731 69.295 54.866 69.3432 54.7477C69.3913 54.6294 69.4149 54.5025 69.4127 54.3748C69.4143 54.2472 69.3903 54.1205 69.3422 54.0023C69.2942 53.8841 69.2229 53.7767 69.1327 53.6864L63.4627 48.0163L62.086 49.3931Z" fill="#333333"/>
<path d="M61.7245 49.5236C61.6544 49.524 61.5848 49.5099 61.5205 49.4817C61.4562 49.4536 61.3985 49.4122 61.3512 49.3604L60.0445 48.0536C59.9952 48.0048 59.9559 47.9468 59.9292 47.8827C59.9024 47.8186 59.8887 47.7499 59.8887 47.6805C59.8887 47.611 59.9024 47.542 59.9292 47.4779C59.9559 47.4139 59.9952 47.3559 60.0445 47.307C60.1452 47.2066 60.2815 47.1501 60.4237 47.1501C60.5659 47.1501 60.7023 47.2066 60.8029 47.307L61.7245 48.2288L62.3195 47.6337L61.3862 46.712C61.2858 46.6114 61.2293 46.4751 61.2293 46.3329C61.2293 46.1907 61.2858 46.0542 61.3862 45.9535C61.4868 45.8531 61.6232 45.7969 61.7654 45.7969C61.9076 45.7969 62.0439 45.8531 62.1445 45.9535L63.4512 47.2603C63.5015 47.3083 63.541 47.3663 63.5672 47.4307C63.5933 47.495 63.6055 47.5643 63.6029 47.6337C63.6043 47.7048 63.5917 47.7753 63.5656 47.8414C63.5396 47.9075 63.5007 47.9676 63.4512 48.0186L62.0979 49.3604C62.0506 49.4122 61.9928 49.4536 61.9285 49.4817C61.8642 49.5099 61.7947 49.524 61.7245 49.5236Z" fill="#333333"/>
<path d="M56.1007 49.6741C55.0969 49.6768 54.1025 49.4801 53.1753 49.0956C52.248 48.7111 51.4063 48.1462 50.699 47.4339C49.9867 46.7266 49.422 45.8851 49.0374 44.9578C48.6529 44.0306 48.4563 43.0362 48.4591 42.0323C48.4548 41.0266 48.6506 40.0299 49.0352 39.1006C49.4197 38.1712 49.9853 37.3275 50.699 36.6188C51.4063 35.9065 52.248 35.3419 53.1753 34.9574C54.1025 34.5729 55.0969 34.3762 56.1007 34.3789C57.1063 34.376 58.1025 34.5724 59.0317 34.9569C59.9609 35.3414 60.8046 35.9062 61.5141 36.6188C62.2257 37.3291 62.7899 38.173 63.1743 39.102C63.5587 40.031 63.7557 41.0269 63.754 42.0323C63.7542 43.0358 63.5564 44.0292 63.1721 44.9561C62.7877 45.883 62.2243 46.725 61.5141 47.4339C60.8046 48.1465 59.9609 48.7117 59.0317 49.0961C58.1025 49.4806 57.1063 49.677 56.1007 49.6741ZM56.1007 35.4522C55.2338 35.4455 54.3743 35.6126 53.5728 35.9432C52.7713 36.2738 52.0442 36.7614 51.434 37.3774C50.8181 37.9875 50.3305 38.7147 49.9999 39.5161C49.6693 40.3176 49.5024 41.1771 49.509 42.044C49.5024 42.911 49.6693 43.7704 49.9999 44.5719C50.3305 45.3733 50.8181 46.1006 51.434 46.7107C52.0442 47.3266 52.7713 47.8142 53.5728 48.1448C54.3743 48.4754 55.2338 48.6422 56.1007 48.6356C56.9675 48.6409 57.8266 48.4736 58.6278 48.1431C59.4291 47.8126 60.1565 47.3256 60.7674 46.7107C61.3812 46.099 61.8674 45.3716 62.1979 44.5705C62.5283 43.7694 62.6964 42.9106 62.6924 42.044C62.6964 41.1775 62.5283 40.3187 62.1979 39.5176C61.8674 38.7165 61.3812 37.989 60.7674 37.3774C60.1565 36.7625 59.4291 36.2755 58.6278 35.9449C57.8266 35.6144 56.9675 35.4468 56.1007 35.4522Z" fill="#333333"/>
<path d="M47.5719 38.6048H40.5719C40.4316 38.6017 40.2981 38.5439 40.1999 38.4436C40.1018 38.3432 40.0468 38.2082 40.0469 38.0679C40.0468 37.9275 40.1018 37.7928 40.1999 37.6925C40.2981 37.5921 40.4316 37.5343 40.5719 37.5312H47.5719C47.7142 37.5312 47.8507 37.5878 47.9514 37.6885C48.052 37.7891 48.1085 37.9255 48.1085 38.0679C48.1085 38.2102 48.052 38.3469 47.9514 38.4476C47.8507 38.5482 47.7142 38.6048 47.5719 38.6048Z" fill="#333333"/>
<path d="M46.6034 43.4561H40.5251C40.4552 43.4561 40.386 43.4422 40.3215 43.4151C40.257 43.388 40.1986 43.3483 40.1497 43.2983C40.1008 43.2483 40.0624 43.189 40.0367 43.124C40.011 43.0589 39.9986 42.9894 40.0001 42.9195C40.0001 42.7802 40.0554 42.6468 40.1539 42.5483C40.2523 42.4499 40.3859 42.3945 40.5251 42.3945H46.6034C46.7438 42.3945 46.8786 42.4494 46.9789 42.5475C47.0792 42.6456 47.1371 42.7792 47.1401 42.9195C47.1401 43.0618 47.0836 43.1982 46.9829 43.2989C46.8823 43.3995 46.7458 43.4561 46.6034 43.4561Z" fill="#333333"/>
<path d="M47.5719 48.2298H40.5719C40.4316 48.2267 40.2981 48.1689 40.1999 48.0686C40.1018 47.9682 40.0468 47.8332 40.0469 47.6929C40.0468 47.5525 40.1018 47.4178 40.1999 47.3175C40.2981 47.2171 40.4316 47.1593 40.5719 47.1562H47.5719C47.7142 47.1562 47.8507 47.2128 47.9514 47.3135C48.052 47.4141 48.1085 47.5505 48.1085 47.6929C48.1085 47.8352 48.052 47.9719 47.9514 48.0725C47.8507 48.1732 47.7142 48.2298 47.5719 48.2298Z" fill="#333333"/>
<path d="M59.6016 53.0344H46.5583C46.4874 53.0359 46.4169 53.0232 46.3511 52.9968C46.2852 52.9703 46.2254 52.931 46.1753 52.8808C46.1251 52.8307 46.0857 52.7709 46.0592 52.7051C46.0328 52.6393 46.02 52.5686 46.0216 52.4977C46.0216 52.4278 46.0356 52.3585 46.0627 52.2941C46.0898 52.2296 46.1295 52.1712 46.1795 52.1223C46.2295 52.0734 46.2888 52.0349 46.3538 52.0092C46.4188 51.9836 46.4884 51.9712 46.5583 51.9728H59.6016C59.742 51.9728 59.8767 52.0276 59.977 52.1257C60.0774 52.2239 60.1352 52.3574 60.1383 52.4977C60.1383 52.6401 60.0817 52.7765 59.9811 52.8771C59.8805 52.9778 59.744 53.0344 59.6016 53.0344Z" fill="#333333"/>
<path d="M59.6013 57.8548H49.5679C49.4276 57.8517 49.2941 57.7939 49.196 57.6936C49.0979 57.5932 49.0429 57.4582 49.043 57.3179C49.0429 57.1775 49.0979 57.0428 49.196 56.9425C49.2941 56.8421 49.4276 56.7843 49.5679 56.7812H59.6013C59.7427 56.7842 59.8775 56.8419 59.9775 56.9419C60.0775 57.0419 60.135 57.1765 60.1379 57.3179C60.135 57.4593 60.0775 57.5941 59.9775 57.6941C59.8775 57.7941 59.7427 57.8518 59.6013 57.8548Z" fill="#333333"/>
<path d="M59.6018 62.6592H47.9351C47.7928 62.6592 47.6563 62.6026 47.5556 62.502C47.455 62.4013 47.3984 62.2649 47.3984 62.1226C47.4015 61.9823 47.4594 61.8487 47.5597 61.7506C47.66 61.6525 47.7948 61.5976 47.9351 61.5977H59.6018C59.7421 61.5976 59.8769 61.6525 59.9772 61.7506C60.0775 61.8487 60.1354 61.9823 60.1384 62.1226C60.1384 62.2649 60.0819 62.4013 59.9812 62.502C59.8806 62.6026 59.7441 62.6592 59.6018 62.6592Z" fill="#333333"/>
<path d="M47.269 59.2433H47.1641L44.0957 58.6483C43.994 58.6303 43.9003 58.5813 43.8274 58.5081L33.0241 47.7048C32.9236 47.6042 32.8672 47.4679 32.8672 47.3257C32.8672 47.1835 32.9236 47.0472 33.0241 46.9466L35.4974 44.4848C35.598 44.3843 35.7344 44.3281 35.8766 44.3281C36.0187 44.3281 36.1551 44.3843 36.2557 44.4848L47.0474 55.2764C47.1245 55.3527 47.1773 55.4504 47.1991 55.5567L47.7941 58.6249C47.8097 58.711 47.804 58.7996 47.7776 58.883C47.7511 58.9663 47.7047 59.0418 47.6424 59.1031C47.5405 59.196 47.4069 59.2463 47.269 59.2433ZM44.4691 57.6215L46.5924 58.0299L46.1841 55.9065L35.8707 45.605L34.1557 47.32L44.4691 57.6215Z" fill="#333333"/>
<path d="M32.1727 46.6184C32.0278 46.617 31.8894 46.5584 31.7877 46.4552L30.3294 44.9969C30.2772 44.9473 30.2358 44.8874 30.2077 44.8211C30.1796 44.7549 30.1654 44.6837 30.166 44.6118C30.167 44.5418 30.182 44.4728 30.21 44.4087C30.2381 44.3446 30.2787 44.2866 30.3294 44.2384L32.8027 41.7652C32.8515 41.7158 32.9097 41.6766 32.9738 41.6498C33.0378 41.6231 33.1066 41.6094 33.1761 41.6094C33.2455 41.6094 33.3142 41.6231 33.3783 41.6498C33.4424 41.6766 33.5006 41.7158 33.5494 41.7652L35.0194 43.2352C35.0697 43.2831 35.1092 43.3412 35.1354 43.4055C35.1615 43.4699 35.1737 43.5389 35.171 43.6083C35.1725 43.6793 35.1598 43.7502 35.1338 43.8162C35.1078 43.8823 35.0689 43.9425 35.0194 43.9934L32.546 46.4552C32.4978 46.5059 32.44 46.5465 32.3759 46.5745C32.3117 46.6026 32.2427 46.6174 32.1727 46.6184ZM31.4611 44.6118L32.1727 45.3236L33.8877 43.6083L33.1761 42.8968L31.4611 44.6118Z" fill="#333333"/>
<path d="M39.102 51.0732C38.9572 51.0717 38.8188 51.0128 38.7171 50.9097L34.2604 46.4532C34.1599 46.3526 34.1035 46.2163 34.1035 46.0741C34.1035 45.9319 34.1599 45.7953 34.2604 45.6947C34.3638 45.5996 34.4991 45.5469 34.6396 45.5469C34.78 45.5469 34.9153 45.5996 35.0187 45.6947L39.4754 50.1631C39.5248 50.212 39.564 50.2702 39.5907 50.3343C39.6175 50.3984 39.6313 50.4671 39.6313 50.5365C39.6313 50.606 39.6175 50.6747 39.5907 50.7388C39.564 50.8029 39.5248 50.8608 39.4754 50.9097C39.3765 51.01 39.2429 51.0687 39.102 51.0732Z" fill="#333333"/>
<path d="M44.2001 58.6213C44.1309 58.6225 44.0621 58.6098 43.9979 58.5837C43.9338 58.5577 43.8756 58.519 43.8268 58.4698C43.7263 58.3692 43.6699 58.2326 43.6699 58.0904C43.6699 57.9482 43.7263 57.8119 43.8268 57.7113L46.3001 55.2381C46.3489 55.1887 46.4071 55.1495 46.4712 55.1228C46.5352 55.096 46.604 55.082 46.6735 55.082C46.7429 55.082 46.8116 55.096 46.8757 55.1228C46.9398 55.1495 46.9979 55.1887 47.0468 55.2381C47.1472 55.3387 47.2036 55.475 47.2036 55.6172C47.2036 55.7594 47.1472 55.8957 47.0468 55.9963L44.5851 58.4698C44.5342 58.5193 44.4739 58.558 44.4078 58.584C44.3417 58.6101 44.2711 58.6228 44.2001 58.6213Z" fill="#333333"/>
</g>
<defs>
<clipPath id="clip0_1075_171951">
<rect width="40.32" height="39.8533" fill="white" transform="translate(30.166 30.168)"/>
</clipPath>
</defs>
</svg>
