<svg width="90" height="90" viewBox="0 0 90 90" fill="none" xmlns="http://www.w3.org/2000/svg">
<circle cx="45" cy="45" r="45" fill="#FAFAFA"/>
<g clip-path="url(#clip0_1080_171993)">
<path d="M34.3301 21.042L35.8141 21.563L39.9584 20.371L41.5135 20.8368V25.51L39.8006 25.0048L37.2271 25.6994L35.6563 25.9283L34.3301 24.9653V21.042Z" fill="white"/>
<path d="M22.498 69.3606V42.5687L23.319 40.9346H24.6926V37.4298L28.1343 33.2855L31.655 32.7487L31.2287 30.1358L31.9549 29.3385H36.7702L37.4254 30.0174V32.6855L40.5593 33.4828L43.2669 36.1825L43.9063 38.4244V41.1794L45.6588 41.4635L46.3771 42.5687L46.1798 46.0025L43.5511 53.3754L52.558 54.3227H53.158L53.4343 52.965H56.1813V54.3227L66.3882 53.2965V63.2665L65.7961 64.5374H48.3348L46.6534 64.569L46.2587 66.0452L46.2192 69.3606H22.498Z" fill="white"/>
<path d="M42.3574 52.965V46.5946L43.3836 46.1999L65.9523 46.0578L67.2785 46.8235L67.1127 53.0518L64.7761 53.8175L56.1796 54.3227L56.1718 52.815L53.4326 52.965L53.3457 54.3227L46.8648 53.8491L42.3574 52.965Z" fill="#235AB0"/>
<path d="M28.1336 50.9915H27.2969V52.2466H28.1336V50.9915Z" fill="#235AB0"/>
<path d="M28.1336 47.0445H27.2969V48.2996H28.1336V47.0445Z" fill="#235AB0"/>
<path d="M32.7918 50.9915H31.9551V52.2466H32.7918V50.9915Z" fill="#235AB0"/>
<path d="M32.7918 47.0445H31.9551V48.2996H32.7918V47.0445Z" fill="#235AB0"/>
<path d="M28.1336 62.6429H27.2969V63.898H28.1336V62.6429Z" fill="#235AB0"/>
<path d="M28.1336 58.6959H27.2969V59.9511H28.1336V58.6959Z" fill="#235AB0"/>
<path d="M28.1336 54.9227H27.2969V56.1778H28.1336V54.9227Z" fill="#235AB0"/>
<path d="M32.7918 62.6429H31.9551V63.898H32.7918V62.6429Z" fill="#235AB0"/>
<path d="M32.7918 58.6959H31.9551V59.9511H32.7918V58.6959Z" fill="#235AB0"/>
<path d="M32.7918 54.9227H31.9551V56.1778H32.7918V54.9227Z" fill="#235AB0"/>
<path d="M37.8426 50.9915H37.0059V52.2466H37.8426V50.9915Z" fill="#235AB0"/>
<path d="M37.8426 47.0445H37.0059V48.2996H37.8426V47.0445Z" fill="#235AB0"/>
<path d="M37.8426 62.6429H37.0059V63.898H37.8426V62.6429Z" fill="#235AB0"/>
<path d="M37.8426 58.6959H37.0059V59.9511H37.8426V58.6959Z" fill="#235AB0"/>
<path d="M37.8426 54.9227H37.0059V56.1778H37.8426V54.9227Z" fill="#235AB0"/>
<path d="M46.2343 70H22.4184C22.3074 70 22.201 69.9558 22.1225 69.8774C22.0441 69.7989 22 69.6925 22 69.5816V43.0107C22 42.4162 22.2362 41.8458 22.6566 41.4254C23.0771 41.005 23.6473 40.7688 24.2419 40.7688H44.4108C45.0054 40.7688 45.5756 41.005 45.996 41.4254C46.4165 41.8458 46.6527 42.4162 46.6527 43.0107V46.0263C46.6527 46.1372 46.6086 46.2436 46.5301 46.3221C46.4517 46.4006 46.3453 46.4447 46.2343 46.4447C46.1233 46.4447 46.0169 46.4006 45.9384 46.3221C45.86 46.2436 45.8159 46.1372 45.8159 46.0263V43.0107C45.8159 42.6381 45.6679 42.2808 45.4044 42.0173C45.1409 41.7537 44.7835 41.6056 44.4108 41.6056H24.2419C23.8692 41.6056 23.5118 41.7537 23.2483 42.0173C22.9848 42.2808 22.8368 42.6381 22.8368 43.0107V69.1948H45.8159V64.5927C45.8159 64.4818 45.86 64.3754 45.9384 64.2969C46.0169 64.2185 46.1233 64.1743 46.2343 64.1743C46.3453 64.1743 46.4517 64.2185 46.5301 64.2969C46.6086 64.3754 46.6527 64.4818 46.6527 64.5927V69.6132C46.6447 69.7186 46.5971 69.817 46.5195 69.8888C46.4419 69.9605 46.34 70.0003 46.2343 70Z" fill="#333333"/>
<path d="M43.9302 41.5189C43.8192 41.5189 43.7128 41.4748 43.6344 41.3963C43.5559 41.3178 43.5118 41.2114 43.5118 41.1005V39.2216C43.5118 37.6137 42.8731 36.0718 41.7362 34.9349C40.5992 33.798 39.0572 33.1592 37.4493 33.1592H31.2605C29.654 33.1613 28.114 33.8009 26.9787 34.9376C25.8435 36.0743 25.2059 37.6151 25.2059 39.2216V41.1005C25.214 41.1597 25.2094 41.2199 25.1924 41.2772C25.1753 41.3345 25.1462 41.3875 25.1069 41.4325C25.0676 41.4776 25.0191 41.5138 24.9647 41.5385C24.9103 41.5633 24.8512 41.5761 24.7914 41.5761C24.7316 41.5761 24.6726 41.5633 24.6181 41.5385C24.5637 41.5138 24.5152 41.4776 24.476 41.4325C24.4367 41.3875 24.4075 41.3345 24.3905 41.2772C24.3734 41.2199 24.3688 41.1597 24.377 41.1005V39.2216C24.377 37.3953 25.102 35.6437 26.3926 34.3515C27.6833 33.0594 29.4341 32.3324 31.2605 32.3303H37.4493C39.277 32.3303 41.0299 33.0563 42.3222 34.3486C43.6146 35.641 44.3407 37.3939 44.3407 39.2216V41.1005C44.3417 41.155 44.3319 41.2091 44.3117 41.2599C44.2916 41.3106 44.2615 41.3568 44.2233 41.3957C44.1851 41.4347 44.1395 41.4658 44.0891 41.4869C44.0388 41.508 43.9848 41.5189 43.9302 41.5189Z" fill="#333333"/>
<path d="M37.4177 33.1592C37.3088 33.1592 37.2044 33.1159 37.1274 33.0389C37.0504 32.9619 37.0072 32.8575 37.0072 32.7487V30.3805C37.0051 30.229 36.9435 30.0844 36.8356 29.9781C36.7278 29.8717 36.5824 29.8121 36.4309 29.8121H32.2235C32.072 29.8121 31.9266 29.8717 31.8188 29.9781C31.7109 30.0844 31.6493 30.229 31.6472 30.3805V32.7487C31.6334 32.8487 31.5838 32.9403 31.5076 33.0067C31.4314 33.0731 31.3338 33.1096 31.2328 33.1096C31.1318 33.1096 31.0342 33.0731 30.958 33.0067C30.8818 32.9403 30.8322 32.8487 30.8184 32.7487V30.3805C30.8184 30.0078 30.9664 29.6505 31.2299 29.387C31.4934 29.1235 31.8508 28.9753 32.2235 28.9753H36.4309C36.8036 28.9753 37.161 29.1235 37.4245 29.387C37.688 29.6505 37.836 30.0078 37.836 30.3805V32.7487C37.8361 32.8032 37.8252 32.8573 37.8041 32.9076C37.7829 32.958 37.752 33.0036 37.713 33.0418C37.6741 33.08 37.6279 33.1101 37.5772 33.1302C37.5265 33.1504 37.4722 33.1602 37.4177 33.1592Z" fill="#333333"/>
<path d="M34.3227 29.7963C34.2681 29.7963 34.2141 29.7855 34.1637 29.7643C34.1134 29.7432 34.0678 29.7123 34.0296 29.6734C33.9914 29.6344 33.9613 29.5882 33.9411 29.5375C33.921 29.4868 33.9111 29.4325 33.9122 29.3779V20.0473L34.5911 20.6156C34.8004 20.7648 35.0373 20.8709 35.288 20.9278C35.5387 20.9847 35.7982 20.9914 36.0514 20.9473C36.5712 20.8592 37.0795 20.7136 37.5671 20.5131L37.7644 20.4341C38.3881 20.1635 39.0582 20.0162 39.7379 20.0001C40.386 20.0263 41.0212 20.1904 41.6009 20.4815L41.8377 20.5921V26.1178L41.2377 25.8336C40.7704 25.5915 40.2558 25.4541 39.73 25.431C39.159 25.4618 38.5979 25.5927 38.0723 25.8178L37.8828 25.8889C37.5513 26.0152 37.2197 26.1335 36.8803 26.2283C36.5188 26.3207 36.1412 26.3311 35.7751 26.2587C35.4091 26.1863 35.0639 26.0329 34.7647 25.8099V29.3463C34.7693 29.4059 34.7611 29.4659 34.7407 29.5221C34.7202 29.5782 34.6879 29.6292 34.646 29.6718C34.6042 29.7145 34.5536 29.7477 34.4978 29.7692C34.4421 29.7906 34.3823 29.7999 34.3227 29.7963ZM34.741 24.6021C34.9157 24.9276 35.1931 25.1863 35.5301 25.3377C35.8671 25.4891 36.2447 25.5246 36.604 25.4389C36.9277 25.3442 37.2434 25.2258 37.5513 25.1153L37.7486 25.0442C38.3754 24.7821 39.0434 24.6324 39.7221 24.6021C40.1528 24.6154 40.5789 24.6953 40.9851 24.8389V21.1051C40.5855 20.9232 40.1532 20.8237 39.7142 20.813C39.1432 20.8438 38.5821 20.9749 38.0565 21.2L37.867 21.2709C37.3195 21.4976 36.7472 21.6593 36.162 21.7525C35.6869 21.8187 35.203 21.7726 34.7489 21.6182L34.741 24.6021Z" fill="#333333"/>
<path d="M65.4002 64.9796H44.0867C43.7161 64.9796 43.3607 64.8322 43.0987 64.5702C42.8367 64.3082 42.6895 63.9529 42.6895 63.5823V53.3754C42.6895 53.2644 42.7335 53.158 42.812 53.0795C42.8905 53.0011 42.9969 52.9572 43.1078 52.9572C43.2188 52.9572 43.3252 53.0011 43.4037 53.0795C43.4821 53.158 43.5262 53.2644 43.5262 53.3754V63.5823C43.5252 63.6566 43.5389 63.7302 43.5666 63.7991C43.5943 63.868 43.6354 63.9309 43.6875 63.9838C43.7397 64.0366 43.8018 64.0786 43.8704 64.1073C43.9389 64.136 44.0124 64.1507 44.0867 64.1507H65.4002C65.551 64.1507 65.6955 64.0907 65.8021 63.9841C65.9087 63.8776 65.9686 63.7331 65.9686 63.5823V53.3754C65.9604 53.3161 65.965 53.2559 65.9821 53.1986C65.9991 53.1413 66.0283 53.0884 66.0676 53.0433C66.1068 52.9982 66.1553 52.9621 66.2097 52.9373C66.2641 52.9125 66.3232 52.8997 66.383 52.8997C66.4428 52.8997 66.5019 52.9125 66.5563 52.9373C66.6107 52.9621 66.6592 52.9982 66.6985 53.0433C66.7377 53.0884 66.7669 53.1413 66.784 53.1986C66.801 53.2559 66.8056 53.3161 66.7974 53.3754V63.5823C66.7974 63.9529 66.6502 64.3082 66.3882 64.5702C66.1262 64.8322 65.7708 64.9796 65.4002 64.9796Z" fill="#333333"/>
<path d="M56.2037 54.7253C56.0927 54.7253 55.9863 54.6812 55.9078 54.6028C55.8294 54.5243 55.7853 54.4179 55.7853 54.3069C55.7853 54.196 55.8294 54.0896 55.9078 54.0111C55.9863 53.9327 56.0927 53.8885 56.2037 53.8885C59.7336 53.8182 63.2535 53.4858 66.7341 52.8939V47.155C66.7352 47.0808 66.7215 47.0071 66.6938 46.9382C66.6661 46.8693 66.6249 46.8065 66.5728 46.7536C66.5206 46.7007 66.4585 46.6587 66.39 46.63C66.3215 46.6014 66.2479 46.5867 66.1737 46.5867H43.3366C43.1859 46.5867 43.0413 46.6466 42.9347 46.7532C42.8281 46.8598 42.7682 47.0043 42.7682 47.155V52.8781C46.2556 53.4819 49.7838 53.8197 53.3224 53.8885C53.3773 53.8896 53.4315 53.9014 53.4819 53.9234C53.5323 53.9454 53.5778 53.9771 53.6159 54.0167C53.6541 54.0563 53.684 54.103 53.7041 54.1541C53.7241 54.2053 53.7339 54.2599 53.7329 54.3148C53.7329 54.3694 53.722 54.4233 53.7009 54.4736C53.6798 54.524 53.6488 54.5696 53.6099 54.6078C53.5709 54.646 53.5247 54.6761 53.474 54.6962C53.4233 54.7164 53.3691 54.7264 53.3145 54.7253C49.7425 54.6524 46.1807 54.3173 42.6577 53.7228C42.4584 53.6891 42.2775 53.5855 42.1474 53.4308C42.0172 53.2761 41.9463 53.0803 41.9473 52.8781V47.155C41.9473 46.7837 42.0942 46.4275 42.356 46.1642C42.6178 45.9009 42.9732 45.752 43.3445 45.7499H66.1895C66.5607 45.752 66.9161 45.9009 67.1779 46.1642C67.4397 46.4275 67.5867 46.7837 67.5867 47.155V52.8781C67.5876 53.0803 67.5167 53.2761 67.3866 53.4308C67.2565 53.5855 67.0756 53.6891 66.8762 53.7228C63.3532 54.317 59.7914 54.652 56.2195 54.7253H56.2037Z" fill="#333333"/>
<path d="M55.77 56.1856H53.7176C53.4963 56.1836 53.2847 56.0948 53.1282 55.9384C52.9717 55.7819 52.8829 55.5701 52.8809 55.3488V53.2728C52.8829 53.0523 52.972 52.8414 53.1287 52.6862C53.2854 52.5309 53.4971 52.4439 53.7176 52.4439H55.77C55.8771 52.4438 55.9831 52.4654 56.0815 52.5075C56.18 52.5496 56.2688 52.6113 56.3426 52.6889C56.4165 52.7664 56.4738 52.8583 56.511 52.9587C56.5483 53.059 56.5648 53.1659 56.5594 53.2728V55.3332C56.5639 55.5499 56.4841 55.7597 56.3368 55.9187C56.1896 56.0777 55.9864 56.1734 55.77 56.1856ZM53.7176 53.2965V55.3488H55.77V53.2728L53.7176 53.2965Z" fill="#333333"/>
<path d="M60.1666 46.5867C60.0557 46.5867 59.9493 46.5426 59.8708 46.4642C59.7923 46.3857 59.7482 46.2793 59.7482 46.1683V44.1316C59.7482 43.9369 59.6709 43.7503 59.5332 43.6126C59.3955 43.475 59.2088 43.3976 59.0141 43.3976H50.4966C50.3033 43.3996 50.1185 43.4779 49.9826 43.6153C49.8466 43.7528 49.7703 43.9383 49.7703 44.1316V46.1683C49.7703 46.2793 49.7263 46.3857 49.6478 46.4642C49.5693 46.5426 49.4629 46.5867 49.352 46.5867C49.241 46.5867 49.1346 46.5426 49.0561 46.4642C48.9777 46.3857 48.9336 46.2793 48.9336 46.1683V44.1316C48.9336 43.7129 49.0999 43.3115 49.396 43.0154C49.6921 42.7193 50.0937 42.5529 50.5124 42.5529H59.0299C59.4486 42.5529 59.8502 42.7193 60.1463 43.0154C60.4424 43.3115 60.6087 43.7129 60.6087 44.1316V46.1683C60.6088 46.2253 60.5972 46.2817 60.5747 46.3341C60.5522 46.3864 60.5193 46.4337 60.4779 46.4728C60.4365 46.512 60.3875 46.5423 60.334 46.5619C60.2805 46.5814 60.2235 46.59 60.1666 46.5867Z" fill="#333333"/>
<path d="M37.4166 34.8958H31.2278C30.1697 34.8982 29.1492 35.2883 28.3593 35.9923C27.5694 36.6964 27.065 37.6656 26.9414 38.7165H41.7109C41.5872 37.6643 41.0816 36.6941 40.2901 35.9898C39.4985 35.2856 38.4761 34.8962 37.4166 34.8958Z" fill="#235AB0"/>
</g>
<defs>
<clipPath id="clip0_1080_171993">
<rect width="45.5794" height="50" fill="white" transform="translate(22 20)"/>
</clipPath>
</defs>
</svg>
