<svg width="90" height="90" viewBox="0 0 90 90" fill="none" xmlns="http://www.w3.org/2000/svg">
<circle cx="45" cy="45" r="45" fill="#FAFAFA"/>
<g clip-path="url(#clip0_2152_382855)">
<path d="M55.3006 53.52L44.4106 44.82L46.8006 43.87L60.1606 49.07L65.2306 44.08L68.8206 43.29L70.0206 44.08L69.8106 45.93L68.3706 48.88L63.9606 52.77L64.7406 54.27L68.2006 61.93L69.2306 65.6L69.0206 67.95L68.2806 68.7L59.5006 57.56L57.7106 59.49L49.2406 66.13L48.8206 66.87L47.2506 70.21L43.1406 66.13L45.0306 64.77L46.4806 64.56L55.3006 53.52Z" fill="white"/>
<path d="M39.1403 56.7796C49.3962 56.7796 57.7103 48.4656 57.7103 38.2096C57.7103 27.9537 49.3962 19.6396 39.1403 19.6396C28.8844 19.6396 20.5703 27.9537 20.5703 38.2096C20.5703 48.4656 28.8844 56.7796 39.1403 56.7796Z" fill="white"/>
<path d="M57.5383 51.16L44.9883 44.75L52.0383 50.8L55.5983 53.63L57.5383 51.16Z" fill="#235AB0"/>
<path d="M62.14 55.5801L68.48 68.2201L59.5 57.5601L62.14 55.5801Z" fill="#235AB0"/>
<path d="M29.1615 38.6705C29.0209 38.6705 28.8862 38.6146 28.7868 38.5152C28.6874 38.4158 28.6315 38.281 28.6315 38.1404C28.5828 34.8185 29.223 31.5227 30.5115 28.4605C30.5377 28.3962 30.5765 28.3379 30.6256 28.2889C30.6747 28.2398 30.7332 28.2009 30.7975 28.1749C30.8618 28.1488 30.9307 28.1358 31.0001 28.1368C31.0695 28.1377 31.1379 28.1526 31.2015 28.1805C31.2658 28.2067 31.3242 28.2454 31.3732 28.2945C31.4222 28.3436 31.4609 28.4021 31.487 28.4664C31.513 28.5307 31.526 28.5996 31.5251 28.669C31.5242 28.7384 31.5093 28.8068 31.4815 28.8704C30.2525 31.8041 29.643 34.9601 29.6915 38.1404C29.6915 38.21 29.6778 38.279 29.6511 38.3433C29.6245 38.4076 29.5855 38.466 29.5363 38.5152C29.4871 38.5644 29.4286 38.6035 29.3643 38.6302C29.3 38.6568 29.2311 38.6705 29.1615 38.6705Z" fill="#333333"/>
<path d="M39.139 30.6903C28.649 30.6903 25.839 25.2304 25.719 25.0004C25.6567 24.8744 25.647 24.7287 25.692 24.5956C25.737 24.4625 25.833 24.3525 25.959 24.2902C26.085 24.2279 26.2306 24.2183 26.3637 24.2633C26.4969 24.3083 26.6067 24.4042 26.669 24.5302C26.669 24.5802 29.359 29.6303 39.139 29.6303C39.2796 29.6303 39.4144 29.6861 39.5137 29.7855C39.6131 29.8849 39.669 30.0197 39.669 30.1603C39.669 30.2299 39.6553 30.2989 39.6287 30.3632C39.602 30.4275 39.563 30.4858 39.5137 30.5351C39.4645 30.5843 39.4061 30.6234 39.3418 30.65C39.2775 30.6767 39.2086 30.6903 39.139 30.6903Z" fill="#333333"/>
<path d="M39.1393 30.6903C38.9988 30.6903 38.864 30.6344 38.7646 30.5351C38.6652 30.4357 38.6094 30.3009 38.6094 30.1603C38.6094 30.0197 38.6652 29.8849 38.7646 29.7855C38.864 29.6861 38.9988 29.6303 39.1393 29.6303C48.9793 29.6303 51.5794 24.6302 51.6094 24.5302C51.6717 24.4042 51.7815 24.3083 51.9147 24.2633C52.0478 24.2183 52.1934 24.2279 52.3193 24.2902C52.4453 24.3525 52.5414 24.4625 52.5864 24.5956C52.6314 24.7287 52.6217 24.8744 52.5594 25.0004C52.4694 25.2304 49.6293 30.6903 39.1393 30.6903Z" fill="#333333"/>
<path d="M39.1393 52.9701C38.9988 52.9701 38.864 52.9142 38.7646 52.8148C38.6652 52.7154 38.6094 52.5806 38.6094 52.44V30.16C38.6094 30.0904 38.6231 30.0214 38.6497 29.9571C38.6764 29.8928 38.7154 29.8345 38.7646 29.7853C38.8138 29.736 38.8722 29.6969 38.9365 29.6703C39.0008 29.6436 39.0697 29.63 39.1393 29.63C39.2093 29.6286 39.2788 29.6414 39.3438 29.6676C39.4087 29.6937 39.4677 29.7326 39.5172 29.7821C39.5666 29.8316 39.6056 29.8907 39.6318 29.9557C39.6579 30.0206 39.6707 30.09 39.6694 30.16V52.44C39.6694 52.5806 39.6135 52.7154 39.5141 52.8148C39.4147 52.9142 39.2799 52.9701 39.1393 52.9701Z" fill="#333333"/>
<path d="M39.14 57.2998C34.0653 57.2945 29.2001 55.2763 25.6118 51.688C22.0235 48.0997 20.0053 43.2345 20 38.1599C20.0053 33.0834 22.0229 28.216 25.6106 24.6245C29.1983 21.033 34.0635 19.0106 39.14 19C44.2139 19.0132 49.0761 21.0353 52.663 24.624C56.2498 28.2128 58.2694 33.076 58.28 38.1499C58.2814 40.5132 57.844 42.8562 56.99 45.0598C56.9646 45.125 56.9265 45.1845 56.8781 45.2349C56.8296 45.2853 56.7716 45.3256 56.7075 45.3535C56.6433 45.3814 56.5743 45.3964 56.5043 45.3975C56.4344 45.3985 56.365 45.3857 56.3 45.3599C56.2352 45.3355 56.1759 45.2985 56.1255 45.251C56.0752 45.2034 56.035 45.1463 56.007 45.083C55.9791 45.0197 55.964 44.9513 55.9628 44.8821C55.9616 44.8129 55.9743 44.7442 56 44.6799C56.8083 42.5905 57.2253 40.3702 57.23 38.1299C57.2247 33.3319 55.3177 28.7317 51.9269 25.3372C48.5361 21.9426 43.9379 20.0304 39.14 20.0198C34.3438 20.0277 29.7467 21.938 26.3572 25.3313C22.9677 28.7246 21.0626 33.3237 21.06 38.1199C21.0653 42.9134 22.9718 47.5089 26.3613 50.8984C29.7508 54.2879 34.3465 56.1947 39.14 56.2C43.1883 56.2155 47.1224 54.8583 50.3 52.3499C50.4113 52.2669 50.5502 52.2301 50.688 52.2468C50.8258 52.2636 50.9518 52.3327 51.04 52.4399C51.126 52.5519 51.1648 52.6931 51.1479 52.8333C51.1311 52.9734 51.06 53.1015 50.95 53.1899C47.5898 55.8533 43.4276 57.3016 39.14 57.2998Z" fill="#333333"/>
<path d="M48.9213 42.1404H48.8613C48.7222 42.1229 48.5956 42.0511 48.5094 41.9405C48.4232 41.8299 48.3843 41.6895 48.4013 41.5503C48.5263 40.4246 48.5898 39.2931 48.5913 38.1604C48.6494 34.9767 48.0538 31.8148 46.8413 28.8704C46.7878 28.7417 46.7873 28.5972 46.8397 28.4681C46.8921 28.3389 46.9933 28.2356 47.1213 28.1805C47.1849 28.1526 47.2533 28.1377 47.3227 28.1368C47.3921 28.1358 47.461 28.1488 47.5253 28.1749C47.5896 28.2009 47.648 28.2398 47.6972 28.2889C47.7463 28.3379 47.7851 28.3962 47.8113 28.4605C49.0817 31.5269 49.708 34.8217 49.6513 38.1404C49.6526 39.32 49.5858 40.4986 49.4513 41.6705C49.4344 41.7995 49.3715 41.9181 49.2741 42.0044C49.1767 42.0908 49.0514 42.1391 48.9213 42.1404Z" fill="#333333"/>
<path d="M33.7189 52.97C33.6408 52.9705 33.5636 52.9537 33.4927 52.9209C33.4218 52.8881 33.3591 52.8397 33.309 52.7798C30.209 48.9798 28.6289 44.0699 28.6289 38.1599C28.6289 38.0193 28.6848 37.8846 28.7842 37.7852C28.8836 37.6858 29.0184 37.6299 29.1589 37.6299C29.2995 37.6299 29.4343 37.6858 29.5337 37.7852C29.6331 37.8846 29.6889 38.0193 29.6889 38.1599C29.6889 43.8199 31.1789 48.5099 34.1289 52.1099C34.2155 52.219 34.2556 52.3579 34.2407 52.4963C34.2257 52.6348 34.1568 52.7618 34.049 52.8499C33.9562 52.9269 33.8395 52.9694 33.7189 52.97Z" fill="#333333"/>
<path d="M26.199 52.0702C26.1154 52.0694 26.0331 52.049 25.959 52.0104C25.833 51.948 25.737 51.8381 25.692 51.7049C25.647 51.5718 25.6567 51.4261 25.719 51.3001C25.839 51.0701 28.649 45.6202 39.139 45.6202C39.2081 45.6189 39.2768 45.6313 39.3411 45.6568C39.4053 45.6824 39.4638 45.7205 39.5132 45.7689C39.5625 45.8173 39.6017 45.8751 39.6285 45.9388C39.6552 46.0026 39.669 46.0711 39.669 46.1402C39.669 46.2808 39.6131 46.4156 39.5137 46.515C39.4144 46.6144 39.2796 46.6703 39.139 46.6703C29.299 46.6703 26.699 51.6701 26.669 51.7701C26.6272 51.8596 26.5608 51.9355 26.4776 51.9886C26.3944 52.0417 26.2977 52.0699 26.199 52.0702Z" fill="#333333"/>
<path d="M47.0992 70.7305C46.9611 70.7307 46.8283 70.6767 46.7292 70.5804L42.7292 66.5804C42.6415 66.4939 42.5873 66.3791 42.5763 66.2564C42.5653 66.1337 42.5983 66.0112 42.6692 65.9105C43.1223 65.3074 43.7121 64.8206 44.3902 64.4903C45.0683 64.16 45.8151 63.9956 46.5692 64.0106L47.9293 62.0704C49.9205 59.2128 52.1591 56.5358 54.6193 54.0704L64.1292 44.5604C64.9475 43.742 65.9926 43.1882 67.1292 42.9705C67.5775 42.881 68.0324 42.8273 68.4893 42.8104C68.7539 42.8028 69.0173 42.8495 69.2632 42.9476C69.5091 43.0456 69.7324 43.1929 69.9192 43.3804C70.104 43.5693 70.2495 43.7929 70.3473 44.0384C70.4452 44.2838 70.4934 44.5462 70.4893 44.8104C70.463 45.2632 70.4095 45.7141 70.3292 46.1605C70.1105 47.2989 69.5528 48.3446 68.7292 49.1605L59.2292 58.6605C56.7611 61.1207 54.0844 63.3623 51.2292 65.3604L49.2892 66.7205C49.3045 67.4736 49.1412 68.2197 48.8127 68.8975C48.4842 69.5754 47.9998 70.1658 47.3992 70.6204C47.312 70.6854 47.2078 70.7238 47.0992 70.7305ZM43.8093 66.1605L47.1392 69.4905C47.5189 69.0929 47.8126 68.6212 48.0018 68.105C48.1911 67.5889 48.2719 67.0393 48.2393 66.4905C48.2297 66.3982 48.2451 66.3049 48.2837 66.2205C48.3224 66.1361 48.383 66.0636 48.4592 66.0106L50.6392 64.4805C53.439 62.5194 56.0623 60.3177 58.4792 57.9005L67.9893 48.4005C68.6599 47.7297 69.1129 46.8725 69.2892 45.9405C69.3634 45.5408 69.4102 45.1366 69.4293 44.7305C69.4328 44.6146 69.4114 44.4991 69.3666 44.3922C69.3217 44.2852 69.2544 44.1891 69.1692 44.1104C69.0899 44.0226 68.9925 43.9532 68.8838 43.9066C68.775 43.86 68.6575 43.8373 68.5392 43.8404C68.1326 43.8589 67.7281 43.9092 67.3292 43.9905C66.401 44.1693 65.5476 44.6219 64.8792 45.2903L55.3693 54.7903C52.9519 57.2108 50.7503 59.8375 48.7892 62.6404L47.2692 64.8104C47.2174 64.8884 47.1454 64.951 47.0609 64.9915C46.9764 65.032 46.8825 65.0488 46.7892 65.0403C46.2423 65.0131 45.6956 65.0987 45.183 65.2913C44.6704 65.484 44.2029 65.7797 43.8093 66.1605Z" fill="#333333"/>
<path d="M68.3991 69.4603C68.3244 69.4547 68.2517 69.433 68.1861 69.3968C68.1205 69.3605 68.0635 69.3106 68.0191 69.2503L59.1891 57.9202C59.1036 57.8099 59.0652 57.6703 59.082 57.5318C59.0989 57.3932 59.1697 57.2669 59.2791 57.1802C59.3332 57.1366 59.3955 57.1044 59.4623 57.0853C59.5291 57.0661 59.5991 57.0605 59.6681 57.0689C59.737 57.0773 59.8037 57.0995 59.864 57.1341C59.9243 57.1686 59.977 57.2148 60.0191 57.2701L68.4391 68.0701C69.5191 66.2101 67.9791 62.8501 65.5791 57.5901C64.9991 56.3201 64.3791 54.9503 63.7191 53.4603C63.6657 53.3315 63.6651 53.1868 63.7175 53.0577C63.7699 52.9285 63.8711 52.8252 63.9991 52.7701C64.0619 52.7405 64.1299 52.7243 64.1993 52.722C64.2686 52.7196 64.3376 52.7314 64.4022 52.7566C64.4668 52.7819 64.5255 52.8202 64.5749 52.8689C64.6242 52.9177 64.663 52.9758 64.6891 53.0401C65.3391 54.5201 65.9691 55.8902 66.5391 57.1502C69.3591 63.3202 71.0591 67.0501 68.8091 69.3001C68.7566 69.3551 68.6927 69.3979 68.6219 69.4256C68.551 69.4532 68.475 69.4652 68.3991 69.4603Z" fill="#333333"/>
<path d="M55.7083 54.2695C55.588 54.2674 55.4719 54.2253 55.3783 54.1497L44.0484 45.3196C43.9894 45.2746 43.9409 45.2173 43.9064 45.1516C43.8719 45.086 43.852 45.0138 43.8483 44.9397C43.8446 44.8648 43.856 44.7899 43.8817 44.7195C43.9075 44.6491 43.9472 44.5844 43.9984 44.5296C46.2484 42.2796 49.9983 43.9796 56.1483 46.7996C57.4083 47.3796 58.7783 47.9997 60.2683 48.6497C60.3953 48.7086 60.4944 48.8145 60.5448 48.9451C60.5951 49.0757 60.5928 49.2207 60.5384 49.3496C60.5102 49.4134 60.4697 49.471 60.4193 49.5191C60.3688 49.5671 60.3094 49.6048 60.2443 49.6299C60.1793 49.655 60.11 49.667 60.0403 49.6653C59.9706 49.6636 59.902 49.6479 59.8383 49.6196C58.3483 48.9696 56.9783 48.3398 55.7083 47.7598C50.4483 45.3598 47.0984 43.8297 45.2384 44.9097L56.0283 53.3196C56.1393 53.4048 56.2121 53.5303 56.2308 53.669C56.2495 53.8076 56.2127 53.948 56.1283 54.0596C56.0791 54.1245 56.0157 54.1772 55.9429 54.2136C55.8701 54.2501 55.7898 54.2692 55.7083 54.2695Z" fill="#333333"/>
<path d="M45.2012 68.7004C45.0631 68.7006 44.9303 68.6466 44.8312 68.5503C44.782 68.5011 44.7429 68.4428 44.7162 68.3784C44.6895 68.3141 44.6758 68.2449 44.6758 68.1753C44.6758 68.1056 44.6895 68.0368 44.7162 67.9724C44.7429 67.9081 44.782 67.8495 44.8312 67.8003L46.3513 66.2803C46.4519 66.1831 46.5864 66.1289 46.7263 66.1289C46.8662 66.1289 47.0006 66.1831 47.1013 66.2803C47.1984 66.3809 47.2527 66.5154 47.2527 66.6553C47.2527 66.7952 47.1984 66.9296 47.1013 67.0303L45.5812 68.5503C45.4785 68.6472 45.3425 68.7011 45.2012 68.7004Z" fill="#333333"/>
<path d="M30.7383 24.2798C33.3323 25.6243 36.2167 26.3111 39.1382 26.2798C42.0598 26.3111 44.9443 25.6243 47.5383 24.2798C45.011 22.7302 42.1028 21.9132 39.1382 21.92C36.1737 21.9132 33.2656 22.7302 30.7383 24.2798Z" fill="#235AB0"/>
</g>
<defs>
<clipPath id="clip0_2152_382855">
<rect width="50.49" height="51.73" fill="white" transform="translate(20 19)"/>
</clipPath>
</defs>
</svg>
