<svg width="100" height="101" viewBox="0 0 100 101" fill="none" xmlns="http://www.w3.org/2000/svg">
<circle cx="50" cy="50.125" r="50" fill="#F2F6FB"/>
<g clip-path="url(#clip0_1867_378064)">
<path d="M33.7398 64.7305H27.8398V80.4005H33.7398V64.7305Z" fill="#235AB0"/>
<path d="M34.1 66.9502L40.37 63.4502L45.34 63.6802L52.53 66.4802L60.44 66.9502L61.71 68.4502V70.3602L68.6 64.4102L72.02 64.0402L74.7 66.1802L73.54 67.4502L64.29 76.3102L58.18 78.0902L51.91 77.6202L43.82 77.5102L36.78 78.0902L33.75 78.8902L34.1 66.9502Z" fill="white"/>
<path d="M34.2595 79.2797C34.1435 79.2795 34.0309 79.2413 33.9387 79.1708C33.8466 79.1004 33.7801 79.0017 33.7495 78.8898C33.7299 78.8228 33.7239 78.7526 33.732 78.6833C33.7401 78.614 33.7621 78.5469 33.7966 78.4863C33.8311 78.4256 33.8775 78.3726 33.933 78.3303C33.9885 78.2879 34.0519 78.2572 34.1195 78.2399C39.1715 77.1175 44.3496 76.6668 49.5195 76.8998C50.5195 76.9598 51.4395 77.0498 52.3995 77.1398C54.2149 77.3497 56.0422 77.4399 57.8695 77.4098C60.7015 77.3384 63.4231 76.2971 65.5795 74.4599L73.5795 66.8798C73.6572 66.8035 73.7189 66.7124 73.7611 66.612C73.8032 66.5115 73.8249 66.4038 73.8249 66.2949C73.8249 66.1859 73.8032 66.0782 73.7611 65.9777C73.7189 65.8773 73.6572 65.7862 73.5795 65.7099C72.8592 64.9611 71.8711 64.5289 70.8323 64.5082C69.7935 64.4876 68.789 64.8802 68.0395 65.5998L61.6295 71.0998C61.522 71.1782 61.3889 71.2134 61.2567 71.1982C61.1245 71.183 61.0029 71.1185 60.916 71.0178C60.829 70.917 60.7832 70.7872 60.7876 70.6542C60.792 70.5212 60.8462 70.3946 60.9395 70.2997L67.3295 64.8198C68.2837 63.9234 69.5513 63.437 70.8601 63.465C72.169 63.4931 73.4147 64.0335 74.3295 64.9699C74.6831 65.3242 74.8816 65.8043 74.8816 66.3049C74.8816 66.8054 74.6831 67.2855 74.3295 67.6398L66.3295 75.2299C63.9797 77.2328 61.0159 78.3725 57.9295 78.4599C56.0556 78.4959 54.1813 78.4057 52.3195 78.1899C51.3695 78.0999 50.4295 78.0099 49.4795 77.9599C44.4243 77.7344 39.3613 78.1715 34.4195 79.2599L34.2595 79.2797Z" fill="#333333"/>
<path d="M59.1406 72.3901H56.4106C54.7302 72.3945 53.0541 72.2202 51.4106 71.8701L46.3506 70.78C46.2835 70.7657 46.2199 70.7386 46.1635 70.6997C46.107 70.6607 46.0588 70.611 46.0216 70.5534C45.9844 70.4958 45.959 70.4312 45.9469 70.3637C45.9347 70.2962 45.936 70.2271 45.9506 70.1601C45.9637 70.0921 45.9903 70.0275 46.0287 69.9699C46.0671 69.9123 46.1167 69.8629 46.1744 69.8247C46.2322 69.7865 46.297 69.7603 46.365 69.7475C46.433 69.7347 46.5029 69.7356 46.5706 69.7502L51.6306 70.83C53.1915 71.1664 54.784 71.3341 56.3806 71.33H59.1106C59.6411 71.33 60.1498 71.1194 60.5249 70.7443C60.8999 70.3693 61.1106 69.8605 61.1106 69.33C61.1106 68.7996 60.8999 68.291 60.5249 67.916C60.1498 67.5409 59.6411 67.33 59.1106 67.33H56.7106C54.4164 67.33 52.1465 66.8605 50.0406 65.9502L49.6706 65.79C48.4012 65.2032 47.087 64.7184 45.7406 64.34C43.7274 63.8606 41.6259 63.896 39.6299 64.4431C37.634 64.9901 35.8081 66.0313 34.3206 67.4702C34.2714 67.5195 34.213 67.5585 34.1486 67.5852C34.0843 67.6118 34.0153 67.6254 33.9456 67.6254C33.876 67.6254 33.807 67.6118 33.7427 67.5852C33.6783 67.5585 33.6199 67.5195 33.5706 67.4702C33.5217 67.4218 33.4828 67.364 33.4562 67.3005C33.4297 67.237 33.416 67.1689 33.416 67.1001C33.416 67.0312 33.4297 66.9631 33.4562 66.8996C33.4828 66.8361 33.5217 66.7785 33.5706 66.7302C35.1872 65.1637 37.1732 64.0308 39.3443 63.4365C41.5155 62.8421 43.8016 62.8054 45.9906 63.33C47.3923 63.7184 48.7602 64.2201 50.0806 64.83L50.4506 64.9902C52.4233 65.8449 54.5508 66.2838 56.7006 66.28H59.1006C59.5179 66.2561 59.9356 66.3179 60.3282 66.4611C60.7207 66.6044 61.0799 66.8263 61.3838 67.1132C61.6876 67.4002 61.9296 67.7461 62.095 68.1298C62.2605 68.5136 62.3458 68.9273 62.3458 69.3452C62.3458 69.7631 62.2605 70.1765 62.095 70.5603C61.9296 70.944 61.6876 71.2899 61.3838 71.5769C61.0799 71.8638 60.7207 72.0859 60.3282 72.2292C59.9356 72.3725 59.5179 72.434 59.1006 72.4101L59.1406 72.3901Z" fill="#333333"/>
<path d="M33.44 80.9402H28.07C27.7862 80.9402 27.5141 80.8274 27.3134 80.6267C27.1127 80.426 27 80.1539 27 79.8701V65.27C27 64.9862 27.1127 64.7141 27.3134 64.5134C27.5141 64.3128 27.7862 64.2002 28.07 64.2002H33.44C33.7238 64.2002 33.9959 64.3128 34.1966 64.5134C34.3973 64.7141 34.51 64.9862 34.51 65.27V79.8701C34.51 80.1539 34.3973 80.426 34.1966 80.6267C33.9959 80.8274 33.7238 80.9402 33.44 80.9402ZM28.07 65.2603V79.8701H33.46V65.27L28.07 65.2603Z" fill="#333333"/>
<path d="M43.1102 26.8803L38.2202 22.3503L40.3602 20.1803L42.7502 19.5303L45.1602 20.6903L45.8702 21.6603L48.9402 20.1503L51.1702 20.2103L53.2002 21.8403L55.3702 19.6703H58.1802L60.8002 22.2003L56.2502 26.8803L65.2102 41.3203L67.6002 47.7503L67.0402 53.2703L64.5502 57.5403L60.1402 60.4803H40.1202L34.6302 57.8903L31.9102 53.6003L31.4902 48.2303L33.0902 42.5203L43.1102 26.8803Z" fill="white"/>
<path d="M56.9 61.21H42.11C39.1962 61.2156 36.3973 60.0743 34.3183 58.0328C32.2393 55.9912 31.0473 53.2133 31 50.2999V50.19C31.0302 46.218 32.338 42.3611 34.73 39.19L42.66 26.6299C42.7045 26.5529 42.7687 26.4891 42.846 26.4451C42.9234 26.4012 43.011 26.3787 43.1 26.3799H56.16C56.2501 26.3799 56.3387 26.4028 56.4174 26.4466C56.4961 26.4903 56.5624 26.5535 56.61 26.6299L64.39 39.22C66.778 42.392 68.0791 46.2497 68.1 50.22C68.0323 51.9103 67.6062 53.5667 66.85 55.0799C65.935 56.9333 64.5162 58.4915 62.7564 59.5757C60.9966 60.6599 58.9669 61.2263 56.9 61.21ZM43.4 27.44L35.6 39.7798C33.3401 42.7804 32.0965 46.4239 32.05 50.18V50.2898C32.0868 52.9177 33.1566 55.4256 35.028 57.2708C36.8994 59.116 39.4219 60.1502 42.05 60.15H56.84C58.7117 60.1656 60.5497 59.652 62.1421 58.6683C63.7344 57.6845 65.0164 56.2707 65.84 54.5899C66.5341 53.219 66.9263 51.7153 66.99 50.18C66.9563 46.4388 65.7224 42.8072 63.47 39.8199L55.81 27.44H43.4Z" fill="#333333"/>
<path d="M43.1001 27.4404C42.9649 27.4401 42.8355 27.386 42.7401 27.2903L37.9101 22.6104C37.8594 22.5609 37.8191 22.5018 37.7916 22.4365C37.7641 22.3713 37.75 22.3013 37.7501 22.2305C37.7489 22.1619 37.7616 22.0936 37.7874 22.03C37.8131 21.9665 37.8515 21.9088 37.9001 21.8604L39.6401 20.1204C40.3636 19.3992 41.3435 18.9941 42.3651 18.9941C43.3866 18.9941 44.3666 19.3992 45.0901 20.1204L46.0901 21.1204L46.3301 20.8804C47.2002 20.0108 48.38 19.5222 49.6101 19.5222C50.8402 19.5222 52.02 20.0108 52.8901 20.8804L53.1301 21.1204L54.1301 20.1204C54.8703 19.4315 55.8439 19.0486 56.8551 19.0486C57.8662 19.0486 58.8399 19.4315 59.5801 20.1204L61.3101 21.8604C61.3602 21.9076 61.3995 21.9652 61.4254 22.0291C61.4513 22.0929 61.4631 22.1616 61.4601 22.2305C61.4626 22.3016 61.4496 22.3724 61.422 22.438C61.3944 22.5036 61.3527 22.5624 61.3001 22.6104L56.4801 27.2903C56.3794 27.3874 56.245 27.4419 56.1051 27.4419C55.9652 27.4419 55.8307 27.3874 55.7301 27.2903C55.6808 27.2411 55.6417 27.1828 55.615 27.1184C55.5883 27.0541 55.5746 26.9849 55.5746 26.9153C55.5746 26.8456 55.5883 26.7767 55.615 26.7124C55.6417 26.6481 55.6808 26.5895 55.7301 26.5403L60.1701 22.2305L58.8201 20.8804C58.2856 20.3575 57.5677 20.0647 56.8201 20.0647C56.0724 20.0647 55.3545 20.3575 54.8201 20.8804L53.4301 22.2803C53.3289 22.3809 53.1927 22.4384 53.0501 22.4404C52.9809 22.4397 52.9125 22.4252 52.8489 22.3977C52.7854 22.3702 52.728 22.3302 52.6801 22.2803L52.0601 21.6704C51.7284 21.3372 51.3341 21.0727 50.8999 20.8923C50.4658 20.7119 50.0002 20.6191 49.5301 20.6191C49.0599 20.6191 48.5944 20.7119 48.1602 20.8923C47.7261 21.0727 47.3318 21.3372 47.0001 21.6704L46.3901 22.2803C46.2894 22.3774 46.155 22.4319 46.0151 22.4319C45.8752 22.4319 45.7407 22.3774 45.6401 22.2803L44.2401 20.8804C43.9787 20.6155 43.6673 20.4053 43.3239 20.2617C42.9806 20.1182 42.6122 20.0442 42.2401 20.0442C41.868 20.0442 41.4995 20.1182 41.1562 20.2617C40.8129 20.4053 40.5015 20.6155 40.2401 20.8804L38.8901 22.2305L43.3301 26.5403C43.3794 26.5895 43.4185 26.6481 43.4451 26.7124C43.4718 26.7767 43.4855 26.8456 43.4855 26.9153C43.4855 26.9849 43.4718 27.0541 43.4451 27.1184C43.4185 27.1828 43.3794 27.2411 43.3301 27.2903C43.2673 27.3589 43.1882 27.4107 43.1001 27.4404Z" fill="#333333"/>
<path d="M61.3795 41.4102L61.2995 41.3L57.3495 34.9102C58.3495 39.1002 60.1895 43.2501 60.2395 47.5601C60.2706 50.9492 59.1964 54.2563 57.1795 56.9802L56.7695 57.4902H56.8995C58.2623 57.5072 59.6024 57.1412 60.7674 56.4341C61.9325 55.7269 62.8756 54.707 63.4895 53.4902C64.0022 52.4708 64.3048 51.3588 64.3795 50.2202C64.3543 47.0371 63.3022 43.9471 61.3795 41.4102Z" fill="#235AB0"/>
<path d="M54.3598 45.2997L53.5698 49.6198C53.5698 49.7198 53.4998 49.8198 53.4598 49.9198C53.4098 50.024 53.3421 50.1188 53.2598 50.1999C53.1646 50.2935 53.0478 50.3622 52.9198 50.3998C52.7387 50.4567 52.5495 50.4838 52.3598 50.4799C52.1765 50.484 51.9939 50.4568 51.8198 50.3998C51.6957 50.3488 51.5809 50.2779 51.4798 50.1898C51.399 50.1135 51.3344 50.0216 51.2898 49.9198C51.2412 49.8235 51.2011 49.723 51.1698 49.6198L50.2498 45.2997H48.6498L47.7598 49.6198C47.7598 49.7198 47.6898 49.8198 47.6498 49.9198C47.6015 50.0221 47.5335 50.1139 47.4498 50.1898C47.3486 50.2779 47.2338 50.3488 47.1098 50.3998C46.9356 50.4568 46.753 50.484 46.5698 50.4799C46.3799 50.4845 46.1907 50.4574 46.0098 50.3998C45.8817 50.3622 45.7649 50.2935 45.6698 50.1999C45.5874 50.1188 45.5198 50.024 45.4698 49.9198C45.4698 49.8198 45.3898 49.7198 45.3598 49.6198L44.5598 45.2997H43.2598C43.1463 45.3035 43.0355 45.2643 42.9498 45.1898C42.9053 45.1477 42.8707 45.0962 42.8482 45.0392C42.8258 44.9822 42.816 44.9209 42.8198 44.8598C42.8146 44.8 42.8237 44.7399 42.8463 44.6842C42.8689 44.6286 42.9044 44.579 42.9498 44.5397C42.991 44.501 43.0399 44.4712 43.0933 44.4523C43.1466 44.4334 43.2033 44.4258 43.2598 44.4298H44.3698L43.5298 39.7897C43.4498 39.5497 43.4498 39.3797 43.5298 39.2797C43.6043 39.1945 43.7013 39.1322 43.8098 39.0998C43.9468 39.0592 44.0927 39.0592 44.2298 39.0998C44.2944 39.1326 44.3512 39.1792 44.3961 39.2362C44.441 39.2932 44.473 39.3593 44.4898 39.4298L45.3698 44.4298H47.8198L48.8198 39.4298C48.8555 39.3098 48.9292 39.2045 49.0298 39.1298C49.2355 39.0495 49.464 39.0495 49.6698 39.1298C49.7703 39.2045 49.844 39.3098 49.8798 39.4298L50.9498 44.4298H53.3998L54.2898 39.4298C54.3083 39.36 54.341 39.2947 54.3857 39.2379C54.4304 39.1812 54.4862 39.1341 54.5498 39.0998C54.6869 39.0598 54.8326 39.0598 54.9698 39.0998C55.0782 39.1322 55.1753 39.1945 55.2498 39.2797C55.3498 39.3797 55.3498 39.5497 55.2498 39.7897L54.3898 44.4298H55.5398C55.5962 44.4264 55.6527 44.4344 55.706 44.4533C55.7592 44.4722 55.8081 44.5014 55.8498 44.5397C55.8952 44.579 55.9306 44.6286 55.9532 44.6842C55.9758 44.7399 55.9849 44.8 55.9798 44.8598C55.9835 44.9209 55.9738 44.9822 55.9513 45.0392C55.9288 45.0962 55.8942 45.1477 55.8498 45.1898C55.763 45.2627 55.653 45.3016 55.5398 45.2997H54.3598ZM46.5698 49.5697C46.6498 49.5697 46.6998 49.5697 46.7298 49.5697C46.7643 49.5318 46.7915 49.4878 46.8098 49.4398L47.6698 45.3498H45.5898L46.3098 49.4398C46.3329 49.487 46.3709 49.5253 46.4178 49.5487C46.4648 49.5722 46.5182 49.5795 46.5698 49.5697ZM48.8298 44.4298H50.0698L49.4498 41.5099L48.8298 44.4298ZM52.3598 49.5697C52.4179 49.5787 52.4772 49.5651 52.5256 49.5316C52.574 49.4982 52.6077 49.4474 52.6198 49.3898L53.3498 45.2997H51.2598L52.1498 49.3898C52.1681 49.4378 52.1952 49.4817 52.2298 49.5197C52.2298 49.5197 52.2598 49.5697 52.3598 49.5697Z" fill="#333333"/>
<path d="M52.3605 50.6802C52.1525 50.6887 51.9449 50.6546 51.7505 50.5801C51.6069 50.5356 51.4746 50.4609 51.3625 50.3608C51.2504 50.2608 51.161 50.1378 51.1005 50.0002C51.0518 49.897 51.0116 49.79 50.9805 49.6802L50.0905 45.5002H48.8105L47.9605 49.6602C47.9249 49.7763 47.8815 49.89 47.8305 50.0002C47.77 50.1378 47.6806 50.2608 47.5685 50.3608C47.4563 50.4609 47.324 50.5356 47.1805 50.5801C46.9861 50.6546 46.7785 50.6887 46.5705 50.6802C46.3569 50.6864 46.1438 50.6559 45.9405 50.5901C45.7855 50.5413 45.6448 50.4555 45.5305 50.3401C45.4245 50.2476 45.3421 50.1311 45.2905 50.0002C45.2418 49.897 45.2016 49.79 45.1705 49.6802L44.3905 45.5002H43.2605C43.0959 45.504 42.9357 45.4469 42.8105 45.3401C42.7462 45.2784 42.6959 45.2037 42.6631 45.1208C42.6304 45.038 42.6158 44.9491 42.6205 44.8601C42.6145 44.7725 42.6285 44.6847 42.6614 44.6033C42.6943 44.5219 42.7453 44.449 42.8105 44.3901C42.9348 44.2805 43.0948 44.2202 43.2605 44.2202H44.1305L43.3305 39.8301C43.2761 39.7189 43.2556 39.5944 43.2716 39.4717C43.2876 39.349 43.3394 39.2336 43.4205 39.1401C43.5201 39.0237 43.6525 38.94 43.8005 38.9001C43.9727 38.8444 44.1582 38.8444 44.3305 38.9001C44.4232 38.9396 44.5057 38.9997 44.5715 39.0759C44.6374 39.1522 44.6849 39.2426 44.7105 39.3401L45.5705 44.2002H47.6805L48.6805 39.3701C48.7263 39.1957 48.8326 39.0434 48.9805 38.9402C49.1121 38.8793 49.2554 38.8477 49.4005 38.8477C49.5455 38.8477 49.6888 38.8793 49.8205 38.9402C49.9612 39.0375 50.0664 39.1778 50.1205 39.3401L51.1205 44.2002H53.2405L54.1005 39.3701C54.1243 39.2668 54.172 39.1705 54.2397 39.0889C54.3075 39.0073 54.3933 38.9427 54.4905 38.9001C54.666 38.8436 54.8549 38.8436 55.0305 38.9001C55.1762 38.945 55.3073 39.0279 55.4105 39.1401C55.489 39.2393 55.5373 39.359 55.5497 39.4849C55.5621 39.6107 55.5381 39.7375 55.4805 39.8501L54.6705 44.2202H55.5805C55.7435 44.2188 55.9008 44.2795 56.0205 44.3901C56.0869 44.4485 56.1394 44.5209 56.174 44.6023C56.2086 44.6836 56.2245 44.7718 56.2205 44.8601C56.2239 44.9498 56.2078 45.0392 56.1732 45.1221C56.1387 45.2049 56.0866 45.2793 56.0205 45.3401C55.8998 45.448 55.7423 45.5054 55.5805 45.5002H54.4305L53.6805 49.6602C53.6449 49.7763 53.6015 49.89 53.5505 50.0002C53.4879 50.1393 53.3968 50.2636 53.2831 50.3652C53.1694 50.4669 53.0357 50.5434 52.8905 50.5901C52.7191 50.6457 52.5406 50.6761 52.3605 50.6802ZM48.4905 45.1001H50.4105L51.4105 49.5801C51.4384 49.6687 51.4718 49.7556 51.5105 49.8401C51.5417 49.9218 51.5933 49.9941 51.6605 50.05C51.7415 50.1173 51.8326 50.1714 51.9305 50.2102C52.2574 50.3025 52.6035 50.3025 52.9305 50.2102C53.0316 50.1783 53.124 50.1234 53.2005 50.05C53.2657 49.9861 53.3198 49.9118 53.3605 49.8301C53.3605 49.7401 53.4305 49.64 53.4605 49.55L54.2705 45.0901H55.7505C55.8156 45.0916 55.8793 45.0704 55.9305 45.03C55.9724 44.9797 55.9939 44.9155 55.9905 44.8501C55.9924 44.8192 55.9881 44.7882 55.9778 44.759C55.9675 44.7298 55.9514 44.703 55.9305 44.6802C55.9065 44.6579 55.878 44.641 55.847 44.6306C55.8159 44.6203 55.783 44.6167 55.7505 44.6201H54.2605L55.1705 39.7402C55.2305 39.5402 55.1705 39.4402 55.1705 39.4102C55.1198 39.3507 55.0542 39.3057 54.9805 39.28C54.8827 39.25 54.7782 39.25 54.6805 39.28C54.6092 39.3256 54.5589 39.3977 54.5405 39.4802L53.6205 44.6201H50.8505L49.7405 39.4602C49.722 39.391 49.6795 39.3306 49.6205 39.29C49.5583 39.273 49.4927 39.273 49.4305 39.29C49.3551 39.2701 49.2759 39.2701 49.2005 39.29C49.1351 39.3394 49.0891 39.4104 49.0705 39.4902L47.9905 44.6201H45.2605L44.3605 39.4502C44.3322 39.3806 44.2833 39.3212 44.2205 39.28C44.1228 39.25 44.0182 39.25 43.9205 39.28C43.8467 39.3057 43.7812 39.3507 43.7305 39.4102C43.7305 39.4102 43.7305 39.5402 43.7305 39.7202L44.6205 44.6201H43.2605C43.2279 44.6161 43.1948 44.6193 43.1637 44.6296C43.1325 44.64 43.1041 44.6574 43.0805 44.6802C43.0805 44.6802 43.0205 44.7501 43.0205 44.8501C43.0164 44.8827 43.0197 44.9159 43.0301 44.947C43.0405 44.9782 43.0577 45.0064 43.0805 45.03C43.1308 45.072 43.1951 45.0935 43.2605 45.0901H44.7105L45.5405 49.5701C45.5645 49.6587 45.5945 49.7456 45.6305 49.8301C45.6712 49.9118 45.7253 49.9861 45.7905 50.05C45.867 50.1234 45.9594 50.1783 46.0605 50.2102C46.3874 50.3025 46.7335 50.3025 47.0605 50.2102C47.1583 50.1714 47.2495 50.1173 47.3305 50.05C47.3977 49.9941 47.4493 49.9218 47.4805 49.8401C47.5258 49.7504 47.5626 49.6566 47.5905 49.5601L48.4905 45.1001ZM52.3605 49.77C52.3032 49.7741 52.2457 49.7656 52.1921 49.7449C52.1385 49.7241 52.0901 49.6918 52.0505 49.6501C52.0023 49.598 51.965 49.5369 51.9405 49.4702L50.9405 45.1001H53.5405L52.7805 49.4302C52.7583 49.5255 52.7049 49.6105 52.6288 49.6721C52.5528 49.7337 52.4583 49.7681 52.3605 49.77ZM52.3605 49.3501H52.4205L53.1105 45.4902H51.4805L52.3205 49.3401L52.3605 49.3501ZM46.6105 49.77C46.5081 49.7797 46.4057 49.7515 46.3228 49.6907C46.2398 49.6298 46.1821 49.5408 46.1605 49.4402L45.3905 45.1001H47.9605L47.0405 49.4302C47.0221 49.5134 46.9805 49.5897 46.9205 49.6501C46.8766 49.6976 46.8217 49.7334 46.7606 49.7544C46.6995 49.7753 46.6342 49.7806 46.5705 49.77H46.6105ZM45.8605 45.5002L46.5505 49.3601H46.6505C46.6505 49.3601 46.6505 49.3601 46.6505 49.3101L47.4505 45.4902L45.8605 45.5002ZM50.3605 44.6301H48.6205L49.4905 40.55L50.3605 44.6301ZM49.1205 44.2202H49.8605L49.4905 42.4702L49.1205 44.2202Z" fill="#333333"/>
</g>
<defs>
<clipPath id="clip0_1867_378064">
<rect width="47.85" height="61.94" fill="white" transform="translate(27 19)"/>
</clipPath>
</defs>
</svg>
