<svg width="100" height="100" viewBox="0 0 100 100" fill="none" xmlns="http://www.w3.org/2000/svg">
<circle cx="50" cy="50" r="50" fill="#F2F6FB"/>
<g clip-path="url(#clip0_1928_379603)">
<path d="M33.54 34.4491V25.4791L35.4 23.2891L61.49 23.5091L63.37 25.4291V35.8291L61.19 37.5391H49.47L47.37 41.8191L44.76 37.3591L38.48 37.5791L35.83 35.4291L33.54 34.4491Z" fill="#235AB0"/>
<path d="M29.9101 45.0291L27.9101 41.5691L28.4101 38.0991L31.6501 35.1791L35.3501 35.0391L38.4801 37.5791L39.4301 40.7991L38.2501 44.2691L36.6401 45.6591L42.4501 50.5991L44.6501 47.1591L46.6701 46.8391L48.0101 48.7891L44.3101 55.7291L42.2501 56.0291L39.1601 54.0091L39.1801 74.7491L38.1601 76.7591L35.3501 77.0591L33.6501 75.1491L32.4401 76.5391L30.1101 77.0591L27.7901 75.1291V61.3991L25.1601 60.3091L24.3701 58.0191L24.5301 50.8291L30.2701 45.3891L29.9101 45.0291Z" fill="white"/>
<path d="M50.52 59.8907L48.2 63.1507L49.26 68.0907L49.95 68.9607L46.36 72.2807L45.02 75.0307V77.0607H76.13V73.5507L71.68 68.5007L73.59 63.9907L70.81 59.6507L67.65 59.2207L65.16 60.7607L64.15 62.4107L63.63 65.1007L64.98 68.1407L65.31 68.5007L63.37 70.6107L61.4 72.7607L60.66 74.4607L59.61 72.2007L55.94 68.8707L57.34 65.6807L57.25 62.3607L54.49 59.2207L50.52 59.8907Z" fill="white"/>
<path d="M27.77 61.9305C26.7701 61.9305 25.8112 61.5333 25.1042 60.8263C24.3972 60.1193 24 59.1604 24 58.1605V52.2907C23.999 51.6802 24.134 51.0771 24.3951 50.5253C24.6563 49.9735 25.0371 49.4867 25.51 49.1005L30.39 45.1605C30.5007 45.0734 30.6411 45.033 30.7813 45.048C30.9214 45.0629 31.0501 45.132 31.14 45.2406C31.2265 45.3497 31.2667 45.4883 31.2517 45.6268C31.2367 45.7653 31.1679 45.8925 31.06 45.9806L26.18 49.9205C25.8294 50.2079 25.547 50.5697 25.3533 50.9796C25.1596 51.3895 25.0595 51.8373 25.06 52.2907V58.1605C25.0626 58.8784 25.349 59.5662 25.8566 60.0739C26.3643 60.5815 27.052 60.8678 27.77 60.8705C27.9105 60.8705 28.0453 60.9264 28.1447 61.0258C28.2441 61.1252 28.3 61.2599 28.3 61.4005C28.3 61.4701 28.2863 61.5391 28.2596 61.6034C28.233 61.6677 28.1939 61.7261 28.1447 61.7753C28.0955 61.8245 28.0371 61.8636 27.9728 61.8903C27.9085 61.9169 27.8396 61.9305 27.77 61.9305Z" fill="#333333"/>
<path d="M39.1798 74.751C39.0392 74.751 38.9044 74.6951 38.805 74.5957C38.7056 74.4963 38.6498 74.3615 38.6498 74.221V52.8609L42.0398 55.1509C42.2193 55.2771 42.4235 55.3637 42.639 55.405C42.8545 55.4464 43.0763 55.4416 43.2898 55.3909C43.5 55.337 43.697 55.241 43.8689 55.1087C44.0408 54.9763 44.184 54.8103 44.2898 54.6209L47.1798 49.531C47.2837 49.3529 47.3497 49.1552 47.3738 48.9505C47.3979 48.7457 47.3795 48.5382 47.3198 48.3408C47.264 48.1418 47.1677 47.9567 47.0369 47.7966C46.9061 47.6366 46.7437 47.5052 46.5598 47.4109C46.2167 47.2379 45.8212 47.1994 45.4512 47.303C45.0811 47.4066 44.7632 47.6449 44.5598 47.971L42.5598 51.481L36.0098 45.961C35.9567 45.9167 35.9129 45.8622 35.8811 45.8008C35.8493 45.7394 35.83 45.6724 35.8245 45.6035C35.8189 45.5346 35.827 45.4654 35.8486 45.3997C35.8701 45.334 35.9045 45.2732 35.9498 45.221C36.0424 45.1154 36.1726 45.05 36.3126 45.0388C36.4526 45.0276 36.5915 45.0714 36.6998 45.1609L42.2698 49.8508L43.6398 47.4309C43.9833 46.8687 44.5276 46.4579 45.1625 46.2815C45.7973 46.1052 46.4755 46.1765 47.0598 46.481C47.3692 46.6401 47.6431 46.8605 47.8649 47.1287C48.0866 47.3968 48.2516 47.7072 48.3498 48.041C48.4454 48.3735 48.4734 48.7217 48.4322 49.0652C48.391 49.4087 48.2814 49.7406 48.1098 50.041L45.2198 55.1309C45.0392 55.4483 44.795 55.7251 44.5024 55.9436C44.2099 56.1622 43.8753 56.3178 43.5198 56.4009C43.1648 56.4805 42.7972 56.487 42.4396 56.4199C42.082 56.3529 41.7418 56.2138 41.4398 56.011L39.6998 54.8408V74.2009C39.7024 74.2714 39.6911 74.3415 39.6663 74.4075C39.6414 74.4735 39.6037 74.534 39.5553 74.5852C39.5069 74.6364 39.4487 74.6774 39.3842 74.7058C39.3197 74.7343 39.2503 74.7497 39.1798 74.751Z" fill="#333333"/>
<path d="M30.7299 77.5708C29.8414 77.5708 28.9893 77.2178 28.3611 76.5896C27.7328 75.9614 27.3799 75.1094 27.3799 74.2209V53.1509C27.3825 53.0121 27.4395 52.8797 27.5386 52.7825C27.6377 52.6852 27.7711 52.6308 27.9099 52.6309C27.979 52.6308 28.0475 52.6446 28.1113 52.6714C28.175 52.6981 28.2328 52.7373 28.2812 52.7866C28.3296 52.836 28.3677 52.8945 28.3932 52.9587C28.4188 53.023 28.4313 53.0918 28.4299 53.1609V74.2209C28.4299 74.8283 28.6712 75.4106 29.1006 75.8401C29.5301 76.2695 30.1126 76.511 30.7199 76.511C31.3264 76.5084 31.9074 76.266 32.3363 75.8372C32.7652 75.4083 33.0073 74.8275 33.0099 74.2209V63.0608C33.0086 62.9917 33.021 62.9231 33.0466 62.8589C33.0721 62.7946 33.1102 62.7361 33.1586 62.6868C33.207 62.6374 33.2648 62.5983 33.3286 62.5715C33.3923 62.5448 33.4608 62.531 33.5299 62.531C33.5999 62.5296 33.6694 62.5424 33.7343 62.5686C33.7992 62.5948 33.8582 62.6336 33.9077 62.6831C33.9572 62.7326 33.9962 62.7915 34.0223 62.8564C34.0485 62.9214 34.0613 62.9908 34.0599 63.0608V74.2209C34.06 75.106 33.7097 75.9551 33.0858 76.5828C32.4619 77.2104 31.6149 77.5655 30.7299 77.5708Z" fill="#333333"/>
<path d="M33.5401 46.8391C31.8992 46.8365 30.3263 46.1835 29.166 45.0232C28.0057 43.8629 27.3527 42.29 27.3501 40.6492C27.3501 39.0066 28.0019 37.431 29.1625 36.2686C30.323 35.1061 31.8975 34.4519 33.5401 34.4492C35.1836 34.4519 36.7591 35.1059 37.9212 36.2681C39.0834 37.4302 39.7375 39.0056 39.7401 40.6492C39.7375 42.2918 39.083 43.8663 37.9206 45.0269C36.7582 46.1874 35.1827 46.8391 33.5401 46.8391ZM33.5401 35.5093C32.1786 35.5119 30.8738 36.0547 29.912 37.0183C28.9503 37.982 28.4101 39.2877 28.4101 40.6492C28.4101 42.0097 28.9506 43.3145 29.9127 44.2766C30.8747 45.2387 32.1795 45.7793 33.5401 45.7793C34.9016 45.7793 36.2074 45.2391 37.1711 44.2773C38.1347 43.3156 38.6775 42.0106 38.6801 40.6492C38.6801 39.286 38.1386 37.9786 37.1746 37.0146C36.2107 36.0507 34.9033 35.5093 33.5401 35.5093Z" fill="#333333"/>
<path d="M60.6702 77.5698C60.5297 77.5698 60.3949 77.5142 60.2955 77.4148C60.1961 77.3154 60.1402 77.1806 60.1402 77.0401V75.0401C60.1402 74.487 60.0204 73.9403 59.7891 73.438C59.5578 72.9357 59.2204 72.4894 58.8002 72.1299L55.4302 69.25C55.3771 69.2058 55.3334 69.1512 55.3016 69.0899C55.2697 69.0285 55.2505 68.9615 55.2449 68.8926C55.2393 68.8237 55.2475 68.7544 55.269 68.6887C55.2905 68.623 55.325 68.5623 55.3702 68.51C55.4629 68.4044 55.593 68.3391 55.733 68.3279C55.8731 68.3167 56.012 68.3604 56.1202 68.45L59.4902 71.3298C60.0254 71.7888 60.4552 72.358 60.7503 72.9983C61.0454 73.6386 61.1988 74.335 61.2002 75.0401V77.0401C61.2002 77.1097 61.1865 77.1784 61.1598 77.2427C61.1332 77.307 61.0942 77.3656 61.045 77.4148C60.9958 77.464 60.9373 77.5029 60.873 77.5296C60.8087 77.5562 60.7398 77.5698 60.6702 77.5698Z" fill="#333333"/>
<path d="M76.2302 77.5697H45.1002C45.0311 77.5698 44.9626 77.556 44.8988 77.5292C44.8351 77.5025 44.7773 77.4633 44.7289 77.414C44.6805 77.3646 44.6424 77.3061 44.6169 77.2419C44.5913 77.1776 44.5788 77.1091 44.5802 77.04V75.1198C44.5788 74.4056 44.7338 73.6998 45.0344 73.0519C45.335 72.4041 45.7739 71.8299 46.3202 71.3698L49.7502 68.4899C49.8581 68.4022 49.9961 68.3604 50.1345 68.3735C50.2729 68.3865 50.4007 68.4533 50.4902 68.5597C50.5797 68.668 50.6235 68.8069 50.6123 68.9469C50.6011 69.087 50.5358 69.2171 50.4302 69.3097L47.0002 72.1899C46.5698 72.5469 46.2238 72.9948 45.9869 73.5014C45.7501 74.008 45.6282 74.5606 45.6302 75.1198V76.5099H76.2302C76.2998 76.5099 76.3687 76.5236 76.433 76.5502C76.4973 76.5768 76.5557 76.616 76.605 76.6652C76.6542 76.7144 76.6932 76.7728 76.7198 76.8371C76.7465 76.9014 76.7602 76.9704 76.7602 77.04C76.7602 77.1805 76.7043 77.3153 76.605 77.4147C76.5056 77.5141 76.3708 77.5697 76.2302 77.5697Z" fill="#333333"/>
<path d="M52.9701 70.6094C50.1501 70.6094 47.8501 67.9094 47.8501 64.6094C47.8501 61.3094 50.1501 58.6094 52.9701 58.6094C55.7901 58.6094 58.1001 61.2994 58.1001 64.6094C58.1001 67.9194 55.7601 70.6094 52.9701 70.6094ZM52.9701 59.6094C50.7301 59.6094 48.9101 61.8294 48.9101 64.6094C48.9101 67.3894 50.7301 69.5593 52.9701 69.5593C55.2101 69.5593 57.0401 67.3394 57.0401 64.6094C57.0401 61.8794 55.1801 59.6494 52.9701 59.6494V59.6094Z" fill="#333333"/>
<path d="M76.23 77.5693C76.0895 77.5693 75.9547 77.5137 75.8553 77.4143C75.7559 77.3149 75.7 77.1801 75.7 77.0395V75.0395C75.7 74.4865 75.5802 73.9398 75.3489 73.4375C75.1176 72.9352 74.7802 72.4889 74.36 72.1294L71.0001 69.2495C70.947 69.2052 70.9032 69.1507 70.8713 69.0893C70.8395 69.028 70.8203 68.961 70.8147 68.8921C70.8091 68.8232 70.8173 68.7539 70.8388 68.6882C70.8603 68.6225 70.8947 68.5617 70.94 68.5095C70.9843 68.4564 71.0387 68.4127 71.1001 68.3808C71.1615 68.349 71.2285 68.3296 71.2974 68.324C71.3663 68.3184 71.4356 68.3266 71.5013 68.3481C71.567 68.3697 71.6278 68.4042 71.68 68.4495L75.05 71.3293C75.5873 71.7866 76.0185 72.3554 76.3138 72.9961C76.6091 73.6368 76.7613 74.3341 76.76 75.0395V77.0395C76.76 77.1801 76.7042 77.3149 76.6048 77.4143C76.5054 77.5137 76.3706 77.5693 76.23 77.5693Z" fill="#333333"/>
<path d="M60.6702 75.6508C60.5296 75.6508 60.3948 75.5949 60.2954 75.4955C60.196 75.3962 60.1401 75.2614 60.1401 75.1208C60.1387 74.4066 60.2938 73.7008 60.5944 73.0529C60.895 72.4051 61.3339 71.8309 61.8801 71.3708L65.3102 68.4909C65.4206 68.405 65.5597 68.3644 65.699 68.3774C65.8384 68.3904 65.9675 68.4558 66.0602 68.5607C66.1485 68.6702 66.1906 68.8101 66.1775 68.9501C66.1644 69.0902 66.0972 69.2195 65.9902 69.3107L62.5602 72.1909C62.1311 72.5484 61.7866 72.9967 61.5514 73.5034C61.3162 74.01 61.1963 74.5623 61.2001 75.1208C61.2001 75.2614 61.1443 75.3962 61.0449 75.4955C60.9455 75.5949 60.8107 75.6508 60.6702 75.6508Z" fill="#333333"/>
<path d="M68.5001 70.6094C65.6701 70.6094 63.3701 67.9094 63.3701 64.6094C63.3701 61.3094 65.6701 58.6094 68.5001 58.6094C71.3301 58.6094 73.6201 61.2994 73.6201 64.6094C73.6201 67.9194 71.3201 70.6094 68.5001 70.6094ZM68.5001 59.6094C66.2501 59.6094 64.4301 61.8294 64.4301 64.6094C64.4301 67.3894 66.2501 69.5593 68.5001 69.5593C70.7501 69.5593 72.5601 67.3394 72.5601 64.6094C72.5601 61.8794 70.7401 59.6494 68.5001 59.6494V59.6094Z" fill="#333333"/>
<path d="M47.2202 43.1296L44.8301 38.1296H38.3002C38.2306 38.1296 38.1617 38.116 38.0974 38.0894C38.033 38.0627 37.9746 38.0236 37.9254 37.9744C37.8762 37.9251 37.8371 37.8668 37.8105 37.8025C37.7839 37.7382 37.7701 37.6692 37.7701 37.5996C37.7701 37.459 37.826 37.3242 37.9254 37.2249C38.0248 37.1255 38.1596 37.0696 38.3002 37.0696H45.4902L47.2202 40.6897L48.9401 37.0696H60.9401C61.4326 37.067 61.9042 36.8702 62.2524 36.522C62.6007 36.1737 62.7975 35.7022 62.8002 35.2097V25.9297C62.8002 25.4364 62.6042 24.9633 62.2554 24.6145C61.9066 24.2657 61.4334 24.0696 60.9401 24.0696H36.0602C35.5669 24.0696 35.0938 24.2657 34.7449 24.6145C34.3961 24.9633 34.2001 25.4364 34.2001 25.9297V34.9897C34.2001 35.1303 34.1443 35.2651 34.0449 35.3645C33.9455 35.4639 33.8107 35.5198 33.6702 35.5198C33.5296 35.5198 33.3948 35.4639 33.2954 35.3645C33.196 35.2651 33.1401 35.1303 33.1401 34.9897V25.9297C33.1401 25.1553 33.4478 24.4126 33.9954 23.865C34.543 23.3174 35.2857 23.0098 36.0602 23.0098H60.9401C61.7146 23.0098 62.4573 23.3174 63.0049 23.865C63.5525 24.4126 63.8602 25.1553 63.8602 25.9297V35.1897C63.8602 35.9641 63.5525 36.7068 63.0049 37.2544C62.4573 37.802 61.7146 38.1096 60.9401 38.1096H49.6401L47.2202 43.1296Z" fill="#333333"/>
<path d="M36.3598 77.5698C35.4757 77.5672 34.6287 77.2142 34.0045 76.5881C33.3803 75.962 33.0298 75.1141 33.0298 74.23V71.8699C33.0298 71.7293 33.0856 71.5945 33.185 71.4951C33.2844 71.3957 33.4192 71.3398 33.5598 71.3398C33.7004 71.3398 33.8352 71.3957 33.9346 71.4951C34.034 71.5945 34.0898 71.7293 34.0898 71.8699V74.23C34.0898 74.8329 34.3286 75.4113 34.754 75.8386C35.1795 76.2659 35.7568 76.5074 36.3598 76.51C36.9645 76.51 37.5444 76.2696 37.972 75.842C38.3996 75.4145 38.6398 74.8347 38.6398 74.23C38.6398 74.1604 38.6535 74.0914 38.6801 74.0271C38.7067 73.9628 38.7458 73.9044 38.795 73.8552C38.8443 73.806 38.9027 73.7669 38.967 73.7402C39.0313 73.7136 39.1002 73.7 39.1698 73.7C39.2394 73.7 39.3083 73.7136 39.3726 73.7402C39.4369 73.7669 39.4953 73.806 39.5446 73.8552C39.5938 73.9044 39.6328 73.9628 39.6594 74.0271C39.6861 74.0914 39.6998 74.1604 39.6998 74.23C39.6971 75.115 39.3444 75.9631 38.7186 76.5889C38.0928 77.2147 37.2448 77.5672 36.3598 77.5698Z" fill="#333333"/>
<path d="M42.4001 31.5198C42.864 31.5198 43.2401 31.1438 43.2401 30.6798C43.2401 30.2159 42.864 29.8398 42.4001 29.8398C41.9361 29.8398 41.5601 30.2159 41.5601 30.6798C41.5601 31.1438 41.9361 31.5198 42.4001 31.5198Z" fill="white"/>
<path d="M47.82 31.5198C48.2839 31.5198 48.66 31.1438 48.66 30.6798C48.66 30.2159 48.2839 29.8398 47.82 29.8398C47.3561 29.8398 46.98 30.2159 46.98 30.6798C46.98 31.1438 47.3561 31.5198 47.82 31.5198Z" fill="white"/>
<path d="M53.2399 31.5198C53.7038 31.5198 54.0799 31.1438 54.0799 30.6798C54.0799 30.2159 53.7038 29.8398 53.2399 29.8398C52.776 29.8398 52.3999 30.2159 52.3999 30.6798C52.3999 31.1438 52.776 31.5198 53.2399 31.5198Z" fill="white"/>
</g>
<defs>
<clipPath id="clip0_1928_379603">
<rect width="52.76" height="54.57" fill="white" transform="translate(24 23)"/>
</clipPath>
</defs>
</svg>
