<svg width="100" height="100" viewBox="0 0 100 100" fill="none" xmlns="http://www.w3.org/2000/svg">
<circle cx="50" cy="50" r="50" fill="#F2F6FB"/>
<g clip-path="url(#clip0_1075_171961)">
<path d="M72.1099 57.8086H47.4199V69.4386H72.1099V57.8086Z" fill="white"/>
<path d="M49.5808 38.4297H26.8008V65.4897H49.5808V38.4297Z" fill="white"/>
<path d="M45.6809 30.6016H30.7109V37.8716H45.6809V30.6016Z" fill="white"/>
<path d="M34.1694 49.3203H33.1094V50.5303H34.1694V49.3203Z" fill="#235AB0"/>
<path d="M34.1694 45.5195H33.1094V46.7295H34.1694V45.5195Z" fill="#235AB0"/>
<path d="M34.1694 41.8906H33.1094V43.1006H34.1694V41.8906Z" fill="#235AB0"/>
<path d="M38.6694 49.3203H37.6094V50.5303H38.6694V49.3203Z" fill="#235AB0"/>
<path d="M38.6694 45.5195H37.6094V46.7295H38.6694V45.5195Z" fill="#235AB0"/>
<path d="M38.6694 41.8906H37.6094V43.1006H38.6694V41.8906Z" fill="#235AB0"/>
<path d="M43.1108 49.3203H42.0508V50.5303H43.1108V49.3203Z" fill="#235AB0"/>
<path d="M43.1108 45.5195H42.0508V46.7295H43.1108V45.5195Z" fill="#235AB0"/>
<path d="M43.1108 41.8906H42.0508V43.1006H43.1108V41.8906Z" fill="#235AB0"/>
<path d="M41.0795 33.5781H40.0195V34.7881H41.0795V33.5781Z" fill="#235AB0"/>
<path d="M36.2495 33.5781H35.1895V34.7881H36.2495V33.5781Z" fill="#235AB0"/>
<path d="M34.1694 60.5508H33.1094V61.7608H34.1694V60.5508Z" fill="#235AB0"/>
<path d="M34.1694 56.75H33.1094V57.96H34.1694V56.75Z" fill="#235AB0"/>
<path d="M34.1694 53.1211H33.1094V54.3311H34.1694V53.1211Z" fill="#235AB0"/>
<path d="M38.6694 60.5508H37.6094V61.7608H38.6694V60.5508Z" fill="#235AB0"/>
<path d="M38.6694 56.75H37.6094V57.96H38.6694V56.75Z" fill="#235AB0"/>
<path d="M38.6694 53.1211H37.6094V54.3311H38.6694V53.1211Z" fill="#235AB0"/>
<path d="M43.1108 60.5508H42.0508V61.7608H43.1108V60.5508Z" fill="#235AB0"/>
<path d="M43.1108 56.75H42.0508V57.96H43.1108V56.75Z" fill="#235AB0"/>
<path d="M43.1108 53.1211H42.0508V54.3311H43.1108V53.1211Z" fill="#235AB0"/>
<path d="M47.0703 66.4209H28.0703C27.5399 66.4209 27.0312 66.2103 26.6561 65.8352C26.281 65.4601 26.0703 64.9513 26.0703 64.4209V39.4709C26.0703 39.028 26.2463 38.6032 26.5594 38.29C26.8726 37.9769 27.2974 37.8008 27.7403 37.8008H48.6303C48.8496 37.8008 49.0668 37.8441 49.2694 37.928C49.472 38.0119 49.6561 38.135 49.8112 38.29C49.9663 38.4451 50.0893 38.6292 50.1732 38.8318C50.2571 39.0344 50.3003 39.2516 50.3003 39.4709V50.021C50.3003 50.0906 50.2866 50.1593 50.26 50.2236C50.2333 50.2879 50.1943 50.3465 50.1451 50.3958C50.0959 50.445 50.0374 50.4839 49.9731 50.5105C49.9088 50.5371 49.8399 50.5508 49.7703 50.5508C49.7007 50.5508 49.6318 50.5371 49.5675 50.5105C49.5032 50.4839 49.4448 50.445 49.3955 50.3958C49.3463 50.3465 49.3073 50.2879 49.2807 50.2236C49.254 50.1593 49.2403 50.0906 49.2403 50.021V39.4709C49.2377 39.31 49.1726 39.1563 49.0588 39.0425C48.945 38.9286 48.7913 38.8634 48.6303 38.8608H27.7403C27.6602 38.8608 27.5809 38.8766 27.5069 38.9072C27.4329 38.9379 27.3656 38.9829 27.309 39.0396C27.2523 39.0962 27.2074 39.1635 27.1767 39.2375C27.1461 39.3116 27.1303 39.3908 27.1303 39.4709V64.4209C27.1303 64.6861 27.2357 64.9404 27.4232 65.1279C27.6107 65.3155 27.8651 65.4209 28.1303 65.4209H47.1303C47.2709 65.4209 47.4057 65.4768 47.5051 65.5762C47.6045 65.6756 47.6603 65.8104 47.6603 65.9509C47.6529 66.0207 47.6316 66.0882 47.5979 66.1497C47.5641 66.2112 47.5184 66.2654 47.4635 66.3091C47.4087 66.3528 47.3456 66.3854 47.2781 66.4045C47.2106 66.4237 47.14 66.4292 47.0703 66.4209Z" fill="#333333"/>
<path d="M45.8291 38.8298C45.6886 38.8298 45.5538 38.774 45.4544 38.6746C45.355 38.5752 45.2991 38.4404 45.2991 38.2998V31.5999C45.2965 31.4557 45.2374 31.3185 45.1346 31.2175C45.0317 31.1165 44.8933 31.0598 44.7491 31.0598H31.4691C31.3982 31.0598 31.328 31.0739 31.2625 31.1011C31.197 31.1282 31.1374 31.1679 31.0873 31.218C31.0372 31.2682 30.9974 31.3278 30.9702 31.3933C30.9431 31.4588 30.9291 31.5289 30.9291 31.5999V38.2998C30.9291 38.4404 30.8733 38.5752 30.7739 38.6746C30.6745 38.774 30.5397 38.8298 30.3991 38.8298C30.2586 38.8298 30.1238 38.774 30.0244 38.6746C29.925 38.5752 29.8691 38.4404 29.8691 38.2998V31.5999C29.8691 31.1755 30.0377 30.7686 30.3378 30.4685C30.6378 30.1684 31.0448 30 31.4691 30H44.7491C45.1744 30 45.5824 30.1682 45.8841 30.468C46.1857 30.7678 46.3565 31.1746 46.3591 31.5999V38.2998C46.3591 38.4404 46.3033 38.5752 46.2039 38.6746C46.1045 38.774 45.9697 38.8298 45.8291 38.8298Z" fill="#333333"/>
<path d="M70.7392 70.261H48.9492C48.4188 70.261 47.9101 70.0501 47.535 69.675C47.1599 69.3 46.9492 68.7914 46.9492 68.261V57.8308C46.9492 57.7612 46.9629 57.6925 46.9896 57.6282C47.0162 57.5639 47.0552 57.5053 47.1045 57.4561C47.1537 57.4068 47.2121 57.3679 47.2764 57.3413C47.3407 57.3147 47.4096 57.3008 47.4792 57.3008C47.5484 57.3008 47.6168 57.3146 47.6806 57.3413C47.7443 57.3681 47.8021 57.4074 47.8505 57.4568C47.8989 57.5061 47.937 57.5647 47.9625 57.6289C47.9881 57.6932 48.0006 57.7617 47.9992 57.8308V68.261C47.9992 68.5262 48.1046 68.7805 48.2921 68.968C48.4797 69.1556 48.734 69.261 48.9992 69.261H70.7392C71.0044 69.261 71.2588 69.1556 71.4463 68.968C71.6339 68.7805 71.7392 68.5262 71.7392 68.261V57.8308C71.7392 57.7612 71.7529 57.6925 71.7796 57.6282C71.8062 57.5639 71.8452 57.5053 71.8945 57.4561C71.9437 57.4068 72.0021 57.3679 72.0664 57.3413C72.1307 57.3147 72.1996 57.3008 72.2692 57.3008C72.3388 57.3008 72.4077 57.3147 72.472 57.3413C72.5363 57.3679 72.5948 57.4068 72.644 57.4561C72.6932 57.5053 72.7322 57.5639 72.7589 57.6282C72.7855 57.6925 72.7992 57.7612 72.7992 57.8308V68.261C72.7993 68.5288 72.7457 68.7936 72.6414 69.0403C72.5372 69.2869 72.3845 69.5103 72.1924 69.6968C72.0003 69.8833 71.7726 70.0293 71.523 70.1262C71.2734 70.2231 71.0069 70.269 70.7392 70.261Z" fill="#333333"/>
<path d="M47.1791 50.1197L46.5391 51.0997L46.6991 57.3597L49.7891 58.2797L58.1491 58.8197L58.5291 57.1497L61.1191 57.3597L61.4991 58.8197L73.0791 57.8097L72.9291 50.9897L71.8991 49.9297L47.1791 50.1197Z" fill="#235AB0"/>
<path d="M61.3793 63.4291H58.3093C58.1687 63.4291 58.0339 63.3732 57.9345 63.2738C57.8351 63.1744 57.7793 63.0396 57.7793 62.899C57.7793 62.8299 57.7931 62.7614 57.8198 62.6976C57.8466 62.6339 57.8858 62.5761 57.9351 62.5277C57.9845 62.4793 58.043 62.4412 58.1072 62.4156C58.1715 62.3901 58.2402 62.3777 58.3093 62.379H61.3793C61.4484 62.3777 61.5171 62.3901 61.5814 62.4156C61.6456 62.4412 61.7041 62.4793 61.7535 62.5277C61.8028 62.5761 61.842 62.6339 61.8688 62.6976C61.8955 62.7614 61.9093 62.8299 61.9093 62.899C61.9093 63.0396 61.8535 63.1744 61.7541 63.2738C61.6547 63.3732 61.5199 63.4291 61.3793 63.4291Z" fill="#333333"/>
<path d="M65.6008 50.6592C65.5316 50.6592 65.4632 50.6454 65.3994 50.6187C65.3357 50.5919 65.2779 50.5528 65.2295 50.5034C65.1811 50.4541 65.143 50.3955 65.1175 50.3313C65.0919 50.2671 65.0795 50.1983 65.0808 50.1292V47.9592C65.0808 47.7736 65.007 47.5954 64.8758 47.4641C64.7445 47.3328 64.5664 47.2593 64.3808 47.2593H55.3108C55.1251 47.2593 54.9471 47.3328 54.8158 47.4641C54.6845 47.5954 54.6108 47.7736 54.6108 47.9592V50.1292C54.6108 50.2697 54.5549 50.4045 54.4555 50.5039C54.3561 50.6033 54.2213 50.6592 54.0808 50.6592C53.9402 50.6592 53.8054 50.6033 53.706 50.5039C53.6066 50.4045 53.5508 50.2697 53.5508 50.1292V47.9592C53.5508 47.4924 53.7362 47.0447 54.0663 46.7146C54.3963 46.3845 54.844 46.1992 55.3108 46.1992H64.3808C64.6114 46.1992 64.8398 46.2447 65.0528 46.3333C65.2658 46.4218 65.4591 46.5518 65.6218 46.7153C65.7844 46.8789 65.9131 47.0729 66.0005 47.2864C66.0878 47.4999 66.1321 47.7286 66.1308 47.9592V50.1292C66.1321 50.1991 66.1194 50.2686 66.0932 50.3335C66.067 50.3984 66.0281 50.4576 65.9786 50.5071C65.9291 50.5566 65.8701 50.5954 65.8052 50.6216C65.7403 50.6477 65.6708 50.6605 65.6008 50.6592Z" fill="#333333"/>
<path d="M61.3795 59.3296C61.2406 59.3296 61.1073 59.2752 61.0082 59.178C60.9091 59.0807 60.8521 58.9484 60.8495 58.8096C60.8494 58.6698 60.9035 58.5355 61.0005 58.4348C61.0975 58.3341 61.2298 58.275 61.3695 58.2698C65.1256 58.2122 68.8724 57.8779 72.5795 57.2698V51.2698C72.5808 51.202 72.5686 51.1346 72.5436 51.0715C72.5185 51.0085 72.4812 50.951 72.4337 50.9026C72.3862 50.8542 72.3295 50.8156 72.267 50.7893C72.2044 50.7631 72.1373 50.7497 72.0695 50.7498H47.6695C47.6017 50.7497 47.5345 50.7631 47.472 50.7893C47.4094 50.8156 47.3528 50.8542 47.3053 50.9026C47.2578 50.951 47.2204 51.0085 47.1954 51.0715C47.1704 51.1346 47.1581 51.202 47.1595 51.2698V57.3696C50.8531 57.9506 54.5814 58.2846 58.3195 58.3696C58.4592 58.3748 58.5915 58.434 58.6885 58.5347C58.7854 58.6354 58.8396 58.7698 58.8395 58.9097C58.8344 59.0477 58.7766 59.1784 58.678 59.2751C58.5795 59.3719 58.4476 59.4272 58.3095 59.4297C54.4986 59.3489 50.6986 58.9912 46.9395 58.3596C46.7047 58.3191 46.4921 58.1963 46.3399 58.0129C46.1877 57.8296 46.106 57.5979 46.1095 57.3596V51.2598C46.1082 51.0528 46.1478 50.8474 46.2261 50.6558C46.3044 50.4641 46.4199 50.2899 46.5658 50.1431C46.7117 49.9962 46.8852 49.8796 47.0763 49.8C47.2675 49.7205 47.4725 49.6797 47.6795 49.6797H72.0295C72.4468 49.6823 72.8461 49.85 73.1402 50.146C73.4344 50.442 73.5995 50.8425 73.5995 51.2598V57.3596C73.6029 57.5979 73.5212 57.8296 73.3691 58.0129C73.2169 58.1963 73.0043 58.3191 72.7695 58.3596C69.0103 58.9907 65.2104 59.3484 61.3995 59.4297L61.3795 59.3296Z" fill="#333333"/>
<path d="M60.7693 60.9016H58.9193C58.616 60.899 58.3261 60.7767 58.1126 60.5613C57.8991 60.3459 57.7793 60.055 57.7793 59.7517V57.9016C57.7793 57.7519 57.8088 57.6036 57.8661 57.4653C57.9234 57.327 58.0073 57.2013 58.1132 57.0955C58.2191 56.9896 58.3447 56.9057 58.483 56.8484C58.6214 56.7911 58.7696 56.7617 58.9193 56.7617H60.7693C61.0716 56.7617 61.3616 56.8817 61.5754 57.0955C61.7892 57.3093 61.9093 57.5993 61.9093 57.9016V59.7517C61.9093 60.055 61.7895 60.3459 61.576 60.5613C61.3625 60.7767 61.0726 60.899 60.7693 60.9016ZM58.9193 57.8215C58.8981 57.8215 58.8777 57.83 58.8627 57.845C58.8477 57.86 58.8393 57.8804 58.8393 57.9016V59.7517C58.8379 59.763 58.8389 59.7745 58.8423 59.7854C58.8456 59.7963 58.8513 59.8062 58.8589 59.8147C58.8665 59.8232 58.8758 59.8301 58.8862 59.8347C58.8966 59.8393 58.9079 59.8416 58.9193 59.8416H60.7693C60.7914 59.8391 60.8118 59.8286 60.8266 59.812C60.8413 59.7954 60.8494 59.7739 60.8493 59.7517V57.9016C60.8471 57.8811 60.838 57.862 60.8234 57.8474C60.8089 57.8329 60.7898 57.8237 60.7693 57.8215H58.9193Z" fill="#333333"/>
</g>
<defs>
<clipPath id="clip0_1075_171961">
<rect width="47.59" height="40.26" fill="white" transform="translate(26 30)"/>
</clipPath>
</defs>
</svg>
