<svg width="100" height="100" viewBox="0 0 100 100" fill="none" xmlns="http://www.w3.org/2000/svg">
<circle cx="50" cy="50" r="50" fill="#F2F6FB"/>
<g clip-path="url(#clip0_940_164373)">
<path d="M33.1172 29.6172H64.0455V32.7204H67.2772V62.8088C67.2772 62.8088 67.1722 70.1238 59.9622 70.1238H35.7655V66.8921H33.1172V29.6172Z" fill="white"/>
<path d="M43.4766 29.793V34.3315C43.4766 34.3315 44.3982 36.7815 46.3232 34.6231C46.4885 34.1663 46.7971 33.7751 47.2029 33.508C47.6087 33.241 48.09 33.1125 48.5749 33.1414C49.0575 33.1169 49.5354 33.2474 49.9384 33.514C50.3415 33.7806 50.6486 34.1694 50.8149 34.6231C51.0386 34.9716 51.3738 35.2339 51.7658 35.3674C52.1577 35.5009 52.5834 35.4975 52.9732 35.358C53.4848 34.5339 53.733 33.5736 53.6849 32.6048L53.7549 29.793H43.4766Z" fill="#235AB0"/>
<path d="M51.9241 48.6914C53.513 49.5412 55.0482 50.4882 56.5208 51.5266C56.8287 51.7722 57.093 52.068 57.3024 52.4016C57.6818 53.0317 57.8797 53.7545 57.8741 54.49V57.6866H39.3008" stroke="#333333" stroke-width="1.06" stroke-miterlimit="10" stroke-linecap="round"/>
<path d="M45.2395 48.6914C43.6505 49.5412 42.1154 50.4882 40.6428 51.5266C40.3376 51.7751 40.0738 52.0704 39.8611 52.4016C39.4853 53.0327 39.2914 53.7555 39.3011 54.49V57.6866" stroke="#333333" stroke-width="1.06" stroke-miterlimit="10" stroke-linecap="round"/>
<path d="M53.2552 44.6341C53.2552 47.8424 51.1669 50.4674 48.5885 50.4674C46.0102 50.4674 43.9219 47.8658 43.9219 44.6341C43.9219 41.4024 46.0102 38.8008 48.5885 38.8008C51.1669 38.8008 53.2552 41.4258 53.2552 44.6341Z" stroke="#333333" stroke-width="1.06" stroke-miterlimit="10" stroke-linecap="round"/>
<path d="M52.9967 29.6172H44.165C44.0736 29.6172 43.9832 29.6354 43.8989 29.6707C43.8146 29.7061 43.7382 29.7577 43.6741 29.8228C43.61 29.888 43.5596 29.9653 43.5257 30.0501C43.4918 30.135 43.4751 30.2256 43.4767 30.317V34.1087C43.4766 34.4965 43.6299 34.8687 43.9031 35.144C44.1762 35.4194 44.5472 35.5756 44.935 35.5787V35.5787C45.2339 35.5753 45.5248 35.4824 45.7702 35.3118C46.0157 35.1413 46.2043 34.9011 46.3117 34.6222C46.4998 34.1813 46.8137 33.8054 47.2142 33.5419C47.6146 33.2783 48.0839 33.1388 48.5633 33.1405C49.0411 33.1396 49.5085 33.2797 49.907 33.5433C50.3055 33.8069 50.6173 34.1822 50.8033 34.6222C50.9134 34.8994 51.1026 35.1377 51.3475 35.3078C51.5923 35.478 51.8819 35.5722 52.18 35.5787V35.5787C52.5689 35.5756 52.9411 35.4199 53.2161 35.1449C53.4911 34.8699 53.647 34.4976 53.65 34.1087V30.317C53.6504 30.1392 53.5831 29.9679 53.4617 29.8379C53.3404 29.7079 53.1741 29.629 52.9967 29.6172V29.6172Z" stroke="#333333" stroke-width="1.06" stroke-linecap="round" stroke-linejoin="round"/>
<path d="M64.0456 32.7227H67.2773V62.811C67.2773 64.7511 66.5066 66.6117 65.1348 67.9836C63.7629 69.3554 61.9023 70.1261 59.9623 70.1261H35.7656V66.8944" stroke="#333333" stroke-width="1.06" stroke-linecap="round" stroke-linejoin="round"/>
<path d="M44.8772 29.6172H33.1172V66.8921H57.4422C57.9806 66.8921 58.4969 66.6784 58.8776 66.2977C59.2583 65.917 59.4722 65.4005 59.4722 64.8621V62.3189H62.0155C62.5539 62.3189 63.0703 62.1049 63.451 61.7242C63.8316 61.3435 64.0455 60.8273 64.0455 60.2889V29.6172H51.5272" stroke="#333333" stroke-width="1.06" stroke-linecap="round" stroke-linejoin="round"/>
</g>
<defs>
<clipPath id="clip0_940_164373">
<rect width="35.3967" height="41.7317" fill="white" transform="translate(32.5 29)"/>
</clipPath>
</defs>
</svg>
