<svg width="16" height="16" viewBox="0 0 16 16" fill="none" xmlns="http://www.w3.org/2000/svg">
<path d="M9.13979 9.55469L7 7.41618L9.41938 5.55469L11 7.1364L9.13979 9.55469Z" stroke="#666666" stroke-linecap="round" stroke-linejoin="round"/>
<path d="M9.18359 3L13.2168 7.0332L12.8989 7.3511C12.4208 7.82919 11.5701 7.75445 10.9999 7.18425L9.03553 5.21989C8.46533 4.64969 8.39059 3.79898 8.86868 3.32088L9.18658 3.00299L9.18359 3Z" fill="white" stroke="#666666" stroke-linecap="round" stroke-linejoin="round"/>
<path d="M8.83343 12.7319L3.76713 7.66556L4.12507 7.30762C4.80342 6.62927 5.90479 6.62927 6.58313 7.30762L9.19388 9.91837C9.87223 10.5967 9.87223 11.6981 9.19388 12.3764L8.83594 12.7344L8.83343 12.7319Z" stroke="#666666" stroke-linecap="round" stroke-linejoin="round"/>
<path d="M6 10.5547L3 13.5547" stroke="#666666" stroke-linecap="round" stroke-linejoin="round"/>
</svg>
