<svg width="104" height="100" viewBox="0 0 104 100" fill="none" xmlns="http://www.w3.org/2000/svg">
<ellipse cx="51.625" cy="50" rx="51.625" ry="50" fill="#F2F6FB"/>
<g clip-path="url(#clip0_1119_179923)">
<path d="M39.0625 60.0098V31.4785H64.5V65.4785H45.8333L39.0625 60.0098Z" fill="white"/>
<path d="M35.5827 44.9583L34.4473 43.6354L36.6348 41.875L37.916 42.8229L35.5827 44.9583Z" fill="#235AB0"/>
<path d="M36.9473 46.1667L39.0827 44.0625L48.3952 53.4062L48.666 54.0833L46.5827 55.875L36.9473 46.1667Z" fill="#235AB0"/>
<path d="M63.7194 46.2598L61.834 48.1348L67.4381 53.8327H68.6986L69.5215 53.2702V51.9785L63.7194 46.2598Z" fill="#235AB0"/>
<path d="M39.5417 41.3648C39.4154 41.3621 39.2951 41.3106 39.2058 41.2213C39.1165 41.132 39.0652 41.0119 39.0625 40.8856V31.5106C39.0625 31.3835 39.113 31.2615 39.2028 31.1716C39.2927 31.0818 39.4146 31.0312 39.5417 31.0312H64.0312C64.1583 31.0312 64.2802 31.0818 64.3701 31.1716C64.4599 31.2615 64.5104 31.3835 64.5104 31.5106V36.4481C64.5077 36.5734 64.456 36.6926 64.3664 36.7803C64.2769 36.8679 64.1565 36.9168 64.0312 36.9168C63.906 36.9168 63.7856 36.8679 63.6961 36.7803C63.6065 36.6926 63.5548 36.5734 63.5521 36.4481V31.9898H40.0208V40.9167C40.0129 41.0382 39.9589 41.1524 39.8699 41.2356C39.7809 41.3188 39.6635 41.365 39.5417 41.3648Z" fill="#333333"/>
<path d="M64.0312 66.5828H45.6354C45.5113 66.5806 45.3925 66.5322 45.3021 66.4473L39.2083 60.3537C39.1162 60.2628 39.0638 60.1392 39.0625 60.0098V52.0829C39.0652 51.9566 39.1165 51.8362 39.2058 51.7469C39.2951 51.6577 39.4154 51.6062 39.5417 51.6035C39.6687 51.6035 39.7906 51.654 39.8805 51.7439C39.9704 51.8338 40.0208 51.9558 40.0208 52.0829V59.812L45.8333 65.635H63.5417V52.5516C63.5443 52.4253 63.5956 52.3049 63.6849 52.2156C63.7742 52.1264 63.8946 52.0751 64.0208 52.0725C64.1471 52.0751 64.2674 52.1264 64.3567 52.2156C64.446 52.3049 64.4973 52.4253 64.5 52.5516V66.0933C64.5014 66.1562 64.4903 66.2187 64.4675 66.2774C64.4447 66.336 64.4106 66.3896 64.367 66.4351C64.3235 66.4805 64.2715 66.517 64.2138 66.5424C64.1562 66.5677 64.0942 66.5815 64.0312 66.5828Z" fill="#333333"/>
<path d="M45.6356 66.5834C45.5738 66.5844 45.5124 66.5731 45.4551 66.5498C45.3978 66.5265 45.3458 66.4917 45.3023 66.4478L39.2085 60.3542C39.1417 60.2873 39.0962 60.2022 39.0777 60.1096C39.0591 60.0169 39.0684 59.9208 39.1044 59.8334C39.1404 59.7462 39.2009 59.6713 39.2785 59.6177C39.3561 59.5641 39.4476 59.5341 39.5418 59.5312H45.6981C45.8274 59.5325 45.951 59.5849 46.0418 59.677C46.1286 59.7663 46.1771 59.8859 46.1773 60.0104V66.1042C46.1786 66.1994 46.1516 66.2928 46.0997 66.3725C46.0477 66.4523 45.9732 66.5148 45.8856 66.5521C45.8055 66.5803 45.7202 66.5909 45.6356 66.5834ZM40.6981 60.4895L45.1668 64.9583V60.4895H40.6981Z" fill="#333333"/>
<path d="M68.1766 54.416C67.9368 54.4173 67.6992 54.3709 67.4775 54.2797C67.2558 54.1885 67.0544 54.0543 66.8849 53.8848L61.6766 48.6764C61.606 48.6093 61.5498 48.5284 61.5114 48.4389C61.473 48.3494 61.4531 48.253 61.4531 48.1556C61.4531 48.0582 61.473 47.9616 61.5114 47.872C61.5498 47.7825 61.606 47.7019 61.6766 47.6348L63.2078 46.0931C63.3476 45.9582 63.5344 45.8828 63.7287 45.8828C63.923 45.8828 64.1097 45.9582 64.2495 46.0931L69.4578 51.3015C69.6274 51.4709 69.7617 51.6723 69.8529 51.894C69.9441 52.1157 69.9904 52.3534 69.9891 52.5931C69.9904 52.8329 69.9441 53.0703 69.8529 53.292C69.7617 53.5137 69.6274 53.7153 69.4578 53.8848C69.1181 54.2247 68.6572 54.4158 68.1766 54.416ZM62.4995 48.166L67.562 53.2284C67.727 53.3875 67.9473 53.4766 68.1766 53.4766C68.4058 53.4766 68.6261 53.3875 68.7912 53.2284C68.8722 53.1482 68.9361 53.0525 68.9791 52.9469C69.0221 52.8412 69.0432 52.728 69.0412 52.614C69.0426 52.5 69.0212 52.3869 68.9783 52.2813C68.9353 52.1758 68.8717 52.0799 68.7912 51.9993L63.7287 46.9367L62.4995 48.166Z" fill="#333333"/>
<path d="M62.1763 48.2806C62.1136 48.2809 62.0516 48.2683 61.9941 48.2432C61.9367 48.2181 61.8852 48.1811 61.8429 48.1348L60.6763 46.968C60.6322 46.9245 60.5972 46.8727 60.5733 46.8155C60.5494 46.7582 60.5371 46.6969 60.5371 46.6349C60.5371 46.5729 60.5494 46.5113 60.5733 46.4541C60.5972 46.3969 60.6322 46.3451 60.6763 46.3015C60.7661 46.2118 60.8879 46.1614 61.0148 46.1614C61.1418 46.1614 61.2635 46.2118 61.3534 46.3015L62.1763 47.1245L62.7075 46.5932L61.8742 45.7702C61.7845 45.6804 61.7341 45.5587 61.7341 45.4317C61.7341 45.3048 61.7845 45.1828 61.8742 45.093C61.964 45.0033 62.0858 44.9531 62.2127 44.9531C62.3397 44.9531 62.4614 45.0033 62.5513 45.093L63.7179 46.2598C63.7628 46.3026 63.7982 46.3544 63.8215 46.4119C63.8448 46.4693 63.8557 46.5312 63.8534 46.5932C63.8547 46.6566 63.8433 46.7196 63.8201 46.7786C63.7969 46.8376 63.7621 46.8913 63.7179 46.9368L62.5096 48.1348C62.4674 48.1811 62.4158 48.2181 62.3584 48.2432C62.301 48.2683 62.239 48.2809 62.1763 48.2806Z" fill="#333333"/>
<path d="M57.1569 48.4162C56.2607 48.4186 55.3729 48.243 54.545 47.8996C53.7171 47.5563 52.9655 47.052 52.334 46.416C51.698 45.7845 51.1938 45.0331 50.8505 44.2052C50.5071 43.3773 50.3316 42.4895 50.334 41.5932C50.3302 40.6952 50.5051 39.8053 50.8484 38.9755C51.1918 38.1458 51.6968 37.3925 52.334 36.7597C52.9655 36.1237 53.7171 35.6196 54.545 35.2763C55.3729 34.933 56.2607 34.7574 57.1569 34.7598C58.0548 34.7571 58.9443 34.9325 59.7739 35.2758C60.6035 35.6191 61.3569 36.1234 61.9903 36.7597C62.6257 37.3939 63.1294 38.1473 63.4727 38.9768C63.8159 39.8063 63.9918 40.6955 63.9903 41.5932C63.9904 42.4891 63.8138 43.3761 63.4707 44.2037C63.1275 45.0313 62.6244 45.7831 61.9903 46.416C61.3569 47.0523 60.6035 47.5569 59.7739 47.9002C58.9443 48.2434 58.0548 48.4188 57.1569 48.4162ZM57.1569 35.718C56.3829 35.7121 55.6155 35.8613 54.8999 36.1565C54.1843 36.4517 53.535 36.887 52.9903 37.4369C52.4403 37.9817 52.005 38.631 51.7098 39.3466C51.4146 40.0622 51.2656 40.8296 51.2715 41.6036C51.2656 42.3777 51.4146 43.1451 51.7098 43.8606C52.005 44.5762 52.4403 45.2255 52.9903 45.7703C53.535 46.3202 54.1843 46.7556 54.8999 47.0507C55.6155 47.3459 56.3829 47.4949 57.1569 47.4889C57.9308 47.4937 58.6979 47.3443 59.4133 47.0492C60.1287 46.7541 60.7782 46.3193 61.3236 45.7703C61.8717 45.2241 62.3058 44.5746 62.6009 43.8594C62.8959 43.1441 63.046 42.3773 63.0424 41.6036C63.046 40.8299 62.8959 40.0631 62.6009 39.3479C62.3058 38.6326 61.8717 37.9831 61.3236 37.4369C60.7782 36.888 60.1287 36.4531 59.4133 36.158C58.6979 35.8629 57.9308 35.7133 57.1569 35.718Z" fill="#333333"/>
<path d="M49.541 38.5308H43.291C43.1658 38.528 43.0465 38.4764 42.9589 38.3868C42.8713 38.2973 42.8222 38.1767 42.8223 38.0514C42.8222 37.9261 42.8713 37.8058 42.9589 37.7162C43.0465 37.6266 43.1658 37.575 43.291 37.5723H49.541C49.6681 37.5723 49.79 37.6228 49.8798 37.7126C49.9697 37.8025 50.0202 37.9243 50.0202 38.0514C50.0202 38.1785 49.9697 38.3005 49.8798 38.3904C49.79 38.4803 49.6681 38.5308 49.541 38.5308Z" fill="#333333"/>
<path d="M48.6772 42.8645H43.2501C43.1877 42.8645 43.1259 42.8521 43.0683 42.8279C43.0107 42.8037 42.9586 42.7682 42.9149 42.7236C42.8712 42.679 42.8369 42.6261 42.814 42.568C42.7911 42.5099 42.78 42.4478 42.7814 42.3854C42.7813 42.2601 42.8304 42.1398 42.918 42.0502C43.0056 41.9606 43.1248 41.909 43.2501 41.9062H48.6772C48.8034 41.9089 48.9238 41.9601 49.0131 42.0494C49.1023 42.1387 49.1537 42.2591 49.1564 42.3854C49.1564 42.5125 49.1059 42.6343 49.016 42.7241C48.9262 42.814 48.8043 42.8645 48.6772 42.8645Z" fill="#333333"/>
<path d="M49.541 47.1245H43.291C43.1658 47.1218 43.0465 47.0701 42.9589 46.9806C42.8713 46.891 42.8222 46.7704 42.8223 46.6451C42.8222 46.5198 42.8713 46.3995 42.9589 46.31C43.0465 46.2204 43.1658 46.1687 43.291 46.166H49.541C49.6681 46.166 49.79 46.2165 49.8798 46.3064C49.9697 46.3963 50.0202 46.5181 50.0202 46.6451C50.0202 46.7722 49.9697 46.8943 49.8798 46.9841C49.79 47.074 49.6681 47.1245 49.541 47.1245Z" fill="#333333"/>
<path d="M60.2814 51.4167H48.6356C48.5722 51.4181 48.5093 51.4067 48.4505 51.3831C48.3917 51.3595 48.3384 51.3244 48.2936 51.2796C48.2488 51.2348 48.2135 51.1815 48.19 51.1227C48.1664 51.0639 48.1549 51.0009 48.1564 50.9376C48.1564 50.8751 48.1688 50.8133 48.193 50.7557C48.2172 50.6982 48.2527 50.646 48.2974 50.6024C48.342 50.5587 48.3949 50.5244 48.453 50.5014C48.511 50.4785 48.5731 50.4675 48.6356 50.4689H60.2814C60.4067 50.4688 60.527 50.5178 60.6166 50.6054C60.7061 50.6931 60.7578 50.8123 60.7605 50.9376C60.7605 51.0646 60.7101 51.1864 60.6202 51.2763C60.5303 51.3662 60.4085 51.4167 60.2814 51.4167Z" fill="#333333"/>
<path d="M60.2806 55.7183H51.3222C51.197 55.7155 51.0778 55.6639 50.9901 55.5743C50.9025 55.4848 50.8535 55.3642 50.8535 55.2389C50.8535 55.1136 50.9025 54.9933 50.9901 54.9037C51.0778 54.8141 51.197 54.7625 51.3222 54.7598H60.2806C60.4068 54.7624 60.5272 54.8139 60.6165 54.9032C60.7058 54.9925 60.7571 55.1126 60.7597 55.2389C60.7571 55.3651 60.7058 55.4855 60.6165 55.5748C60.5272 55.6641 60.4068 55.7156 60.2806 55.7183Z" fill="#333333"/>
<path d="M60.2806 60.0103H49.8639C49.7368 60.0103 49.615 59.9598 49.5251 59.8699C49.4353 59.7801 49.3848 59.6583 49.3848 59.5312C49.3875 59.4059 49.4392 59.2867 49.5287 59.1991C49.6183 59.1114 49.7386 59.0625 49.8639 59.0625H60.2806C60.4059 59.0625 60.5262 59.1114 60.6158 59.1991C60.7053 59.2867 60.757 59.4059 60.7597 59.5312C60.7597 59.6583 60.7093 59.7801 60.6194 59.8699C60.5295 59.9598 60.4077 60.0103 60.2806 60.0103Z" fill="#333333"/>
<path d="M49.2709 56.9577H49.1772L46.4376 56.4265C46.3468 56.4105 46.2631 56.3667 46.198 56.3014L36.5522 46.6555C36.4625 46.5657 36.4121 46.444 36.4121 46.317C36.4121 46.1901 36.4625 46.0684 36.5522 45.9785L38.7605 43.7805C38.8503 43.6908 38.9721 43.6406 39.0991 43.6406C39.226 43.6406 39.3477 43.6908 39.4376 43.7805L49.073 53.4159C49.1419 53.484 49.189 53.5713 49.2084 53.6662L49.7397 56.4056C49.7536 56.4825 49.7486 56.5616 49.725 56.636C49.7014 56.7105 49.6599 56.7778 49.6043 56.8326C49.5133 56.9155 49.394 56.9604 49.2709 56.9577ZM46.7709 55.5097L48.6668 55.8744L48.3022 53.9785L39.0938 44.7807L37.5626 46.3119L46.7709 55.5097Z" fill="#333333"/>
<path d="M35.7917 45.6872C35.6623 45.6859 35.5388 45.6336 35.4479 45.5415L34.1459 44.2394C34.0993 44.1951 34.0623 44.1416 34.0372 44.0825C34.0122 44.0233 33.9995 43.9598 34 43.8956C34.0009 43.8331 34.0142 43.7715 34.0393 43.7142C34.0643 43.657 34.1006 43.6052 34.1459 43.5622L36.3542 41.354C36.3978 41.3099 36.4497 41.2748 36.5069 41.251C36.5641 41.2271 36.6255 41.2148 36.6875 41.2148C36.7495 41.2148 36.8109 41.2271 36.8681 41.251C36.9253 41.2748 36.9773 41.3099 37.0209 41.354L38.3334 42.6665C38.3783 42.7092 38.4136 42.7611 38.4369 42.8185C38.4603 42.876 38.4711 42.9376 38.4688 42.9996C38.4701 43.063 38.4588 43.1263 38.4355 43.1853C38.4123 43.2443 38.3776 43.298 38.3334 43.3434L36.125 45.5415C36.082 45.5868 36.0303 45.623 35.9731 45.648C35.9158 45.6731 35.8542 45.6863 35.7917 45.6872ZM35.1563 43.8956L35.7917 44.5311L37.3229 42.9996L36.6875 42.3643L35.1563 43.8956Z" fill="#333333"/>
<path d="M41.9786 49.6666C41.8492 49.6653 41.7257 49.6127 41.6349 49.5206L37.6557 45.5416C37.566 45.4518 37.5156 45.3301 37.5156 45.2032C37.5156 45.0762 37.566 44.9542 37.6557 44.8644C37.748 44.7795 37.8688 44.7324 37.9942 44.7324C38.1197 44.7324 38.2405 44.7795 38.3328 44.8644L42.3119 48.8541C42.356 48.8977 42.391 48.9497 42.4149 49.0069C42.4388 49.0641 42.4511 49.1255 42.4511 49.1875C42.4511 49.2495 42.4388 49.3108 42.4149 49.368C42.391 49.4253 42.356 49.477 42.3119 49.5206C42.2237 49.6103 42.1043 49.6626 41.9786 49.6666Z" fill="#333333"/>
<path d="M46.532 56.4062C46.4701 56.4073 46.4088 56.3959 46.3515 56.3726C46.2942 56.3493 46.2422 56.3148 46.1987 56.2709C46.109 56.1811 46.0586 56.0591 46.0586 55.9321C46.0586 55.8052 46.109 55.6835 46.1987 55.5937L48.407 53.3855C48.4506 53.3414 48.5025 53.3064 48.5597 53.2825C48.6169 53.2586 48.6783 53.2461 48.7403 53.2461C48.8023 53.2461 48.8637 53.2586 48.9209 53.2825C48.9781 53.3064 49.03 53.3414 49.0736 53.3855C49.1633 53.4753 49.2137 53.597 49.2137 53.7239C49.2137 53.8509 49.1633 53.9726 49.0736 54.0624L46.8757 56.2709C46.8302 56.3151 46.7764 56.3496 46.7174 56.3729C46.6584 56.3961 46.5954 56.4075 46.532 56.4062Z" fill="#333333"/>
</g>
<defs>
<clipPath id="clip0_1119_179923">
<rect width="36" height="35.5833" fill="white" transform="translate(34 31)"/>
</clipPath>
</defs>
</svg>
