<svg width="100" height="100" viewBox="0 0 100 100" fill="none" xmlns="http://www.w3.org/2000/svg">
<circle cx="50" cy="50" r="50" fill="#F2F6FB"/>
<g clip-path="url(#clip0_1388_246863)">
<path d="M32.44 59.0916L36.77 36.5116L54.42 27.3516L67.74 42.2516L64.51 59.7216L55.01 59.8816L51.84 65.7316L47.54 65.5516L42.12 71.0616L45.28 62.6516L48.09 62.3216L48.91 62.4116L50.28 59.5116L32.44 59.6216V59.0916Z" fill="white"/>
<path d="M32.75 38.6906C32.6326 38.6874 32.5196 38.6454 32.4288 38.571C32.3379 38.4966 32.2744 38.3942 32.248 38.2797C32.2217 38.1653 32.2342 38.0453 32.2834 37.9387C32.3326 37.8321 32.4158 37.7448 32.52 37.6906L54.28 27.0207C54.4057 26.9606 54.55 26.9522 54.6817 26.9977C54.8134 27.0432 54.9219 27.1387 54.9837 27.2636C55.0455 27.3885 55.0556 27.5329 55.0119 27.6652C54.9682 27.7975 54.8741 27.9072 54.75 27.9706L32.94 38.6906C32.8774 38.7038 32.8126 38.7038 32.75 38.6906Z" fill="#333333"/>
<path d="M32.31 60.1391H32.21C32.0722 60.1124 31.9505 60.0322 31.8717 59.9159C31.793 59.7997 31.7636 59.6571 31.79 59.5192L36.27 36.1091C36.2966 35.9712 36.3768 35.8497 36.4931 35.7709C36.6093 35.6922 36.7521 35.6627 36.89 35.6891C36.9579 35.7012 37.0227 35.7266 37.0806 35.7638C37.1386 35.8011 37.1885 35.8494 37.2276 35.9062C37.2667 35.9629 37.2941 36.027 37.3082 36.0944C37.3224 36.1618 37.323 36.2316 37.31 36.2992L32.83 59.6891C32.811 59.8137 32.7482 59.9275 32.6529 60.0099C32.5576 60.0924 32.436 60.1381 32.31 60.1391Z" fill="#333333"/>
<path d="M54.99 56.4412L43.32 54.2112L45.55 42.5312L57.23 44.7712L54.99 56.4412ZM44.55 53.3711L54.15 55.2012L55.99 45.6111L46.39 43.7712L44.55 53.3711Z" fill="#333333"/>
<path d="M53.16 47.5294L52.23 52.3694L47.39 51.4494L48.32 46.6094L50.28 49.4894L53.16 47.5294Z" fill="#235AB0"/>
<path d="M45.24 36.9293C45.1226 36.9261 45.0097 36.8841 44.9188 36.8097C44.828 36.7353 44.7644 36.6329 44.738 36.5184C44.7117 36.404 44.7241 36.284 44.7734 36.1774C44.8226 36.0708 44.9058 35.9835 45.01 35.9293L53.32 31.8492C53.3857 31.8184 53.4568 31.8009 53.5292 31.7975C53.6017 31.7941 53.6741 31.8051 53.7424 31.8297C53.8106 31.8543 53.8734 31.8919 53.927 31.9408C53.9806 31.9896 54.0241 32.0487 54.055 32.1144C54.0858 32.18 54.1035 32.2511 54.1069 32.3236C54.1103 32.3961 54.0993 32.4685 54.0747 32.5367C54.0501 32.605 54.0123 32.6677 53.9634 32.7213C53.9146 32.7749 53.8556 32.8184 53.79 32.8492L45.47 36.9293C45.394 36.9444 45.3159 36.9444 45.24 36.9293Z" fill="#333333"/>
<path d="M70.75 46.0093C70.6767 46.0101 70.604 45.9951 70.5368 45.9658C70.4696 45.9365 70.4094 45.8934 70.36 45.8391L54.07 27.8391C53.9759 27.7344 53.9272 27.5965 53.9347 27.4558C53.9422 27.3152 54.0052 27.1833 54.11 27.0891C54.2148 26.995 54.3527 26.9464 54.4933 26.9539C54.634 26.9614 54.7659 27.0244 54.86 27.1292L71.14 45.0791C71.1893 45.1283 71.2284 45.1869 71.2551 45.2512C71.2818 45.3156 71.2955 45.3845 71.2955 45.4541C71.2955 45.5238 71.2818 45.5929 71.2551 45.6572C71.2284 45.7216 71.1893 45.7799 71.14 45.8291C71.0916 45.8852 71.0318 45.9304 70.9645 45.9614C70.8972 45.9925 70.8241 46.0088 70.75 46.0093Z" fill="#333333"/>
<path d="M64.35 60.1416H64.25C64.1121 60.115 63.9905 60.0347 63.9117 59.9185C63.833 59.8022 63.8036 59.6597 63.83 59.5218L67.18 42.0218C67.209 41.8852 67.2898 41.7651 67.4054 41.6868C67.521 41.6085 67.6624 41.5779 67.8 41.6016C67.8689 41.6135 67.9346 41.6393 67.9933 41.6773C68.0521 41.7152 68.1026 41.7644 68.1418 41.8223C68.181 41.8802 68.2081 41.9456 68.2216 42.0142C68.235 42.0828 68.2344 42.1533 68.22 42.2217L64.87 59.7217C64.8447 59.8408 64.7793 59.9475 64.6846 60.024C64.5899 60.1004 64.4717 60.142 64.35 60.1416Z" fill="#333333"/>
<path d="M59.75 39.6895C59.6764 39.6923 59.6031 39.6784 59.5356 39.6489C59.4681 39.6195 59.4081 39.5754 59.36 39.5196L53.13 32.6594C53.0359 32.5547 52.9872 32.4168 52.9947 32.2761C53.0022 32.1355 53.0652 32.0036 53.17 31.9094C53.2748 31.8153 53.4127 31.7667 53.5533 31.7742C53.694 31.7817 53.8259 31.8447 53.92 31.9495L60.14 38.8096C60.2372 38.9103 60.2915 39.0447 60.2915 39.1846C60.2915 39.3245 60.2372 39.4589 60.14 39.5596C60.087 39.6061 60.0251 39.6415 59.9582 39.6638C59.8912 39.6862 59.8204 39.6949 59.75 39.6895Z" fill="#333333"/>
<path d="M41.29 72.3682L44.86 62.0383H48.67L49.78 59.3982C49.8391 59.2711 49.9444 59.1714 50.0745 59.1194C50.2046 59.0673 50.3496 59.0669 50.48 59.1182C50.6087 59.1753 50.7101 59.2806 50.7624 59.4114C50.8147 59.5421 50.8138 59.688 50.76 59.8181L49.37 63.0981H45.62L43.79 68.3682L47.17 64.9983H51.69L54.69 59.0781H71.54C71.6805 59.0781 71.8154 59.134 71.9148 59.2334C72.0142 59.3328 72.07 59.4676 72.07 59.6082C72.07 59.7487 72.0142 59.8835 71.9148 59.9829C71.8154 60.0823 71.6805 60.1382 71.54 60.1382H55.34L52.34 66.0583H47.61L41.29 72.3682Z" fill="#333333"/>
<path d="M50.27 60.1382H27.52C27.3795 60.1382 27.2447 60.0823 27.1453 59.9829C27.0459 59.8835 26.99 59.7487 26.99 59.6082C26.99 59.4676 27.0459 59.3328 27.1453 59.2334C27.2447 59.134 27.3795 59.0781 27.52 59.0781H50.27C50.4106 59.0781 50.5454 59.134 50.6448 59.2334C50.7442 59.3328 50.8 59.4676 50.8 59.6082C50.8 59.7487 50.7442 59.8835 50.6448 59.9829C50.5454 60.0823 50.4106 60.1382 50.27 60.1382Z" fill="#333333"/>
<path d="M70.75 66.0793H55.06C54.9194 66.0793 54.7846 66.0237 54.6852 65.9243C54.5858 65.8249 54.53 65.6901 54.53 65.5496C54.53 65.409 54.5858 65.2742 54.6852 65.1748C54.7846 65.0754 54.9194 65.0195 55.06 65.0195H70.75C70.8906 65.0195 71.0254 65.0754 71.1248 65.1748C71.2241 65.2742 71.28 65.409 71.28 65.5496C71.28 65.6901 71.2241 65.8249 71.1248 65.9243C71.0254 66.0237 70.8906 66.0793 70.75 66.0793Z" fill="#333333"/>
<path d="M41.87 66.0793H27.52C27.3795 66.0793 27.2447 66.0237 27.1453 65.9243C27.0459 65.8249 26.99 65.6901 26.99 65.5496C26.99 65.409 27.0459 65.2742 27.1453 65.1748C27.2447 65.0754 27.3795 65.0195 27.52 65.0195H41.87C42.0106 65.0195 42.1454 65.0754 42.2448 65.1748C42.3441 65.2742 42.4 65.409 42.4 65.5496C42.4 65.6901 42.3441 65.8249 42.2448 65.9243C42.1454 66.0237 42.0106 66.0793 41.87 66.0793Z" fill="#333333"/>
<path d="M70.75 71.439H45.21C45.0695 71.439 44.9346 71.3831 44.8352 71.2837C44.7358 71.1843 44.68 71.0495 44.68 70.9089C44.68 70.7684 44.7358 70.6336 44.8352 70.5342C44.9346 70.4348 45.0695 70.3789 45.21 70.3789H70.75C70.8906 70.3789 71.0254 70.4348 71.1248 70.5342C71.2241 70.6336 71.28 70.7684 71.28 70.9089C71.28 71.0495 71.2241 71.1843 71.1248 71.2837C71.0254 71.3831 70.8906 71.439 70.75 71.439Z" fill="#333333"/>
<path d="M39.57 71.439H27.52C27.3795 71.439 27.2447 71.3831 27.1453 71.2837C27.0459 71.1843 26.99 71.0495 26.99 70.9089C26.99 70.7684 27.0459 70.6336 27.1453 70.5342C27.2447 70.4348 27.3795 70.3789 27.52 70.3789H39.57C39.7106 70.3789 39.8454 70.4348 39.9448 70.5342C40.0442 70.6336 40.1 70.7684 40.1 70.9089C40.1 71.0495 40.0442 71.1843 39.9448 71.2837C39.8454 71.3831 39.7106 71.439 39.57 71.439Z" fill="#333333"/>
</g>
<defs>
<clipPath id="clip0_1388_246863">
<rect width="45.06" height="45.37" fill="white" transform="translate(27 27)"/>
</clipPath>
</defs>
</svg>
