<svg width="32" height="32" viewBox="0 0 32 32" fill="none" xmlns="http://www.w3.org/2000/svg">
<path d="M25.5825 11.1864C25.352 10.3264 24.6746 9.64798 23.8146 9.41858C22.2544 9 16.0005 9 16.0005 9C16.0005 9 9.74558 9 8.18646 9.41858C7.32536 9.64798 6.648 10.3253 6.4175 11.1864C6 12.7454 6 16.0005 6 16.0005C6 16.0005 6 19.2546 6.4175 20.8147C6.648 21.6747 7.32536 22.3531 8.18646 22.5825C9.74667 23 16.0005 23 16.0005 23C16.0005 23 22.2544 23 23.8146 22.5825C24.6746 22.352 25.3531 21.6747 25.5825 20.8147C26 19.2546 26 16.0005 26 16.0005C26 16.0005 26 12.7465 25.5825 11.1864ZM14 19.0002V12.9998L19.196 16.0005L14 19.0002Z" fill="#ECECEC"/>
</svg>
