<svg width="104" height="100" viewBox="0 0 104 100" fill="none" xmlns="http://www.w3.org/2000/svg">
<ellipse cx="51.625" cy="50" rx="51.625" ry="50" fill="#F2F6FB"/>
<g clip-path="url(#clip0_1119_179898)">
<path d="M59.5321 29.0762H33.0762V66.9339H59.5321V29.0762Z" fill="white"/>
<path d="M56.8864 58.1324L54.7793 55.2761L65.2797 45.0449L67.6327 47.2457L56.8864 58.1324Z" fill="#235AB0"/>
<path d="M67.8911 42.2578L66.5332 43.5806L68.8042 45.9687L70.3728 44.5171L67.8911 42.2578Z" fill="#235AB0"/>
<path d="M53.8079 59.2086C53.6684 59.2061 53.5349 59.152 53.4333 59.0565C53.3698 58.9956 53.3227 58.9197 53.2961 58.8359C53.2695 58.7521 53.2644 58.6627 53.2811 58.5764L53.8781 55.4978C53.8999 55.3912 53.9529 55.2934 54.0303 55.2169L64.8702 44.3769C64.9706 44.2795 65.1049 44.2248 65.2448 44.2246C65.3847 44.2248 65.519 44.2795 65.6194 44.3769L68.1011 46.8585C68.2019 46.9595 68.2585 47.0962 68.2585 47.2389C68.2585 47.3816 68.2019 47.5186 68.1011 47.6196L57.2729 58.4595C57.1953 58.5332 57.0975 58.582 56.9919 58.5998L53.9132 59.1969L53.8079 59.2086ZM54.9082 55.8256L54.4868 57.9559L56.6291 57.5464L66.9656 47.2097L65.2448 45.489L54.9082 55.8256Z" fill="#333333"/>
<path d="M68.9688 46.5903C68.8234 46.5888 68.6845 46.53 68.5825 46.4265L66.1125 43.9447C66.0117 43.8437 65.9551 43.7069 65.9551 43.5643C65.9551 43.4216 66.0117 43.2848 66.1125 43.1839L67.5758 41.7206C67.6795 41.6252 67.8153 41.5723 67.9562 41.5723C68.0971 41.5723 68.2329 41.6252 68.3367 41.7206L70.8184 44.2022C70.9192 44.3031 70.9758 44.4399 70.9758 44.5825C70.9758 44.7252 70.9192 44.8623 70.8184 44.9632L69.3434 46.4265C69.2959 46.4785 69.238 46.5197 69.1735 46.548C69.1089 46.5762 69.0392 46.5907 68.9688 46.5903ZM67.248 43.57L68.9688 45.291L69.6712 44.5768L67.9504 42.8561L67.248 43.57Z" fill="#333333"/>
<path d="M62.0154 51.0139C61.87 51.0125 61.7311 50.9537 61.6291 50.8502C61.5795 50.8012 61.5402 50.7427 61.5133 50.6784C61.4865 50.6141 61.4727 50.5452 61.4727 50.4755C61.4727 50.4058 61.4865 50.3369 61.5133 50.2726C61.5402 50.2083 61.5795 50.1498 61.6291 50.1008L66.1125 45.6173C66.1615 45.5677 66.2199 45.5284 66.2842 45.5015C66.3485 45.4747 66.4175 45.4609 66.4871 45.4609C66.5568 45.4609 66.6258 45.4747 66.6901 45.5015C66.7544 45.5284 66.8127 45.5677 66.8617 45.6173C66.9625 45.7182 67.0191 45.8553 67.0191 45.9979C67.0191 46.1406 66.9625 46.2774 66.8617 46.3783L62.39 50.8502C62.2908 50.9509 62.1566 51.0095 62.0154 51.0139Z" fill="#333333"/>
<path d="M56.8868 58.6576C56.8173 58.6588 56.7483 58.646 56.6839 58.6199C56.6195 58.5937 56.5611 58.5546 56.5122 58.5053L54.0304 56.0237C53.9297 55.9228 53.873 55.786 53.873 55.6433C53.873 55.5007 53.9297 55.3636 54.0304 55.2627C54.1314 55.1619 54.2682 55.1055 54.4109 55.1055C54.5536 55.1055 54.6904 55.1619 54.7913 55.2627L57.273 57.7445C57.3685 57.8482 57.4214 57.984 57.4214 58.1249C57.4214 58.2658 57.3685 58.4016 57.273 58.5053C57.2219 58.555 57.1615 58.5941 57.0952 58.6202C57.0288 58.6463 56.958 58.6591 56.8868 58.6576Z" fill="#333333"/>
<path d="M60.0597 67.9882H32.5385C32.3977 67.9882 32.2625 67.9332 32.1618 67.8347C32.0611 67.7363 32.0031 67.6022 32 67.4615V28.5267C32.0031 28.3859 32.0611 28.2519 32.1618 28.1535C32.2625 28.055 32.3977 28 32.5385 28H60.0597C60.2005 28 60.3357 28.055 60.4364 28.1535C60.5371 28.2519 60.5951 28.3859 60.5982 28.5267V46.9874C60.5952 47.1293 60.5375 47.2643 60.4372 47.3646C60.3368 47.465 60.2016 47.5228 60.0597 47.5258C59.9178 47.5228 59.7826 47.465 59.6822 47.3646C59.5819 47.2643 59.5242 47.1293 59.5212 46.9874V29.0652H33.077V66.923H59.5212V58.272C59.5242 58.1301 59.5819 57.9948 59.6822 57.8945C59.7826 57.7941 59.9178 57.7366 60.0597 57.7336C60.2016 57.7366 60.3368 57.7941 60.4372 57.8945C60.5375 57.9948 60.5952 58.1301 60.5982 58.272V67.4615C60.5951 67.6022 60.5371 67.7363 60.4364 67.8347C60.3357 67.9332 60.2005 67.9882 60.0597 67.9882Z" fill="#333333"/>
<path d="M41.4239 35.3874H36.5541C36.4133 35.3844 36.2794 35.3263 36.1809 35.2257C36.0824 35.125 36.0273 34.9898 36.0273 34.849C36.0273 34.7082 36.0824 34.573 36.1809 34.4723C36.2794 34.3717 36.4133 34.3136 36.5541 34.3105H41.4239C41.5667 34.3105 41.7037 34.3673 41.8047 34.4683C41.9056 34.5693 41.9624 34.7062 41.9624 34.849C41.9624 34.9918 41.9056 35.129 41.8047 35.23C41.7037 35.3309 41.5667 35.3874 41.4239 35.3874Z" fill="#333333"/>
<path d="M55.7874 45.0437H36.601C36.4602 45.0406 36.3262 44.9826 36.2278 44.8819C36.1293 44.7813 36.0742 44.646 36.0742 44.5052C36.0742 44.3644 36.1293 44.2292 36.2278 44.1286C36.3262 44.0279 36.4602 43.9699 36.601 43.9668H55.7874C55.9302 43.9668 56.0672 44.0236 56.1682 44.1246C56.2692 44.2255 56.3259 44.3624 56.3259 44.5052C56.3259 44.6481 56.2692 44.7852 56.1682 44.8862C56.0672 44.9872 55.9302 45.0437 55.7874 45.0437Z" fill="#333333"/>
<path d="M55.7876 49.8446H36.6011C36.4614 49.8446 36.3274 49.789 36.2286 49.6903C36.1299 49.5915 36.0743 49.4576 36.0743 49.3179C36.0728 49.2477 36.0853 49.1779 36.111 49.1127C36.1368 49.0474 36.1754 48.9879 36.2244 48.9378C36.2735 48.8876 36.3321 48.8478 36.3968 48.8206C36.4615 48.7934 36.531 48.7794 36.6011 48.7794H55.7876C55.8587 48.7778 55.9294 48.7907 55.9955 48.8172C56.0616 48.8437 56.1216 48.8831 56.1719 48.9335C56.2222 48.9838 56.2618 49.0438 56.2883 49.1098C56.3148 49.1759 56.3276 49.2467 56.326 49.3179C56.3261 49.388 56.312 49.4575 56.2848 49.5222C56.2576 49.5869 56.2178 49.6455 56.1676 49.6945C56.1175 49.7436 56.058 49.7822 55.9927 49.808C55.9275 49.8338 55.8577 49.8461 55.7876 49.8446Z" fill="#333333"/>
<path d="M52.8259 54.7019H36.6011C36.531 54.7019 36.4615 54.6879 36.3968 54.6607C36.3321 54.6335 36.2735 54.5937 36.2244 54.5435C36.1754 54.4934 36.1368 54.4339 36.111 54.3686C36.0853 54.3034 36.0728 54.2336 36.0743 54.1634C36.0743 54.0226 36.1294 53.8874 36.2279 53.7868C36.3264 53.6861 36.4604 53.6281 36.6011 53.625H52.8259C52.9687 53.625 53.1057 53.6818 53.2067 53.7828C53.3076 53.8837 53.3644 54.0206 53.3644 54.1634C53.366 54.2346 53.3531 54.3054 53.3267 54.3715C53.3002 54.4376 53.2605 54.4975 53.2102 54.5478C53.1599 54.5982 53.0999 54.6377 53.0338 54.6642C52.9678 54.6906 52.8971 54.7035 52.8259 54.7019Z" fill="#333333"/>
<path d="M55.9967 61.6787H51.6303C51.4884 61.6757 51.3532 61.6179 51.2528 61.5175C51.1525 61.4172 51.0948 61.2819 51.0918 61.14C51.0948 60.9981 51.1525 60.8631 51.2528 60.7628C51.3532 60.6624 51.4884 60.6046 51.6303 60.6016H55.9967C56.1386 60.6046 56.2738 60.6624 56.3742 60.7628C56.4745 60.8631 56.5322 60.9981 56.5352 61.14C56.5322 61.2819 56.4745 61.4172 56.3742 61.5175C56.2738 61.6179 56.1386 61.6757 55.9967 61.6787Z" fill="#333333"/>
</g>
<defs>
<clipPath id="clip0_1119_179898">
<rect width="38.9699" height="40" fill="white" transform="translate(32 28)"/>
</clipPath>
</defs>
</svg>
