<svg width="100" height="100" viewBox="0 0 100 100" fill="none" xmlns="http://www.w3.org/2000/svg">
<circle cx="50" cy="50" r="50" fill="#F2F6FB"/>
<g clip-path="url(#clip0_1096_175283)">
<path d="M62.1401 36.5605H34.0801V70.2005H62.1401V36.5605Z" fill="white"/>
<path d="M57.3304 26.8594H38.6504V36.2494H57.3304V26.8594Z" fill="white"/>
<path d="M42.9199 50.0293H41.9199V51.5493H42.9199V50.0293Z" fill="#235AB0"/>
<path d="M42.9199 45.2793H41.9199V46.7893H42.9199V45.2793Z" fill="#235AB0"/>
<path d="M42.9199 40.7305H41.9199V42.2505H42.9199V40.7305Z" fill="#235AB0"/>
<path d="M48.5391 50.0293H47.5391V51.5493H48.5391V50.0293Z" fill="#235AB0"/>
<path d="M48.5391 45.2793H47.5391V46.7893H48.5391V45.2793Z" fill="#235AB0"/>
<path d="M48.5391 40.7305H47.5391V42.2505H48.5391V40.7305Z" fill="#235AB0"/>
<path d="M54.0996 50.0293H53.0996V51.5493H54.0996V50.0293Z" fill="#235AB0"/>
<path d="M54.0996 45.2793H53.0996V46.7893H54.0996V45.2793Z" fill="#235AB0"/>
<path d="M54.0996 40.7305H53.0996V42.2505H54.0996V40.7305Z" fill="#235AB0"/>
<path d="M42.9199 64.0703H41.9199V65.5903H42.9199V64.0703Z" fill="#235AB0"/>
<path d="M42.9199 59.3203H41.9199V60.8303H42.9199V59.3203Z" fill="#235AB0"/>
<path d="M42.9199 54.7695H41.9199V56.2895H42.9199V54.7695Z" fill="#235AB0"/>
<path d="M48.5391 64.0703H47.5391V65.5903H48.5391V64.0703Z" fill="#235AB0"/>
<path d="M48.5391 59.3203H47.5391V60.8303H48.5391V59.3203Z" fill="#235AB0"/>
<path d="M48.5391 54.7695H47.5391V56.2895H48.5391V54.7695Z" fill="#235AB0"/>
<path d="M54.1303 64.0703H53.0703V65.5903H54.1303V64.0703Z" fill="#235AB0"/>
<path d="M54.1303 59.3203H53.0703V60.8303H54.1303V59.3203Z" fill="#235AB0"/>
<path d="M54.1303 54.7695H53.0703V56.2895H54.1303V54.7695Z" fill="#235AB0"/>
<path d="M56.99 71.2798H35.42C34.7799 71.2798 34.1659 71.0261 33.7123 70.5745C33.2588 70.1228 33.0026 69.5097 33 68.8696V37.6797C33 37.1493 33.2107 36.6407 33.5858 36.2656C33.9609 35.8906 34.4696 35.6797 35 35.6797H61.11C61.6404 35.6797 62.1492 35.8906 62.5242 36.2656C62.8993 36.6407 63.11 37.1493 63.11 37.6797V54.7698C63.11 54.9103 63.0542 55.0451 62.9548 55.1445C62.8554 55.2439 62.7206 55.2998 62.58 55.2998C62.4395 55.2998 62.3046 55.2439 62.2052 55.1445C62.1058 55.0451 62.05 54.9103 62.05 54.7698V37.6797C62.05 37.5615 62.0267 37.4444 61.9815 37.3352C61.9363 37.226 61.87 37.1268 61.7864 37.0432C61.7028 36.9596 61.6036 36.8934 61.4944 36.8481C61.3852 36.8029 61.2682 36.7798 61.15 36.7798H35.04C34.9218 36.7798 34.8048 36.8029 34.6956 36.8481C34.5864 36.8934 34.4872 36.9596 34.4036 37.0432C34.32 37.1268 34.2537 37.226 34.2085 37.3352C34.1633 37.4444 34.14 37.5615 34.14 37.6797V68.8696C34.1427 69.2286 34.2871 69.5721 34.5419 69.825C34.7966 70.0778 35.141 70.2197 35.5 70.2197H57.07C57.1396 70.2197 57.2085 70.2334 57.2728 70.26C57.3371 70.2866 57.3955 70.3258 57.4448 70.375C57.494 70.4242 57.533 70.4826 57.5597 70.5469C57.5863 70.6112 57.6 70.6802 57.6 70.7498C57.6009 70.8266 57.585 70.9028 57.5535 70.9729C57.522 71.043 57.4757 71.1056 57.4177 71.156C57.3596 71.2064 57.2913 71.2435 57.2175 71.2649C57.1436 71.2863 57.066 71.2914 56.99 71.2798Z" fill="#333333"/>
<path d="M57.6905 36.7808C57.6209 36.7808 57.552 36.7671 57.4877 36.7405C57.4234 36.7138 57.365 36.6747 57.3158 36.6255C57.2666 36.5763 57.2275 36.5179 57.2009 36.4536C57.1743 36.3893 57.1605 36.3203 57.1605 36.2507V27.8706C57.1605 27.6558 57.0752 27.4498 56.9233 27.2979C56.7714 27.1459 56.5654 27.0608 56.3506 27.0608H39.6905C39.4757 27.0608 39.2697 27.1459 39.1178 27.2979C38.9659 27.4498 38.8806 27.6558 38.8806 27.8706V36.2507C38.8806 36.3203 38.8668 36.3893 38.8402 36.4536C38.8136 36.5179 38.7745 36.5763 38.7253 36.6255C38.6761 36.6747 38.6177 36.7138 38.5534 36.7405C38.4891 36.7671 38.4202 36.7808 38.3506 36.7808C38.281 36.7808 38.212 36.7671 38.1477 36.7405C38.0834 36.7138 38.025 36.6747 37.9758 36.6255C37.9266 36.5763 37.8875 36.5179 37.8609 36.4536C37.8343 36.3893 37.8206 36.3203 37.8206 36.2507V27.8706C37.8166 27.6225 37.862 27.3761 37.9542 27.1458C38.0464 26.9154 38.1835 26.7059 38.3575 26.5291C38.5316 26.3522 38.7391 26.2118 38.9679 26.116C39.1968 26.0201 39.4424 25.9707 39.6905 25.9707H56.3005C56.7965 25.9707 57.2721 26.1676 57.6228 26.5183C57.9735 26.869 58.1706 27.3449 58.1706 27.8408V36.2207C58.1789 36.3581 58.1335 36.4934 58.0439 36.5979C57.9544 36.7024 57.8276 36.768 57.6905 36.7808Z" fill="#333333"/>
<path d="M54.4993 29.6992H41.5293V33.0692H54.4993V29.6992Z" fill="#235AB0"/>
<path d="M51.2697 60.0398C49.0577 60.0345 46.9379 59.1527 45.3747 57.5876C43.8115 56.0226 42.9323 53.9017 42.9297 51.6897C42.9323 49.4786 43.8119 47.3589 45.3753 45.7954C46.9388 44.2319 49.0586 43.3523 51.2697 43.3496C53.4817 43.3522 55.6025 44.2315 57.1676 45.7947C58.7327 47.3579 59.6144 49.4777 59.6197 51.6897C59.617 53.9034 58.7365 56.0257 57.1711 57.5911C55.6058 59.1564 53.4834 60.0371 51.2697 60.0398ZM51.2697 45.3496C49.589 45.3523 47.978 46.0211 46.7896 47.2095C45.6011 48.3979 44.9323 50.009 44.9297 51.6897C44.9323 53.3713 45.6008 54.9833 46.7889 56.1733C47.9771 57.3633 49.5881 58.0345 51.2697 58.0398C52.953 58.0372 54.5666 57.3673 55.7569 56.177C56.9472 54.9867 57.617 53.373 57.6197 51.6897C57.6144 50.0081 56.9434 48.3971 55.7534 47.209C54.5634 46.0209 52.9513 45.3522 51.2697 45.3496Z" fill="white"/>
<path d="M55.8906 61.9405L59.6106 59.5605L66.8606 70.1305L63.2806 72.6905L55.8906 61.9405Z" fill="#235AB0"/>
<path d="M55.1602 59.3209L57.3402 57.9609L58.5802 59.7909L56.4502 61.3109L55.1602 59.3209Z" fill="white"/>
<path d="M51.29 60.8694C50.7433 60.869 50.1977 60.8189 49.66 60.7195C48.4662 60.5208 47.3237 60.0871 46.2989 59.4433C45.2741 58.7996 44.3873 57.9586 43.69 56.9695C42.9976 55.9806 42.5076 54.8644 42.2485 53.6853C41.9893 52.5062 41.966 51.2875 42.18 50.0993C42.3873 48.9077 42.829 47.7691 43.4796 46.7495C44.1302 45.7298 44.9767 44.8495 45.97 44.1594C47.9719 42.7656 50.4449 42.2229 52.8465 42.6504C55.2481 43.0778 57.382 44.4405 58.78 46.4394C60.1712 48.4421 60.7124 50.9144 60.2851 53.3152C59.8578 55.7159 58.4968 57.8498 56.5 59.2495C54.9691 60.3079 53.1512 60.873 51.29 60.8694ZM51.29 43.4695C49.6165 43.4698 47.9832 43.9828 46.61 44.9394C45.7257 45.5548 44.9717 46.3389 44.3916 47.2468C43.8116 48.1547 43.4168 49.1684 43.23 50.2295C43.0404 51.2898 43.062 52.3772 43.2936 53.4292C43.5253 54.4811 43.9625 55.4768 44.58 56.3594C45.8312 58.1363 47.7359 59.3448 49.8767 59.7197C52.0174 60.0946 54.2194 59.6054 56 58.3594C57.777 57.1082 58.9854 55.2034 59.3603 53.0627C59.7352 50.922 59.246 48.7201 58 46.9394C57.2384 45.8593 56.2266 44.9797 55.0512 44.3755C53.8758 43.7712 52.5716 43.4603 51.25 43.4695H51.29Z" fill="#333333"/>
<path d="M51.2804 58.1502C50.8949 58.1517 50.51 58.1183 50.1304 58.0503C49.2916 57.9042 48.4902 57.5929 47.7726 57.1345C47.0551 56.6762 46.4357 56.0798 45.9504 55.3802C44.976 53.9723 44.5974 52.2366 44.8971 50.5508C45.1968 48.8651 46.1505 47.3659 47.5504 46.3802C48.9591 45.4083 50.6942 45.0313 52.3792 45.3308C54.0642 45.6304 55.563 46.5825 56.5504 47.9803C57.0402 48.6778 57.3862 49.4659 57.5682 50.2986C57.7502 51.1313 57.7646 51.992 57.6104 52.8304C57.4654 53.6695 57.1545 54.4713 56.6961 55.189C56.2377 55.9067 55.6408 56.5258 54.9404 57.0103C53.865 57.7541 52.588 58.1518 51.2804 58.1502ZM51.2804 46.1502C50.1556 46.1515 49.0588 46.5008 48.1404 47.1502C46.9492 47.985 46.1379 49.2585 45.8848 50.6909C45.6316 52.1234 45.9574 53.5978 46.7904 54.7903C47.2021 55.382 47.7269 55.8863 48.3344 56.2742C48.942 56.6621 49.6204 56.9259 50.3304 57.0503C51.0401 57.1757 51.7675 57.1598 52.4711 57.0037C53.1746 56.8475 53.8404 56.554 54.4304 56.1402C55.0211 55.7296 55.5248 55.2066 55.9127 54.6009C56.3005 53.9951 56.5648 53.3184 56.6904 52.6101C56.816 51.8989 56.8003 51.1698 56.6442 50.4646C56.4881 49.7594 56.1945 49.092 55.7804 48.5003C55.2703 47.7774 54.5927 47.1887 53.8055 46.7847C53.0184 46.3807 52.1452 46.1733 51.2604 46.1802L51.2804 46.1502Z" fill="#333333"/>
<path d="M56.5098 62.2197L54.5098 59.3496L57.3798 57.3496L59.3798 60.2197L56.5098 62.2197ZM55.8898 59.5996L56.7498 60.8298L57.9798 59.9697L57.1198 58.7397L55.8898 59.5996Z" fill="#333333"/>
<path d="M63.2592 73.1307C63.1225 73.13 62.9878 73.0971 62.8662 73.0345C62.7446 72.972 62.6394 72.8817 62.5592 72.7709L55.5592 62.7208C55.4317 62.5335 55.3833 62.3035 55.4245 62.0807C55.4657 61.8578 55.5932 61.6602 55.7792 61.5309L58.9992 59.2809C59.0913 59.2164 59.1953 59.1706 59.3052 59.1466C59.4151 59.1226 59.5286 59.1206 59.6392 59.1407C59.7496 59.1595 59.8551 59.2002 59.9496 59.2604C60.044 59.3205 60.1255 59.3988 60.1892 59.4908L67.1892 69.5409C67.2534 69.6312 67.2989 69.7335 67.323 69.8417C67.347 69.9499 67.3492 70.0617 67.3292 70.1708C67.3099 70.2821 67.2679 70.3884 67.206 70.483C67.1441 70.5776 67.0635 70.6585 66.9692 70.7208L63.7492 72.9808C63.6044 73.0783 63.4338 73.1304 63.2592 73.1307ZM56.4492 62.2608L63.2992 72.0709L66.2992 69.9908L59.4492 60.1808L56.4492 62.2608Z" fill="#333333"/>
<path d="M63.0307 54.2109H61.9707V63.6909H63.0307V54.2109Z" fill="#333333"/>
<path d="M61.6998 70.2109H56.3398V71.2809H61.6998V70.2109Z" fill="#333333"/>
</g>
<defs>
<clipPath id="clip0_1096_175283">
<rect width="34.34" height="47.13" fill="white" transform="translate(33 26)"/>
</clipPath>
</defs>
</svg>
