<svg width="100" height="100" viewBox="0 0 100 100" fill="none" xmlns="http://www.w3.org/2000/svg">
<circle cx="50" cy="50" r="50" fill="#F2F6FB"/>
<g clip-path="url(#clip0_1075_171962)">
<path d="M63.4595 41.75H36.0195V57.64H63.4595V41.75Z" fill="white"/>
<path d="M60.0291 32.1819C61.2662 32.1819 62.2691 31.1163 62.2691 29.8019C62.2691 28.4874 61.2662 27.4219 60.0291 27.4219C58.7919 27.4219 57.7891 28.4874 57.7891 29.8019C57.7891 31.1163 58.7919 32.1819 60.0291 32.1819Z" fill="white"/>
<path d="M67.9295 33.9298C69.1666 33.9298 70.1695 32.9583 70.1695 31.7598C70.1695 30.5614 69.1666 29.5898 67.9295 29.5898C66.6923 29.5898 65.6895 30.5614 65.6895 31.7598C65.6895 32.9583 66.6923 33.9298 67.9295 33.9298Z" fill="white"/>
<path d="M69.6896 41.7503C70.8439 41.7503 71.7796 40.8146 71.7796 39.6603C71.7796 38.506 70.8439 37.5703 69.6896 37.5703C68.5353 37.5703 67.5996 38.506 67.5996 39.6603C67.5996 40.8146 68.5353 41.7503 69.6896 41.7503Z" fill="white"/>
<path d="M29.7897 62.3717C30.955 62.3717 31.8997 61.3957 31.8997 60.1917C31.8997 58.9877 30.955 58.0117 29.7897 58.0117C28.6244 58.0117 27.6797 58.9877 27.6797 60.1917C27.6797 61.3957 28.6244 62.3717 29.7897 62.3717Z" fill="white"/>
<path d="M31.74 70.0503C32.9771 70.0503 33.98 69.0474 33.98 67.8103C33.98 66.5732 32.9771 65.5703 31.74 65.5703C30.5029 65.5703 29.5 66.5732 29.5 67.8103C29.5 69.0474 30.5029 70.0503 31.74 70.0503Z" fill="white"/>
<path d="M39.5797 71.9617C40.9052 71.9617 41.9797 70.9096 41.9797 69.6117C41.9797 68.3139 40.9052 67.2617 39.5797 67.2617C38.2542 67.2617 37.1797 68.3139 37.1797 69.6117C37.1797 70.9096 38.2542 71.9617 39.5797 71.9617Z" fill="white"/>
<path d="M59.6505 40.4216C59.5123 40.4218 59.3795 40.3678 59.2805 40.2715C59.2312 40.2223 59.1921 40.164 59.1654 40.0996C59.1387 40.0353 59.125 39.9661 59.125 39.8965C59.125 39.8268 59.1387 39.7579 59.1654 39.6936C59.1921 39.6293 59.2312 39.5707 59.2805 39.5215L65.8105 32.9915C65.8597 32.9422 65.9181 32.9031 65.9825 32.8765C66.0468 32.8498 66.1158 32.8359 66.1855 32.8359C66.2551 32.8359 66.3241 32.8498 66.3884 32.8765C66.4528 32.9031 66.5112 32.9422 66.5605 32.9915C66.6576 33.0921 66.7119 33.2266 66.7119 33.3665C66.7119 33.5064 66.6576 33.6408 66.5605 33.7415L60.0305 40.2715C59.9278 40.3684 59.7917 40.4223 59.6505 40.4216Z" fill="#333333"/>
<path d="M50.2307 40.1514C50.0894 40.152 49.9534 40.0982 49.8507 40.0012C49.7535 39.9006 49.6992 39.7661 49.6992 39.6262C49.6992 39.4863 49.7535 39.3519 49.8507 39.2512L58.0207 31.0813C58.0699 31.032 58.1284 30.993 58.1927 30.9663C58.257 30.9396 58.326 30.9258 58.3957 30.9258C58.4653 30.9258 58.5343 30.9396 58.5986 30.9663C58.663 30.993 58.7214 31.032 58.7707 31.0813C58.82 31.1305 58.8591 31.1888 58.8857 31.2532C58.9124 31.3175 58.9261 31.3866 58.9261 31.4563C58.9261 31.526 58.9124 31.5948 58.8857 31.6592C58.8591 31.7235 58.82 31.7821 58.7707 31.8313L50.6007 40.0012C50.5016 40.0975 50.3688 40.1515 50.2307 40.1514Z" fill="#333333"/>
<path d="M65.9104 43.7791C65.7691 43.7797 65.6331 43.7261 65.5304 43.6292C65.4332 43.5285 65.3789 43.394 65.3789 43.2542C65.3789 43.1143 65.4332 42.9798 65.5304 42.8792L67.6004 40.8191C67.648 40.7689 67.7054 40.7288 67.769 40.7014C67.8326 40.6741 67.9011 40.6602 67.9704 40.6602C68.0396 40.6602 68.1081 40.6741 68.1717 40.7014C68.2353 40.7288 68.2927 40.7689 68.3404 40.8191C68.3906 40.8667 68.4306 40.9242 68.4579 40.9878C68.4853 41.0514 68.4994 41.1197 68.4994 41.189C68.4994 41.2582 68.4853 41.3268 68.4579 41.3904C68.4306 41.454 68.3906 41.5114 68.3404 41.5591L66.2804 43.6292C66.1813 43.7255 66.0485 43.7792 65.9104 43.7791Z" fill="#333333"/>
<path d="M67.8002 34.5481C67.4286 34.5483 67.0606 34.4752 66.7174 34.3328C66.3742 34.1903 66.0625 33.9813 65.8002 33.718C65.2726 33.1861 64.9766 32.4672 64.9766 31.718C64.9766 30.9688 65.2726 30.2499 65.8002 29.718C66.3322 29.1904 67.051 28.8945 67.8002 28.8945C68.5494 28.8945 69.2683 29.1904 69.8002 29.718C70.3278 30.2499 70.6239 30.9688 70.6239 31.718C70.6239 32.4672 70.3278 33.1861 69.8002 33.718C69.27 34.2489 68.5506 34.5475 67.8002 34.5481ZM67.8002 29.948C67.5675 29.9456 67.3368 29.9905 67.1219 30.0798C66.9071 30.1692 66.7126 30.3013 66.5502 30.468C66.2193 30.7998 66.0334 31.2494 66.0334 31.718C66.0334 32.1867 66.2193 32.6362 66.5502 32.968C66.882 33.299 67.3316 33.4849 67.8002 33.4849C68.2689 33.4849 68.7184 33.299 69.0502 32.968C69.3812 32.6362 69.5671 32.1867 69.5671 31.718C69.5671 31.2494 69.3812 30.7998 69.0502 30.468C68.7163 30.1423 68.2667 29.9624 67.8002 29.968V29.948Z" fill="#333333"/>
<path d="M60.0209 32.6516C59.65 32.6532 59.2824 32.5814 58.9392 32.4407C58.5961 32.3 58.284 32.093 58.0209 31.8315C57.4933 31.2996 57.1973 30.5808 57.1973 29.8315C57.1973 29.0823 57.4933 28.3635 58.0209 27.8315C58.5529 27.3039 59.2717 27.0078 60.0209 27.0078C60.7701 27.0078 61.489 27.3039 62.0209 27.8315C62.5486 28.3635 62.8446 29.0823 62.8446 29.8315C62.8446 30.5808 62.5486 31.2996 62.0209 31.8315C61.7582 32.0935 61.4462 32.3007 61.1029 32.4414C60.7597 32.5821 60.3919 32.6537 60.0209 32.6516ZM60.0209 28.0615C59.5662 28.0611 59.129 28.2367 58.8009 28.5515C58.47 28.8833 58.2841 29.3329 58.2841 29.8015C58.2841 30.2702 58.47 30.7197 58.8009 31.0515C59.1327 31.3825 59.5823 31.5684 60.0509 31.5684C60.5196 31.5684 60.9691 31.3825 61.3009 31.0515C61.6319 30.7197 61.8178 30.2702 61.8178 29.8015C61.8178 29.3329 61.6319 28.8833 61.3009 28.5515C61.1319 28.3874 60.9312 28.2595 60.7112 28.1753C60.4912 28.0911 60.2563 28.0523 60.0209 28.0615Z" fill="#333333"/>
<path d="M69.5998 42.3889C69.2282 42.3892 68.8602 42.3158 68.517 42.1733C68.1737 42.0309 67.8621 41.8221 67.5998 41.5588C67.335 41.2974 67.1247 40.9862 66.9811 40.6428C66.8376 40.2995 66.7637 39.931 66.7637 39.5588C66.7637 39.1867 66.8376 38.8182 66.9811 38.4749C67.1247 38.1315 67.335 37.8202 67.5998 37.5588C67.8612 37.294 68.1726 37.0837 68.5159 36.9402C68.8593 36.7966 69.2277 36.7227 69.5998 36.7227C69.9719 36.7227 70.3404 36.7966 70.6837 36.9402C71.027 37.0837 71.3384 37.294 71.5998 37.5588C71.8647 37.8202 72.075 38.1315 72.2185 38.4749C72.3621 38.8182 72.436 39.1867 72.436 39.5588C72.436 39.931 72.3621 40.2995 72.2185 40.6428C72.075 40.9862 71.8647 41.2974 71.5998 41.5588C71.3379 41.8226 71.0263 42.0318 70.683 42.1743C70.3397 42.3168 69.9715 42.3897 69.5998 42.3889ZM69.5998 37.7988C69.1291 37.7965 68.6764 37.9798 68.3398 38.3088C68.0082 38.6424 67.8221 39.0934 67.8221 39.5637C67.8221 40.034 68.0082 40.4853 68.3398 40.8188C68.6733 41.1504 69.1245 41.3364 69.5948 41.3364C70.0651 41.3364 70.5163 41.1504 70.8498 40.8188C71.1814 40.4853 71.3675 40.034 71.3675 39.5637C71.3675 39.0934 71.1814 38.6424 70.8498 38.3088C70.5157 37.9822 70.0671 37.7992 69.5998 37.7988Z" fill="#333333"/>
<path d="M33.3595 66.7197C33.2901 66.7202 33.2213 66.7063 33.1576 66.6787C33.0939 66.6512 33.0366 66.6107 32.9895 66.5598C32.9402 66.5106 32.9011 66.452 32.8744 66.3877C32.8477 66.3233 32.834 66.2545 32.834 66.1848C32.834 66.1152 32.8477 66.0463 32.8744 65.9819C32.9011 65.9176 32.9402 65.859 32.9895 65.8098L39.1995 59.5999C39.2984 59.5033 39.4312 59.4492 39.5695 59.4492C39.7077 59.4492 39.8405 59.5033 39.9395 59.5999C39.9887 59.6491 40.0278 59.7074 40.0545 59.7717C40.0812 59.8361 40.0949 59.9052 40.0949 59.9749C40.0949 60.0445 40.0812 60.1134 40.0545 60.1777C40.0278 60.2421 39.9887 60.3006 39.9395 60.3499L33.7295 66.5598C33.6827 66.6112 33.6255 66.6521 33.5617 66.6797C33.4979 66.7073 33.4289 66.7208 33.3595 66.7197Z" fill="#333333"/>
<path d="M31.4494 58.9307C31.3082 58.9313 31.1721 58.8777 31.0694 58.7808C30.9723 58.6801 30.918 58.5457 30.918 58.4058C30.918 58.2659 30.9723 58.1314 31.0694 58.0308L33.4994 55.6008C33.5486 55.5515 33.6071 55.5125 33.6714 55.4858C33.7358 55.4592 33.8048 55.4453 33.8744 55.4453C33.9441 55.4453 34.013 55.4592 34.0774 55.4858C34.1417 55.5125 34.2002 55.5515 34.2494 55.6008C34.2987 55.6501 34.3378 55.7084 34.3645 55.7727C34.3912 55.8371 34.4049 55.9062 34.4049 55.9758C34.4049 56.0455 34.3912 56.1144 34.3645 56.1787C34.3378 56.2431 34.2987 56.3016 34.2494 56.3508L31.8194 58.7808C31.7203 58.8771 31.5876 58.9308 31.4494 58.9307Z" fill="#333333"/>
<path d="M41.1798 68.5498C41.0404 68.5462 40.9078 68.489 40.8098 68.3899C40.7605 68.3407 40.7214 68.2821 40.6947 68.2178C40.668 68.1534 40.6543 68.0845 40.6543 68.0149C40.6543 67.9452 40.668 67.8761 40.6947 67.8118C40.7214 67.7474 40.7605 67.6891 40.8098 67.6399L48.8098 59.6399C48.9104 59.5427 49.0449 59.4883 49.1848 59.4883C49.3247 59.4883 49.4591 59.5427 49.5598 59.6399C49.6569 59.7406 49.7112 59.875 49.7112 60.0149C49.7112 60.1548 49.6569 60.2892 49.5598 60.3899L41.5598 68.3899C41.4586 68.4905 41.3224 68.5478 41.1798 68.5498Z" fill="#333333"/>
<path d="M31.7403 70.6385C31.3686 70.6388 31.0006 70.5654 30.6574 70.4229C30.3142 70.2805 30.0025 70.0717 29.7403 69.8084C29.4747 69.5479 29.2643 69.2365 29.1217 68.8929C28.9791 68.5493 28.9072 68.1804 28.9102 67.8084C28.9094 67.4367 28.9824 67.0685 29.1249 66.7252C29.2673 66.3819 29.4765 66.0703 29.7403 65.8084C30.0026 65.546 30.3146 65.3384 30.6579 65.1976C31.0013 65.0568 31.3692 64.9857 31.7403 64.9884C32.1113 64.9857 32.4792 65.0568 32.8226 65.1976C33.1659 65.3384 33.4779 65.546 33.7403 65.8084C34.004 66.0703 34.2132 66.3819 34.3556 66.7252C34.4981 67.0685 34.571 67.4367 34.5702 67.8084C34.5733 68.1804 34.5014 68.5493 34.3588 68.8929C34.2162 69.2365 34.0058 69.5479 33.7403 69.8084C33.4783 70.0722 33.1667 70.2814 32.8234 70.4239C32.4801 70.5664 32.1119 70.6393 31.7403 70.6385ZM30.4802 69.0584C30.8138 69.39 31.2649 69.5762 31.7352 69.5762C32.2055 69.5762 32.6567 69.39 32.9903 69.0584C33.1533 68.8939 33.2823 68.6987 33.3699 68.4842C33.4574 68.2697 33.5017 68.0401 33.5002 67.8084C33.501 67.341 33.3178 66.892 32.9903 66.5584C32.6577 66.2281 32.2089 66.0414 31.7403 66.0384C31.2683 66.0399 30.8158 66.2266 30.4802 66.5584C30.1527 66.892 29.9695 67.341 29.9702 67.8084C29.9688 68.0401 30.0131 68.2697 30.1006 68.4842C30.1882 68.6987 30.3172 68.8939 30.4802 69.0584Z" fill="#333333"/>
<path d="M29.8005 62.8491C29.4287 62.851 29.0602 62.7785 28.7167 62.636C28.3733 62.4935 28.0618 62.2837 27.8005 62.019C27.5381 61.7566 27.3305 61.4447 27.1898 61.1013C27.049 60.758 26.9779 60.3901 26.9805 60.019C26.9779 59.648 27.049 59.2801 27.1898 58.9368C27.3305 58.5934 27.5381 58.2814 27.8005 58.019C28.3325 57.4914 29.0513 57.1953 29.8005 57.1953C30.5498 57.1953 31.2686 57.4914 31.8005 58.019C32.0661 58.2796 32.2765 58.591 32.4191 58.9346C32.5617 59.2782 32.6336 59.647 32.6305 60.019C32.6336 60.3911 32.5617 60.7599 32.4191 61.1035C32.2765 61.4471 32.0661 61.7585 31.8005 62.019C31.5397 62.2841 31.2282 62.4942 30.8847 62.6367C30.5411 62.7793 30.1725 62.8516 29.8005 62.8491ZM29.8005 58.259C29.5682 58.2589 29.3381 58.3048 29.1235 58.394C28.909 58.4833 28.7143 58.6142 28.5505 58.7791C28.3852 58.9424 28.254 59.1372 28.1648 59.3518C28.0755 59.5664 28.0299 59.7966 28.0305 60.0291C28.0335 60.4977 28.2202 60.9465 28.5505 61.2791C28.8824 61.61 29.3319 61.7959 29.8005 61.7959C30.2692 61.7959 30.7187 61.61 31.0505 61.2791C31.2159 61.1157 31.347 60.9209 31.4363 60.7063C31.5256 60.4917 31.5712 60.2615 31.5705 60.0291C31.5735 59.7963 31.5289 59.5653 31.4395 59.3503C31.3501 59.1354 31.2177 58.941 31.0505 58.7791C30.8882 58.6123 30.6937 58.4803 30.4789 58.3909C30.264 58.3015 30.0332 58.2566 29.8005 58.259Z" fill="#333333"/>
<path d="M39.56 72.4309C39.1883 72.4317 38.8201 72.3588 38.4768 72.2163C38.1335 72.0738 37.8219 71.8648 37.56 71.6011C37.0324 71.0691 36.7363 70.3503 36.7363 69.6011C36.7363 68.8519 37.0324 68.133 37.56 67.6011C38.0919 67.0735 38.8108 66.7773 39.56 66.7773C40.3092 66.7773 41.0281 67.0735 41.56 67.6011C42.0876 68.133 42.3837 68.8519 42.3837 69.6011C42.3837 70.3503 42.0876 71.0691 41.56 71.6011C41.0297 72.1319 40.3103 72.4303 39.56 72.4309ZM39.56 67.8311C39.0911 67.833 38.6419 68.0199 38.31 68.3511C37.979 68.6829 37.7932 69.1324 37.7932 69.6011C37.7932 70.0697 37.979 70.5193 38.31 70.8511C38.6467 71.1726 39.0944 71.3521 39.56 71.3521C40.0256 71.3521 40.4733 71.1726 40.81 70.8511C41.141 70.5193 41.3268 70.0697 41.3268 69.6011C41.3268 69.1324 41.141 68.6829 40.81 68.3511C40.4781 68.0199 40.0289 67.833 39.56 67.8311Z" fill="#333333"/>
<path d="M63.8605 58.0488H35.5605V41.3789H63.8605V58.0488ZM36.6205 56.9888H62.8005V42.4387H36.6205V56.9888Z" fill="#333333"/>
<path d="M37.6191 43.4609V47.8309L41.9791 43.4609H37.6191Z" fill="#235AB0"/>
<path d="M58.9302 46.8594H40.9102V47.8594H58.9302V46.8594Z" fill="#333333"/>
<path d="M58.9302 49.8594H40.9102V50.8594H58.9302V49.8594Z" fill="#333333"/>
<path d="M54.6002 52.8711H45.2402V53.8711H54.6002V52.8711Z" fill="#333333"/>
</g>
<defs>
<clipPath id="clip0_1075_171962">
<rect width="45.43" height="45.43" fill="white" transform="translate(27 27)"/>
</clipPath>
</defs>
</svg>
