<svg width="90" height="90" viewBox="0 0 90 90" fill="none" xmlns="http://www.w3.org/2000/svg">
<circle cx="45" cy="45" r="45" fill="#FAFAFA"/>
<g clip-path="url(#clip0_1800_397165)">
<path d="M45.08 70.6306C59.2295 70.6306 70.7 59.1602 70.7 45.0106C70.7 30.8611 59.2295 19.3906 45.08 19.3906C30.9304 19.3906 19.46 30.8611 19.46 45.0106C19.46 59.1602 30.9304 70.6306 45.08 70.6306Z" fill="#235AB0"/>
<path d="M70.6703 45.6295H19.5304C19.4553 45.6399 19.379 45.634 19.3064 45.6124C19.2338 45.5908 19.1667 45.5538 19.1096 45.504C19.0525 45.4543 19.0067 45.3928 18.9753 45.3238C18.944 45.2549 18.9277 45.1799 18.9277 45.1041C18.9277 45.0284 18.944 44.9538 18.9753 44.8849C19.0067 44.8159 19.0525 44.7545 19.1096 44.7047C19.1667 44.655 19.2338 44.6179 19.3064 44.5963C19.379 44.5747 19.4553 44.5688 19.5304 44.5792H70.6703C70.7454 44.5688 70.8218 44.5747 70.8943 44.5963C70.9669 44.6179 71.034 44.655 71.0911 44.7047C71.1482 44.7545 71.194 44.8159 71.2254 44.8849C71.2568 44.9538 71.273 45.0284 71.273 45.1041C71.273 45.1799 71.2568 45.2549 71.2254 45.3238C71.194 45.3928 71.1482 45.4543 71.0911 45.504C71.034 45.5538 70.9669 45.5908 70.8943 45.6124C70.8218 45.634 70.7454 45.6399 70.6703 45.6295Z" fill="#333333"/>
<path d="M45.1198 45.6597C44.9793 45.6597 44.8445 45.6038 44.7451 45.5044C44.6457 45.405 44.5898 45.2704 44.5898 45.1299V19.5396C44.5898 19.399 44.6457 19.2644 44.7451 19.165C44.8445 19.0656 44.9793 19.0098 45.1198 19.0098C45.2604 19.0098 45.3952 19.0656 45.4946 19.165C45.594 19.2644 45.6498 19.399 45.6498 19.5396V45.1299C45.6498 45.1995 45.6361 45.2682 45.6095 45.3325C45.5829 45.3968 45.5438 45.4552 45.4946 45.5044C45.4454 45.5536 45.387 45.5925 45.3227 45.6191C45.2584 45.6458 45.1894 45.6597 45.1198 45.6597Z" fill="#333333"/>
<path d="M70.67 45.7002C70.5294 45.7002 70.3946 45.6443 70.2952 45.5449C70.1958 45.4455 70.14 45.311 70.14 45.1704C70.14 38.5294 67.5019 32.1603 62.8059 27.4644C58.11 22.7684 51.741 20.1304 45.1 20.1304C38.459 20.1304 32.09 22.7684 27.394 27.4644C22.6981 32.1603 20.06 38.5294 20.06 45.1704C20.06 45.311 20.0041 45.4455 19.9048 45.5449C19.8054 45.6443 19.6706 45.7002 19.53 45.7002C19.3894 45.7002 19.2546 45.6443 19.1552 45.5449C19.0558 45.4455 19 45.311 19 45.1704C19 38.2483 21.7498 31.6095 26.6445 26.7148C31.5392 21.8201 38.1779 19.0703 45.1 19.0703C52.0222 19.0703 58.6608 21.8201 63.5555 26.7148C68.4502 31.6095 71.2 38.2483 71.2 45.1704C71.2 45.311 71.1442 45.4455 71.0448 45.5449C70.9454 45.6443 70.8105 45.7002 70.67 45.7002Z" fill="#333333"/>
<path d="M31.3904 45.6304C31.2498 45.6304 31.115 45.5745 31.0156 45.4751C30.9162 45.3757 30.8604 45.2407 30.8604 45.1001C30.8604 33.2401 35.5804 26.3702 39.5404 22.7002C39.5896 22.6509 39.648 22.6116 39.7124 22.585C39.7767 22.5583 39.8457 22.5449 39.9154 22.5449C39.985 22.5449 40.054 22.5583 40.1183 22.585C40.1827 22.6116 40.2412 22.6509 40.2904 22.7002C40.3397 22.7494 40.3787 22.8077 40.4054 22.8721C40.4321 22.9364 40.4458 23.0055 40.4458 23.0752C40.4458 23.1449 40.4321 23.214 40.4054 23.2783C40.3787 23.3427 40.3397 23.401 40.2904 23.4502C36.4904 26.9802 31.9503 33.6001 31.9503 45.0801C31.9533 45.1539 31.9407 45.2277 31.9135 45.2964C31.8862 45.3651 31.8449 45.4272 31.7921 45.479C31.7394 45.5308 31.6764 45.5712 31.6072 45.5972C31.538 45.6232 31.4641 45.6346 31.3904 45.6304Z" fill="#333333"/>
<path d="M58.81 45.6305C58.6694 45.6305 58.5346 45.5746 58.4352 45.4752C58.3359 45.3758 58.28 45.2408 58.28 45.1002C58.28 33.6202 53.74 27.0003 49.94 23.4703C49.8807 23.4255 49.8316 23.3688 49.7956 23.3038C49.7597 23.2388 49.7378 23.1669 49.7314 23.0929C49.7251 23.0189 49.7343 22.9443 49.7586 22.8741C49.7829 22.8039 49.8216 22.7399 49.8724 22.6856C49.9231 22.6314 49.9847 22.5881 50.0531 22.5592C50.1215 22.5302 50.1952 22.5163 50.2695 22.5177C50.3438 22.5191 50.4169 22.536 50.4842 22.5675C50.5514 22.599 50.6114 22.6442 50.66 22.7003C54.66 26.3703 59.34 33.2402 59.34 45.1002C59.34 45.1698 59.3263 45.239 59.2997 45.3033C59.273 45.3676 59.234 45.426 59.1848 45.4752C59.1355 45.5244 59.0771 45.5633 59.0128 45.5899C58.9485 45.6166 58.8796 45.6305 58.81 45.6305Z" fill="#333333"/>
<path d="M45.1203 34.6603C30.8303 34.6603 27.0203 27.2801 26.8603 26.9601C26.8006 26.8337 26.7923 26.6892 26.837 26.5568C26.8818 26.4244 26.9762 26.3144 27.1003 26.2501C27.2263 26.1878 27.3718 26.1783 27.505 26.2233C27.6381 26.2683 27.7479 26.3644 27.8103 26.4904C27.8103 26.5604 31.5403 33.6105 45.1203 33.6105C45.2002 33.5824 45.2857 33.5738 45.3696 33.5856C45.4535 33.5973 45.5333 33.6289 45.6024 33.6779C45.6715 33.7268 45.7279 33.7916 45.7668 33.8668C45.8057 33.9421 45.826 34.0258 45.826 34.1105C45.826 34.1952 45.8057 34.2784 45.7668 34.3537C45.7279 34.4289 45.6715 34.4937 45.6024 34.5426C45.5333 34.5916 45.4535 34.6236 45.3696 34.6354C45.2857 34.6471 45.2002 34.6386 45.1203 34.6105V34.6603Z" fill="#333333"/>
<path d="M45.1198 34.6597C45.0163 34.6233 44.9266 34.5559 44.8632 34.4664C44.7997 34.3768 44.7656 34.2695 44.7656 34.1597C44.7656 34.05 44.7997 33.9431 44.8632 33.8536C44.9266 33.764 45.0163 33.6961 45.1198 33.6597C58.6998 33.6597 62.3898 26.6096 62.4298 26.5396C62.4601 26.4763 62.5027 26.4199 62.5551 26.3731C62.6074 26.3264 62.6686 26.2906 62.7349 26.2676C62.8013 26.2447 62.8715 26.2349 62.9416 26.2393C63.0116 26.2438 63.0801 26.2624 63.143 26.2935C63.2059 26.3247 63.262 26.368 63.3081 26.421C63.3541 26.474 63.3892 26.5355 63.4112 26.6021C63.4332 26.6688 63.4418 26.7392 63.4364 26.8091C63.4311 26.8791 63.4118 26.9473 63.3799 27.0098C63.1999 27.2798 59.3898 34.6597 45.1198 34.6597Z" fill="#333333"/>
<path d="M45.1197 71.23C45.0506 71.23 44.9821 71.2162 44.9184 71.1895C44.8546 71.1627 44.7968 71.1236 44.7484 71.0742C44.7 71.0249 44.6619 70.9666 44.6364 70.9023C44.6108 70.8381 44.5984 70.7693 44.5997 70.7002V45.1001C44.6172 44.9733 44.6801 44.857 44.7766 44.7729C44.8731 44.6889 44.9967 44.6426 45.1247 44.6426C45.2527 44.6426 45.3763 44.6889 45.4728 44.7729C45.5693 44.857 45.6322 44.9733 45.6497 45.1001V70.7002C45.6497 70.7698 45.636 70.8385 45.6093 70.9028C45.5827 70.9671 45.5437 71.0255 45.4945 71.0747C45.4452 71.1239 45.3868 71.1633 45.3225 71.1899C45.2582 71.2166 45.1893 71.23 45.1197 71.23Z" fill="#333333"/>
<path d="M45.1195 71.2295C38.1998 71.2216 31.5658 68.4692 26.6728 63.5762C21.7798 58.6832 19.0275 52.0496 19.0195 45.1299C19.0195 44.9893 19.0754 44.8543 19.1748 44.7549C19.2742 44.6555 19.409 44.5996 19.5495 44.5996C19.6901 44.5996 19.8249 44.6555 19.9243 44.7549C20.0237 44.8543 20.0795 44.9893 20.0795 45.1299C20.0795 51.7709 22.7177 58.1395 27.4136 62.8354C32.1095 67.5314 38.4785 70.1699 45.1195 70.1699C51.7606 70.1699 58.1296 67.5314 62.8255 62.8354C67.5214 58.1395 70.1595 51.7709 70.1595 45.1299C70.1595 44.9893 70.2154 44.8543 70.3148 44.7549C70.4142 44.6555 70.549 44.5996 70.6895 44.5996C70.8301 44.5996 70.9649 44.6555 71.0643 44.7549C71.1637 44.8543 71.2195 44.9893 71.2195 45.1299C71.2116 52.0496 68.4592 58.6832 63.5663 63.5762C58.6733 68.4692 52.0392 71.2216 45.1195 71.2295Z" fill="#333333"/>
<path d="M51.17 66.8296C51.0322 66.8277 50.9002 66.7743 50.8 66.6797C50.7507 66.6305 50.7116 66.5722 50.6849 66.5078C50.6583 66.4435 50.6445 66.3743 50.6445 66.3047C50.6445 66.235 50.6583 66.1659 50.6849 66.1016C50.7116 66.0372 50.7507 65.9789 50.8 65.9297C54.22 62.4197 58.29 55.9299 58.29 45.1299C58.29 44.9893 58.3458 44.8543 58.4452 44.7549C58.5446 44.6555 58.6794 44.5996 58.82 44.5996C58.9606 44.5996 59.0954 44.6555 59.1948 44.7549C59.2942 44.8543 59.35 44.9893 59.35 45.1299C59.35 56.3099 55.11 63.0199 51.56 66.6699C51.5102 66.7228 51.4496 66.7644 51.3823 66.792C51.315 66.8196 51.2426 66.8323 51.17 66.8296Z" fill="#333333"/>
<path d="M39.0104 66.8096C38.9395 66.8102 38.8692 66.7966 38.8038 66.769C38.7385 66.7415 38.6795 66.7011 38.6304 66.6499C35.0904 62.9999 30.8604 56.2999 30.8604 45.1299C30.8604 44.9893 30.9162 44.8543 31.0156 44.7549C31.115 44.6555 31.2498 44.5996 31.3904 44.5996C31.5309 44.5996 31.6657 44.6555 31.7651 44.7549C31.8645 44.8543 31.9203 44.9893 31.9203 45.1299C31.9203 55.9499 35.9804 62.3997 39.3904 65.9097C39.4396 65.9589 39.4788 66.0172 39.5054 66.0815C39.5321 66.1459 39.5458 66.215 39.5458 66.2847C39.5458 66.3543 39.5321 66.4234 39.5054 66.4878C39.4788 66.5521 39.4396 66.6104 39.3904 66.6597C39.3408 66.7095 39.2814 66.7486 39.216 66.7744C39.1506 66.8002 39.0806 66.8121 39.0104 66.8096Z" fill="#333333"/>
<path d="M62.8803 64.04C62.7816 64.0398 62.6849 64.0116 62.6017 63.9585C62.5185 63.9054 62.4521 63.8297 62.4103 63.7402C62.4103 63.6702 58.6803 56.6304 45.1003 56.6304C44.9597 56.6304 44.8249 56.5745 44.7255 56.4751C44.6261 56.3757 44.5703 56.2407 44.5703 56.1001C44.5703 55.9595 44.6261 55.825 44.7255 55.7256C44.8249 55.6262 44.9597 55.5703 45.1003 55.5703C59.3903 55.5703 63.2003 62.96 63.3603 63.27C63.3987 63.3517 63.4161 63.4416 63.4108 63.5317C63.4055 63.6218 63.3778 63.7095 63.33 63.7861C63.2823 63.8627 63.2161 63.9258 63.1375 63.9702C63.059 64.0146 62.9705 64.0386 62.8803 64.04Z" fill="#333333"/>
<path d="M27.3198 64.04C27.2361 64.0393 27.1539 64.0186 27.0797 63.98C26.9556 63.9157 26.8613 63.8062 26.8165 63.6738C26.7718 63.5414 26.7801 63.3964 26.8397 63.27C26.9997 62.96 30.8398 55.5703 45.0998 55.5703C45.2403 55.5703 45.3751 55.6262 45.4745 55.7256C45.5739 55.825 45.6298 55.9595 45.6298 56.1001C45.6298 56.2407 45.5739 56.3757 45.4745 56.4751C45.3751 56.5745 45.2403 56.6304 45.0998 56.6304C31.5198 56.6304 27.8298 63.6302 27.7898 63.7402C27.748 63.8297 27.6816 63.9054 27.5984 63.9585C27.5151 64.0116 27.4185 64.0398 27.3198 64.04Z" fill="#333333"/>
<path d="M40.9796 46.2906L38.5396 40.6906L39.1896 36.6806L42.2796 32.9606L45.8696 32.3906L48.9496 33.5906L51.3496 37.4606L51.7296 41.5606L50.1096 45.7306L49.4396 46.2906L54.9896 51.4706L56.3096 54.0606V57.9306H34.0996V52.9006L40.9796 46.2906Z" fill="white"/>
<path d="M56.1198 58.3391H34.1198C33.9793 58.3391 33.8445 58.2832 33.7451 58.1839C33.6457 58.0845 33.5898 57.9494 33.5898 57.8089V55.0789C33.5891 54.1011 33.8027 53.1351 34.2157 52.2488C34.6286 51.3625 35.2308 50.5775 35.9798 49.949L40.8398 45.8792C40.8921 45.8339 40.9528 45.7991 41.0185 45.7776C41.0842 45.7561 41.1535 45.7481 41.2224 45.7537C41.2913 45.7593 41.3584 45.7785 41.4198 45.8103C41.4812 45.8421 41.5356 45.8856 41.5798 45.9387C41.6694 46.047 41.7132 46.1859 41.702 46.3259C41.6908 46.466 41.6254 46.5961 41.5198 46.6887L36.6599 50.759C36.0333 51.2911 35.5299 51.953 35.1845 52.699C34.8392 53.4449 34.6601 54.2569 34.6599 55.0789V57.2791H55.6599V55.0491C55.6559 54.232 55.4751 53.4254 55.1298 52.6848C54.7846 51.9443 54.2831 51.2874 53.6599 50.759L48.8898 46.679C48.8367 46.6347 48.793 46.5802 48.7612 46.5188C48.7293 46.4574 48.7101 46.3905 48.7045 46.3215C48.6989 46.2526 48.7071 46.1831 48.7286 46.1174C48.7502 46.0518 48.7846 45.991 48.8298 45.9387C48.9225 45.8331 49.0527 45.7683 49.1927 45.7571C49.3327 45.7459 49.4716 45.7897 49.5798 45.8792L54.3398 49.9588C55.0764 50.5867 55.668 51.3671 56.0737 52.2459C56.4795 53.1246 56.6897 54.0812 56.6899 55.0491V57.8089C56.6901 57.882 56.6751 57.9542 56.646 58.0213C56.6169 58.0883 56.5743 58.1487 56.5208 58.1985C56.4672 58.2483 56.404 58.2867 56.335 58.3108C56.266 58.335 56.1927 58.3446 56.1198 58.3391Z" fill="#333333"/>
<path d="M45.1699 48.48C41.2899 48.48 38.1699 44.7599 38.1699 40.1899C38.1699 35.6199 41.3299 31.9004 45.1699 31.9004C49.0099 31.9004 52.1699 35.6199 52.1699 40.1899C52.1699 44.7599 49.0499 48.48 45.1699 48.48ZM45.1699 32.96C41.8699 32.96 39.1699 36.1999 39.1699 40.1899C39.1699 44.1799 41.8499 47.4204 45.1699 47.4204C48.4899 47.4204 51.1699 44.1799 51.1699 40.1899C51.1699 36.1999 48.4599 32.9302 45.1699 32.9302V32.96Z" fill="#333333"/>
</g>
<defs>
<clipPath id="clip0_1800_397165">
<rect width="52.2" height="52.23" fill="white" transform="translate(19 19)"/>
</clipPath>
</defs>
</svg>
