<svg width="90" height="90" viewBox="0 0 90 90" fill="none" xmlns="http://www.w3.org/2000/svg">
<circle cx="45" cy="45" r="45" fill="#FAFAFA"/>
<g clip-path="url(#clip0_1401_247880)">
<path d="M47.02 42.7998L47.29 22.5498C47.29 22.5498 65.11 22.0499 68.5 43.3299L47.02 42.7998Z" fill="white"/>
<path d="M43.3301 26.3809V47.1709H64.1501L63.5901 52.3109L59.7101 59.9309L54.5101 65.3309L44.0101 68.1009L34.3701 65.9809L27.5401 60.9209L23.5401 54.0709L22.6001 47.3409L23.2601 40.9509L27.0701 33.9309L32.7201 29.1009L40.6301 26.3809H43.3301Z" fill="white"/>
<path d="M43.33 68.5291C37.6754 68.5211 32.2546 66.2714 28.2562 62.2729C24.2577 58.2745 22.0079 52.8536 22 47.199C22.0079 41.5443 24.2577 36.1237 28.2562 32.1252C32.2546 28.1268 37.6754 25.8771 43.33 25.8691C43.3996 25.8691 43.4685 25.8828 43.5328 25.9094C43.5971 25.9361 43.6556 25.975 43.7048 26.0242C43.754 26.0734 43.793 26.132 43.8197 26.1963C43.8463 26.2606 43.86 26.3296 43.86 26.3992V46.6689H64.13C64.2706 46.6689 64.4054 46.7248 64.5048 46.8242C64.6042 46.9236 64.66 47.0584 64.66 47.199C64.6521 52.8536 62.4023 58.2745 58.4038 62.2729C54.4054 66.2714 48.9846 68.5211 43.33 68.5291ZM42.8 26.939C37.5198 27.0821 32.5036 29.2788 28.8175 33.062C25.1314 36.8453 23.0659 41.9169 23.06 47.199C23.0679 52.5725 25.2061 57.7238 29.0057 61.5234C32.8054 65.3231 37.9565 67.4611 43.33 67.469C48.6121 67.4631 53.6837 65.3976 57.4669 61.7114C61.2502 58.0253 63.4468 53.0092 63.59 47.729H43.33C43.2604 47.729 43.1915 47.7154 43.1272 47.6887C43.0629 47.6621 43.0044 47.6229 42.9552 47.5737C42.906 47.5245 42.867 47.4662 42.8403 47.4019C42.8137 47.3376 42.8 47.2686 42.8 47.199V26.939Z" fill="#333333"/>
<path d="M67.9799 43.8601H47.1799C47.0393 43.8601 46.9045 43.8042 46.8051 43.7048C46.7057 43.6054 46.6499 43.4706 46.6499 43.3301V22.53C46.6499 22.3895 46.7057 22.2547 46.8051 22.1553C46.9045 22.0559 47.0393 22 47.1799 22C52.8336 22.0079 58.2533 24.2581 62.2502 28.2568C66.247 32.2556 68.4946 37.6764 68.4999 43.3301C68.5012 43.3992 68.4888 43.4677 68.4632 43.532C68.4377 43.5962 68.3996 43.6548 68.3512 43.7041C68.3028 43.7535 68.245 43.7928 68.1812 43.8196C68.1175 43.8463 68.049 43.8601 67.9799 43.8601ZM47.7099 42.8H67.4299C67.2887 37.611 65.165 32.6732 61.4953 29.0017C57.8257 25.3302 52.8889 23.2039 47.6999 23.0601L47.7099 42.8Z" fill="#333333"/>
<path d="M43.3302 55.5303C41.1085 55.5276 38.9785 54.644 37.4076 53.073C35.8366 51.502 34.9528 49.3721 34.9502 47.1504C34.9656 45.3512 35.5563 43.604 36.6359 42.1646C37.7155 40.7251 39.2273 39.669 40.9502 39.1504C41.0165 39.1289 41.0864 39.1209 41.1558 39.127C41.2253 39.133 41.2928 39.1529 41.3543 39.1856C41.4159 39.2182 41.4703 39.2628 41.5142 39.3169C41.5582 39.371 41.5908 39.4333 41.6102 39.5003C41.6477 39.6355 41.6311 39.7801 41.5639 39.9033C41.4967 40.0265 41.3842 40.1185 41.2502 40.1602C39.7477 40.6184 38.4309 41.5447 37.4919 42.804C36.5529 44.0632 36.0407 45.5894 36.0302 47.1602C36.0236 48.124 36.2074 49.0796 36.5711 49.9722C36.9347 50.8648 37.4711 51.6768 38.1494 52.3616C38.8276 53.0463 39.6344 53.5905 40.5235 53.9627C41.4126 54.3348 42.3664 54.5277 43.3302 54.5303C44.9021 54.5245 46.4307 54.0142 47.6908 53.0745C48.951 52.1348 49.8762 50.8153 50.3302 49.3103C50.3719 49.1763 50.4641 49.0638 50.5873 48.9966C50.7105 48.9294 50.855 48.9127 50.9902 48.9502C51.1242 48.9919 51.2367 49.0841 51.3039 49.2073C51.3711 49.3305 51.3877 49.4751 51.3502 49.6104C50.8165 51.3216 49.7512 52.818 48.309 53.8826C46.8668 54.9471 45.1227 55.5244 43.3302 55.5303Z" fill="#333333"/>
<path d="M61.3598 41.1807H65.7098C65.2186 37.0047 63.3337 33.1166 60.3596 30.1443C57.3855 27.172 53.496 25.2894 49.3198 24.8008V29.1509C52.3471 29.6105 55.1481 31.0255 57.3142 33.1897C59.4802 35.3539 60.8977 38.1538 61.3598 41.1807Z" fill="#235AB0"/>
</g>
<defs>
<clipPath id="clip0_1401_247880">
<rect width="46.5" height="46.5" fill="white" transform="translate(22 22)"/>
</clipPath>
</defs>
</svg>
