<svg width="59" height="60" viewBox="0 0 59 60" fill="none" xmlns="http://www.w3.org/2000/svg">
<path d="M29.4139 2.94792C44.3224 2.94792 56.4557 15.1244 56.4557 30.086C56.4557 45.0477 44.3224 57.2242 29.4139 57.2242C14.5053 57.2361 2.37209 45.0596 2.37209 30.086C2.37209 15.1244 14.5053 2.94792 29.4139 2.94792ZM29.4139 0.567383C13.1651 0.567383 0 13.7794 0 30.086C0 46.3927 13.1651 59.6047 29.4139 59.6047C45.6627 59.6047 58.8278 46.3927 58.8278 30.086C58.8278 13.7794 45.6627 0.567383 29.4139 0.567383Z" fill="white"/>
<path d="M44.9269 30.0857L20.4707 13.9576C20.5063 38.2747 20.4707 26.3363 20.4707 46.2138L44.9269 30.0857Z" fill="white"/>
</svg>
