<svg width="24" height="16" viewBox="0 0 24 16" fill="none" xmlns="http://www.w3.org/2000/svg">
<g clip-path="url(#clip0_1043_176443)">
<path d="M24 0.5H0V15.5H24V0.5Z" fill="#4EAEC4"/>
<path d="M1.57648 11.0794C1.58041 10.9551 1.62994 10.8375 1.71432 10.7522C1.7987 10.6668 1.91111 10.6205 2.02714 10.6234C2.07855 10.6164 2.13075 10.6215 2.18019 10.6381C2.22964 10.6547 2.27515 10.6825 2.31364 10.7197C2.35214 10.7569 2.3827 10.8025 2.40325 10.8535C2.4238 10.9044 2.43386 10.9595 2.43273 11.015C2.43473 11.131 2.40887 11.2455 2.35762 11.3476L1.74673 12.6996C1.72444 12.7573 1.71419 12.8196 1.71669 12.882C1.72471 12.9392 1.75161 12.9913 1.7925 13.0291C1.83339 13.0668 1.88556 13.0875 1.93952 13.0875C1.99347 13.0875 2.04563 13.0668 2.08652 13.0291C2.12741 12.9913 2.15431 12.9392 2.16233 12.882C2.16233 12.7318 2.09223 12.6674 2.02213 12.6674C1.95202 12.6674 1.88693 12.705 1.88693 12.7747C1.88693 12.8444 1.91196 12.8444 1.94201 12.8444C1.97205 12.8444 1.9971 12.7318 1.9971 12.7318C2.00756 12.7334 2.01754 12.7376 2.0263 12.7439C2.03505 12.7503 2.04235 12.7587 2.04765 12.7685C2.05294 12.7783 2.05611 12.7892 2.05689 12.8005C2.05767 12.8118 2.05606 12.8232 2.05217 12.8337C2.0598 12.8297 2.06826 12.8279 2.07673 12.8284C2.08519 12.8289 2.09341 12.8317 2.10059 12.8365C2.10778 12.8413 2.11371 12.848 2.11782 12.856C2.12192 12.8639 2.12407 12.8729 2.12407 12.882C2.12407 12.8911 2.12192 12.9 2.11782 12.908C2.11371 12.9159 2.10778 12.9226 2.10059 12.9274C2.09341 12.9323 2.08519 12.9351 2.07673 12.9356C2.06826 12.9361 2.0598 12.9342 2.05217 12.9303C2.05217 12.9946 2.05217 13.0215 1.99208 13.0376C1.99684 13.0146 1.99684 12.9908 1.99208 12.9678C1.96749 12.9775 1.94106 12.9805 1.91511 12.9767C1.88916 12.9729 1.86448 12.9623 1.84323 12.9459C1.82198 12.9295 1.80482 12.9078 1.79323 12.8826C1.78164 12.8574 1.77599 12.8296 1.77677 12.8015C1.77381 12.7627 1.77965 12.7237 1.7938 12.6879C1.80794 12.652 1.82997 12.6203 1.85801 12.5956C1.88604 12.5708 1.91924 12.5537 1.9548 12.5456C1.99035 12.5376 2.0272 12.5389 2.06219 12.5494C2.04234 12.5361 2.02566 12.518 2.01349 12.4966C2.00132 12.4751 1.99399 12.451 1.99208 12.426C2.01527 12.4304 2.03901 12.4304 2.06219 12.426C2.03128 12.3807 2.01383 12.3265 2.01212 12.2704C2.04717 12.2704 2.08222 12.3187 2.12228 12.3026C2.10744 12.2599 2.10203 12.2141 2.10648 12.1688C2.11092 12.1235 2.12511 12.0799 2.1479 12.0415C2.1707 12.003 2.20149 11.9707 2.23788 11.9472C2.27426 11.9236 2.31525 11.9094 2.35762 11.9056C2.28198 11.9891 2.23899 12.1004 2.23745 12.2168C2.23745 12.5655 2.32758 12.6245 2.32758 12.8659C2.32567 12.9215 2.31208 12.976 2.2878 13.0252C2.26353 13.0744 2.2292 13.1172 2.18738 13.1502V13.1502C2.21286 13.1557 2.23704 13.1666 2.25854 13.1823C2.28004 13.198 2.29841 13.2181 2.31256 13.2414C2.1586 13.2874 1.99583 13.2874 1.84187 13.2414C1.7904 13.234 1.74116 13.2142 1.69782 13.1835C1.65447 13.1529 1.61813 13.1122 1.59151 13.0644C1.56464 12.9974 1.55078 12.9254 1.55078 12.8525C1.55078 12.7796 1.56464 12.7075 1.59151 12.6406C1.68164 12.4421 2.09223 11.5193 2.21241 11.2296C2.24194 11.1682 2.25738 11.1002 2.25747 11.0311C2.25682 10.9987 2.25021 10.9668 2.23803 10.9371C2.22585 10.9074 2.20834 10.8806 2.18649 10.8582C2.16463 10.8358 2.13886 10.8182 2.11066 10.8064C2.08246 10.7947 2.05238 10.789 2.02213 10.7897C1.97033 10.7878 1.91972 10.8065 1.87998 10.8421C1.84025 10.8778 1.81419 10.9279 1.80682 10.9828C1.80543 10.9959 1.80657 11.0092 1.81016 11.0219C1.81375 11.0345 1.81973 11.0462 1.8277 11.0562C1.83568 11.0663 1.84549 11.0745 1.85654 11.0803C1.86759 11.0861 1.87964 11.0895 1.89195 11.0901C2.01212 11.0901 2.0021 10.9828 1.97706 10.9131C2.05217 10.9506 2.09723 11.0097 2.08221 11.0741C2.12809 11.0864 2.16977 11.1124 2.2024 11.1491C2.18866 11.1698 2.17069 11.1869 2.14986 11.1989C2.12903 11.211 2.10588 11.2179 2.08221 11.2189C2.08221 11.3208 2.04216 11.3584 1.97706 11.3852C2.0021 11.3155 2.01212 11.2243 1.89195 11.2243C1.85616 11.2294 1.81973 11.2253 1.78574 11.2122C1.75176 11.1992 1.72121 11.1775 1.69665 11.1491C1.69665 11.2296 1.69665 11.5462 1.69665 11.5462C1.69665 11.6642 1.84687 11.6642 1.94702 11.632C1.93995 11.6652 1.92679 11.6966 1.90833 11.7243C1.88986 11.752 1.86645 11.7756 1.83944 11.7935C1.81243 11.8115 1.78236 11.8235 1.75098 11.8289C1.71959 11.8344 1.68752 11.8331 1.6566 11.8251C1.68425 11.8355 1.70798 11.8553 1.72424 11.8814C1.74049 11.9076 1.74839 11.9386 1.74673 11.97C1.74275 12.0235 1.72763 12.0753 1.70251 12.1217C1.67738 12.1682 1.64287 12.208 1.60151 12.2382L1.57648 11.0794Z" fill="#F5C832"/>
<path d="M1.63174 11.0794C1.62782 10.9551 1.57829 10.8375 1.49391 10.7522C1.40953 10.6668 1.29712 10.6205 1.18109 10.6234C1.12968 10.6164 1.07748 10.6215 1.02803 10.6381C0.978591 10.6547 0.933077 10.6825 0.894584 10.7197C0.856092 10.7569 0.825525 10.8025 0.804976 10.8535C0.784427 10.9044 0.774371 10.9595 0.775499 11.015C0.773493 11.131 0.799355 11.2455 0.850606 11.3476L1.4615 12.6996C1.48378 12.7573 1.49404 12.8196 1.49154 12.882C1.49154 12.946 1.4678 13.0074 1.42554 13.0527C1.38328 13.098 1.32598 13.1234 1.26622 13.1234C1.20646 13.1234 1.14914 13.098 1.10688 13.0527C1.06463 13.0074 1.04089 12.946 1.04089 12.882C1.04089 12.7318 1.116 12.6674 1.1861 12.6674C1.2562 12.6674 1.31628 12.705 1.31628 12.7747C1.31628 12.8444 1.31629 12.8444 1.26121 12.8444C1.20613 12.8444 1.20612 12.7318 1.20612 12.7318C1.1961 12.7341 1.18669 12.7387 1.17852 12.7454C1.17036 12.752 1.16364 12.7605 1.15887 12.7702C1.1541 12.7799 1.15137 12.7906 1.15088 12.8016C1.15039 12.8126 1.15217 12.8235 1.15606 12.8337C1.12786 12.8433 1.10213 12.8599 1.08094 12.882C1.1013 12.9053 1.12732 12.922 1.15606 12.9303C1.15606 12.9946 1.15606 13.0215 1.21614 13.0376C1.21126 13.0267 1.20872 13.0148 1.20872 13.0027C1.20872 12.9906 1.21126 12.9787 1.21614 12.9678C1.24046 12.9764 1.26633 12.9786 1.2916 12.9743C1.31687 12.9699 1.3408 12.9592 1.36139 12.9429C1.38198 12.9266 1.39864 12.9053 1.40995 12.8807C1.42127 12.8561 1.42693 12.8289 1.42644 12.8015C1.42941 12.7627 1.42358 12.7237 1.40943 12.6879C1.39529 12.652 1.37326 12.6203 1.34522 12.5956C1.31719 12.5708 1.28397 12.5537 1.24842 12.5456C1.21286 12.5376 1.17603 12.5389 1.14104 12.5494C1.16249 12.5381 1.1805 12.5205 1.19292 12.4987C1.20534 12.4768 1.21165 12.4516 1.21113 12.426C1.18799 12.4309 1.16418 12.4309 1.14104 12.426C1.15853 12.4048 1.17195 12.3802 1.18054 12.3535C1.18913 12.3268 1.19272 12.2986 1.1911 12.2704C1.17667 12.2851 1.15905 12.2958 1.13982 12.3014C1.12058 12.307 1.10035 12.3074 1.08094 12.3026C1.0968 12.2603 1.10316 12.2147 1.09947 12.1693C1.09579 12.124 1.08216 12.0802 1.05973 12.0415C1.03729 12.0029 1.00667 11.9704 0.970333 11.9468C0.933998 11.9231 0.892981 11.9091 0.850606 11.9056C0.924858 11.9896 0.966101 12.1011 0.965779 12.2168C0.965779 12.5655 0.875651 12.6245 0.875651 12.8659C0.877382 12.9222 0.891413 12.9772 0.916635 13.0266C0.941858 13.076 0.977556 13.1183 1.02085 13.1502V13.1502C0.995169 13.1551 0.970741 13.1658 0.949168 13.1815C0.927596 13.1972 0.909366 13.2176 0.895669 13.2414C1.04963 13.2874 1.2124 13.2874 1.36636 13.2414C1.4174 13.2348 1.46625 13.2153 1.5089 13.1845C1.55155 13.1537 1.58679 13.1126 1.61173 13.0644C1.63859 12.9974 1.65243 12.9254 1.65243 12.8525C1.65243 12.7796 1.63859 12.7075 1.61173 12.6406L0.990809 11.2296C0.965783 11.1668 0.952193 11.0994 0.950758 11.0311C0.951408 10.9987 0.958015 10.9668 0.970195 10.9371C0.982376 10.9074 0.999883 10.8806 1.02174 10.8582C1.04359 10.8358 1.06936 10.8182 1.09756 10.8064C1.12576 10.7947 1.15585 10.789 1.1861 10.7897C1.23733 10.788 1.28731 10.8068 1.32623 10.8426C1.36515 10.8783 1.39017 10.9283 1.3964 10.9828C1.39778 10.9959 1.39665 11.0092 1.39305 11.0219C1.38946 11.0345 1.38349 11.0462 1.37551 11.0562C1.36753 11.0663 1.35772 11.0745 1.34668 11.0803C1.33563 11.0861 1.32359 11.0895 1.31128 11.0901C1.19612 11.0901 1.20112 10.9828 1.22615 10.9131C1.15605 10.9506 1.11099 11.0097 1.12602 11.0741C1.0793 11.0842 1.03703 11.1105 1.00583 11.1491C1.01957 11.1698 1.03754 11.1869 1.05837 11.1989C1.0792 11.211 1.10235 11.2179 1.12602 11.2189C1.12602 11.3208 1.16607 11.3584 1.22615 11.3852C1.22615 11.3155 1.19111 11.2243 1.31128 11.2243C1.34783 11.2294 1.38499 11.2253 1.41978 11.2123C1.45457 11.1992 1.48601 11.1776 1.51157 11.1491C1.51157 11.2296 1.51157 11.5462 1.51157 11.5462C1.51157 11.6642 1.36637 11.6642 1.26622 11.632C1.30127 11.7661 1.37637 11.8412 1.55664 11.8251C1.52851 11.8347 1.50426 11.8543 1.48789 11.8806C1.47151 11.907 1.46398 11.9385 1.46651 11.97C1.47058 12.0228 1.4852 12.0742 1.50939 12.1204C1.53358 12.1667 1.56677 12.2069 1.60671 12.2382L1.63174 11.0794Z" fill="#F5C832"/>
<path d="M1.60221 14.3251C1.60221 14.3251 1.73741 14.4377 1.78248 14.3787C1.82754 14.3197 1.56216 13.8047 1.56216 13.633C1.56216 13.354 1.7324 13.2789 1.94771 13.2414C2.0724 13.2246 2.19857 13.2246 2.32326 13.2414C2.30933 13.2695 2.28838 13.293 2.26273 13.3091C2.23709 13.3252 2.20776 13.3333 2.17804 13.3326C2.22844 13.3605 2.2706 13.4029 2.29979 13.455C2.32897 13.5071 2.34404 13.5669 2.34329 13.6276C2.34329 13.869 2.25317 13.9656 2.25317 14.2339C2.26482 14.3558 2.30251 14.4733 2.36333 14.5772C2.32132 14.5748 2.28039 14.5619 2.24384 14.5396C2.20729 14.5173 2.17612 14.4861 2.15278 14.4486C2.12945 14.4111 2.11459 14.3683 2.10942 14.3236C2.10424 14.2788 2.10889 14.2334 2.12297 14.191C2.10663 14.1879 2.08985 14.1892 2.07412 14.1949C2.05839 14.2005 2.0442 14.2102 2.03284 14.2232C2.02785 14.1711 2.04224 14.119 2.07289 14.0783C2.04786 14.0783 2.03284 14.0783 1.98778 14.0783C1.99429 14.0495 2.00605 14.0223 2.02238 13.9984C2.0387 13.9745 2.05926 13.9542 2.0829 13.9388C2.04937 13.9518 2.0134 13.9559 1.97806 13.9508C1.94272 13.9456 1.90906 13.9314 1.88 13.9092C1.85094 13.887 1.82735 13.8577 1.81124 13.8236C1.79512 13.7895 1.78696 13.7517 1.78747 13.7135C1.7846 13.6696 1.79754 13.6263 1.82363 13.5923C1.84971 13.5584 1.88695 13.5365 1.92768 13.5311C1.95225 13.5238 1.97823 13.5238 2.0028 13.5311C2.00886 13.5158 2.01198 13.4994 2.01198 13.4828C2.01198 13.4662 2.00886 13.4498 2.0028 13.4345C2.05287 13.4345 2.08291 13.4774 2.06289 13.5472C2.07999 13.5463 2.09704 13.5498 2.11269 13.5572C2.12833 13.5647 2.14214 13.5759 2.15301 13.5901C2.14351 13.6059 2.12992 13.6183 2.11391 13.6259C2.0979 13.6336 2.08018 13.636 2.06289 13.633C2.09293 13.6974 2.06288 13.7296 2.01281 13.7564C1.96274 13.7832 2.04285 13.633 1.96775 13.633C1.89264 13.633 1.90265 13.633 1.90265 13.6974C1.90379 13.7139 1.90819 13.7301 1.91555 13.7447C1.9229 13.7593 1.93305 13.7721 1.94534 13.7823C1.95763 13.7924 1.97177 13.7996 1.98685 13.8035C2.00192 13.8073 2.01761 13.8077 2.03284 13.8047C2.11296 13.8047 2.18807 13.7403 2.18807 13.5901C2.18807 13.4399 2.08291 13.3862 1.94771 13.3862C1.92056 13.3814 1.89275 13.3832 1.86631 13.3913C1.83987 13.3995 1.81546 13.4138 1.79484 13.4333C1.77422 13.4529 1.75792 13.477 1.74712 13.5042C1.73632 13.5313 1.73129 13.5607 1.7324 13.5901C1.7324 13.7671 1.97274 14.1695 1.97274 14.3358C1.97153 14.3622 1.96529 14.388 1.9544 14.4117C1.94352 14.4353 1.92822 14.4564 1.90945 14.4734C1.89068 14.4905 1.86884 14.5033 1.84528 14.511C1.82172 14.5187 1.79693 14.5212 1.77245 14.5182C1.68134 14.5058 1.59761 14.4581 1.53711 14.3841L1.60221 14.3251Z" fill="#F5C832"/>
<path d="M1.60095 14.3251C1.60095 14.3251 1.47076 14.4377 1.42569 14.3787C1.38062 14.3197 1.65102 13.8047 1.65102 13.633C1.65102 13.354 1.47577 13.2789 1.26046 13.2414C1.13577 13.2246 1.0096 13.2246 0.884908 13.2414C0.898363 13.2699 0.919222 13.2937 0.944978 13.3099C0.970733 13.3261 1.0003 13.3339 1.03012 13.3326C0.979724 13.3605 0.937565 13.4029 0.908379 13.455C0.879194 13.5071 0.864127 13.5669 0.864874 13.6276C0.864874 13.869 0.955002 13.9656 0.955002 14.2339C0.94256 14.3565 0.903095 14.4742 0.839844 14.5772C0.881944 14.5743 0.922886 14.5612 0.959617 14.539C0.996348 14.5167 1.02791 14.4859 1.05198 14.4488C1.07604 14.4117 1.09198 14.3692 1.0986 14.3246C1.10522 14.2799 1.10235 14.2343 1.09021 14.191C1.10576 14.1888 1.12156 14.1906 1.13634 14.1962C1.15113 14.2018 1.16448 14.211 1.17532 14.2232C1.18031 14.1711 1.16592 14.119 1.13527 14.0783C1.13527 14.0783 1.17533 14.0783 1.21539 14.0783C1.21092 14.0494 1.20052 14.0218 1.18494 13.9977C1.16935 13.9736 1.14897 13.9535 1.12526 13.9388C1.15879 13.9518 1.19476 13.9559 1.23011 13.9508C1.26545 13.9456 1.29911 13.9314 1.32817 13.9092C1.35722 13.887 1.38081 13.8577 1.39693 13.8236C1.41305 13.7895 1.42121 13.7517 1.42069 13.7135C1.42357 13.6696 1.41062 13.6263 1.38454 13.5923C1.35845 13.5584 1.32121 13.5365 1.28049 13.5311C1.25592 13.5238 1.22994 13.5238 1.20537 13.5311C1.19792 13.5162 1.19403 13.4997 1.19403 13.4828C1.19403 13.466 1.19792 13.4493 1.20537 13.4345C1.15529 13.4345 1.12025 13.4774 1.14528 13.5472C1.12818 13.5463 1.11113 13.5498 1.09548 13.5572C1.07984 13.5647 1.06603 13.5759 1.05515 13.5901C1.06466 13.6059 1.07825 13.6183 1.09426 13.6259C1.11027 13.6336 1.12799 13.636 1.14528 13.633C1.11524 13.6974 1.14528 13.7296 1.19035 13.7564C1.23541 13.7832 1.16531 13.633 1.24042 13.633C1.24851 13.6322 1.25666 13.6333 1.26431 13.6362C1.27195 13.6392 1.27889 13.6439 1.28463 13.65C1.29037 13.6562 1.29478 13.6636 1.29753 13.6718C1.30027 13.68 1.30128 13.6887 1.30051 13.6974C1.30006 13.7137 1.29631 13.7297 1.2895 13.7444C1.2827 13.759 1.27301 13.7719 1.2611 13.7821C1.24919 13.7923 1.23535 13.7996 1.22054 13.8035C1.20573 13.8074 1.1903 13.8078 1.17532 13.8047C1.0902 13.8047 1.0201 13.7403 1.0201 13.5901C1.0201 13.4399 1.12526 13.3862 1.26046 13.3862C1.2876 13.3814 1.31541 13.3832 1.34186 13.3913C1.3683 13.3995 1.39271 13.4138 1.41333 13.4333C1.43395 13.4529 1.45025 13.477 1.46105 13.5042C1.47185 13.5313 1.47688 13.5607 1.47577 13.5901C1.47577 13.7671 1.23041 14.1695 1.23041 14.3358C1.23231 14.3619 1.239 14.3873 1.25011 14.4106C1.26122 14.434 1.27651 14.4547 1.29513 14.4716C1.31374 14.4886 1.33531 14.5014 1.35858 14.5094C1.38184 14.5174 1.40636 14.5204 1.4307 14.5182C1.52226 14.5074 1.60647 14.4594 1.66605 14.3841L1.60095 14.3251Z" fill="#F5C832"/>
<path d="M1.57733 5.82189C1.58126 5.69761 1.63079 5.58002 1.71517 5.49464C1.79955 5.40926 1.91195 5.36299 2.02799 5.36589C2.07967 5.35977 2.13197 5.36555 2.18141 5.38282C2.23084 5.40009 2.27627 5.42845 2.31466 5.46602C2.35305 5.5036 2.38352 5.54951 2.40402 5.6007C2.42453 5.65189 2.4346 5.70718 2.43358 5.76288C2.4361 5.87718 2.41018 5.99012 2.35847 6.09013L1.74758 7.44744C1.7257 7.50342 1.71545 7.56384 1.71754 7.62449C1.72139 7.68662 1.7475 7.74475 1.79043 7.78673C1.83335 7.82872 1.88976 7.85132 1.94787 7.8498C1.97723 7.84981 2.00629 7.84353 2.03335 7.83133C2.06041 7.81913 2.08493 7.80127 2.10546 7.77878C2.12599 7.75629 2.1421 7.72962 2.15288 7.70035C2.16365 7.67109 2.16886 7.63982 2.16819 7.60838C2.16819 7.45816 2.09809 7.39377 2.02799 7.39377C1.95788 7.39377 1.89279 7.43133 1.89279 7.50107C1.89279 7.57082 1.91782 7.57082 1.94787 7.57082C1.97791 7.57082 2.00295 7.45281 2.00295 7.45281C2.0136 7.45516 2.02363 7.45994 2.03237 7.46686C2.04111 7.47377 2.04836 7.48262 2.0536 7.49282C2.05883 7.50302 2.06194 7.51431 2.0627 7.52593C2.06347 7.53754 2.06187 7.54919 2.05803 7.56008C2.08784 7.56548 2.11466 7.58273 2.13313 7.60838C2.11165 7.6289 2.0859 7.64363 2.05803 7.6513C2.05803 7.71568 2.05803 7.74785 1.99794 7.76394C2.0027 7.74098 2.0027 7.71717 1.99794 7.6942C1.97294 7.70407 1.94603 7.70712 1.91966 7.70304C1.89328 7.69896 1.86827 7.6879 1.84689 7.67085C1.82551 7.65381 1.80845 7.63132 1.79723 7.60543C1.786 7.57953 1.78099 7.55105 1.78263 7.52255C1.77932 7.48383 1.78497 7.44481 1.79911 7.409C1.81324 7.37319 1.83541 7.3417 1.86365 7.31728C1.89189 7.29286 1.92534 7.27629 1.96099 7.26905C1.99665 7.26181 2.03341 7.26411 2.06804 7.27576C2.04819 7.26247 2.03152 7.2444 2.01935 7.22298C2.00718 7.20155 1.99985 7.17738 1.99794 7.15238C2.02113 7.1568 2.04485 7.1568 2.06804 7.15238C2.03712 7.1071 2.01969 7.05286 2.01798 6.99678C2.05303 6.99678 2.08808 7.03969 2.12814 7.0236C2.1133 6.98091 2.10789 6.93514 2.11234 6.88984C2.11678 6.84453 2.13095 6.80092 2.15375 6.76246C2.17654 6.72401 2.20735 6.69173 2.24374 6.66816C2.28012 6.64459 2.32111 6.63037 2.36348 6.62661C2.28952 6.71342 2.2469 6.82567 2.2433 6.94315C2.2433 7.29186 2.33342 7.34549 2.33342 7.59227C2.33152 7.64791 2.31792 7.70237 2.29365 7.7516C2.26937 7.80083 2.23504 7.84357 2.19322 7.87662V7.87662C2.21936 7.88003 2.24437 7.89009 2.26614 7.90596C2.28792 7.92182 2.30583 7.94302 2.3184 7.96781C2.16444 8.0138 2.00167 8.0138 1.84771 7.96781C1.79657 7.95929 1.74773 7.93906 1.70453 7.90851C1.66133 7.87796 1.62477 7.83783 1.59735 7.79079C1.57049 7.72385 1.55664 7.65174 1.55664 7.57887C1.55664 7.50601 1.57049 7.43389 1.59735 7.36695C1.68748 7.16846 2.09809 6.24571 2.21827 5.95601C2.24836 5.89485 2.26384 5.82665 2.26333 5.75751C2.26268 5.7251 2.25607 5.69314 2.24389 5.66347C2.23171 5.6338 2.21419 5.60698 2.19233 5.58456C2.17048 5.56214 2.14472 5.54457 2.11652 5.53282C2.08832 5.52107 2.05824 5.51538 2.02799 5.51609C1.97619 5.5142 1.92558 5.53287 1.88584 5.56851C1.8461 5.60415 1.82005 5.65429 1.81268 5.70925C1.81125 5.72209 1.8124 5.73509 1.81604 5.74743C1.81967 5.75976 1.82571 5.77115 1.83376 5.78079C1.84181 5.79043 1.8517 5.79811 1.86274 5.80335C1.87378 5.80859 1.88572 5.81127 1.89779 5.81118C2.01797 5.81118 2.00796 5.70924 1.98292 5.6395C2.05803 5.67705 2.10309 5.74143 2.08807 5.80044C2.13478 5.81054 2.17704 5.83696 2.20824 5.87555C2.17763 5.91395 2.13481 5.9388 2.08807 5.9453C2.08807 6.04723 2.04802 6.09015 1.98292 6.11161C2.00796 6.0365 2.01797 5.95064 1.89779 5.95064C1.862 5.9558 1.82559 5.95169 1.7916 5.93862C1.75762 5.92555 1.72707 5.90392 1.70251 5.87555C1.70251 5.95603 1.70251 6.27254 1.70251 6.27254C1.70251 6.39594 1.85273 6.39055 1.95288 6.353C1.94714 6.38696 1.93481 6.41925 1.91669 6.44779C1.89858 6.47633 1.87507 6.50048 1.8477 6.51868C1.82033 6.53688 1.78971 6.54873 1.7578 6.55346C1.72589 6.55819 1.6934 6.55571 1.66245 6.54616C1.68963 6.55886 1.71271 6.5799 1.72875 6.60663C1.74479 6.63337 1.75309 6.66458 1.75259 6.69635C1.74861 6.74984 1.73349 6.80171 1.70837 6.84812C1.68324 6.89454 1.64873 6.93433 1.60737 6.96459L1.57733 5.82189Z" fill="#F5C832"/>
<path d="M1.6318 5.82189C1.62788 5.69761 1.57835 5.58002 1.49397 5.49464C1.40959 5.40926 1.29718 5.36299 1.18115 5.36589C1.12947 5.35977 1.07716 5.36555 1.02773 5.38282C0.978292 5.40009 0.932865 5.42845 0.894477 5.46602C0.856088 5.5036 0.825619 5.54951 0.805113 5.6007C0.784607 5.65189 0.774533 5.70718 0.77556 5.76288C0.77303 5.87718 0.798952 5.99012 0.850666 6.09013L1.46156 7.44744C1.48344 7.50342 1.49369 7.56384 1.4916 7.62449C1.48774 7.68662 1.46163 7.74475 1.41871 7.78673C1.37579 7.82872 1.31937 7.85132 1.26127 7.8498C1.20489 7.84859 1.15099 7.82478 1.1102 7.78307C1.06941 7.74135 1.04469 7.68477 1.04095 7.62449C1.04095 7.47427 1.11606 7.40988 1.18616 7.40988C1.25626 7.40988 1.31634 7.44744 1.31634 7.51718C1.31634 7.58693 1.31635 7.58693 1.26127 7.58693C1.20619 7.58693 1.20618 7.46889 1.20618 7.46889C1.19598 7.47186 1.1865 7.47713 1.17832 7.48431C1.17015 7.49149 1.16349 7.50041 1.15876 7.51054C1.15404 7.52066 1.15135 7.53174 1.15089 7.54305C1.15044 7.55436 1.15222 7.56566 1.15612 7.57619C1.1263 7.58159 1.09947 7.59884 1.081 7.62449C1.10181 7.64601 1.12784 7.66085 1.15612 7.66738C1.15612 7.73176 1.15612 7.76396 1.2162 7.78005C1.21132 7.76917 1.20878 7.75725 1.20878 7.74518C1.20878 7.73311 1.21132 7.72119 1.2162 7.71031C1.24093 7.71906 1.26727 7.72124 1.29295 7.71663C1.31863 7.71202 1.34288 7.70076 1.36359 7.68385C1.3843 7.66694 1.40085 7.64488 1.41182 7.61957C1.42278 7.59427 1.42782 7.56649 1.4265 7.53863C1.42982 7.49991 1.42417 7.46092 1.41003 7.42511C1.39589 7.3893 1.37372 7.35778 1.34548 7.33336C1.31724 7.30894 1.2838 7.29237 1.24814 7.28513C1.21249 7.27788 1.17572 7.28019 1.1411 7.29184C1.16255 7.28058 1.18056 7.26298 1.19298 7.24112C1.2054 7.21925 1.21172 7.19405 1.21119 7.16846C1.18805 7.17337 1.16424 7.17337 1.1411 7.16846C1.15859 7.14733 1.17201 7.12273 1.1806 7.09603C1.18919 7.06933 1.19278 7.04108 1.19116 7.01289C1.17569 7.02561 1.15784 7.03459 1.13882 7.03922C1.11981 7.04385 1.10008 7.04401 1.081 7.03971C1.09686 6.99747 1.10322 6.9518 1.09953 6.90644C1.09585 6.86108 1.08222 6.81731 1.05979 6.77864C1.03735 6.73997 1.00673 6.70749 0.970393 6.68388C0.934059 6.66026 0.893041 6.64617 0.850666 6.64272C0.923576 6.72979 0.964506 6.84225 0.965839 6.95922C0.965839 7.30794 0.875712 7.3616 0.875712 7.60838C0.877442 7.66464 0.891473 7.7197 0.916696 7.76908C0.941918 7.81847 0.977616 7.86083 1.02091 7.89273V7.89273C0.994516 7.89522 0.969155 7.90489 0.947242 7.92085C0.92533 7.93682 0.907595 7.95853 0.89573 7.98392C1.04969 8.02991 1.21246 8.02991 1.36642 7.98392C1.41711 7.97608 1.4655 7.95609 1.50798 7.92544C1.55046 7.89479 1.58595 7.85425 1.61179 7.80687C1.63865 7.73993 1.65249 7.66782 1.65249 7.59495C1.65249 7.52208 1.63865 7.45 1.61179 7.38306L0.980861 5.99893C0.954668 5.93651 0.941012 5.86888 0.940794 5.80044C0.941444 5.76803 0.948051 5.73607 0.960231 5.7064C0.972412 5.67672 0.989935 5.6499 1.01179 5.62748C1.03364 5.60507 1.05941 5.5875 1.08761 5.57575C1.11581 5.564 1.14589 5.5583 1.17614 5.55902C1.22737 5.55727 1.27736 5.57613 1.31628 5.61187C1.3552 5.6476 1.38023 5.69763 1.38645 5.75214C1.38787 5.76499 1.38673 5.77802 1.38309 5.79035C1.37945 5.80269 1.3734 5.81405 1.36535 5.82369C1.3573 5.83333 1.34743 5.84104 1.33639 5.84628C1.32535 5.85152 1.31339 5.85416 1.30132 5.85407C1.18615 5.85407 1.19117 5.75214 1.2162 5.6824C1.1461 5.71995 1.10103 5.78435 1.11605 5.84337C1.10394 5.83511 1.08998 5.83047 1.07563 5.82997C1.06129 5.82948 1.04708 5.83315 1.0345 5.84055C1.02191 5.84795 1.01141 5.85881 1.0041 5.87205C0.996792 5.88529 0.992933 5.90038 0.992933 5.91576C0.992933 5.93114 0.996792 5.94627 1.0041 5.95951C1.01141 5.97275 1.02191 5.98361 1.0345 5.99101C1.04708 5.99841 1.06129 6.00208 1.07563 6.00159C1.08998 6.00109 1.10394 5.99645 1.11605 5.98819C1.11605 6.09013 1.15612 6.13304 1.2162 6.1545C1.2162 6.07939 1.18114 5.99356 1.30132 5.99356C1.33786 5.99872 1.37503 5.99463 1.40982 5.98158C1.44461 5.96853 1.47606 5.9469 1.50162 5.91845C1.50162 5.99892 1.50162 6.31547 1.50162 6.31547C1.50162 6.43886 1.3564 6.43348 1.25626 6.39592C1.29131 6.53541 1.36643 6.61051 1.54669 6.58905C1.51909 6.60114 1.49562 6.62206 1.4795 6.64894C1.46337 6.67581 1.45535 6.70736 1.45655 6.73928C1.46061 6.79214 1.47525 6.84346 1.49944 6.88974C1.52363 6.93602 1.55681 6.97618 1.59675 7.00752L1.6318 5.82189Z" fill="#F5C832"/>
<path d="M1.63172 4.92601C1.63043 4.98778 1.61771 5.04864 1.5943 5.10509C1.57088 5.16155 1.53724 5.21248 1.49532 5.2549C1.4534 5.29731 1.40403 5.33039 1.35009 5.35221C1.29615 5.37404 1.23869 5.38416 1.18107 5.38201C1.12966 5.38896 1.07745 5.38396 1.02801 5.36734C0.978568 5.35072 0.933054 5.32291 0.894561 5.28574C0.856069 5.24857 0.825502 5.20295 0.804953 5.15198C0.784404 5.10102 0.774348 5.04589 0.775476 4.99039C0.774104 4.87623 0.799954 4.7636 0.850582 4.66314L1.46147 3.30583C1.48436 3.25018 1.49465 3.18954 1.49152 3.12882C1.48649 3.06715 1.46002 3.00975 1.41736 2.96801C1.37469 2.92627 1.31896 2.90324 1.26118 2.90347C1.20481 2.90468 1.15091 2.92849 1.11012 2.9702C1.06933 3.01192 1.04461 3.06853 1.04086 3.12882C1.04086 3.2844 1.11598 3.34876 1.18608 3.34876C1.25618 3.34876 1.31626 3.30583 1.31626 3.23609C1.31626 3.16634 1.31627 3.16634 1.26118 3.16634C1.2061 3.16634 1.2061 3.28438 1.2061 3.28438C1.1959 3.28141 1.18641 3.27617 1.17824 3.26899C1.17007 3.26182 1.16341 3.25286 1.15868 3.24273C1.15395 3.23261 1.15127 3.22153 1.15081 3.21022C1.15035 3.19891 1.15214 3.18761 1.15604 3.17708C1.12696 3.16965 1.10072 3.15281 1.08091 3.12882C1.10022 3.10517 1.12695 3.0899 1.15604 3.08589C1.15604 3.01615 1.15603 2.98395 1.21612 2.97322C1.21157 2.98419 1.20921 2.99608 1.20921 3.00809C1.20921 3.0201 1.21157 3.03198 1.21612 3.04296C1.24084 3.03421 1.26718 3.03203 1.29286 3.03664C1.31854 3.04125 1.34279 3.05251 1.36351 3.06942C1.38422 3.08633 1.40077 3.10839 1.41173 3.1337C1.4227 3.159 1.42773 3.18678 1.42642 3.21464C1.42974 3.25336 1.42408 3.29235 1.40995 3.32816C1.39581 3.36397 1.37364 3.39549 1.3454 3.41991C1.31716 3.44433 1.28371 3.4609 1.24806 3.46814C1.2124 3.47539 1.17564 3.47308 1.14101 3.46143C1.16288 3.47213 1.18124 3.4896 1.19373 3.5116C1.20623 3.53359 1.21228 3.55909 1.21111 3.58481H1.14101C1.15889 3.60675 1.17252 3.63227 1.18111 3.65989C1.18971 3.68752 1.19309 3.71671 1.19108 3.74575C1.16103 3.74575 1.12598 3.6921 1.08091 3.71356C1.09678 3.7558 1.10314 3.80147 1.09945 3.84683C1.09576 3.89219 1.08214 3.93596 1.0597 3.97463C1.03727 4.0133 1.00664 4.04578 0.97031 4.06939C0.933975 4.09301 0.892957 4.1071 0.850582 4.11055C0.923493 4.02348 0.964423 3.91102 0.965756 3.79405C0.965756 3.44534 0.875628 3.38631 0.875628 3.14489C0.877338 3.08936 0.891399 3.03507 0.916658 2.98654C0.941917 2.93802 0.977631 2.89666 1.02083 2.86591V2.86591C0.994827 2.86007 0.970263 2.84849 0.948702 2.83186C0.927142 2.81523 0.909064 2.79392 0.895646 2.76935C1.04926 2.72076 1.21272 2.72076 1.36633 2.76935C1.41703 2.77719 1.46542 2.79718 1.5079 2.82783C1.55038 2.85848 1.58587 2.89902 1.6117 2.9464C1.63927 3.01408 1.6535 3.08715 1.6535 3.161C1.6535 3.23486 1.63927 3.30789 1.6117 3.37558C1.52658 3.56871 1.11096 4.49145 0.990786 4.78115C0.964594 4.84358 0.950953 4.91121 0.950735 4.97965C0.951385 5.01206 0.957992 5.04402 0.970172 5.07369C0.982353 5.10336 0.99986 5.13018 1.02172 5.1526C1.04357 5.17502 1.06934 5.19262 1.09754 5.20437C1.12574 5.21612 1.15583 5.22178 1.18608 5.22107C1.23655 5.22297 1.28591 5.20486 1.32471 5.17022C1.36351 5.13558 1.38902 5.08685 1.39638 5.03332C1.39638 4.96357 1.36133 4.92601 1.31126 4.92601C1.26119 4.92601 1.20109 5.03331 1.22613 5.09769C1.19442 5.0878 1.16699 5.06623 1.14867 5.03679C1.13035 5.00734 1.12232 4.97192 1.12599 4.93675C1.10216 4.93401 1.07911 4.92589 1.05841 4.91295C1.0377 4.90001 1.01977 4.88252 1.00581 4.86164C1.0198 4.84165 1.03794 4.82543 1.0588 4.81426C1.07966 4.80308 1.10267 4.79726 1.12599 4.79726C1.12076 4.77891 1.11925 4.75958 1.12159 4.74055C1.12393 4.72152 1.13005 4.70325 1.13955 4.68698C1.14904 4.67071 1.16168 4.65681 1.17662 4.64621C1.19156 4.63562 1.20844 4.62859 1.22613 4.62559C1.22613 4.70069 1.19109 4.78652 1.31126 4.78652C1.3478 4.78136 1.38497 4.78546 1.41976 4.79851C1.45455 4.81155 1.48599 4.83319 1.51155 4.86164C1.51155 4.78117 1.51155 4.46465 1.51155 4.46465C1.51155 4.34126 1.36634 4.34661 1.2662 4.38416C1.30125 4.24468 1.37635 4.16957 1.55661 4.18567C1.52937 4.17627 1.50578 4.15751 1.48948 4.13229C1.47319 4.10708 1.46511 4.07681 1.46649 4.04618C1.46985 3.99238 1.48414 3.94003 1.50836 3.89277C1.53257 3.84551 1.56613 3.80448 1.60669 3.77257L1.63172 4.92601Z" fill="#F5C832"/>
<path d="M1.57695 4.92602C1.57825 4.98778 1.59096 5.04864 1.61438 5.10509C1.63779 5.16155 1.67143 5.21248 1.71335 5.2549C1.75527 5.29732 1.80464 5.33039 1.85858 5.35221C1.91253 5.37404 1.96998 5.38416 2.02761 5.38201C2.07902 5.38896 2.13122 5.38396 2.18066 5.36734C2.23011 5.35073 2.27562 5.32291 2.31411 5.28574C2.35261 5.24858 2.38317 5.20295 2.40372 5.15198C2.42427 5.10102 2.43433 5.0459 2.4332 4.99039C2.43457 4.87624 2.40872 4.7636 2.35809 4.66315L1.7472 3.31657C1.72432 3.26092 1.71403 3.20025 1.71716 3.13953C1.72218 3.07786 1.74865 3.02049 1.79132 2.97875C1.83398 2.93702 1.88972 2.91398 1.94749 2.91421C2.00299 2.91673 2.05567 2.94113 2.09541 2.98271C2.13515 3.0243 2.15915 3.08014 2.1628 3.13953C2.1628 3.29511 2.0927 3.3595 2.0226 3.3595C1.95249 3.3595 1.8874 3.31657 1.8874 3.24683C1.8874 3.17709 1.91243 3.17708 1.94248 3.17708C1.97252 3.17708 1.99757 3.29513 1.99757 3.29513C2.00821 3.29278 2.01824 3.28796 2.02698 3.28105C2.03573 3.27413 2.04297 3.26528 2.04821 3.25508C2.05344 3.24488 2.05655 3.23359 2.05732 3.22198C2.05808 3.21036 2.05649 3.19871 2.05264 3.18782C2.08172 3.1804 2.10796 3.16352 2.12776 3.13953C2.10748 3.11723 2.08122 3.10225 2.05264 3.09663C2.05264 3.02689 2.05264 2.99469 1.99255 2.98396C1.99701 3.00696 1.99701 3.0307 1.99255 3.0537C1.96755 3.04384 1.94064 3.04081 1.91427 3.0449C1.8879 3.04898 1.86289 3.06004 1.84152 3.07708C1.82014 3.09413 1.80306 3.11661 1.79184 3.14251C1.78062 3.1684 1.7756 3.19689 1.77724 3.22538C1.77513 3.26375 1.78159 3.30208 1.7961 3.33724C1.81061 3.37239 1.83275 3.40334 1.86066 3.42748C1.88858 3.45162 1.92148 3.46827 1.95661 3.47604C1.99175 3.48381 2.02811 3.48246 2.06266 3.47214C2.04224 3.48474 2.02512 3.50267 2.01286 3.52424C2.00061 3.5458 1.99362 3.57033 1.99255 3.59555H2.06266C2.03108 3.64249 2.0136 3.69863 2.01259 3.75649C2.04764 3.75649 2.08269 3.70285 2.12275 3.7243C2.10792 3.767 2.1025 3.81279 2.10695 3.8581C2.11139 3.9034 2.12558 3.94699 2.14838 3.98544C2.17117 4.02389 2.20197 4.05617 2.23835 4.07974C2.27473 4.10331 2.31572 4.11753 2.35809 4.1213C2.28414 4.03448 2.24153 3.92223 2.23792 3.80476C2.23792 3.45604 2.32805 3.39705 2.32805 3.15564C2.32613 3.10075 2.31249 3.04705 2.28818 2.99869C2.26388 2.95033 2.22956 2.90859 2.18785 2.87666V2.87666C2.21363 2.87022 2.23797 2.85839 2.25945 2.84182C2.28094 2.82524 2.29916 2.80426 2.31303 2.78009C2.15941 2.73151 1.99596 2.73151 1.84234 2.78009C1.79119 2.78862 1.74236 2.80884 1.69916 2.83939C1.65596 2.86994 1.6194 2.9101 1.59198 2.95714C1.53965 3.09471 1.53965 3.24875 1.59198 3.38632C1.68211 3.57945 2.0927 4.5022 2.21288 4.7919C2.24297 4.85306 2.25846 4.92125 2.25794 4.99039C2.25729 5.0228 2.25068 5.05476 2.2385 5.08443C2.22632 5.11411 2.20881 5.14093 2.18696 5.16335C2.1651 5.18577 2.13934 5.20333 2.11114 5.21508C2.08293 5.22683 2.05285 5.23253 2.0226 5.23181C1.97154 5.23388 1.92154 5.21594 1.88192 5.18139C1.8423 5.14683 1.81576 5.098 1.80729 5.04403C1.8059 5.03091 1.80704 5.01765 1.81063 5.00503C1.81423 4.99241 1.8202 4.9807 1.82818 4.97065C1.83615 4.96059 1.84596 4.95241 1.85701 4.94658C1.86806 4.94075 1.88012 4.93741 1.89242 4.93676C2.01259 4.93676 2.00257 5.04406 1.97753 5.10843C2.05264 5.07625 2.0977 5.01184 2.08268 4.94746C2.13015 4.93958 2.17309 4.91277 2.20287 4.87238C2.18887 4.85239 2.17073 4.83614 2.14987 4.82497C2.12901 4.81379 2.106 4.80801 2.08268 4.80801C2.08268 4.70607 2.04263 4.65779 1.97753 4.63633C2.00257 4.71144 2.01259 4.79727 1.89242 4.79727C1.85663 4.7921 1.8202 4.79621 1.78621 4.80928C1.75223 4.82235 1.72168 4.84401 1.69713 4.87238C1.69713 4.79191 1.69713 4.47536 1.69713 4.47536C1.69713 4.35197 1.84734 4.35735 1.94749 4.39491C1.94098 4.36121 1.92824 4.32926 1.91002 4.30093C1.8918 4.2726 1.86847 4.24848 1.84139 4.22997C1.81432 4.21147 1.78405 4.19897 1.7524 4.1932C1.72074 4.18744 1.68833 4.18853 1.65707 4.19641C1.68388 4.18626 1.70701 4.16732 1.72319 4.14228C1.73938 4.11724 1.74777 4.08737 1.7472 4.05692C1.74395 4.0025 1.72919 3.94957 1.70403 3.90217C1.67887 3.85477 1.64398 3.81413 1.60199 3.78331L1.57695 4.92602Z" fill="#F5C832"/>
<path d="M1.63175 10.1781C1.62782 10.3023 1.57829 10.42 1.49391 10.5053C1.40953 10.5907 1.29713 10.637 1.18109 10.6341C1.12941 10.6402 1.07711 10.6344 1.02767 10.6172C0.978236 10.5999 0.93281 10.5715 0.894421 10.534C0.856033 10.4964 0.825564 10.4505 0.805058 10.3993C0.784551 10.3481 0.774477 10.2928 0.775504 10.2371C0.77345 10.1229 0.799342 10.01 0.85061 9.90982L1.4615 8.55791C1.48379 8.50018 1.49404 8.43791 1.49154 8.37549C1.48652 8.31383 1.46005 8.25645 1.41739 8.21472C1.37472 8.17298 1.31898 8.14995 1.26121 8.15018C1.20483 8.15139 1.15093 8.1752 1.11014 8.21691C1.06935 8.25863 1.04464 8.31521 1.04089 8.37549C1.04089 8.53107 1.116 8.59547 1.18611 8.59547C1.25621 8.59547 1.31629 8.5579 1.31629 8.4828C1.31629 8.40769 1.31629 8.41305 1.26121 8.41305C1.20613 8.41305 1.20612 8.53106 1.20612 8.53106C1.19593 8.52808 1.18644 8.52285 1.17827 8.51567C1.17009 8.50849 1.16343 8.49954 1.15871 8.48941C1.15398 8.47928 1.15129 8.46821 1.15084 8.4569C1.15038 8.44558 1.15217 8.43432 1.15606 8.42379C1.12625 8.41839 1.09942 8.40114 1.08094 8.37549C1.10025 8.35185 1.12698 8.33657 1.15606 8.33257C1.15606 8.26819 1.15606 8.23602 1.21615 8.21993C1.21147 8.23181 1.20906 8.24458 1.20906 8.25748C1.20906 8.27038 1.21147 8.28316 1.21615 8.29504C1.24046 8.28508 1.26672 8.28181 1.29251 8.28558C1.3183 8.28934 1.34281 8.29999 1.36375 8.31655C1.38469 8.33312 1.40142 8.35507 1.41237 8.38037C1.42333 8.40567 1.42816 8.43352 1.42645 8.46135C1.42941 8.50015 1.42358 8.53914 1.40944 8.575C1.3953 8.61087 1.37326 8.64251 1.34523 8.66728C1.31719 8.69205 1.28398 8.7092 1.24842 8.71724C1.21287 8.72529 1.17603 8.72399 1.14104 8.71348C1.1625 8.72324 1.18069 8.73975 1.19321 8.76083C1.20573 8.7819 1.21198 8.80656 1.21114 8.83152H1.14104C1.17621 8.87641 1.1941 8.93394 1.1911 8.99246C1.17667 8.97773 1.15905 8.96707 1.13982 8.96145C1.12059 8.95583 1.10036 8.95543 1.08094 8.96027C1.0968 9.00251 1.10316 9.04815 1.09948 9.09351C1.09579 9.13887 1.08217 9.18267 1.05973 9.22134C1.0373 9.26001 1.00667 9.29245 0.970338 9.31607C0.934003 9.33969 0.892985 9.35381 0.85061 9.35726C0.923521 9.27019 0.964451 9.1577 0.965784 9.04072C0.965784 8.69201 0.875656 8.63838 0.875656 8.3916C0.877366 8.33607 0.891427 8.28178 0.916686 8.23325C0.941945 8.18473 0.977659 8.14337 1.02086 8.11262V8.11262C0.994498 8.10782 0.969511 8.09662 0.947813 8.07988C0.926116 8.06314 0.908283 8.04132 0.895674 8.01606C1.04963 7.97007 1.2124 7.97007 1.36636 8.01606C1.41705 8.0239 1.46544 8.04389 1.50793 8.07454C1.55041 8.10519 1.58589 8.14573 1.61173 8.19311C1.6393 8.26079 1.65352 8.33383 1.65352 8.40768C1.65352 8.48153 1.6393 8.5546 1.61173 8.62229C1.52661 8.81542 1.11099 9.73816 0.990814 10.0279C0.965788 10.0907 0.952198 10.1581 0.950763 10.2264C0.950733 10.259 0.956865 10.2913 0.96881 10.3213C0.980754 10.3513 0.998265 10.3784 1.02026 10.401C1.04226 10.4235 1.06828 10.4411 1.09679 10.4526C1.12529 10.464 1.15568 10.4692 1.18611 10.4678C1.23658 10.4697 1.28594 10.4516 1.32474 10.4169C1.36354 10.3823 1.38904 10.3335 1.3964 10.28C1.3964 10.2103 1.36136 10.1727 1.31129 10.1727C1.26122 10.1727 1.20112 10.28 1.22616 10.3444C1.15606 10.3068 1.111 10.2478 1.12602 10.1781C1.10251 10.1763 1.0796 10.1692 1.05888 10.1571C1.03815 10.1451 1.02006 10.1285 1.00584 10.1083C1.01983 10.0883 1.03797 10.0721 1.05883 10.0609C1.07969 10.0498 1.1027 10.0439 1.12602 10.0439C1.12079 10.0256 1.11928 10.0063 1.12162 9.98723C1.12396 9.9682 1.13008 9.94993 1.13958 9.93366C1.14907 9.91738 1.16171 9.90348 1.17665 9.89289C1.19158 9.8823 1.20847 9.87526 1.22616 9.87226C1.22616 9.94737 1.19111 10.0332 1.31129 10.0332C1.34783 10.0281 1.385 10.0322 1.41978 10.0452C1.45457 10.0583 1.48601 10.0799 1.51158 10.1083C1.51158 10.0278 1.51158 9.71133 1.51158 9.71133C1.51158 9.58793 1.36637 9.59868 1.26623 9.63087C1.30128 9.49139 1.37638 9.42162 1.55664 9.43771C1.529 9.4273 1.50526 9.40755 1.48901 9.38143C1.47275 9.3553 1.46485 9.32424 1.46651 9.29289C1.47133 9.23872 1.4862 9.18612 1.51028 9.1382C1.53436 9.09029 1.56716 9.04803 1.60672 9.01391L1.63175 10.1781Z" fill="#F5C832"/>
<path d="M1.57695 10.1781C1.58088 10.3023 1.63041 10.42 1.71479 10.5053C1.79917 10.5907 1.91158 10.637 2.02761 10.6341C2.07929 10.6402 2.13159 10.6344 2.18103 10.6172C2.23047 10.5999 2.27589 10.5715 2.31428 10.534C2.35267 10.4964 2.38314 10.4505 2.40365 10.3993C2.42415 10.3481 2.43423 10.2928 2.4332 10.2371C2.43525 10.1229 2.40936 10.01 2.35809 9.90982L1.7472 8.55791C1.72491 8.50018 1.71466 8.43791 1.71716 8.37549C1.72218 8.31383 1.74865 8.25645 1.79132 8.21472C1.83398 8.17298 1.88972 8.14995 1.94749 8.15018C2.00299 8.1527 2.05567 8.17709 2.09541 8.21868C2.13515 8.26027 2.15915 8.31611 2.1628 8.37549C2.1628 8.53107 2.0927 8.59547 2.0226 8.59547C1.95249 8.59547 1.8874 8.5579 1.8874 8.4828C1.8874 8.40769 1.91243 8.41305 1.94248 8.41305C1.97252 8.41305 1.99757 8.53106 1.99757 8.53106C2.00821 8.52871 2.01824 8.52393 2.02698 8.51701C2.03573 8.5101 2.04297 8.50125 2.04821 8.49105C2.05344 8.48085 2.05655 8.46956 2.05732 8.45794C2.05808 8.44633 2.05649 8.43468 2.05264 8.42379C2.08245 8.41839 2.10929 8.40114 2.12776 8.37549C2.10748 8.35319 2.08122 8.33819 2.05264 8.33257C2.05264 8.26819 2.05264 8.23602 1.99255 8.21993C1.99714 8.24472 1.99714 8.27025 1.99255 8.29504C1.96796 8.28538 1.94153 8.28231 1.91558 8.28613C1.88963 8.28996 1.86495 8.30053 1.8437 8.31695C1.82245 8.33336 1.80529 8.3551 1.7937 8.38027C1.78212 8.40545 1.77646 8.4333 1.77724 8.46135C1.77428 8.50015 1.78012 8.53914 1.79427 8.575C1.80841 8.61087 1.83044 8.64251 1.85848 8.66728C1.88651 8.69205 1.91971 8.7092 1.95527 8.71724C1.99082 8.72529 2.02767 8.72399 2.06266 8.71348C2.04263 8.72521 2.02569 8.74219 2.01343 8.76282C2.00117 8.78346 1.99399 8.80711 1.99255 8.83152H2.06266C2.03189 8.8789 2.0145 8.93477 2.01259 8.99246C2.04764 8.99246 2.08269 8.94418 2.12275 8.96027C2.10792 9.00296 2.1025 9.04876 2.10695 9.09406C2.11139 9.13937 2.12558 9.18295 2.14838 9.22141C2.17117 9.25986 2.20197 9.29214 2.23835 9.31571C2.27473 9.33928 2.31572 9.3535 2.35809 9.35726C2.28414 9.27045 2.24153 9.1582 2.23792 9.04072C2.23792 8.69201 2.32805 8.63838 2.32805 8.3916C2.32613 8.33672 2.31249 8.28302 2.28818 8.23466C2.26388 8.1863 2.22956 8.14456 2.18785 8.11262V8.11262C2.21396 8.10711 2.23866 8.09563 2.26026 8.07896C2.28187 8.0623 2.29986 8.04085 2.31303 8.01606C2.15907 7.97007 1.9963 7.97007 1.84234 8.01606C1.79119 8.02458 1.74236 8.04481 1.69916 8.07536C1.65596 8.10591 1.6194 8.14607 1.59198 8.19311C1.53965 8.33068 1.53965 8.48472 1.59198 8.62229C1.68211 8.81542 2.0927 9.73816 2.21288 10.0279C2.24241 10.0893 2.25785 10.1573 2.25794 10.2264C2.25797 10.259 2.25184 10.2913 2.23989 10.3213C2.22795 10.3513 2.21044 10.3784 2.18844 10.401C2.16645 10.4235 2.14042 10.4411 2.11191 10.4526C2.08341 10.464 2.05302 10.4692 2.0226 10.4678C1.97154 10.4698 1.92154 10.4519 1.88192 10.4174C1.8423 10.3828 1.81576 10.334 1.80729 10.28C1.8059 10.2669 1.80704 10.2536 1.81063 10.241C1.81423 10.2284 1.8202 10.2167 1.82818 10.2066C1.83615 10.1966 1.84596 10.1884 1.85701 10.1825C1.86806 10.1767 1.88012 10.1734 1.89242 10.1727C2.01259 10.1727 2.00257 10.28 1.97753 10.3444C2.05264 10.3068 2.0977 10.2478 2.08268 10.1781C2.12973 10.1726 2.17291 10.1476 2.20287 10.1083C2.18887 10.0883 2.17073 10.0721 2.14987 10.0609C2.12901 10.0498 2.106 10.0439 2.08268 10.0439C2.08268 9.94201 2.04263 9.89372 1.97753 9.87226C2.00257 9.94737 2.01259 10.0332 1.89242 10.0332C1.85663 10.0281 1.8202 10.0322 1.78621 10.0453C1.75223 10.0583 1.72168 10.0799 1.69713 10.1083C1.69713 10.0278 1.69713 9.71133 1.69713 9.71133C1.69713 9.58793 1.84734 9.59868 1.94749 9.63087C1.94106 9.5973 1.9283 9.56547 1.91001 9.53736C1.89171 9.50924 1.86825 9.48542 1.84107 9.46735C1.81389 9.44927 1.78356 9.43731 1.75192 9.43221C1.72029 9.42712 1.68801 9.42899 1.65707 9.43771C1.68386 9.42595 1.70675 9.4059 1.72281 9.38009C1.73887 9.35427 1.74737 9.32391 1.7472 9.29289C1.74265 9.23807 1.72737 9.18486 1.70235 9.1368C1.67733 9.08873 1.64313 9.04686 1.60199 9.01391L1.57695 10.1781Z" fill="#F5C832"/>
<path d="M1.60221 1.70709C1.60221 1.70709 1.73741 1.58906 1.78248 1.64271C1.82754 1.69636 1.56216 2.22749 1.56216 2.3938C1.56216 2.67277 1.7324 2.74786 1.94771 2.78542C2.07256 2.79935 2.19841 2.79935 2.32326 2.78542C2.30959 2.75742 2.28854 2.73434 2.26272 2.71908C2.23689 2.70381 2.20744 2.69702 2.17804 2.69956C2.22847 2.67031 2.2705 2.62689 2.29962 2.57396C2.32873 2.52102 2.34384 2.46057 2.34329 2.39913C2.34329 2.15772 2.25317 2.06115 2.25317 1.79291C2.26556 1.67277 2.30323 1.55725 2.36333 1.45496C2.3217 1.45563 2.28083 1.46698 2.24415 1.48806C2.20747 1.50914 2.17603 1.53933 2.15249 1.57611C2.12895 1.61289 2.11399 1.6552 2.10885 1.69946C2.10371 1.74371 2.10856 1.78863 2.12297 1.83047C2.10899 1.83801 2.09356 1.84196 2.07791 1.84196C2.06225 1.84196 2.04682 1.83801 2.03284 1.83047C2.03009 1.85626 2.03221 1.8824 2.03909 1.90728C2.04598 1.93217 2.05747 1.95531 2.07289 1.97533C2.04786 1.97533 2.03284 1.97533 1.98778 1.97533C1.99375 2.00437 2.00528 2.03177 2.02166 2.05578C2.03803 2.07979 2.05889 2.0999 2.0829 2.11482C2.04897 2.1016 2.01253 2.09751 1.97678 2.10293C1.94102 2.10835 1.90706 2.12311 1.87788 2.14589C1.8487 2.16868 1.8252 2.19881 1.80943 2.23361C1.79367 2.26842 1.78612 2.30684 1.78747 2.3455C1.7846 2.38936 1.79754 2.43272 1.82363 2.46665C1.84971 2.50059 1.88695 2.52253 1.92768 2.52792C1.95253 2.53252 1.97795 2.53252 2.0028 2.52792C2.01532 2.56057 2.01532 2.59716 2.0028 2.62982C2.0152 2.62872 2.02714 2.62435 2.03756 2.61708C2.04799 2.60981 2.05656 2.59987 2.06252 2.58817C2.06848 2.57647 2.07164 2.56338 2.0717 2.55005C2.07176 2.53672 2.06873 2.52357 2.06289 2.51181C2.07948 2.51226 2.09599 2.50918 2.11146 2.50274C2.12694 2.49629 2.14106 2.4866 2.15301 2.47425C2.14296 2.45876 2.12944 2.44624 2.11369 2.43781C2.09795 2.42937 2.08048 2.4253 2.06289 2.42598C2.09293 2.36697 2.06288 2.3294 2.01281 2.30257C1.96274 2.27575 2.04285 2.42598 1.96775 2.42598C1.89264 2.42598 1.90265 2.42595 1.90265 2.36158C1.90265 2.2972 1.94271 2.25431 2.03284 2.25431C2.12297 2.25431 2.18807 2.31867 2.18807 2.46888C2.18807 2.61909 2.08291 2.67275 1.94771 2.67811C1.92099 2.68282 1.89363 2.68121 1.86756 2.67337C1.84149 2.66552 1.81734 2.65162 1.79681 2.6327C1.77628 2.61377 1.75988 2.59029 1.74875 2.56384C1.73762 2.53739 1.73204 2.50863 1.7324 2.47962C1.7324 2.29722 1.97274 1.88411 1.97274 1.72853C1.97148 1.70197 1.96526 1.67595 1.95444 1.65201C1.94361 1.62808 1.92841 1.60672 1.90972 1.58921C1.89104 1.57169 1.86926 1.5584 1.84568 1.55008C1.8221 1.54176 1.79719 1.53859 1.77245 1.54078C1.68134 1.55315 1.59761 1.60086 1.53711 1.6749L1.60221 1.70709Z" fill="#F5C832"/>
<path d="M1.60095 1.70709C1.60095 1.70709 1.47076 1.58906 1.42569 1.64271C1.38062 1.69636 1.65102 2.22749 1.65102 2.3938C1.65102 2.67277 1.47577 2.74786 1.26046 2.78542C1.13561 2.79935 1.00975 2.79935 0.884908 2.78542C0.898039 2.75694 0.918988 2.73344 0.944947 2.7181C0.970906 2.70275 1.00063 2.69628 1.03012 2.69956C0.979694 2.67031 0.937662 2.62689 0.908547 2.57396C0.879433 2.52102 0.864328 2.46057 0.864874 2.39913C0.864874 2.15772 0.955002 2.06115 0.955002 1.79291C0.941793 1.67215 0.902358 1.55643 0.839844 1.45496C0.881539 1.45625 0.92238 1.46785 0.959189 1.48888C0.995998 1.5099 1.02778 1.53978 1.05202 1.57614C1.07627 1.61251 1.09232 1.65438 1.09895 1.69851C1.10557 1.74263 1.10259 1.78779 1.09021 1.83047C1.10342 1.83755 1.11799 1.84124 1.13277 1.84124C1.14754 1.84124 1.16211 1.83755 1.17532 1.83047C1.17808 1.85626 1.17596 1.8824 1.16907 1.90728C1.16219 1.93217 1.15069 1.95531 1.13527 1.97533C1.13527 1.97533 1.17533 1.97533 1.21539 1.97533C1.21164 2.00452 1.20153 2.03237 1.18587 2.0566C1.17021 2.08083 1.14945 2.10078 1.12526 2.11482C1.15919 2.10292 1.19527 2.09981 1.23053 2.10578C1.2658 2.11175 1.29922 2.1266 1.32807 2.14913C1.35692 2.17166 1.38037 2.20121 1.39647 2.23535C1.41257 2.26949 1.42088 2.30725 1.42069 2.3455C1.42357 2.38936 1.41062 2.43272 1.38454 2.46665C1.35845 2.50059 1.32121 2.52253 1.28049 2.52792C1.25564 2.53252 1.23022 2.53252 1.20537 2.52792C1.19789 2.54371 1.194 2.56116 1.194 2.57887C1.194 2.59658 1.19789 2.61402 1.20537 2.62982C1.15529 2.62982 1.12025 2.58155 1.14528 2.51181C1.12868 2.51226 1.11218 2.50918 1.0967 2.50274C1.08123 2.49629 1.0671 2.4866 1.05515 2.47425C1.06485 2.45839 1.0783 2.44557 1.09414 2.43709C1.10997 2.4286 1.12762 2.42478 1.14528 2.42598C1.11524 2.36697 1.14528 2.3294 1.19035 2.30257C1.23541 2.27575 1.16531 2.42598 1.24042 2.42598C1.24851 2.42682 1.25666 2.42572 1.26431 2.42278C1.27195 2.41983 1.27889 2.41511 1.28463 2.40896C1.29037 2.40281 1.29478 2.39537 1.29753 2.38718C1.30027 2.37899 1.30128 2.37024 1.30051 2.36158C1.30051 2.31329 1.26546 2.25431 1.17532 2.25431C1.08519 2.25431 1.0201 2.31867 1.0201 2.46888C1.0201 2.61909 1.12526 2.67275 1.26046 2.67811C1.28718 2.68282 1.31453 2.68121 1.3406 2.67337C1.36668 2.66552 1.39083 2.65162 1.41136 2.6327C1.43188 2.61377 1.44829 2.59029 1.45941 2.56384C1.47054 2.53739 1.47612 2.50863 1.47577 2.47962C1.47577 2.29722 1.23041 1.88411 1.23041 1.72853C1.23167 1.70197 1.23789 1.67595 1.24872 1.65201C1.25955 1.62808 1.27476 1.60672 1.29345 1.58921C1.31213 1.57169 1.3339 1.5584 1.35747 1.55008C1.38105 1.54176 1.40596 1.53859 1.4307 1.54078C1.52226 1.55163 1.60647 1.59962 1.66605 1.6749L1.60095 1.70709Z" fill="#F5C832"/>
<path d="M1.34053 10.1512C1.34053 10.1512 1.29045 10.1512 1.2554 10.1512C1.22035 10.1512 1.19531 10.1835 1.19531 10.2049C1.19531 10.2264 1.24539 10.2049 1.28044 10.2049C1.31549 10.2049 1.34554 10.1727 1.34053 10.1459V10.1512Z" fill="#4EAEC4"/>
<path d="M1.22034 10.2317H1.19531C1.19531 10.1995 1.22036 10.1727 1.26542 10.162H1.33552H1.36056C1.36056 10.1942 1.33552 10.221 1.29045 10.2317H1.22536H1.22034Z" fill="#4EAEC4"/>
<path d="M12.5331 10.6932C11.7047 10.6949 10.9054 10.3662 10.2908 9.77121C9.67624 9.17619 9.29032 8.35742 9.20823 7.4743C9.20823 7.4743 9.13313 7.47431 9.12312 7.51723C9.12312 7.6889 9.16818 8.21464 9.12312 8.17709C9.07805 8.13954 8.73754 7.10412 8.67245 7.23288C8.60735 7.36163 9.05802 8.4936 9.02798 8.53115C8.99794 8.56871 8.40205 7.45819 8.35699 7.52794C8.19175 7.86592 9.01796 8.96572 9.01296 9.014C9.01296 9.15885 8.38704 8.41851 8.33196 8.47752C8.21679 8.65456 8.99292 9.30907 9.03298 9.35735C9.15315 9.50757 8.61236 9.09446 8.59233 9.23931C8.5723 9.38416 8.85773 9.58804 9.02297 9.68997C9.18821 9.7919 9.23828 9.7597 9.28835 9.84554C9.33843 9.93137 8.9779 9.80799 8.98791 9.88847C8.98791 10.0494 9.36847 10.0172 9.41855 10.087C9.46862 10.1567 9.17318 10.087 9.1882 10.1674C9.20322 10.2479 9.51368 10.2855 9.51868 10.3284C9.52369 10.3713 9.32341 10.3284 9.33843 10.4303C9.35345 10.5322 9.64888 10.4893 9.72399 10.543C9.7991 10.5966 9.45359 10.543 9.72399 10.6878C10.0375 10.8717 10.3751 11.0037 10.7254 11.0794C11.1461 11.1653 11.3564 11.0795 11.3714 11.0365C11.3864 10.9936 11.1711 11.0634 10.8707 11.0044C10.5708 10.9287 10.2825 10.8076 10.0144 10.6449C9.96434 10.6181 10.1746 10.5483 10.1296 10.4893C10.0845 10.4303 9.91928 10.4893 9.85418 10.4088C9.78909 10.3284 9.93429 10.3552 9.92929 10.3176C9.92428 10.2801 9.69895 10.2265 9.65889 10.1674C9.61883 10.1084 9.75904 10.1191 9.76905 10.0762C9.77906 10.0333 9.62384 9.99039 9.61382 9.95284C9.60381 9.91529 9.77907 9.92064 9.69896 9.87236C9.61884 9.82407 9.36847 9.75435 9.32341 9.66315C9.27834 9.57195 9.50868 9.66314 9.44859 9.58804C9.3885 9.51293 9.1882 9.43247 9.14314 9.29835C9.09807 9.16423 9.29837 9.29834 9.30337 9.22323C9.30838 9.14813 9.19322 9.19105 9.15316 8.92818C9.15316 8.83697 9.29836 8.92818 9.29836 8.92818L9.32341 8.87988C9.48432 8.98905 9.62658 9.12696 9.74402 9.28761C9.98437 9.58267 10.0495 9.86165 10.2748 10.0655C10.385 10.1621 10.39 10.0279 10.6303 10.1889C10.8439 10.3499 11.0449 10.5293 11.2312 10.7254C11.4628 10.7374 11.6936 10.7643 11.9222 10.8059C12.1876 10.8649 12.2427 11.0097 12.2427 11.0097C12.329 10.9596 12.4041 10.89 12.463 10.8059C12.488 10.7576 12.5181 10.8059 12.5231 10.8059C12.5281 10.8059 12.5231 10.7415 12.5231 10.7415L12.5331 10.6932Z" fill="#F5C832"/>
<path d="M11.0446 11.1491C10.937 11.1466 10.8298 11.1341 10.7242 11.1116C10.3747 11.0324 10.0376 10.9005 9.72271 10.7199C9.63758 10.677 9.60754 10.6502 9.61255 10.618C9.61755 10.5858 9.65261 10.5804 9.69267 10.5751H9.72772C9.66903 10.5558 9.6086 10.5432 9.54745 10.5375C9.43729 10.5375 9.33715 10.5107 9.33214 10.457V10.4195C9.33214 10.3873 9.40224 10.3819 9.4423 10.3766H9.50239L9.40225 10.3444C9.30711 10.3444 9.18692 10.2854 9.1719 10.2156C9.15688 10.1459 9.23701 10.1674 9.30711 10.1674C9.37721 10.1674 9.40725 10.1674 9.41226 10.1674C9.41727 10.1674 9.32212 10.1244 9.25202 10.1137C9.18192 10.103 8.98664 10.06 8.97161 9.95275C8.95659 9.84545 9.07677 9.90446 9.16189 9.90982H9.24702C9.24702 9.86154 9.22198 9.8562 9.1719 9.83474C9.1171 9.81325 9.0636 9.78816 9.01168 9.75962C8.85645 9.66306 8.56101 9.42164 8.57603 9.29289C8.56674 9.27866 8.5631 9.26104 8.56592 9.24393C8.56873 9.22683 8.57777 9.21162 8.59105 9.20166C8.60433 9.1917 8.62076 9.18781 8.63673 9.19082C8.65269 9.19384 8.66689 9.20354 8.67618 9.21777C8.77871 9.24405 8.87672 9.28749 8.9666 9.34652C9.00634 9.37071 9.04829 9.39048 9.09178 9.40553L8.98663 9.32507C8.63112 8.99246 8.2756 8.63836 8.36573 8.49887C8.43584 8.49887 8.54099 8.58473 8.71124 8.75104C8.88149 8.91735 8.99165 9.02465 9.04172 9.02465C9.01397 8.95935 8.97863 8.89805 8.93656 8.84223C8.71624 8.50425 8.26057 7.76929 8.39076 7.52251C8.44584 7.52251 8.50593 7.62444 8.67117 7.92487C8.83641 8.2253 8.99666 8.53106 9.05674 8.53106C9.03184 8.41571 8.99835 8.30272 8.95659 8.19311C8.80809 7.89477 8.72262 7.56507 8.70623 7.22742C8.77633 7.22742 8.8865 7.45277 9.07177 7.92487C9.11683 8.02143 9.15188 8.11263 9.16691 8.15555C9.16691 8.118 9.16691 8.04825 9.16691 7.98387C9.15497 7.82856 9.15497 7.67245 9.16691 7.51714C9.16754 7.50867 9.16972 7.50043 9.17334 7.49287C9.17696 7.48532 9.18193 7.47858 9.18798 7.4731C9.19403 7.46761 9.20104 7.46349 9.20859 7.46092C9.21615 7.45834 9.22409 7.45737 9.23199 7.4581H9.26704C9.34442 8.33939 9.72618 9.15797 10.3375 9.7534C10.9488 10.3488 11.7457 10.6782 12.5719 10.677C12.5833 10.6795 12.5936 10.6862 12.601 10.696C12.6083 10.7058 12.6122 10.7181 12.6119 10.7307V10.7307V10.7628H12.5869C12.5205 10.8568 12.4371 10.9352 12.3415 10.9935C12.3069 10.934 12.26 10.8838 12.2044 10.8466C12.1489 10.8094 12.0862 10.7862 12.0211 10.7789C11.843 10.74 11.662 10.7184 11.4803 10.7145H11.3901C11.3551 10.7145 11.3351 10.7145 11.32 10.7145L11.1748 10.5804C11.0341 10.4426 10.8835 10.3171 10.7242 10.2049C10.663 10.1564 10.5898 10.1284 10.5139 10.1244H10.4638C10.446 10.1253 10.4282 10.1219 10.4117 10.1145C10.3952 10.107 10.3805 10.0958 10.3687 10.0815C10.2501 9.96717 10.1517 9.83087 10.0782 9.67914C10.0079 9.54413 9.92573 9.41661 9.83287 9.29826C9.71559 9.13894 9.57325 9.00277 9.41226 8.8959V8.93879C9.41226 8.93879 9.34717 8.93879 9.30711 8.93879C9.29581 8.93427 9.28336 8.93427 9.27205 8.93879C9.27205 9.11583 9.33716 9.14803 9.37221 9.18021C9.3858 9.18608 9.39713 9.19668 9.4044 9.21031C9.41167 9.22394 9.41445 9.23981 9.41226 9.25533C9.41226 9.29825 9.3672 9.29826 9.35217 9.29826H9.17691C9.17691 9.40019 9.30711 9.47529 9.38222 9.52894C9.41835 9.54914 9.45063 9.57642 9.47736 9.60939V9.64695C9.47736 9.64695 9.45231 9.64695 9.43729 9.64695H9.36719C9.36719 9.72206 9.49238 9.77571 9.58752 9.81863C9.63131 9.83038 9.67342 9.84842 9.7127 9.87226C9.7204 9.87504 9.72726 9.87999 9.73255 9.8866C9.73784 9.89322 9.74136 9.90124 9.74274 9.90982C9.74274 9.90982 9.7127 9.93664 9.68266 9.94201H9.63759C9.63759 9.94201 9.68266 9.97958 9.7127 9.99568C9.74274 10.0118 9.79281 10.044 9.78781 10.0708C9.7828 10.0976 9.75275 10.1083 9.72271 10.1191H9.67263C9.72056 10.1649 9.77683 10.1996 9.83788 10.221C9.91299 10.221 9.94803 10.2693 9.95304 10.2907C9.95805 10.3122 9.92802 10.3283 9.90298 10.339C9.89144 10.3363 9.87947 10.3363 9.86792 10.339C9.90298 10.3927 9.96306 10.3927 10.0232 10.398C10.0832 10.4034 10.1283 10.398 10.1483 10.4356V10.4678C10.1483 10.5 10.1033 10.5268 10.0682 10.5482L10.0232 10.5912C10.2882 10.7502 10.5732 10.8676 10.8694 10.9399C10.9699 10.962 11.0722 10.9728 11.1748 10.9721H11.33C11.3448 10.9677 11.3604 10.9677 11.3751 10.9721C11.3751 11.0204 11.2399 11.0793 11.0346 11.0793L11.0446 11.1491ZM9.07676 9.883C9.0317 9.883 9.02169 9.883 9.02169 9.883C9.02169 9.9742 9.16691 9.99567 9.27707 10.0225C9.38723 10.0493 9.42727 10.0225 9.45231 10.0761V10.1137C9.45231 10.1137 9.39724 10.1137 9.32213 10.1459C9.28746 10.1381 9.25164 10.1381 9.21697 10.1459C9.21697 10.1942 9.34215 10.2317 9.42227 10.2532C9.50238 10.2746 9.54244 10.2854 9.54745 10.3122C9.55246 10.339 9.5074 10.3497 9.46233 10.3605C9.41727 10.3712 9.38222 10.3605 9.36719 10.3927C9.35217 10.4249 9.47736 10.4571 9.55747 10.4678C9.62087 10.4722 9.68329 10.4867 9.74274 10.5107V10.5429C9.74274 10.5429 9.7127 10.5429 9.68266 10.5751C9.66295 10.5696 9.64228 10.5696 9.62257 10.5751C9.62257 10.5751 9.62256 10.5751 9.7177 10.6448C10.0321 10.8254 10.3695 10.9556 10.7192 11.0311C10.8227 11.0562 10.9285 11.0688 11.0346 11.0686C11.1439 11.0799 11.2539 11.0556 11.3501 10.9989H11.285H11.1798C11.0757 10.9967 10.972 10.9859 10.8694 10.9667C10.5694 10.8912 10.2811 10.7702 10.0131 10.6073C10.0131 10.559 10.0131 10.5429 10.0532 10.5214C10.0933 10.5 10.1233 10.4731 10.1233 10.457C10.1233 10.4409 10.0632 10.4249 10.0181 10.4249C9.9875 10.428 9.9566 10.4244 9.92732 10.4142C9.89804 10.4041 9.871 10.3876 9.84789 10.3658V10.3283C9.84789 10.3015 9.87794 10.2961 9.89797 10.28H9.93302C9.90139 10.26 9.8678 10.2438 9.83287 10.2317C9.76811 10.2193 9.70859 10.1856 9.66262 10.1352V10.0976C9.66262 10.0976 9.69767 10.0654 9.73272 10.0547C9.76777 10.044 9.7778 10.0547 9.7778 10.0547L9.7127 10.0118C9.66263 10.0118 9.62758 9.96886 9.62257 9.93667C9.61756 9.90448 9.66262 9.89374 9.69267 9.88837H9.72772L9.59251 9.824C9.49237 9.78108 9.3672 9.73281 9.33715 9.66843V9.62013C9.33715 9.62013 9.39223 9.62013 9.42728 9.62013H9.45732C9.45732 9.62013 9.41726 9.5665 9.3772 9.53431C9.28556 9.48464 9.2104 9.40595 9.16189 9.30896C9.15697 9.30306 9.15424 9.29544 9.15424 9.28752C9.15424 9.2796 9.15697 9.27197 9.16189 9.26607C9.16189 9.26607 9.20195 9.26607 9.22699 9.26607H9.28206H9.31712C9.31712 9.26607 9.31711 9.23386 9.28206 9.2124C9.24747 9.18409 9.21951 9.14753 9.20039 9.10562C9.18127 9.06372 9.17151 9.01762 9.1719 8.97098C9.16839 8.96445 9.16654 8.95707 9.16654 8.94953C9.16654 8.942 9.16839 8.93461 9.1719 8.92808C9.20195 8.89053 9.32213 8.92808 9.32213 8.92808V8.89053C9.5004 8.98381 9.655 9.12184 9.77278 9.29289C9.86399 9.41259 9.94604 9.53994 10.0181 9.67377C10.0898 9.82228 10.1846 9.95657 10.2985 10.0708C10.3209 10.0913 10.3493 10.1027 10.3787 10.103H10.4287C10.5107 10.1086 10.5892 10.1403 10.6541 10.1942C10.8148 10.3045 10.9672 10.4283 11.1097 10.5643L11.2549 10.7038C11.2549 10.7038 11.29 10.7038 11.305 10.7038H11.3951C11.5788 10.7073 11.7617 10.7306 11.9409 10.7736C12.2113 10.8326 12.2664 10.9828 12.2714 10.9882C12.3405 10.9228 12.4058 10.853 12.4667 10.7789C12.4667 10.7789 12.4667 10.7789 12.5018 10.7789H12.5318V10.736C11.7031 10.7389 10.9032 10.4107 10.2884 9.81545C9.67354 9.2202 9.28795 8.40073 9.20696 7.51714V7.51714C9.18192 7.51714 9.17191 7.51714 9.16691 7.54933C9.15772 7.70117 9.15772 7.85348 9.16691 8.00532C9.16691 8.18236 9.16691 8.2092 9.16691 8.21993C9.16691 8.23066 9.09179 8.11264 9.03671 7.95706C8.95676 7.71655 8.8491 7.48766 8.71624 7.27571C8.74648 7.60221 8.83128 7.92022 8.9666 8.21456C9.07175 8.50962 9.08679 8.55789 9.07177 8.56862H9.04172C8.97162 8.56862 8.83141 8.32722 8.63112 7.95169C8.56376 7.80929 8.48324 7.6745 8.39076 7.54933C8.2756 7.80147 8.72626 8.49888 8.94658 8.83686C9.04172 8.98707 9.05674 9.01392 9.05674 9.03002H9.0267C8.97162 9.03002 8.85645 8.91734 8.67618 8.74567C8.58792 8.64503 8.48676 8.55834 8.37574 8.48817C8.28561 8.62229 8.81639 9.11046 8.99165 9.27141L9.07177 9.34652C9.07177 9.34652 9.0968 9.38409 9.07177 9.39482C9.04673 9.40555 8.99665 9.3948 8.92154 9.34115C8.8452 9.28858 8.7627 9.2471 8.67618 9.21777H8.65115C8.65115 9.3197 8.8915 9.54502 9.07177 9.65232C9.12181 9.68275 9.17366 9.70964 9.22699 9.73281C9.25078 9.73753 9.27334 9.74761 9.2932 9.76241C9.31306 9.77721 9.32975 9.79638 9.34215 9.81863C9.34215 9.90446 9.26704 9.86692 9.20696 9.85619H9.10181L9.07676 9.883Z" fill="#F5C832"/>
<path d="M13.7941 11.294C13.724 11.294 13.734 11.337 13.734 11.337C13.7354 11.3724 13.7265 11.4073 13.7085 11.4371C13.6906 11.4669 13.6645 11.49 13.6338 11.5033C13.5888 11.5033 13.6338 11.5462 13.5988 11.5837H13.4135C13.0764 11.7593 12.697 11.8192 12.3269 11.7554C12.3269 11.7554 12.2318 11.8305 12.1517 11.9056C12.0716 11.9807 12.0115 12.0076 11.9965 12.0666C11.9814 12.1256 12.0415 12.1631 12.1166 12.1631C12.1784 12.1574 12.2373 12.1333 12.2869 12.0934C12.2934 12.1125 12.3049 12.1291 12.32 12.1415C12.3351 12.1538 12.3531 12.1613 12.372 12.1631C12.4391 12.1587 12.5051 12.1424 12.5673 12.1149C12.6251 12.1443 12.6885 12.1589 12.7526 12.1578C12.8063 12.1449 12.8573 12.1212 12.9028 12.088C12.9028 12.088 12.9028 12.1899 13.0029 12.1899C13.0786 12.1762 13.1495 12.141 13.2082 12.088C13.2248 12.1086 13.2457 12.1247 13.2692 12.135C13.2927 12.1453 13.3181 12.1494 13.3434 12.147C13.4051 12.1308 13.4609 12.0953 13.5037 12.0451C13.5624 12.0642 13.6252 12.0642 13.6839 12.0451C13.748 12.017 13.806 11.975 13.8542 11.9217C13.8737 11.9403 13.8969 11.9539 13.9221 11.9613C13.9473 11.9688 13.9737 11.9699 13.9994 11.9646C14.0645 11.9646 14.1145 11.8359 14.1145 11.8359C14.2144 11.8772 14.3251 11.8772 14.425 11.8359C14.5101 11.793 14.4851 11.6481 14.4851 11.6481C14.4851 11.6481 14.9858 11.7232 14.9858 11.3691C14.9858 11.3316 14.1646 11.3691 13.8041 11.2726L13.7941 11.294Z" fill="#F5C832"/>
<path d="M13.0091 12.2006C12.9826 12.1952 12.9581 12.1817 12.9385 12.1617C12.919 12.1417 12.9052 12.1161 12.899 12.0879C12.8811 12.1089 12.8595 12.1259 12.8354 12.1379C12.8113 12.1499 12.7853 12.1566 12.7588 12.1577C12.6925 12.154 12.6268 12.1414 12.5635 12.1201C12.508 12.1456 12.4486 12.1602 12.3882 12.163C12.3656 12.1636 12.3434 12.1567 12.3246 12.1433C12.3058 12.1298 12.2913 12.1105 12.2831 12.0879C12.2427 12.1348 12.1872 12.1636 12.1279 12.1684C12.0803 12.1708 12.0337 12.1535 11.9977 12.1201C11.9928 12.1092 11.9902 12.0973 11.9902 12.0852C11.9902 12.0732 11.9928 12.0613 11.9977 12.0504C11.9977 12.0075 12.0377 11.9807 12.0828 11.9485L12.1529 11.8894L12.3281 11.7339H12.6336C12.9066 11.7412 13.177 11.6748 13.4197 11.5407H13.61C13.61 11.4978 13.61 11.4763 13.6401 11.4603C13.6682 11.4484 13.6923 11.4277 13.7093 11.4009C13.7263 11.3741 13.7353 11.3424 13.7352 11.3101C13.7352 11.3101 13.7352 11.2832 13.7352 11.2671C13.7497 11.2614 13.7657 11.2614 13.7803 11.2671C14.0538 11.3112 14.3299 11.3345 14.6065 11.3369C14.967 11.3369 14.992 11.3369 14.997 11.3798C15.0017 11.4518 14.9802 11.523 14.9369 11.5783C14.8421 11.6549 14.725 11.6929 14.6065 11.6856H14.4963C14.5083 11.7195 14.5088 11.7568 14.4978 11.7911C14.4869 11.8253 14.4651 11.8545 14.4362 11.8734C14.3319 11.9084 14.2201 11.9084 14.1157 11.8734C14.1081 11.9026 14.0942 11.9295 14.075 11.9518C14.0559 11.9742 14.0321 11.9914 14.0056 12.0021C13.9506 12.0097 13.895 11.9944 13.8504 11.9592C13.8133 12.017 13.7583 12.0589 13.6951 12.0772C13.6326 12.0934 13.5674 12.0934 13.5049 12.0772C13.4662 12.1311 13.4114 12.169 13.3496 12.1845V12.1845C13.3216 12.1849 13.294 12.1784 13.2688 12.1653C13.2436 12.1523 13.2215 12.1331 13.2044 12.1094C13.1816 12.1416 13.153 12.1686 13.1203 12.1888C13.0877 12.2091 13.0516 12.2222 13.0141 12.2274L13.0091 12.2006ZM12.894 12.0665C12.919 12.0665 12.939 12.163 13.0041 12.163C13.0751 12.1453 13.1406 12.1084 13.1944 12.0557C13.1944 12.0557 13.2645 12.1201 13.3246 12.1201C13.3879 12.1007 13.4462 12.0658 13.4948 12.0182C13.5348 12.0223 13.575 12.0223 13.615 12.0182C13.6347 12.0241 13.6555 12.0241 13.6751 12.0182C13.737 11.9935 13.7932 11.9551 13.8403 11.9055C13.8781 11.9265 13.9186 11.941 13.9605 11.9485C14.0195 11.9261 14.068 11.8798 14.0957 11.8197C14.1208 11.8197 14.2059 11.8519 14.301 11.8519C14.3372 11.861 14.375 11.861 14.4112 11.8519C14.4863 11.8143 14.4663 11.6749 14.4663 11.6749C14.5093 11.6668 14.5534 11.6668 14.5965 11.6749C14.7075 11.6844 14.8179 11.6501 14.9069 11.5783C14.9256 11.5547 14.9396 11.5274 14.9482 11.4979C14.9568 11.4684 14.9598 11.4374 14.957 11.4066H14.5914C14.3261 11.4066 13.9906 11.4066 13.7853 11.3422H13.7502C13.7502 11.4442 13.7001 11.5354 13.635 11.5461C13.5699 11.5568 13.635 11.5461 13.635 11.5783C13.6396 11.5922 13.6396 11.6073 13.635 11.6212H13.4398C13.1024 11.8019 12.7209 11.8656 12.3482 11.8036L12.1829 11.9002L12.1078 11.9645C12.0678 11.9967 12.0427 12.0128 12.0327 12.045C12.0227 12.0772 12.0327 12.0772 12.0327 12.0879C12.0458 12.1017 12.0616 12.1122 12.0789 12.1186C12.0962 12.1251 12.1146 12.1275 12.1329 12.1255V12.1255C12.1932 12.1203 12.2507 12.096 12.2981 12.0557C12.2981 12.0557 12.3331 12.1148 12.3882 12.1201C12.4531 12.1147 12.5171 12.1003 12.5785 12.0772C12.6316 12.0993 12.6871 12.1137 12.7437 12.1201C12.803 12.114 12.8599 12.0919 12.909 12.0557L12.894 12.0665Z" fill="#F5C832"/>
<path d="M12.7082 10.913C12.8426 10.8643 12.9797 10.8249 13.1188 10.795C13.6196 10.6877 13.7848 10.7253 13.8148 10.6877C14.0694 10.3823 14.4048 10.1671 14.7762 10.0708C15.0016 9.86692 15.0767 9.57721 15.317 9.28214C15.5574 8.98708 15.6926 8.96027 15.6926 8.96027L15.7276 9.02464C15.7276 9.02464 15.8528 8.92271 15.8478 9.02464C15.8428 9.12657 15.7326 9.28213 15.7426 9.37333C15.7527 9.46454 15.9129 9.37333 15.8979 9.37333C15.8578 9.51282 15.7226 9.59867 15.6826 9.65768C15.6425 9.7167 15.8378 9.62549 15.7927 9.71669C15.7477 9.80789 15.5323 9.8991 15.4472 9.95811C15.3621 10.0171 15.5023 10.001 15.4923 10.0386C15.4823 10.0762 15.2569 10.1727 15.262 10.1995C15.267 10.2264 15.322 10.2424 15.297 10.2746C15.272 10.3068 15.0617 10.339 15.0566 10.3712C15.0516 10.4034 15.0967 10.441 15.0566 10.5C15.0166 10.559 14.9415 10.5 14.9114 10.5697C14.8814 10.6395 15.0216 10.6931 14.9365 10.7145C14.8303 10.7364 14.7296 10.7821 14.6411 10.8487C14.5448 10.8855 14.446 10.9142 14.3456 10.9345C14.2805 10.9345 13.935 10.9989 13.95 11.0311C14.1837 11.0597 14.4204 11.0378 14.6461 10.9667C14.8604 10.9303 15.0714 10.8747 15.277 10.8004C15.6375 10.677 15.1868 10.6663 15.277 10.618C15.3671 10.5697 15.6625 10.618 15.6776 10.516C15.6926 10.4141 15.5023 10.457 15.5073 10.4087C15.5123 10.3605 15.8829 10.3658 15.9079 10.2585C15.9329 10.1512 15.6926 10.2586 15.7477 10.1727C15.8027 10.0869 16.0982 10.0815 16.1132 9.942C16.1282 9.80252 15.8678 9.94202 15.8979 9.89374C15.9279 9.84545 16.0131 9.83472 16.1132 9.75962C16.2133 9.68451 16.5188 9.43773 16.5038 9.32507C16.4887 9.21241 16.003 9.65767 16.0331 9.47527C16.0331 9.41089 16.8493 8.73492 16.7191 8.56861C16.5889 8.4023 16.0531 9.18557 16.0381 9.04072C16.0381 8.99244 16.9294 7.90874 16.7641 7.5654C16.7191 7.4742 16.0431 8.86369 15.953 8.74566C15.9279 8.71347 16.5288 7.37228 16.4287 7.24352C16.3285 7.11477 16.2885 7.3991 16.1883 7.64051C16.0882 7.88193 15.973 8.17699 15.9479 8.17699C15.9229 8.17699 15.978 7.64052 15.9479 7.48494C15.9479 7.4152 15.8628 7.44202 15.8628 7.44202C15.7577 9.18021 14.2004 10.4731 12.9586 10.6609C12.6381 10.7092 12.533 10.8755 12.1825 11.0901C12.0623 11.1598 11.882 11.192 11.7218 11.2886C11.59 11.3657 11.4795 11.4785 11.4013 11.6158C11.393 11.6474 11.3923 11.6807 11.3993 11.7126C11.4063 11.7445 11.4208 11.774 11.4414 11.7982C11.4764 11.7982 11.4764 11.707 11.5115 11.6856C11.5465 11.6641 11.5465 11.7231 11.5916 11.7231C11.6264 11.7151 11.6589 11.6986 11.6867 11.6749H12.9386C13.0201 11.6718 13.0988 11.6418 13.1639 11.589C13.1639 11.5407 13.0487 11.589 12.9836 11.589C12.7182 11.589 12.3727 11.589 12.1274 11.589C12.1217 11.5891 12.116 11.5878 12.1108 11.5853C12.1056 11.5828 12.1009 11.5792 12.0971 11.5746C12.0933 11.57 12.0905 11.5647 12.0888 11.5588C12.0871 11.553 12.0866 11.5468 12.0873 11.5407C12.1369 11.4729 12.1905 11.4083 12.2476 11.3476H12.1224C12.0876 11.3683 12.0506 11.3845 12.0122 11.3959C11.9772 11.3959 11.9571 11.3959 11.9772 11.3583C12.2165 11.1989 12.4658 11.0573 12.7232 10.9345L12.7082 10.913Z" fill="#F5C832"/>
<path d="M11.4364 11.8413C11.4114 11.8413 11.3964 11.7769 11.3914 11.7608C11.3766 11.7212 11.3766 11.677 11.3914 11.6374C11.472 11.497 11.5861 11.3822 11.7218 11.3048C11.804 11.2545 11.8914 11.2149 11.9822 11.1867C12.0511 11.1642 12.1181 11.1355 12.1825 11.1009C12.2774 11.0438 12.3694 10.9811 12.4579 10.9131C12.6026 10.7887 12.7753 10.7073 12.9586 10.6771C14.2755 10.4732 15.7477 9.13737 15.8528 7.45819C15.8779 7.42063 15.953 7.45819 15.963 7.49574C15.9703 7.64944 15.9703 7.80345 15.963 7.95714C15.9586 8.03397 15.9586 8.111 15.963 8.18782C16.016 8.02669 16.0779 7.86905 16.1483 7.71572L16.1783 7.63523C16.2985 7.3509 16.3636 7.21143 16.4187 7.21143H16.4437C16.4037 7.60973 16.2878 7.99498 16.1032 8.34339C16.0489 8.46454 16.0037 8.59012 15.968 8.71894C16.1561 8.5066 16.3147 8.26628 16.4387 8.00541C16.644 7.65669 16.7191 7.52793 16.7592 7.52793C16.9044 7.8069 16.4087 8.50434 16.1683 8.84769C16.1157 8.88332 16.0767 8.93799 16.0585 9.00175C16.0403 9.06551 16.0439 9.13413 16.0689 9.19523C16.0938 9.25633 16.1384 9.30584 16.1944 9.33479C16.2505 9.36373 16.3144 9.37021 16.3745 9.35303C16.4347 9.33584 16.4871 9.29616 16.5223 9.24114C16.5574 9.18612 16.5731 9.11941 16.5663 9.05312C16.5595 8.98683 16.5308 8.92534 16.4853 8.87977C16.4399 8.83421 16.3807 8.8076 16.3185 8.80476C16.4638 8.66527 16.614 8.52044 16.6891 8.52044H16.7241C16.8143 8.63847 16.5188 8.94963 16.2234 9.26616C16.1483 9.34663 16.0632 9.42708 16.0581 9.44317C16.0531 9.45927 16.1783 9.4432 16.2534 9.36809C16.3286 9.29298 16.5238 9.2125 16.5338 9.2876C16.5439 9.36271 16.4137 9.529 16.1383 9.73823C16.0903 9.77086 16.0401 9.79957 15.9881 9.82408L15.928 9.86164H15.9981C16.0582 9.86164 16.1082 9.86164 16.1283 9.86164C16.1283 9.95821 16.0031 9.99577 15.8979 10.0333C15.8491 10.0441 15.8029 10.066 15.7627 10.0977C15.7627 10.0977 15.8028 10.1245 15.8278 10.1245C15.8619 10.1245 15.8951 10.1357 15.923 10.1567C15.923 10.2533 15.7727 10.2801 15.6476 10.3016C15.6048 10.3071 15.5628 10.3179 15.5224 10.3337H15.5825C15.6325 10.3337 15.7026 10.3606 15.6926 10.4196C15.6826 10.4786 15.5875 10.484 15.4773 10.4947C15.4141 10.4967 15.3516 10.5094 15.292 10.5322H15.3471C15.4072 10.5322 15.4573 10.5644 15.4573 10.602C15.4573 10.6395 15.4573 10.6503 15.3071 10.6932C15.1013 10.7694 14.8904 10.8286 14.6761 10.8702C14.4746 10.9117 14.2704 10.9368 14.0653 10.9453C13.9851 10.9453 13.9651 10.9453 13.9601 10.9185C13.9551 10.8917 14.0302 10.8649 14.2455 10.8273H14.3657L14.4708 10.8005C14.5357 10.7865 14.5993 10.7667 14.6611 10.7415C14.7503 10.6716 14.8529 10.6239 14.9615 10.602C14.9615 10.602 14.9615 10.559 14.9615 10.5483C14.9615 10.5376 14.9215 10.4947 14.9315 10.4679C14.9348 10.4566 14.9415 10.4467 14.9506 10.4399C14.9596 10.4331 14.9705 10.4298 14.9816 10.4303H15.0116C15.0239 10.4308 15.0361 10.4275 15.0467 10.4208C15.0574 10.4142 15.066 10.4045 15.0717 10.3928C15.079 10.3818 15.083 10.3687 15.083 10.3552C15.083 10.3417 15.079 10.3286 15.0717 10.3176C15.0717 10.3176 15.0717 10.3176 15.0717 10.2747C15.0717 10.2318 15.1118 10.2372 15.1769 10.2211C15.226 10.2184 15.2732 10.1997 15.3121 10.1674C15.3121 10.1674 15.277 10.1299 15.277 10.1084C15.277 10.0869 15.3021 10.0655 15.3922 10.0172C15.4345 9.99751 15.4735 9.97033 15.5074 9.93676C15.5074 9.93676 15.5073 9.93676 15.4823 9.93676C15.4573 9.93676 15.4473 9.93675 15.4473 9.8992H15.4723L15.5724 9.84016C15.664 9.8038 15.7463 9.74504 15.8128 9.66852C15.8052 9.66381 15.7966 9.66131 15.7878 9.66131C15.779 9.66131 15.7703 9.66381 15.7627 9.66852H15.6876H15.6526C15.6526 9.66852 15.6526 9.66851 15.6526 9.62559C15.6713 9.60278 15.6914 9.58128 15.7126 9.56121C15.78 9.50662 15.8334 9.43463 15.8679 9.35198H15.8178C15.7477 9.35198 15.7076 9.35199 15.7076 9.32516C15.7103 9.26502 15.7257 9.20631 15.7527 9.15348C15.7844 9.09784 15.8049 9.0357 15.8128 8.97107C15.7828 8.97107 15.7377 8.97107 15.7126 8.97107L15.6626 8.90669C15.5214 8.98134 15.3981 9.08963 15.3021 9.22323C15.2124 9.34605 15.1304 9.47507 15.0567 9.60948C14.9817 9.76172 14.8835 9.89952 14.7663 10.0172C14.7112 10.0172 14.6611 10.0548 14.611 10.0762C14.2998 10.1685 14.02 10.3547 13.8049 10.6127C13.8049 10.6127 13.7548 10.6127 13.6847 10.6127C13.4891 10.6226 13.2947 10.6513 13.1038 10.6986C12.9635 10.7222 12.8258 10.7617 12.6932 10.8166C12.4353 10.9382 12.1859 11.0799 11.9472 11.2404C11.9934 11.2393 12.0385 11.2244 12.0774 11.1975H12.2125C12.1475 11.3048 12.0723 11.396 12.0673 11.4121L12.0924 11.455C12.3377 11.455 12.6832 11.455 12.9486 11.455H12.9937C13.0488 11.455 13.1239 11.455 13.1439 11.4872C13.0783 11.5518 12.9927 11.5881 12.9036 11.5891C12.533 11.5891 11.6768 11.5891 11.6517 11.5891C11.6247 11.6142 11.5918 11.6309 11.5566 11.6374V11.6374C11.5464 11.637 11.5364 11.6339 11.5277 11.6283C11.5189 11.6226 11.5116 11.6147 11.5065 11.6052C11.4944 11.6062 11.4828 11.6114 11.4738 11.6202C11.4647 11.6289 11.4586 11.6406 11.4564 11.6535C11.4564 11.6857 11.4564 11.7125 11.4164 11.7125L11.4364 11.8413ZM15.8829 7.47967H15.8528C15.7627 9.14812 14.2705 10.4947 12.9436 10.6986C12.7595 10.7259 12.5861 10.8077 12.4429 10.9346C12.3529 11.003 12.2593 11.0657 12.1625 11.1224C12.0987 11.1624 12.0294 11.1914 11.9572 11.2082C11.8686 11.2384 11.7831 11.2779 11.7018 11.3262C11.5744 11.4029 11.4661 11.5115 11.3863 11.6428C11.3738 11.6754 11.3738 11.712 11.3863 11.7447C11.3905 11.77 11.4029 11.7928 11.4214 11.8091V11.8091C11.425 11.795 11.425 11.7802 11.4214 11.7661C11.4283 11.7365 11.4442 11.7101 11.4665 11.691C11.4842 11.6836 11.5038 11.6836 11.5215 11.691C11.5215 11.691 11.5215 11.691 11.5516 11.691C11.5829 11.6846 11.6121 11.6698 11.6367 11.6481C11.6367 11.6481 12.523 11.6481 12.8985 11.6481C12.9763 11.6506 13.0524 11.624 13.1139 11.573H12.9937H12.9436C12.6782 11.573 12.3327 11.573 12.0824 11.573C12.0768 11.5755 12.0709 11.5768 12.0648 11.5768C12.0588 11.5768 12.0529 11.5755 12.0473 11.573C12.0446 11.5662 12.0431 11.5589 12.0431 11.5515C12.0431 11.5442 12.0446 11.5369 12.0473 11.5301C12.095 11.454 12.1504 11.3838 12.2125 11.3209L12.0974 11.3477C12.0646 11.3727 12.0269 11.3892 11.9872 11.396C11.9572 11.396 11.9371 11.396 11.9321 11.396C12.1742 11.2336 12.4269 11.0902 12.6882 10.9668C12.8214 10.9137 12.9588 10.8742 13.0988 10.8487C13.293 10.8004 13.4907 10.7699 13.6897 10.7576C13.7245 10.7642 13.7601 10.7642 13.7949 10.7576C14.0068 10.4874 14.2893 10.2912 14.606 10.1943L14.7563 10.1353C14.8715 10.019 14.9679 9.88299 15.0417 9.73289C15.1132 9.59869 15.1953 9.47125 15.287 9.35198C15.5274 9.05691 15.6676 9.02473 15.6776 9.02473L15.7227 9.09985C15.7227 9.09985 15.7727 9.04081 15.8078 9.04081H15.8378C15.8413 9.05305 15.8413 9.06613 15.8378 9.07837C15.8293 9.14791 15.8089 9.21519 15.7777 9.27686C15.7501 9.32194 15.7329 9.37346 15.7277 9.42709C15.7521 9.43569 15.7784 9.43569 15.8028 9.42709H15.8528H15.8879C15.861 9.52586 15.8047 9.6125 15.7277 9.67385C15.7067 9.69239 15.6866 9.71211 15.6676 9.73289C15.6676 9.73289 15.6676 9.73289 15.7026 9.73289H15.7577H15.7878C15.7905 9.73966 15.7919 9.74695 15.7919 9.75434C15.7919 9.76172 15.7905 9.76902 15.7878 9.77579C15.7199 9.85941 15.634 9.92391 15.5374 9.96357L15.4372 10.0226C15.4673 10.0494 15.4973 10.0709 15.4873 10.0977C15.4773 10.1245 15.4422 10.1513 15.3521 10.1943C15.3159 10.2103 15.2822 10.232 15.252 10.2586H15.277V10.2908C15.234 10.3416 15.1753 10.3739 15.1118 10.382H15.0317C15.0317 10.4357 15.0617 10.4732 15.0317 10.5161C15.0228 10.5316 15.0102 10.5442 14.9952 10.5527C14.9802 10.5612 14.9634 10.5652 14.9465 10.5644H14.9165C14.9165 10.5644 14.9165 10.602 14.9165 10.6181C14.9165 10.6342 14.9515 10.6664 14.9415 10.6878C14.9315 10.7093 14.9415 10.6878 14.9065 10.7146C14.802 10.74 14.7032 10.7874 14.616 10.8541C14.5509 10.8798 14.4839 10.8995 14.4158 10.9131H14.3106H14.1904C14.1045 10.9238 14.0192 10.9399 13.9351 10.9614C14.1624 10.9784 14.3909 10.9549 14.611 10.8917C14.8232 10.8503 15.0323 10.7929 15.237 10.72C15.3672 10.6771 15.3671 10.6556 15.3671 10.6556C15.3671 10.6556 15.3071 10.6181 15.282 10.6127C15.257 10.6073 15.2019 10.6127 15.2019 10.5644C15.2661 10.5393 15.3339 10.5266 15.4022 10.5269C15.4773 10.5269 15.5925 10.5269 15.5975 10.4732C15.6025 10.4196 15.5624 10.4303 15.5023 10.4196C15.4423 10.4088 15.4222 10.4196 15.4272 10.3713C15.4322 10.323 15.4723 10.3337 15.5724 10.3176C15.6726 10.3015 15.8178 10.2747 15.8278 10.2211C15.8378 10.1674 15.7777 10.2211 15.7527 10.1943C15.7277 10.1674 15.6726 10.1943 15.6626 10.1621V10.1299C15.7063 10.0933 15.758 10.0693 15.8128 10.0601C15.9079 10.0279 16.0181 9.99038 16.0231 9.91528C16.0281 9.84017 15.963 9.91528 15.9079 9.91528C15.8529 9.91528 15.8228 9.91528 15.8128 9.91528C15.8175 9.89593 15.827 9.87827 15.8402 9.86413C15.8534 9.84999 15.8698 9.83989 15.8879 9.83482C15.9366 9.81003 15.9835 9.78132 16.0281 9.74897C16.3786 9.48609 16.4237 9.37345 16.4137 9.33053C16.4037 9.28761 16.2635 9.37345 16.1783 9.42709C16.1157 9.47432 16.0464 9.51055 15.973 9.5344H15.943C15.938 9.51874 15.938 9.50175 15.943 9.4861C15.9937 9.41755 16.0508 9.35465 16.1132 9.29834C16.3286 9.08912 16.7141 8.69749 16.614 8.59556C16.5389 8.59556 16.3786 8.74041 16.2484 8.8638C16.1182 8.98719 16.0081 9.08911 15.963 9.08911V9.05692C15.963 9.05692 15.963 9.01401 16.0882 8.8638C16.3235 8.53118 16.8143 7.83909 16.6941 7.59231C16.5872 7.74041 16.4901 7.8964 16.4037 8.05907C16.1533 8.49362 15.983 8.78331 15.9029 8.78331C15.8228 8.78331 15.8729 8.72428 16.0131 8.36484C16.1791 8.02883 16.294 7.66664 16.3536 7.29188C16.3085 7.29188 16.2084 7.51723 16.1333 7.6889L16.1032 7.76935C16.0409 7.93234 15.9708 8.09172 15.8929 8.24683C15.8629 8.24683 15.8629 8.2039 15.8679 8.00004C15.8802 7.84832 15.8802 7.69576 15.8679 7.54404C15.8679 7.51722 15.8679 7.51185 15.8328 7.51185L15.8829 7.47967Z" fill="#F5C832"/>
<path d="M11.8417 11.4818C11.8417 11.4818 11.7966 11.4818 11.7665 11.4818C11.7365 11.4818 11.7165 11.4818 11.7215 11.5247C11.7265 11.5676 11.7615 11.5247 11.7916 11.5247C11.8216 11.5247 11.8417 11.5247 11.8417 11.4764V11.4818Z" fill="#4EAEC4"/>
<path d="M11.7422 11.5514C11.7422 11.5514 11.7422 11.4978 11.7973 11.4871H11.8724C11.8701 11.5028 11.863 11.5172 11.852 11.5279C11.8411 11.5386 11.8271 11.5451 11.8123 11.5461H11.7572L11.7422 11.5514Z" fill="#4EAEC4"/>
<path d="M12.9633 4.66849C12.9824 4.67498 13.0027 4.67681 13.0226 4.67386C13.0425 4.67091 13.0615 4.66325 13.0783 4.65143C13.095 4.63961 13.1092 4.62392 13.1196 4.60552C13.13 4.58713 13.1365 4.56648 13.1385 4.54508C13.1424 4.31585 13.134 4.0866 13.1135 3.8584C13.0133 4.05989 12.9247 4.2677 12.8481 4.4807C12.842 4.50122 12.8403 4.52294 12.8431 4.54426C12.8458 4.56557 12.853 4.58594 12.864 4.60392C12.875 4.6219 12.8897 4.63702 12.9068 4.64819C12.924 4.65935 12.9433 4.6663 12.9633 4.66849Z" fill="#F5C832"/>
<path d="M13.3491 4.79182C13.3668 4.80236 13.3865 4.8085 13.4067 4.80977C13.427 4.81104 13.4472 4.8074 13.466 4.79916C13.4847 4.79092 13.5015 4.77825 13.5151 4.76212C13.5286 4.746 13.5387 4.72683 13.5444 4.706C13.59 4.48477 13.6235 4.26085 13.6445 4.0354C13.5091 4.20571 13.3837 4.38489 13.269 4.57188C13.2591 4.59046 13.2534 4.61122 13.2522 4.63256C13.251 4.6539 13.2544 4.67523 13.2622 4.69493C13.2699 4.71464 13.2818 4.73217 13.2968 4.74618C13.3119 4.76019 13.3298 4.77029 13.3491 4.77571V4.79182Z" fill="#F5C832"/>
<path d="M13.6844 5.00104C13.7002 5.01452 13.7185 5.02404 13.7381 5.02894C13.7578 5.03384 13.7781 5.03399 13.7978 5.02937C13.8175 5.02474 13.836 5.01544 13.8519 5.00219C13.8678 4.98893 13.8807 4.97204 13.8897 4.95274C13.9759 4.74522 14.0494 4.53197 14.11 4.31433C13.9464 4.45993 13.7909 4.61578 13.6444 4.78107C13.6316 4.79758 13.6224 4.81694 13.6175 4.83771C13.6125 4.85849 13.6119 4.88016 13.6158 4.90121C13.6196 4.92225 13.6278 4.94213 13.6396 4.95939C13.6515 4.97665 13.6668 4.99088 13.6844 5.00104V5.00104Z" fill="#F5C832"/>
<path d="M14.014 5.27472C14.0266 5.29152 14.0427 5.30506 14.0608 5.31437C14.079 5.32368 14.099 5.32852 14.1191 5.32852C14.1393 5.32852 14.1592 5.32368 14.1774 5.31437C14.1956 5.30506 14.2116 5.29152 14.2243 5.27472C14.3494 5.09077 14.4615 4.8971 14.5598 4.69531C14.3732 4.80386 14.1926 4.92386 14.019 5.05475C14.0033 5.06832 13.9906 5.08548 13.982 5.10497C13.9733 5.12447 13.9687 5.14582 13.9688 5.16742C13.9687 5.18902 13.9733 5.21034 13.982 5.22983C13.9906 5.24932 14.0033 5.26648 14.019 5.28006L14.014 5.27472Z" fill="#F5C832"/>
<path d="M14.2698 5.60727C14.2793 5.62615 14.2926 5.64253 14.3087 5.65524C14.3248 5.66796 14.3433 5.67668 14.363 5.68078C14.3826 5.68489 14.4029 5.68428 14.4223 5.67898C14.4417 5.67369 14.4597 5.66384 14.4751 5.65017C14.6307 5.49462 14.7763 5.32794 14.9108 5.15125C14.7079 5.21705 14.5089 5.29588 14.3149 5.3873C14.2969 5.39696 14.2811 5.41083 14.2687 5.42787C14.2564 5.4449 14.2477 5.46468 14.2434 5.48576C14.2391 5.50684 14.2392 5.52869 14.2438 5.54971C14.2483 5.57073 14.2573 5.59041 14.2698 5.60727V5.60727Z" fill="#F5C832"/>
<path d="M14.461 5.99891C14.4667 6.01974 14.4768 6.03894 14.4903 6.05507C14.5039 6.0712 14.5207 6.08386 14.5394 6.0921C14.5582 6.10034 14.5784 6.10395 14.5986 6.10268C14.6189 6.10141 14.6386 6.09527 14.6563 6.08473C14.8308 5.96186 14.9981 5.82748 15.157 5.68237C15.157 5.68237 14.6313 5.75212 14.5311 5.78968C14.5112 5.79517 14.4928 5.80546 14.4772 5.81973C14.4615 5.83401 14.4492 5.85189 14.441 5.87206C14.4327 5.89223 14.4289 5.91413 14.4298 5.93611C14.4307 5.95809 14.4362 5.97957 14.446 5.99891H14.461Z" fill="#F5C832"/>
<path d="M14.5805 6.40128C14.5816 6.42312 14.5874 6.44437 14.5976 6.46334C14.6078 6.4823 14.622 6.49844 14.639 6.51045C14.6561 6.52246 14.6755 6.53002 14.6958 6.53249C14.7161 6.53496 14.7366 6.53227 14.7558 6.52466C14.953 6.44273 15.1453 6.34779 15.3316 6.24035C15.1203 6.21828 14.9079 6.20933 14.6957 6.21353C14.6757 6.21572 14.6564 6.22263 14.6392 6.2338C14.6221 6.24496 14.6075 6.26009 14.5964 6.27807C14.5854 6.29605 14.5783 6.31645 14.5755 6.33776C14.5727 6.35907 14.5745 6.38077 14.5805 6.40128V6.40128Z" fill="#F5C832"/>
<path d="M14.6201 6.83045C14.6178 6.85172 14.62 6.87328 14.6264 6.89355C14.6328 6.91382 14.6433 6.93232 14.6572 6.94771C14.6711 6.9631 14.688 6.97499 14.7067 6.98255C14.7254 6.99011 14.7454 6.99312 14.7653 6.99139C14.9752 6.9515 15.1826 6.89776 15.3862 6.83045C15.1824 6.76535 14.975 6.71341 14.7653 6.67489C14.7457 6.67228 14.7257 6.67451 14.707 6.6814C14.6883 6.6883 14.6713 6.69967 14.6573 6.71467C14.6433 6.72967 14.6326 6.74791 14.6262 6.76798C14.6198 6.78804 14.6177 6.8094 14.6201 6.83045V6.83045Z" fill="#F5C832"/>
<path d="M14.5806 7.26501C14.5745 7.28521 14.5727 7.30665 14.5755 7.32769C14.5783 7.34872 14.5855 7.3688 14.5966 7.3864C14.6077 7.40399 14.6224 7.41865 14.6396 7.42922C14.6568 7.4398 14.676 7.44603 14.6958 7.44743C14.9075 7.46282 15.12 7.46282 15.3317 7.44743C15.1447 7.34004 14.9525 7.24331 14.7559 7.15771C14.7364 7.15117 14.7157 7.14948 14.6955 7.15273C14.6752 7.15599 14.6559 7.16411 14.6391 7.17651C14.6222 7.1889 14.6082 7.20523 14.598 7.22428C14.5879 7.24333 14.582 7.26462 14.5806 7.28649V7.26501Z" fill="#F5C832"/>
<path d="M14.4613 7.67806C14.4525 7.69719 14.4477 7.71816 14.4473 7.73949C14.4469 7.76082 14.4509 7.782 14.4591 7.80148C14.4672 7.82095 14.4792 7.83826 14.4943 7.85216C14.5094 7.86607 14.5272 7.87624 14.5464 7.88193C14.7525 7.93307 14.9616 7.96892 15.1723 7.98923C15.0121 7.84577 14.845 7.71146 14.6716 7.58687C14.6534 7.5774 14.6335 7.57225 14.6132 7.57181C14.593 7.57137 14.5729 7.57562 14.5544 7.58428C14.5358 7.59295 14.5192 7.60582 14.5058 7.62201C14.4923 7.63819 14.4822 7.65733 14.4763 7.67806H14.4613Z" fill="#F5C832"/>
<path d="M14.2712 8.05901C14.2594 8.0762 14.2513 8.09587 14.2472 8.11671C14.2431 8.13755 14.2431 8.15907 14.2474 8.17987C14.2517 8.20067 14.26 8.22026 14.2719 8.23734C14.2837 8.25442 14.2989 8.26861 14.3162 8.27896C14.4064 8.33797 14.9121 8.51501 14.9121 8.51501C14.7776 8.33832 14.6321 8.17163 14.4765 8.01609C14.4611 8.00241 14.443 7.99257 14.4236 7.98727C14.4042 7.98198 14.384 7.98136 14.3643 7.98547C14.3447 7.98958 14.3261 7.99829 14.31 8.01101C14.2939 8.02373 14.2807 8.04013 14.2712 8.05901V8.05901Z" fill="#F5C832"/>
<path d="M14.0151 8.3916C13.9994 8.40518 13.9867 8.42234 13.978 8.44183C13.9694 8.46132 13.9648 8.48264 13.9648 8.50424C13.9648 8.52584 13.9694 8.54719 13.978 8.56668C13.9867 8.58618 13.9994 8.60333 14.0151 8.61691C14.1887 8.74779 14.3693 8.8678 14.5559 8.97635C14.4567 8.77341 14.3446 8.57805 14.2204 8.3916C14.2077 8.3748 14.1917 8.36122 14.1735 8.35191C14.1553 8.3426 14.1354 8.33777 14.1152 8.33777C14.095 8.33777 14.0752 8.3426 14.057 8.35191C14.0388 8.36122 14.0227 8.3748 14.0101 8.3916H14.0151Z" fill="#F5C832"/>
<path d="M13.6844 8.68136C13.6668 8.69152 13.6515 8.70575 13.6396 8.72301C13.6278 8.74027 13.6196 8.76012 13.6158 8.78117C13.6119 8.80221 13.6125 8.82391 13.6175 8.84469C13.6224 8.86547 13.6316 8.88479 13.6444 8.9013C13.7907 9.06509 13.9462 9.21919 14.11 9.3627C14.0493 9.14686 13.9757 8.93541 13.8897 8.72966C13.8807 8.71036 13.8678 8.69344 13.8519 8.68018C13.836 8.66693 13.8175 8.65767 13.7978 8.65304C13.7781 8.64841 13.7578 8.64853 13.7381 8.65343C13.7185 8.65833 13.7002 8.66788 13.6844 8.68136V8.68136Z" fill="#F5C832"/>
<path d="M13.349 8.86905C13.3296 8.87518 13.3117 8.88592 13.2966 8.90046C13.2816 8.915 13.2698 8.93299 13.2621 8.95308C13.2544 8.97317 13.251 8.99482 13.2522 9.0165C13.2534 9.03818 13.2591 9.0593 13.2689 9.07829C13.3836 9.26528 13.509 9.44446 13.6445 9.61477C13.6231 9.3876 13.5896 9.1619 13.5443 8.9388C13.5379 8.91853 13.5274 8.9 13.5137 8.88441C13.5 8.86882 13.4834 8.85652 13.4649 8.84839C13.4464 8.84026 13.4265 8.83647 13.4065 8.83726C13.3865 8.83805 13.3669 8.84341 13.349 8.85298V8.86905Z" fill="#F5C832"/>
<path d="M11.4209 8.68136C11.4047 8.66783 11.386 8.65828 11.366 8.65336C11.346 8.64844 11.3252 8.64826 11.3052 8.65287C11.2851 8.65747 11.2663 8.66671 11.2499 8.67998C11.2336 8.69325 11.2201 8.71022 11.2106 8.72965C11.1246 8.93541 11.051 9.14685 10.9902 9.3627C11.1541 9.21919 11.3096 9.06508 11.4559 8.9013C11.4698 8.88558 11.4801 8.86661 11.486 8.84589C11.4918 8.82518 11.4931 8.80329 11.4897 8.78195C11.4863 8.7606 11.4783 8.7404 11.4664 8.72294C11.4544 8.70548 11.4388 8.69125 11.4209 8.68136V8.68136Z" fill="#F5C832"/>
<path d="M11.1053 8.39159C11.0931 8.37487 11.0775 8.36134 11.0597 8.35204C11.0419 8.34273 11.0224 8.33789 11.0026 8.33789C10.9828 8.33789 10.9633 8.34273 10.9455 8.35204C10.9277 8.36134 10.9121 8.37487 10.8999 8.39159C10.7757 8.57804 10.6636 8.7734 10.5645 8.97634C10.751 8.86779 10.9316 8.74778 11.1053 8.6169C11.1209 8.60333 11.1336 8.58617 11.1423 8.56667C11.151 8.54718 11.1555 8.52583 11.1555 8.50423C11.1555 8.48263 11.151 8.46131 11.1423 8.44182C11.1336 8.42233 11.1209 8.40517 11.1053 8.39159V8.39159Z" fill="#F5C832"/>
<path d="M10.8499 8.05901C10.8404 8.04013 10.8272 8.02373 10.8111 8.01101C10.7949 7.99829 10.7764 7.98958 10.7567 7.98547C10.7371 7.98136 10.7169 7.98198 10.6975 7.98727C10.6781 7.99257 10.66 8.00241 10.6446 8.01609C10.4903 8.17304 10.3449 8.33964 10.209 8.51501C10.209 8.51501 10.7097 8.33797 10.8099 8.27896C10.8275 8.2688 10.8428 8.25457 10.8547 8.23731C10.8665 8.22004 10.8747 8.2002 10.8785 8.17915C10.8823 8.15811 10.8818 8.1364 10.8768 8.11563C10.8719 8.09485 10.8627 8.07553 10.8499 8.05901V8.05901Z" fill="#F5C832"/>
<path d="M10.6804 7.67806C10.6745 7.65733 10.6644 7.63819 10.651 7.62201C10.6375 7.60582 10.6209 7.59295 10.6023 7.58428C10.5838 7.57562 10.5637 7.57137 10.5435 7.57181C10.5232 7.57225 10.5033 7.5774 10.4851 7.58687C10.3117 7.71146 10.1446 7.84577 9.98438 7.98923C10.1967 7.969 10.4075 7.93314 10.6153 7.88193C10.6346 7.8765 10.6525 7.8664 10.6675 7.85239C10.6826 7.83839 10.6945 7.82085 10.7022 7.80115C10.71 7.78145 10.7134 7.76008 10.7122 7.73874C10.711 7.7174 10.7053 7.69665 10.6954 7.67806H10.6804Z" fill="#F5C832"/>
<path d="M10.5452 7.265C10.5431 7.24291 10.5365 7.22161 10.5258 7.20259C10.5151 7.18357 10.5007 7.16729 10.4834 7.15498C10.4662 7.14267 10.4466 7.13461 10.4261 7.13137C10.4056 7.12813 10.3847 7.1298 10.3649 7.13625C10.2648 7.13625 9.78906 7.42594 9.78906 7.42594C10.0008 7.44133 10.2133 7.44133 10.425 7.42594C10.4448 7.42431 10.4641 7.41803 10.4814 7.4075C10.4987 7.39697 10.5137 7.38249 10.5252 7.36507C10.5366 7.34764 10.5444 7.32769 10.5478 7.30668C10.5513 7.28568 10.5504 7.26413 10.5452 7.24355V7.265Z" fill="#F5C832"/>
<path d="M10.5055 6.83047C10.5071 6.80913 10.5043 6.78769 10.4972 6.76767C10.4902 6.74764 10.4791 6.72953 10.4647 6.71465C10.4504 6.69978 10.4331 6.68849 10.4142 6.68161C10.3952 6.67474 10.3751 6.67245 10.3553 6.6749C10.1457 6.71405 9.93841 6.76598 9.73438 6.83047C9.93821 6.89713 10.1456 6.95087 10.3553 6.99141C10.3756 6.994 10.3962 6.99164 10.4155 6.98447C10.4348 6.97729 10.4524 6.96551 10.4669 6.95002C10.4813 6.93452 10.4923 6.91571 10.499 6.89501C10.5057 6.8743 10.5079 6.85223 10.5055 6.83047V6.83047Z" fill="#F5C832"/>
<path d="M10.5452 6.40128C10.5503 6.38039 10.5512 6.35854 10.5478 6.33724C10.5443 6.31594 10.5367 6.2957 10.5253 6.27787C10.5139 6.26005 10.499 6.24507 10.4817 6.23396C10.4644 6.22285 10.445 6.2159 10.425 6.21353C10.2127 6.20933 10.0004 6.21828 9.78906 6.24035C9.97582 6.34676 10.1681 6.44167 10.3649 6.52466C10.3843 6.53213 10.4051 6.53474 10.4257 6.53226C10.4462 6.52978 10.4659 6.5223 10.4833 6.51039C10.5007 6.49847 10.5153 6.48244 10.5261 6.46353C10.5368 6.44462 10.5433 6.42332 10.5452 6.40128V6.40128Z" fill="#F5C832"/>
<path d="M10.6798 5.99891C10.6896 5.97992 10.6953 5.9588 10.6965 5.93712C10.6977 5.91545 10.6943 5.89375 10.6866 5.87366C10.6789 5.85358 10.6671 5.83562 10.6521 5.82108C10.637 5.80654 10.6191 5.7958 10.5997 5.78968C10.4995 5.75212 9.96875 5.68237 9.96875 5.68237C10.1277 5.82748 10.2949 5.96186 10.4695 6.08473C10.4876 6.09858 10.5087 6.10743 10.5308 6.11047C10.5528 6.11351 10.5753 6.11065 10.5961 6.10215C10.6169 6.09366 10.6354 6.07979 10.65 6.06178C10.6646 6.04377 10.6749 6.02217 10.6798 5.99891V5.99891Z" fill="#F5C832"/>
<path d="M10.8499 5.60727C10.8627 5.59076 10.8719 5.5714 10.8768 5.55063C10.8818 5.52985 10.8823 5.50818 10.8785 5.48713C10.8747 5.46609 10.8665 5.44621 10.8547 5.42895C10.8428 5.41169 10.8275 5.39746 10.8099 5.3873C10.6142 5.29572 10.4135 5.2169 10.209 5.15125C10.3449 5.32661 10.4903 5.49321 10.6446 5.65017C10.6596 5.66486 10.6777 5.67558 10.6972 5.68147C10.7168 5.68736 10.7374 5.68826 10.7574 5.68409C10.7773 5.67992 10.7961 5.67081 10.8122 5.65747C10.8282 5.64413 10.8412 5.62694 10.8499 5.60727V5.60727Z" fill="#F5C832"/>
<path d="M11.1053 5.27472C11.1209 5.26114 11.1336 5.24395 11.1423 5.22446C11.151 5.20496 11.1555 5.18365 11.1555 5.16205C11.1555 5.14044 11.151 5.11913 11.1423 5.09964C11.1336 5.08014 11.1209 5.06295 11.1053 5.04937C10.9316 4.91849 10.751 4.79849 10.5645 4.68994C10.6627 4.89172 10.7749 5.0854 10.8999 5.26935C10.9121 5.28607 10.9277 5.2996 10.9455 5.3089C10.9633 5.31821 10.9828 5.32302 11.0026 5.32302C11.0224 5.32302 11.0419 5.31821 11.0597 5.3089C11.0775 5.2996 11.0931 5.28607 11.1053 5.26935V5.27472Z" fill="#F5C832"/>
<path d="M12.5568 4.8938C12.9153 4.8938 13.2657 5.00771 13.5638 5.22111C13.8619 5.43451 14.0943 5.7378 14.2314 6.09266C14.3686 6.44753 14.4045 6.83802 14.3346 7.21474C14.2647 7.59146 14.092 7.93751 13.8385 8.20911C13.585 8.48072 13.262 8.66565 12.9104 8.74059C12.5588 8.81552 12.1943 8.77706 11.8631 8.63007C11.5319 8.48308 11.2488 8.23418 11.0496 7.91481C10.8504 7.59544 10.7441 7.21996 10.7441 6.83586C10.7441 6.32079 10.9351 5.82681 11.2751 5.4626C11.615 5.09839 12.076 4.8938 12.5568 4.8938V4.8938Z" fill="#F5C832"/>
<path d="M12.5582 4.63089C12.5783 4.63249 12.5985 4.62941 12.6174 4.62188C12.6363 4.61436 12.6535 4.60258 12.6677 4.58731C12.682 4.57203 12.693 4.55363 12.7001 4.53338C12.7071 4.51312 12.7099 4.4915 12.7084 4.46995C12.6712 4.2451 12.621 4.02291 12.5582 3.80469C12.4974 4.02312 12.4489 4.2453 12.413 4.46995C12.4107 4.49122 12.4129 4.51274 12.4193 4.53302C12.4257 4.55329 12.4362 4.57178 12.4501 4.58718C12.464 4.60257 12.4809 4.61446 12.4996 4.62202C12.5183 4.62957 12.5383 4.63261 12.5582 4.63089V4.63089Z" fill="#F5C832"/>
<path d="M12.9632 8.99256C12.943 8.99548 12.9237 9.00308 12.9065 9.01482C12.8894 9.02656 12.8748 9.04215 12.8639 9.06053C12.8529 9.07891 12.8458 9.09963 12.8431 9.12124C12.8403 9.14285 12.842 9.16484 12.848 9.18568C12.9255 9.39656 13.0141 9.60256 13.1134 9.80265C13.134 9.57624 13.1424 9.34874 13.1385 9.12131C13.1362 9.09982 13.1297 9.07911 13.1194 9.06057C13.109 9.04203 13.095 9.0261 13.0784 9.01387C13.0617 9.00165 13.0428 8.99342 13.023 8.98974C13.0031 8.98606 12.9827 8.98702 12.9632 8.99256Z" fill="#F5C832"/>
<path d="M12.5582 9.03544C12.5383 9.03371 12.5183 9.03675 12.4996 9.04431C12.4809 9.05187 12.464 9.06376 12.4501 9.07915C12.4362 9.09454 12.4257 9.11304 12.4193 9.13331C12.4129 9.15358 12.4107 9.17514 12.413 9.19641C12.4489 9.42106 12.4974 9.6432 12.5582 9.86164C12.621 9.64342 12.6712 9.42126 12.7084 9.19641C12.7108 9.17465 12.7086 9.15257 12.7019 9.13187C12.6952 9.11116 12.6842 9.09235 12.6698 9.07686C12.6553 9.06136 12.6378 9.04958 12.6184 9.04241C12.5991 9.03524 12.5785 9.03285 12.5582 9.03544V9.03544Z" fill="#F5C832"/>
<path d="M12.1821 8.99256C12.1626 8.98702 12.1422 8.98606 12.1223 8.98974C12.1024 8.99342 12.0835 9.00165 12.0669 9.01387C12.0502 9.0261 12.0362 9.04203 12.0259 9.06057C12.0155 9.07911 12.009 9.09982 12.0068 9.12131C12.0029 9.34874 12.0112 9.57624 12.0318 9.80265C12.0318 9.80265 12.2722 9.26615 12.2972 9.18568C12.3032 9.16484 12.3049 9.14285 12.3022 9.12124C12.2994 9.09963 12.2924 9.07891 12.2814 9.06053C12.2704 9.04215 12.2559 9.02656 12.2387 9.01482C12.2216 9.00308 12.2022 8.99548 12.1821 8.99256V8.99256Z" fill="#F5C832"/>
<path d="M11.7709 8.86911C11.7534 8.85956 11.7341 8.85424 11.7145 8.85349C11.6948 8.85273 11.6753 8.85658 11.6572 8.86475C11.6391 8.87292 11.6228 8.88522 11.6096 8.9008C11.5964 8.91638 11.5865 8.93487 11.5806 8.95496C11.5328 9.17756 11.4994 9.40342 11.4805 9.63093C11.6144 9.45931 11.7397 9.28023 11.856 9.09445C11.8649 9.07494 11.8696 9.05359 11.8701 9.03191C11.8705 9.01023 11.8665 8.98872 11.8584 8.96884C11.8503 8.94896 11.8383 8.93118 11.8232 8.91675C11.8081 8.90231 11.7902 8.89156 11.7709 8.88522V8.86911Z" fill="#F5C832"/>
<path d="M11.4209 5.00104C11.4388 4.99115 11.4544 4.97692 11.4664 4.95946C11.4783 4.942 11.4863 4.92179 11.4897 4.90045C11.4931 4.87911 11.4918 4.85722 11.486 4.8365C11.4801 4.81578 11.4698 4.79679 11.4559 4.78107C11.3094 4.61578 11.1539 4.45993 10.9902 4.31433C11.0508 4.53197 11.1244 4.74522 11.2106 4.95274C11.2201 4.97218 11.2336 4.98912 11.2499 5.00238C11.2663 5.01565 11.2851 5.02493 11.3052 5.02953C11.3252 5.03413 11.346 5.03396 11.366 5.02904C11.386 5.02411 11.4047 5.01457 11.4209 5.00104V5.00104Z" fill="#F5C832"/>
<path d="M11.7709 4.79186C11.7901 4.78617 11.8079 4.776 11.823 4.7621C11.8381 4.74819 11.8501 4.73088 11.8583 4.71141C11.8664 4.69193 11.8704 4.67076 11.87 4.64942C11.8696 4.62809 11.8649 4.60712 11.856 4.58799C11.7397 4.40221 11.6144 4.22314 11.4805 4.05151C11.4991 4.27729 11.5326 4.50138 11.5806 4.72211C11.5857 4.74279 11.5951 4.76196 11.6082 4.77811C11.6213 4.79426 11.6376 4.80698 11.656 4.81527C11.6744 4.82357 11.6943 4.82721 11.7142 4.82595C11.7342 4.82468 11.7535 4.81854 11.7709 4.80797V4.79186Z" fill="#F5C832"/>
<path d="M12.182 4.66849C12.202 4.6663 12.2213 4.65935 12.2385 4.64819C12.2556 4.63702 12.2703 4.6219 12.2813 4.60392C12.2923 4.58594 12.2995 4.56557 12.3022 4.54426C12.305 4.52294 12.3033 4.50122 12.2972 4.4807C12.2722 4.36804 12.0318 3.8584 12.0318 3.8584C12.0113 4.0866 12.0029 4.31585 12.0068 4.54508C12.0079 4.56691 12.0137 4.5882 12.0239 4.60716C12.0341 4.62612 12.0482 4.64224 12.0653 4.65425C12.0824 4.66626 12.1018 4.67381 12.1221 4.67628C12.1424 4.67875 12.1629 4.67609 12.182 4.66849V4.66849Z" fill="#F5C832"/>
</g>
<defs>
<clipPath id="clip0_1043_176443">
<rect width="24" height="15" fill="white" transform="translate(0 0.5)"/>
</clipPath>
</defs>
</svg>
