<svg width="90" height="90" viewBox="0 0 90 90" fill="none" xmlns="http://www.w3.org/2000/svg">
<circle cx="45" cy="45" r="45" fill="#FAFAFA"/>
<g clip-path="url(#clip0_1080_171873)">
<path d="M26.2598 68.7619L26.5798 65.6419L30.2498 61.8519L29.1798 58.5619L31.5598 55.0519H33.8598L36.4798 57.6719L36.0498 61.8519L35.6298 62.7619L38.9098 65.6419L42.7698 62.3619L41.4798 59.1519L42.3398 56.2319L45.4098 54.6719L48.3798 56.8719L48.6498 60.2419L47.4998 62.4119L51.2698 65.6419L54.9398 62.2019L53.4098 58.8019L55.0698 55.5619L57.7198 54.6719L60.4298 56.6619L61.1198 59.8919L59.5298 62.3419L63.5498 65.7919V68.9019L26.2598 68.7619Z" fill="white"/>
<path d="M39.0098 69.4004C38.8772 69.4004 38.75 69.3477 38.6562 69.2539C38.5625 69.1601 38.5098 69.033 38.5098 68.9004V66.0203L34.9398 62.7803C34.8482 62.6868 34.7969 62.5613 34.7969 62.4304C34.7969 62.2995 34.8482 62.1738 34.9398 62.0803C35.0333 61.9887 35.1589 61.9375 35.2898 61.9375C35.4207 61.9375 35.5463 61.9887 35.6398 62.0803L39.3798 65.4604C39.4298 65.5084 39.4696 65.5656 39.4971 65.6292C39.5246 65.6927 39.5391 65.7611 39.5398 65.8303V68.9304C39.5373 68.9966 39.5215 69.0615 39.4932 69.1213C39.4649 69.1812 39.4248 69.2346 39.3753 69.2786C39.3257 69.3225 39.2678 69.356 39.205 69.377C39.1422 69.3979 39.0758 69.4058 39.0098 69.4004Z" fill="#333333"/>
<path d="M32.9496 63.9395C30.6896 63.9395 28.8496 61.7894 28.8496 59.1494C28.8496 56.5094 30.6896 54.3594 32.9496 54.3594C35.2096 54.3594 37.0396 56.5094 37.0396 59.1494C37.0396 61.7894 35.2096 63.9395 32.9496 63.9395ZM32.9496 55.3494C31.2396 55.3494 29.8396 57.0494 29.8396 59.1494C29.8396 61.2494 31.2396 62.9495 32.9496 62.9495C34.6596 62.9495 36.0496 61.2394 36.0496 59.1494C36.0496 57.0594 34.6596 55.3494 32.9496 55.3494Z" fill="#333333"/>
<path d="M51.2009 69.4004C51.0683 69.4004 50.9411 69.3477 50.8473 69.2539C50.7536 69.1601 50.7009 69.033 50.7009 68.9004V66.0203L47.3109 62.9604C47.2193 62.867 47.168 62.7412 47.168 62.6104C47.168 62.4795 47.2193 62.354 47.3109 62.2605C47.3565 62.2139 47.411 62.1769 47.4711 62.1516C47.5312 62.1264 47.5957 62.1133 47.6609 62.1133C47.7261 62.1133 47.7906 62.1264 47.8507 62.1516C47.9108 62.1769 47.9653 62.2139 48.0109 62.2605L51.5709 65.4604C51.6209 65.5084 51.6607 65.5656 51.6882 65.6292C51.7157 65.6927 51.7302 65.7611 51.7309 65.8303V68.9304C51.7284 68.9966 51.7126 69.0615 51.6843 69.1213C51.656 69.1812 51.6159 69.2346 51.5664 69.2786C51.5168 69.3225 51.4589 69.356 51.3961 69.377C51.3333 69.3979 51.2669 69.4058 51.2009 69.4004Z" fill="#333333"/>
<path d="M39.011 66.2986C38.9418 66.2979 38.8734 66.2836 38.8098 66.2561C38.7463 66.2286 38.6889 66.1886 38.641 66.1387C38.5494 66.0452 38.498 65.9195 38.498 65.7886C38.498 65.6577 38.5494 65.5322 38.641 65.4387L42.041 62.3186C42.1344 62.227 42.2601 62.1758 42.391 62.1758C42.5219 62.1758 42.6475 62.227 42.741 62.3186C42.7875 62.3642 42.8245 62.4187 42.8498 62.4788C42.875 62.5389 42.888 62.6035 42.888 62.6687C42.888 62.7339 42.875 62.7983 42.8498 62.8584C42.8245 62.9185 42.7875 62.9729 42.741 63.0186L39.341 66.1287C39.2562 66.2248 39.1384 66.2854 39.011 66.2986Z" fill="#333333"/>
<path d="M45.1391 63.9395C42.8791 63.9395 41.0391 61.7894 41.0391 59.1494C41.0391 56.5094 42.8791 54.3594 45.1391 54.3594C47.3991 54.3594 49.2291 56.5094 49.2291 59.1494C49.2291 61.7894 47.3991 63.9395 45.1391 63.9395ZM45.1391 55.3494C43.4291 55.3494 42.0291 57.0494 42.0291 59.1494C42.0291 61.2494 43.4291 62.9495 45.1391 62.9495C46.8491 62.9495 48.2391 61.2394 48.2391 59.1494C48.2391 57.0594 46.8491 55.3494 45.1391 55.3494Z" fill="#333333"/>
<path d="M63.3909 69.3989C63.2583 69.3989 63.1311 69.3462 63.0373 69.2524C62.9436 69.1587 62.8909 69.0315 62.8909 68.8989V66.0188L59.5709 63.0188C59.5243 62.9732 59.4873 62.9187 59.4621 62.8586C59.4368 62.7985 59.4238 62.7341 59.4238 62.6689C59.4238 62.6038 59.4368 62.5391 59.4621 62.479C59.4873 62.4189 59.5243 62.3645 59.5709 62.3188C59.6165 62.2723 59.671 62.2355 59.7311 62.2102C59.7912 62.185 59.8557 62.1719 59.9209 62.1719C59.9861 62.1719 60.0506 62.185 60.1107 62.2102C60.1708 62.2355 60.2253 62.2723 60.2709 62.3188L63.7509 65.449C63.8009 65.4969 63.8407 65.5541 63.8682 65.6177C63.8957 65.6812 63.9102 65.7496 63.9109 65.8188V68.9189C63.9097 68.9851 63.8951 69.0503 63.868 69.1106C63.8409 69.1709 63.8019 69.2249 63.7533 69.2698C63.7048 69.3146 63.6476 69.3494 63.5853 69.3716C63.523 69.3938 63.4569 69.403 63.3909 69.3989Z" fill="#333333"/>
<path d="M26.5 69.3982C26.3674 69.3982 26.2402 69.3455 26.1464 69.2517C26.0527 69.1579 26 69.0308 26 68.8982V65.7981C26.0008 65.7279 26.0163 65.659 26.0456 65.5952C26.0749 65.5315 26.1173 65.4745 26.17 65.4282L29.94 62.0181C29.9856 61.9715 30.0401 61.9347 30.1002 61.9094C30.1603 61.8842 30.2248 61.8711 30.29 61.8711C30.3552 61.8711 30.4197 61.8842 30.4798 61.9094C30.5399 61.9347 30.5944 61.9715 30.64 62.0181C30.7316 62.1115 30.7829 62.2373 30.7829 62.3682C30.7829 62.499 30.7316 62.6248 30.64 62.7183L27.03 65.9883V68.8682C27.0361 68.9393 27.0266 69.0108 27.0021 69.0779C26.9776 69.1449 26.9387 69.2059 26.8883 69.2563C26.8378 69.3068 26.7769 69.3459 26.7098 69.3704C26.6427 69.3948 26.5711 69.4043 26.5 69.3982Z" fill="#333333"/>
<path d="M63.39 69.4001H26.5C26.3674 69.4001 26.2402 69.3474 26.1464 69.2537C26.0527 69.1599 26 69.0328 26 68.9001C26.0026 68.7693 26.0564 68.6446 26.1499 68.553C26.2434 68.4614 26.3691 68.4101 26.5 68.4102H63.39C63.52 68.4102 63.6446 68.4618 63.7365 68.5537C63.8284 68.6456 63.88 68.7702 63.88 68.9001C63.8813 68.9653 63.8696 69.0302 63.8456 69.0908C63.8216 69.1514 63.7857 69.2066 63.7401 69.2532C63.6944 69.2997 63.64 69.3366 63.5798 69.3618C63.5197 69.3871 63.4552 69.4002 63.39 69.4001Z" fill="#333333"/>
<path d="M51.2004 66.3008C51.1312 66.3001 51.0628 66.2858 50.9993 66.2583C50.9358 66.2308 50.8783 66.1908 50.8304 66.1409C50.7388 66.0474 50.6875 65.9216 50.6875 65.7908C50.6875 65.6599 50.7388 65.5344 50.8304 65.4409L54.5704 61.991C54.6161 61.9444 54.6705 61.9073 54.7306 61.8821C54.7907 61.8568 54.8552 61.8438 54.9204 61.8438C54.9856 61.8438 55.0501 61.8568 55.1102 61.8821C55.1703 61.9073 55.2248 61.9444 55.2704 61.991C55.317 62.0366 55.354 62.091 55.3792 62.1511C55.4045 62.2112 55.4175 62.2756 55.4175 62.3408C55.4175 62.406 55.4045 62.4707 55.3792 62.5308C55.354 62.5909 55.317 62.6453 55.2704 62.6909L51.5304 66.1509C51.4425 66.2396 51.3251 66.2929 51.2004 66.3008Z" fill="#333333"/>
<path d="M57.3302 63.9395C55.0702 63.9395 53.2402 61.7894 53.2402 59.1494C53.2402 56.5094 55.0702 54.3594 57.3302 54.3594C59.5902 54.3594 61.4302 56.5094 61.4302 59.1494C61.4302 61.7894 59.5902 63.9395 57.3302 63.9395ZM57.3302 55.3494C55.6202 55.3494 54.2302 57.0494 54.2302 59.1494C54.2302 61.2494 55.6202 62.9495 57.3302 62.9495C59.0402 62.9495 60.4302 61.2394 60.4302 59.1494C60.4302 57.0594 59.0402 55.3494 57.3302 55.3494Z" fill="#333333"/>
<path d="M45.3609 40.8C50.9666 40.8 55.5109 36.2557 55.5109 30.65C55.5109 25.0443 50.9666 20.5 45.3609 20.5C39.7552 20.5 35.2109 25.0443 35.2109 30.65C35.2109 36.2557 39.7552 40.8 45.3609 40.8Z" fill="#235AB0"/>
<path d="M45.3709 41.2981C42.5445 41.2954 39.8347 40.1717 37.8361 38.1731C35.8375 36.1745 34.7136 33.4646 34.7109 30.6382C34.7162 27.8135 35.8414 25.1063 37.8396 23.1099C39.8379 21.1135 42.5463 19.9909 45.3709 19.9883C48.1939 19.9936 50.8997 21.1172 52.8958 23.1133C54.8919 25.1094 56.0156 27.8153 56.0209 30.6382C56.0183 33.4628 54.8957 36.1712 52.8993 38.1694C50.9029 40.1677 48.1956 41.2928 45.3709 41.2981ZM45.3709 20.9983C42.8107 20.9983 40.3551 22.0145 38.5438 23.824C36.7325 25.6334 35.7136 28.0879 35.7109 30.6482C35.7136 33.2085 36.7325 35.663 38.5438 37.4724C40.3551 39.2819 42.8107 40.2981 45.3709 40.2981C47.9295 40.2954 50.3824 39.2779 52.1916 37.4688C54.0007 35.6596 55.0183 33.2067 55.0209 30.6482C55.0183 28.0897 54.0007 25.6368 52.1916 23.8276C50.3824 22.0185 47.9295 21.0009 45.3709 20.9983Z" fill="#333333"/>
<path d="M45.3698 45.9197C45.2293 45.9197 45.0945 45.8638 44.9951 45.7644C44.8957 45.665 44.8398 45.5302 44.8398 45.3896V40.7996C44.8398 40.659 44.8957 40.5242 44.9951 40.4248C45.0945 40.3254 45.2293 40.2695 45.3698 40.2695C45.439 40.2695 45.5074 40.2833 45.5712 40.3101C45.6349 40.3368 45.6927 40.3762 45.7411 40.4255C45.7895 40.4749 45.8276 40.5334 45.8532 40.5977C45.8787 40.6619 45.8912 40.7304 45.8898 40.7996V45.3896C45.8912 45.4588 45.8787 45.5275 45.8532 45.5918C45.8276 45.656 45.7895 45.7146 45.7411 45.7639C45.6927 45.8133 45.6349 45.8524 45.5712 45.8792C45.5074 45.9059 45.439 45.9197 45.3698 45.9197Z" fill="#333333"/>
<path d="M45.3698 52.4995C45.2293 52.4995 45.0945 52.4436 44.9951 52.3442C44.8957 52.2448 44.8398 52.11 44.8398 51.9695V45.3894C44.8398 45.3198 44.8536 45.2508 44.8802 45.1865C44.9068 45.1222 44.9459 45.0639 44.9951 45.0146C45.0443 44.9654 45.1027 44.9263 45.167 44.8997C45.2313 44.873 45.3002 44.8594 45.3698 44.8594C45.439 44.8594 45.5074 44.8731 45.5712 44.8999C45.6349 44.9267 45.6927 44.9658 45.7411 45.0151C45.7895 45.0645 45.8276 45.123 45.8532 45.1873C45.8787 45.2515 45.8912 45.3203 45.8898 45.3894V51.9695C45.8912 52.0386 45.8787 52.1071 45.8532 52.1714C45.8276 52.2356 45.7895 52.2942 45.7411 52.3435C45.6927 52.3929 45.6349 52.4322 45.5712 52.459C45.5074 52.4857 45.439 52.4995 45.3698 52.4995Z" fill="#333333"/>
<path d="M59.0302 52.5C58.8896 52.5 58.7548 52.4441 58.6554 52.3447C58.556 52.2453 58.5002 52.1105 58.5002 51.97V48.1299C58.5002 47.5809 58.2821 47.0545 57.8939 46.6663C57.5057 46.2781 56.9792 46.0598 56.4302 46.0598H34.2802C33.7312 46.0598 33.2046 46.2781 32.8164 46.6663C32.4282 47.0545 32.2101 47.5809 32.2101 48.1299V51.97C32.2115 52.0391 32.199 52.1076 32.1735 52.1719C32.1479 52.2361 32.1099 52.2946 32.0614 52.344C32.013 52.3933 31.9552 52.4327 31.8915 52.4595C31.8277 52.4862 31.7593 52.5 31.6902 52.5C31.5496 52.5 31.4148 52.4441 31.3154 52.3447C31.216 52.2453 31.1602 52.1105 31.1602 51.97V48.1299C31.1602 47.3015 31.4885 46.5069 32.0734 45.9202C32.6582 45.3335 33.4518 45.0026 34.2802 45H56.4101C57.2385 45.0026 58.0321 45.3335 58.6169 45.9202C59.2018 46.5069 59.5302 47.3015 59.5302 48.1299V51.97C59.5329 52.1062 59.482 52.238 59.3885 52.3372C59.295 52.4363 59.1663 52.4948 59.0302 52.5Z" fill="#333333"/>
<path d="M45.3694 35.1301C45.0398 35.1301 44.7134 35.0651 44.4088 34.939C44.1043 34.8128 43.8276 34.6281 43.5945 34.395C43.3615 34.162 43.1766 33.8851 43.0504 33.5806C42.9243 33.2761 42.8594 32.9498 42.8594 32.6201C42.8594 32.4796 42.9152 32.3448 43.0146 32.2454C43.114 32.146 43.2488 32.0901 43.3894 32.0901C43.4585 32.0901 43.527 32.1039 43.5907 32.1306C43.6545 32.1574 43.7122 32.1965 43.7607 32.2459C43.8091 32.2952 43.8472 32.3537 43.8727 32.418C43.8982 32.4822 43.9107 32.551 43.9094 32.6201C43.912 33.0056 44.067 33.3744 44.3405 33.646C44.614 33.9177 44.9839 34.0701 45.3694 34.0701C45.7539 34.0701 46.1227 33.9175 46.3947 33.6455C46.6666 33.3736 46.8194 33.0047 46.8194 32.6201C46.8194 32.0401 46.5494 31.6202 45.1994 31.1502C44.6194 30.9602 42.8594 30.3802 42.8594 28.6602C42.8594 28.331 42.9244 28.0052 43.0506 27.7012C43.1769 27.3972 43.3619 27.1212 43.5951 26.8889C43.8283 26.6567 44.1051 26.4727 44.4096 26.3477C44.7141 26.2226 45.0402 26.1589 45.3694 26.1602C46.0324 26.1602 46.6683 26.4235 47.1371 26.8924C47.606 27.3612 47.8694 27.9971 47.8694 28.6602C47.8707 28.7293 47.8582 28.7981 47.8327 28.8623C47.8072 28.9266 47.7691 28.9851 47.7206 29.0344C47.6722 29.0838 47.6145 29.1229 47.5507 29.1497C47.487 29.1764 47.4185 29.1902 47.3494 29.1902C47.2794 29.1916 47.2099 29.1788 47.145 29.1526C47.08 29.1265 47.0211 29.0874 46.9716 29.0379C46.9221 28.9884 46.8831 28.9294 46.8569 28.8645C46.8308 28.7996 46.818 28.7302 46.8194 28.6602C46.8194 28.2756 46.6666 27.9067 46.3947 27.6348C46.1227 27.3629 45.7539 27.2102 45.3694 27.2102C44.9839 27.2102 44.614 27.3627 44.3405 27.6343C44.067 27.9059 43.912 28.2747 43.9094 28.6602C43.9094 29.1102 44.0994 29.6602 45.5294 30.1402C46.6194 30.5002 47.8694 31.1401 47.8694 32.6201C47.8707 32.9493 47.807 33.2754 47.682 33.5799C47.5569 33.8843 47.373 34.1611 47.1407 34.3943C46.9084 34.6275 46.6324 34.8127 46.3284 34.939C46.0244 35.0652 45.6985 35.1301 45.3694 35.1301Z" fill="white"/>
<path d="M45.3698 27.231C45.2293 27.231 45.0945 27.1751 44.9951 27.0757C44.8957 26.9763 44.8398 26.8415 44.8398 26.7009V25.5808C44.8398 25.4402 44.8957 25.3054 44.9951 25.2061C45.0945 25.1067 45.2293 25.0508 45.3698 25.0508C45.439 25.0508 45.5074 25.0646 45.5712 25.0913C45.6349 25.1181 45.6927 25.1574 45.7411 25.2068C45.7895 25.2561 45.8276 25.3147 45.8532 25.3789C45.8787 25.4432 45.8912 25.5117 45.8898 25.5808V26.7009C45.8912 26.7701 45.8787 26.8386 45.8532 26.9028C45.8276 26.9671 45.7895 27.0256 45.7411 27.075C45.6927 27.1243 45.6349 27.1637 45.5712 27.1904C45.5074 27.2172 45.439 27.231 45.3698 27.231Z" fill="white"/>
<path d="M45.3698 36.2495C45.3002 36.2495 45.2313 36.2356 45.167 36.209C45.1027 36.1823 45.0443 36.1435 44.9951 36.0942C44.9459 36.045 44.9068 35.9864 44.8802 35.9221C44.8536 35.8578 44.8398 35.7891 44.8398 35.7195V34.6394C44.8398 34.4988 44.8957 34.364 44.9951 34.2646C45.0945 34.1653 45.2293 34.1094 45.3698 34.1094C45.439 34.1094 45.5074 34.1231 45.5712 34.1499C45.6349 34.1767 45.6927 34.2158 45.7411 34.2651C45.7895 34.3145 45.8276 34.373 45.8532 34.4373C45.8787 34.5015 45.8912 34.5703 45.8898 34.6394V35.7595C45.8822 35.8922 45.824 36.0168 45.7273 36.1079C45.6306 36.199 45.5027 36.2497 45.3698 36.2495Z" fill="white"/>
</g>
<defs>
<clipPath id="clip0_1080_171873">
<rect width="37.88" height="49.4" fill="white" transform="translate(26 20)"/>
</clipPath>
</defs>
</svg>
