<svg width="100" height="100" viewBox="0 0 100 100" fill="none" xmlns="http://www.w3.org/2000/svg">
<circle cx="50" cy="50" r="50" fill="#F2F6FB"/>
<g clip-path="url(#clip0_1787_394038)">
<path d="M35.15 24.9399H68.26V28.8601H71.72V67.02C71.72 67.02 71.21 76.8 64.72 76.8H37.99V72.8799L35.15 72.55V24.9399Z" fill="white"/>
<path d="M68.26 28.5H71.72V67.1101C71.72 72.2901 68.21 76.49 63.89 76.49H37.99V72.3401" stroke="#333333" stroke-width="1.06" stroke-linecap="round" stroke-linejoin="round"/>
<path d="M59.7 24.52H35.15V72.3401H61.15C61.779 72.2791 62.359 71.9735 62.7649 71.489C63.1708 71.0046 63.3701 70.38 63.32 69.75V66.48H66.05C66.6809 66.4191 67.2625 66.1121 67.6687 65.6255C68.0748 65.1388 68.2729 64.5115 68.22 63.8799V24.53H59.66" stroke="#333333" stroke-width="1.06" stroke-linecap="round" stroke-linejoin="round"/>
<path d="M51.71 58.4301C57.1169 58.4301 61.5 54.047 61.5 48.6401C61.5 43.2332 57.1169 38.8501 51.71 38.8501C46.3031 38.8501 41.92 43.2332 41.92 48.6401C41.92 54.047 46.3031 58.4301 51.71 58.4301Z" fill="#235AB0"/>
<path d="M48.87 54.1701L45.94 48.0401L47.74 47.1701L49.44 50.7201L55.86 44.1401L57.29 45.5401L48.87 54.1701Z" fill="white"/>
<path d="M44.71 72.3999H22.53V76.7499H44.71V72.3999Z" fill="#235AB0"/>
<path d="M23.49 72.7199L24.27 69.3899L26.85 67.6399L30.52 67.5399L30.83 64.7999H32.05V60.4799L30.46 57.1499L28.5 53.9999L28.89 50.1899L32.28 47.9399H34.76L37.4 49.5499L38.76 52.6299L38.1 55.6899L35.31 59.4499L34.78 63.2399L35.22 64.9899H36.62L36.67 67.6999L41.29 67.8199L43.11 69.8899L43.59 72.7199H23.49Z" fill="white"/>
<path d="M45.07 77H22V72.1699H45.07V77ZM23 76H44.07V73.1699H23V76Z" fill="#333333"/>
<path d="M36.12 68.0798H30.95C30.6848 68.0798 30.4304 67.9744 30.2429 67.7869C30.0554 67.5993 29.95 67.3451 29.95 67.0798V65.3398C29.95 65.0746 30.0554 64.8201 30.2429 64.6326C30.4304 64.445 30.6848 64.3398 30.95 64.3398H36.12C36.3852 64.3398 36.6396 64.445 36.8271 64.6326C37.0147 64.8201 37.12 65.0746 37.12 65.3398V67.0798C37.12 67.3451 37.0147 67.5993 36.8271 67.7869C36.6396 67.9744 36.3852 68.0798 36.12 68.0798ZM36.12 65.3599H30.97V67.0798H36.1L36.12 65.3599Z" fill="#333333"/>
<path d="M43.96 72.3999H42.96C42.96 70.0199 41.62 68.0801 39.96 68.0801H27.09C25.44 68.0801 24.09 70.0199 24.09 72.3999H23.09C23.09 69.4699 24.88 67.0801 27.09 67.0801H39.97C42.17 67.0801 43.96 69.4699 43.96 72.3999Z" fill="#333333"/>
<path d="M32.32 65.3003L31.32 65.0703C32.54 59.8403 29.62 57.1303 29.5 57.0203C28.9747 56.495 28.558 55.8714 28.2737 55.1851C27.9895 54.4987 27.8431 53.7631 27.8431 53.0203C27.8431 52.2774 27.9895 51.5418 28.2737 50.8555C28.558 50.1691 28.9747 49.5456 29.5 49.0203C30.0253 48.495 30.6489 48.0782 31.3352 47.7939C32.0215 47.5097 32.7571 47.3633 33.5 47.3633C34.2429 47.3633 34.9785 47.5097 35.6648 47.7939C36.3511 48.0782 36.9747 48.495 37.5 49.0203L36.79 49.7202C35.9188 48.8503 34.7376 48.3621 33.5065 48.363C32.2753 48.364 31.0949 48.8541 30.225 49.7253C29.3551 50.5966 28.8669 51.7776 28.8678 53.0088C28.8688 54.24 29.3588 55.4204 30.23 56.2903C30.37 56.4003 33.71 59.4603 32.32 65.3003Z" fill="#333333"/>
<path d="M34.71 65.3C33.36 59.46 36.71 56.4 36.84 56.3C37.6477 55.4144 38.0823 54.2508 38.0529 53.0525C38.0235 51.8542 37.5325 50.7137 36.6823 49.8687C35.8321 49.0236 34.6884 48.5394 33.4899 48.5173C32.2915 48.4952 31.1307 48.9369 30.25 49.75L29.55 49.05C30.6109 47.9892 32.0497 47.3931 33.55 47.3931C35.0503 47.3931 36.4891 47.9892 37.55 49.05C38.6109 50.1109 39.2068 51.5498 39.2068 53.05C39.2068 54.5503 38.6109 55.9892 37.55 57.05C37.41 57.18 34.55 59.8901 35.71 65.1201L34.71 65.3Z" fill="#333333"/>
</g>
<defs>
<clipPath id="clip0_1787_394038">
<rect width="50.25" height="53.02" fill="white" transform="translate(22 24)"/>
</clipPath>
</defs>
</svg>
