<svg width="100" height="100" viewBox="0 0 100 100" fill="none" xmlns="http://www.w3.org/2000/svg">
<circle cx="50" cy="50" r="50" fill="#F2F6FB"/>
<g clip-path="url(#clip0_1988_380428)">
<path d="M69.58 68.7109H30.5V75.5109H69.58V68.7109Z" fill="#235AB0"/>
<path d="M32.4199 68.7108L33.7199 62.4808L36.6199 60.0508L44.3899 59.5408L44.8399 54.5808H46.8899L47.6699 47.9108L44.5299 40.7608L41.1399 36.3808L41.2799 30.4208L44.8399 25.8708L49.7299 24.3008L54.1099 25.2208L58.4499 29.6008L59.2699 34.8008L57.0499 39.6208L54.6499 42.2608L52.6699 47.2208L52.3999 52.9008L52.9399 54.6808L55.4399 54.9208L55.5799 59.6808L62.1099 59.6108L65.7399 61.7308L67.3499 65.5908L67.6599 68.3008L32.4199 68.7108Z" fill="white"/>
<path d="M70.06 75.8093H30V68.0293H70.06V75.8093ZM31 74.8093H69.06V69.0293H31V74.8093Z" fill="#333333"/>
<path d="M54.9698 60.0505H45.0898C44.8246 60.0505 44.5703 59.9451 44.3827 59.7576C44.1952 59.57 44.0898 59.3158 44.0898 59.0505V55.2305C44.0898 54.9653 44.1952 54.711 44.3827 54.5234C44.5703 54.3359 44.8246 54.2305 45.0898 54.2305H54.9698C55.2351 54.2305 55.4894 54.3359 55.6769 54.5234C55.8645 54.711 55.9698 54.9653 55.9698 55.2305V59.0505C55.9698 59.3158 55.8645 59.57 55.6769 59.7576C55.4894 59.9451 55.2351 60.0505 54.9698 60.0505ZM54.9698 55.2505H45.1098V59.0505H54.9498L54.9698 55.2505Z" fill="#333333"/>
<path d="M68.1009 68.0704H67.1009C67.1009 63.6504 64.5609 60.0704 61.4309 60.0704H38.6309C35.5009 60.0704 32.9609 63.6704 32.9609 68.0704H31.9609C31.9609 63.0704 34.9609 59.0704 38.6309 59.0704H61.4309C65.1109 59.0504 68.1009 63.1004 68.1009 68.0704Z" fill="#333333"/>
<path d="M47.5794 55.2395L46.5794 55.0195C48.7794 45.5095 43.2894 40.4497 43.2394 40.3997C41.4372 38.6002 40.4238 36.1583 40.4219 33.6116C40.42 31.0648 41.4299 28.6217 43.2294 26.8196C45.0289 25.0174 47.4706 24.0038 50.0173 24.002C52.5641 24.0001 55.0072 25.0101 56.8094 26.8096L56.0994 27.5195C54.4882 25.9083 52.303 25.0032 50.0244 25.0032C47.7458 25.0032 45.5606 25.9083 43.9494 27.5195C42.3382 29.1307 41.433 31.3159 41.433 33.5945C41.433 35.8731 42.3382 38.0585 43.9494 39.6697C44.1694 39.8697 49.9194 45.1395 47.5794 55.2395Z" fill="#333333"/>
<path d="M52.49 55.2394C50.14 45.1394 55.89 39.8696 56.13 39.6496C57.7385 38.0357 58.6401 35.8488 58.6363 33.5702C58.6326 31.2917 57.7238 29.108 56.11 27.4994C54.4961 25.8909 52.3094 24.9893 50.0309 24.9931C47.7523 24.9968 45.5685 25.9056 43.96 27.5195L43.25 26.8095C44.1306 25.8728 45.1903 25.1227 46.3664 24.6034C47.5424 24.0841 48.8108 23.8061 50.0963 23.7863C51.3817 23.7665 52.658 24.0051 53.8495 24.488C55.041 24.9708 56.1234 25.688 57.0324 26.5971C57.9415 27.5061 58.6587 28.5885 59.1415 29.7799C59.6243 30.9714 59.8629 32.2477 59.8431 33.5331C59.8233 34.8186 59.5455 36.0871 59.0262 37.2631C58.5069 38.4391 57.7566 39.499 56.82 40.3796C56.75 40.4496 51.26 45.5095 53.46 55.0195L52.49 55.2394Z" fill="#333333"/>
</g>
<defs>
<clipPath id="clip0_1988_380428">
<rect width="40.06" height="51.84" fill="white" transform="translate(30 24)"/>
</clipPath>
</defs>
</svg>
