<svg width="100" height="100" viewBox="0 0 100 100" fill="none" xmlns="http://www.w3.org/2000/svg">
<circle cx="50" cy="50" r="50" fill="#F2F6FB"/>
<g clip-path="url(#clip0_1119_180008)">
<path d="M30.5293 70.1391V50.8091L37.2293 44.8791L34.9893 40.0491L35.8893 34.9591L39.7793 31.3691H42.9593L45.7793 33.0591L48.0493 36.4991L47.6393 42.8791L45.4493 45.3491L50.9793 50.0091L52.9293 48.0191H68.4393L61.5993 61.3691L65.7993 60.7291L69.0893 70.1391H30.5293Z" fill="white"/>
<path d="M52.8906 43.4302V32.7102L54.2806 30.6802L57.5706 30.2402L65.2906 30.4702L67.1406 32.0602V39.3902L65.6006 41.4902L57.2206 41.4402H55.5306L52.8906 43.4302Z" fill="white"/>
<path d="M52.3496 45.1799V33.1799C52.3496 32.3383 52.6833 31.5311 53.2775 30.9351C53.8717 30.339 54.678 30.0026 55.5196 30H64.5196C65.3613 30.0026 66.1675 30.339 66.7617 30.9351C67.356 31.5311 67.6896 32.3383 67.6896 33.1799V38.8C67.7003 39.64 67.3782 40.4502 66.7937 41.0535C66.2091 41.6568 65.4095 42.0042 64.5696 42.02H55.6396L52.3496 45.1799ZM55.5196 31.0601C54.9574 31.0601 54.4181 31.2833 54.0205 31.6809C53.623 32.0785 53.3996 32.6177 53.3996 33.1799V42.6799L55.2196 40.9199H64.5696C65.1319 40.9199 65.6711 40.6966 66.0687 40.2991C66.4663 39.9015 66.6896 39.3623 66.6896 38.8V33.1799C66.6949 32.8982 66.644 32.6183 66.5399 32.3564C66.4357 32.0946 66.2804 31.8561 66.083 31.655C65.8856 31.4539 65.6501 31.2941 65.3903 31.1851C65.1304 31.076 64.8514 31.02 64.5696 31.02L55.5196 31.0601Z" fill="#333333"/>
<path d="M61.53 62.1106H33.9C32.8665 62.108 31.876 61.6962 31.1452 60.9653C30.4144 60.2345 30.0026 59.244 30 58.2104V50.8105L37 44.4404C37.0492 44.3911 37.1077 44.3521 37.172 44.3254C37.2364 44.2988 37.3053 44.2852 37.375 44.2852C37.4447 44.2852 37.5136 44.2988 37.578 44.3254C37.6423 44.3521 37.7008 44.3911 37.75 44.4404C37.799 44.4888 37.8379 44.5466 37.8644 44.6101C37.891 44.6736 37.9046 44.7417 37.9046 44.8105C37.9046 44.8794 37.891 44.9475 37.8644 45.011C37.8379 45.0745 37.799 45.1321 37.75 45.1804L31.1 51.2405V58.1704C31.1026 58.9255 31.4038 59.649 31.9377 60.1829C32.4716 60.7168 33.1949 61.0179 33.95 61.0205H44.6L52.37 47.6704H69.14L61.53 62.1106ZM45.77 61.0205H60.89L67.34 48.7305H52.93L45.77 61.0205Z" fill="#333333"/>
<path d="M69.77 70.7605H30.53C30.3894 70.7605 30.2546 70.7046 30.1552 70.6052C30.0558 70.5058 30 70.371 30 70.2305C30 70.1609 30.0137 70.0919 30.0403 70.0276C30.067 69.9633 30.106 69.9049 30.1552 69.8557C30.2045 69.8065 30.2629 69.7676 30.3272 69.741C30.3915 69.7143 30.4604 69.7004 30.53 69.7004H68.28L65.38 61.3706H61.6C61.5304 61.3706 61.4615 61.3567 61.3972 61.3301C61.3329 61.3034 61.2745 61.2645 61.2252 61.2153C61.176 61.1661 61.137 61.1075 61.1103 61.0432C61.0837 60.9789 61.07 60.9102 61.07 60.8406C61.07 60.7 61.1258 60.5652 61.2252 60.4658C61.3246 60.3664 61.4594 60.3105 61.6 60.3105H66.13L69.77 70.7605Z" fill="#333333"/>
<path d="M58.6797 50.0098L63.0197 54.3398L65.2897 50.0098H58.6797Z" fill="#235AB0"/>
<path d="M40.0709 46.8209L38.6309 52.0509L41.6409 56.7109L44.6609 51.7609L43.0109 46.2109L40.0709 46.8209Z" fill="#235AB0"/>
<path d="M30.53 70.7593C30.3894 70.7593 30.2546 70.7034 30.1552 70.604C30.0558 70.5046 30 70.3698 30 70.2292V57.2292C30 57.1596 30.0137 57.0907 30.0403 57.0264C30.067 56.9621 30.106 56.9037 30.1552 56.8545C30.2045 56.8053 30.2629 56.7664 30.3272 56.7397C30.3915 56.7131 30.4604 56.6992 30.53 56.6992C30.5991 56.6992 30.6676 56.713 30.7313 56.7397C30.7951 56.7665 30.8529 56.8059 30.9013 56.8552C30.9497 56.9046 30.9878 56.9629 31.0133 57.0271C31.0389 57.0913 31.0513 57.1601 31.05 57.2292V70.2292C31.0513 70.2984 31.0389 70.3671 31.0133 70.4314C30.9878 70.4956 30.9497 70.5542 30.9013 70.6035C30.8529 70.6529 30.7951 70.692 30.7313 70.7188C30.6676 70.7455 30.5991 70.7593 30.53 70.7593Z" fill="#333333"/>
<path d="M41.6408 57.9198L38.0508 52.1598L39.6208 46.5799C39.6604 46.4463 39.7502 46.333 39.8714 46.264C39.9925 46.1951 40.1356 46.1757 40.2708 46.2098C40.3388 46.2283 40.4024 46.2603 40.458 46.3036C40.5135 46.3469 40.5599 46.4008 40.5943 46.4623C40.6288 46.5237 40.6506 46.5915 40.6586 46.6615C40.6666 46.7315 40.6605 46.8024 40.6408 46.87L39.1908 51.9999L41.6408 55.9198L44.0908 51.9999L42.6408 46.87C42.621 46.8024 42.615 46.7315 42.623 46.6615C42.6309 46.5915 42.6528 46.5237 42.6872 46.4623C42.7217 46.4008 42.768 46.3469 42.8236 46.3036C42.8792 46.2603 42.9428 46.2283 43.0108 46.2098C43.1459 46.1757 43.2891 46.1951 43.4102 46.264C43.5314 46.333 43.6211 46.4463 43.6608 46.5799L45.2308 52.1598L41.6408 57.9198Z" fill="#333333"/>
<path d="M51.3903 50.6904C51.2571 50.6897 51.1289 50.64 51.0303 50.5505L45.4503 45.3606C45.3531 45.2599 45.2988 45.1255 45.2988 44.9856C45.2988 44.8457 45.3531 44.7113 45.4503 44.6106C45.4995 44.5613 45.558 44.522 45.6223 44.4954C45.6866 44.4687 45.7556 44.4551 45.8253 44.4551C45.8949 44.4551 45.9639 44.4687 46.0283 44.4954C46.0926 44.522 46.1511 44.5613 46.2003 44.6106L51.7803 49.8005C51.8296 49.8498 51.8687 49.9081 51.8953 49.9724C51.922 50.0368 51.9357 50.1059 51.9357 50.1755C51.9357 50.2452 51.922 50.3141 51.8953 50.3784C51.8687 50.4428 51.8296 50.5013 51.7803 50.5505C51.673 50.6454 51.5334 50.6953 51.3903 50.6904Z" fill="#333333"/>
<path d="M41.6406 47.2996C37.7506 47.2996 34.6406 43.5795 34.6406 38.9895C34.6406 34.3995 37.8006 30.6895 41.6406 30.6895C45.4806 30.6895 48.6406 34.4095 48.6406 38.9895C48.6406 43.5695 45.5306 47.2996 41.6406 47.2996ZM41.6406 31.7395C38.3306 31.7395 35.6406 34.9995 35.6406 38.9895C35.6406 42.9795 38.3306 46.2495 41.6406 46.2495C44.9506 46.2495 47.6406 42.9895 47.6406 38.9895C47.6406 34.9895 44.9506 31.7395 41.6406 31.7395Z" fill="#333333"/>
</g>
<defs>
<clipPath id="clip0_1119_180008">
<rect width="39.78" height="40.75" fill="white" transform="translate(30 30)"/>
</clipPath>
</defs>
</svg>
