<svg width="24" height="16" viewBox="0 0 24 16" fill="none" xmlns="http://www.w3.org/2000/svg">
<path d="M0.15 0.65H23.85V15.35H0.15V0.65Z" fill="white" stroke="#DDDDDD" stroke-width="0.3"/>
<path d="M12.0019 3.49902C12.8328 3.49902 13.6451 3.74533 14.3359 4.20684C15.0268 4.66834 15.5653 5.32429 15.8832 6.09174C16.2012 6.85919 16.2844 7.70368 16.1223 8.5184C15.9602 9.33312 15.5601 10.0815 14.9726 10.6689C14.385 11.2562 13.6364 11.6563 12.8215 11.8183C12.0066 11.9804 11.1619 11.8972 10.3942 11.5793C9.62655 11.2614 8.97042 10.7231 8.5088 10.0324C8.04717 9.34173 7.80078 8.52969 7.80078 7.69901C7.80078 6.58509 8.2434 5.51681 9.03127 4.72916C9.81913 3.9415 10.8877 3.49902 12.0019 3.49902Z" fill="#AD0018"/>
</svg>
