<svg width="100" height="100" viewBox="0 0 100 100" fill="none" xmlns="http://www.w3.org/2000/svg">
<circle cx="50" cy="50" r="50" fill="#F2F6FB"/>
<g clip-path="url(#clip0_1856_378785)">
<path d="M26.498 41.4932H73.0023L73.2092 64.6889L76.7257 65.9113L67.2857 75.2949L65.6685 69.7192H29.7042L27.0057 68.7414L26.3945 66.8139L26.498 41.4932Z" fill="white"/>
<path d="M63.1488 48.9023H37.5742V49.8426H63.1488V48.9023Z" fill="#333333"/>
<path d="M63.1488 53.1143H37.5742V54.0545H63.1488V53.1143Z" fill="#333333"/>
<path d="M63.1488 57.3174H37.5742V58.2576H63.1488V57.3174Z" fill="#333333"/>
<path d="M57.8279 61.5293H42.9062V62.4695H57.8279V61.5293Z" fill="#333333"/>
<path d="M26.5 41.4931V33.2848L28.7096 31.4795H70.8982L73.1924 33.1061L73.2112 41.9914L26.5 41.4931Z" fill="#235AB0"/>
<path d="M67.3125 75.991H67.1808C67.097 75.9664 67.021 75.9209 66.96 75.8583C66.8991 75.7957 66.8553 75.7182 66.833 75.6338L63.2789 62.3671C63.2559 62.2827 63.256 62.1934 63.2792 62.1091C63.3023 62.0247 63.3477 61.9482 63.4105 61.8873C63.4729 61.827 63.5499 61.7839 63.634 61.7624C63.7181 61.741 63.8063 61.742 63.89 61.7652L77.1569 65.3196C77.24 65.3425 77.3157 65.3862 77.3767 65.4472C77.4377 65.5082 77.4818 65.584 77.5047 65.6671C77.5287 65.7514 77.5292 65.841 77.5059 65.9256C77.4827 66.0101 77.4368 66.0866 77.3731 66.1469L67.6792 75.85C67.6315 75.8981 67.5741 75.9354 67.5109 75.9597C67.4477 75.984 67.3801 75.9947 67.3125 75.991ZM64.4918 62.9405L67.5945 74.5338L76.0567 66.0716L64.4918 62.9405Z" fill="#333333"/>
<path d="M76.8683 75.8409C76.7413 75.8406 76.6195 75.7895 76.5298 75.6995L71.7064 71.1301C71.6104 71.039 71.5545 70.9139 71.551 70.7816C71.5474 70.6494 71.5966 70.5209 71.6876 70.4249C71.7786 70.3289 71.904 70.2732 72.0363 70.2697C72.1685 70.2662 72.2968 70.315 72.3928 70.4061L77.2162 74.9852C77.2623 75.0306 77.2988 75.0847 77.3238 75.1445C77.3487 75.2042 77.3616 75.2684 77.3616 75.3332C77.3616 75.3979 77.3487 75.4617 77.3238 75.5214C77.2988 75.5811 77.2623 75.6352 77.2162 75.6807C77.1244 75.7757 77.0003 75.8332 76.8683 75.8409Z" fill="#333333"/>
<path d="M73.219 41.9918H26.4984C26.3662 41.9918 26.2394 41.9393 26.146 41.8458C26.0525 41.7524 26 41.6254 26 41.4932C26 41.3611 26.0525 41.2346 26.146 41.1411C26.2394 41.0477 26.3662 40.9951 26.4984 40.9951H73.219C73.3512 40.9951 73.4779 41.0477 73.5714 41.1411C73.6648 41.2346 73.7173 41.3611 73.7173 41.4932C73.7173 41.6254 73.6648 41.7524 73.5714 41.8458C73.4779 41.9393 73.3512 41.9918 73.219 41.9918Z" fill="#333333"/>
<path d="M70.7085 31H29.0088C28.2108 31 27.4455 31.3168 26.8812 31.881C26.317 32.4453 26 33.2105 26 34.0085V66.5033C26.0146 67.4813 26.4096 68.4153 27.1012 69.1069C27.7928 69.7985 28.7266 70.1933 29.7046 70.2078H65.8005C65.9326 70.2078 66.0594 70.1553 66.1528 70.0618C66.2463 69.9684 66.2988 69.8419 66.2988 69.7097C66.2988 69.5775 66.2463 69.4506 66.1528 69.3571C66.0594 69.2637 65.9326 69.2111 65.8005 69.2111H29.7046C28.9864 69.2111 28.2976 68.9261 27.7898 68.4183C27.282 67.9104 26.9967 67.2215 26.9967 66.5033V34.0273C26.9967 33.7631 27.0487 33.5015 27.1498 33.2574C27.2509 33.0133 27.3992 32.7914 27.586 32.6046C27.7729 32.4177 27.9947 32.2695 28.2388 32.1684C28.4829 32.0673 28.7446 32.0151 29.0088 32.0151H70.7085C70.9727 32.0151 71.2344 32.0673 71.4785 32.1684C71.7227 32.2695 71.9445 32.4177 72.1313 32.6046C72.3182 32.7914 72.4664 33.0133 72.5675 33.2574C72.6686 33.5015 72.7206 33.7631 72.7206 34.0273V64.7261C72.7206 64.8583 72.7732 64.9853 72.8666 65.0787C72.9601 65.1722 73.0868 65.2247 73.219 65.2247C73.3512 65.2247 73.4779 65.1722 73.5714 65.0787C73.6648 64.9853 73.7173 64.8583 73.7173 64.7261V34.0273C73.7198 33.6306 73.6438 33.2376 73.4937 32.8704C73.3436 32.5032 73.1224 32.1688 72.8428 31.8874C72.5631 31.6061 72.2306 31.3828 71.8643 31.2305C71.498 31.0781 71.1052 31 70.7085 31Z" fill="#333333"/>
<path d="M31.4062 36.5379C31.4062 36.7239 31.4614 36.9057 31.5647 37.0604C31.668 37.215 31.8149 37.3354 31.9867 37.4065C32.1585 37.4777 32.3476 37.4965 32.53 37.4602C32.7124 37.424 32.8799 37.3342 33.0114 37.2027C33.1429 37.0712 33.2324 36.9039 33.2687 36.7215C33.3049 36.5392 33.2863 36.3502 33.2152 36.1784C33.144 36.0066 33.0235 35.8594 32.8689 35.756C32.7143 35.6527 32.5325 35.5977 32.3465 35.5977C32.0971 35.5977 31.858 35.6968 31.6817 35.8731C31.5053 36.0494 31.4062 36.2885 31.4062 36.5379Z" fill="white"/>
<path d="M37.3504 37.4879C37.8697 37.4879 38.2906 37.0669 38.2906 36.5477C38.2906 36.0284 37.8697 35.6074 37.3504 35.6074C36.8311 35.6074 36.4102 36.0284 36.4102 36.5477C36.4102 37.0669 36.8311 37.4879 37.3504 37.4879Z" fill="white"/>
<path d="M42.3621 37.4879C42.8814 37.4879 43.3024 37.0669 43.3024 36.5477C43.3024 36.0284 42.8814 35.6074 42.3621 35.6074C41.8428 35.6074 41.4219 36.0284 41.4219 36.5477C41.4219 37.0669 41.8428 37.4879 42.3621 37.4879Z" fill="white"/>
</g>
<defs>
<clipPath id="clip0_1856_378785">
<rect width="51.5159" height="45" fill="white" transform="translate(26 31)"/>
</clipPath>
</defs>
</svg>
