<svg width="32" height="32" viewBox="0 0 32 32" fill="none" xmlns="http://www.w3.org/2000/svg">
<path d="M12.1819 12.2007C13.3869 12.2007 14.3638 11.2603 14.3638 10.1003C14.3638 8.94036 13.3869 8 12.1819 8C10.9769 8 10 8.94036 10 10.1003C10 11.2603 10.9769 12.2007 12.1819 12.2007Z" stroke="white" stroke-linejoin="round"/>
<path d="M12.1819 24.8023C13.3869 24.8023 14.3638 23.8619 14.3638 22.7019C14.3638 21.5419 13.3869 20.6016 12.1819 20.6016C10.9769 20.6016 10 21.5419 10 22.7019C10 23.8619 10.9769 24.8023 12.1819 24.8023Z" stroke="white" stroke-linejoin="round"/>
<path d="M19.8186 18.5015C21.0237 18.5015 22.0005 17.5611 22.0005 16.4011C22.0005 15.2411 21.0237 14.3008 19.8186 14.3008C18.6136 14.3008 17.6367 15.2411 17.6367 16.4011C17.6367 17.5611 18.6136 18.5015 19.8186 18.5015Z" stroke="white" stroke-linejoin="round"/>
<path d="M14 11.3242L18.2765 14.8265" stroke="white" stroke-linejoin="round"/>
<path d="M18.2765 18.1523L14 21.6547" stroke="white" stroke-linejoin="round"/>
</svg>
