<svg width="90" height="93" viewBox="0 0 90 93" fill="none" xmlns="http://www.w3.org/2000/svg">
<ellipse cx="45" cy="46.4556" rx="45" ry="45.5522" fill="#FAFAFA"/>
<g clip-path="url(#clip0_1738_334507)">
<path d="M34.1289 38.2V23.21L47.3189 15.63L60.4089 23.21V38.4L47.2689 46.21L34.1289 38.2Z" fill="white"/>
<path d="M47.3211 31.3399C47.2262 31.3427 47.1326 31.3186 47.0511 31.2701L33.8811 23.66C33.8021 23.6144 33.7364 23.5488 33.6908 23.4698C33.6452 23.3908 33.6212 23.3012 33.6211 23.21C33.6204 23.1173 33.644 23.0261 33.6897 22.9454C33.7353 22.8647 33.8013 22.7973 33.8811 22.7501L47.0511 15.14C47.1323 15.0953 47.2234 15.0718 47.3161 15.0718C47.4087 15.0718 47.4999 15.0953 47.5811 15.14L60.7511 22.7501C60.8334 22.7952 60.902 22.8617 60.9495 22.9427C60.9971 23.0237 61.0218 23.1161 61.0211 23.21C61.0211 23.3025 60.9959 23.3932 60.9484 23.4725C60.9008 23.5517 60.8326 23.6165 60.7511 23.66L47.5811 31.2701C47.5029 31.3177 47.4126 31.3419 47.3211 31.3399ZM35.2011 23.21L47.3211 30.21L59.4311 23.21L47.3211 16.21L35.2011 23.21Z" fill="#333333"/>
<path d="M47.3203 18.3499L55.7303 23.21L47.3203 28.0599C48.2606 26.6152 48.7612 24.9286 48.7612 23.2049C48.7612 21.4812 48.2606 19.7946 47.3203 18.3499Z" fill="#235AB0"/>
<path d="M47.3211 46.63L33.6212 38.7201V23.1701C33.6199 23.101 33.6323 23.0322 33.6578 22.9679C33.6833 22.9037 33.7215 22.8452 33.7699 22.7958C33.8183 22.7465 33.8761 22.7073 33.9399 22.6806C34.0036 22.6538 34.072 22.64 34.1411 22.6401C34.2111 22.6387 34.2806 22.6515 34.3456 22.6776C34.4105 22.7038 34.4695 22.7429 34.519 22.7924C34.5684 22.8419 34.6074 22.9008 34.6336 22.9657C34.6597 23.0307 34.6725 23.1001 34.6712 23.1701V38.07L47.3211 45.37L59.9612 38.07V23.1701C59.9612 23.0295 60.017 22.8947 60.1164 22.7953C60.2158 22.6959 60.3506 22.6401 60.4912 22.6401C60.6318 22.6401 60.7665 22.6959 60.8659 22.7953C60.9653 22.8947 61.0212 23.0295 61.0212 23.1701V38.6801L47.3211 46.63Z" fill="#333333"/>
<path d="M47.3191 41.44C47.2492 41.4414 47.1796 41.4286 47.1147 41.4024C47.0498 41.3763 46.9909 41.3371 46.9414 41.2877C46.8919 41.2382 46.8529 41.1792 46.8267 41.1143C46.8005 41.0494 46.7878 40.9799 46.7892 40.91V30.8099C46.7892 30.6693 46.845 30.5345 46.9444 30.4351C47.0438 30.3357 47.1786 30.2801 47.3191 30.2801C47.3883 30.2801 47.4567 30.2939 47.5205 30.3206C47.5842 30.3474 47.642 30.3865 47.6904 30.4359C47.7388 30.4852 47.7769 30.5437 47.8025 30.608C47.828 30.6722 47.8405 30.7408 47.8391 30.8099V40.91C47.8405 40.9791 47.828 41.0479 47.8025 41.1121C47.7769 41.1764 47.7388 41.2349 47.6904 41.2842C47.642 41.3336 47.5842 41.3727 47.5205 41.3995C47.4567 41.4262 47.3883 41.44 47.3191 41.44Z" fill="#333333"/>
<path d="M62.9097 45.7701C62.8181 45.7721 62.7279 45.7477 62.6497 45.7001L59.4397 43.84C59.318 43.7707 59.2287 43.6563 59.1912 43.5213C59.1537 43.3864 59.1712 43.2421 59.2397 43.12C59.3125 42.9993 59.4296 42.9118 59.566 42.8763C59.7024 42.8408 59.8473 42.8602 59.9697 42.93L63.1797 44.7801C63.2997 44.8511 63.3869 44.9662 63.4225 45.1009C63.458 45.2357 63.4391 45.3792 63.3697 45.5001C63.3238 45.5818 63.2569 45.6497 63.1761 45.6971C63.0953 45.7446 63.0034 45.7698 62.9097 45.7701Z" fill="#333333"/>
<path d="M54.1284 50.9199L50.6584 48.9199C50.5368 48.8506 50.4474 48.7359 50.41 48.601C50.3725 48.4661 50.3899 48.322 50.4584 48.1999C50.5294 48.0799 50.6447 47.9928 50.7795 47.9572C50.9142 47.9217 51.0576 47.9406 51.1785 48.01L54.1284 49.7099L66.2484 42.7099L63.8284 41.3198C63.7067 41.2505 63.6174 41.1361 63.5799 41.0012C63.5425 40.8663 63.5599 40.7219 63.6284 40.5998C63.6996 40.4774 63.816 40.388 63.9525 40.3505C64.089 40.3131 64.2348 40.3309 64.3585 40.3999L68.3585 42.7099L54.1284 50.9199Z" fill="#333333"/>
<path d="M57.099 59.17C57.0045 59.1707 56.9113 59.1465 56.829 59.0999L27.979 42.44C27.8591 42.3691 27.7719 42.2537 27.7363 42.119C27.7007 41.9842 27.7197 41.8409 27.789 41.7201C27.8583 41.5984 27.9729 41.509 28.1078 41.4715C28.2427 41.434 28.3869 41.4516 28.509 41.5201L57.359 58.18C57.4807 58.2493 57.57 58.364 57.6075 58.4989C57.645 58.6338 57.6275 58.7779 57.559 58.9C57.5123 58.981 57.4453 59.0485 57.3647 59.0958C57.284 59.1431 57.1925 59.1687 57.099 59.17Z" fill="#333333"/>
<path d="M28.2389 42.5202C28.1697 42.5202 28.1013 42.5064 28.0375 42.4797C27.9738 42.4529 27.916 42.4135 27.8676 42.3642C27.8192 42.3148 27.7811 42.2563 27.7555 42.1921C27.73 42.1278 27.7175 42.0593 27.7188 41.9901V14.55C27.7188 14.412 27.7736 14.2798 27.8711 14.1823C27.9686 14.0848 28.101 14.0302 28.2389 14.0302C28.308 14.0289 28.3766 14.0413 28.4409 14.0668C28.5051 14.0923 28.5637 14.1304 28.613 14.1789C28.6624 14.2273 28.7016 14.285 28.7283 14.3488C28.7551 14.4125 28.7688 14.4808 28.7688 14.55V41.9901C28.7688 42.1307 28.713 42.2655 28.6136 42.3649C28.5142 42.4643 28.3794 42.5202 28.2389 42.5202Z" fill="#333333"/>
<path d="M31.0291 14.0499C30.8878 14.0505 30.7518 13.9969 30.649 13.9L28.2391 11.4901L25.8391 13.9C25.7898 13.9492 25.7314 13.9883 25.6671 14.015C25.6027 14.0416 25.5337 14.0555 25.4641 14.0555C25.3944 14.0555 25.3254 14.0416 25.261 14.015C25.1967 13.9883 25.1383 13.9492 25.0891 13.9C25.0398 13.8507 25.0007 13.7922 24.974 13.7278C24.9473 13.6635 24.9336 13.5946 24.9336 13.525C24.9336 13.4553 24.9473 13.3864 24.974 13.3221C25.0007 13.2577 25.0398 13.1992 25.0891 13.15L28.2391 10.0001L31.399 13.15C31.4483 13.1992 31.4874 13.2577 31.5141 13.3221C31.5408 13.3864 31.5545 13.4553 31.5545 13.525C31.5545 13.5946 31.5408 13.6635 31.5141 13.7278C31.4874 13.7922 31.4483 13.8507 31.399 13.9C31.3 13.9963 31.1672 14.05 31.0291 14.0499Z" fill="#333333"/>
<path d="M57.271 61.8499C57.1402 61.8507 57.0138 61.8033 56.9159 61.7166C56.8181 61.6298 56.7558 61.5098 56.741 61.3799C56.7269 61.2397 56.7681 61.0995 56.8559 60.9893C56.9437 60.879 57.0711 60.8076 57.211 60.7901L60.511 60.44L59.951 58.6099C59.91 58.4746 59.9237 58.3287 59.9892 58.2034C60.0546 58.0781 60.1666 57.9836 60.301 57.94C60.4349 57.902 60.5783 57.9172 60.7013 57.9824C60.8243 58.0477 60.9173 58.1579 60.961 58.2901L61.901 61.3499L57.321 61.8399L57.271 61.8499Z" fill="#333333"/>
<path d="M21.531 46.7701C21.4383 46.7707 21.347 46.7471 21.2663 46.7014C21.1856 46.6558 21.1182 46.5898 21.071 46.51C21.0011 46.3876 20.9819 46.2426 21.0174 46.1062C21.0529 45.9698 21.1403 45.8529 21.261 45.7801L23.831 44.2998C23.9519 44.2305 24.0952 44.2115 24.23 44.2471C24.3648 44.2827 24.4801 44.37 24.551 44.49C24.6209 44.6124 24.6401 44.7572 24.6046 44.8936C24.5691 45.03 24.4817 45.1472 24.361 45.22L21.791 46.7C21.7128 46.7476 21.6226 46.772 21.531 46.7701Z" fill="#333333"/>
<path d="M25.1101 48.75C25.0177 48.75 24.927 48.7248 24.8477 48.6773C24.7685 48.6297 24.7036 48.5616 24.6601 48.48C24.5908 48.3591 24.5718 48.2158 24.6074 48.0811C24.643 47.9463 24.7302 47.831 24.8501 47.76L27.4201 46.2801C27.541 46.2107 27.6844 46.1918 27.8191 46.2273C27.9539 46.2629 28.0692 46.35 28.1401 46.47C28.1758 46.5295 28.1992 46.5956 28.209 46.6643C28.2187 46.733 28.2146 46.8028 28.1969 46.8699C28.1792 46.937 28.1483 47 28.1059 47.055C28.0635 47.1099 28.0105 47.1558 27.9501 47.19L25.3801 48.68C25.2963 48.7229 25.2042 48.7468 25.1101 48.75Z" fill="#333333"/>
<path d="M28.6997 50.72C28.607 50.7207 28.5157 50.697 28.435 50.6514C28.3543 50.6058 28.287 50.5398 28.2397 50.46C28.1712 50.3379 28.1537 50.1935 28.1912 50.0586C28.2287 49.9237 28.318 49.8093 28.4397 49.74L30.9997 48.25C31.1238 48.1836 31.2688 48.1672 31.4046 48.2044C31.5404 48.2416 31.6568 48.3295 31.7297 48.45C31.7956 48.5726 31.8116 48.716 31.7743 48.8501C31.7371 48.9843 31.6494 49.0989 31.5297 49.17L28.9597 50.6499C28.8815 50.6976 28.7913 50.722 28.6997 50.72Z" fill="#333333"/>
<path d="M32.2788 52.7C32.1876 52.6999 32.098 52.6758 32.019 52.6302C31.94 52.5845 31.8744 52.519 31.8288 52.44C31.759 52.3176 31.7397 52.1726 31.7752 52.0362C31.8107 51.8998 31.8981 51.7828 32.0188 51.71L34.5888 50.23C34.7097 50.1607 34.8531 50.1417 34.9878 50.1773C35.1226 50.2128 35.2379 50.3 35.3088 50.42C35.3787 50.5424 35.3979 50.6871 35.3624 50.8235C35.3269 50.9599 35.2395 51.0771 35.1189 51.1499L32.5488 52.6299C32.4669 52.6774 32.3735 52.7017 32.2788 52.7Z" fill="#333333"/>
<path d="M35.8403 54.68C35.7468 54.6787 35.6553 54.6532 35.5746 54.6058C35.494 54.5585 35.427 54.491 35.3803 54.41C35.3118 54.2879 35.2944 54.1438 35.3318 54.0089C35.3693 53.874 35.4586 53.7593 35.5803 53.6901L38.1403 52.2101C38.2627 52.1402 38.4076 52.1209 38.544 52.1564C38.6804 52.1919 38.7975 52.2793 38.8704 52.4C38.9389 52.5221 38.9563 52.6665 38.9188 52.8014C38.8813 52.9363 38.792 53.0507 38.6703 53.12L36.1003 54.61C36.0202 54.653 35.9312 54.6771 35.8403 54.68Z" fill="#333333"/>
<path d="M39.4598 56.65C39.3669 56.6517 39.2752 56.6286 39.1943 56.5828C39.1134 56.5371 39.0462 56.4705 38.9998 56.39C38.9641 56.3305 38.9407 56.2643 38.9309 56.1956C38.9212 56.1269 38.9253 56.0569 38.943 55.9898C38.9607 55.9227 38.9917 55.86 39.0341 55.805C39.0765 55.7501 39.1294 55.7042 39.1898 55.67L41.7598 54.18C41.8819 54.1115 42.0261 54.094 42.161 54.1314C42.2959 54.1689 42.4106 54.2583 42.4798 54.38C42.5492 54.5009 42.5681 54.6441 42.5326 54.7789C42.497 54.9136 42.4098 55.029 42.2898 55.0999L39.7198 56.5799C39.6416 56.6276 39.5514 56.6519 39.4598 56.65Z" fill="#333333"/>
<path d="M43.0402 58.6301C42.9475 58.6307 42.8563 58.6071 42.7755 58.5614C42.6948 58.5158 42.6275 58.4498 42.5802 58.37C42.5112 58.2464 42.4935 58.1008 42.5309 57.9643C42.5683 57.8277 42.6579 57.7112 42.7802 57.6401L45.3402 56.1601C45.4626 56.0902 45.6075 56.0711 45.7439 56.1066C45.8803 56.1421 45.9974 56.2294 46.0702 56.35C46.1392 56.4736 46.1569 56.6195 46.1195 56.756C46.0821 56.8926 45.9926 57.0088 45.8703 57.08L43.3102 58.56C43.2279 58.6066 43.1348 58.6308 43.0402 58.6301Z" fill="#333333"/>
<path d="M46.4988 60.5998C46.4059 60.6016 46.3143 60.5784 46.2334 60.5327C46.1525 60.487 46.0853 60.4203 46.0389 60.3398C46.0032 60.2803 45.9798 60.2144 45.97 60.1457C45.9603 60.077 45.9643 60.007 45.982 59.9399C45.9997 59.8728 46.0307 59.8098 46.0731 59.7549C46.1155 59.6999 46.1685 59.654 46.2289 59.6199L48.8388 58.1699C48.9615 58.104 49.1049 58.088 49.2391 58.1252C49.3732 58.1625 49.4877 58.2501 49.5588 58.3699C49.6282 58.4907 49.6472 58.634 49.6116 58.7688C49.5761 58.9035 49.4889 59.0189 49.3689 59.0898L46.7989 60.5698C46.7047 60.6118 46.5994 60.6223 46.4988 60.5998Z" fill="#333333"/>
<path d="M49.9497 62.5799C49.8562 62.5785 49.7647 62.553 49.6841 62.5056C49.6034 62.4583 49.5365 62.3908 49.4897 62.3098C49.4212 62.1878 49.4037 62.0436 49.4412 61.9087C49.4787 61.7738 49.568 61.6591 49.6897 61.5899L52.2597 60.1099C52.3806 60.0405 52.5239 60.0216 52.6587 60.0572C52.7934 60.0927 52.9088 60.1799 52.9797 60.2998C53.0482 60.4219 53.0656 60.5663 53.0282 60.7012C52.9907 60.8361 52.9014 60.9508 52.7797 61.0201L50.2197 62.51C50.1355 62.5518 50.0436 62.5754 49.9497 62.5799Z" fill="#333333"/>
</g>
<defs>
<clipPath id="clip0_1738_334507">
<rect width="47.36" height="52.58" fill="white" transform="translate(21 10)"/>
</clipPath>
</defs>
</svg>
