<svg width="90" height="90" viewBox="0 0 90 90" fill="none" xmlns="http://www.w3.org/2000/svg">
<circle cx="45" cy="45" r="45" fill="#FAFAFA"/>
<g clip-path="url(#clip0_1080_171906)">
<path d="M34.1309 47.2009V32.2109L47.3209 24.6309L60.4109 32.2109V47.4009L47.2709 55.2109L34.1309 47.2009Z" fill="white"/>
<path d="M47.3191 40.3403C47.2243 40.3431 47.1307 40.319 47.0491 40.2705L33.8791 32.6604C33.8001 32.6148 33.7345 32.5492 33.6889 32.4702C33.6432 32.3912 33.6192 32.3017 33.6192 32.2104C33.6185 32.1177 33.6421 32.0265 33.6877 31.9458C33.7333 31.8651 33.7993 31.7977 33.8791 31.7505L47.0491 24.1404C47.1303 24.0957 47.2214 24.0723 47.3141 24.0723C47.4068 24.0723 47.4979 24.0957 47.5791 24.1404L60.7491 31.7505C60.8314 31.7956 60.9 31.8621 60.9476 31.9431C60.9951 32.0241 61.0198 32.1165 61.0191 32.2104C61.0191 32.3029 60.994 32.3936 60.9464 32.4729C60.8989 32.5522 60.8307 32.6169 60.7491 32.6604L47.5791 40.2705C47.5009 40.3182 47.4107 40.3423 47.3191 40.3403ZM35.1991 32.2104L47.3191 39.2104L59.4292 32.2104L47.3191 25.2104L35.1991 32.2104Z" fill="#333333"/>
<path d="M47.3203 27.3496L55.7303 32.2097L47.3203 37.0596C48.2606 35.6149 48.7612 33.9283 48.7612 32.2046C48.7612 30.4809 48.2606 28.7943 47.3203 27.3496Z" fill="#235AB0"/>
<path d="M47.3192 55.6307L33.6192 47.7208V32.1708C33.6179 32.1016 33.6303 32.0329 33.6559 31.9686C33.6814 31.9044 33.7195 31.8458 33.7679 31.7965C33.8163 31.7471 33.8742 31.708 33.9379 31.6813C34.0017 31.6545 34.0701 31.6407 34.1392 31.6407C34.2092 31.6394 34.2787 31.6522 34.3436 31.6783C34.4085 31.7045 34.4675 31.7436 34.517 31.7931C34.5665 31.8426 34.6055 31.9015 34.6316 31.9664C34.6578 32.0313 34.6706 32.1008 34.6692 32.1708V47.0707L47.3192 54.3707L59.9592 47.0707V32.1708C59.9592 32.0302 60.015 31.8954 60.1144 31.796C60.2138 31.6966 60.3487 31.6407 60.4892 31.6407C60.6298 31.6407 60.7646 31.6966 60.864 31.796C60.9634 31.8954 61.0192 32.0302 61.0192 32.1708V47.6808L47.3192 55.6307Z" fill="#333333"/>
<path d="M47.3191 50.4392C47.2492 50.4406 47.1796 50.4278 47.1147 50.4016C47.0498 50.3755 46.9909 50.3364 46.9414 50.2869C46.8919 50.2374 46.8529 50.1784 46.8267 50.1135C46.8005 50.0486 46.7878 49.9792 46.7892 49.9092V39.8091C46.7892 39.6685 46.845 39.5337 46.9444 39.4343C47.0438 39.3349 47.1786 39.2793 47.3191 39.2793C47.3883 39.2793 47.4567 39.2931 47.5205 39.3198C47.5842 39.3466 47.642 39.3857 47.6904 39.4351C47.7388 39.4844 47.7769 39.5429 47.8025 39.6072C47.828 39.6714 47.8405 39.74 47.8391 39.8091V49.9092C47.8405 49.9783 47.828 50.0471 47.8025 50.1113C47.7769 50.1756 47.7388 50.2341 47.6904 50.2834C47.642 50.3328 47.5842 50.3719 47.5205 50.3987C47.4567 50.4254 47.3883 50.4392 47.3191 50.4392Z" fill="#333333"/>
<path d="M62.9097 54.7706C62.8181 54.7725 62.7279 54.7481 62.6497 54.7005L59.4397 52.8404C59.318 52.7711 59.2287 52.6567 59.1912 52.5218C59.1537 52.3869 59.1712 52.2425 59.2397 52.1204C59.3125 51.9997 59.4296 51.9123 59.566 51.8768C59.7024 51.8413 59.8473 51.8606 59.9697 51.9305L63.1797 53.7806C63.2997 53.8515 63.3869 53.9666 63.4225 54.1014C63.458 54.2361 63.4391 54.3796 63.3697 54.5005C63.3238 54.5822 63.2569 54.6501 63.1761 54.6976C63.0953 54.745 63.0034 54.7702 62.9097 54.7706Z" fill="#333333"/>
<path d="M54.1304 59.9206L50.6604 57.9206C50.5387 57.8513 50.4494 57.7366 50.4119 57.6017C50.3744 57.4668 50.3919 57.3227 50.4604 57.2006C50.5313 57.0806 50.6467 56.9935 50.7814 56.9579C50.9162 56.9223 51.0595 56.9413 51.1804 57.0106L54.1304 58.7106L66.2504 51.7106L63.8304 50.3205C63.7087 50.2512 63.6194 50.1368 63.5819 50.0019C63.5444 49.867 63.5618 49.7226 63.6304 49.6005C63.7015 49.4781 63.8179 49.3886 63.9545 49.3512C64.091 49.3138 64.2368 49.3315 64.3604 49.4005L68.3604 51.7106L54.1304 59.9206Z" fill="#333333"/>
<path d="M57.099 68.1709C57.0045 68.1716 56.9113 68.1474 56.829 68.1009L27.979 51.4409C27.8591 51.37 27.7719 51.2547 27.7363 51.1199C27.7007 50.9851 27.7197 50.8419 27.789 50.721C27.8583 50.5993 27.9729 50.5099 28.1078 50.4724C28.2427 50.435 28.3869 50.4525 28.509 50.521L57.359 67.1809C57.4807 67.2502 57.57 67.3649 57.6075 67.4998C57.645 67.6347 57.6275 67.7788 57.559 67.9009C57.5123 67.9819 57.4453 68.0494 57.3647 68.0967C57.284 68.144 57.1925 68.1696 57.099 68.1709Z" fill="#333333"/>
<path d="M28.2408 51.5194C28.1717 51.5194 28.1032 51.5056 28.0395 51.4789C27.9757 51.4521 27.918 51.4127 27.8695 51.3634C27.8211 51.314 27.783 51.2555 27.7575 51.1913C27.7319 51.127 27.7195 51.0585 27.7208 50.9894V23.5492C27.7208 23.4113 27.7756 23.279 27.8731 23.1815C27.9706 23.084 28.1029 23.0294 28.2408 23.0294C28.3099 23.0281 28.3786 23.0405 28.4428 23.066C28.5071 23.0916 28.5656 23.1297 28.615 23.1781C28.6643 23.2265 28.7035 23.2842 28.7303 23.348C28.757 23.4117 28.7708 23.48 28.7708 23.5492V50.9894C28.7708 51.1299 28.715 51.2647 28.6156 51.3641C28.5162 51.4635 28.3814 51.5194 28.2408 51.5194Z" fill="#333333"/>
<path d="M31.0291 23.0498C30.8878 23.0504 30.7518 22.9968 30.649 22.8999L28.2391 20.49L25.8391 22.8999C25.7898 22.9492 25.7314 22.9882 25.6671 23.0149C25.6027 23.0416 25.5337 23.0554 25.4641 23.0554C25.3944 23.0554 25.3254 23.0416 25.261 23.0149C25.1967 22.9882 25.1383 22.9492 25.0891 22.8999C25.0398 22.8507 25.0007 22.7921 24.974 22.7278C24.9473 22.6634 24.9336 22.5946 24.9336 22.5249C24.9336 22.4552 24.9473 22.3864 24.974 22.322C25.0007 22.2577 25.0398 22.1991 25.0891 22.1499L28.2391 19L31.399 22.1499C31.4483 22.1991 31.4874 22.2577 31.5141 22.322C31.5408 22.3864 31.5545 22.4552 31.5545 22.5249C31.5545 22.5946 31.5408 22.6634 31.5141 22.7278C31.4874 22.7921 31.4483 22.8507 31.399 22.8999C31.3 22.9962 31.1672 23.0499 31.0291 23.0498Z" fill="#333333"/>
<path d="M57.269 70.8503C57.1383 70.8511 57.0118 70.8038 56.914 70.717C56.8161 70.6302 56.7539 70.5103 56.7391 70.3803C56.7249 70.2401 56.7661 70.0999 56.8539 69.9897C56.9417 69.8795 57.0692 69.808 57.209 69.7905L60.509 69.4404L59.949 67.6103C59.9081 67.475 59.9218 67.3291 59.9872 67.2038C60.0527 67.0786 60.1646 66.9841 60.2991 66.9404C60.433 66.9024 60.5764 66.9177 60.6993 66.9829C60.8223 67.0481 60.9153 67.1583 60.959 67.2905L61.899 70.3503L57.319 70.8403L57.269 70.8503Z" fill="#333333"/>
<path d="M21.5291 55.771C21.4364 55.7717 21.3451 55.748 21.2644 55.7024C21.1836 55.6567 21.1163 55.5907 21.069 55.511C20.9992 55.3885 20.98 55.2435 21.0155 55.1071C21.051 54.9708 21.1384 54.8538 21.2591 54.781L23.8291 53.3008C23.9499 53.2314 24.0933 53.2125 24.228 53.248C24.3628 53.2836 24.4782 53.371 24.5491 53.4909C24.6189 53.6133 24.6382 53.7581 24.6027 53.8945C24.5672 54.0309 24.4798 54.1481 24.3591 54.2209L21.7891 55.7009C21.7109 55.7486 21.6206 55.7729 21.5291 55.771Z" fill="#333333"/>
<path d="M25.1101 57.7492C25.0177 57.7492 24.927 57.724 24.8477 57.6765C24.7685 57.6289 24.7036 57.5608 24.6601 57.4792C24.5908 57.3583 24.5718 57.2151 24.6074 57.0803C24.643 56.9455 24.7302 56.8302 24.8501 56.7592L27.4201 55.2793C27.541 55.2099 27.6844 55.191 27.8191 55.2265C27.9539 55.2621 28.0692 55.3492 28.1401 55.4692C28.1758 55.5287 28.1992 55.5948 28.209 55.6635C28.2187 55.7323 28.2146 55.802 28.1969 55.8691C28.1792 55.9362 28.1483 55.9992 28.1059 56.0542C28.0635 56.1091 28.0105 56.155 27.9501 56.1892L25.3801 57.6792C25.2963 57.7221 25.2042 57.746 25.1101 57.7492Z" fill="#333333"/>
<path d="M28.6997 59.7207C28.607 59.7214 28.5157 59.6977 28.435 59.6521C28.3543 59.6065 28.287 59.5405 28.2397 59.4607C28.1712 59.3386 28.1537 59.1942 28.1912 59.0593C28.2287 58.9244 28.318 58.81 28.4397 58.7407L30.9997 57.2507C31.1238 57.1843 31.2688 57.1679 31.4046 57.2051C31.5404 57.2423 31.6568 57.3302 31.7297 57.4507C31.7956 57.5733 31.8116 57.7167 31.7743 57.8508C31.7371 57.985 31.6494 58.0996 31.5297 58.1706L28.9597 59.6506C28.8815 59.6983 28.7913 59.7226 28.6997 59.7207Z" fill="#333333"/>
<path d="M32.2808 61.7004C32.1896 61.7004 32.0999 61.6762 32.021 61.6306C31.942 61.5849 31.8764 61.5194 31.8308 61.4404C31.7609 61.318 31.7417 61.173 31.7772 61.0366C31.8127 60.9002 31.9001 60.7832 32.0208 60.7104L34.5908 59.2304C34.7117 59.1611 34.855 59.1421 34.9898 59.1777C35.1245 59.2133 35.2398 59.3004 35.3107 59.4204C35.3806 59.5428 35.3999 59.6875 35.3644 59.8239C35.3289 59.9603 35.2415 60.0775 35.1208 60.1504L32.5508 61.6303C32.4689 61.6778 32.3755 61.7021 32.2808 61.7004Z" fill="#333333"/>
<path d="M35.8403 63.6797C35.7468 63.6784 35.6553 63.6528 35.5746 63.6055C35.494 63.5582 35.427 63.4907 35.3803 63.4097C35.3118 63.2876 35.2944 63.1435 35.3318 63.0086C35.3693 62.8737 35.4586 62.759 35.5803 62.6897L38.1403 61.2098C38.2627 61.1399 38.4076 61.1206 38.544 61.1561C38.6804 61.1916 38.7975 61.279 38.8704 61.3997C38.9389 61.5218 38.9563 61.6662 38.9188 61.8011C38.8813 61.936 38.792 62.0504 38.6703 62.1197L36.1003 63.6097C36.0202 63.6527 35.9312 63.6768 35.8403 63.6797Z" fill="#333333"/>
<path d="M39.4598 65.6492C39.3669 65.6509 39.2752 65.6278 39.1943 65.5821C39.1134 65.5363 39.0462 65.4697 38.9998 65.3892C38.9641 65.3297 38.9407 65.2636 38.9309 65.1948C38.9212 65.1261 38.9253 65.0561 38.943 64.989C38.9607 64.9219 38.9917 64.8592 39.0341 64.8042C39.0765 64.7493 39.1294 64.7034 39.1898 64.6692L41.7598 63.1792C41.8819 63.1107 42.0261 63.0932 42.161 63.1306C42.2959 63.1681 42.4106 63.2575 42.4798 63.3792C42.5492 63.5001 42.5681 63.6433 42.5326 63.7781C42.497 63.9129 42.4098 64.0282 42.2898 64.0991L39.7198 65.5791C39.6416 65.6268 39.5514 65.6511 39.4598 65.6492Z" fill="#333333"/>
<path d="M43.0402 67.6307C42.9475 67.6314 42.8563 67.6077 42.7755 67.5621C42.6948 67.5165 42.6275 67.4505 42.5802 67.3707C42.5112 67.2471 42.4935 67.1015 42.5309 66.965C42.5683 66.8284 42.6579 66.7119 42.7802 66.6407L45.3402 65.1608C45.4626 65.0909 45.6075 65.0718 45.7439 65.1073C45.8803 65.1428 45.9974 65.23 46.0702 65.3507C46.1392 65.4743 46.1569 65.6202 46.1195 65.7567C46.0821 65.8932 45.9926 66.0095 45.8703 66.0807L43.3102 67.5607C43.2279 67.6072 43.1348 67.6314 43.0402 67.6307Z" fill="#333333"/>
<path d="M46.5008 69.5998C46.4079 69.6015 46.3162 69.5784 46.2353 69.5326C46.1544 69.4869 46.0873 69.4202 46.0408 69.3398C46.0051 69.2802 45.9817 69.2144 45.972 69.1457C45.9622 69.077 45.9663 69.007 45.984 68.9399C46.0017 68.8728 46.0327 68.8097 46.0751 68.7548C46.1174 68.6999 46.1704 68.654 46.2308 68.6198L48.8408 67.1698C48.9634 67.1039 49.1068 67.0879 49.241 67.1252C49.3752 67.1624 49.4897 67.2501 49.5608 67.3698C49.6301 67.4907 49.6491 67.634 49.6136 67.7687C49.578 67.9035 49.4908 68.0188 49.3708 68.0898L46.8008 69.5697C46.7066 69.6117 46.6014 69.6223 46.5008 69.5998Z" fill="#333333"/>
<path d="M49.9497 71.5793C49.8562 71.578 49.7647 71.5524 49.6841 71.5051C49.6034 71.4578 49.5365 71.3903 49.4897 71.3093C49.4212 71.1872 49.4037 71.0431 49.4412 70.9082C49.4787 70.7733 49.568 70.6586 49.6897 70.5893L52.2597 69.1093C52.3806 69.04 52.5239 69.021 52.6587 69.0566C52.7934 69.0922 52.9088 69.1793 52.9797 69.2993C53.0482 69.4214 53.0656 69.5658 53.0282 69.7007C52.9907 69.8356 52.9014 69.9502 52.7797 70.0195L50.2197 71.5095C50.1355 71.5512 50.0436 71.5749 49.9497 71.5793Z" fill="#333333"/>
</g>
<defs>
<clipPath id="clip0_1080_171906">
<rect width="47.36" height="52.58" fill="white" transform="translate(21 19)"/>
</clipPath>
</defs>
</svg>
