<svg width="90" height="90" viewBox="0 0 90 90" fill="none" xmlns="http://www.w3.org/2000/svg">
<circle cx="45" cy="45" r="45" fill="#FAFAFA"/>
<g clip-path="url(#clip0_1283_196208)">
<path d="M33.29 36.0703H26.82L23.1 39.3803L22.34 43.2403V67.4303L28.43 61.4803H51.05L54.58 59.4303L55.91 56.7203L55.97 46.4603L33.29 36.0703Z" fill="#235AB0"/>
<path d="M39.25 21.5303H61.48L65.53 23.4803L67.01 27.5303V52.7603L60.96 47.1003H38.82L35.29 45.3803L33.48 41.3803V26.7203L35.96 22.5303L39.25 21.5303Z" fill="white"/>
<path d="M67.48 54.0298L60.75 47.4897H39.69C37.9112 47.4871 36.206 46.7793 34.9482 45.5215C33.6904 44.2637 32.9826 42.5586 32.98 40.7798V27.6797C32.9826 25.9009 33.6904 24.1958 34.9482 22.938C36.206 21.6802 37.9112 20.9724 39.69 20.9697H60.75C62.5288 20.9724 64.234 21.6802 65.4917 22.938C66.7495 24.1958 67.4573 25.9009 67.46 27.6797L67.48 54.0298ZM39.69 22.0298C38.1915 22.0298 36.7544 22.625 35.6948 23.6846C34.6352 24.7442 34.04 26.1812 34.04 27.6797V40.7798C34.0426 42.2774 34.6387 43.713 35.6977 44.772C36.7568 45.831 38.1923 46.427 39.69 46.4297H61.21L66.42 51.4897V27.6797C66.42 26.9377 66.2738 26.2031 65.9899 25.5176C65.706 24.8321 65.2898 24.2092 64.7651 23.6846C64.2405 23.1599 63.6176 22.7437 62.9321 22.4597C62.2467 22.1758 61.5119 22.0298 60.77 22.0298H39.69Z" fill="#333333"/>
<path d="M22 68.5701V42.25C22.0026 40.4729 22.7091 38.7692 23.9647 37.5117C25.2203 36.2542 26.9229 35.5453 28.7 35.54H33.51C33.6506 35.54 33.7854 35.5959 33.8848 35.6953C33.9842 35.7947 34.04 35.9295 34.04 36.0701C34.04 36.2106 33.9842 36.3454 33.8848 36.4448C33.7854 36.5442 33.6506 36.6001 33.51 36.6001H28.75C27.2523 36.6027 25.8168 37.1988 24.7578 38.2578C23.6988 39.3168 23.1026 40.7523 23.1 42.25V66.0701L28.32 61H49.75C51.2485 61 52.6856 60.4048 53.7452 59.3452C54.8047 58.2856 55.4 56.8486 55.4 55.3501V46.99C55.4 46.8494 55.4558 46.7146 55.5552 46.6152C55.6546 46.5158 55.7894 46.46 55.93 46.46C56.0706 46.46 56.2054 46.5158 56.3048 46.6152C56.4042 46.7146 56.46 46.8494 56.46 46.99V55.3501C56.4574 57.1289 55.7496 58.834 54.4918 60.0918C53.234 61.3496 51.5288 62.0574 49.75 62.0601H28.75L22 68.5701Z" fill="#333333"/>
<path d="M56.01 31.4906H44.45C44.375 31.501 44.2986 31.4951 44.226 31.4735C44.1534 31.4519 44.0863 31.4149 44.0292 31.3651C43.9721 31.3154 43.9263 31.2541 43.895 31.1852C43.8636 31.1162 43.8474 31.0414 43.8474 30.9657C43.8474 30.89 43.8636 30.8149 43.895 30.746C43.9263 30.677 43.9721 30.6158 44.0292 30.566C44.0863 30.5163 44.1534 30.4793 44.226 30.4576C44.2986 30.436 44.375 30.4302 44.45 30.4405H56.01C56.085 30.4302 56.1614 30.436 56.234 30.4576C56.3065 30.4793 56.3736 30.5163 56.4308 30.566C56.4879 30.6158 56.5336 30.677 56.565 30.746C56.5964 30.8149 56.6126 30.89 56.6126 30.9657C56.6126 31.0414 56.5964 31.1162 56.565 31.1852C56.5336 31.2541 56.4879 31.3154 56.4308 31.3651C56.3736 31.4149 56.3065 31.4519 56.234 31.4735C56.1614 31.4951 56.085 31.501 56.01 31.4906Z" fill="#333333"/>
<path d="M56.01 36.6001H44.45C44.3094 36.6001 44.1746 36.5442 44.0752 36.4448C43.9758 36.3454 43.92 36.2106 43.92 36.0701C43.92 35.9295 43.9758 35.7947 44.0752 35.6953C44.1746 35.5959 44.3094 35.54 44.45 35.54H56.01C56.1506 35.54 56.2854 35.5959 56.3848 35.6953C56.4841 35.7947 56.54 35.9295 56.54 36.0701C56.54 36.2106 56.4841 36.3454 56.3848 36.4448C56.2854 36.5442 56.1506 36.6001 56.01 36.6001Z" fill="#333333"/>
</g>
<defs>
<clipPath id="clip0_1283_196208">
<rect width="45.49" height="47.57" fill="white" transform="translate(22 21)"/>
</clipPath>
</defs>
</svg>
