<svg width="100" height="100" viewBox="0 0 100 100" fill="none" xmlns="http://www.w3.org/2000/svg">
<circle cx="50" cy="50" r="50" fill="#F2F6FB"/>
<g clip-path="url(#clip0_1320_213432)">
<path d="M30.5604 61.4604L29.4004 59.1504V57.1804H32.8904L35.4504 52.2404L39.0104 51.3604L39.9604 51.4804L42.1604 51.4904L45.0204 51.3604L47.8204 51.5604L50.6104 51.9804L53.9904 57.1804H56.9704L57.1904 59.5104L55.6604 61.1903L55.7304 69.1703L54.3204 70.5004L51.7604 70.0103L51.0004 67.8703L48.8104 68.2404L35.4504 68.4104L34.7704 70.1404L33.1504 70.7803L30.8404 69.2704L30.5604 61.4604Z" fill="white"/>
<path d="M59.5801 70.6204L59.8101 68.9704L61.7101 67.6904H65.8901L67.6901 69.2704L67.9301 70.6204H59.5801Z" fill="white"/>
<path d="M57.1895 36.81V50.02H59.4295V52.45L60.4395 52.89L67.7495 52.57L67.9295 49.87L70.1195 50.02L70.5295 36.46L57.1895 36.81Z" fill="white"/>
<path d="M67.7297 30.2798C67.6233 30.2779 67.5196 30.2466 67.4297 30.1897C66.3138 29.4884 65.0226 29.1162 63.7047 29.1162C62.3867 29.1162 61.0955 29.4884 59.9797 30.1897C59.8549 30.2686 59.7039 30.295 59.5597 30.2632C59.4155 30.2313 59.2897 30.1439 59.2097 30.0198C59.1693 29.9584 59.1416 29.8894 59.1283 29.8171C59.1149 29.7448 59.1162 29.6707 59.1321 29.5989C59.1479 29.5271 59.178 29.4591 59.2205 29.3992C59.2631 29.3392 59.3172 29.2884 59.3797 29.2498C60.6754 28.4357 62.1745 28.0039 63.7047 28.0039C65.2349 28.0039 66.734 28.4357 68.0297 29.2498C68.0922 29.2884 68.1463 29.3392 68.1889 29.3992C68.2314 29.4591 68.2615 29.5271 68.2773 29.5989C68.2932 29.6707 68.2945 29.7448 68.2811 29.8171C68.2678 29.8894 68.2401 29.9584 68.1997 30.0198C68.1501 30.0997 68.0809 30.1654 67.9986 30.2109C67.9163 30.2565 67.8237 30.2802 67.7297 30.2798Z" fill="#333333"/>
<path d="M65.3403 32.5002C65.2337 32.5 65.1295 32.4686 65.0403 32.4102C64.6416 32.1555 64.1784 32.0203 63.7053 32.0203C63.2322 32.0203 62.769 32.1555 62.3703 32.4102C62.3089 32.4506 62.24 32.4784 62.1677 32.4917C62.0954 32.505 62.0212 32.5036 61.9494 32.4878C61.8776 32.4719 61.8098 32.4419 61.7498 32.3994C61.6898 32.3569 61.639 32.3027 61.6003 32.2402C61.5599 32.1788 61.5322 32.1099 61.5189 32.0376C61.5056 31.9653 61.5069 31.8911 61.5227 31.8193C61.5385 31.7476 61.5686 31.6796 61.6112 31.6196C61.6537 31.5597 61.7078 31.5089 61.7703 31.4702C62.3505 31.1075 63.021 30.915 63.7053 30.915C64.3896 30.915 65.0601 31.1075 65.6403 31.4702C65.7028 31.5089 65.7569 31.5597 65.7995 31.6196C65.842 31.6796 65.8721 31.7476 65.8879 31.8193C65.9038 31.8911 65.9051 31.9653 65.8917 32.0376C65.8784 32.1099 65.8507 32.1788 65.8103 32.2402C65.76 32.3195 65.6907 32.3847 65.6085 32.4302C65.5264 32.4756 65.4342 32.4998 65.3403 32.5002Z" fill="#333333"/>
<path d="M62.5092 47.7205C62.3624 47.7205 62.2215 47.6629 62.1167 47.5601C62.012 47.4572 61.9518 47.3172 61.9492 47.1704V39.2905C61.9492 39.142 62.0082 38.9996 62.1133 38.8945C62.2183 38.7895 62.3607 38.7305 62.5092 38.7305H64.7192C65.051 38.7305 65.3795 38.7958 65.6859 38.9231C65.9923 39.0504 66.2705 39.2371 66.5047 39.4722C66.7388 39.7072 66.9242 39.9861 67.0503 40.293C67.1763 40.5999 67.2405 40.9287 67.2392 41.2605C67.2392 41.5914 67.174 41.9191 67.0474 42.2249C66.9208 42.5306 66.7351 42.8082 66.5011 43.0422C66.2671 43.2762 65.9893 43.462 65.6836 43.5886C65.3778 43.7153 65.0502 43.7805 64.7192 43.7805H63.0792V47.2004C63.0715 47.3446 63.0073 47.4799 62.9007 47.5771C62.7941 47.6744 62.6535 47.7259 62.5092 47.7205ZM63.0592 42.6704H64.7192C65.0932 42.6704 65.4518 42.522 65.7162 42.2576C65.9807 41.9931 66.1292 41.6345 66.1292 41.2605C66.1292 40.8856 65.981 40.5258 65.7169 40.2598C65.4527 39.9937 65.0941 39.843 64.7192 39.8403H63.0792L63.0592 42.6704Z" fill="#333333"/>
<path d="M70.4095 50.49H56.9995C56.8509 50.49 56.7085 50.4309 56.6035 50.3259C56.4984 50.2209 56.4395 50.0785 56.4395 49.9299V36.52C56.4395 36.3715 56.4984 36.229 56.6035 36.124C56.7085 36.019 56.8509 35.96 56.9995 35.96H70.4095C70.558 35.96 70.7004 36.019 70.8054 36.124C70.9105 36.229 70.9695 36.3715 70.9695 36.52V49.9299C70.9695 50.0785 70.9105 50.2209 70.8054 50.3259C70.7004 50.4309 70.558 50.49 70.4095 50.49ZM57.5495 49.3799H69.8595V37.0798H57.5495V49.3799Z" fill="#333333"/>
<path d="M67.0108 53.3599H60.4009C59.9977 53.3599 59.6111 53.1999 59.326 52.9148C59.041 52.6297 58.8809 52.243 58.8809 51.8398V49.9299C58.8809 49.8577 58.8951 49.7862 58.9227 49.7195C58.9504 49.6528 58.9909 49.5921 59.0419 49.541C59.093 49.4899 59.1537 49.4495 59.2204 49.4219C59.2871 49.3942 59.3586 49.3799 59.4309 49.3799C59.5777 49.3799 59.7186 49.4377 59.8233 49.5405C59.9281 49.6434 59.9882 49.7832 59.9909 49.9299V51.8398C59.9909 51.9486 60.0341 52.053 60.1109 52.1299C60.1878 52.2068 60.2921 52.25 60.4009 52.25H67.0108C67.1188 52.2475 67.2216 52.2033 67.298 52.127C67.3743 52.0506 67.4183 51.9478 67.4209 51.8398V49.9299C67.4235 49.7832 67.4836 49.6434 67.5884 49.5405C67.6931 49.4377 67.834 49.3799 67.9809 49.3799C68.1267 49.3799 68.2666 49.4379 68.3698 49.541C68.4729 49.6442 68.5309 49.7841 68.5309 49.9299V51.8398C68.5309 52.243 68.3707 52.6297 68.0857 52.9148C67.8006 53.1999 67.414 53.3599 67.0108 53.3599Z" fill="#333333"/>
<path d="M63.7004 68.4099C63.5536 68.4073 63.4137 68.3472 63.3109 68.2424C63.208 68.1377 63.1504 67.9967 63.1504 67.8499V52.8499C63.1504 52.703 63.208 52.5623 63.3109 52.4575C63.4137 52.3528 63.5536 52.2927 63.7004 52.29C63.8489 52.29 63.9913 52.3488 64.0964 52.4539C64.2014 52.5589 64.2604 52.7013 64.2604 52.8499V67.8499C64.2604 67.9984 64.2014 68.1408 64.0964 68.2458C63.9913 68.3509 63.8489 68.4099 63.7004 68.4099Z" fill="#333333"/>
<path d="M67.9809 71.2498H59.4309C59.3586 71.2498 59.2871 71.2354 59.2204 71.2078C59.1537 71.1801 59.093 71.1397 59.0419 71.0886C58.9909 71.0376 58.9504 70.9769 58.9227 70.9102C58.8951 70.8434 58.8809 70.7719 58.8809 70.6997C58.8809 69.798 59.2391 68.9333 59.8767 68.2957C60.5143 67.658 61.3791 67.2998 62.2809 67.2998H65.1309C66.0326 67.2998 66.8974 67.658 67.535 68.2957C68.1726 68.9333 68.5309 69.798 68.5309 70.6997C68.5309 70.8456 68.4729 70.9855 68.3698 71.0886C68.2666 71.1918 68.1267 71.2498 67.9809 71.2498ZM60.0609 70.1396H67.3509C67.2246 69.6462 66.9381 69.2086 66.5364 68.8955C66.1346 68.5824 65.6402 68.4115 65.1309 68.4097H62.2809C61.7745 68.4142 61.2839 68.5864 60.8858 68.8994C60.4878 69.2124 60.2047 69.6486 60.0809 70.1396H60.0609Z" fill="#333333"/>
<path d="M46.8006 61.04H40.2106C39.5007 61.0411 38.8161 60.7772 38.2906 60.3L37.2305 59.3C37.1791 59.2489 37.1384 59.188 37.1105 59.1211C37.0827 59.0542 37.0684 58.9824 37.0684 58.9099C37.0684 58.8374 37.0827 58.7657 37.1105 58.6987C37.1384 58.6318 37.1791 58.5711 37.2305 58.52C37.281 58.4674 37.3415 58.4253 37.4085 58.3967C37.4755 58.3681 37.5477 58.3535 37.6205 58.3535C37.6934 58.3535 37.7656 58.3681 37.8326 58.3967C37.8996 58.4253 37.9601 58.4674 38.0105 58.52L39.0706 59.52C39.3906 59.811 39.808 59.9715 40.2406 59.97H46.8306C47.2627 59.9696 47.6795 59.8093 48.0005 59.52L49.0506 58.52C49.1567 58.418 49.2983 58.3608 49.4456 58.3608C49.5928 58.3608 49.7344 58.418 49.8405 58.52C49.8932 58.5704 49.9351 58.631 49.9637 58.698C49.9923 58.765 50.007 58.837 50.007 58.9099C50.007 58.9828 49.9923 59.055 49.9637 59.1221C49.9351 59.1891 49.8932 59.2496 49.8405 59.3L48.7906 60.3C48.2473 60.7938 47.5344 61.0589 46.8006 61.04Z" fill="#333333"/>
<path d="M53.4393 66.2004H49.0793C49.0071 66.2004 48.9355 66.1863 48.8688 66.1587C48.8021 66.131 48.7415 66.0904 48.6904 66.0393C48.6393 65.9882 48.5988 65.9276 48.5712 65.8608C48.5435 65.7941 48.5293 65.7226 48.5293 65.6504V64.8904C48.533 64.3889 48.7152 63.9052 49.0432 63.5259C49.3712 63.1465 49.8236 62.8966 50.3193 62.8205L53.3193 62.4004C53.4661 62.3831 53.6138 62.4236 53.7313 62.5132C53.8488 62.6027 53.927 62.7343 53.9493 62.8804C53.9591 62.9527 53.9544 63.0262 53.9355 63.0967C53.9166 63.1672 53.8838 63.2333 53.8392 63.291C53.7945 63.3487 53.7388 63.3969 53.6753 63.4328C53.6118 63.4688 53.5418 63.4918 53.4693 63.5005L50.4693 63.9204C50.2345 63.9609 50.0219 64.084 49.8697 64.2673C49.7176 64.4507 49.6358 64.6822 49.6393 64.9204V65.1203H53.3993C53.5461 65.123 53.686 65.1831 53.7888 65.2878C53.8917 65.3926 53.9493 65.5336 53.9493 65.6804C53.9423 65.8144 53.8866 65.9411 53.7927 66.0369C53.6988 66.1326 53.5731 66.1909 53.4393 66.2004Z" fill="#333333"/>
<path d="M37.6102 66.2001H33.3002C33.1534 66.2001 33.0125 66.1426 32.9077 66.0397C32.803 65.9368 32.7429 65.7968 32.7402 65.65C32.7402 65.5015 32.7992 65.3591 32.9043 65.254C33.0093 65.149 33.1517 65.09 33.3002 65.09H37.0802V64.89C37.0833 64.6503 37.0002 64.4176 36.846 64.234C36.6918 64.0505 36.4769 63.9284 36.2402 63.89L33.2402 63.4701C33.1687 63.4603 33.0997 63.4365 33.0374 63.4C32.975 63.3636 32.9204 63.315 32.8768 63.2575C32.8331 63.1999 32.8013 63.1342 32.783 63.0643C32.7647 62.9945 32.7604 62.9216 32.7702 62.85C32.7902 62.7048 32.8663 62.5733 32.9822 62.4835C33.0981 62.3938 33.2446 62.3529 33.3902 62.37L36.3902 62.7902C36.8877 62.8641 37.3425 63.113 37.6725 63.4926C38.0025 63.8721 38.1862 64.3571 38.1902 64.86V65.62C38.193 65.6969 38.1799 65.7737 38.1518 65.8454C38.1236 65.917 38.081 65.9821 38.0266 66.0365C37.9722 66.0909 37.9071 66.1336 37.8355 66.1618C37.7638 66.1899 37.6871 66.2029 37.6102 66.2001Z" fill="#333333"/>
<path d="M53.5793 71.2501C52.8526 71.2501 52.1557 70.9614 51.6418 70.4476C51.128 69.9337 50.8393 69.2368 50.8393 68.5101V68.2501C50.8393 68.1032 50.8969 67.9622 50.9998 67.8575C51.1026 67.7527 51.2425 67.6926 51.3893 67.69C51.5378 67.69 51.6802 67.749 51.7853 67.8541C51.8903 67.9591 51.9493 68.1015 51.9493 68.2501V68.5101C51.9493 68.7241 51.9914 68.9361 52.0734 69.1338C52.1553 69.3316 52.2753 69.5113 52.4267 69.6626C52.5781 69.814 52.7577 69.934 52.9555 70.0159C53.1533 70.0978 53.3652 70.1399 53.5793 70.1399C53.7933 70.1399 54.0053 70.0978 54.2031 70.0159C54.4008 69.934 54.5805 69.814 54.7319 69.6626C54.8832 69.5113 55.0033 69.3316 55.0852 69.1338C55.1671 68.9361 55.2093 68.7241 55.2093 68.5101V61.0899C55.2085 60.9535 55.2583 60.8217 55.3493 60.72L56.5493 59.42C56.569 59.4041 56.5854 59.3844 56.5974 59.3621C56.6094 59.3398 56.6169 59.3153 56.6193 59.2901V57.8799C56.6193 57.8428 56.6045 57.8073 56.5783 57.7811C56.552 57.7548 56.5164 57.74 56.4793 57.74H53.7593C53.6579 57.7401 53.5585 57.7119 53.472 57.659C53.3855 57.606 53.3154 57.5303 53.2693 57.44L50.9193 52.93C50.738 52.7146 50.5113 52.5419 50.2554 52.4244C49.9995 52.3068 49.7208 52.2473 49.4393 52.2501H37.2893C36.9945 52.2508 36.7038 52.3199 36.4401 52.4517C36.1764 52.5836 35.9468 52.7747 35.7693 53.0101L33.4693 57.44C33.4199 57.5297 33.3475 57.6048 33.2597 57.6575C33.1719 57.7102 33.0717 57.7386 32.9693 57.74H30.2593C30.2212 57.74 30.1845 57.7543 30.1566 57.7803C30.1287 57.8063 30.1118 57.8419 30.1093 57.8799V59.2901C30.1089 59.3096 30.1132 59.3288 30.1219 59.3462C30.1306 59.3637 30.1435 59.3786 30.1593 59.3899L31.3793 60.72C31.4307 60.7711 31.4715 60.8318 31.4993 60.8987C31.5271 60.9657 31.5415 61.0374 31.5415 61.1099C31.5415 61.1824 31.5271 61.2542 31.4993 61.3211C31.4715 61.388 31.4307 61.4489 31.3793 61.5001C31.2743 61.6045 31.1323 61.6631 30.9843 61.6631C30.8362 61.6631 30.6942 61.6045 30.5893 61.5001L29.3993 60.2C29.2821 60.0854 29.189 59.9485 29.1254 59.7974C29.0619 59.6463 29.0292 59.4841 29.0293 59.3201V57.91C29.0319 57.5775 29.1658 57.2596 29.4019 57.0254C29.6379 56.7913 29.9568 56.66 30.2893 56.66H32.6693L34.8593 52.44C35.1401 52.0493 35.5093 51.7305 35.9369 51.5098C36.3644 51.2891 36.8381 51.1726 37.3193 51.17H49.4693C49.9359 51.1673 50.3966 51.2735 50.815 51.48C51.2334 51.6866 51.5978 51.9878 51.8793 52.3599L54.1293 56.66H56.5093C56.8408 56.66 57.1588 56.7918 57.3932 57.0262C57.6276 57.2606 57.7593 57.5784 57.7593 57.91V59.3201C57.7602 59.4914 57.7251 59.6609 57.6562 59.8177C57.5873 59.9745 57.4861 60.1149 57.3593 60.23L56.3593 61.3399V68.5401C56.3554 68.9008 56.2803 69.2571 56.1383 69.5887C55.9964 69.9203 55.7903 70.2204 55.5321 70.4722C55.2738 70.724 54.9683 70.9225 54.6332 71.056C54.2981 71.1894 53.9399 71.2553 53.5793 71.2501Z" fill="#333333"/>
<path d="M33.1599 71.25C32.4332 71.25 31.7363 70.9614 31.2225 70.4475C30.7086 69.9337 30.4199 69.2367 30.4199 68.51V61.0898C30.4199 60.944 30.4779 60.8041 30.581 60.7009C30.6842 60.5978 30.8241 60.54 30.9699 60.54C31.1167 60.54 31.2577 60.5976 31.3624 60.7004C31.4671 60.8033 31.5273 60.9431 31.5299 61.0898V68.51C31.5299 68.7241 31.5721 68.936 31.654 69.1338C31.7359 69.3315 31.856 69.5112 32.0073 69.6626C32.1587 69.814 32.3384 69.934 32.5361 70.0159C32.7339 70.0978 32.9459 70.1399 33.1599 70.1399C33.5914 70.1373 34.0045 69.9648 34.3096 69.6597C34.6147 69.3546 34.7873 68.9415 34.7899 68.51V68.25C34.7886 68.1769 34.8018 68.1043 34.8289 68.0364C34.8559 67.9685 34.8962 67.9066 34.9474 67.8545C34.9986 67.8024 35.0597 67.7609 35.1271 67.7327C35.1945 67.7044 35.2668 67.6899 35.3399 67.6899C35.4884 67.6899 35.6309 67.749 35.7359 67.854C35.8409 67.959 35.8999 68.1015 35.8999 68.25V68.51C35.8999 69.2367 35.6112 69.9337 35.0974 70.4475C34.5835 70.9614 33.8866 71.25 33.1599 71.25Z" fill="#333333"/>
<path d="M53.4402 68.8005H33.3002C33.1534 68.8006 33.0125 68.7428 32.9077 68.6399C32.803 68.537 32.7429 68.3973 32.7402 68.2505C32.7402 68.102 32.7992 67.9595 32.9043 67.8545C33.0093 67.7495 33.1517 67.6904 33.3002 67.6904H53.4402C53.587 67.6931 53.7269 67.7532 53.8298 67.8579C53.9326 67.9626 53.9903 68.1037 53.9902 68.2505C53.9902 68.3964 53.9323 68.5363 53.8291 68.6394C53.726 68.7425 53.5861 68.8005 53.4402 68.8005Z" fill="#333333"/>
<path d="M45.0801 66.2H41.6401C41.4933 66.2 41.3523 66.1424 41.2476 66.0396C41.1429 65.9367 41.0827 65.7967 41.0801 65.6499C41.0801 65.5014 41.1391 65.3589 41.2441 65.2539C41.3491 65.1489 41.4916 65.0898 41.6401 65.0898H45.0801C45.2269 65.0925 45.3667 65.1528 45.4696 65.2576C45.5725 65.3623 45.6301 65.5031 45.6301 65.6499C45.6301 65.7221 45.6159 65.7936 45.5882 65.8604C45.5606 65.9271 45.5201 65.9877 45.469 66.0388C45.4179 66.0899 45.3573 66.1306 45.2906 66.1582C45.2238 66.1858 45.1523 66.2 45.0801 66.2Z" fill="#333333"/>
<path d="M63.7007 34.6299C64.1039 34.6299 64.4307 34.3031 64.4307 33.8999C64.4307 33.4968 64.1039 33.1699 63.7007 33.1699C63.2975 33.1699 62.9707 33.4968 62.9707 33.8999C62.9707 34.3031 63.2975 34.6299 63.7007 34.6299Z" fill="#333333"/>
<path d="M49.4409 53.6797H37.2909C37.1783 53.6811 37.0693 53.7199 36.9809 53.7898L35.2109 57.1797H51.5209L49.7609 53.7898C49.6695 53.7185 49.5569 53.6797 49.4409 53.6797Z" fill="#235AB0"/>
</g>
<defs>
<clipPath id="clip0_1320_213432">
<rect width="41.96" height="43.25" fill="white" transform="translate(29 28)"/>
</clipPath>
</defs>
</svg>
