<svg width="90" height="90" viewBox="0 0 90 90" fill="none" xmlns="http://www.w3.org/2000/svg">
<circle cx="45" cy="45" r="45" fill="#3EA9D6"/>
<g clip-path="url(#clip0_344_56262)">
<path d="M35.9499 64.2391C35.9499 65.6391 34.8199 66.7691 33.4199 66.7691C32.0199 66.7691 30.8899 65.6391 30.8899 64.2391V50.5691C30.8899 49.1691 32.0199 48.0391 33.4199 48.0391C34.8199 48.0391 35.9499 49.1691 35.9499 50.5691V64.2391Z" fill="#3EA9D6" stroke="white" stroke-linecap="round" stroke-linejoin="round"/>
<path d="M60.05 64.2391C60.05 65.6391 58.92 66.7691 57.52 66.7691C56.12 66.7691 54.99 65.6391 54.99 64.2391V50.5691C54.99 49.1691 56.12 48.0391 57.52 48.0391C58.92 48.0391 60.05 49.1691 60.05 50.5691V64.2391Z" fill="#3EA9D6" stroke="white" stroke-linecap="round" stroke-linejoin="round"/>
<path d="M29.98 22.25H60.97C64.13 22.25 66.7 24.82 66.7 27.98V48.36C66.7 51.52 64.13 54.09 60.97 54.09H29.98C26.82 54.09 24.25 51.52 24.25 48.36V27.98C24.25 24.82 26.82 22.25 29.98 22.25Z" fill="#3EA9D6" stroke="white" stroke-linecap="round" stroke-linejoin="round"/>
<path d="M32.26 43.3814L57.54 31.7114L48.98 30.9414" stroke="white" stroke-width="3" stroke-linecap="round" stroke-linejoin="round"/>
</g>
<defs>
<clipPath id="clip0_344_56262">
<rect width="44.95" height="47.02" fill="white" transform="translate(23 21)"/>
</clipPath>
</defs>
</svg>
