<svg width="100" height="100" viewBox="0 0 100 100" fill="none" xmlns="http://www.w3.org/2000/svg">
<circle cx="50" cy="50" r="50" fill="#F2F6FB"/>
<g clip-path="url(#clip0_1102_180980)">
<path d="M63.1381 37.5596H35.0781V71.1996H63.1381V37.5596Z" fill="white"/>
<path d="M58.3284 27.8604H39.6484V37.2504H58.3284V27.8604Z" fill="white"/>
<path d="M43.9219 51.0303H42.9219V52.5503H43.9219V51.0303Z" fill="#235AB0"/>
<path d="M43.9219 46.2803H42.9219V47.7903H43.9219V46.2803Z" fill="#235AB0"/>
<path d="M43.9219 41.7305H42.9219V43.2505H43.9219V41.7305Z" fill="#235AB0"/>
<path d="M49.5391 51.0303H48.5391V52.5503H49.5391V51.0303Z" fill="#235AB0"/>
<path d="M49.5391 46.2803H48.5391V47.7903H49.5391V46.2803Z" fill="#235AB0"/>
<path d="M49.5391 41.7305H48.5391V43.2505H49.5391V41.7305Z" fill="#235AB0"/>
<path d="M55.1016 51.0303H54.1016V52.5503H55.1016V51.0303Z" fill="#235AB0"/>
<path d="M55.1016 46.2803H54.1016V47.7903H55.1016V46.2803Z" fill="#235AB0"/>
<path d="M55.1016 41.7305H54.1016V43.2505H55.1016V41.7305Z" fill="#235AB0"/>
<path d="M43.9219 65.0703H42.9219V66.5903H43.9219V65.0703Z" fill="#235AB0"/>
<path d="M43.9219 60.3203H42.9219V61.8303H43.9219V60.3203Z" fill="#235AB0"/>
<path d="M43.9219 55.7695H42.9219V57.2895H43.9219V55.7695Z" fill="#235AB0"/>
<path d="M49.5391 65.0703H48.5391V66.5903H49.5391V65.0703Z" fill="#235AB0"/>
<path d="M49.5391 60.3203H48.5391V61.8303H49.5391V60.3203Z" fill="#235AB0"/>
<path d="M49.5391 55.7695H48.5391V57.2895H49.5391V55.7695Z" fill="#235AB0"/>
<path d="M55.1303 65.0703H54.0703V66.5903H55.1303V65.0703Z" fill="#235AB0"/>
<path d="M55.1303 60.3203H54.0703V61.8303H55.1303V60.3203Z" fill="#235AB0"/>
<path d="M55.1303 55.7695H54.0703V57.2895H55.1303V55.7695Z" fill="#235AB0"/>
<path d="M57.99 72.2798H36.42C35.7799 72.2798 35.1659 72.0261 34.7123 71.5745C34.2588 71.1228 34.0026 70.5097 34 69.8696V38.6797C34 38.1493 34.2107 37.6407 34.5858 37.2656C34.9609 36.8906 35.4696 36.6797 36 36.6797H62.11C62.6404 36.6797 63.1492 36.8906 63.5242 37.2656C63.8993 37.6407 64.11 38.1493 64.11 38.6797V55.7698C64.11 55.9103 64.0542 56.0451 63.9548 56.1445C63.8554 56.2439 63.7206 56.2998 63.58 56.2998C63.4395 56.2998 63.3046 56.2439 63.2052 56.1445C63.1058 56.0451 63.05 55.9103 63.05 55.7698V38.6797C63.05 38.5615 63.0267 38.4444 62.9815 38.3352C62.9363 38.226 62.87 38.1268 62.7864 38.0432C62.7028 37.9596 62.6036 37.8934 62.4944 37.8481C62.3852 37.8029 62.2682 37.7798 62.15 37.7798H36.04C35.9218 37.7798 35.8048 37.8029 35.6956 37.8481C35.5864 37.8934 35.4872 37.9596 35.4036 38.0432C35.32 38.1268 35.2537 38.226 35.2085 38.3352C35.1633 38.4444 35.14 38.5615 35.14 38.6797V69.8696C35.1427 70.2286 35.2871 70.5721 35.5419 70.825C35.7966 71.0778 36.141 71.2197 36.5 71.2197H58.07C58.1396 71.2197 58.2085 71.2334 58.2728 71.26C58.3371 71.2866 58.3955 71.3258 58.4448 71.375C58.494 71.4242 58.533 71.4826 58.5597 71.5469C58.5863 71.6112 58.6 71.6802 58.6 71.7498C58.6009 71.8266 58.585 71.9028 58.5535 71.9729C58.522 72.043 58.4757 72.1056 58.4177 72.156C58.3596 72.2064 58.2913 72.2435 58.2175 72.2649C58.1436 72.2863 58.066 72.2914 57.99 72.2798Z" fill="#333333"/>
<path d="M58.6905 37.7798C58.6209 37.7798 58.552 37.7661 58.4877 37.7395C58.4234 37.7129 58.365 37.6737 58.3158 37.6245C58.2666 37.5753 58.2275 37.5169 58.2009 37.4526C58.1743 37.3883 58.1605 37.3194 58.1605 37.2498V28.8696C58.1605 28.6548 58.0752 28.4488 57.9233 28.2969C57.7714 28.145 57.5654 28.0598 57.3506 28.0598H40.6905C40.4757 28.0598 40.2697 28.145 40.1178 28.2969C39.9659 28.4488 39.8806 28.6548 39.8806 28.8696V37.2498C39.8806 37.3194 39.8668 37.3883 39.8402 37.4526C39.8136 37.5169 39.7745 37.5753 39.7253 37.6245C39.6761 37.6737 39.6177 37.7129 39.5534 37.7395C39.4891 37.7661 39.4202 37.7798 39.3506 37.7798C39.281 37.7798 39.212 37.7661 39.1477 37.7395C39.0834 37.7129 39.025 37.6737 38.9758 37.6245C38.9266 37.5753 38.8875 37.5169 38.8609 37.4526C38.8343 37.3883 38.8206 37.3194 38.8206 37.2498V28.8696C38.8166 28.6215 38.862 28.3751 38.9542 28.1448C39.0464 27.9144 39.1835 27.7049 39.3575 27.5281C39.5316 27.3512 39.7391 27.2108 39.9679 27.115C40.1968 27.0191 40.4424 26.9697 40.6905 26.9697H57.3005C57.7965 26.9697 58.2721 27.1666 58.6228 27.5173C58.9735 27.868 59.1706 28.3439 59.1706 28.8398V37.2197C59.1789 37.3571 59.1335 37.4924 59.0439 37.5969C58.9544 37.7014 58.8276 37.7671 58.6905 37.7798Z" fill="#333333"/>
<path d="M55.5013 30.7002H42.5312V34.0702H55.5013V30.7002Z" fill="#235AB0"/>
<path d="M56.1602 60.32L58.3402 58.96L59.5802 60.79L57.4502 62.31L56.1602 60.32Z" fill="white"/>
<path d="M52.0783 60.8101C49.8672 60.8074 47.7474 59.9277 46.184 58.3643C44.6205 56.8008 43.7409 54.6811 43.7383 52.47C43.7409 50.2589 44.6205 48.1392 46.184 46.5757C47.7474 45.0122 49.8672 44.1325 52.0783 44.1299C54.2894 44.1325 56.4092 45.0122 57.9727 46.5757C59.5361 48.1392 60.4157 50.2589 60.4183 52.47C60.4157 54.6811 59.5361 56.8008 57.9727 58.3643C56.4092 59.9277 54.2894 60.8074 52.0783 60.8101ZM52.0783 46.1299C50.3968 46.1299 48.7842 46.7978 47.5952 47.9868C46.4063 49.1758 45.7383 50.7885 45.7383 52.47C45.7383 54.1514 46.4063 55.7641 47.5952 56.9531C48.7842 58.1421 50.3968 58.8101 52.0783 58.8101C53.759 58.8074 55.37 58.1386 56.5584 56.9502C57.7468 55.7618 58.4157 54.1506 58.4183 52.47C58.4157 50.7893 57.7468 49.1782 56.5584 47.9897C55.37 46.8013 53.759 46.1325 52.0783 46.1299Z" fill="white"/>
<path d="M56.6914 62.7098L60.4114 60.3398L67.6614 70.9098L64.0814 73.4698L56.6914 62.7098Z" fill="#235AB0"/>
<path d="M52.0917 61.64C51.5453 61.6429 50.9997 61.5961 50.4617 61.5001C49.2708 61.2907 48.133 60.848 47.1136 60.1976C46.0943 59.5472 45.2134 58.7018 44.5217 57.71C43.8295 56.7191 43.3397 55.6014 43.0806 54.4207C42.8215 53.2401 42.7981 52.0199 43.0117 50.8302C43.2197 49.6401 43.6618 48.5031 44.3124 47.4852C44.963 46.4673 45.8091 45.5885 46.8017 44.9C48.8015 43.5025 51.2745 42.9567 53.6768 43.3824C56.0791 43.8081 58.2139 45.1704 59.6117 47.17C61.0092 49.1698 61.5551 51.6427 61.1294 54.045C60.7037 56.4473 59.3413 58.5822 57.3417 59.9801C55.8048 61.0617 53.971 61.6414 52.0917 61.64ZM52.0917 44.2401C50.4134 44.2393 48.7756 44.7561 47.4017 45.72C46.5177 46.3358 45.7641 47.1201 45.1841 48.0279C44.604 48.9357 44.209 49.9492 44.0217 51.0101C43.8318 52.071 43.8542 53.159 44.0877 54.2113C44.3211 55.2635 44.761 56.2589 45.3817 57.14C46.6311 58.9163 48.5341 60.1246 50.6731 60.4996C52.8122 60.8745 55.0127 60.3855 56.7917 59.14C58.5681 57.8906 59.7762 55.9878 60.1512 53.8487C60.5261 51.7096 60.0372 49.5091 58.7917 47.7301C58.0336 46.6497 57.0259 45.7683 55.8543 45.1607C54.6826 44.5531 53.3816 44.2372 52.0617 44.2401H52.0917Z" fill="#333333"/>
<path d="M52.0812 58.9703C51.6957 58.9713 51.3108 58.9378 50.9312 58.8702C50.0919 58.7218 49.2904 58.4085 48.573 57.9485C47.8555 57.4885 47.2363 56.891 46.7512 56.1902C45.7768 54.7824 45.3982 53.0466 45.6979 51.3609C45.9976 49.6751 46.9512 48.176 48.3512 47.1902C49.7611 46.2194 51.497 45.8441 53.1821 46.1456C54.8672 46.447 56.3653 47.401 57.3512 48.8003C57.8402 49.4984 58.1865 50.2861 58.3701 51.1185C58.5537 51.9508 58.5711 52.8112 58.4212 53.6502C58.2712 54.4889 57.9573 55.2899 57.4974 56.0071C57.0376 56.7244 56.4408 57.344 55.7412 57.8304C54.6657 58.5742 53.3888 58.9719 52.0812 58.9703ZM52.0812 46.9703C50.9594 46.971 49.8656 47.3205 48.9512 47.9703C47.7605 48.8052 46.949 50.0778 46.6941 51.5096C46.4392 52.9413 46.7618 54.4156 47.5912 55.6102C48.002 56.2027 48.5266 56.7078 49.1343 57.0958C49.742 57.4837 50.4208 57.7469 51.1312 57.8702C51.8401 57.9997 52.5677 57.9871 53.2717 57.8326C53.9756 57.6781 54.6417 57.3849 55.2312 56.9703C55.8222 56.5578 56.326 56.0328 56.7138 55.4253C57.1016 54.8179 57.3658 54.1399 57.4912 53.4302C57.6207 52.7213 57.6079 51.9938 57.4534 51.2898C57.2989 50.5859 57.0058 49.9199 56.5912 49.3304C56.0839 48.5993 55.4065 48.0025 54.6174 47.5914C53.8282 47.1802 52.951 46.9671 52.0612 46.9703H52.0812Z" fill="#333333"/>
<path d="M57.3086 62.9697L55.3086 60.0996L58.1786 58.0996L60.1786 60.9697L57.3086 62.9697ZM56.6986 60.3496L57.5586 61.5798L58.7786 60.7197L57.9286 59.4897L56.6986 60.3496Z" fill="#333333"/>
<path d="M64.0593 73.9097C63.9217 73.9078 63.7865 73.8734 63.6648 73.8091C63.5431 73.7448 63.4385 73.6524 63.3594 73.5398L56.3594 63.4897C56.2944 63.398 56.2483 63.2942 56.2237 63.1846C56.1991 63.0749 56.1965 62.9615 56.2161 62.8508C56.2356 62.7402 56.2769 62.6346 56.3375 62.54C56.3982 62.4454 56.477 62.3638 56.5694 62.2998L59.7894 60.0498C59.9759 59.9205 60.2059 59.8701 60.4293 59.9097C60.6507 59.9516 60.8476 60.077 60.9794 60.2598L67.9794 70.3098C68.1086 70.4963 68.1589 70.7263 68.1193 70.9497C68.0774 71.1711 67.9521 71.368 67.7693 71.4998L64.5394 73.7498C64.4002 73.8524 64.2322 73.9083 64.0593 73.9097ZM57.2493 63.0398L64.0994 72.8496L67.0994 70.7598L60.2493 60.9597L57.2493 63.0398Z" fill="#333333"/>
</g>
<defs>
<clipPath id="clip0_1102_180980">
<rect width="34.14" height="46.91" fill="white" transform="translate(34 27)"/>
</clipPath>
</defs>
</svg>
