<svg width="90" height="90" viewBox="0 0 90 90" fill="none" xmlns="http://www.w3.org/2000/svg">
<circle cx="45" cy="45" r="45" fill="#FFE3E3"/>
<g clip-path="url(#clip0_1800_397290)">
<path d="M20.3496 36.22L66.5596 35.37L66.8196 58.66L64.1896 62.7L24.4596 63.05L20.3496 59.69V36.22Z" fill="white"/>
<path d="M25.2403 26.39L62.9803 26.53L66.2403 28.93L66.8203 31.35V35.79L43.6503 49.86L20.2803 35.37L20.6603 29.87L23.4803 26.73L25.2403 26.39Z" fill="#235AB0"/>
<path d="M61.7698 63.7401H25.5398C24.0749 63.7401 22.6698 63.1588 21.633 62.1238C20.5962 61.0889 20.0124 59.6849 20.0098 58.22V31.5301C20.0124 30.0643 20.5959 28.6591 21.6324 27.6226C22.6689 26.5861 24.074 26.0027 25.5398 26.0001H61.7798C63.2456 26.0027 64.6507 26.5861 65.6872 27.6226C66.7237 28.6591 67.3072 30.0643 67.3098 31.5301V58.22C67.3085 58.9462 67.1641 59.6651 66.885 60.3355C66.6059 61.0059 66.1975 61.6147 65.683 62.1273C65.1686 62.6398 64.5582 63.0461 63.8868 63.3228C63.2153 63.5995 62.496 63.7414 61.7698 63.7401ZM25.5398 27.0599C24.3543 27.0599 23.2173 27.5309 22.379 28.3692C21.5407 29.2075 21.0698 30.3446 21.0698 31.5301V58.22C21.0725 59.4038 21.5446 60.5382 22.3826 61.3743C23.2206 62.2105 24.356 62.68 25.5398 62.68H61.7798C62.9636 62.68 64.099 62.2105 64.937 61.3743C65.775 60.5382 66.2472 59.4038 66.2498 58.22V31.5301C66.2498 30.3446 65.7788 29.2075 64.9406 28.3692C64.1023 27.5309 62.9653 27.0599 61.7798 27.0599H25.5398Z" fill="#333333"/>
<path d="M35.5525 44.6213L20.3047 55.4814L20.8848 56.296L36.1327 45.4358L35.5525 44.6213Z" fill="#333333"/>
<path d="M51.5587 44.6729L50.9785 45.4874L66.2263 56.3475L66.8065 55.533L51.5587 44.6729Z" fill="#333333"/>
<path d="M43.6496 50.57L20.3496 36.22L20.8696 35.37L43.6496 49.4L66.5596 35.37L67.0796 36.22L43.6496 50.57Z" fill="#333333"/>
<path d="M35.5506 45.1023L20.3027 55.9624L20.8829 56.7769L36.1307 45.9168L35.5506 45.1023Z" fill="#333333"/>
<path d="M66.8202 64.17C72.4093 64.17 76.9402 59.6391 76.9402 54.05C76.9402 48.4609 72.4093 43.93 66.8202 43.93C61.2311 43.93 56.7002 48.4609 56.7002 54.05C56.7002 59.6391 61.2311 64.17 66.8202 64.17Z" fill="#EF1B1B"/>
<path d="M66.8202 64.67C64.7198 64.67 62.6665 64.0471 60.92 62.8802C59.1736 61.7132 57.8124 60.0546 57.0086 58.1141C56.2048 56.1735 55.9945 54.0382 56.4043 51.9781C56.814 49.918 57.8255 48.0258 59.3107 46.5406C60.7959 45.0553 62.6882 44.0439 64.7483 43.6341C66.8084 43.2243 68.9438 43.4345 70.8843 44.2383C72.8249 45.0421 74.4835 46.4033 75.6504 48.1497C76.8174 49.8962 77.4402 51.9494 77.4402 54.0499C77.4376 56.8656 76.3178 59.5654 74.3268 61.5564C72.3357 63.5475 69.636 64.6673 66.8202 64.67ZM66.8202 44.43C64.9176 44.43 63.0576 44.9943 61.4756 46.0513C59.8936 47.1084 58.6606 48.6106 57.9325 50.3685C57.2044 52.1263 57.0139 54.0607 57.385 55.9268C57.7562 57.7929 58.6725 59.507 60.0179 60.8523C61.3632 62.1977 63.0774 63.114 64.9435 63.4852C66.8096 63.8563 68.7438 63.6659 70.5016 62.9378C72.2594 62.2097 73.7619 60.9766 74.8189 59.3946C75.876 57.8126 76.4402 55.9525 76.4402 54.0499C76.4402 51.4975 75.427 49.0496 73.6231 47.2439C71.8193 45.4383 69.3725 44.4226 66.8202 44.42V44.43Z" fill="#333333"/>
<path d="M63.54 58.2701C63.5109 58.3185 63.4699 58.3585 63.4209 58.3865C63.3719 58.4145 63.3165 58.4295 63.26 58.43C63.1476 58.4271 63.039 58.3885 62.95 58.3199C62.8636 58.2702 62.7966 58.1927 62.76 58.0999C62.7467 58.048 62.7481 57.9934 62.764 57.9422C62.7799 57.891 62.8097 57.8452 62.85 57.8099L69.77 49.8099C69.8068 49.7686 69.8513 49.735 69.901 49.711C69.9508 49.687 70.0049 49.6731 70.06 49.67C70.1681 49.6707 70.2731 49.7058 70.36 49.7701C70.452 49.8226 70.5201 49.9085 70.55 50.0101C70.5628 50.0581 70.5621 50.1087 70.548 50.1563C70.5339 50.2039 70.5069 50.2468 70.47 50.2801L63.54 58.2701ZM63.11 50.2701C63.0731 50.2368 63.0461 50.1939 63.032 50.1463C63.0179 50.0987 63.0172 50.0481 63.03 50.0001C63.06 49.8985 63.1281 49.8125 63.22 49.7601C63.3069 49.6958 63.4119 49.6607 63.52 49.66C63.5752 49.6631 63.6292 49.677 63.679 49.701C63.7288 49.725 63.7733 49.7586 63.81 49.7999L70.73 57.7999C70.7679 57.837 70.7959 57.883 70.8116 57.9337C70.8273 57.9843 70.8302 58.0379 70.82 58.0899C70.7835 58.1826 70.7165 58.2602 70.63 58.3099C70.541 58.3785 70.4324 58.4171 70.32 58.42C70.2636 58.4195 70.2082 58.4045 70.1592 58.3765C70.1101 58.3485 70.0691 58.3085 70.04 58.2601L63.11 50.2701Z" fill="white" stroke="white" stroke-width="0.5" stroke-miterlimit="10"/>
</g>
<defs>
<clipPath id="clip0_1800_397290">
<rect width="57.44" height="38.67" fill="white" transform="translate(20 26)"/>
</clipPath>
</defs>
</svg>
