<svg width="100" height="100" viewBox="0 0 100 100" fill="none" xmlns="http://www.w3.org/2000/svg">
<circle cx="50" cy="50" r="50" fill="#F2F6FB"/>
<g clip-path="url(#clip0_1087_175278)">
<path d="M27.5293 35.4609L72.3593 35.5809V38.3609L69.2993 40.1209L69.3793 43.7309L72.1993 45.0809L72.3593 46.8409L69.4193 48.6909V51.4309L71.0193 53.5009H72.3593V55.9609L69.4193 57.3009L69.2993 59.6109L70.4793 61.9109L72.3593 62.2609V65.3709H27.5293V35.4609Z" fill="white"/>
<path d="M39.1091 35.8809H27.7891V65.3709H39.1091V35.8809Z" fill="#235AB0"/>
<path d="M53.2504 56.6699C52.3415 56.6673 51.4706 56.305 50.8279 55.6624C50.1852 55.0197 49.823 54.1489 49.8203 53.24C49.8203 53.0994 49.8762 52.9646 49.9756 52.8652C50.075 52.7658 50.2098 52.71 50.3503 52.71C50.4909 52.71 50.6257 52.7658 50.7251 52.8652C50.8245 52.9646 50.8803 53.0994 50.8803 53.24C50.8803 53.8686 51.1301 54.4713 51.5745 54.9158C52.019 55.3602 52.6218 55.6101 53.2504 55.6101C53.8789 55.6101 54.4817 55.3602 54.9262 54.9158C55.3707 54.4713 55.6204 53.8686 55.6204 53.24C55.6204 52.11 54.9103 51.4301 53.0903 50.8401C52.2803 50.5801 49.8203 49.7699 49.8203 47.4299C49.823 46.5211 50.1852 45.6502 50.8279 45.0076C51.4706 44.3649 52.3415 44.0026 53.2504 44C54.1592 44.0026 55.0301 44.3649 55.6728 45.0076C56.3155 45.6502 56.6777 46.5211 56.6804 47.4299C56.6817 47.4999 56.6689 47.5696 56.6428 47.6345C56.6166 47.6994 56.5776 47.7584 56.5281 47.8079C56.4786 47.8573 56.4197 47.8962 56.3547 47.9224C56.2898 47.9485 56.2203 47.9613 56.1503 47.96C56.0098 47.96 55.875 47.9041 55.7756 47.8047C55.6762 47.7053 55.6204 47.5705 55.6204 47.4299C55.6177 46.8022 55.3672 46.201 54.9233 45.7571C54.4794 45.3132 53.8781 45.0627 53.2504 45.0601C52.6226 45.0627 52.0213 45.3132 51.5774 45.7571C51.1335 46.201 50.8829 46.8022 50.8803 47.4299C50.8803 48.5199 51.6603 49.2601 53.4203 49.8301C55.1803 50.4001 56.6804 51.18 56.6804 53.24C56.6777 54.1489 56.3155 55.0197 55.6728 55.6624C55.0301 56.305 54.1592 56.6673 53.2504 56.6699Z" fill="#333333"/>
<path d="M53.2507 45.0808C53.1102 45.0808 52.9753 45.0249 52.8759 44.9255C52.7765 44.8261 52.7207 44.6913 52.7207 44.5508V42.9207C52.7207 42.7801 52.7765 42.6453 52.8759 42.5459C52.9753 42.4465 53.1102 42.3906 53.2507 42.3906C53.3913 42.3906 53.5261 42.4465 53.6255 42.5459C53.7249 42.6453 53.7807 42.7801 53.7807 42.9207V44.5107C53.7862 44.5836 53.7766 44.6568 53.7524 44.7258C53.7283 44.7948 53.6902 44.8581 53.6404 44.9116C53.5906 44.9652 53.5303 45.0078 53.4632 45.0369C53.3961 45.066 53.3238 45.081 53.2507 45.0808Z" fill="#333333"/>
<path d="M53.2507 58.3093C53.1102 58.3093 52.9753 58.2534 52.8759 58.1541C52.7765 58.0547 52.7207 57.9199 52.7207 57.7793V56.1392C52.7207 55.9986 52.7765 55.8638 52.8759 55.7644C52.9753 55.665 53.1102 55.6094 53.2507 55.6094C53.3913 55.6094 53.5261 55.665 53.6255 55.7644C53.7249 55.8638 53.7807 55.9986 53.7807 56.1392V57.7793C53.7807 57.9199 53.7249 58.0547 53.6255 58.1541C53.5261 58.2534 53.3913 58.3093 53.2507 58.3093Z" fill="#333333"/>
<path d="M72.89 65.6899H27V35H72.89V39H72.36C71.6456 39.0026 70.9615 39.2884 70.4573 39.7944C69.9531 40.3005 69.67 40.9856 69.67 41.7C69.6726 42.4126 69.9569 43.0952 70.4608 43.5991C70.9647 44.103 71.6474 44.3873 72.36 44.3899H72.89V47.6499H72.36C71.6456 47.6525 70.9615 47.9383 70.4573 48.4443C69.9531 48.9504 69.67 49.6357 69.67 50.3501C69.6726 51.0627 69.9569 51.7454 70.4608 52.2493C70.9647 52.7532 71.6474 53.0374 72.36 53.04H72.89V56.3H72.36C71.6456 56.3027 70.9615 56.5882 70.4573 57.0942C69.9531 57.6003 69.67 58.2856 69.67 59C69.6726 59.7126 69.9569 60.3953 70.4608 60.8992C70.9647 61.4031 71.6474 61.6873 72.36 61.6899H72.89V65.6899ZM28.06 64.6301H71.83V62.71C70.9375 62.5805 70.1214 62.1346 69.5303 61.4536C68.9393 60.7726 68.6126 59.9018 68.61 59C68.6102 58.0965 68.9358 57.2234 69.5271 56.5403C70.1184 55.8572 70.9358 55.4098 71.83 55.28V54.0601C70.9375 53.9306 70.1214 53.4845 69.5303 52.8035C68.9393 52.1224 68.6126 51.2519 68.61 50.3501C68.6102 49.4466 68.9358 48.5732 69.5271 47.8901C70.1184 47.207 70.9358 46.7599 71.83 46.6301V45.4099C70.9375 45.2804 70.1214 44.8346 69.5303 44.1536C68.9393 43.4725 68.6126 42.6017 68.61 41.7C68.6102 40.7965 68.9358 39.9233 69.5271 39.2402C70.1184 38.5571 70.9358 38.1097 71.83 37.98V36.0601H28.06V64.6301Z" fill="#333333"/>
<path d="M38.5905 61.9099C38.5209 61.9099 38.452 61.8963 38.3877 61.8696C38.3234 61.843 38.265 61.8041 38.2158 61.7549C38.1665 61.7057 38.1275 61.6471 38.1009 61.5828C38.0743 61.5185 38.0605 61.4497 38.0605 61.3801V58.28C38.0605 58.1395 38.1164 58.0047 38.2158 57.9053C38.3152 57.8059 38.45 57.75 38.5905 57.75C38.7311 57.75 38.8659 57.8059 38.9653 57.9053C39.0647 58.0047 39.1205 58.1395 39.1205 58.28V61.3801C39.1205 61.4497 39.1068 61.5185 39.0802 61.5828C39.0536 61.6471 39.0145 61.7057 38.9653 61.7549C38.9161 61.8041 38.8576 61.843 38.7933 61.8696C38.729 61.8963 38.6601 61.9099 38.5905 61.9099Z" fill="#333333"/>
<path d="M38.5905 55.5898C38.45 55.5898 38.3152 55.534 38.2158 55.4346C38.1164 55.3352 38.0605 55.2004 38.0605 55.0598V51.9597C38.0605 51.8192 38.1164 51.6844 38.2158 51.585C38.3152 51.4856 38.45 51.4297 38.5905 51.4297C38.7311 51.4297 38.8659 51.4856 38.9653 51.585C39.0647 51.6844 39.1205 51.8192 39.1205 51.9597V55.0598C39.1205 55.2004 39.0647 55.3352 38.9653 55.4346C38.8659 55.534 38.7311 55.5898 38.5905 55.5898Z" fill="#333333"/>
<path d="M38.5905 49.2595C38.5209 49.2595 38.452 49.2459 38.3877 49.2192C38.3234 49.1926 38.265 49.1535 38.2158 49.1042C38.1665 49.055 38.1275 48.9967 38.1009 48.9324C38.0743 48.8681 38.0605 48.7991 38.0605 48.7295V45.6296C38.0605 45.4891 38.1164 45.354 38.2158 45.2546C38.3152 45.1552 38.45 45.0996 38.5905 45.0996C38.7311 45.0996 38.8659 45.1552 38.9653 45.2546C39.0647 45.354 39.1205 45.4891 39.1205 45.6296V48.7295C39.1205 48.7991 39.1068 48.8681 39.0802 48.9324C39.0536 48.9967 39.0145 49.055 38.9653 49.1042C38.9161 49.1535 38.8576 49.1926 38.7933 49.2192C38.729 49.2459 38.6601 49.2595 38.5905 49.2595Z" fill="#333333"/>
<path d="M38.5905 42.9392C38.45 42.9392 38.3152 42.8833 38.2158 42.7839C38.1164 42.6845 38.0605 42.5497 38.0605 42.4092V39.3093C38.0605 39.1688 38.1164 39.034 38.2158 38.9346C38.3152 38.8352 38.45 38.7793 38.5905 38.7793C38.7311 38.7793 38.8659 38.8352 38.9653 38.9346C39.0647 39.034 39.1205 39.1688 39.1205 39.3093V42.4092C39.1205 42.5497 39.0647 42.6845 38.9653 42.7839C38.8659 42.8833 38.7311 42.9392 38.5905 42.9392Z" fill="#333333"/>
</g>
<defs>
<clipPath id="clip0_1087_175278">
<rect width="45.89" height="30.69" fill="white" transform="translate(27 35)"/>
</clipPath>
</defs>
</svg>
