<svg width="100" height="100" viewBox="0 0 100 100" fill="none" xmlns="http://www.w3.org/2000/svg">
<circle cx="50" cy="50" r="50" fill="#F2F6FB"/>
<g clip-path="url(#clip0_1928_379607)">
<path d="M25.7368 35.8164H58.2373V76.9039H28.8672L26.8185 75.7743L25.4688 73.18L25.7368 35.8164Z" fill="white"/>
<path d="M50.8475 29.3458H56.9455L63.9147 23.6211V33.6632L65.2932 34.0078L66.4324 35.8172L65.006 37.8945H63.8859V47.8505L56.9455 42.0779L50.2444 41.963L48.2149 39.9048L47.4395 34.5535L49.5264 29.6617L50.8475 29.3458Z" fill="#235AB0"/>
<path d="M69.1411 40.1268C69.0548 40.1272 68.9696 40.1075 68.8922 40.0693C68.7759 40.0028 68.69 39.8938 68.6525 39.7652C68.615 39.6366 68.6289 39.4986 68.6912 39.38C69.2867 38.284 69.5993 37.0567 69.6006 35.8093C69.5993 34.5619 69.2867 33.3346 68.6912 32.2386C68.6289 32.12 68.615 31.982 68.6525 31.8534C68.69 31.7248 68.7759 31.6158 68.8922 31.5494C69.0119 31.4878 69.1509 31.4754 69.2796 31.5148C69.4083 31.5541 69.5166 31.642 69.5815 31.7599C70.254 33.0037 70.606 34.3954 70.6058 35.8093C70.606 37.2232 70.254 38.6149 69.5815 39.8587C69.5395 39.9393 69.4763 40.0068 69.3987 40.0541C69.3211 40.1013 69.232 40.1265 69.1411 40.1268Z" fill="#333333"/>
<path d="M72.6549 43.5994C72.5717 43.5998 72.4896 43.5803 72.4156 43.5421C72.3563 43.5109 72.3038 43.4683 72.2611 43.4166C72.2183 43.365 72.1863 43.3054 72.1667 43.2414C72.1471 43.1773 72.1404 43.1098 72.147 43.0432C72.1536 42.9765 72.1733 42.9119 72.205 42.8529C73.3756 40.6926 73.9877 38.2738 73.9856 35.8166C73.9877 33.3595 73.3756 30.9407 72.205 28.7804C72.1733 28.7213 72.1536 28.6568 72.147 28.5901C72.1404 28.5234 72.1471 28.456 72.1667 28.3919C72.1863 28.3278 72.2183 28.2682 72.2611 28.2166C72.3038 28.165 72.3563 28.1223 72.4156 28.0911C72.4739 28.0596 72.5379 28.0401 72.6039 28.0336C72.6699 28.0272 72.7364 28.0339 72.7998 28.0535C72.8631 28.0731 72.9218 28.1053 72.9726 28.1479C73.0233 28.1905 73.0651 28.2427 73.0953 28.3017C74.3484 30.6085 75.0065 33.1915 75.0099 35.8166C75.0053 38.4447 74.3473 41.0305 73.0953 43.3411C73.0513 43.4193 72.9874 43.4844 72.91 43.5298C72.8327 43.5752 72.7446 43.5991 72.6549 43.5994Z" fill="#333333"/>
<path d="M63.8858 48.6365C63.7624 48.6389 63.6427 48.5945 63.5508 48.5122L57.0507 42.7013H51.0196C48.3966 42.7013 47.1904 39.1306 47.1904 35.8183C47.1904 32.506 48.3871 28.9354 51.0196 28.9354H57.0507L63.5508 23.1245C63.6242 23.06 63.7145 23.0177 63.8111 23.0025C63.9077 22.9872 64.0066 22.9995 64.0964 23.0382C64.1853 23.0801 64.2605 23.1465 64.3131 23.2296C64.3656 23.3127 64.3934 23.409 64.3932 23.5073V33.2528C65.0236 33.3235 65.6057 33.6245 66.0279 34.0979C66.4501 34.5714 66.6827 35.184 66.6811 35.8183C66.6827 36.4527 66.4501 37.0653 66.0279 37.5387C65.6057 38.0121 65.0236 38.3131 64.3932 38.3838V48.1389C64.3916 48.2356 64.363 48.3297 64.3105 48.411C64.2581 48.4922 64.1839 48.5572 64.0964 48.5984C64.0294 48.625 63.9579 48.6378 63.8858 48.6365ZM51.0196 29.9502C49.2008 29.9502 48.2148 32.9751 48.2148 35.8183C48.2148 38.6615 49.172 41.6865 51.0196 41.6865H57.29C57.4126 41.6884 57.5308 41.7325 57.625 41.811L63.4167 46.9996V37.8956C63.4167 37.761 63.4702 37.632 63.5653 37.5368C63.6605 37.4417 63.7895 37.3882 63.9241 37.3882H64.1443C64.5599 37.3857 64.9577 37.2195 65.2516 36.9257C65.5455 36.6318 65.7117 36.2339 65.7142 35.8183C65.7117 35.4027 65.5455 35.0048 65.2516 34.711C64.9577 34.4171 64.5599 34.2509 64.1443 34.2484H63.9241C63.7895 34.2484 63.6605 34.1949 63.5653 34.0998C63.4702 34.0046 63.4167 33.8756 63.4167 33.741V24.6371L57.625 29.8256C57.5308 29.9042 57.4126 29.9482 57.29 29.9502H51.0196Z" fill="#333333"/>
<path d="M58.1131 77.4626H29.9205C28.6155 77.4626 27.3639 76.9443 26.4412 76.0215C25.5184 75.0988 25 73.8472 25 72.5422V35.8199C25 35.6853 25.0534 35.5563 25.1486 35.4611C25.2437 35.366 25.3728 35.3125 25.5073 35.3125H47.7168C47.8514 35.3125 47.9804 35.366 48.0756 35.4611C48.1707 35.5563 48.2242 35.6853 48.2242 35.8199C48.2242 35.8865 48.2111 35.9526 48.1856 36.0141C48.1601 36.0757 48.1227 36.1315 48.0756 36.1787C48.0285 36.2258 47.9725 36.2632 47.911 36.2887C47.8494 36.3142 47.7834 36.3273 47.7168 36.3273H26.0243V72.5611C26.0243 73.597 26.4358 74.5905 27.1683 75.323C27.9008 76.0554 28.8942 76.467 29.9301 76.467H57.6154V42.9614C57.6154 42.8268 57.6688 42.6977 57.764 42.6026C57.8591 42.5074 57.9881 42.454 58.1227 42.454C58.2573 42.454 58.3863 42.5074 58.4815 42.6026C58.5766 42.6977 58.6301 42.8268 58.6301 42.9614V76.9648C58.6302 77.0318 58.6166 77.0983 58.5904 77.16C58.5642 77.2216 58.5259 77.2773 58.4776 77.3238C58.4293 77.3703 58.3721 77.4065 58.3095 77.4304C58.2469 77.4542 58.1801 77.4652 58.1131 77.4626Z" fill="#333333"/>
<path d="M29.9208 74.2163H38.9769L28.2646 63.5039V72.56C28.2672 72.9984 28.4424 73.4183 28.7525 73.7283C29.0625 74.0384 29.4823 74.2138 29.9208 74.2163Z" fill="#235AB0"/>
</g>
<defs>
<clipPath id="clip0_1928_379607">
<rect width="50" height="54.4802" fill="white" transform="translate(25 23)"/>
</clipPath>
</defs>
</svg>
