<svg width="90" height="90" viewBox="0 0 90 90" fill="none" xmlns="http://www.w3.org/2000/svg">
<circle cx="45" cy="45" r="45" fill="#F2F6FB"/>
<path d="M55.1566 24.0234H30.0234V59.9883H55.1566V24.0234Z" fill="white"/>
<path d="M55.6567 60.9999H29.5116C29.3759 60.9999 29.2458 60.946 29.1498 60.85C29.0539 60.7541 29 60.6241 29 60.4884V23.5115C29.0028 23.3767 29.0576 23.2482 29.153 23.1529C29.2483 23.0575 29.3768 23.0028 29.5116 23H55.6567C55.7924 23 55.9225 23.0537 56.0184 23.1496C56.1144 23.2455 56.1683 23.3758 56.1683 23.5115V41.0491C56.1683 41.1158 56.155 41.1818 56.1292 41.2433C56.1033 41.3047 56.0655 41.3604 56.0178 41.407C55.9701 41.4536 55.9136 41.4903 55.8516 41.5148C55.7896 41.5393 55.7234 41.551 55.6567 41.5495C55.5229 41.5496 55.3945 41.4973 55.2989 41.4037C55.2033 41.3102 55.1481 41.1829 55.1452 41.0491V24.023H30.0231V59.9769H55.1452V51.7695C55.1452 51.7024 55.1584 51.6359 55.1841 51.5738C55.2098 51.5117 55.2475 51.4554 55.295 51.4079C55.3425 51.3604 55.3989 51.3226 55.461 51.2969C55.523 51.2711 55.5895 51.258 55.6567 51.258C55.7243 51.2565 55.7915 51.2687 55.8543 51.2939C55.917 51.319 55.974 51.3566 56.0218 51.4044C56.0696 51.4522 56.1073 51.5094 56.1324 51.5722C56.1576 51.6349 56.1698 51.7019 56.1683 51.7695V60.4884C56.1698 60.556 56.1576 60.623 56.1324 60.6858C56.1073 60.7485 56.0696 60.8058 56.0218 60.8536C55.974 60.9014 55.917 60.9389 55.8543 60.9641C55.7915 60.9892 55.7243 61.0014 55.6567 60.9999Z" fill="#333333"/>
<path d="M38.0091 30.0179H33.3828C33.3161 30.0194 33.2499 30.0076 33.1878 29.9831C33.1258 29.9586 33.0694 29.922 33.0217 29.8753C32.974 29.8287 32.9362 29.7731 32.9103 29.7116C32.8845 29.6502 32.8712 29.5842 32.8712 29.5175C32.8697 29.4499 32.8819 29.3829 32.9071 29.3201C32.9322 29.2574 32.9699 29.2001 33.0177 29.1523C33.0655 29.1045 33.1225 29.067 33.1852 29.0418C33.248 29.0167 33.3152 29.0045 33.3828 29.006H38.0091C38.0757 29.006 38.1417 29.0192 38.2032 29.0451C38.2646 29.0709 38.3203 29.1087 38.3669 29.1564C38.4135 29.2041 38.4502 29.2606 38.4746 29.3226C38.4991 29.3846 38.511 29.4509 38.5095 29.5175C38.5095 29.6502 38.4568 29.7777 38.3629 29.8715C38.2691 29.9654 38.1418 30.0179 38.0091 30.0179Z" fill="#333333"/>
<path d="M51.5988 39.2028H33.3828C33.3156 39.2028 33.2491 39.1897 33.187 39.164C33.1249 39.1383 33.0685 39.1008 33.021 39.0532C32.9735 39.0057 32.9359 38.9492 32.9101 38.8871C32.8844 38.825 32.8712 38.7585 32.8712 38.6913C32.8697 38.6237 32.8819 38.5567 32.9071 38.4939C32.9322 38.4312 32.9699 38.374 33.0177 38.3262C33.0655 38.2783 33.1225 38.2408 33.1852 38.2157C33.248 38.1905 33.3152 38.1783 33.3828 38.1798H51.5988C51.6664 38.1783 51.7335 38.1905 51.7963 38.2157C51.859 38.2408 51.9161 38.2783 51.9639 38.3262C52.0117 38.374 52.0493 38.4312 52.0745 38.4939C52.0996 38.5567 52.1118 38.6237 52.1103 38.6913C52.1103 38.827 52.0564 38.9573 51.9605 39.0532C51.8645 39.1492 51.7344 39.2028 51.5988 39.2028Z" fill="#333333"/>
<path d="M51.5988 43.7515H33.3828C33.3152 43.7531 33.248 43.7409 33.1852 43.7157C33.1225 43.6905 33.0655 43.653 33.0177 43.6052C32.9699 43.5574 32.9322 43.5002 32.9071 43.4374C32.8819 43.3747 32.8697 43.3076 32.8712 43.24C32.8712 43.1729 32.8844 43.1063 32.9101 43.0443C32.9359 42.9822 32.9735 42.9259 33.021 42.8784C33.0685 42.8309 33.1249 42.793 33.187 42.7673C33.2491 42.7416 33.3156 42.7285 33.3828 42.7285H51.5988C51.7344 42.7285 51.8645 42.7825 51.9605 42.8784C52.0564 42.9743 52.1103 43.1044 52.1103 43.24C52.1118 43.3076 52.0996 43.3747 52.0745 43.4374C52.0493 43.5002 52.0117 43.5574 51.9639 43.6052C51.9161 43.653 51.859 43.6905 51.7963 43.7157C51.7335 43.7409 51.6664 43.7531 51.5988 43.7515Z" fill="#333333"/>
<path d="M48.761 48.3785H33.3475C33.2118 48.3785 33.0817 48.3248 32.9858 48.2289C32.8898 48.133 32.8359 48.0027 32.8359 47.867C32.8359 47.7313 32.8898 47.6013 32.9858 47.5053C33.0817 47.4094 33.2118 47.3555 33.3475 47.3555H48.761C48.8948 47.3584 49.022 47.4135 49.1156 47.5091C49.2091 47.6048 49.2615 47.7332 49.2615 47.867C49.2615 48.0008 49.2091 48.1292 49.1156 48.2248C49.022 48.3205 48.8948 48.3756 48.761 48.3785Z" fill="#333333"/>
<path d="M54.8235 56L53 53.4589L56.1666 52L58 54.5333L54.8235 56ZM54.3333 53.749L55.1863 54.9254L56.6568 54.2508L55.8039 53.0667L54.3333 53.749Z" fill="#333333"/>
<path d="M58.7311 40.7563C57.471 38.5727 55.3952 36.9789 52.9601 36.3252C50.5251 35.6715 47.9301 36.0116 45.7457 37.2706C43.5656 38.5341 41.9754 40.6104 41.3238 43.0443C40.6722 45.4782 41.0123 48.0711 42.2695 50.2547C43.5332 52.4346 45.6097 54.0247 48.0438 54.6763C50.478 55.3278 53.0712 54.9876 55.255 53.7304C57.4344 52.4688 59.0244 50.3944 59.6761 47.9621C60.3277 45.5298 59.9879 42.9384 58.7311 40.7563ZM53.7367 51.1737C52.9924 51.6036 52.1706 51.8823 51.3184 51.9945C50.4662 52.1067 49.6002 52.0498 48.77 51.8272C47.9398 51.6046 47.1615 51.2207 46.4798 50.6973C45.798 50.1738 45.2261 49.5211 44.7967 48.7765C44.359 48.0301 44.0737 47.2045 43.9574 46.3471C43.841 45.4897 43.8959 44.6177 44.1188 43.7817C44.3418 42.9456 44.7284 42.1622 45.2563 41.4766C45.7841 40.791 46.4427 40.2169 47.194 39.7875C48.6979 38.9221 50.4837 38.6885 52.1597 39.1379C53.8356 39.5873 55.2649 40.683 56.134 42.1847C56.573 42.9293 56.86 43.7533 56.9786 44.6095C57.0971 45.4656 57.0448 46.3369 56.8247 47.1728C56.6046 48.0086 56.221 48.7923 55.6961 49.479C55.1712 50.1658 54.5155 50.7419 53.7667 51.1737H53.7367Z" fill="white"/>
<path d="M50.5178 55C49.6834 55.0008 48.8524 54.8927 48.0461 54.678C46.8409 54.3568 45.711 53.8006 44.7212 53.0413C43.7315 52.2821 42.9015 51.3345 42.2787 50.2534C41.6529 49.1742 41.2462 47.9819 41.0822 46.745C40.9182 45.5082 41 44.2512 41.323 43.046C41.6459 41.8409 42.2036 40.7114 42.9641 39.7224C43.7245 38.7335 44.6727 37.9047 45.7543 37.2834C46.8335 36.6558 48.026 36.2478 49.2634 36.0829C50.5007 35.918 51.7584 35.9996 52.9642 36.3228C54.1699 36.6459 55.2999 37.2044 56.2892 37.9659C57.2784 38.7275 58.1075 39.6771 58.7285 40.7603C59.352 41.8392 59.7566 43.0306 59.9191 44.2662C60.0816 45.5017 59.9988 46.7572 59.6756 47.9608C59.3545 49.1665 58.7985 50.2967 58.0395 51.2869C57.2806 52.277 56.3336 53.1076 55.2529 53.7306C53.8133 54.5622 52.1802 54.9999 50.5178 55ZM50.5178 36.9991C49.0225 37.0001 47.5534 37.3919 46.2562 38.1359C45.2819 38.6954 44.4278 39.442 43.7429 40.3329C43.0581 41.2237 42.556 42.2412 42.2656 43.3268C41.9751 44.4124 41.9021 45.5448 42.0506 46.6588C42.1991 47.7727 42.5663 48.8462 43.131 49.8177C43.6892 50.792 44.4354 51.6456 45.3264 52.3287C46.2173 53.0118 47.2352 53.5108 48.3207 53.7968C49.4044 54.0933 50.5363 54.1708 51.6501 54.0244C52.764 53.8779 53.8375 53.5107 54.8078 52.9442C55.7798 52.3833 56.6315 51.6359 57.314 50.7449C57.9966 49.854 58.4966 48.8371 58.7853 47.7524C59.0763 46.6692 59.1508 45.5391 59.0045 44.4271C58.8582 43.3151 58.4941 42.2429 57.933 41.2719C57.1858 39.9577 56.1026 38.8659 54.7946 38.1084C53.4866 37.3509 52.0007 36.9549 50.4894 36.9612L50.5178 36.9991ZM50.5178 52.2241C49.3432 52.2251 48.1891 51.9166 47.1717 51.3295C46.1542 50.7423 45.3093 49.8974 44.722 48.8797C44.2774 48.1218 43.9877 47.2831 43.8699 46.4122C43.7521 45.5413 43.8085 44.6555 44.0359 43.8066C44.2632 42.9577 44.657 42.1625 45.1942 41.4672C45.7314 40.7718 46.4015 40.1902 47.1654 39.7562C48.6993 38.8732 50.5207 38.6344 52.2302 39.0926C53.9398 39.5508 55.398 40.6684 56.2852 42.2004C56.727 42.9587 57.0139 43.7974 57.1293 44.6675C57.2447 45.5375 57.1864 46.4218 56.9576 47.2692C56.7324 48.1177 56.341 48.9132 55.8062 49.6093C55.2713 50.3053 54.6037 50.8882 53.8419 51.3241C52.8288 51.8986 51.6823 52.1959 50.5178 52.1862V52.2241ZM50.5178 39.8129C49.5212 39.8157 48.5424 40.0769 47.6767 40.5709C46.3604 41.3319 45.3997 42.5844 45.0055 44.0534C44.6113 45.5223 44.8159 47.0878 45.5743 48.406C46.335 49.7229 47.587 50.6842 49.0554 51.0785C50.5238 51.4728 52.0886 51.268 53.4063 50.5093C54.0603 50.1344 54.6333 49.633 55.0918 49.0345C55.5502 48.4359 55.8851 47.7521 56.0768 47.0228C56.2747 46.2965 56.3264 45.538 56.2288 44.7914C56.1313 44.0449 55.8865 43.3252 55.5086 42.6741C55.0044 41.7888 54.2738 41.0538 53.3917 40.5443C52.5096 40.0348 51.5079 39.7694 50.4894 39.7752L50.5178 39.8129Z" fill="#333333"/>
<path d="M57.6686 54.1816L54.1412 56.2181C53.9856 56.308 53.9322 56.5069 54.022 56.6626L60.2944 67.5266C60.3842 67.6823 60.5834 67.7357 60.739 67.6458L64.2664 65.6093C64.4221 65.5194 64.4753 65.3203 64.3855 65.1646L58.1131 54.3006C58.0233 54.1449 57.8243 54.0917 57.6686 54.1816Z" fill="#235AB0"/>
<path d="M60.8305 67.993C60.7649 68.0023 60.6983 68.0023 60.6327 67.993C60.5346 67.9674 60.4427 67.9225 60.3624 67.8606C60.2821 67.7987 60.2151 67.7212 60.1652 67.6328L54.1061 57.1233C54.0547 57.036 54.021 56.9393 54.0072 56.8388C53.9933 56.7383 53.9996 56.6361 54.0255 56.538C54.0514 56.44 54.0965 56.348 54.1582 56.2676C54.2199 56.1872 54.2969 56.1198 54.3848 56.0695L57.783 54.1063C57.8701 54.0548 57.9667 54.021 58.067 54.0072C58.1672 53.9933 58.2693 53.9996 58.3671 54.0256C58.465 54.0516 58.5567 54.0966 58.637 54.1584C58.7173 54.2202 58.7845 54.2975 58.8347 54.3855L64.8939 64.8951C64.9454 64.9824 64.979 65.0791 64.9928 65.1796C65.0067 65.2801 65.0005 65.3823 64.9745 65.4804C64.9486 65.5784 64.9035 65.6702 64.8418 65.7506C64.7801 65.831 64.7031 65.8983 64.6152 65.9487L61.2081 67.9121C61.0921 67.9735 60.9614 68.0014 60.8305 67.993ZM54.9422 56.7539L60.8754 67.0476L64.0488 65.2464L58.1246 54.9618L54.9422 56.7539Z" fill="#333333"/>
</svg>
