<svg width="24" height="24" viewBox="0 0 24 24" fill="none" xmlns="http://www.w3.org/2000/svg">
<path d="M17.4037 17.9598L16.8175 14.3901C16.8175 14.3901 19.1206 12.0102 19.2256 11.9032C20.4248 10.6853 20.1952 9.48263 18.786 9.05966L14.9784 8.48127L13.3225 4.98034C12.5556 3.67322 11.4468 3.67322 10.6799 4.98034L9.02402 8.48127L5.21399 9.05966C3.80477 9.48263 3.57519 10.6853 4.77437 11.9032C4.87939 12.0102 7.18251 14.3901 7.18251 14.3901L6.59635 17.9598C6.36433 19.7536 7.42918 20.5103 9.02402 19.6364C9.16812 19.5574 12.0012 18.0388 12.0012 18.0388C12.0012 18.0388 14.8343 19.5574 14.9784 19.6364C16.5708 20.5103 17.6357 19.7536 17.4061 17.9598H17.4037Z" stroke="white" stroke-linecap="round"/>
</svg>
