<svg width="90" height="90" viewBox="0 0 90 90" fill="none" xmlns="http://www.w3.org/2000/svg">
<g clip-path="url(#clip0_479_30215)">
<path d="M71.9458 23.4276H18.0537V61.4754H71.9458V23.4276Z" fill="white" stroke="#333333" stroke-linecap="round" stroke-linejoin="round"/>
<path d="M68.543 58.0032V26.9082L21.4649 26.9082V58.0032H68.543Z" fill="#235AB0"/>
<path d="M13.4189 61.4755H76.5808C76.5808 64.2891 74.343 66.5725 71.5855 66.5725H18.4142C15.6568 66.5725 13.4189 64.2891 13.4189 61.4755Z" fill="white" stroke="#333333" stroke-linecap="round" stroke-linejoin="round"/>
<path d="M53.3395 61.4755H36.6689V64.024H53.3395V61.4755Z" fill="white" stroke="#333333" stroke-linecap="round" stroke-linejoin="round"/>
<path d="M31.5303 39.1719V45.1668" stroke="white" stroke-width="1.5" stroke-linecap="round" stroke-linejoin="round"/>
<path d="M28.9912 43.6702L34.0787 40.677" stroke="white" stroke-width="1.5" stroke-linecap="round" stroke-linejoin="round"/>
<path d="M34.0787 43.6702L28.9912 40.677" stroke="white" stroke-width="1.5" stroke-linecap="round" stroke-linejoin="round"/>
<path d="M40.5068 39.1719V45.1668" stroke="white" stroke-width="1.5" stroke-linecap="round" stroke-linejoin="round"/>
<path d="M37.9678 43.6702L43.0553 40.677" stroke="white" stroke-width="1.5" stroke-linecap="round" stroke-linejoin="round"/>
<path d="M43.0553 43.6702L37.9678 40.677" stroke="white" stroke-width="1.5" stroke-linecap="round" stroke-linejoin="round"/>
<path d="M49.4922 39.1719V45.1668" stroke="white" stroke-width="1.5" stroke-linecap="round" stroke-linejoin="round"/>
<path d="M46.9443 43.6702L52.0318 40.677" stroke="white" stroke-width="1.5" stroke-linecap="round" stroke-linejoin="round"/>
<path d="M52.0318 43.6702L46.9443 40.677" stroke="white" stroke-width="1.5" stroke-linecap="round" stroke-linejoin="round"/>
<path d="M58.4688 39.1719V45.1668" stroke="white" stroke-width="1.5" stroke-linecap="round" stroke-linejoin="round"/>
<path d="M55.9209 43.6702L61.0084 40.677" stroke="white" stroke-width="1.5" stroke-linecap="round" stroke-linejoin="round"/>
<path d="M61.0084 43.6702L55.9209 40.677" stroke="white" stroke-width="1.5" stroke-linecap="round" stroke-linejoin="round"/>
</g>
<defs>
<clipPath id="clip0_479_30215">
<rect width="64" height="44" fill="white" transform="translate(13 23)"/>
</clipPath>
</defs>
</svg>
