<svg width="100" height="100" viewBox="0 0 100 100" fill="none" xmlns="http://www.w3.org/2000/svg">
<circle cx="50" cy="50" r="50" fill="#F2F6FB"/>
<g clip-path="url(#clip0_1075_171960)">
<path d="M40.5898 39.4688H30.2142C29.8791 39.4688 29.6074 39.7495 29.6074 40.0959V64.2042C29.6074 64.5506 29.8791 64.8314 30.2142 64.8314H40.5898C40.9249 64.8314 41.1966 64.5506 41.1966 64.2042V40.0959C41.1966 39.7495 40.9249 39.4688 40.5898 39.4688Z" fill="white" stroke="#333333" stroke-miterlimit="10"/>
<path d="M36.998 42.2773H33.3574V46.0403H36.998V42.2773Z" fill="#235AB0"/>
<path d="M36.998 48.4492H33.3574V52.2122H36.998V48.4492Z" fill="#235AB0"/>
<path d="M69.7871 39.4688H59.4114C59.0763 39.4688 58.8047 39.7495 58.8047 40.0959V64.2042C58.8047 64.5506 59.0763 64.8314 59.4114 64.8314H69.7871C70.1222 64.8314 70.3938 64.5506 70.3938 64.2042V40.0959C70.3938 39.7495 70.1222 39.4688 69.7871 39.4688Z" fill="white" stroke="#333333" stroke-miterlimit="10"/>
<path d="M66.7285 42.2773H63.0879V46.0403H66.7285V42.2773Z" fill="#235AB0"/>
<path d="M66.7285 48.4492H63.0879V52.2122H66.7285V48.4492Z" fill="#235AB0"/>
<path d="M59.3017 34.6289H40.5892C40.2541 34.6289 39.9824 34.9097 39.9824 35.2561V64.2061C39.9824 64.5525 40.2541 64.8333 40.5892 64.8333H59.3017C59.6368 64.8333 59.9085 64.5525 59.9085 64.2061V35.2561C59.9085 34.9097 59.6368 34.6289 59.3017 34.6289Z" fill="white" stroke="#333333" stroke-miterlimit="10"/>
<path d="M46.5722 38.1406H42.9316V41.9036H46.5722V38.1406Z" fill="#235AB0"/>
<path d="M51.7656 38.1406H48.125V41.9036H51.7656V38.1406Z" fill="#235AB0"/>
<path d="M56.9726 38.1406H53.332V41.9036H56.9726V38.1406Z" fill="#235AB0"/>
<path d="M46.5722 44.4492H42.9316V48.2122H46.5722V44.4492Z" fill="#235AB0"/>
<path d="M51.7656 44.4492H48.125V48.2122H51.7656V44.4492Z" fill="#235AB0"/>
<path d="M56.9726 44.4492H53.332V48.2122H56.9726V44.4492Z" fill="#235AB0"/>
<path d="M46.5722 50.7695H42.9316V54.5325H46.5722V50.7695Z" fill="#235AB0"/>
<path d="M51.7656 50.7695H48.125V54.5325H51.7656V50.7695Z" fill="#235AB0"/>
<path d="M56.9726 50.7695H53.332V54.5325H56.9726V50.7695Z" fill="#235AB0"/>
</g>
<defs>
<clipPath id="clip0_1075_171960">
<rect width="42" height="31.4587" fill="white" transform="translate(29 34)"/>
</clipPath>
</defs>
</svg>
