<svg width="100" height="100" viewBox="0 0 100 100" fill="none" xmlns="http://www.w3.org/2000/svg">
<circle cx="50" cy="50" r="50" fill="#F2F6FB"/>
<g clip-path="url(#clip0_2152_382856)">
<path d="M61.9655 37.2207H32.1475V72.9683H61.9655V37.2207Z" fill="white"/>
<path d="M56.8542 26.9141H37.0039V36.8924H56.8542V26.9141Z" fill="white"/>
<path d="M41.5412 51.5352H40.4785V53.1504H41.5412V51.5352Z" fill="#235AB0"/>
<path d="M41.5412 46.4883H40.4785V48.0929H41.5412V46.4883Z" fill="#235AB0"/>
<path d="M41.5412 41.6523H40.4785V43.2676H41.5412V41.6523Z" fill="#235AB0"/>
<path d="M47.5138 51.5352H46.4512V53.1504H47.5138V51.5352Z" fill="#235AB0"/>
<path d="M47.5138 46.4883H46.4512V48.0929H47.5138V46.4883Z" fill="#235AB0"/>
<path d="M47.5138 41.6523H46.4512V43.2676H47.5138V41.6523Z" fill="#235AB0"/>
<path d="M53.422 51.5352H52.3594V53.1504H53.422V51.5352Z" fill="#235AB0"/>
<path d="M53.422 46.4883H52.3594V48.0929H53.422V46.4883Z" fill="#235AB0"/>
<path d="M53.422 41.6523H52.3594V43.2676H53.422V41.6523Z" fill="#235AB0"/>
<path d="M41.5412 66.4551H40.4785V68.0703H41.5412V66.4551Z" fill="#235AB0"/>
<path d="M41.5412 61.4082H40.4785V63.0128H41.5412V61.4082Z" fill="#235AB0"/>
<path d="M41.5412 56.5723H40.4785V58.1875H41.5412V56.5723Z" fill="#235AB0"/>
<path d="M47.5138 66.4551H46.4512V68.0703H47.5138V66.4551Z" fill="#235AB0"/>
<path d="M47.5138 61.4082H46.4512V63.0128H47.5138V61.4082Z" fill="#235AB0"/>
<path d="M47.5138 56.5723H46.4512V58.1875H47.5138V56.5723Z" fill="#235AB0"/>
<path d="M53.4536 66.4551H52.3271V68.0703H53.4536V66.4551Z" fill="#344154"/>
<path d="M53.4536 61.4082H52.3271V63.0128H53.4536V61.4082Z" fill="#344154"/>
<path d="M53.4536 56.5723H52.3271V58.1875H53.4536V56.5723Z" fill="#344154"/>
<path d="M56.4715 74.1174H33.5395C32.8603 74.1174 32.2089 73.8476 31.7286 73.3673C31.2483 72.8871 30.9785 72.2357 30.9785 71.5565V38.4124C30.9785 37.8487 31.2024 37.3081 31.601 36.9095C31.9995 36.5109 32.5402 36.2871 33.1038 36.2871H60.8497C61.4041 36.301 61.9311 36.5308 62.3183 36.9279C62.7054 37.325 62.922 37.8578 62.9218 38.4124V56.573C62.9233 56.6464 62.91 56.7195 62.8829 56.7878C62.8557 56.8561 62.8152 56.9182 62.7638 56.9707C62.7123 57.0231 62.651 57.0647 62.5832 57.0931C62.5155 57.1216 62.4427 57.1362 62.3692 57.1362C62.2949 57.1377 62.221 57.1241 62.152 57.0963C62.083 57.0685 62.0204 57.0272 61.9678 56.9746C61.9152 56.922 61.8737 56.8594 61.846 56.7904C61.8182 56.7214 61.8046 56.6473 61.8061 56.573V38.4124C61.8033 38.1596 61.7017 37.9179 61.5229 37.7392C61.3441 37.5604 61.1024 37.4586 60.8497 37.4559H33.0932C32.8395 37.4559 32.5963 37.5567 32.4169 37.7361C32.2375 37.9154 32.1368 38.1588 32.1368 38.4124V71.5565C32.1354 71.7453 32.1715 71.9323 32.2431 72.107C32.3147 72.2817 32.4203 72.4405 32.5538 72.574C32.6873 72.7075 32.846 72.8132 33.0207 72.8848C33.1954 72.9564 33.3826 72.9923 33.5714 72.9909H56.4715C56.6209 72.9909 56.7641 73.0503 56.8698 73.1559C56.9754 73.2615 57.0348 73.4048 57.0348 73.5541C57.0348 73.7035 56.9754 73.8467 56.8698 73.9524C56.7641 74.058 56.6209 74.1174 56.4715 74.1174V74.1174Z" fill="#333333"/>
<path d="M57.2053 37.4554C57.056 37.4554 56.9127 37.396 56.8071 37.2904C56.7015 37.1848 56.6421 37.0416 56.6421 36.8922V27.9873C56.6393 27.758 56.5463 27.539 56.3832 27.3779C56.2201 27.2167 56 27.1265 55.7708 27.1265H38.1307C37.9024 27.1265 37.6835 27.2172 37.5221 27.3786C37.3606 27.5401 37.27 27.759 37.27 27.9873V36.8922C37.27 37.0416 37.2106 37.1848 37.105 37.2904C36.9994 37.396 36.8562 37.4554 36.7068 37.4554C36.5574 37.4554 36.4141 37.396 36.3085 37.2904C36.2029 37.1848 36.1436 37.0416 36.1436 36.8922V27.9873C36.1436 27.4603 36.3529 26.9548 36.7256 26.5822C37.0983 26.2095 37.6037 26 38.1307 26H55.7708C56.2988 26 56.8053 26.209 57.1796 26.5814C57.554 26.9538 57.7657 27.4593 57.7685 27.9873V36.8922C57.7685 36.9661 57.7539 37.0394 57.7256 37.1078C57.6973 37.1761 57.6559 37.2381 57.6036 37.2904C57.5513 37.3427 57.4892 37.3843 57.4209 37.4126C57.3525 37.4409 57.2793 37.4554 57.2053 37.4554V37.4554Z" fill="#333333"/>
<path d="M53.8471 29.9316H40.0645V33.5128H53.8471V29.9316Z" fill="#235AB0"/>
<path d="M78.4691 57.0938H49.3418V73.448H78.4691V57.0938Z" fill="white"/>
<path d="M79.0003 74.0954H48.7891V56.3066H79.0003V74.0954ZM49.9155 72.9692H77.8738V57.4331H49.9155V72.9692Z" fill="#333333"/>
<path d="M59.5641 70.0993C59.414 70.1 59.2695 70.043 59.1603 69.94C57.9099 68.6818 57.208 66.9798 57.208 65.2058C57.208 63.4319 57.9099 61.7302 59.1603 60.4719C59.2126 60.4195 59.2747 60.3778 59.3431 60.3494C59.4115 60.3211 59.4848 60.3066 59.5588 60.3066C59.6328 60.3066 59.7061 60.3211 59.7745 60.3494C59.8429 60.3778 59.905 60.4195 59.9573 60.4719C60.0097 60.5242 60.0512 60.5862 60.0796 60.6545C60.1079 60.7229 60.1225 60.7964 60.1225 60.8704C60.1225 60.9444 60.1079 61.0176 60.0796 61.086C60.0512 61.1544 60.0097 61.2166 59.9573 61.2689C58.9158 62.3145 58.331 63.73 58.331 65.2058C58.331 66.6817 58.9158 68.0974 59.9573 69.1431C60.0097 69.1954 60.0512 69.2576 60.0796 69.326C60.1079 69.3943 60.1225 69.4675 60.1225 69.5415C60.1225 69.6156 60.1079 69.6888 60.0796 69.7571C60.0512 69.8255 60.0097 69.8877 59.9573 69.94C59.852 70.0424 59.7109 70.0995 59.5641 70.0993V70.0993Z" fill="#333333"/>
<path d="M68.2356 70.0993C68.0856 70.1 67.941 70.043 67.8318 69.94C67.7286 69.8331 67.6709 69.6902 67.6709 69.5415C67.6709 69.3929 67.7286 69.25 67.8318 69.1431C68.3501 68.6267 68.7613 68.013 69.0419 67.3374C69.3224 66.6617 69.4669 65.9374 69.4669 65.2058C69.4669 64.4743 69.3224 63.7499 69.0419 63.0743C68.7613 62.3987 68.3501 61.7852 67.8318 61.2689C67.7286 61.1619 67.6709 61.0191 67.6709 60.8704C67.6709 60.7217 67.7286 60.5789 67.8318 60.4719C67.8841 60.4195 67.9462 60.3778 68.0146 60.3494C68.083 60.3211 68.1563 60.3066 68.2303 60.3066C68.3043 60.3066 68.3776 60.3211 68.446 60.3494C68.5144 60.3778 68.5765 60.4195 68.6288 60.4719C69.2505 61.0936 69.7437 61.8316 70.0802 62.6439C70.4167 63.4562 70.5899 64.3266 70.5899 65.2058C70.5899 66.0851 70.4167 66.9558 70.0802 67.768C69.7437 68.5803 69.2505 69.3184 68.6288 69.94C68.5235 70.0424 68.3825 70.0995 68.2356 70.0993V70.0993Z" fill="#333333"/>
<path d="M73.7928 66.53C73.5504 66.53 73.318 66.4336 73.1466 66.2622C72.9752 66.0909 72.8789 65.8584 72.8789 65.616C72.8817 65.3755 72.9792 65.1458 73.1503 64.9767C73.3214 64.8076 73.5522 64.7129 73.7928 64.7129C74.0333 64.7129 74.2642 64.8076 74.4353 64.9767C74.6063 65.1458 74.7039 65.3755 74.7067 65.616C74.7067 65.736 74.683 65.8548 74.6371 65.9657C74.5912 66.0766 74.5239 66.1774 74.439 66.2622C74.3541 66.3471 74.2534 66.4145 74.1425 66.4605C74.0316 66.5064 73.9128 66.53 73.7928 66.53V66.53ZM73.7928 65.4035C73.7364 65.4035 73.6824 65.4259 73.6425 65.4658C73.6026 65.5056 73.5803 65.5596 73.5803 65.616C73.5803 65.8498 74.0053 65.8498 74.0053 65.616C74.0053 65.5596 73.9829 65.5056 73.9431 65.4658C73.9032 65.4259 73.8491 65.4035 73.7928 65.4035V65.4035Z" fill="#333333"/>
<path d="M54.0067 66.53C53.8863 66.5315 53.7668 66.5088 53.6553 66.4634C53.5438 66.4179 53.4425 66.3506 53.3573 66.2654C53.2722 66.1803 53.2049 66.0791 53.1595 65.9676C53.1141 65.8561 53.0914 65.7365 53.0928 65.6161C53.0928 65.4965 53.1165 65.3782 53.1626 65.2679C53.2086 65.1576 53.2762 65.0577 53.3612 64.9737C53.4462 64.8897 53.5469 64.8234 53.6578 64.7786C53.7686 64.7338 53.8872 64.7115 54.0067 64.713C54.2463 64.713 54.476 64.8079 54.6454 64.9773C54.8148 65.1467 54.91 65.3765 54.91 65.6161C54.9114 65.7356 54.8891 65.8542 54.8443 65.965C54.7995 66.0758 54.7332 66.1768 54.6492 66.2618C54.5652 66.3468 54.4652 66.4142 54.3549 66.4603C54.2446 66.5063 54.1262 66.5301 54.0067 66.53ZM54.0067 65.4036C53.9779 65.4021 53.9492 65.4065 53.9221 65.4165C53.8951 65.4266 53.8704 65.4421 53.8495 65.4619C53.8286 65.4818 53.812 65.5058 53.8007 65.5323C53.7894 65.5588 53.7835 65.5872 53.7835 65.6161C53.7835 65.8498 54.2192 65.8498 54.2192 65.6161C54.2192 65.5597 54.1968 65.5057 54.157 65.4658C54.1171 65.426 54.0631 65.4036 54.0067 65.4036V65.4036Z" fill="#333333"/>
</g>
<path d="M65.7994 65.0922L65.3408 67H64.5318L64.1943 65.2576C64.1943 65.2258 64.1943 65.1304 64.1943 65.0859H63.7675C63.7675 65.124 63.7293 65.2258 63.7293 65.2576L63.3408 67H62.5573L62.1369 65.0922H61.5V64.4945H62.0414L61.7038 63H62.4554L62.7357 64.4945H63.3726L63.6975 63H64.4045L64.6911 64.4945H65.2834L65.5955 63H66.3153L65.9459 64.4945H66.5V65.0922H65.7994ZM63.1943 65.0922H62.8248C62.8949 65.4738 62.9522 65.868 62.9968 66.1924C63.0541 65.8617 63.1306 65.4801 63.1943 65.0922ZM63.8949 64.4945H64.0605L63.9841 63.9539C63.965 64.1319 63.9331 64.3101 63.8949 64.4945ZM65.1688 65.0922H64.8057C64.8758 65.4483 64.9268 65.849 64.9777 66.186C65.0414 65.849 65.086 65.4483 65.1624 65.0922H65.1688Z" fill="#333333"/>
<defs>
<clipPath id="clip0_2152_382856">
<rect width="48" height="48.1169" fill="white" transform="translate(31 26)"/>
</clipPath>
</defs>
</svg>
