<svg width="100" height="100" viewBox="0 0 100 100" fill="none" xmlns="http://www.w3.org/2000/svg">
<circle cx="50" cy="50" r="50" fill="#F2F6FB"/>
<g clip-path="url(#clip0_1307_206083)">
<path d="M37.254 42.5138L38.5078 38.5137L34.57 30.6068L39.8343 32.6794L43.8654 29.6328L47.6477 32.7416L53.2125 30.5449L49.0674 38.835L50.2384 42.0577L54.7358 49.2392L56.2799 52.6691C56.2799 52.6691 58.5286 60.7106 54.8394 64.7106C53.5109 66.3573 51.8512 67.7063 49.9678 68.6703C48.0844 69.6343 46.0195 70.1917 43.9068 70.3064C43.9068 70.3064 26.9016 68.9594 31.4716 53.3739C31.4094 53.405 31.7928 48.9076 37.254 42.5138Z" fill="white"/>
<path d="M70.57 52.866V59.9022H59.285V62.5033L51.6685 56.0991L59.2539 50.0059L59.3887 53.0318L70.57 52.866Z" fill="#235AB0"/>
<path d="M43.6166 40.5446C39.3472 40.5446 38.0726 39.3944 37.9378 39.2597C37.8815 39.2066 37.8358 39.1434 37.8031 39.0732L33.8135 30.9799C33.7466 30.8542 33.7207 30.7107 33.7392 30.5695C33.7578 30.4284 33.82 30.2965 33.9171 30.1923C34.0137 30.088 34.1397 30.0153 34.2784 29.9839C34.4171 29.9524 34.5621 29.9637 34.6943 30.0162L39.7099 32.0265L43.171 29.1561C43.2959 29.0515 43.4537 28.9941 43.6166 28.9941C43.7795 28.9941 43.9372 29.0515 44.0622 29.1561L47.513 32.0265L52.5285 30.0162C52.6607 29.9637 52.8057 29.9524 52.9444 29.9839C53.0831 30.0153 53.2091 30.088 53.3057 30.1923C53.4019 30.2968 53.4642 30.428 53.4845 30.5685C53.5049 30.7091 53.4823 30.8524 53.4197 30.9799L49.4093 39.0732C49.3803 39.1455 49.3341 39.2094 49.2746 39.2597C49.1606 39.3944 47.886 40.5446 43.6166 40.5446ZM38.9845 38.3168C39.2643 38.4929 40.4767 39.1458 43.6166 39.1458C46.7565 39.1458 47.9378 38.5033 48.2384 38.3064L51.3472 31.9954L47.6373 33.4772C47.5205 33.5238 47.3933 33.5378 47.2692 33.5177C47.1451 33.4976 47.0288 33.4444 46.9327 33.3634L43.6062 30.6067L40.2694 33.3634C40.1733 33.4444 40.057 33.4976 39.9329 33.5177C39.8088 33.5378 39.6816 33.5238 39.5648 33.4772L35.8549 31.9954L38.9845 38.3168Z" fill="#333333"/>
<path d="M43.6165 44.1611C41.3595 44.0941 39.1448 43.5317 37.1294 42.5136C36.9864 42.4351 36.8745 42.3099 36.8123 42.1591C36.7501 42.0083 36.7414 41.8409 36.7875 41.6845L37.7616 38.5757C37.7887 38.4885 37.8328 38.4074 37.8912 38.3374C37.9497 38.2673 38.0214 38.2094 38.1023 38.1671C38.1831 38.1247 38.2715 38.0988 38.3624 38.0907C38.4533 38.0825 38.5449 38.0922 38.632 38.1195C38.7201 38.1456 38.8021 38.189 38.8733 38.247C38.9446 38.305 39.0036 38.3766 39.0469 38.4575C39.0903 38.5385 39.1172 38.6272 39.126 38.7186C39.1348 38.81 39.1254 38.9023 39.0983 38.9901L38.3004 41.5496C39.9746 42.3049 41.7808 42.7238 43.6165 42.7827C45.4497 42.7304 47.2538 42.3112 48.9222 41.5496L48.1243 38.9901C48.0972 38.9023 48.0878 38.81 48.0966 38.7186C48.1054 38.6272 48.1323 38.5385 48.1757 38.4575C48.219 38.3766 48.278 38.305 48.3493 38.247C48.4205 38.189 48.5025 38.1456 48.5906 38.1195C48.6777 38.0922 48.7693 38.0825 48.8602 38.0907C48.9511 38.0988 49.0395 38.1247 49.1203 38.1671C49.2012 38.2094 49.2729 38.2673 49.3314 38.3374C49.3898 38.4074 49.4339 38.4885 49.461 38.5757L50.4351 41.6845C50.4841 41.8397 50.4778 42.007 50.4174 42.1581C50.3569 42.3092 50.246 42.4349 50.1035 42.5136C48.0874 43.5298 45.8732 44.0921 43.6165 44.1611Z" fill="#333333"/>
<path d="M54.4457 50.3049C54.3103 50.3037 54.1781 50.2641 54.0644 50.1908C53.9506 50.1174 53.8601 50.0133 53.8032 49.8904C52.5796 47.2006 51.0421 44.6648 49.2229 42.336C49.1073 42.1912 49.0533 42.0069 49.0727 41.8227C49.0921 41.6384 49.1833 41.4691 49.3265 41.3516C49.3987 41.2846 49.4843 41.2337 49.5777 41.2023C49.671 41.1709 49.77 41.1596 49.868 41.1694C49.9661 41.1792 50.0609 41.2097 50.1462 41.259C50.2315 41.3083 50.3053 41.3753 50.3628 41.4553C52.2567 43.8797 53.8567 46.5197 55.1296 49.3205C55.1693 49.4032 55.192 49.4931 55.1962 49.5848C55.2005 49.6765 55.1862 49.7682 55.1543 49.8543C55.1224 49.9403 55.0735 50.019 55.0105 50.0858C54.9475 50.1525 54.8717 50.206 54.7877 50.2429C54.6803 50.2906 54.563 50.3117 54.4457 50.3049Z" fill="#333333"/>
<path d="M43.3679 71C42.3938 71 39.2228 70.7512 35.0777 67.8393C33.7237 66.9406 32.5776 65.7627 31.7161 64.3847C30.8547 63.0067 30.2978 61.4606 30.0829 59.8497C28.9326 51.3316 36.5596 41.8497 36.8808 41.456C36.9393 41.3773 37.0136 41.3117 37.0989 41.2634C37.1841 41.2151 37.2786 41.1851 37.3761 41.1754C37.4736 41.1656 37.5721 41.1763 37.6652 41.2067C37.7584 41.2372 37.8442 41.2867 37.9171 41.3522C37.9892 41.4096 38.0491 41.4807 38.0934 41.5614C38.1377 41.6422 38.1655 41.7312 38.1752 41.8228C38.1848 41.9144 38.1761 42.007 38.1496 42.0953C38.1231 42.1835 38.0793 42.2655 38.0207 42.3366C37.9482 42.4299 30.4456 51.7459 31.5233 59.6734C31.7136 61.0978 32.2059 62.4651 32.9672 63.6839C33.7285 64.9027 34.7413 65.945 35.9378 66.7408C40.3316 69.8496 43.544 69.6424 43.5751 69.6321H43.6995C43.6995 69.6321 46.9326 69.86 51.3264 66.7408C52.5834 65.8611 53.6424 64.728 54.4352 63.4144C54.4821 63.3361 54.544 63.2677 54.6173 63.2133C54.6906 63.1589 54.7739 63.1196 54.8625 63.0974C54.951 63.0753 55.0431 63.0711 55.1334 63.0845C55.2236 63.098 55.3104 63.1291 55.3886 63.1761C55.4678 63.2222 55.537 63.2833 55.5924 63.3562C55.6478 63.4292 55.6882 63.5123 55.7114 63.6009C55.7345 63.6895 55.7398 63.7819 55.7271 63.8726C55.7144 63.9633 55.6839 64.0506 55.6373 64.1294C54.7313 65.6139 53.5239 66.892 52.0933 67.8808C47.5337 71.114 44.114 71.0622 43.5958 70.9896L43.3679 71Z" fill="#333333"/>
<path d="M45.2642 62.5035H42.0207C41.2512 62.5035 40.5131 62.1978 39.969 61.6537C39.4248 61.1095 39.1191 60.3717 39.1191 59.6021C39.1191 59.417 39.1919 59.2391 39.3219 59.1073C39.4518 58.9754 39.6284 58.9 39.8134 58.8973C39.906 58.8973 39.9976 58.9155 40.0831 58.9509C40.1686 58.9863 40.2463 59.0383 40.3117 59.1037C40.3771 59.1692 40.4291 59.2469 40.4645 59.3324C40.4999 59.4179 40.5181 59.5096 40.5181 59.6021C40.5181 60.0006 40.6764 60.3827 40.9582 60.6645C41.24 60.9462 41.6222 61.1047 42.0207 61.1047H45.2642C45.6637 61.1047 46.047 60.9467 46.3304 60.6652C46.6138 60.3837 46.7744 60.0016 46.7772 59.6021V58.2964C46.7744 57.897 46.6138 57.5146 46.3304 57.2331C46.047 56.9516 45.6637 56.7936 45.2642 56.7936H42.0207C41.2512 56.7936 40.5131 56.488 39.969 55.9438C39.4248 55.3997 39.1191 54.6618 39.1191 53.8923V52.5969C39.1191 52.2159 39.1942 51.8386 39.34 51.4865C39.4858 51.1345 39.6995 50.8146 39.969 50.5451C40.2384 50.2757 40.5583 50.062 40.9103 49.9162C41.2623 49.7704 41.6397 49.6953 42.0207 49.6953H45.2642C45.6461 49.694 46.0245 49.768 46.3778 49.9132C46.731 50.0584 47.0521 50.2718 47.3226 50.5413C47.5932 50.8109 47.8078 51.1313 47.9543 51.484C48.1007 51.8367 48.1761 52.215 48.1761 52.5969C48.1734 52.782 48.098 52.9586 47.9661 53.0885C47.8343 53.2184 47.6566 53.2912 47.4715 53.2912C47.2873 53.2912 47.1107 53.218 46.9805 53.0877C46.8503 52.9575 46.7772 52.7811 46.7772 52.5969C46.7744 52.1975 46.6138 51.8151 46.3304 51.5336C46.047 51.2521 45.6637 51.0941 45.2642 51.0941H42.0207C41.6222 51.0941 41.24 51.2526 40.9582 51.5344C40.6764 51.8161 40.5181 52.1984 40.5181 52.5969V53.8923C40.5181 54.2908 40.6764 54.6728 40.9582 54.9546C41.24 55.2364 41.6222 55.3948 42.0207 55.3948H45.2642C46.0347 55.3948 46.7738 55.7 47.3196 56.2439C47.8654 56.7877 48.1734 57.5259 48.1761 58.2964V59.6021C48.1734 60.3726 47.8654 61.1106 47.3196 61.6544C46.7738 62.1983 46.0347 62.5035 45.2642 62.5035Z" fill="#333333"/>
<path d="M43.6166 51.0931C43.5237 51.0945 43.4314 51.0774 43.3453 51.0425C43.2592 51.0076 43.1809 50.9556 43.1152 50.8899C43.0495 50.8242 42.9977 50.7461 42.9627 50.66C42.9278 50.5738 42.9105 50.4814 42.9119 50.3885V48.1502C42.9105 48.0573 42.9278 47.9649 42.9627 47.8788C42.9977 47.7926 43.0495 47.7145 43.1152 47.6488C43.1809 47.5831 43.2592 47.5312 43.3453 47.4962C43.4314 47.4613 43.5237 47.444 43.6166 47.4454C43.7087 47.4454 43.7998 47.4637 43.8847 47.4993C43.9696 47.5348 44.0466 47.587 44.1112 47.6526C44.1759 47.7182 44.2268 47.7959 44.2611 47.8813C44.2953 47.9667 44.3123 48.0582 44.3109 48.1502V50.3885C44.3123 50.4805 44.2953 50.572 44.2611 50.6574C44.2268 50.7429 44.1759 50.8206 44.1112 50.8861C44.0466 50.9517 43.9696 51.0039 43.8847 51.0394C43.7998 51.075 43.7087 51.0931 43.6166 51.0931Z" fill="#333333"/>
<path d="M43.6165 64.7409C43.5245 64.7423 43.4331 64.7253 43.3476 64.6911C43.2622 64.6568 43.1844 64.6059 43.1189 64.5413C43.0533 64.4767 43.0012 64.3995 42.9657 64.3146C42.9301 64.2297 42.9119 64.1385 42.9119 64.0464V61.7978C42.9119 61.7058 42.9301 61.6146 42.9657 61.5296C43.0012 61.4447 43.0533 61.3678 43.1189 61.3032C43.1844 61.2386 43.2622 61.1877 43.3476 61.1534C43.4331 61.1192 43.5245 61.1022 43.6165 61.1036C43.8007 61.1036 43.9773 61.1768 44.1075 61.307C44.2377 61.4372 44.3108 61.6137 44.3108 61.7978V64.0464C44.3108 64.2306 44.2377 64.4073 44.1075 64.5375C43.9773 64.6677 43.8007 64.7409 43.6165 64.7409Z" fill="#333333"/>
<path d="M59.1502 63.4241C58.9829 63.4274 58.8203 63.3681 58.6942 63.2581L51.2745 56.9059C51.1985 56.8406 51.1378 56.7594 51.0966 56.6681C51.0554 56.5768 51.0348 56.4776 51.0362 56.3774C51.0348 56.2772 51.0554 56.178 51.0966 56.0867C51.1378 55.9954 51.1985 55.9142 51.2745 55.8489L58.6942 49.4967C58.796 49.4106 58.9202 49.3551 59.0523 49.3368C59.1844 49.3184 59.3189 49.3379 59.4403 49.393C59.5612 49.4485 59.6635 49.5377 59.7352 49.6497C59.8068 49.7618 59.8448 49.8922 59.8445 50.0252V52.1597H69.8652C70.0503 52.1597 70.228 52.2327 70.3599 52.3626C70.4917 52.4925 70.5672 52.6691 70.5699 52.8542C70.5672 53.0402 70.4921 53.2177 70.3605 53.3493C70.229 53.4809 70.0513 53.5561 69.8652 53.5588H59.1502C58.9633 53.5588 58.7841 53.4845 58.6519 53.3523C58.5198 53.2202 58.4455 53.0411 58.4455 52.8542V51.5485L52.8082 56.3774L58.4455 61.2063V59.9006C58.4455 59.8086 58.4638 59.7176 58.4994 59.6327C58.5349 59.5478 58.587 59.4706 58.6525 59.406C58.7181 59.3414 58.7959 59.2905 58.8813 59.2562C58.9667 59.222 59.0581 59.205 59.1502 59.2064H70.1346C70.3188 59.2064 70.4954 59.2796 70.6256 59.4098C70.7558 59.54 70.8289 59.7165 70.8289 59.9006C70.8289 60.0848 70.7558 60.2615 70.6256 60.3917C70.4954 60.5219 70.3188 60.5951 70.1346 60.5951H59.8652V62.7296C59.8655 62.8626 59.8275 62.993 59.7559 63.1051C59.6842 63.2171 59.5819 63.3063 59.4611 63.3618C59.3632 63.4049 59.2571 63.4262 59.1502 63.4241Z" fill="#333333"/>
</g>
<defs>
<clipPath id="clip0_1307_206083">
<rect width="40.8187" height="42" fill="white" transform="translate(30 29)"/>
</clipPath>
</defs>
</svg>
