<svg width="100" height="100" viewBox="0 0 100 100" fill="none" xmlns="http://www.w3.org/2000/svg">
<circle cx="50" cy="50" r="50" fill="#F2F6FB"/>
<g clip-path="url(#clip0_1401_247855)">
<path d="M68.5799 36.3594H32.3799V63.6694H68.5799V36.3594Z" fill="white"/>
<path d="M42.8199 50.3906H37.9399V58.8006H42.8199V50.3906Z" fill="#235AB0"/>
<path d="M56.1499 47.9805H51.1599V58.8005H56.1499V47.9805Z" fill="#235AB0"/>
<path d="M49.6101 45.6699H44.6101V58.5399H49.6101V45.6699Z" fill="#235AB0"/>
<path d="M63.2701 43.5898H57.8301V58.5398H63.2701V43.5898Z" fill="#235AB0"/>
<path d="M63.35 60.9804H37.58C37.5131 60.9831 37.4462 60.9723 37.3833 60.9491C37.3204 60.926 37.2627 60.8906 37.2135 60.8451C37.1642 60.7996 37.1245 60.7449 37.0964 60.684C37.0684 60.6231 37.0526 60.5574 37.05 60.4904C37.0526 60.4234 37.0684 60.3574 37.0964 60.2966C37.1245 60.2357 37.1642 60.1809 37.2135 60.1354C37.2627 60.0899 37.3204 60.0546 37.3833 60.0314C37.4462 60.0082 37.5131 59.9977 37.58 60.0004H63.35C63.417 59.9977 63.4839 60.0082 63.5468 60.0314C63.6097 60.0546 63.6674 60.0899 63.7166 60.1354C63.7659 60.1809 63.8056 60.2357 63.8337 60.2966C63.8617 60.3574 63.8775 60.4234 63.88 60.4904C63.8775 60.5574 63.8617 60.6231 63.8337 60.684C63.8056 60.7449 63.7659 60.7996 63.7166 60.8451C63.6674 60.8906 63.6097 60.926 63.5468 60.9491C63.4839 60.9723 63.417 60.9831 63.35 60.9804Z" fill="#333333"/>
<path d="M43.0101 59.1308H37.8601C37.7931 59.1335 37.7262 59.123 37.6633 59.0998C37.6004 59.0766 37.5427 59.0413 37.4935 58.9958C37.4443 58.9503 37.4045 58.8953 37.3764 58.8344C37.3484 58.7735 37.3327 58.7078 37.3301 58.6408V50.4709C37.3327 50.4039 37.3484 50.3379 37.3764 50.277C37.4045 50.2161 37.4443 50.1614 37.4935 50.1159C37.5427 50.0704 37.6004 50.0351 37.6633 50.0119C37.7262 49.9887 37.7931 49.9782 37.8601 49.9809H43.0101C43.0771 49.9782 43.1439 49.9887 43.2068 50.0119C43.2697 50.0351 43.3274 50.0704 43.3767 50.1159C43.4259 50.1614 43.4657 50.2161 43.4937 50.277C43.5217 50.3379 43.5375 50.4039 43.5401 50.4709V58.6408C43.5375 58.7078 43.5217 58.7735 43.4937 58.8344C43.4657 58.8953 43.4259 58.9503 43.3767 58.9958C43.3274 59.0413 43.2697 59.0766 43.2068 59.0998C43.1439 59.123 43.0771 59.1335 43.0101 59.1308ZM38.3901 58.1308H42.4801V50.9408H38.3901V58.1308Z" fill="#333333"/>
<path d="M49.7 59.1303H44.54C44.473 59.133 44.4062 59.1225 44.3433 59.0993C44.2804 59.0761 44.2226 59.0408 44.1734 58.9953C44.1242 58.9498 44.0844 58.8948 44.0564 58.8339C44.0283 58.773 44.0126 58.7073 44.01 58.6403V45.8302C44.0126 45.7633 44.0283 45.6975 44.0564 45.6366C44.0844 45.5757 44.1242 45.521 44.1734 45.4755C44.2226 45.43 44.2804 45.3944 44.3433 45.3713C44.4062 45.3481 44.473 45.3376 44.54 45.3403H49.7C49.767 45.3376 49.8339 45.3481 49.8968 45.3713C49.9597 45.3944 50.0174 45.43 50.0666 45.4755C50.1158 45.521 50.1556 45.5757 50.1836 45.6366C50.2117 45.6975 50.2274 45.7633 50.23 45.8302V58.6503C50.2223 58.7838 50.1624 58.9089 50.0632 58.9987C49.9641 59.0885 49.8336 59.1358 49.7 59.1303ZM45.07 58.1303H49.18V46.2902H45.08L45.07 58.1303Z" fill="#333333"/>
<path d="M56.38 59.1298H51.23C51.163 59.1325 51.0961 59.122 51.0332 59.0988C50.9703 59.0756 50.9126 59.0403 50.8634 58.9948C50.8141 58.9493 50.7744 58.8943 50.7463 58.8334C50.7183 58.7725 50.7025 58.7068 50.7 58.6398V47.8498C50.7025 47.7828 50.7183 47.7171 50.7463 47.6562C50.7744 47.5953 50.8141 47.5405 50.8634 47.495C50.9126 47.4495 50.9703 47.414 51.0332 47.3908C51.0961 47.3676 51.163 47.3571 51.23 47.3598H56.38C56.4469 47.3571 56.5138 47.3676 56.5767 47.3908C56.6396 47.414 56.6973 47.4495 56.7465 47.495C56.7958 47.5405 56.8355 47.5953 56.8636 47.6562C56.8916 47.7171 56.9074 47.7828 56.91 47.8498V58.6398C56.9074 58.7068 56.8916 58.7725 56.8636 58.8334C56.8355 58.8943 56.7958 58.9493 56.7465 58.9948C56.6973 59.0403 56.6396 59.0756 56.5767 59.0988C56.5138 59.122 56.4469 59.1325 56.38 59.1298ZM51.76 58.1298H55.86V48.3097H51.76V58.1298Z" fill="#333333"/>
<path d="M63.0699 59.1308H57.9199C57.8529 59.1335 57.786 59.123 57.7231 59.0998C57.6602 59.0766 57.6025 59.0413 57.5533 58.9958C57.5041 58.9503 57.4643 58.8953 57.4363 58.8344C57.4082 58.7735 57.3925 58.7078 57.3899 58.6408V43.6408C57.3925 43.5738 57.4082 43.5081 57.4363 43.4472C57.4643 43.3863 57.5041 43.3313 57.5533 43.2858C57.6025 43.2403 57.6602 43.205 57.7231 43.1818C57.786 43.1586 57.8529 43.1481 57.9199 43.1508H63.0699C63.1369 43.1481 63.2037 43.1586 63.2666 43.1818C63.3295 43.205 63.3873 43.2403 63.4365 43.2858C63.4857 43.3313 63.5255 43.3863 63.5535 43.4472C63.5816 43.5081 63.5973 43.5738 63.5999 43.6408V58.6408C63.5973 58.7078 63.5816 58.7735 63.5535 58.8344C63.5255 58.8953 63.4857 58.9503 63.4365 58.9958C63.3873 59.0413 63.3295 59.0766 63.2666 59.0998C63.2037 59.123 63.1369 59.1335 63.0699 59.1308ZM58.4499 58.1308H62.5399V44.1308H58.4499V58.1308Z" fill="#333333"/>
<path d="M68.4 64.2199H32.53C32.463 64.2226 32.3962 64.2118 32.3333 64.1886C32.2703 64.1655 32.2126 64.1301 32.1634 64.0846C32.1142 64.0391 32.0744 63.9844 32.0464 63.9235C32.0183 63.8626 32.0026 63.7969 32 63.7299V39.8498C32.0026 39.7828 32.0183 39.7171 32.0464 39.6562C32.0744 39.5953 32.1142 39.5405 32.1634 39.495C32.2126 39.4495 32.2703 39.414 32.3333 39.3908C32.3962 39.3676 32.463 39.3571 32.53 39.3598H68.4C68.467 39.3571 68.5338 39.3676 68.5967 39.3908C68.6597 39.414 68.7174 39.4495 68.7666 39.495C68.8158 39.5405 68.8556 39.5953 68.8836 39.6562C68.9117 39.7171 68.9274 39.7828 68.93 39.8498V63.7299C68.9274 63.7969 68.9117 63.8626 68.8836 63.9235C68.8556 63.9844 68.8158 64.0391 68.7666 64.0846C68.7174 64.1301 68.6597 64.1655 68.5967 64.1886C68.5338 64.2118 68.467 64.2226 68.4 64.2199ZM33.06 63.2199H67.87V40.3197H33.06V63.2199Z" fill="#333333"/>
<path d="M68.4 40.3403H32.53C32.463 40.3429 32.3962 40.3324 32.3333 40.3092C32.2703 40.2861 32.2126 40.2508 32.1634 40.2052C32.1142 40.1597 32.0744 40.105 32.0464 40.0441C32.0183 39.9832 32.0026 39.9173 32 39.8503V36.4904C32.0026 36.4234 32.0183 36.3574 32.0464 36.2966C32.0744 36.2357 32.1142 36.1809 32.1634 36.1354C32.2126 36.0899 32.2703 36.0546 32.3333 36.0314C32.3962 36.0082 32.463 35.9977 32.53 36.0004H68.4C68.467 35.9977 68.5338 36.0082 68.5967 36.0314C68.6597 36.0546 68.7174 36.0899 68.7666 36.1354C68.8158 36.1809 68.8556 36.2357 68.8836 36.2966C68.9117 36.3574 68.9274 36.4234 68.93 36.4904V39.8503C68.9274 39.9173 68.9117 39.9832 68.8836 40.0441C68.8556 40.105 68.8158 40.1597 68.7666 40.2052C68.7174 40.2508 68.6597 40.2861 68.5967 40.3092C68.5338 40.3324 68.467 40.3429 68.4 40.3403ZM33.06 39.3403H67.87V36.9604H33.06V39.3403Z" fill="#333333"/>
<path d="M66.1201 38.6601H64.6201C64.5531 38.6628 64.4862 38.6523 64.4233 38.6291C64.3604 38.6059 64.3027 38.5703 64.2535 38.5248C64.2043 38.4793 64.1645 38.4246 64.1365 38.3637C64.1084 38.3028 64.0927 38.2371 64.0901 38.1701C64.0927 38.1031 64.1084 38.0371 64.1365 37.9762C64.1645 37.9153 64.2043 37.8606 64.2535 37.8151C64.3027 37.7696 64.3604 37.7343 64.4233 37.7111C64.4862 37.6879 64.5531 37.6774 64.6201 37.6801H66.1201C66.1871 37.6774 66.2539 37.6879 66.3168 37.7111C66.3797 37.7343 66.4375 37.7696 66.4867 37.8151C66.5359 37.8606 66.5757 37.9153 66.6037 37.9762C66.6318 38.0371 66.6475 38.1031 66.6501 38.1701C66.6475 38.2371 66.6318 38.3028 66.6037 38.3637C66.5757 38.4246 66.5359 38.4793 66.4867 38.5248C66.4375 38.5703 66.3797 38.6059 66.3168 38.6291C66.2539 38.6523 66.1871 38.6628 66.1201 38.6601Z" fill="#333333"/>
<path d="M62.1799 38.6601H60.6799C60.6129 38.6628 60.5461 38.6523 60.4832 38.6291C60.4203 38.6059 60.3625 38.5703 60.3133 38.5248C60.2641 38.4793 60.2243 38.4246 60.1963 38.3637C60.1682 38.3028 60.1525 38.2371 60.1499 38.1701C60.1525 38.1031 60.1682 38.0371 60.1963 37.9762C60.2243 37.9153 60.2641 37.8606 60.3133 37.8151C60.3625 37.7696 60.4203 37.7343 60.4832 37.7111C60.5461 37.6879 60.6129 37.6774 60.6799 37.6801H62.1799C62.2469 37.6774 62.3137 37.6879 62.3766 37.7111C62.4396 37.7343 62.4973 37.7696 62.5465 37.8151C62.5957 37.8606 62.6355 37.9153 62.6635 37.9762C62.6916 38.0371 62.7073 38.1031 62.7099 38.1701C62.7073 38.2371 62.6916 38.3028 62.6635 38.3637C62.6355 38.4246 62.5957 38.4793 62.5465 38.5248C62.4973 38.5703 62.4396 38.6059 62.3766 38.6291C62.3137 38.6523 62.2469 38.6628 62.1799 38.6601Z" fill="#333333"/>
<path d="M58.1801 38.6591H56.6801C56.6122 38.6578 56.5453 38.6431 56.4833 38.6156C56.4212 38.5882 56.3653 38.5485 56.3187 38.4992C56.2722 38.4498 56.2359 38.3916 56.2121 38.328C56.1883 38.2645 56.1774 38.1969 56.1801 38.1291C56.1827 38.0621 56.1984 37.9964 56.2265 37.9355C56.2545 37.8746 56.2943 37.8196 56.3435 37.7741C56.3927 37.7286 56.4504 37.6933 56.5133 37.6701C56.5762 37.6469 56.6431 37.6364 56.7101 37.6391H58.1801C58.2471 37.6364 58.3139 37.6469 58.3768 37.6701C58.4397 37.6933 58.4974 37.7286 58.5467 37.7741C58.5959 37.8196 58.6357 37.8746 58.6637 37.9355C58.6917 37.9964 58.7075 38.0621 58.7101 38.1291C58.7129 38.1994 58.7011 38.2695 58.6755 38.3351C58.6498 38.4007 58.6109 38.4604 58.5611 38.5102C58.5113 38.56 58.4518 38.5988 58.3862 38.6244C58.3206 38.6501 58.2504 38.6619 58.1801 38.6591Z" fill="#333333"/>
</g>
<defs>
<clipPath id="clip0_1401_247855">
<rect width="36.93" height="28.22" fill="white" transform="translate(32 36)"/>
</clipPath>
</defs>
</svg>
