<svg width="100" height="100" viewBox="0 0 100 100" fill="none" xmlns="http://www.w3.org/2000/svg">
<circle cx="50" cy="50" r="50" fill="#F2F6FB"/>
<g clip-path="url(#clip0_1988_380421)">
<path d="M29.0393 36.2919L70.0593 36.1719L71.7993 37.5619L71.4993 48.6419L69.8493 49.2619L52.4993 50.7619L52.0293 48.1919L47.5293 48.0819L46.6593 50.5819L27.5293 48.6419L27.6793 36.8519L29.0393 36.2919Z" fill="#235AB0"/>
<path d="M29.4397 49.0003L39.9197 50.3403L47.0597 50.5603V48.0703L52.0297 48.1903V50.8003L70.5097 49.1003L70.0097 67.8103L68.7897 68.8903H30.2297L28.6797 67.5103L29.4397 49.0003Z" fill="white"/>
<path d="M68.4809 69.4089H30.6609C30.0579 69.4089 29.4795 69.1701 29.0522 68.7446C28.6249 68.3192 28.3835 67.7419 28.3809 67.1389V48.9988C28.3809 48.8582 28.4367 48.7234 28.5361 48.624C28.6355 48.5246 28.7703 48.4688 28.9109 48.4688C29.0514 48.4688 29.1862 48.5246 29.2856 48.624C29.385 48.7234 29.4409 48.8582 29.4409 48.9988V67.1389C29.4435 67.4607 29.5732 67.7685 29.8017 67.9951C30.0302 68.2218 30.339 68.3489 30.6609 68.3489H68.4809C68.8018 68.3489 69.1095 68.2213 69.3365 67.9944C69.5634 67.7675 69.6909 67.4598 69.6909 67.1389V48.9988C69.6909 48.8582 69.7467 48.7234 69.8461 48.624C69.9455 48.5246 70.0803 48.4688 70.2209 48.4688C70.3614 48.4688 70.4962 48.5246 70.5956 48.624C70.695 48.7234 70.7509 48.8582 70.7509 48.9988V67.1389C70.7509 67.741 70.5117 68.3182 70.086 68.7439C69.6603 69.1696 69.0829 69.4089 68.4809 69.4089Z" fill="#333333"/>
<path d="M52.13 51.1819C51.9911 51.1819 51.8578 51.1273 51.7587 51.03C51.6596 50.9328 51.6026 50.8007 51.6 50.6619C51.5987 50.5927 51.6111 50.524 51.6367 50.4597C51.6622 50.3955 51.7003 50.3369 51.7487 50.2876C51.7971 50.2382 51.8549 50.1991 51.9187 50.1724C51.9824 50.1456 52.0509 50.1318 52.12 50.1318C58.4047 49.9983 64.6713 49.4067 70.87 48.3618C70.9283 48.3504 70.9809 48.3194 71.0191 48.2739C71.0573 48.2284 71.0788 48.1712 71.08 48.1118V37.9419C71.0774 37.6201 70.9477 37.3123 70.7192 37.0857C70.4906 36.8591 70.1818 36.7317 69.86 36.7317H29.27C28.9491 36.7317 28.6413 36.8593 28.4144 37.0862C28.1875 37.3131 28.06 37.621 28.06 37.9419V48.1118C28.0588 48.1703 28.0782 48.2273 28.1147 48.2729C28.1513 48.3186 28.2027 48.3501 28.26 48.3618C34.4621 49.4062 40.732 49.9978 47.02 50.1318C47.0887 50.1318 47.1567 50.1455 47.2199 50.1724C47.2831 50.1992 47.3403 50.2386 47.3879 50.2881C47.4355 50.3376 47.4727 50.3962 47.4971 50.4604C47.5215 50.5247 47.5327 50.5932 47.53 50.6619C47.5314 50.7314 47.5186 50.8004 47.4923 50.8647C47.4661 50.9291 47.4269 50.9874 47.3773 51.0361C47.3276 51.0848 47.2686 51.1229 47.2037 51.1479C47.1388 51.173 47.0695 51.1846 47 51.1819C40.6611 51.0604 34.3402 50.4654 28.09 49.4019C27.7853 49.35 27.5088 49.1919 27.3094 48.9558C27.1099 48.7197 27.0003 48.4209 27 48.1118V37.9419C27 37.3399 27.2392 36.7624 27.6649 36.3367C28.0906 35.911 28.668 35.6719 29.27 35.6719H69.86C70.463 35.6719 71.0414 35.9105 71.4687 36.3359C71.896 36.7614 72.1374 37.3389 72.14 37.9419V48.1118C72.1397 48.4209 72.0301 48.7197 71.8306 48.9558C71.6312 49.1919 71.3547 49.35 71.05 49.4019C64.7997 50.4644 58.4788 51.0595 52.14 51.1819H52.13Z" fill="#333333"/>
<path d="M51.6001 53.7681H47.5201C47.3803 53.7752 47.2405 53.7531 47.1099 53.7029C46.9793 53.6527 46.8606 53.5755 46.7616 53.4766C46.6627 53.3776 46.5856 53.2588 46.5354 53.1282C46.4851 52.9975 46.4629 52.8578 46.4701 52.718V48.6382C46.4701 48.3588 46.5804 48.0906 46.777 47.8921C46.9736 47.6936 47.2407 47.5808 47.5201 47.5781H51.6001C51.8707 47.5935 52.1251 47.7118 52.3111 47.9089C52.4971 48.1061 52.6005 48.3671 52.6001 48.6382V52.718C52.6068 52.8535 52.586 52.9891 52.5388 53.1162C52.4916 53.2434 52.419 53.3595 52.3255 53.4578C52.2319 53.556 52.1194 53.6341 51.9947 53.6875C51.87 53.7409 51.7357 53.7682 51.6001 53.7681ZM47.5201 48.6382V52.718H51.6001V48.6482L47.5201 48.6382Z" fill="#333333"/>
<path d="M59.1697 36.7317C59.1005 36.7317 59.0321 36.7179 58.9684 36.6912C58.9046 36.6644 58.8468 36.6253 58.7984 36.5759C58.75 36.5266 58.7119 36.4681 58.6864 36.4038C58.6608 36.3396 58.6484 36.271 58.6497 36.2019V32.5818C58.647 32.1804 58.4857 31.7963 58.201 31.5134C57.9162 31.2305 57.5311 31.0718 57.1297 31.0718H41.9997C41.6 31.0744 41.2175 31.2342 40.9349 31.5168C40.6522 31.7995 40.4923 32.1821 40.4897 32.5818V36.2117C40.4897 36.2813 40.476 36.3502 40.4493 36.4146C40.4227 36.4789 40.3837 36.5375 40.3345 36.5867C40.2852 36.6359 40.2268 36.6748 40.1625 36.7014C40.0982 36.7281 40.0293 36.7417 39.9597 36.7417C39.8901 36.7417 39.8212 36.7281 39.7569 36.7014C39.6926 36.6748 39.6341 36.6359 39.5849 36.5867C39.5357 36.5375 39.4967 36.4789 39.47 36.4146C39.4434 36.3502 39.4297 36.2813 39.4297 36.2117V32.5818C39.4297 32.2443 39.4962 31.9102 39.6253 31.5984C39.7545 31.2866 39.9438 31.0031 40.1824 30.7644C40.4211 30.5258 40.7044 30.3367 41.0162 30.2075C41.328 30.0784 41.6622 30.0117 41.9997 30.0117H57.1297C57.8113 30.0117 58.465 30.2824 58.9469 30.7644C59.4289 31.2464 59.6997 31.9002 59.6997 32.5818V36.2117C59.6971 36.3505 59.6401 36.4828 59.541 36.5801C59.4418 36.6773 59.3085 36.7317 59.1697 36.7317Z" fill="#333333"/>
</g>
<defs>
<clipPath id="clip0_1988_380421">
<rect width="45.14" height="39.41" fill="white" transform="translate(27 30)"/>
</clipPath>
</defs>
</svg>
