<svg width="24" height="16" viewBox="0 0 24 16" fill="none" xmlns="http://www.w3.org/2000/svg">
<g clip-path="url(#clip0_1042_173864)">
<path d="M24 0.5H0V15.5H24V0.5Z" fill="#CB1D23"/>
<path d="M2.30919 5.92918L2.75985 4.4324L1.57812 3.50429L3.04526 3.49892L3.50093 2.00751L3.95659 3.49892L5.42373 3.50429L4.237 4.4324L4.68766 5.92918L3.50093 5.00643L2.30919 5.92918Z" fill="#F7DE29"/>
<path d="M6.39993 6.7393L6.89565 6.95389L7.24116 6.51398L7.20611 7.08265L7.70183 7.3026L7.18107 7.44209L7.14602 8.00539L6.8606 7.52256L6.33984 7.66205L6.68535 7.22213L6.39993 6.7393Z" fill="#F7DE29"/>
<path d="M9.08319 3.85836L8.55742 3.76179L8.30706 4.26608L8.23195 3.70278L7.70117 3.59548L8.18187 3.3487L8.11177 2.78003L8.48231 3.18775L8.96301 2.94097L8.71265 3.45063L9.08319 3.85836Z" fill="#F7DE29"/>
<path d="M7.96656 6.42277L8.1318 5.88092L7.70117 5.53757H8.23195L8.39719 4.99573L8.56744 5.53757H9.09821L8.66758 5.88092L8.83282 6.42277L8.39719 6.09015L7.96656 6.42277Z" fill="#F7DE29"/>
<path d="M6.42937 1.44957L6.91007 1.69635L7.27561 1.27789L7.21552 1.8412L7.69622 2.08798L7.17045 2.19528L7.10536 2.76394L6.84498 2.26502L6.32422 2.37231L6.68474 1.95386L6.42937 1.44957Z" fill="#F7DE29"/>
</g>
<defs>
<clipPath id="clip0_1042_173864">
<rect width="24" height="15" fill="white" transform="translate(0 0.5)"/>
</clipPath>
</defs>
</svg>
