<svg width="90" height="90" viewBox="0 0 90 90" fill="none" xmlns="http://www.w3.org/2000/svg">
<circle cx="45" cy="45" r="45" fill="#5F9BD2"/>
<path d="M63.06 53.9683V63.1583C63.06 63.5883 62.97 63.9983 62.81 64.3783C62.65 64.7483 62.42 65.0983 62.14 65.3783C61.85 65.6583 61.51 65.8883 61.14 66.0483C60.76 66.2083 60.35 66.2983 59.92 66.2983H41.74C41.31 66.2983 40.83 66.2383 40.34 66.1283C39.85 66.0183 39.35 65.8483 38.86 65.6483C38.37 65.4483 37.9 65.2083 37.48 64.9383C37.05 64.6683 36.67 64.3783 36.37 64.0783L34.4 62.1083L32.42 60.1383L30.45 58.1683L28.48 56.1883C28.17 55.8883 27.88 55.4983 27.62 55.0783C27.35 54.6483 27.11 54.1783 26.91 53.6983C26.71 53.2083 26.55 52.7083 26.43 52.2183C26.32 51.7283 26.26 51.2583 26.26 50.8183V26.3883C26.26 25.9583 26.35 25.5483 26.51 25.1683C26.67 24.7883 26.9 24.4583 27.18 24.1683C27.47 23.8783 27.8 23.6483 28.18 23.4883C28.56 23.3283 28.97 23.2383 29.4 23.2383H59.93C60.36 23.2383 60.77 23.3283 61.15 23.4883C61.52 23.6483 61.86 23.8783 62.15 24.1683C62.43 24.4483 62.66 24.7883 62.82 25.1683C62.98 25.5483 63.07 25.9583 63.07 26.3883V53.9683H63.06Z" fill="#5F9BD2" stroke="white" stroke-linecap="round" stroke-linejoin="round"/>
<path d="M35.4501 53.957C37.1801 53.957 38.5901 55.367 38.5901 57.097V63.157C38.5901 64.887 37.5901 65.297 36.3701 64.077L28.4701 56.177C27.2501 54.957 27.6601 53.957 29.3901 53.957H35.4501Z" fill="#5F9BD2" stroke="white" stroke-linecap="round" stroke-linejoin="round"/>
<path d="M54.19 39.6598H50.01C49.17 39.6598 48.49 38.9798 48.49 38.1398V35.6098C48.49 34.7698 49.17 34.0898 50.01 34.0898H54.19C55.03 34.0898 55.71 34.7698 55.71 35.6098" stroke="white" stroke-width="2.5" stroke-linecap="round" stroke-linejoin="round"/>
<path d="M50.01 39.6602H54.19C55.03 39.6602 55.71 40.3402 55.71 41.1802V43.7102C55.71 44.5502 55.03 45.2302 54.19 45.2302H50.01C49.17 45.2302 48.49 44.5502 48.49 43.7102" stroke="white" stroke-width="2.5" stroke-linecap="round" stroke-linejoin="round"/>
<path d="M52.1001 33.3805V31.2305" stroke="white" stroke-width="2.5" stroke-linecap="round" stroke-linejoin="round"/>
<path d="M52.1001 48.0897V45.9297" stroke="white" stroke-width="2.5" stroke-linecap="round" stroke-linejoin="round"/>
<path d="M35.3801 37.0703V44.7803" stroke="white" stroke-width="2.5" stroke-linecap="round" stroke-linejoin="round"/>
<path d="M31.52 40.9219H39.23" stroke="white" stroke-width="2.5" stroke-linecap="round" stroke-linejoin="round"/>
</svg>
