<svg width="90" height="91" viewBox="0 0 90 91" fill="none" xmlns="http://www.w3.org/2000/svg">
<circle cx="45" cy="45.1641" r="45" fill="#FAFAFA"/>
<g clip-path="url(#clip0_1080_171873)">
<path d="M25.2598 70.7619L25.5798 67.6419L29.2498 63.8519L28.1798 60.5619L30.5598 57.0519H32.8598L35.4798 59.6719L35.0498 63.8519L34.6298 64.7619L37.9098 67.6419L41.7698 64.3619L40.4798 61.1519L41.3398 58.2319L44.4098 56.6719L47.3798 58.8719L47.6498 62.2419L46.4998 64.4119L50.2698 67.6419L53.9398 64.2019L52.4098 60.8019L54.0698 57.5619L56.7198 56.6719L59.4298 58.6619L60.1198 61.8919L58.5298 64.3419L62.5498 67.7919V70.9019L25.2598 70.7619Z" fill="white"/>
<path d="M38.0098 71.4004C37.8772 71.4004 37.75 71.3477 37.6562 71.2539C37.5625 71.1601 37.5098 71.033 37.5098 70.9004V68.0203L33.9398 64.7803C33.8482 64.6868 33.7969 64.5613 33.7969 64.4304C33.7969 64.2995 33.8482 64.1738 33.9398 64.0803C34.0333 63.9887 34.1589 63.9375 34.2898 63.9375C34.4207 63.9375 34.5463 63.9887 34.6398 64.0803L38.3798 67.4604C38.4298 67.5084 38.4696 67.5656 38.4971 67.6292C38.5246 67.6927 38.5391 67.7611 38.5398 67.8303V70.9304C38.5373 70.9966 38.5215 71.0615 38.4932 71.1213C38.4649 71.1812 38.4248 71.2346 38.3753 71.2786C38.3257 71.3225 38.2678 71.356 38.205 71.377C38.1422 71.3979 38.0758 71.4058 38.0098 71.4004Z" fill="#333333"/>
<path d="M31.9496 65.9395C29.6896 65.9395 27.8496 63.7894 27.8496 61.1494C27.8496 58.5094 29.6896 56.3594 31.9496 56.3594C34.2096 56.3594 36.0396 58.5094 36.0396 61.1494C36.0396 63.7894 34.2096 65.9395 31.9496 65.9395ZM31.9496 57.3494C30.2396 57.3494 28.8396 59.0494 28.8396 61.1494C28.8396 63.2494 30.2396 64.9495 31.9496 64.9495C33.6596 64.9495 35.0496 63.2394 35.0496 61.1494C35.0496 59.0594 33.6596 57.3494 31.9496 57.3494Z" fill="#333333"/>
<path d="M50.2009 71.4004C50.0683 71.4004 49.9411 71.3477 49.8473 71.2539C49.7536 71.1601 49.7009 71.033 49.7009 70.9004V68.0203L46.3109 64.9604C46.2193 64.867 46.168 64.7412 46.168 64.6104C46.168 64.4795 46.2193 64.354 46.3109 64.2605C46.3565 64.2139 46.411 64.1769 46.4711 64.1516C46.5312 64.1264 46.5957 64.1133 46.6609 64.1133C46.7261 64.1133 46.7906 64.1264 46.8507 64.1516C46.9108 64.1769 46.9653 64.2139 47.0109 64.2605L50.5709 67.4604C50.6209 67.5084 50.6607 67.5656 50.6882 67.6292C50.7157 67.6927 50.7302 67.7611 50.7309 67.8303V70.9304C50.7284 70.9966 50.7126 71.0615 50.6843 71.1213C50.656 71.1812 50.6159 71.2346 50.5664 71.2786C50.5168 71.3225 50.4589 71.356 50.3961 71.377C50.3333 71.3979 50.2669 71.4058 50.2009 71.4004Z" fill="#333333"/>
<path d="M38.011 68.2986C37.9418 68.2979 37.8734 68.2836 37.8098 68.2561C37.7463 68.2286 37.6889 68.1886 37.641 68.1387C37.5494 68.0452 37.498 67.9195 37.498 67.7886C37.498 67.6577 37.5494 67.5322 37.641 67.4387L41.041 64.3186C41.1344 64.227 41.2601 64.1758 41.391 64.1758C41.5219 64.1758 41.6475 64.227 41.741 64.3186C41.7875 64.3642 41.8245 64.4187 41.8498 64.4788C41.875 64.5389 41.888 64.6035 41.888 64.6687C41.888 64.7339 41.875 64.7983 41.8498 64.8584C41.8245 64.9185 41.7875 64.9729 41.741 65.0186L38.341 68.1287C38.2562 68.2248 38.1384 68.2854 38.011 68.2986Z" fill="#333333"/>
<path d="M44.1391 65.9395C41.8791 65.9395 40.0391 63.7894 40.0391 61.1494C40.0391 58.5094 41.8791 56.3594 44.1391 56.3594C46.3991 56.3594 48.2291 58.5094 48.2291 61.1494C48.2291 63.7894 46.3991 65.9395 44.1391 65.9395ZM44.1391 57.3494C42.4291 57.3494 41.0291 59.0494 41.0291 61.1494C41.0291 63.2494 42.4291 64.9495 44.1391 64.9495C45.8491 64.9495 47.2391 63.2394 47.2391 61.1494C47.2391 59.0594 45.8491 57.3494 44.1391 57.3494Z" fill="#333333"/>
<path d="M62.3909 71.3989C62.2583 71.3989 62.1311 71.3462 62.0373 71.2524C61.9436 71.1587 61.8909 71.0315 61.8909 70.8989V68.0188L58.5709 65.0188C58.5243 64.9732 58.4873 64.9187 58.4621 64.8586C58.4368 64.7985 58.4238 64.7341 58.4238 64.6689C58.4238 64.6038 58.4368 64.5391 58.4621 64.479C58.4873 64.4189 58.5243 64.3645 58.5709 64.3188C58.6165 64.2723 58.671 64.2355 58.7311 64.2102C58.7912 64.185 58.8557 64.1719 58.9209 64.1719C58.9861 64.1719 59.0506 64.185 59.1107 64.2102C59.1708 64.2355 59.2253 64.2723 59.2709 64.3188L62.7509 67.449C62.8009 67.4969 62.8407 67.5541 62.8682 67.6177C62.8957 67.6812 62.9102 67.7496 62.9109 67.8188V70.9189C62.9097 70.9851 62.8951 71.0503 62.868 71.1106C62.8409 71.1709 62.8019 71.2249 62.7533 71.2698C62.7048 71.3146 62.6476 71.3494 62.5853 71.3716C62.523 71.3938 62.4569 71.403 62.3909 71.3989Z" fill="#333333"/>
<path d="M25.5 71.3982C25.3674 71.3982 25.2402 71.3455 25.1464 71.2517C25.0527 71.1579 25 71.0308 25 70.8982V67.7981C25.0008 67.7279 25.0163 67.659 25.0456 67.5952C25.0749 67.5315 25.1173 67.4745 25.17 67.4282L28.94 64.0181C28.9856 63.9715 29.0401 63.9347 29.1002 63.9094C29.1603 63.8842 29.2248 63.8711 29.29 63.8711C29.3552 63.8711 29.4197 63.8842 29.4798 63.9094C29.5399 63.9347 29.5944 63.9715 29.64 64.0181C29.7316 64.1115 29.7829 64.2373 29.7829 64.3682C29.7829 64.499 29.7316 64.6248 29.64 64.7183L26.03 67.9883V70.8682C26.0361 70.9393 26.0266 71.0108 26.0021 71.0779C25.9776 71.1449 25.9387 71.2059 25.8883 71.2563C25.8378 71.3068 25.7769 71.3459 25.7098 71.3704C25.6427 71.3948 25.5711 71.4043 25.5 71.3982Z" fill="#333333"/>
<path d="M62.39 71.4001H25.5C25.3674 71.4001 25.2402 71.3474 25.1464 71.2537C25.0527 71.1599 25 71.0328 25 70.9001C25.0026 70.7693 25.0564 70.6446 25.1499 70.553C25.2434 70.4614 25.3691 70.4101 25.5 70.4102H62.39C62.52 70.4102 62.6446 70.4618 62.7365 70.5537C62.8284 70.6456 62.88 70.7702 62.88 70.9001C62.8813 70.9653 62.8696 71.0302 62.8456 71.0908C62.8216 71.1514 62.7857 71.2066 62.7401 71.2532C62.6944 71.2997 62.64 71.3366 62.5798 71.3618C62.5197 71.3871 62.4552 71.4002 62.39 71.4001Z" fill="#333333"/>
<path d="M50.2004 68.3008C50.1312 68.3001 50.0628 68.2858 49.9993 68.2583C49.9358 68.2308 49.8783 68.1908 49.8304 68.1409C49.7388 68.0474 49.6875 67.9216 49.6875 67.7908C49.6875 67.6599 49.7388 67.5344 49.8304 67.4409L53.5704 63.991C53.6161 63.9444 53.6705 63.9073 53.7306 63.8821C53.7907 63.8568 53.8552 63.8438 53.9204 63.8438C53.9856 63.8438 54.0501 63.8568 54.1102 63.8821C54.1703 63.9073 54.2248 63.9444 54.2704 63.991C54.317 64.0366 54.354 64.091 54.3792 64.1511C54.4045 64.2112 54.4175 64.2756 54.4175 64.3408C54.4175 64.406 54.4045 64.4707 54.3792 64.5308C54.354 64.5909 54.317 64.6453 54.2704 64.6909L50.5304 68.1509C50.4425 68.2396 50.3251 68.2929 50.2004 68.3008Z" fill="#333333"/>
<path d="M56.3302 65.9395C54.0702 65.9395 52.2402 63.7894 52.2402 61.1494C52.2402 58.5094 54.0702 56.3594 56.3302 56.3594C58.5902 56.3594 60.4302 58.5094 60.4302 61.1494C60.4302 63.7894 58.5902 65.9395 56.3302 65.9395ZM56.3302 57.3494C54.6202 57.3494 53.2302 59.0494 53.2302 61.1494C53.2302 63.2494 54.6202 64.9495 56.3302 64.9495C58.0402 64.9495 59.4302 63.2394 59.4302 61.1494C59.4302 59.0594 58.0402 57.3494 56.3302 57.3494Z" fill="#333333"/>
<path d="M44.3609 42.8C49.9666 42.8 54.5109 38.2557 54.5109 32.65C54.5109 27.0443 49.9666 22.5 44.3609 22.5C38.7552 22.5 34.2109 27.0443 34.2109 32.65C34.2109 38.2557 38.7552 42.8 44.3609 42.8Z" fill="#235AB0"/>
<path d="M44.3709 43.2981C41.5445 43.2954 38.8347 42.1717 36.8361 40.1731C34.8375 38.1745 33.7136 35.4646 33.7109 32.6382C33.7162 29.8135 34.8414 27.1063 36.8396 25.1099C38.8379 23.1135 41.5463 21.9909 44.3709 21.9883C47.1939 21.9936 49.8997 23.1172 51.8958 25.1133C53.8919 27.1094 55.0156 29.8153 55.0209 32.6382C55.0183 35.4628 53.8957 38.1712 51.8993 40.1694C49.9029 42.1677 47.1956 43.2928 44.3709 43.2981ZM44.3709 22.9983C41.8107 22.9983 39.3551 24.0145 37.5438 25.824C35.7325 27.6334 34.7136 30.0879 34.7109 32.6482C34.7136 35.2085 35.7325 37.663 37.5438 39.4724C39.3551 41.2819 41.8107 42.2981 44.3709 42.2981C46.9295 42.2954 49.3824 41.2779 51.1916 39.4688C53.0007 37.6596 54.0183 35.2067 54.0209 32.6482C54.0183 30.0897 53.0007 27.6368 51.1916 25.8276C49.3824 24.0185 46.9295 23.0009 44.3709 22.9983Z" fill="#333333"/>
<path d="M44.3698 47.9197C44.2293 47.9197 44.0945 47.8638 43.9951 47.7644C43.8957 47.665 43.8398 47.5302 43.8398 47.3896V42.7996C43.8398 42.659 43.8957 42.5242 43.9951 42.4248C44.0945 42.3254 44.2293 42.2695 44.3698 42.2695C44.439 42.2695 44.5074 42.2833 44.5712 42.3101C44.6349 42.3368 44.6927 42.3762 44.7411 42.4255C44.7895 42.4749 44.8276 42.5334 44.8532 42.5977C44.8787 42.6619 44.8912 42.7304 44.8898 42.7996V47.3896C44.8912 47.4588 44.8787 47.5275 44.8532 47.5918C44.8276 47.656 44.7895 47.7146 44.7411 47.7639C44.6927 47.8133 44.6349 47.8524 44.5712 47.8792C44.5074 47.9059 44.439 47.9197 44.3698 47.9197Z" fill="#333333"/>
<path d="M44.3698 54.4995C44.2293 54.4995 44.0945 54.4436 43.9951 54.3442C43.8957 54.2448 43.8398 54.11 43.8398 53.9695V47.3894C43.8398 47.3198 43.8536 47.2508 43.8802 47.1865C43.9068 47.1222 43.9459 47.0639 43.9951 47.0146C44.0443 46.9654 44.1027 46.9263 44.167 46.8997C44.2313 46.873 44.3002 46.8594 44.3698 46.8594C44.439 46.8594 44.5074 46.8731 44.5712 46.8999C44.6349 46.9267 44.6927 46.9658 44.7411 47.0151C44.7895 47.0645 44.8276 47.123 44.8532 47.1873C44.8787 47.2515 44.8912 47.3203 44.8898 47.3894V53.9695C44.8912 54.0386 44.8787 54.1071 44.8532 54.1714C44.8276 54.2356 44.7895 54.2942 44.7411 54.3435C44.6927 54.3929 44.6349 54.4322 44.5712 54.459C44.5074 54.4857 44.439 54.4995 44.3698 54.4995Z" fill="#333333"/>
<path d="M58.0302 54.5C57.8896 54.5 57.7548 54.4441 57.6554 54.3447C57.556 54.2453 57.5002 54.1105 57.5002 53.97V50.1299C57.5002 49.5809 57.2821 49.0545 56.8939 48.6663C56.5057 48.2781 55.9792 48.0598 55.4302 48.0598H33.2802C32.7312 48.0598 32.2046 48.2781 31.8164 48.6663C31.4282 49.0545 31.2101 49.5809 31.2101 50.1299V53.97C31.2115 54.0391 31.199 54.1076 31.1735 54.1719C31.1479 54.2361 31.1099 54.2946 31.0614 54.344C31.013 54.3933 30.9552 54.4327 30.8915 54.4595C30.8277 54.4862 30.7593 54.5 30.6902 54.5C30.5496 54.5 30.4148 54.4441 30.3154 54.3447C30.216 54.2453 30.1602 54.1105 30.1602 53.97V50.1299C30.1602 49.3015 30.4885 48.5069 31.0734 47.9202C31.6582 47.3335 32.4518 47.0026 33.2802 47H55.4101C56.2385 47.0026 57.0321 47.3335 57.6169 47.9202C58.2018 48.5069 58.5302 49.3015 58.5302 50.1299V53.97C58.5329 54.1062 58.482 54.238 58.3885 54.3372C58.295 54.4363 58.1663 54.4948 58.0302 54.5Z" fill="#333333"/>
<path d="M47.7389 32.8333L46.9134 36.3288H45.4573L44.8497 33.1363C44.8497 33.078 44.8497 32.9032 44.8497 32.8217H44.0815C44.0815 32.8916 44.0127 33.078 44.0127 33.1363L43.3134 36.3288H41.9032L41.1465 32.8333H40V31.7382H40.9745L40.3669 29H41.7197L42.2242 31.7382H43.3707L43.9554 29H45.228L45.7439 31.7382H46.8102L47.372 29H48.6675L48.0025 31.7382H49V32.8333H47.7389ZM43.0497 32.8333H42.3847C42.5108 33.5324 42.614 34.2548 42.6943 34.849C42.7975 34.2431 42.935 33.5441 43.0497 32.8333ZM44.3108 31.7382H44.6089L44.4713 30.7477C44.4369 31.0739 44.3796 31.4003 44.3108 31.7382ZM46.6038 32.8333H45.9503C46.0764 33.4858 46.1682 34.2198 46.2599 34.8373C46.3745 34.2198 46.4548 33.4858 46.5924 32.8333H46.6038Z" fill="white"/>
</g>
<defs>
<clipPath id="clip0_1080_171873">
<rect width="37.88" height="49.4" fill="white" transform="translate(25 22)"/>
</clipPath>
</defs>
</svg>
