<svg width="90" height="90" viewBox="0 0 90 90" fill="none" xmlns="http://www.w3.org/2000/svg">
<circle cx="45" cy="45" r="45" fill="#FAFAFA"/>
<g clip-path="url(#clip0_1275_196429)">
<path d="M45.2202 35.78C45.2202 35.78 43.7502 19.5 28.9502 19.5C28.9502 19.5 26.4202 35.78 45.2202 35.78Z" fill="#235AB0"/>
<path d="M45.7701 36.28H45.2201C39.0901 36.28 34.5301 34.57 31.6501 31.22C27.4401 26.31 28.4101 19.7099 28.4501 19.4299L28.5201 19H28.9501C44.0301 19 45.7001 35.56 45.7201 35.73L45.7701 36.28ZM29.3901 20.01C29.2601 21.52 29.1001 26.6998 32.3901 30.5698C34.9801 33.5698 39.0901 35.17 44.6201 35.27C44.2196 32.6755 43.3846 30.1668 42.1501 27.8499C40.9705 25.4795 39.1492 23.4881 36.8933 22.1021C34.6374 20.716 32.0377 19.9911 29.3901 20.01Z" fill="#333333"/>
<path d="M45.3901 35.78C45.3901 35.78 46.8601 19.5 61.6701 19.5C61.6701 19.5 64.1901 35.78 45.3901 35.78Z" fill="#235AB0"/>
<path d="M45.3901 36.28H44.8501V35.73C44.8501 35.56 46.5401 19 61.6301 19H62.05L62.1201 19.4299C62.1201 19.7099 63.12 26.31 58.92 31.22C56.07 34.57 51.5201 36.28 45.3901 36.28ZM61.2201 20.01C48.9501 20.3 46.3801 32.51 45.9601 35.27C51.4901 35.17 55.6001 33.5898 58.1901 30.5698C61.5201 26.6898 61.3501 21.52 61.2201 20.01Z" fill="#333333"/>
<path d="M45.7202 35.2383H44.7202V46.6283H45.7202V35.2383Z" fill="#333333"/>
<path d="M45.2 36.4591L39 30.2591L39.71 29.5491L45.23 35.0791L51.3 29.5391L51.97 30.2791L45.2 36.4591Z" fill="#333333"/>
<path d="M42.6602 67.6891L43.2102 60.4491L43.1802 56.9491L40.3802 51.3391L34.3802 49.4591L32.1902 47.2191L31.6102 40.6991L31.3502 39.4691L29.1002 39.3191L26.2702 38.7891L24.1202 39.7991L25.2202 49.1991L23.6602 50.0091V51.7991L26.5502 57.2291L28.2602 58.6391L34.3702 60.0591L36.4302 62.0391L35.8502 67.4291L42.6602 67.6891Z" fill="white"/>
<path d="M47.9802 67.6891L47.4302 60.4491L47.4502 56.9491L50.2602 51.3391L56.2502 49.4591L58.4502 47.2191L59.0302 40.6991L59.2802 39.4691L61.5402 39.3191L64.3702 38.7891L66.5202 39.7991L65.4102 49.1991L66.9702 50.0091V51.7991L64.0902 57.2291L62.3802 58.6391L56.2702 60.0591L54.2002 62.0391L54.7902 67.4291L47.9802 67.6891Z" fill="white"/>
<path d="M31.6797 49.9683C31.5983 49.968 31.5181 49.9489 31.4452 49.9124C31.3724 49.876 31.3089 49.8233 31.2598 49.7584L30.1298 48.3084V48.1783C29.9898 47.3683 29.7497 45.9484 29.4897 44.4884C29.2297 43.0284 28.9298 41.2284 28.7598 40.2584C28.7406 40.143 28.6979 40.0327 28.6342 39.9346C28.5705 39.8366 28.4873 39.7528 28.3898 39.6883C28.1874 39.552 27.9392 39.5017 27.6998 39.5484L26.2997 39.8282C26.2313 39.8427 26.1608 39.8434 26.0922 39.8299C26.0236 39.8165 25.9584 39.7893 25.9005 39.7501C25.8426 39.7109 25.7932 39.6604 25.7553 39.6016C25.7174 39.5429 25.6917 39.4772 25.6797 39.4083C25.6531 39.2718 25.6812 39.1305 25.7579 39.0145C25.8346 38.8985 25.9538 38.8173 26.0898 38.7884L27.4897 38.5084C27.7479 38.459 28.0132 38.4608 28.2706 38.514C28.528 38.5672 28.7723 38.6705 28.9897 38.8182C29.2031 38.9624 29.3849 39.1485 29.5242 39.3651C29.6634 39.5817 29.7572 39.8243 29.7997 40.0782L30.5397 44.3084C30.7697 45.6984 31.0098 47.0382 31.1498 47.8582L32.1498 49.1082C32.2316 49.2207 32.2669 49.3605 32.2483 49.4984C32.2297 49.6362 32.1585 49.7615 32.0497 49.8482C31.9995 49.8924 31.9408 49.926 31.8772 49.9466C31.8136 49.9672 31.7463 49.9747 31.6797 49.9683Z" fill="#333333"/>
<path d="M34.9 50.0689C34.8243 50.0691 34.7495 50.0533 34.6805 50.0222C34.6115 49.9912 34.5499 49.9457 34.4999 49.8889L32.22 47.3189V47.169C32.03 46.169 31.8599 45.079 31.6699 43.929C31.5099 42.929 31.35 41.9289 31.16 40.8389C31.113 40.609 30.9807 40.4056 30.7899 40.2691C30.5818 40.1379 30.3326 40.0879 30.09 40.1289L29.34 40.2791C29.2723 40.2936 29.2024 40.2943 29.1343 40.2815C29.0663 40.2687 29.0015 40.2426 28.9437 40.2044C28.886 40.1662 28.8365 40.1169 28.798 40.0593C28.7596 40.0018 28.7331 39.9369 28.72 39.8689C28.6931 39.7312 28.7208 39.5886 28.7974 39.471C28.8739 39.3534 28.9932 39.2702 29.1299 39.239L29.89 39.0889C30.4081 38.9918 30.9435 39.1033 31.3799 39.3989C31.596 39.5413 31.7803 39.7266 31.9214 39.9434C32.0625 40.1602 32.1573 40.4038 32.2 40.659C32.39 41.739 32.56 42.769 32.72 43.759C32.88 44.749 33.0599 45.8689 33.2399 46.8289L35.32 49.189C35.3692 49.2382 35.4083 49.2968 35.435 49.3611C35.4617 49.4254 35.4754 49.4943 35.4754 49.564C35.4754 49.6336 35.4617 49.7025 35.435 49.7669C35.4083 49.8312 35.3692 49.8898 35.32 49.939C35.2633 49.9894 35.1965 50.0271 35.1241 50.0496C35.0516 50.072 34.9752 50.0785 34.9 50.0689Z" fill="#333333"/>
<path d="M36.38 67.9609C36.2395 67.9609 36.1047 67.9051 36.0053 67.8057C35.9059 67.7063 35.8501 67.5715 35.8501 67.4309V62.6909C35.8515 62.411 35.764 62.1378 35.6001 61.9109C34.6319 60.8539 33.3142 60.1827 31.89 60.021L31.24 59.8809C29.5852 59.7097 28.0103 59.0831 26.69 58.0708C26.0116 57.3811 25.4628 56.575 25.07 55.6909C24.3146 54.1955 23.6663 52.6483 23.13 51.061C23.0299 50.7744 23.0173 50.4642 23.0939 50.1704C23.1705 49.8766 23.3327 49.6122 23.56 49.4109C23.7886 49.2083 24.0723 49.0783 24.375 49.0374C24.6777 48.9964 24.9858 49.0463 25.26 49.1809C26.3975 49.6744 27.3348 50.5377 27.92 51.6309C27.99 51.7809 28.05 51.9308 28.11 52.0808C28.56 53.0808 28.83 53.6609 29.81 53.4709C30.0074 53.4228 30.1986 53.3524 30.38 53.261C31.6989 52.697 33.1507 52.5187 34.5669 52.7471C35.983 52.9754 37.3052 53.6011 38.38 54.551C38.429 54.5994 38.4679 54.6569 38.4945 54.7205C38.521 54.784 38.5346 54.8521 38.5346 54.9209C38.5346 54.9897 38.521 55.0578 38.4945 55.1213C38.4679 55.1849 38.429 55.2426 38.38 55.291C38.2794 55.3882 38.1449 55.4424 38.005 55.4424C37.8651 55.4424 37.7307 55.3882 37.63 55.291C36.7062 54.4695 35.5666 53.9293 34.3457 53.7344C33.1249 53.5395 31.8738 53.6979 30.74 54.1909C30.4847 54.314 30.2164 54.408 29.94 54.4709C28.07 54.8309 27.46 53.4009 27.06 52.4709L26.88 52.061C26.409 51.1713 25.6514 50.4666 24.73 50.061C24.6407 50.0185 24.5408 50.0033 24.4429 50.0176C24.345 50.0318 24.2535 50.0746 24.18 50.1409C24.1088 50.2024 24.0581 50.2843 24.0349 50.3755C24.0116 50.4667 24.0169 50.5628 24.05 50.6509C24.5705 52.1898 25.1987 53.6902 25.93 55.1409C26.2808 55.9183 26.7686 56.6263 27.37 57.231C28.5422 58.0934 29.9228 58.6284 31.37 58.781L32.04 58.9209C33.7206 59.1359 35.2662 59.9531 36.39 61.2209C36.6836 61.6324 36.841 62.1254 36.84 62.6309V67.3909C36.8515 67.5268 36.81 67.6619 36.7243 67.7681C36.6386 67.8742 36.5153 67.9434 36.38 67.9609Z" fill="#333333"/>
<path d="M43.1899 68.2305C43.0494 68.2305 42.9146 68.1746 42.8152 68.0752C42.7158 67.9758 42.66 67.841 42.66 67.7005V57.9405C42.4889 56.3568 41.9624 54.8323 41.1199 53.4805C39.6599 51.1505 37.5399 50.6805 35.4799 50.2205L34.7799 50.0506C34.6437 50.0195 34.5251 49.9359 34.4502 49.8179C34.3753 49.6999 34.3501 49.557 34.3799 49.4205C34.4131 49.2839 34.4992 49.1662 34.6192 49.0931C34.7392 49.0199 34.8833 48.9974 35.0199 49.0306L35.7099 49.1805C37.7699 49.6505 40.3299 50.1805 42.0199 52.9205C42.9546 54.4385 43.5356 56.1474 43.7199 57.9205V67.6905C43.7213 67.7609 43.7085 67.8308 43.6825 67.8963C43.6564 67.9617 43.6176 68.0215 43.5683 68.0718C43.5189 68.1221 43.46 68.162 43.3951 68.1893C43.3301 68.2165 43.2604 68.2305 43.1899 68.2305Z" fill="#333333"/>
<path d="M29.2102 50.9604C29.132 50.9609 29.0548 50.9442 28.9839 50.9113C28.913 50.8785 28.8502 50.8304 28.8001 50.7705L27.4301 49.1503L25.9602 40.0505C25.9288 39.8619 25.8246 39.6929 25.6701 39.5803C25.5908 39.5213 25.4998 39.4801 25.4031 39.4594C25.3065 39.4387 25.2066 39.4391 25.1101 39.4604C24.9061 39.4994 24.7241 39.6134 24.6 39.78C24.476 39.9466 24.4189 40.1537 24.4401 40.3603L25.6301 49.4904C25.64 49.5588 25.6361 49.6284 25.6187 49.6953C25.6013 49.7621 25.5708 49.8249 25.5289 49.8798C25.487 49.9348 25.4346 49.9806 25.3747 50.0151C25.3148 50.0495 25.2487 50.0717 25.1801 50.0803C25.1112 50.0902 25.0409 50.0866 24.9735 50.0693C24.906 50.052 24.8426 50.0215 24.7869 49.9797C24.7311 49.9379 24.6842 49.8856 24.6488 49.8256C24.6133 49.7657 24.59 49.6993 24.5801 49.6303L23.3901 40.4904C23.3338 40.017 23.4594 39.5398 23.7416 39.1555C24.0238 38.7711 24.4415 38.5083 24.9102 38.4204C25.1447 38.3738 25.3862 38.3756 25.62 38.4255C25.8538 38.4753 26.075 38.5722 26.2702 38.7104C26.466 38.8445 26.6319 39.0176 26.7575 39.2189C26.8831 39.4203 26.9658 39.6455 27.0001 39.8803L28.4301 48.6904L29.6101 50.0903C29.6996 50.1985 29.7435 50.3375 29.7322 50.4775C29.721 50.6175 29.6557 50.7476 29.5501 50.8403C29.4539 50.9181 29.3339 50.9605 29.2102 50.9604Z" fill="#333333"/>
<path d="M58.9301 49.9708C58.8129 49.9687 58.6998 49.9262 58.6101 49.8506C58.5007 49.764 58.4299 49.6379 58.4131 49.4993C58.3962 49.3608 58.4347 49.221 58.5202 49.1106L59.5202 47.8606C59.6702 47.0406 59.9002 45.7008 60.1402 44.3108C60.4202 42.7108 60.7001 41.0506 60.8701 40.0806C60.9128 39.8255 61.0076 39.5821 61.1487 39.3653C61.2898 39.1485 61.4741 38.9629 61.6902 38.8206C62.1266 38.525 62.662 38.4137 63.1801 38.5108L64.5802 38.7908C64.7162 38.8197 64.8354 38.9009 64.9121 39.0169C64.9888 39.1329 65.0168 39.2742 64.9901 39.4107C64.9782 39.4796 64.9525 39.5453 64.9146 39.6041C64.8767 39.6628 64.8273 39.7133 64.7694 39.7525C64.7116 39.7917 64.6464 39.8189 64.5778 39.8323C64.5092 39.8458 64.4385 39.8451 64.3701 39.8306L62.9801 39.5508C62.7375 39.5098 62.4883 39.5595 62.2802 39.6907C62.0894 39.8272 61.9572 40.0309 61.9102 40.2608C61.7402 41.2608 61.4601 42.8908 61.1801 44.4908C60.9001 46.0908 60.6801 47.3707 60.5401 48.1807V48.3108L59.4002 49.7608C59.3475 49.8343 59.2762 49.8926 59.1936 49.9295C59.111 49.9664 59.0201 49.9806 58.9301 49.9708Z" fill="#333333"/>
<path d="M55.7101 50.0689C55.5815 50.0694 55.4571 50.0233 55.36 49.939C55.3108 49.8898 55.2717 49.8312 55.245 49.7669C55.2183 49.7025 55.2046 49.6336 55.2046 49.564C55.2046 49.4943 55.2183 49.4254 55.245 49.3611C55.2717 49.2968 55.3108 49.2382 55.36 49.189L57.4501 46.8289C57.6201 45.8289 57.7901 44.829 57.9701 43.759C58.1501 42.689 58.3001 41.759 58.4901 40.659C58.5326 40.405 58.6264 40.1624 58.7657 39.9458C58.9049 39.7292 59.0867 39.5431 59.3 39.3989C59.7365 39.1033 60.2719 38.9918 60.79 39.0889L61.55 39.239C61.6887 39.268 61.8104 39.3502 61.889 39.468C61.9675 39.5859 61.9967 39.7298 61.9701 39.8689C61.9412 40.0049 61.86 40.1242 61.744 40.2009C61.628 40.2776 61.4866 40.3057 61.3501 40.2791L60.5901 40.1289C60.3506 40.0823 60.1024 40.1327 59.9001 40.2691C59.8025 40.3335 59.7193 40.4173 59.6556 40.5154C59.592 40.6135 59.5492 40.7235 59.5301 40.8389C59.3401 41.9089 59.1701 42.939 59.0101 43.919C58.8301 45.069 58.6501 46.159 58.4601 47.169V47.3189L56.1801 49.8889C56.1234 49.9563 56.0505 50.0081 55.9683 50.0396C55.8861 50.071 55.7973 50.0811 55.7101 50.0689Z" fill="#333333"/>
<path d="M54.23 67.9597C54.0894 67.9597 53.9546 67.9038 53.8552 67.8044C53.7558 67.705 53.7 67.5702 53.7 67.4297V62.6897C53.6978 62.1824 53.8592 61.6881 54.16 61.2798C55.2762 60.0074 56.8205 59.189 58.5 58.9797L59.17 58.8396C60.6163 58.6833 61.996 58.1488 63.17 57.2898C63.7652 56.6821 64.2493 55.9746 64.6 55.1997C65.3313 53.749 65.9595 52.2486 66.48 50.7097C66.5162 50.622 66.5231 50.525 66.4997 50.4331C66.4763 50.3412 66.4238 50.2593 66.35 50.1997C66.2788 50.1331 66.1889 50.0897 66.0925 50.0754C65.996 50.0611 65.8975 50.0765 65.81 50.1196C64.8857 50.5246 64.1248 51.2291 63.65 52.1196L63.47 52.5298C63.07 53.4798 62.47 54.9198 60.59 54.5298C60.3142 54.465 60.046 54.3711 59.79 54.2497C58.6562 53.7567 57.4052 53.5983 56.1843 53.7932C54.9635 53.9881 53.8239 54.5281 52.9 55.3496C52.8517 55.3986 52.794 55.4375 52.7305 55.4641C52.667 55.4906 52.5989 55.5044 52.53 55.5044C52.4612 55.5044 52.393 55.4906 52.3295 55.4641C52.266 55.4375 52.2084 55.3986 52.16 55.3496C52.1111 55.3012 52.0721 55.2437 52.0456 55.1801C52.0191 55.1166 52.0054 55.0485 52.0054 54.9797C52.0054 54.9109 52.0191 54.8428 52.0456 54.7793C52.0721 54.7157 52.1111 54.658 52.16 54.6096C53.2348 53.6597 54.557 53.0342 55.9731 52.8059C57.3893 52.5775 58.8411 52.7556 60.16 53.3195C60.3428 53.4078 60.5336 53.4783 60.73 53.5298C61.73 53.7298 61.99 53.1896 62.43 52.1396L62.62 51.6897C63.2052 50.5965 64.1425 49.7332 65.28 49.2397C65.5543 49.1051 65.8623 49.055 66.165 49.0959C66.4677 49.1369 66.7514 49.2671 66.98 49.4697C67.209 49.6698 67.3732 49.9336 67.4516 50.2275C67.53 50.5214 67.519 50.832 67.42 51.1196C66.8641 52.7085 66.1958 54.2558 65.42 55.7497C65.0198 56.6425 64.4569 57.4529 63.76 58.1396C62.4426 59.1502 60.8714 59.7767 59.22 59.9497L58.56 60.0896C57.1374 60.2565 55.8215 60.9271 54.85 61.9797C54.6861 62.2066 54.5986 62.4798 54.6 62.7597V67.5197C54.5872 67.6209 54.5455 67.7161 54.4799 67.7942C54.4142 67.8722 54.3274 67.9297 54.23 67.9597Z" fill="#333333"/>
<path d="M47.4201 68.2283C47.2795 68.2283 47.1447 68.1725 47.0453 68.0731C46.946 67.9737 46.8901 67.8389 46.8901 67.6983V57.9383C47.0724 56.1633 47.6573 54.4532 48.6002 52.9383C50.2902 50.2383 52.8401 49.6683 54.9001 49.1983L55.5901 49.0484C55.6578 49.0306 55.7284 49.0266 55.7976 49.0367C55.8669 49.0468 55.9333 49.0706 55.9931 49.107C56.0529 49.1434 56.1047 49.1917 56.1454 49.2486C56.1861 49.3055 56.2149 49.37 56.2301 49.4383C56.2464 49.5053 56.2492 49.5748 56.2384 49.6429C56.2276 49.711 56.2033 49.7764 56.167 49.835C56.1307 49.8937 56.0831 49.9444 56.027 49.9844C55.9709 50.0245 55.9074 50.0529 55.8401 50.0682L55.1301 50.2384C53.1301 50.6984 50.9501 51.1684 49.4901 53.4984C48.6454 54.8637 48.119 56.4017 47.9501 57.9984V67.6883C47.9515 67.7587 47.9388 67.8287 47.9127 67.8941C47.8867 67.9596 47.8478 68.0194 47.7985 68.0697C47.7491 68.1199 47.6903 68.1598 47.6253 68.1871C47.5603 68.2143 47.4906 68.2284 47.4201 68.2283Z" fill="#333333"/>
<path d="M61.4102 50.9604C61.2865 50.9605 61.1664 50.9181 61.0702 50.8403C61.016 50.7958 60.9713 50.7413 60.9384 50.6794C60.9055 50.6175 60.8853 50.5497 60.8788 50.4799C60.8723 50.4102 60.8796 50.34 60.9004 50.2731C60.9213 50.2063 60.9552 50.144 61.0002 50.0903L62.1802 48.6904L63.6101 39.8803C63.6484 39.6467 63.7326 39.4232 63.858 39.2224C63.9833 39.0215 64.1472 38.8475 64.3402 38.7104C64.5353 38.5722 64.7565 38.4753 64.9903 38.4255C65.2242 38.3756 65.4657 38.3738 65.7002 38.4204C66.1676 38.5082 66.5847 38.769 66.8683 39.1508C67.1519 39.5327 67.2811 40.0075 67.2301 40.4804L66.0302 49.6303C66.0216 49.6989 65.9994 49.765 65.9649 49.8249C65.9305 49.8848 65.8845 49.9373 65.8296 49.9792C65.7746 50.0211 65.7119 50.0517 65.6451 50.069C65.5782 50.0864 65.5085 50.0901 65.4402 50.0803C65.3707 50.0729 65.3035 50.0517 65.2425 50.0178C65.1814 49.9839 65.1279 49.9381 65.0849 49.883C65.042 49.8279 65.0106 49.7649 64.9926 49.6975C64.9746 49.63 64.9704 49.5596 64.9801 49.4904L66.1802 40.3503C66.1987 40.1453 66.1405 39.9408 66.0166 39.7763C65.8928 39.6119 65.7123 39.4992 65.5102 39.4604C65.4137 39.4391 65.3138 39.4387 65.2171 39.4594C65.1205 39.4801 65.0295 39.5213 64.9502 39.5803C64.7935 39.6926 64.6861 39.8611 64.6502 40.0505L63.1802 49.1503L61.8102 50.7705C61.7626 50.8307 61.7017 50.8791 61.6324 50.9121C61.563 50.945 61.487 50.9616 61.4102 50.9604Z" fill="#333333"/>
<path d="M43.7101 67.6211H35.3101V70.5211H43.7101V67.6211Z" fill="#235AB0"/>
<path d="M44.2101 71.0212H34.8101V67.1211H44.2101V71.0212ZM35.8101 70.0212H43.2101V68.1211H35.8101V70.0212Z" fill="#333333"/>
<path d="M55.2701 67.6211H46.8701V70.5211H55.2701V67.6211Z" fill="#235AB0"/>
<path d="M55.7799 71.0212H46.3799V67.1211H55.7799V71.0212ZM47.3799 70.0212H54.7799V68.1211H47.3799V70.0212Z" fill="#333333"/>
</g>
<defs>
<clipPath id="clip0_1275_196429">
<rect width="44.61" height="52.02" fill="white" transform="translate(23 19)"/>
</clipPath>
</defs>
</svg>
