<svg width="91" height="90" viewBox="0 0 91 90" fill="none" xmlns="http://www.w3.org/2000/svg">
<circle cx="46" cy="45" r="45" fill="#FAFAFA"/>
<g clip-path="url(#clip0_1080_171973)">
<path d="M45.6407 42.2638C51.3793 42.2638 56.0314 37.4421 56.0314 31.4942C56.0314 25.5463 51.3793 20.7246 45.6407 20.7246C39.9021 20.7246 35.25 25.5463 35.25 31.4942C35.25 37.4421 39.9021 42.2638 45.6407 42.2638Z" fill="white"/>
<path d="M45.4542 69.0149C54.7272 69.0149 62.2444 61.4977 62.2444 52.2247C62.2444 42.9518 54.7272 35.4346 45.4542 35.4346C36.1813 35.4346 28.6641 42.9518 28.6641 52.2247C28.6641 61.4977 36.1813 69.0149 45.4542 69.0149Z" fill="white"/>
<path d="M37.9957 43.5771C36.8343 46.4072 36.2613 49.4441 36.3116 52.5028" stroke="#333333" stroke-width="1.06" stroke-miterlimit="10" stroke-linecap="round"/>
<path d="M45.4961 65.5881V50.8525" stroke="#333333" stroke-width="1.06" stroke-miterlimit="10" stroke-linecap="round"/>
<path d="M55.9293 39.0137C57.9907 40.6138 59.6588 42.6642 60.8059 45.008C61.953 47.3519 62.5488 49.9271 62.5477 52.5366V52.5366C62.5477 57.0588 60.7513 61.396 57.5535 64.5938C54.3558 67.7915 50.0188 69.5878 45.4965 69.5878C40.9743 69.5878 36.6372 67.7915 33.4395 64.5938C30.2418 61.396 28.4453 57.0588 28.4453 52.5366C28.4421 49.927 29.0379 47.3517 30.1868 45.0086C31.3357 42.6656 33.0071 40.6175 35.0722 39.0221" stroke="#333333" stroke-width="1.06" stroke-miterlimit="10" stroke-linecap="round"/>
<path d="M50.4648 65.5872C52.612 62.9685 54.675 58.8511 54.675 52.5106C54.7216 49.4523 54.1487 46.4161 52.9909 43.585" stroke="#333333" stroke-width="1.06" stroke-miterlimit="10" stroke-linecap="round"/>
<path d="M40.5227 65.5874C38.3755 62.9686 36.3125 58.8513 36.3125 52.5107" stroke="#333333" stroke-width="1.06" stroke-miterlimit="10" stroke-linecap="round"/>
<path d="M57.3637 64.7629C57.3637 64.7629 54.9218 59.8203 45.5078 59.8203" stroke="#333333" stroke-width="1.06" stroke-miterlimit="10" stroke-linecap="round"/>
<path d="M33.6406 64.7629C33.6406 64.7629 36.0741 59.8203 45.4964 59.8203" stroke="#333333" stroke-width="1.06" stroke-miterlimit="10" stroke-linecap="round"/>
<path d="M39.5703 27.8144L45.4982 24.4463L51.4262 27.8144L45.4982 31.2331" stroke="#333333" stroke-width="1.06" stroke-linecap="round" stroke-linejoin="round"/>
<path d="M45.4982 38.0789L39.5703 34.6518V27.8145" stroke="#333333" stroke-width="1.06" stroke-linecap="round" stroke-linejoin="round"/>
<path d="M45.4961 38.0789L51.424 34.6518V27.8145" stroke="#333333" stroke-width="1.06" stroke-linecap="round" stroke-linejoin="round"/>
<path d="M45.4961 31.2324V35.7794" stroke="#333333" stroke-width="1.06" stroke-linecap="round" stroke-linejoin="round"/>
<path d="M45.4993 48.3175C45.4993 48.3175 34.957 40.1583 34.957 30.9886C34.9593 28.1933 36.0707 25.5131 38.0472 23.5365C40.0238 21.5599 42.704 20.4485 45.4993 20.4463C48.2946 20.4485 50.9748 21.5599 52.9514 23.5365C54.9279 25.5131 56.0393 28.1933 56.0416 30.9886C56.0416 40.1583 45.4993 48.3175 45.4993 48.3175Z" stroke="#333333" stroke-width="1.06" stroke-linecap="round" stroke-linejoin="round"/>
<path d="M45.4993 41.2446C43.9083 41.246 42.3257 41.0162 40.8008 40.5625C42.1993 42.4131 43.7727 44.1248 45.4993 45.6737C47.232 44.1258 48.8112 42.4141 50.2147 40.5625C48.6839 41.0156 47.0957 41.2453 45.4993 41.2446Z" fill="#235AB0"/>
<path d="M41.4219 29.1194V33.9106L43.5859 35.1568V29.8772L47.333 27.7553L45.5731 26.7617L41.4219 29.1194Z" fill="#235AB0"/>
</g>
<defs>
<clipPath id="clip0_1080_171973">
<rect width="34.9949" height="50" fill="white" transform="translate(28 20)"/>
</clipPath>
</defs>
</svg>
