<svg width="305" height="63" viewBox="0 0 305 63" fill="none" xmlns="http://www.w3.org/2000/svg">
<path d="M235.694 53.8716V27.8879L220.29 53.1956H209.725L194.291 27.8879V53.8716H182.37V9.14062H194.96L215.312 42.1322L235.694 9.14062H247.925V53.8716H235.694Z" fill="#003994"/>
<path d="M161.589 25.6612H137.645C136.648 25.6612 135.76 25.3133 135.011 24.6275C134.373 23.9217 134.014 23.1464 133.974 22.2915C134.014 21.2577 134.373 20.4426 135.011 19.8164C135.69 19.1405 136.508 18.7826 137.466 18.7826H174.019V9.14062H136.149C131.699 9.14062 128.218 10.4229 125.614 13.0074C122.91 15.6614 121.563 18.8224 121.563 22.54C121.563 26.2577 122.91 29.5578 125.614 32.2814C128.317 35.015 131.839 36.3569 136.149 36.3569H161.299C162.407 36.3569 163.295 36.7446 164.043 37.5199C164.791 38.2654 165.18 39.1899 165.18 40.2535C165.18 41.3171 164.791 42.2415 164.013 43.0168C163.225 43.7922 162.267 44.1798 161.13 44.1798H124.087V53.8616H161.599C166.008 53.8616 169.6 52.4402 172.413 49.6072C175.187 46.8041 176.573 43.4443 176.573 39.5378C176.573 35.6313 175.187 32.52 172.413 29.7268C169.71 27.0032 166.118 25.6513 161.599 25.6513" fill="#003994"/>
<path d="M305 18.7826V9.14062H255.437V53.8716H305V44.1898H267.648V36.347H305V26.6652H267.668V18.7826H305Z" fill="#003994"/>
<path d="M57.6739 47.7584C61.1956 53.6331 70.8328 62.2314 83.8022 62.9471C91.1149 63.3447 98.0086 61.4958 103.536 57.5595C112.115 51.8538 117.213 42.2317 116.625 31.8839C116.056 21.7847 107.147 12.9677 98.1882 13.3156C92.8808 13.5244 88.3814 16.1784 85.8972 20.403C89.6085 20.9298 94.8062 23.1564 96.3426 28.7726C97.8889 34.4883 93.619 40.4325 88.7804 42.1323C88.6906 42.3013 88.7904 42.5398 89.0498 42.51C96.0932 41.6353 104.104 36.8043 102.458 24.1107C104.364 30.7905 103.057 39.5081 97.9189 45.2535C94.5069 49.0606 89.1595 51.7146 81.9466 51.2872C81.5176 51.2574 81.338 51.8538 81.8668 51.9731C89.3291 53.5735 95.9934 51.3468 100.712 48.0368C106.169 44.2197 109.232 37.8878 109.671 31.4167C110.519 41.2476 106.419 50.1938 95.5844 55.5913C83.3732 61.6747 66.0142 56.5754 58.4321 47.2813C57.8435 46.5557 57.2249 46.9533 57.6938 47.7485" fill="#003994"/>
<path d="M113.362 15.2537C109.841 9.36908 100.213 0.780739 87.234 0.0551035C79.9213 -0.352445 73.0275 1.50637 67.5006 5.44269C58.9208 11.1484 53.8229 20.7705 54.4115 31.1182C55.0001 41.5058 63.8193 50.0444 72.848 49.6866C78.1554 49.4778 82.6548 46.8337 85.1389 42.5992C81.4277 42.0724 76.23 39.8457 74.7036 34.2295C73.1472 28.5139 77.4271 22.5697 82.2657 20.86C82.3555 20.691 82.2558 20.4524 81.9964 20.4822C74.953 21.357 66.9419 26.1879 68.588 38.8815C66.6825 32.2017 67.9894 23.4842 73.1273 17.7387C76.5392 13.9316 81.8866 11.2776 89.1096 11.705C89.5386 11.7348 89.7181 11.1384 89.1894 11.0192C81.727 9.41878 75.0627 11.6454 70.3439 14.9555C64.8868 18.7825 61.834 25.1044 61.385 31.5755C60.537 21.7446 64.6373 12.7984 75.4718 7.40092C87.6829 1.31751 105.042 6.41683 112.624 15.7109C113.213 16.4465 113.831 16.029 113.362 15.2437" fill="#E60021"/>
<path d="M27.7445 30.1244L57.1251 53.8716H39.7462L12.301 32.5399V53.8716H0V9.14062H12.301V28.1662L37.5513 9.14062H54.4116L27.7445 30.1244Z" fill="#003994"/>
</svg>
