<svg width="48" height="48" viewBox="0 0 48 48" fill="none" xmlns="http://www.w3.org/2000/svg">
<circle cx="24" cy="24" r="24" fill="white"/>
<path d="M28.6495 13H19.3505C15.8385 13 13 15.8454 13 19.3505V28.6495C13 32.1546 15.8385 34.9931 19.3505 34.9931H28.6495C32.1546 34.9931 35 32.1546 35 28.6495V19.3505C34.9931 15.8454 32.1546 13 28.6495 13ZM32.9725 28.8076C32.9725 31.1375 31.0825 33.0206 28.7595 33.0206H19.2406C16.9175 33.0206 15.0275 31.1306 15.0275 28.8076V19.2955C15.0275 16.9656 16.9175 15.0825 19.2406 15.0825H28.7595C31.0893 15.0825 32.9725 16.9725 32.9725 19.2955V28.8076Z" fill="url(#paint0_linear_603_55844)"/>
<path d="M23.9974 18.3477C20.8428 18.3477 18.293 20.9044 18.293 24.0522C18.293 27.2 20.8428 29.7567 23.9974 29.7567C27.1521 29.7567 29.7088 27.2 29.7088 24.0522C29.7088 20.9044 27.1521 18.3477 23.9974 18.3477ZM23.9974 27.7498C21.9562 27.7498 20.2998 26.0934 20.2998 24.0522C20.2998 22.011 21.9562 20.3477 23.9974 20.3477C26.0387 20.3477 27.695 22.0041 27.695 24.0522C27.695 26.0934 26.0387 27.7498 23.9974 27.7498Z" fill="url(#paint1_linear_603_55844)"/>
<path d="M29.8939 16.8018C29.1585 16.8018 28.5605 17.3997 28.5605 18.1283C28.5605 18.8637 29.1585 19.4547 29.8939 19.4547C30.6293 19.4547 31.2203 18.8637 31.2203 18.1283C31.2272 17.3929 30.6293 16.8018 29.8939 16.8018Z" fill="url(#paint2_linear_603_55844)"/>
<defs>
<linearGradient id="paint0_linear_603_55844" x1="15" y1="14.5" x2="32.5" y2="34.5" gradientUnits="userSpaceOnUse">
<stop stop-color="#64337E"/>
<stop offset="0.333333" stop-color="#CF1D64"/>
<stop offset="0.71875" stop-color="#E04919"/>
<stop offset="1" stop-color="#FFF100"/>
</linearGradient>
<linearGradient id="paint1_linear_603_55844" x1="19.3308" y1="19.1259" x2="28.4085" y2="29.5035" gradientUnits="userSpaceOnUse">
<stop stop-color="#64337E"/>
<stop offset="0.333333" stop-color="#CF1D64"/>
<stop offset="0.71875" stop-color="#E04919"/>
<stop offset="1" stop-color="#FFF100"/>
</linearGradient>
<linearGradient id="paint2_linear_603_55844" x1="28.8024" y1="16.9827" x2="30.9126" y2="19.4" gradientUnits="userSpaceOnUse">
<stop stop-color="#64337E"/>
<stop offset="0.333333" stop-color="#CF1D64"/>
<stop offset="0.71875" stop-color="#E04919"/>
<stop offset="1" stop-color="#FFF100"/>
</linearGradient>
</defs>
</svg>
