<svg width="16" height="16" viewBox="0 0 16 16" fill="none" xmlns="http://www.w3.org/2000/svg">
<path d="M13.6569 10.3432C14.9509 7.21896 13.4673 3.63724 10.3431 2.34316C7.21895 1.04907 3.63723 2.53267 2.34315 5.65687C1.04906 8.78106 2.53266 12.3628 5.65685 13.6569C8.78105 14.951 12.3628 13.4674 13.6569 10.3432Z" stroke="#2F3B84" stroke-linecap="round" stroke-linejoin="round"/>
<path d="M7.89753 14.0398C6.93354 14.0398 6.14258 13.1482 6.14258 12.0575V3.73742C6.14258 2.64856 6.93189 1.75513 7.89753 1.75513C8.86152 1.75513 9.65248 2.6467 9.65248 3.73742V12.0575C9.65248 13.1464 8.86317 14.0398 7.89753 14.0398Z" stroke="#2F3B84" stroke-linecap="round" stroke-linejoin="round"/>
<path d="M13.1625 9.65161C12.8396 9.65161 12.4483 9.65161 12.0271 9.65161H3.70509C3.31022 9.65161 2.94344 9.65161 2.63281 9.65161" stroke="#2F3B84" stroke-linecap="round" stroke-linejoin="round"/>
<path d="M2.63281 5.26489C2.95988 5.81645 3.35766 6.14237 3.78903 6.14237H12.1725C12.5331 6.14237 12.8708 5.91673 13.1625 5.5156" stroke="#2F3B84" stroke-linecap="round" stroke-linejoin="round"/>
</svg>
