<svg width="48" height="48" viewBox="0 0 48 48" fill="none" xmlns="http://www.w3.org/2000/svg">
<circle cx="24" cy="24" r="24" fill="white"/>
<path d="M33.5825 19.1864C33.352 18.3264 32.6746 17.648 31.8146 17.4186C30.2544 17 24.0005 17 24.0005 17C24.0005 17 17.7456 17 16.1865 17.4186C15.3254 17.648 14.648 18.3253 14.4175 19.1864C14 20.7454 14 24.0005 14 24.0005C14 24.0005 14 27.2546 14.4175 28.8147C14.648 29.6747 15.3254 30.3531 16.1865 30.5825C17.7467 31 24.0005 31 24.0005 31C24.0005 31 30.2544 31 31.8146 30.5825C32.6746 30.352 33.3531 29.6747 33.5825 28.8147C34 27.2546 34 24.0005 34 24.0005C34 24.0005 34 20.7465 33.5825 19.1864ZM22 27.0002V20.9998L27.196 24.0005L22 27.0002Z" fill="#FF0000"/>
</svg>
